<svg xmlns="http://www.w3.org/2000/svg" xmlns:xlink="http://www.w3.org/1999/xlink" contentStyleType="text/css" data-diagram-type="CLASS" height="600px" preserveAspectRatio="none" style="width:461px;height:600px;background:#FFFFFF;" version="1.1" viewBox="0 0 461 600" width="461px" zoomAndPan="magnify"><defs/><g><!--class Letra--><g class="entity" data-entity="Letra" data-source-line="1" data-uid="ent0002" id="entity_Letra"><rect fill="#F1F1F1" height="64.2969" rx="2.5" ry="2.5" style="stroke:#181818;stroke-width:0.5;" width="113.3906" x="241.5" y="529"/><ellipse cx="276.819" cy="545" fill="#ADD1B2" rx="11" ry="11" style="stroke:#181818;stroke-width:1;"/><path d="M279.7877,550.6406 Q279.2096,550.9375 278.569,551.0781 Q277.9284,551.2344 277.2252,551.2344 Q274.7252,551.2344 273.3971,549.5938 Q272.0846,547.9375 272.0846,544.8125 Q272.0846,541.6875 273.3971,540.0313 Q274.7252,538.375 277.2252,538.375 Q277.9284,538.375 278.569,538.5313 Q279.2252,538.6875 279.7877,538.9844 L279.7877,541.7031 Q279.1627,541.125 278.569,540.8594 Q277.9752,540.5781 277.3502,540.5781 Q276.0065,540.5781 275.319,541.6563 Q274.6315,542.7188 274.6315,544.8125 Q274.6315,546.9063 275.319,547.9844 Q276.0065,549.0469 277.3502,549.0469 Q277.9752,549.0469 278.569,548.7813 Q279.1627,548.5 279.7877,547.9219 L279.7877,550.6406 Z " fill="#000000"/><text fill="#000000" font-family="sans-serif" font-size="14" lengthAdjust="spacing" textLength="36.2373" x="295.3343" y="549.8467">Letra</text><line style="stroke:#181818;stroke-width:0.5;" x1="242.5" x2="353.8906" y1="561" y2="561"/><rect fill="none" height="6" style="stroke:#C82930;stroke-width:1;" width="6" x="249.5" y="571.6484"/><text fill="#000000" font-family="sans-serif" font-size="14" lengthAdjust="spacing" textLength="87.3906" x="261.5" y="577.9951">texto: String</text><line style="stroke:#181818;stroke-width:0.5;" x1="242.5" x2="353.8906" y1="585.2969" y2="585.2969"/></g><!--class Cancion--><g class="entity" data-entity="Cancion" data-source-line="5" data-uid="ent0003" id="entity_Cancion"><rect fill="#F1F1F1" height="96.8906" rx="2.5" ry="2.5" style="stroke:#181818;stroke-width:0.5;" width="312.8496" x="141.5" y="355"/><ellipse cx="265.5483" cy="371" fill="#ADD1B2" rx="11" ry="11" style="stroke:#181818;stroke-width:1;"/><path d="M268.5171,376.6406 Q267.939,376.9375 267.2983,377.0781 Q266.6577,377.2344 265.9546,377.2344 Q263.4546,377.2344 262.1265,375.5938 Q260.814,373.9375 260.814,370.8125 Q260.814,367.6875 262.1265,366.0313 Q263.4546,364.375 265.9546,364.375 Q266.6577,364.375 267.2983,364.5313 Q267.9546,364.6875 268.5171,364.9844 L268.5171,367.7031 Q267.8921,367.125 267.2983,366.8594 Q266.7046,366.5781 266.0796,366.5781 Q264.7358,366.5781 264.0483,367.6563 Q263.3608,368.7188 263.3608,370.8125 Q263.3608,372.9063 264.0483,373.9844 Q264.7358,375.0469 266.0796,375.0469 Q266.7046,375.0469 267.2983,374.7813 Q267.8921,374.5 268.5171,373.9219 L268.5171,376.6406 Z " fill="#000000"/><text fill="#000000" font-family="sans-serif" font-size="14" lengthAdjust="spacing" textLength="56.2529" x="286.0483" y="375.8467">Cancion</text><line style="stroke:#181818;stroke-width:0.5;" x1="142.5" x2="453.3496" y1="387" y2="387"/><rect fill="none" height="6" style="stroke:#C82930;stroke-width:1;" width="6" x="149.5" y="397.6484"/><text fill="#000000" font-family="sans-serif" font-size="14" lengthAdjust="spacing" textLength="87.1445" x="161.5" y="403.9951">titulo: String</text><rect fill="none" height="6" style="stroke:#C82930;stroke-width:1;" width="6" x="149.5" y="413.9453"/><text fill="#000000" font-family="sans-serif" font-size="14" lengthAdjust="spacing" textLength="77.7314" x="161.5" y="420.292">letra: Letra</text><line style="stroke:#181818;stroke-width:0.5;" x1="142.5" x2="453.3496" y1="427.5938" y2="427.5938"/><ellipse cx="152.5" cy="441.2422" fill="#84BE84" rx="3" ry="3" style="stroke:#038048;stroke-width:1;"/><text fill="#000000" font-family="sans-serif" font-size="14" lengthAdjust="spacing" textLength="286.8496" x="161.5" y="444.5889">Cancion(titulo: String, textoLetra: String)</text></g><!--class Playlist--><g class="entity" data-entity="Playlist" data-source-line="11" data-uid="ent0004" id="entity_Playlist"><rect fill="#F1F1F1" height="96.8906" rx="2.5" ry="2.5" style="stroke:#181818;stroke-width:0.5;" width="221.3506" x="10.5" y="181"/><ellipse cx="92.0459" cy="197" fill="#ADD1B2" rx="11" ry="11" style="stroke:#181818;stroke-width:1;"/><path d="M95.0146,202.6406 Q94.4365,202.9375 93.7959,203.0781 Q93.1553,203.2344 92.4521,203.2344 Q89.9521,203.2344 88.624,201.5938 Q87.3115,199.9375 87.3115,196.8125 Q87.3115,193.6875 88.624,192.0313 Q89.9521,190.375 92.4521,190.375 Q93.1553,190.375 93.7959,190.5313 Q94.4521,190.6875 95.0146,190.9844 L95.0146,193.7031 Q94.3896,193.125 93.7959,192.8594 Q93.2021,192.5781 92.5771,192.5781 Q91.2334,192.5781 90.5459,193.6563 Q89.8584,194.7188 89.8584,196.8125 Q89.8584,198.9063 90.5459,199.9844 Q91.2334,201.0469 92.5771,201.0469 Q93.2021,201.0469 93.7959,200.7813 Q94.3896,200.5 95.0146,199.9219 L95.0146,202.6406 Z " fill="#000000"/><text fill="#000000" font-family="sans-serif" font-size="14" lengthAdjust="spacing" textLength="49.7588" x="112.5459" y="201.8467">Playlist</text><line style="stroke:#181818;stroke-width:0.5;" x1="11.5" x2="230.8506" y1="213" y2="213"/><rect fill="none" height="6" style="stroke:#C82930;stroke-width:1;" width="6" x="18.5" y="223.6484"/><text fill="#000000" font-family="sans-serif" font-size="14" lengthAdjust="spacing" textLength="105.2803" x="30.5" y="229.9951">nombre: String</text><rect fill="none" height="6" style="stroke:#C82930;stroke-width:1;" width="6" x="18.5" y="239.9453"/><text fill="#000000" font-family="sans-serif" font-size="14" lengthAdjust="spacing" textLength="183.4355" x="30.5" y="246.292">canciones: List&lt;Cancion&gt;</text><line style="stroke:#181818;stroke-width:0.5;" x1="11.5" x2="230.8506" y1="253.5938" y2="253.5938"/><ellipse cx="21.5" cy="267.2422" fill="#84BE84" rx="3" ry="3" style="stroke:#038048;stroke-width:1;"/><text fill="#000000" font-family="sans-serif" font-size="14" lengthAdjust="spacing" textLength="195.3506" x="30.5" y="270.5889">agregarCancion(c: Cancion)</text></g><!--class Usuario--><g class="entity" data-entity="Usuario" data-source-line="17" data-uid="ent0005" id="entity_Usuario"><rect fill="#F1F1F1" height="96.8906" rx="2.5" ry="2.5" style="stroke:#181818;stroke-width:0.5;" width="228.3643" x="7" y="7"/><ellipse cx="90.3301" cy="23" fill="#ADD1B2" rx="11" ry="11" style="stroke:#181818;stroke-width:1;"/><path d="M93.2988,28.6406 Q92.7207,28.9375 92.0801,29.0781 Q91.4395,29.2344 90.7363,29.2344 Q88.2363,29.2344 86.9082,27.5938 Q85.5957,25.9375 85.5957,22.8125 Q85.5957,19.6875 86.9082,18.0313 Q88.2363,16.375 90.7363,16.375 Q91.4395,16.375 92.0801,16.5313 Q92.7363,16.6875 93.2988,16.9844 L93.2988,19.7031 Q92.6738,19.125 92.0801,18.8594 Q91.4863,18.5781 90.8613,18.5781 Q89.5176,18.5781 88.8301,19.6563 Q88.1426,20.7188 88.1426,22.8125 Q88.1426,24.9063 88.8301,25.9844 Q89.5176,27.0469 90.8613,27.0469 Q91.4863,27.0469 92.0801,26.7813 Q92.6738,26.5 93.2988,25.9219 L93.2988,28.6406 Z " fill="#000000"/><text fill="#000000" font-family="sans-serif" font-size="14" lengthAdjust="spacing" textLength="53.2041" x="110.8301" y="27.8467">Usuario</text><line style="stroke:#181818;stroke-width:0.5;" x1="8" x2="234.3643" y1="39" y2="39"/><rect fill="none" height="6" style="stroke:#C82930;stroke-width:1;" width="6" x="15" y="49.6484"/><text fill="#000000" font-family="sans-serif" font-size="14" lengthAdjust="spacing" textLength="105.2803" x="27" y="55.9951">nombre: String</text><rect fill="none" height="6" style="stroke:#C82930;stroke-width:1;" width="6" x="15" y="65.9453"/><text fill="#000000" font-family="sans-serif" font-size="14" lengthAdjust="spacing" textLength="188.7334" x="27" y="72.292">misPlaylists: List&lt;Playlist&gt;</text><line style="stroke:#181818;stroke-width:0.5;" x1="8" x2="234.3643" y1="79.5938" y2="79.5938"/><ellipse cx="18" cy="93.2422" fill="#84BE84" rx="3" ry="3" style="stroke:#038048;stroke-width:1;"/><text fill="#000000" font-family="sans-serif" font-size="14" lengthAdjust="spacing" textLength="202.3643" x="27" y="96.5889">crearPlaylist(nombre: String)</text></g><!--class Reproductor--><g class="entity" data-entity="Reproductor" data-source-line="23" data-uid="ent0006" id="entity_Reproductor"><rect fill="#F1F1F1" height="64.2969" rx="2.5" ry="2.5" style="stroke:#181818;stroke-width:0.5;" width="182.7207" x="266.5" y="197.5"/><ellipse cx="310.2569" cy="213.5" fill="#ADD1B2" rx="11" ry="11" style="stroke:#181818;stroke-width:1;"/><path d="M313.2257,219.1406 Q312.6476,219.4375 312.0069,219.5781 Q311.3663,219.7344 310.6632,219.7344 Q308.1632,219.7344 306.8351,218.0938 Q305.5226,216.4375 305.5226,213.3125 Q305.5226,210.1875 306.8351,208.5313 Q308.1632,206.875 310.6632,206.875 Q311.3663,206.875 312.0069,207.0313 Q312.6632,207.1875 313.2257,207.4844 L313.2257,210.2031 Q312.6007,209.625 312.0069,209.3594 Q311.4132,209.0781 310.7882,209.0781 Q309.4444,209.0781 308.7569,210.1563 Q308.0694,211.2188 308.0694,213.3125 Q308.0694,215.4063 308.7569,216.4844 Q309.4444,217.5469 310.7882,217.5469 Q311.4132,217.5469 312.0069,217.2813 Q312.6007,217 313.2257,216.4219 L313.2257,219.1406 Z " fill="#000000"/><text fill="#000000" font-family="sans-serif" font-size="14" lengthAdjust="spacing" textLength="86.8164" x="330.6474" y="218.3467">Reproductor</text><line style="stroke:#181818;stroke-width:0.5;" x1="267.5" x2="448.2207" y1="229.5" y2="229.5"/><line style="stroke:#181818;stroke-width:0.5;" x1="267.5" x2="448.2207" y1="237.5" y2="237.5"/><ellipse cx="277.5" cy="251.1484" fill="#84BE84" rx="3" ry="3" style="stroke:#038048;stroke-width:1;"/><text fill="#000000" font-family="sans-serif" font-size="14" lengthAdjust="spacing" textLength="156.7207" x="286.5" y="254.4951">reproducir(c: Cancion)</text></g><!--reverse link Cancion to Letra--><g class="link" data-entity-1="Cancion" data-entity-2="Letra" data-source-line="28" data-uid="lnk7" id="link_Cancion_Letra"><path codeLine="28" d="M298,464 C298,489.01 298,506.96 298,528.98" fill="none" id="Cancion-backto-Letra" style="stroke:#181818;stroke-width:1;"/><polygon fill="#181818" points="298,452,294,458,298,464,302,458,298,452" style="stroke:#181818;stroke-width:1;"/><text fill="#000000" font-family="sans-serif" font-size="13" lengthAdjust="spacing" textLength="83.2368" x="299" y="495.0669">Composici&#243;n</text></g><!--reverse link Playlist to Cancion--><g class="link" data-entity-1="Playlist" data-entity-2="Cancion" data-source-line="29" data-uid="lnk8" id="link_Playlist_Cancion"><path codeLine="29" d="M178.9054,286.7735 C203.4554,310.6335 224.45,331.02 248.96,354.85" fill="none" id="Playlist-backto-Cancion" style="stroke:#181818;stroke-width:1;"/><polygon fill="none" points="170.3,278.41,171.8148,285.4602,178.9054,286.7735,177.3905,279.7233,170.3,278.41" style="stroke:#181818;stroke-width:1;"/><text fill="#000000" font-family="sans-serif" font-size="13" lengthAdjust="spacing" textLength="73.6582" x="216" y="321.0669">Agregaci&#243;n</text></g><!--link Usuario to Playlist--><g class="link" data-entity-1="Usuario" data-entity-2="Playlist" data-source-line="30" data-uid="lnk9" id="link_Usuario_Playlist"><path codeLine="30" d="M121,104.41 C121,128.27 121,151.02 121,174.85" fill="none" id="Usuario-to-Playlist" style="stroke:#181818;stroke-width:1;"/><polygon fill="#181818" points="121,180.85,125,171.85,121,175.85,117,171.85,121,180.85" style="stroke:#181818;stroke-width:1;"/><text fill="#000000" font-family="sans-serif" font-size="13" lengthAdjust="spacing" textLength="69.2974" x="122" y="147.0669">Asociaci&#243;n</text></g><!--link Reproductor to Cancion--><g class="link" data-entity-1="Reproductor" data-entity-2="Cancion" data-source-line="31" data-uid="lnk10" id="link_Reproductor_Cancion"><path codeLine="31" d="M347.13,261.65 C338.08,287.59 327.0278,319.3053 316.6478,349.0353" fill="none" id="Reproductor-to-Cancion" style="stroke:#181818;stroke-width:1;stroke-dasharray:7,7;"/><polygon fill="#181818" points="314.67,354.7,321.4131,347.5215,316.3181,349.9794,313.8602,344.8845,314.67,354.7" style="stroke:#181818;stroke-width:1;"/><text fill="#000000" font-family="sans-serif" font-size="13" lengthAdjust="spacing" textLength="24.2417" x="330" y="321.0669">Uso</text></g><!--SRC=[VP51QiCm44NtEeNmfcbJvG2c64gsMOI6741LXHcGDM56XfQIK_K8lLWLInCxMLGx3y__VOrSiCnwvnDP_QrqFaOd_vcmrOT447jrLifDqDP61nXd3D8OPguCmoMfBO7JQ2t_hMxvvwBP5RxC7cVPFjYl09okjeZ3E_axcolHdhCnmozLrLMpxSdtbgI0QwNBGdJaqHBW_vu1M0g9Ihx5vSXRak7gDcMXU_Cdme_H9QIgN6kgCw3xYW-P3xPSKSd-duof3zRgPel32HaS_Fx4HbstXfaHFbElqo8g93VMndHwNlG5OtGWsBBfPjCjuuwCpHy0]--></g></svg>