<svg xmlns="http://www.w3.org/2000/svg" xmlns:xlink="http://www.w3.org/1999/xlink" contentStyleType="text/css" data-diagram-type="CLASS" height="602px" preserveAspectRatio="none" style="width:1306px;height:602px;background:#FFFFFF;" version="1.1" viewBox="0 0 1306 602" width="1306px" zoomAndPan="magnify"><defs/><g><!--class Cancion--><g class="entity" data-entity="Cancion" data-source-line="1" data-uid="ent0002" id="entity_Cancion"><rect fill="#F1F1F1" height="48" rx="2.5" ry="2.5" style="stroke:#181818;stroke-width:0.5;" width="88.2529" x="819" y="439"/><ellipse cx="834" cy="455" fill="#ADD1B2" rx="11" ry="11" style="stroke:#181818;stroke-width:1;"/><path d="M836.9688,460.6406 Q836.3906,460.9375 835.75,461.0781 Q835.1094,461.2344 834.4063,461.2344 Q831.9063,461.2344 830.5781,459.5938 Q829.2656,457.9375 829.2656,454.8125 Q829.2656,451.6875 830.5781,450.0313 Q831.9063,448.375 834.4063,448.375 Q835.1094,448.375 835.75,448.5313 Q836.4063,448.6875 836.9688,448.9844 L836.9688,451.7031 Q836.3438,451.125 835.75,450.8594 Q835.1563,450.5781 834.5313,450.5781 Q833.1875,450.5781 832.5,451.6563 Q831.8125,452.7188 831.8125,454.8125 Q831.8125,456.9063 832.5,457.9844 Q833.1875,459.0469 834.5313,459.0469 Q835.1563,459.0469 835.75,458.7813 Q836.3438,458.5 836.9688,457.9219 L836.9688,460.6406 Z " fill="#000000"/><text fill="#000000" font-family="sans-serif" font-size="14" lengthAdjust="spacing" textLength="56.2529" x="848" y="459.8467">Cancion</text><line style="stroke:#181818;stroke-width:0.5;" x1="820" x2="906.2529" y1="471" y2="471"/><line style="stroke:#181818;stroke-width:0.5;" x1="820" x2="906.2529" y1="479" y2="479"/></g><!--class Audio--><g class="entity" data-entity="Audio" data-source-line="5" data-uid="ent0003" id="entity_Audio"><rect fill="#F1F1F1" height="48" rx="2.5" ry="2.5" style="stroke:#181818;stroke-width:0.5;" width="71.792" x="771" y="547"/><ellipse cx="786" cy="563" fill="#ADD1B2" rx="11" ry="11" style="stroke:#181818;stroke-width:1;"/><path d="M788.9688,568.6406 Q788.3906,568.9375 787.75,569.0781 Q787.1094,569.2344 786.4063,569.2344 Q783.9063,569.2344 782.5781,567.5938 Q781.2656,565.9375 781.2656,562.8125 Q781.2656,559.6875 782.5781,558.0313 Q783.9063,556.375 786.4063,556.375 Q787.1094,556.375 787.75,556.5313 Q788.4063,556.6875 788.9688,556.9844 L788.9688,559.7031 Q788.3438,559.125 787.75,558.8594 Q787.1563,558.5781 786.5313,558.5781 Q785.1875,558.5781 784.5,559.6563 Q783.8125,560.7188 783.8125,562.8125 Q783.8125,564.9063 784.5,565.9844 Q785.1875,567.0469 786.5313,567.0469 Q787.1563,567.0469 787.75,566.7813 Q788.3438,566.5 788.9688,565.9219 L788.9688,568.6406 Z " fill="#000000"/><text fill="#000000" font-family="sans-serif" font-size="14" lengthAdjust="spacing" textLength="39.792" x="800" y="567.8467">Audio</text><line style="stroke:#181818;stroke-width:0.5;" x1="772" x2="841.792" y1="579" y2="579"/><line style="stroke:#181818;stroke-width:0.5;" x1="772" x2="841.792" y1="587" y2="587"/></g><!--class Artista--><g class="entity" data-entity="Artista" data-source-line="9" data-uid="ent0004" id="entity_Artista"><rect fill="#F1F1F1" height="48" rx="2.5" ry="2.5" style="stroke:#181818;stroke-width:0.5;" width="78.0742" x="1105" y="331"/><ellipse cx="1120" cy="347" fill="#ADD1B2" rx="11" ry="11" style="stroke:#181818;stroke-width:1;"/><path d="M1122.9688,352.6406 Q1122.3906,352.9375 1121.75,353.0781 Q1121.1094,353.2344 1120.4063,353.2344 Q1117.9063,353.2344 1116.5781,351.5938 Q1115.2656,349.9375 1115.2656,346.8125 Q1115.2656,343.6875 1116.5781,342.0313 Q1117.9063,340.375 1120.4063,340.375 Q1121.1094,340.375 1121.75,340.5313 Q1122.4063,340.6875 1122.9688,340.9844 L1122.9688,343.7031 Q1122.3438,343.125 1121.75,342.8594 Q1121.1563,342.5781 1120.5313,342.5781 Q1119.1875,342.5781 1118.5,343.6563 Q1117.8125,344.7188 1117.8125,346.8125 Q1117.8125,348.9063 1118.5,349.9844 Q1119.1875,351.0469 1120.5313,351.0469 Q1121.1563,351.0469 1121.75,350.7813 Q1122.3438,350.5 1122.9688,349.9219 L1122.9688,352.6406 Z " fill="#000000"/><text fill="#000000" font-family="sans-serif" font-size="14" lengthAdjust="spacing" textLength="46.0742" x="1134" y="351.8467">Artista</text><line style="stroke:#181818;stroke-width:0.5;" x1="1106" x2="1182.0742" y1="363" y2="363"/><line style="stroke:#181818;stroke-width:0.5;" x1="1106" x2="1182.0742" y1="371" y2="371"/></g><!--class Playlist--><g class="entity" data-entity="Playlist" data-source-line="13" data-uid="ent0005" id="entity_Playlist"><rect fill="#F1F1F1" height="48" rx="2.5" ry="2.5" style="stroke:#181818;stroke-width:0.5;" width="81.7588" x="1218" y="331"/><ellipse cx="1233" cy="347" fill="#ADD1B2" rx="11" ry="11" style="stroke:#181818;stroke-width:1;"/><path d="M1235.9688,352.6406 Q1235.3906,352.9375 1234.75,353.0781 Q1234.1094,353.2344 1233.4063,353.2344 Q1230.9063,353.2344 1229.5781,351.5938 Q1228.2656,349.9375 1228.2656,346.8125 Q1228.2656,343.6875 1229.5781,342.0313 Q1230.9063,340.375 1233.4063,340.375 Q1234.1094,340.375 1234.75,340.5313 Q1235.4063,340.6875 1235.9688,340.9844 L1235.9688,343.7031 Q1235.3438,343.125 1234.75,342.8594 Q1234.1563,342.5781 1233.5313,342.5781 Q1232.1875,342.5781 1231.5,343.6563 Q1230.8125,344.7188 1230.8125,346.8125 Q1230.8125,348.9063 1231.5,349.9844 Q1232.1875,351.0469 1233.5313,351.0469 Q1234.1563,351.0469 1234.75,350.7813 Q1235.3438,350.5 1235.9688,349.9219 L1235.9688,352.6406 Z " fill="#000000"/><text fill="#000000" font-family="sans-serif" font-size="14" lengthAdjust="spacing" textLength="49.7588" x="1247" y="351.8467">Playlist</text><line style="stroke:#181818;stroke-width:0.5;" x1="1219" x2="1298.7588" y1="363" y2="363"/><line style="stroke:#181818;stroke-width:0.5;" x1="1219" x2="1298.7588" y1="371" y2="371"/></g><!--class Album--><g class="entity" data-entity="Album" data-source-line="17" data-uid="ent0006" id="entity_Album"><rect fill="#F1F1F1" height="48" rx="2.5" ry="2.5" style="stroke:#181818;stroke-width:0.5;" width="76.8643" x="206.5" y="331"/><ellipse cx="221.5" cy="347" fill="#ADD1B2" rx="11" ry="11" style="stroke:#181818;stroke-width:1;"/><path d="M224.4688,352.6406 Q223.8906,352.9375 223.25,353.0781 Q222.6094,353.2344 221.9063,353.2344 Q219.4063,353.2344 218.0781,351.5938 Q216.7656,349.9375 216.7656,346.8125 Q216.7656,343.6875 218.0781,342.0313 Q219.4063,340.375 221.9063,340.375 Q222.6094,340.375 223.25,340.5313 Q223.9063,340.6875 224.4688,340.9844 L224.4688,343.7031 Q223.8438,343.125 223.25,342.8594 Q222.6563,342.5781 222.0313,342.5781 Q220.6875,342.5781 220,343.6563 Q219.3125,344.7188 219.3125,346.8125 Q219.3125,348.9063 220,349.9844 Q220.6875,351.0469 222.0313,351.0469 Q222.6563,351.0469 223.25,350.7813 Q223.8438,350.5 224.4688,349.9219 L224.4688,352.6406 Z " fill="#000000"/><text fill="#000000" font-family="sans-serif" font-size="14" lengthAdjust="spacing" textLength="44.8643" x="235.5" y="351.8467">Album</text><line style="stroke:#181818;stroke-width:0.5;" x1="207.5" x2="282.3643" y1="363" y2="363"/><line style="stroke:#181818;stroke-width:0.5;" x1="207.5" x2="282.3643" y1="371" y2="371"/></g><!--class Usuario--><g class="entity" data-entity="Usuario" data-source-line="21" data-uid="ent0007" id="entity_Usuario"><rect fill="#F1F1F1" height="48" rx="2.5" ry="2.5" style="stroke:#181818;stroke-width:0.5;" width="85.2041" x="379.5" y="223"/><ellipse cx="394.5" cy="239" fill="#ADD1B2" rx="11" ry="11" style="stroke:#181818;stroke-width:1;"/><path d="M397.4688,244.6406 Q396.8906,244.9375 396.25,245.0781 Q395.6094,245.2344 394.9063,245.2344 Q392.4063,245.2344 391.0781,243.5938 Q389.7656,241.9375 389.7656,238.8125 Q389.7656,235.6875 391.0781,234.0313 Q392.4063,232.375 394.9063,232.375 Q395.6094,232.375 396.25,232.5313 Q396.9063,232.6875 397.4688,232.9844 L397.4688,235.7031 Q396.8438,235.125 396.25,234.8594 Q395.6563,234.5781 395.0313,234.5781 Q393.6875,234.5781 393,235.6563 Q392.3125,236.7188 392.3125,238.8125 Q392.3125,240.9063 393,241.9844 Q393.6875,243.0469 395.0313,243.0469 Q395.6563,243.0469 396.25,242.7813 Q396.8438,242.5 397.4688,241.9219 L397.4688,244.6406 Z " fill="#000000"/><text fill="#000000" font-family="sans-serif" font-size="14" lengthAdjust="spacing" textLength="53.2041" x="408.5" y="243.8467">Usuario</text><line style="stroke:#181818;stroke-width:0.5;" x1="380.5" x2="463.7041" y1="255" y2="255"/><line style="stroke:#181818;stroke-width:0.5;" x1="380.5" x2="463.7041" y1="263" y2="263"/></g><!--class PlataformaMusical--><g class="entity" data-entity="PlataformaMusical" data-source-line="25" data-uid="ent0008" id="entity_PlataformaMusical"><rect fill="#F1F1F1" height="48" rx="2.5" ry="2.5" style="stroke:#181818;stroke-width:0.5;" width="160.748" x="187.5" y="7"/><ellipse cx="202.5" cy="23" fill="#ADD1B2" rx="11" ry="11" style="stroke:#181818;stroke-width:1;"/><path d="M205.4688,28.6406 Q204.8906,28.9375 204.25,29.0781 Q203.6094,29.2344 202.9063,29.2344 Q200.4063,29.2344 199.0781,27.5938 Q197.7656,25.9375 197.7656,22.8125 Q197.7656,19.6875 199.0781,18.0313 Q200.4063,16.375 202.9063,16.375 Q203.6094,16.375 204.25,16.5313 Q204.9063,16.6875 205.4688,16.9844 L205.4688,19.7031 Q204.8438,19.125 204.25,18.8594 Q203.6563,18.5781 203.0313,18.5781 Q201.6875,18.5781 201,19.6563 Q200.3125,20.7188 200.3125,22.8125 Q200.3125,24.9063 201,25.9844 Q201.6875,27.0469 203.0313,27.0469 Q203.6563,27.0469 204.25,26.7813 Q204.8438,26.5 205.4688,25.9219 L205.4688,28.6406 Z " fill="#000000"/><text fill="#000000" font-family="sans-serif" font-size="14" lengthAdjust="spacing" textLength="128.748" x="216.5" y="27.8467">PlataformaMusical</text><line style="stroke:#181818;stroke-width:0.5;" x1="188.5" x2="347.248" y1="39" y2="39"/><line style="stroke:#181818;stroke-width:0.5;" x1="188.5" x2="347.248" y1="47" y2="47"/></g><!--class Suscripcion--><g class="entity" data-entity="Suscripcion" data-source-line="29" data-uid="ent0009" id="entity_Suscripcion"><rect fill="#F1F1F1" height="48" rx="2.5" ry="2.5" style="stroke:#181818;stroke-width:0.5;" width="112.3086" x="319" y="331"/><ellipse cx="334" cy="347" fill="#ADD1B2" rx="11" ry="11" style="stroke:#181818;stroke-width:1;"/><path d="M336.9688,352.6406 Q336.3906,352.9375 335.75,353.0781 Q335.1094,353.2344 334.4063,353.2344 Q331.9063,353.2344 330.5781,351.5938 Q329.2656,349.9375 329.2656,346.8125 Q329.2656,343.6875 330.5781,342.0313 Q331.9063,340.375 334.4063,340.375 Q335.1094,340.375 335.75,340.5313 Q336.4063,340.6875 336.9688,340.9844 L336.9688,343.7031 Q336.3438,343.125 335.75,342.8594 Q335.1563,342.5781 334.5313,342.5781 Q333.1875,342.5781 332.5,343.6563 Q331.8125,344.7188 331.8125,346.8125 Q331.8125,348.9063 332.5,349.9844 Q333.1875,351.0469 334.5313,351.0469 Q335.1563,351.0469 335.75,350.7813 Q336.3438,350.5 336.9688,349.9219 L336.9688,352.6406 Z " fill="#000000"/><text fill="#000000" font-family="sans-serif" font-size="14" lengthAdjust="spacing" textLength="80.3086" x="348" y="351.8467">Suscripcion</text><line style="stroke:#181818;stroke-width:0.5;" x1="320" x2="430.3086" y1="363" y2="363"/><line style="stroke:#181818;stroke-width:0.5;" x1="320" x2="430.3086" y1="371" y2="371"/></g><!--class Genero--><g class="entity" data-entity="Genero" data-source-line="33" data-uid="ent0010" id="entity_Genero"><rect fill="#F1F1F1" height="48" rx="2.5" ry="2.5" style="stroke:#181818;stroke-width:0.5;" width="83.2695" x="878.5" y="547"/><ellipse cx="893.5" cy="563" fill="#ADD1B2" rx="11" ry="11" style="stroke:#181818;stroke-width:1;"/><path d="M896.4688,568.6406 Q895.8906,568.9375 895.25,569.0781 Q894.6094,569.2344 893.9063,569.2344 Q891.4063,569.2344 890.0781,567.5938 Q888.7656,565.9375 888.7656,562.8125 Q888.7656,559.6875 890.0781,558.0313 Q891.4063,556.375 893.9063,556.375 Q894.6094,556.375 895.25,556.5313 Q895.9063,556.6875 896.4688,556.9844 L896.4688,559.7031 Q895.8438,559.125 895.25,558.8594 Q894.6563,558.5781 894.0313,558.5781 Q892.6875,558.5781 892,559.6563 Q891.3125,560.7188 891.3125,562.8125 Q891.3125,564.9063 892,565.9844 Q892.6875,567.0469 894.0313,567.0469 Q894.6563,567.0469 895.25,566.7813 Q895.8438,566.5 896.4688,565.9219 L896.4688,568.6406 Z " fill="#000000"/><text fill="#000000" font-family="sans-serif" font-size="14" lengthAdjust="spacing" textLength="51.2695" x="907.5" y="567.8467">Genero</text><line style="stroke:#181818;stroke-width:0.5;" x1="879.5" x2="960.7695" y1="579" y2="579"/><line style="stroke:#181818;stroke-width:0.5;" x1="879.5" x2="960.7695" y1="587" y2="587"/></g><!--class HistorialReproduccion--><g class="entity" data-entity="HistorialReproduccion" data-source-line="37" data-uid="ent0011" id="entity_HistorialReproduccion"><rect fill="#F1F1F1" height="48" rx="2.5" ry="2.5" style="stroke:#181818;stroke-width:0.5;" width="185.9111" x="466" y="331"/><ellipse cx="481" cy="347" fill="#ADD1B2" rx="11" ry="11" style="stroke:#181818;stroke-width:1;"/><path d="M483.9688,352.6406 Q483.3906,352.9375 482.75,353.0781 Q482.1094,353.2344 481.4063,353.2344 Q478.9063,353.2344 477.5781,351.5938 Q476.2656,349.9375 476.2656,346.8125 Q476.2656,343.6875 477.5781,342.0313 Q478.9063,340.375 481.4063,340.375 Q482.1094,340.375 482.75,340.5313 Q483.4063,340.6875 483.9688,340.9844 L483.9688,343.7031 Q483.3438,343.125 482.75,342.8594 Q482.1563,342.5781 481.5313,342.5781 Q480.1875,342.5781 479.5,343.6563 Q478.8125,344.7188 478.8125,346.8125 Q478.8125,348.9063 479.5,349.9844 Q480.1875,351.0469 481.5313,351.0469 Q482.1563,351.0469 482.75,350.7813 Q483.3438,350.5 483.9688,349.9219 L483.9688,352.6406 Z " fill="#000000"/><text fill="#000000" font-family="sans-serif" font-size="14" lengthAdjust="spacing" textLength="153.9111" x="495" y="351.8467">HistorialReproduccion</text><line style="stroke:#181818;stroke-width:0.5;" x1="467" x2="650.9111" y1="363" y2="363"/><line style="stroke:#181818;stroke-width:0.5;" x1="467" x2="650.9111" y1="371" y2="371"/></g><!--class Monetizacion--><g class="entity" data-entity="Monetizacion" data-source-line="41" data-uid="ent0012" id="entity_Monetizacion"><rect fill="#F1F1F1" height="48" rx="2.5" ry="2.5" style="stroke:#181818;stroke-width:0.5;" width="124.4629" x="7" y="115"/><ellipse cx="22" cy="131" fill="#ADD1B2" rx="11" ry="11" style="stroke:#181818;stroke-width:1;"/><path d="M24.9688,136.6406 Q24.3906,136.9375 23.75,137.0781 Q23.1094,137.2344 22.4063,137.2344 Q19.9063,137.2344 18.5781,135.5938 Q17.2656,133.9375 17.2656,130.8125 Q17.2656,127.6875 18.5781,126.0313 Q19.9063,124.375 22.4063,124.375 Q23.1094,124.375 23.75,124.5313 Q24.4063,124.6875 24.9688,124.9844 L24.9688,127.7031 Q24.3438,127.125 23.75,126.8594 Q23.1563,126.5781 22.5313,126.5781 Q21.1875,126.5781 20.5,127.6563 Q19.8125,128.7188 19.8125,130.8125 Q19.8125,132.9063 20.5,133.9844 Q21.1875,135.0469 22.5313,135.0469 Q23.1563,135.0469 23.75,134.7813 Q24.3438,134.5 24.9688,133.9219 L24.9688,136.6406 Z " fill="#000000"/><text fill="#000000" font-family="sans-serif" font-size="14" lengthAdjust="spacing" textLength="92.4629" x="36" y="135.8467">Monetizacion</text><line style="stroke:#181818;stroke-width:0.5;" x1="8" x2="130.4629" y1="147" y2="147"/><line style="stroke:#181818;stroke-width:0.5;" x1="8" x2="130.4629" y1="155" y2="155"/></g><!--class Pago--><g class="entity" data-entity="Pago" data-source-line="45" data-uid="ent0013" id="entity_Pago"><rect fill="#F1F1F1" height="48" rx="2.5" ry="2.5" style="stroke:#181818;stroke-width:0.5;" width="66.4736" x="34" y="223"/><ellipse cx="49" cy="239" fill="#ADD1B2" rx="11" ry="11" style="stroke:#181818;stroke-width:1;"/><path d="M51.9688,244.6406 Q51.3906,244.9375 50.75,245.0781 Q50.1094,245.2344 49.4063,245.2344 Q46.9063,245.2344 45.5781,243.5938 Q44.2656,241.9375 44.2656,238.8125 Q44.2656,235.6875 45.5781,234.0313 Q46.9063,232.375 49.4063,232.375 Q50.1094,232.375 50.75,232.5313 Q51.4063,232.6875 51.9688,232.9844 L51.9688,235.7031 Q51.3438,235.125 50.75,234.8594 Q50.1563,234.5781 49.5313,234.5781 Q48.1875,234.5781 47.5,235.6563 Q46.8125,236.7188 46.8125,238.8125 Q46.8125,240.9063 47.5,241.9844 Q48.1875,243.0469 49.5313,243.0469 Q50.1563,243.0469 50.75,242.7813 Q51.3438,242.5 51.9688,241.9219 L51.9688,244.6406 Z " fill="#000000"/><text fill="#000000" font-family="sans-serif" font-size="14" lengthAdjust="spacing" textLength="34.4736" x="63" y="243.8467">Pago</text><line style="stroke:#181818;stroke-width:0.5;" x1="35" x2="99.4736" y1="255" y2="255"/><line style="stroke:#181818;stroke-width:0.5;" x1="35" x2="99.4736" y1="263" y2="263"/></g><!--class Ranking--><g class="entity" data-entity="Ranking" data-source-line="49" data-uid="ent0014" id="entity_Ranking"><rect fill="#F1F1F1" height="48" rx="2.5" ry="2.5" style="stroke:#181818;stroke-width:0.5;" width="88.9365" x="686.5" y="331"/><ellipse cx="701.5" cy="347" fill="#ADD1B2" rx="11" ry="11" style="stroke:#181818;stroke-width:1;"/><path d="M704.4688,352.6406 Q703.8906,352.9375 703.25,353.0781 Q702.6094,353.2344 701.9063,353.2344 Q699.4063,353.2344 698.0781,351.5938 Q696.7656,349.9375 696.7656,346.8125 Q696.7656,343.6875 698.0781,342.0313 Q699.4063,340.375 701.9063,340.375 Q702.6094,340.375 703.25,340.5313 Q703.9063,340.6875 704.4688,340.9844 L704.4688,343.7031 Q703.8438,343.125 703.25,342.8594 Q702.6563,342.5781 702.0313,342.5781 Q700.6875,342.5781 700,343.6563 Q699.3125,344.7188 699.3125,346.8125 Q699.3125,348.9063 700,349.9844 Q700.6875,351.0469 702.0313,351.0469 Q702.6563,351.0469 703.25,350.7813 Q703.8438,350.5 704.4688,349.9219 L704.4688,352.6406 Z " fill="#000000"/><text fill="#000000" font-family="sans-serif" font-size="14" lengthAdjust="spacing" textLength="56.9365" x="715.5" y="351.8467">Ranking</text><line style="stroke:#181818;stroke-width:0.5;" x1="687.5" x2="774.4365" y1="363" y2="363"/><line style="stroke:#181818;stroke-width:0.5;" x1="687.5" x2="774.4365" y1="371" y2="371"/></g><!--class SistemaRecomendacion--><g class="entity" data-entity="SistemaRecomendacion" data-source-line="53" data-uid="ent0015" id="entity_SistemaRecomendacion"><rect fill="#F1F1F1" height="48" rx="2.5" ry="2.5" style="stroke:#181818;stroke-width:0.5;" width="200.6084" x="167.5" y="115"/><ellipse cx="182.5" cy="131" fill="#ADD1B2" rx="11" ry="11" style="stroke:#181818;stroke-width:1;"/><path d="M185.4688,136.6406 Q184.8906,136.9375 184.25,137.0781 Q183.6094,137.2344 182.9063,137.2344 Q180.4063,137.2344 179.0781,135.5938 Q177.7656,133.9375 177.7656,130.8125 Q177.7656,127.6875 179.0781,126.0313 Q180.4063,124.375 182.9063,124.375 Q183.6094,124.375 184.25,124.5313 Q184.9063,124.6875 185.4688,124.9844 L185.4688,127.7031 Q184.8438,127.125 184.25,126.8594 Q183.6563,126.5781 183.0313,126.5781 Q181.6875,126.5781 181,127.6563 Q180.3125,128.7188 180.3125,130.8125 Q180.3125,132.9063 181,133.9844 Q181.6875,135.0469 183.0313,135.0469 Q183.6563,135.0469 184.25,134.7813 Q184.8438,134.5 185.4688,133.9219 L185.4688,136.6406 Z " fill="#000000"/><text fill="#000000" font-family="sans-serif" font-size="14" lengthAdjust="spacing" textLength="168.6084" x="196.5" y="135.8467">SistemaRecomendacion</text><line style="stroke:#181818;stroke-width:0.5;" x1="168.5" x2="367.1084" y1="147" y2="147"/><line style="stroke:#181818;stroke-width:0.5;" x1="168.5" x2="367.1084" y1="155" y2="155"/></g><!--class AnalisisDatos--><g class="entity" data-entity="AnalisisDatos" data-source-line="57" data-uid="ent0016" id="entity_AnalisisDatos"><rect fill="#F1F1F1" height="48" rx="2.5" ry="2.5" style="stroke:#181818;stroke-width:0.5;" width="125.9941" x="206" y="223"/><ellipse cx="221" cy="239" fill="#ADD1B2" rx="11" ry="11" style="stroke:#181818;stroke-width:1;"/><path d="M223.9688,244.6406 Q223.3906,244.9375 222.75,245.0781 Q222.1094,245.2344 221.4063,245.2344 Q218.9063,245.2344 217.5781,243.5938 Q216.2656,241.9375 216.2656,238.8125 Q216.2656,235.6875 217.5781,234.0313 Q218.9063,232.375 221.4063,232.375 Q222.1094,232.375 222.75,232.5313 Q223.4063,232.6875 223.9688,232.9844 L223.9688,235.7031 Q223.3438,235.125 222.75,234.8594 Q222.1563,234.5781 221.5313,234.5781 Q220.1875,234.5781 219.5,235.6563 Q218.8125,236.7188 218.8125,238.8125 Q218.8125,240.9063 219.5,241.9844 Q220.1875,243.0469 221.5313,243.0469 Q222.1563,243.0469 222.75,242.7813 Q223.3438,242.5 223.9688,241.9219 L223.9688,244.6406 Z " fill="#000000"/><text fill="#000000" font-family="sans-serif" font-size="14" lengthAdjust="spacing" textLength="93.9941" x="235" y="243.8467">AnalisisDatos</text><line style="stroke:#181818;stroke-width:0.5;" x1="207" x2="330.9941" y1="255" y2="255"/><line style="stroke:#181818;stroke-width:0.5;" x1="207" x2="330.9941" y1="263" y2="263"/></g><!--class Tendencia--><g class="entity" data-entity="Tendencia" data-source-line="61" data-uid="ent0017" id="entity_Tendencia"><rect fill="#F1F1F1" height="48" rx="2.5" ry="2.5" style="stroke:#181818;stroke-width:0.5;" width="104.5771" x="810.5" y="331"/><ellipse cx="825.5" cy="347" fill="#ADD1B2" rx="11" ry="11" style="stroke:#181818;stroke-width:1;"/><path d="M828.4688,352.6406 Q827.8906,352.9375 827.25,353.0781 Q826.6094,353.2344 825.9063,353.2344 Q823.4063,353.2344 822.0781,351.5938 Q820.7656,349.9375 820.7656,346.8125 Q820.7656,343.6875 822.0781,342.0313 Q823.4063,340.375 825.9063,340.375 Q826.6094,340.375 827.25,340.5313 Q827.9063,340.6875 828.4688,340.9844 L828.4688,343.7031 Q827.8438,343.125 827.25,342.8594 Q826.6563,342.5781 826.0313,342.5781 Q824.6875,342.5781 824,343.6563 Q823.3125,344.7188 823.3125,346.8125 Q823.3125,348.9063 824,349.9844 Q824.6875,351.0469 826.0313,351.0469 Q826.6563,351.0469 827.25,350.7813 Q827.8438,350.5 828.4688,349.9219 L828.4688,352.6406 Z " fill="#000000"/><text fill="#000000" font-family="sans-serif" font-size="14" lengthAdjust="spacing" textLength="72.5771" x="839.5" y="351.8467">Tendencia</text><line style="stroke:#181818;stroke-width:0.5;" x1="811.5" x2="914.0771" y1="363" y2="363"/><line style="stroke:#181818;stroke-width:0.5;" x1="811.5" x2="914.0771" y1="371" y2="371"/></g><!--class Reproductor--><g class="entity" data-entity="Reproductor" data-source-line="65" data-uid="ent0018" id="entity_Reproductor"><rect fill="#F1F1F1" height="48" rx="2.5" ry="2.5" style="stroke:#181818;stroke-width:0.5;" width="118.8164" x="950.5" y="331"/><ellipse cx="965.5" cy="347" fill="#ADD1B2" rx="11" ry="11" style="stroke:#181818;stroke-width:1;"/><path d="M968.4688,352.6406 Q967.8906,352.9375 967.25,353.0781 Q966.6094,353.2344 965.9063,353.2344 Q963.4063,353.2344 962.0781,351.5938 Q960.7656,349.9375 960.7656,346.8125 Q960.7656,343.6875 962.0781,342.0313 Q963.4063,340.375 965.9063,340.375 Q966.6094,340.375 967.25,340.5313 Q967.9063,340.6875 968.4688,340.9844 L968.4688,343.7031 Q967.8438,343.125 967.25,342.8594 Q966.6563,342.5781 966.0313,342.5781 Q964.6875,342.5781 964,343.6563 Q963.3125,344.7188 963.3125,346.8125 Q963.3125,348.9063 964,349.9844 Q964.6875,351.0469 966.0313,351.0469 Q966.6563,351.0469 967.25,350.7813 Q967.8438,350.5 968.4688,349.9219 L968.4688,352.6406 Z " fill="#000000"/><text fill="#000000" font-family="sans-serif" font-size="14" lengthAdjust="spacing" textLength="86.8164" x="979.5" y="351.8467">Reproductor</text><line style="stroke:#181818;stroke-width:0.5;" x1="951.5" x2="1068.3164" y1="363" y2="363"/><line style="stroke:#181818;stroke-width:0.5;" x1="951.5" x2="1068.3164" y1="371" y2="371"/></g><!--reverse link Cancion to Audio--><g class="link" data-entity-1="Cancion" data-entity-2="Audio" data-source-line="70" data-uid="lnk19" id="link_Cancion_Audio"><path codeLine="70" d="M845.2445,497.6103 C835.9145,515.2703 828.69,528.94 819.32,546.68" fill="none" id="Cancion-backto-Audio" style="stroke:#181818;stroke-width:1;"/><polygon fill="#181818" points="850.85,487,844.5105,490.4366,845.2445,497.6103,851.584,494.1737,850.85,487" style="stroke:#181818;stroke-width:1;"/></g><!--reverse link Playlist to Cancion--><g class="link" data-entity-1="Playlist" data-entity-2="Cancion" data-source-line="71" data-uid="lnk20" id="link_Playlist_Cancion"><path codeLine="71" d="M1206.5033,377.3448 C1200.9133,379.4248 1206.47,377.25 1201,379 C1097.25,412.14 972.03,439.76 907.02,453.2" fill="none" id="Playlist-backto-Cancion" style="stroke:#181818;stroke-width:1;"/><polygon fill="none" points="1217.75,373.16,1210.7317,371.5035,1206.5033,377.3448,1213.5216,379.0013,1217.75,373.16" style="stroke:#181818;stroke-width:1;"/></g><!--reverse link Album to Cancion--><g class="link" data-entity-1="Album" data-entity-2="Cancion" data-source-line="72" data-uid="lnk21" id="link_Album_Cancion"><path codeLine="72" d="M294.9768,377.5313 C300.6868,379.6713 295.32,377.44 301,379 C489.54,430.81 723.11,452.15 818.89,459.14" fill="none" id="Album-backto-Cancion" style="stroke:#181818;stroke-width:1;"/><polygon fill="none" points="283.74,373.32,287.9546,379.1712,294.9768,377.5313,290.7622,371.6801,283.74,373.32" style="stroke:#181818;stroke-width:1;"/></g><!--reverse link Usuario to HistorialReproduccion--><g class="link" data-entity-1="Usuario" data-entity-2="HistorialReproduccion" data-source-line="73" data-uid="lnk22" id="link_Usuario_HistorialReproduccion"><path codeLine="73" d="M461.2201,278.3442 C484.0401,296.0042 505.93,312.94 528.86,330.68" fill="none" id="Usuario-backto-HistorialReproduccion" style="stroke:#181818;stroke-width:1;"/><polygon fill="none" points="451.73,271,454.027,277.8355,461.2201,278.3442,458.9231,271.5087,451.73,271" style="stroke:#181818;stroke-width:1;"/></g><!--link Artista to Cancion--><g class="link" data-entity-1="Artista" data-entity-2="Cancion" data-source-line="75" data-uid="lnk23" id="link_Artista_Cancion"><path codeLine="75" d="M1104.81,371.98 C1098.85,374.36 1092.77,376.77 1087,379 C1024.92,403.02 958.2801,427.5031 912.9801,443.9431" fill="none" id="Artista-to-Cancion" style="stroke:#181818;stroke-width:1;"/><polygon fill="#181818" points="907.34,445.99,917.1647,446.6798,912.0401,444.2843,914.4355,439.1597,907.34,445.99" style="stroke:#181818;stroke-width:1;"/></g><!--link Usuario to Playlist--><g class="link" data-entity-1="Usuario" data-entity-2="Playlist" data-source-line="76" data-uid="lnk24" id="link_Usuario_Playlist"><path codeLine="76" d="M464.92,248.51 C583.74,250.8 926.33,263.25 1201,331 C1206.57,332.37 1206.6689,332.1821 1212.2789,334.1521" fill="none" id="Usuario-to-Playlist" style="stroke:#181818;stroke-width:1;"/><polygon fill="#181818" points="1217.94,336.14,1210.7736,329.384,1213.2224,334.4834,1208.1231,336.9322,1217.94,336.14" style="stroke:#181818;stroke-width:1;"/></g><!--link Usuario to Suscripcion--><g class="link" data-entity-1="Usuario" data-entity-2="Suscripcion" data-source-line="77" data-uid="lnk25" id="link_Usuario_Suscripcion"><path codeLine="77" d="M411.8,271 C403.97,288.66 395.6431,307.4555 387.7731,325.1955" fill="none" id="Usuario-to-Suscripcion" style="stroke:#181818;stroke-width:1;"/><polygon fill="#181818" points="385.34,330.68,392.646,324.0753,387.3676,326.1096,385.3333,320.8311,385.34,330.68" style="stroke:#181818;stroke-width:1;"/></g><!--link Cancion to Genero--><g class="link" data-entity-1="Cancion" data-entity-2="Genero" data-source-line="78" data-uid="lnk26" id="link_Cancion_Genero"><path codeLine="78" d="M875.37,487 C884.86,504.66 895.0782,523.6556 904.6182,541.3956" fill="none" id="Cancion-to-Genero" style="stroke:#181818;stroke-width:1;"/><polygon fill="#181818" points="907.46,546.68,906.7203,536.859,905.0919,542.2764,899.6745,540.648,907.46,546.68" style="stroke:#181818;stroke-width:1;"/></g><!--link PlataformaMusical to Usuario--><g class="link" data-entity-1="PlataformaMusical" data-entity-2="Usuario" data-source-line="80" data-uid="lnk27" id="link_PlataformaMusical_Usuario"><path codeLine="80" d="M315.22,55.01 C339.66,69.17 368.06,89.49 386,115 C409.07,147.8 416.7323,188.834 419.7123,216.714" fill="none" id="PlataformaMusical-to-Usuario" style="stroke:#181818;stroke-width:1;"/><polygon fill="#181818" points="420.35,222.68,423.3708,213.3058,419.8186,217.7083,415.4161,214.1561,420.35,222.68" style="stroke:#181818;stroke-width:1;"/></g><!--link PlataformaMusical to Monetizacion--><g class="link" data-entity-1="PlataformaMusical" data-entity-2="Monetizacion" data-source-line="81" data-uid="lnk28" id="link_PlataformaMusical_Monetizacion"><path codeLine="81" d="M224.82,55 C191.56,72.72 151.0658,94.2897 117.7358,112.0397" fill="none" id="PlataformaMusical-to-Monetizacion" style="stroke:#181818;stroke-width:1;"/><polygon fill="#181818" points="112.44,114.86,122.264,114.1601,116.8532,112.5097,118.5035,107.099,112.44,114.86" style="stroke:#181818;stroke-width:1;"/></g><!--link PlataformaMusical to SistemaRecomendacion--><g class="link" data-entity-1="PlataformaMusical" data-entity-2="SistemaRecomendacion" data-source-line="82" data-uid="lnk29" id="link_PlataformaMusical_SistemaRecomendacion"><path codeLine="82" d="M268,55 C268,72.66 268,90.94 268,108.68" fill="none" id="PlataformaMusical-to-SistemaRecomendacion" style="stroke:#181818;stroke-width:1;"/><polygon fill="#181818" points="268,114.68,272,105.68,268,109.68,264,105.68,268,114.68" style="stroke:#181818;stroke-width:1;"/></g><!--link Monetizacion to Pago--><g class="link" data-entity-1="Monetizacion" data-entity-2="Pago" data-source-line="84" data-uid="lnk30" id="link_Monetizacion_Pago"><path codeLine="84" d="M68.57,163 C68.23,180.66 67.8816,198.941 67.5516,216.681" fill="none" id="Monetizacion-to-Pago" style="stroke:#181818;stroke-width:1;"/><polygon fill="#181818" points="67.44,222.68,71.6067,213.756,67.533,217.6809,63.6081,213.6072,67.44,222.68" style="stroke:#181818;stroke-width:1;"/></g><!--link Ranking to Cancion--><g class="link" data-entity-1="Ranking" data-entity-2="Cancion" data-source-line="85" data-uid="lnk31" id="link_Ranking_Cancion"><path codeLine="85" d="M759.64,379 C781.63,396.66 807.1918,417.1831 829.2818,434.9231" fill="none" id="Ranking-to-Cancion" style="stroke:#181818;stroke-width:1;"/><polygon fill="#181818" points="833.96,438.68,829.4474,429.9258,830.0615,435.5492,824.4381,436.1634,833.96,438.68" style="stroke:#181818;stroke-width:1;"/></g><!--link SistemaRecomendacion to Usuario--><g class="link" data-entity-1="SistemaRecomendacion" data-entity-2="Usuario" data-source-line="87" data-uid="lnk32" id="link_SistemaRecomendacion_Usuario"><path codeLine="87" d="M301.42,163 C327.16,180.72 357.6475,201.7083 383.4375,219.4583" fill="none" id="SistemaRecomendacion-to-Usuario" style="stroke:#181818;stroke-width:1;"/><polygon fill="#181818" points="388.38,222.86,383.234,214.4624,384.2612,220.0253,378.6984,221.0525,388.38,222.86" style="stroke:#181818;stroke-width:1;"/></g><!--link SistemaRecomendacion to Cancion--><g class="link" data-entity-1="SistemaRecomendacion" data-entity-2="Cancion" data-source-line="88" data-uid="lnk33" id="link_SistemaRecomendacion_Cancion"><path codeLine="88" d="M235.6,163.34 C217.9,178.17 197.66,199.06 188,223 C177.08,250.06 165.97,353.2 189,379 C231.1,426.16 669.8478,452.2534 812.9278,459.5734" fill="none" id="SistemaRecomendacion-to-Cancion" style="stroke:#181818;stroke-width:1;"/><polygon fill="#181818" points="818.92,459.88,810.1361,455.4254,813.9265,459.6245,809.7274,463.4149,818.92,459.88" style="stroke:#181818;stroke-width:1;"/></g><!--link SistemaRecomendacion to AnalisisDatos--><g class="link" data-entity-1="SistemaRecomendacion" data-entity-2="AnalisisDatos" data-source-line="89" data-uid="lnk34" id="link_SistemaRecomendacion_AnalisisDatos"><path codeLine="89" d="M268.22,163 C268.38,180.66 268.5525,198.9403 268.7225,216.6803" fill="none" id="SistemaRecomendacion-to-AnalisisDatos" style="stroke:#181818;stroke-width:1;"/><polygon fill="#181818" points="268.78,222.68,272.6936,213.6421,268.7321,217.6802,264.6939,213.7187,268.78,222.68" style="stroke:#181818;stroke-width:1;"/></g><!--link Tendencia to Cancion--><g class="link" data-entity-1="Tendencia" data-entity-2="Cancion" data-source-line="91" data-uid="lnk35" id="link_Tendencia_Cancion"><path codeLine="91" d="M863,379 C863,396.66 863,414.94 863,432.68" fill="none" id="Tendencia-to-Cancion" style="stroke:#181818;stroke-width:1;"/><polygon fill="#181818" points="863,438.68,867,429.68,863,433.68,859,429.68,863,438.68" style="stroke:#181818;stroke-width:1;"/></g><!--link Reproductor to Cancion--><g class="link" data-entity-1="Reproductor" data-entity-2="Cancion" data-source-line="93" data-uid="lnk36" id="link_Reproductor_Cancion"><path codeLine="93" d="M978.1,379 C953.53,396.72 924.577,417.6011 899.957,435.3511" fill="none" id="Reproductor-to-Cancion" style="stroke:#181818;stroke-width:1;stroke-dasharray:7,7;"/><polygon fill="#181818" points="895.09,438.86,904.7298,436.8413,899.1458,435.9359,900.0512,430.352,895.09,438.86" style="stroke:#181818;stroke-width:1;"/></g><!--SRC=[TP7DQiCm48Jl-nI-5GhE8nH22-qb49pc0JRoDeZAKf2iGrFwxbt_oDLMzdLcDHxFfmo6K3sZLThPwXlW1q2DsZwssad5zphqABIZmI_3gZmqbzW9vHmY-dzn_BJ73-SxFCIW5HhXdc9GNj-AMgzaoSkWD_w-ynfDGpVlsgYAHmTdgTTtB8mZNcLMW_PJswkimldKOKFATMJRCcLlaJVGuGLx5uJpplV4syhHKazkFUiFh9anc49rmK2Ga3pMzOG2bgaTIxCDqzIvagOUjDLb01B8kdugdWrQ-f8GCo1BkK6VW02KE0TtJjXmSouR9slZ0mYWOsK62GbU_b-mIY-ljdcG8ZOF17U0FzYYG4vxjrkCNm00]--></g></svg>