<svg xmlns="http://www.w3.org/2000/svg" xmlns:xlink="http://www.w3.org/1999/xlink" contentStyleType="text/css" data-diagram-type="CLASS" height="312px" preserveAspectRatio="none" style="width:667px;height:312px;background:#FFFFFF;" version="1.1" viewBox="0 0 667 312" width="667px" zoomAndPan="magnify"><defs/><g><!--class Participante--><g class="entity" data-entity="Participante" data-source-line="1" data-uid="ent0002" id="entity_Participante"><rect fill="#F1F1F1" height="48" rx="2.5" ry="2.5" style="stroke:#181818;stroke-width:0.5;" width="116.1846" x="12.5" y="257"/><ellipse cx="27.5" cy="273" fill="#ADD1B2" rx="11" ry="11" style="stroke:#181818;stroke-width:1;"/><path d="M30.4688,278.6406 Q29.8906,278.9375 29.25,279.0781 Q28.6094,279.2344 27.9063,279.2344 Q25.4063,279.2344 24.0781,277.5938 Q22.7656,275.9375 22.7656,272.8125 Q22.7656,269.6875 24.0781,268.0313 Q25.4063,266.375 27.9063,266.375 Q28.6094,266.375 29.25,266.5313 Q29.9063,266.6875 30.4688,266.9844 L30.4688,269.7031 Q29.8438,269.125 29.25,268.8594 Q28.6563,268.5781 28.0313,268.5781 Q26.6875,268.5781 26,269.6563 Q25.3125,270.7188 25.3125,272.8125 Q25.3125,274.9063 26,275.9844 Q26.6875,277.0469 28.0313,277.0469 Q28.6563,277.0469 29.25,276.7813 Q29.8438,276.5 30.4688,275.9219 L30.4688,278.6406 Z " fill="#000000"/><text fill="#000000" font-family="sans-serif" font-size="14" lengthAdjust="spacing" textLength="84.1846" x="41.5" y="277.8467">Participante</text><line style="stroke:#181818;stroke-width:0.5;" x1="13.5" x2="127.6846" y1="289" y2="289"/><line style="stroke:#181818;stroke-width:0.5;" x1="13.5" x2="127.6846" y1="297" y2="297"/></g><!--class Canal--><g class="entity" data-entity="Canal" data-source-line="2" data-uid="ent0003" id="entity_Canal"><rect fill="#F1F1F1" height="48" rx="2.5" ry="2.5" style="stroke:#181818;stroke-width:0.5;" width="71.6963" x="191.5" y="257"/><ellipse cx="206.5" cy="273" fill="#ADD1B2" rx="11" ry="11" style="stroke:#181818;stroke-width:1;"/><path d="M209.4688,278.6406 Q208.8906,278.9375 208.25,279.0781 Q207.6094,279.2344 206.9063,279.2344 Q204.4063,279.2344 203.0781,277.5938 Q201.7656,275.9375 201.7656,272.8125 Q201.7656,269.6875 203.0781,268.0313 Q204.4063,266.375 206.9063,266.375 Q207.6094,266.375 208.25,266.5313 Q208.9063,266.6875 209.4688,266.9844 L209.4688,269.7031 Q208.8438,269.125 208.25,268.8594 Q207.6563,268.5781 207.0313,268.5781 Q205.6875,268.5781 205,269.6563 Q204.3125,270.7188 204.3125,272.8125 Q204.3125,274.9063 205,275.9844 Q205.6875,277.0469 207.0313,277.0469 Q207.6563,277.0469 208.25,276.7813 Q208.8438,276.5 209.4688,275.9219 L209.4688,278.6406 Z " fill="#000000"/><text fill="#000000" font-family="sans-serif" font-size="14" lengthAdjust="spacing" textLength="39.6963" x="220.5" y="277.8467">Canal</text><line style="stroke:#181818;stroke-width:0.5;" x1="192.5" x2="262.1963" y1="289" y2="289"/><line style="stroke:#181818;stroke-width:0.5;" x1="192.5" x2="262.1963" y1="297" y2="297"/></g><!--class Codigo--><g class="entity" data-entity="Codigo" data-source-line="3" data-uid="ent0004" id="entity_Codigo"><rect fill="#F1F1F1" height="48" rx="2.5" ry="2.5" style="stroke:#181818;stroke-width:0.5;" width="80.5693" x="299" y="257"/><ellipse cx="314" cy="273" fill="#ADD1B2" rx="11" ry="11" style="stroke:#181818;stroke-width:1;"/><path d="M316.9688,278.6406 Q316.3906,278.9375 315.75,279.0781 Q315.1094,279.2344 314.4063,279.2344 Q311.9063,279.2344 310.5781,277.5938 Q309.2656,275.9375 309.2656,272.8125 Q309.2656,269.6875 310.5781,268.0313 Q311.9063,266.375 314.4063,266.375 Q315.1094,266.375 315.75,266.5313 Q316.4063,266.6875 316.9688,266.9844 L316.9688,269.7031 Q316.3438,269.125 315.75,268.8594 Q315.1563,268.5781 314.5313,268.5781 Q313.1875,268.5781 312.5,269.6563 Q311.8125,270.7188 311.8125,272.8125 Q311.8125,274.9063 312.5,275.9844 Q313.1875,277.0469 314.5313,277.0469 Q315.1563,277.0469 315.75,276.7813 Q316.3438,276.5 316.9688,275.9219 L316.9688,278.6406 Z " fill="#000000"/><text fill="#000000" font-family="sans-serif" font-size="14" lengthAdjust="spacing" textLength="48.5693" x="328" y="277.8467">Codigo</text><line style="stroke:#181818;stroke-width:0.5;" x1="300" x2="378.5693" y1="289" y2="289"/><line style="stroke:#181818;stroke-width:0.5;" x1="300" x2="378.5693" y1="297" y2="297"/></g><!--class Formato--><g class="entity" data-entity="Formato" data-source-line="4" data-uid="ent0005" id="entity_Formato"><rect fill="#F1F1F1" height="48" rx="2.5" ry="2.5" style="stroke:#181818;stroke-width:0.5;" width="90.6455" x="415" y="257"/><ellipse cx="430" cy="273" fill="#ADD1B2" rx="11" ry="11" style="stroke:#181818;stroke-width:1;"/><path d="M432.9688,278.6406 Q432.3906,278.9375 431.75,279.0781 Q431.1094,279.2344 430.4063,279.2344 Q427.9063,279.2344 426.5781,277.5938 Q425.2656,275.9375 425.2656,272.8125 Q425.2656,269.6875 426.5781,268.0313 Q427.9063,266.375 430.4063,266.375 Q431.1094,266.375 431.75,266.5313 Q432.4063,266.6875 432.9688,266.9844 L432.9688,269.7031 Q432.3438,269.125 431.75,268.8594 Q431.1563,268.5781 430.5313,268.5781 Q429.1875,268.5781 428.5,269.6563 Q427.8125,270.7188 427.8125,272.8125 Q427.8125,274.9063 428.5,275.9844 Q429.1875,277.0469 430.5313,277.0469 Q431.1563,277.0469 431.75,276.7813 Q432.3438,276.5 432.9688,275.9219 L432.9688,278.6406 Z " fill="#000000"/><text fill="#000000" font-family="sans-serif" font-size="14" lengthAdjust="spacing" textLength="58.6455" x="444" y="277.8467">Formato</text><line style="stroke:#181818;stroke-width:0.5;" x1="416" x2="504.6455" y1="289" y2="289"/><line style="stroke:#181818;stroke-width:0.5;" x1="416" x2="504.6455" y1="297" y2="297"/></g><!--class Adjunto--><g class="entity" data-entity="Adjunto" data-source-line="5" data-uid="ent0006" id="entity_Adjunto"><rect fill="#F1F1F1" height="48" rx="2.5" ry="2.5" style="stroke:#181818;stroke-width:0.5;" width="86.1543" x="574.5" y="257"/><ellipse cx="589.5" cy="273" fill="#ADD1B2" rx="11" ry="11" style="stroke:#181818;stroke-width:1;"/><path d="M592.4688,278.6406 Q591.8906,278.9375 591.25,279.0781 Q590.6094,279.2344 589.9063,279.2344 Q587.4063,279.2344 586.0781,277.5938 Q584.7656,275.9375 584.7656,272.8125 Q584.7656,269.6875 586.0781,268.0313 Q587.4063,266.375 589.9063,266.375 Q590.6094,266.375 591.25,266.5313 Q591.9063,266.6875 592.4688,266.9844 L592.4688,269.7031 Q591.8438,269.125 591.25,268.8594 Q590.6563,268.5781 590.0313,268.5781 Q588.6875,268.5781 588,269.6563 Q587.3125,270.7188 587.3125,272.8125 Q587.3125,274.9063 588,275.9844 Q588.6875,277.0469 590.0313,277.0469 Q590.6563,277.0469 591.25,276.7813 Q591.8438,276.5 592.4688,275.9219 L592.4688,278.6406 Z " fill="#000000"/><text fill="#000000" font-family="sans-serif" font-size="14" lengthAdjust="spacing" textLength="54.1543" x="603.5" y="277.8467">Adjunto</text><line style="stroke:#181818;stroke-width:0.5;" x1="575.5" x2="659.6543" y1="289" y2="289"/><line style="stroke:#181818;stroke-width:0.5;" x1="575.5" x2="659.6543" y1="297" y2="297"/></g><!--class Mensaje--><g class="entity" data-entity="Mensaje" data-source-line="6" data-uid="ent0007" id="entity_Mensaje"><rect fill="#F1F1F1" height="48" rx="2.5" ry="2.5" style="stroke:#181818;stroke-width:0.5;" width="89.9414" x="238.5" y="132"/><ellipse cx="253.5" cy="148" fill="#ADD1B2" rx="11" ry="11" style="stroke:#181818;stroke-width:1;"/><path d="M256.4688,153.6406 Q255.8906,153.9375 255.25,154.0781 Q254.6094,154.2344 253.9063,154.2344 Q251.4063,154.2344 250.0781,152.5938 Q248.7656,150.9375 248.7656,147.8125 Q248.7656,144.6875 250.0781,143.0313 Q251.4063,141.375 253.9063,141.375 Q254.6094,141.375 255.25,141.5313 Q255.9063,141.6875 256.4688,141.9844 L256.4688,144.7031 Q255.8438,144.125 255.25,143.8594 Q254.6563,143.5781 254.0313,143.5781 Q252.6875,143.5781 252,144.6563 Q251.3125,145.7188 251.3125,147.8125 Q251.3125,149.9063 252,150.9844 Q252.6875,152.0469 254.0313,152.0469 Q254.6563,152.0469 255.25,151.7813 Q255.8438,151.5 256.4688,150.9219 L256.4688,153.6406 Z " fill="#000000"/><text fill="#000000" font-family="sans-serif" font-size="14" lengthAdjust="spacing" textLength="57.9414" x="267.5" y="152.8467">Mensaje</text><line style="stroke:#181818;stroke-width:0.5;" x1="239.5" x2="327.4414" y1="164" y2="164"/><line style="stroke:#181818;stroke-width:0.5;" x1="239.5" x2="327.4414" y1="172" y2="172"/></g><!--class Conversacion--><g class="entity" data-entity="Conversacion" data-source-line="7" data-uid="ent0008" id="entity_Conversacion"><rect fill="#F1F1F1" height="48" rx="2.5" ry="2.5" style="stroke:#181818;stroke-width:0.5;" width="126.7666" x="7" y="7"/><ellipse cx="22" cy="23" fill="#ADD1B2" rx="11" ry="11" style="stroke:#181818;stroke-width:1;"/><path d="M24.9688,28.6406 Q24.3906,28.9375 23.75,29.0781 Q23.1094,29.2344 22.4063,29.2344 Q19.9063,29.2344 18.5781,27.5938 Q17.2656,25.9375 17.2656,22.8125 Q17.2656,19.6875 18.5781,18.0313 Q19.9063,16.375 22.4063,16.375 Q23.1094,16.375 23.75,16.5313 Q24.4063,16.6875 24.9688,16.9844 L24.9688,19.7031 Q24.3438,19.125 23.75,18.8594 Q23.1563,18.5781 22.5313,18.5781 Q21.1875,18.5781 20.5,19.6563 Q19.8125,20.7188 19.8125,22.8125 Q19.8125,24.9063 20.5,25.9844 Q21.1875,27.0469 22.5313,27.0469 Q23.1563,27.0469 23.75,26.7813 Q24.3438,26.5 24.9688,25.9219 L24.9688,28.6406 Z " fill="#000000"/><text fill="#000000" font-family="sans-serif" font-size="14" lengthAdjust="spacing" textLength="94.7666" x="36" y="27.8467">Conversacion</text><line style="stroke:#181818;stroke-width:0.5;" x1="8" x2="132.7666" y1="39" y2="39"/><line style="stroke:#181818;stroke-width:0.5;" x1="8" x2="132.7666" y1="47" y2="47"/></g><!--reverse link Conversacion to Participante--><g class="link" data-entity-1="Conversacion" data-entity-2="Participante" data-source-line="11" data-uid="lnk9" id="link_Conversacion_Participante"><path codeLine="11" d="M70.5,67.33 C70.5,114.72 70.5,209.73 70.5,256.91" fill="none" id="Conversacion-backto-Participante" style="stroke:#181818;stroke-width:1;"/><polygon fill="none" points="70.5,55.33,66.5,61.33,70.5,67.33,74.5,61.33,70.5,55.33" style="stroke:#181818;stroke-width:1;"/><polygon fill="#000000" points="75.5,161.0664,78.4389,152.0213,72.5611,152.0213,75.5,161.0664" style="stroke:#000000;stroke-width:1;"/><text fill="#000000" font-family="sans-serif" font-size="13" lengthAdjust="spacing" textLength="46.0205" x="84.5" y="160.5669">agrupa</text><text fill="#000000" font-family="sans-serif" font-size="13" lengthAdjust="spacing" textLength="23.0356" x="44.534" y="245.899">2..*</text></g><!--reverse link Conversacion to Mensaje--><g class="link" data-entity-1="Conversacion" data-entity-2="Mensaje" data-source-line="14" data-uid="lnk10" id="link_Conversacion_Mensaje"><path codeLine="14" d="M120.9518,61.1409 C159.0318,83.1309 205.59,110.01 243.62,131.97" fill="none" id="Conversacion-backto-Mensaje" style="stroke:#181818;stroke-width:1;"/><polygon fill="#181818" points="110.56,55.14,113.7556,61.6044,120.9518,61.1409,117.7562,54.6765,110.56,55.14" style="stroke:#181818;stroke-width:1;"/><polygon fill="#000000" points="198.83,96.0666,192.4665,88.9986,189.5274,94.0888,198.83,96.0666" style="stroke:#000000;stroke-width:1;"/><text fill="#000000" font-family="sans-serif" font-size="13" lengthAdjust="spacing" textLength="52.2095" x="203.5" y="98.0669">historial</text><text fill="#000000" font-family="sans-serif" font-size="13" lengthAdjust="spacing" textLength="23.0356" x="207.4659" y="120.9743">0..*</text></g><!--reverse link Mensaje to Adjunto--><g class="link" data-entity-1="Mensaje" data-entity-2="Adjunto" data-source-line="17" data-uid="lnk11" id="link_Mensaje_Adjunto"><path codeLine="17" d="M340.6862,159.2155 C395.0562,162.6455 475.72,173.19 545.5,210 C567.09,221.39 586.6,241.26 599.84,256.92" fill="none" id="Mensaje-backto-Adjunto" style="stroke:#181818;stroke-width:1;"/><polygon fill="#181818" points="328.71,158.46,334.4463,162.8298,340.6862,159.2155,334.9499,154.8457,328.71,158.46" style="stroke:#181818;stroke-width:1;"/><polygon fill="#000000" points="577.1785,220.3303,569.7518,214.3894,567.6782,219.8894,577.1785,220.3303" style="stroke:#000000;stroke-width:1;"/><text fill="#000000" font-family="sans-serif" font-size="13" lengthAdjust="spacing" textLength="56.2847" x="581.5" y="223.0669">contiene</text><text fill="#000000" font-family="sans-serif" font-size="13" lengthAdjust="spacing" textLength="24.8066" x="568.3232" y="245.9115">0..1</text></g><!--link Mensaje to Canal--><g class="link" data-entity-1="Mensaje" data-entity-2="Canal" data-source-line="20" data-uid="lnk12" id="link_Mensaje_Canal"><path codeLine="20" d="M248.82,180.25 C239.48,188.44 230.56,198.52 225.5,210 C219.03,224.68 218.8253,236.9133 221.0553,251.0533" fill="none" id="Mensaje-to-Canal" style="stroke:#181818;stroke-width:1;"/><polygon fill="#181818" points="221.99,256.98,224.5391,247.4667,221.2111,252.041,216.6368,248.713,221.99,256.98" style="stroke:#181818;stroke-width:1;"/><polygon fill="#000000" points="228.6746,223.2213,234.7128,215.8734,229.2407,213.7276,228.6746,223.2213" style="stroke:#000000;stroke-width:1;"/><text fill="#000000" font-family="sans-serif" font-size="13" lengthAdjust="spacing" textLength="56.5322" x="239.5" y="223.0669">viaja por</text><text fill="#000000" font-family="sans-serif" font-size="13" lengthAdjust="spacing" textLength="8.271" x="211.6267" y="245.9869">1</text></g><!--link Mensaje to Codigo--><g class="link" data-entity-1="Mensaje" data-entity-2="Codigo" data-source-line="21" data-uid="lnk13" id="link_Mensaje_Codigo"><path codeLine="21" d="M294.03,180.14 C304.05,202.13 316.5355,229.5486 326.5255,251.5086" fill="none" id="Mensaje-to-Codigo" style="stroke:#181818;stroke-width:1;"/><polygon fill="#181818" points="329.01,256.97,328.9242,247.1215,326.9396,252.4188,321.6423,250.4342,329.01,256.97" style="stroke:#181818;stroke-width:1;"/><polygon fill="#000000" points="321.5719,223.1169,320.4985,213.6671,315.1491,216.1028,321.5719,223.1169" style="stroke:#000000;stroke-width:1;"/><text fill="#000000" font-family="sans-serif" font-size="13" lengthAdjust="spacing" textLength="64.2954" x="328.5" y="223.0669">escrito en</text><text fill="#000000" font-family="sans-serif" font-size="13" lengthAdjust="spacing" textLength="8.271" x="317.3868" y="245.9743">1</text></g><!--link Mensaje to Formato--><g class="link" data-entity-1="Mensaje" data-entity-2="Formato" data-source-line="22" data-uid="lnk14" id="link_Mensaje_Formato"><path codeLine="22" d="M328.67,171.8 C351.8,180.69 379.63,193.5 401.5,210 C418.76,223.02 430.8066,237.1035 441.6166,252.0035" fill="none" id="Mensaje-to-Formato" style="stroke:#181818;stroke-width:1;"/><polygon fill="#181818" points="445.14,256.86,443.0926,247.2263,442.2038,252.8129,436.6172,251.9242,445.14,256.86" style="stroke:#181818;stroke-width:1;"/><polygon fill="#000000" points="428.5767,221.4613,422.9034,213.8282,419.5003,218.6206,428.5767,221.4613" style="stroke:#000000;stroke-width:1;"/><text fill="#000000" font-family="sans-serif" font-size="13" lengthAdjust="spacing" textLength="103.8223" x="433.5" y="223.0669">estructurado en</text><text fill="#000000" font-family="sans-serif" font-size="13" lengthAdjust="spacing" textLength="8.271" x="432.2591" y="245.8362">1</text></g><!--link Mensaje to Participante--><g class="link" data-entity-1="Mensaje" data-entity-2="Participante" data-source-line="23" data-uid="lnk15" id="link_Mensaje_Participante"><path codeLine="23" d="M238.45,164.4 C204.43,171.67 157.88,185.39 123.5,210 C106.4,222.24 95.4583,236.5101 86.1283,251.7801" fill="none" id="Mensaje-to-Participante" style="stroke:#181818;stroke-width:1;"/><polygon fill="#181818" points="83,256.9,91.1057,251.3056,85.6069,252.6334,84.2791,247.1346,83,256.9" style="stroke:#181818;stroke-width:1;"/><polygon fill="#000000" points="124.1629,221.0544,133.4711,219.1029,130.5464,214.0043,124.1629,221.0544" style="stroke:#000000;stroke-width:1;"/><text fill="#000000" font-family="sans-serif" font-size="13" lengthAdjust="spacing" textLength="74.8706" x="137.5" y="223.0669">emitido por</text><text fill="#000000" font-family="sans-serif" font-size="13" lengthAdjust="spacing" textLength="8.271" x="77.1892" y="245.8864">1</text></g><!--SRC=[TPB1QiCm38RlUGgHow0iPTknXq8Pssc3iJVG796vE5QmxC8UQ-mH-cAJapYqMtlB_wFeat_9E1I1DmpH6ZkWZrIPqNf4ZwvySsixdiKpXnvZKRjsd_oYNiaBxfSMx0yK18rbNrKtq3GDl9CRDKcMQkwwG9rQnn-_WHS4i_oa3c0Nqe0mdCmdjp1GOF0CZWLQaXZI5rMdD615rG_hzQe-Unjie9vRRkiyqYFt0ukzXjSfsqJ7RmJy47Ofel8SzFCppv2hZBmRaNCCcVPf9NAmw2u2dvPU2ueBYXK5aW3dX4lJmhclI_YPetD7Ivvcp4xOs1Aqs7vm96UuoLEbeIH1nKSDaoQBPQ4rpHPgHOtda447YtjT28TC-bSr7aek8p71wcZaBzNDDpGLwlfCJ07RQzL_DqYzZLQhfo5-0G00]--></g></svg>