<svg xmlns="http://www.w3.org/2000/svg" xmlns:xlink="http://www.w3.org/1999/xlink" contentStyleType="text/css" data-diagram-type="CLASS" height="494px" preserveAspectRatio="none" style="width:1086px;height:494px;background:#FFFFFF;" version="1.1" viewBox="0 0 1086 494" width="1086px" zoomAndPan="magnify"><defs/><g><!--class Cancion--><g class="entity" data-entity="Cancion" data-source-line="1" data-uid="ent0002" id="entity_Cancion"><rect fill="#F1F1F1" height="48" rx="2.5" ry="2.5" style="stroke:#181818;stroke-width:0.5;" width="88.2529" x="719" y="331"/><ellipse cx="734" cy="347" fill="#ADD1B2" rx="11" ry="11" style="stroke:#181818;stroke-width:1;"/><path d="M736.9688,352.6406 Q736.3906,352.9375 735.75,353.0781 Q735.1094,353.2344 734.4063,353.2344 Q731.9063,353.2344 730.5781,351.5938 Q729.2656,349.9375 729.2656,346.8125 Q729.2656,343.6875 730.5781,342.0313 Q731.9063,340.375 734.4063,340.375 Q735.1094,340.375 735.75,340.5313 Q736.4063,340.6875 736.9688,340.9844 L736.9688,343.7031 Q736.3438,343.125 735.75,342.8594 Q735.1563,342.5781 734.5313,342.5781 Q733.1875,342.5781 732.5,343.6563 Q731.8125,344.7188 731.8125,346.8125 Q731.8125,348.9063 732.5,349.9844 Q733.1875,351.0469 734.5313,351.0469 Q735.1563,351.0469 735.75,350.7813 Q736.3438,350.5 736.9688,349.9219 L736.9688,352.6406 Z " fill="#000000"/><text fill="#000000" font-family="sans-serif" font-size="14" lengthAdjust="spacing" textLength="56.2529" x="748" y="351.8467">Cancion</text><line style="stroke:#181818;stroke-width:0.5;" x1="720" x2="806.2529" y1="363" y2="363"/><line style="stroke:#181818;stroke-width:0.5;" x1="720" x2="806.2529" y1="371" y2="371"/></g><!--class Audio--><g class="entity" data-entity="Audio" data-source-line="5" data-uid="ent0003" id="entity_Audio"><rect fill="#F1F1F1" height="48" rx="2.5" ry="2.5" style="stroke:#181818;stroke-width:0.5;" width="71.792" x="671" y="439"/><ellipse cx="686" cy="455" fill="#ADD1B2" rx="11" ry="11" style="stroke:#181818;stroke-width:1;"/><path d="M688.9688,460.6406 Q688.3906,460.9375 687.75,461.0781 Q687.1094,461.2344 686.4063,461.2344 Q683.9063,461.2344 682.5781,459.5938 Q681.2656,457.9375 681.2656,454.8125 Q681.2656,451.6875 682.5781,450.0313 Q683.9063,448.375 686.4063,448.375 Q687.1094,448.375 687.75,448.5313 Q688.4063,448.6875 688.9688,448.9844 L688.9688,451.7031 Q688.3438,451.125 687.75,450.8594 Q687.1563,450.5781 686.5313,450.5781 Q685.1875,450.5781 684.5,451.6563 Q683.8125,452.7188 683.8125,454.8125 Q683.8125,456.9063 684.5,457.9844 Q685.1875,459.0469 686.5313,459.0469 Q687.1563,459.0469 687.75,458.7813 Q688.3438,458.5 688.9688,457.9219 L688.9688,460.6406 Z " fill="#000000"/><text fill="#000000" font-family="sans-serif" font-size="14" lengthAdjust="spacing" textLength="39.792" x="700" y="459.8467">Audio</text><line style="stroke:#181818;stroke-width:0.5;" x1="672" x2="741.792" y1="471" y2="471"/><line style="stroke:#181818;stroke-width:0.5;" x1="672" x2="741.792" y1="479" y2="479"/></g><!--class Artista--><g class="entity" data-entity="Artista" data-source-line="9" data-uid="ent0004" id="entity_Artista"><rect fill="#F1F1F1" height="48" rx="2.5" ry="2.5" style="stroke:#181818;stroke-width:0.5;" width="78.0742" x="7" y="223"/><ellipse cx="22" cy="239" fill="#ADD1B2" rx="11" ry="11" style="stroke:#181818;stroke-width:1;"/><path d="M24.9688,244.6406 Q24.3906,244.9375 23.75,245.0781 Q23.1094,245.2344 22.4063,245.2344 Q19.9063,245.2344 18.5781,243.5938 Q17.2656,241.9375 17.2656,238.8125 Q17.2656,235.6875 18.5781,234.0313 Q19.9063,232.375 22.4063,232.375 Q23.1094,232.375 23.75,232.5313 Q24.4063,232.6875 24.9688,232.9844 L24.9688,235.7031 Q24.3438,235.125 23.75,234.8594 Q23.1563,234.5781 22.5313,234.5781 Q21.1875,234.5781 20.5,235.6563 Q19.8125,236.7188 19.8125,238.8125 Q19.8125,240.9063 20.5,241.9844 Q21.1875,243.0469 22.5313,243.0469 Q23.1563,243.0469 23.75,242.7813 Q24.3438,242.5 24.9688,241.9219 L24.9688,244.6406 Z " fill="#000000"/><text fill="#000000" font-family="sans-serif" font-size="14" lengthAdjust="spacing" textLength="46.0742" x="36" y="243.8467">Artista</text><line style="stroke:#181818;stroke-width:0.5;" x1="8" x2="84.0742" y1="255" y2="255"/><line style="stroke:#181818;stroke-width:0.5;" x1="8" x2="84.0742" y1="263" y2="263"/></g><!--class Playlist--><g class="entity" data-entity="Playlist" data-source-line="13" data-uid="ent0005" id="entity_Playlist"><rect fill="#F1F1F1" height="48" rx="2.5" ry="2.5" style="stroke:#181818;stroke-width:0.5;" width="81.7588" x="138" y="223"/><ellipse cx="153" cy="239" fill="#ADD1B2" rx="11" ry="11" style="stroke:#181818;stroke-width:1;"/><path d="M155.9688,244.6406 Q155.3906,244.9375 154.75,245.0781 Q154.1094,245.2344 153.4063,245.2344 Q150.9063,245.2344 149.5781,243.5938 Q148.2656,241.9375 148.2656,238.8125 Q148.2656,235.6875 149.5781,234.0313 Q150.9063,232.375 153.4063,232.375 Q154.1094,232.375 154.75,232.5313 Q155.4063,232.6875 155.9688,232.9844 L155.9688,235.7031 Q155.3438,235.125 154.75,234.8594 Q154.1563,234.5781 153.5313,234.5781 Q152.1875,234.5781 151.5,235.6563 Q150.8125,236.7188 150.8125,238.8125 Q150.8125,240.9063 151.5,241.9844 Q152.1875,243.0469 153.5313,243.0469 Q154.1563,243.0469 154.75,242.7813 Q155.3438,242.5 155.9688,241.9219 L155.9688,244.6406 Z " fill="#000000"/><text fill="#000000" font-family="sans-serif" font-size="14" lengthAdjust="spacing" textLength="49.7588" x="167" y="243.8467">Playlist</text><line style="stroke:#181818;stroke-width:0.5;" x1="139" x2="218.7588" y1="255" y2="255"/><line style="stroke:#181818;stroke-width:0.5;" x1="139" x2="218.7588" y1="263" y2="263"/></g><!--class Album--><g class="entity" data-entity="Album" data-source-line="17" data-uid="ent0006" id="entity_Album"><rect fill="#F1F1F1" height="48" rx="2.5" ry="2.5" style="stroke:#181818;stroke-width:0.5;" width="76.8643" x="724.5" y="223"/><ellipse cx="739.5" cy="239" fill="#ADD1B2" rx="11" ry="11" style="stroke:#181818;stroke-width:1;"/><path d="M742.4688,244.6406 Q741.8906,244.9375 741.25,245.0781 Q740.6094,245.2344 739.9063,245.2344 Q737.4063,245.2344 736.0781,243.5938 Q734.7656,241.9375 734.7656,238.8125 Q734.7656,235.6875 736.0781,234.0313 Q737.4063,232.375 739.9063,232.375 Q740.6094,232.375 741.25,232.5313 Q741.9063,232.6875 742.4688,232.9844 L742.4688,235.7031 Q741.8438,235.125 741.25,234.8594 Q740.6563,234.5781 740.0313,234.5781 Q738.6875,234.5781 738,235.6563 Q737.3125,236.7188 737.3125,238.8125 Q737.3125,240.9063 738,241.9844 Q738.6875,243.0469 740.0313,243.0469 Q740.6563,243.0469 741.25,242.7813 Q741.8438,242.5 742.4688,241.9219 L742.4688,244.6406 Z " fill="#000000"/><text fill="#000000" font-family="sans-serif" font-size="14" lengthAdjust="spacing" textLength="44.8643" x="753.5" y="243.8467">Album</text><line style="stroke:#181818;stroke-width:0.5;" x1="725.5" x2="800.3643" y1="255" y2="255"/><line style="stroke:#181818;stroke-width:0.5;" x1="725.5" x2="800.3643" y1="263" y2="263"/></g><!--class Usuario--><g class="entity" data-entity="Usuario" data-source-line="21" data-uid="ent0007" id="entity_Usuario"><rect fill="#F1F1F1" height="48" rx="2.5" ry="2.5" style="stroke:#181818;stroke-width:0.5;" width="85.2041" x="360.5" y="115"/><ellipse cx="375.5" cy="131" fill="#ADD1B2" rx="11" ry="11" style="stroke:#181818;stroke-width:1;"/><path d="M378.4688,136.6406 Q377.8906,136.9375 377.25,137.0781 Q376.6094,137.2344 375.9063,137.2344 Q373.4063,137.2344 372.0781,135.5938 Q370.7656,133.9375 370.7656,130.8125 Q370.7656,127.6875 372.0781,126.0313 Q373.4063,124.375 375.9063,124.375 Q376.6094,124.375 377.25,124.5313 Q377.9063,124.6875 378.4688,124.9844 L378.4688,127.7031 Q377.8438,127.125 377.25,126.8594 Q376.6563,126.5781 376.0313,126.5781 Q374.6875,126.5781 374,127.6563 Q373.3125,128.7188 373.3125,130.8125 Q373.3125,132.9063 374,133.9844 Q374.6875,135.0469 376.0313,135.0469 Q376.6563,135.0469 377.25,134.7813 Q377.8438,134.5 378.4688,133.9219 L378.4688,136.6406 Z " fill="#000000"/><text fill="#000000" font-family="sans-serif" font-size="14" lengthAdjust="spacing" textLength="53.2041" x="389.5" y="135.8467">Usuario</text><line style="stroke:#181818;stroke-width:0.5;" x1="361.5" x2="444.7041" y1="147" y2="147"/><line style="stroke:#181818;stroke-width:0.5;" x1="361.5" x2="444.7041" y1="155" y2="155"/></g><!--class PlataformaMusical--><g class="entity" data-entity="PlataformaMusical" data-source-line="25" data-uid="ent0008" id="entity_PlataformaMusical"><rect fill="#F1F1F1" height="48" rx="2.5" ry="2.5" style="stroke:#181818;stroke-width:0.5;" width="160.748" x="392.5" y="7"/><ellipse cx="407.5" cy="23" fill="#ADD1B2" rx="11" ry="11" style="stroke:#181818;stroke-width:1;"/><path d="M410.4688,28.6406 Q409.8906,28.9375 409.25,29.0781 Q408.6094,29.2344 407.9063,29.2344 Q405.4063,29.2344 404.0781,27.5938 Q402.7656,25.9375 402.7656,22.8125 Q402.7656,19.6875 404.0781,18.0313 Q405.4063,16.375 407.9063,16.375 Q408.6094,16.375 409.25,16.5313 Q409.9063,16.6875 410.4688,16.9844 L410.4688,19.7031 Q409.8438,19.125 409.25,18.8594 Q408.6563,18.5781 408.0313,18.5781 Q406.6875,18.5781 406,19.6563 Q405.3125,20.7188 405.3125,22.8125 Q405.3125,24.9063 406,25.9844 Q406.6875,27.0469 408.0313,27.0469 Q408.6563,27.0469 409.25,26.7813 Q409.8438,26.5 410.4688,25.9219 L410.4688,28.6406 Z " fill="#000000"/><text fill="#000000" font-family="sans-serif" font-size="14" lengthAdjust="spacing" textLength="128.748" x="421.5" y="27.8467">PlataformaMusical</text><line style="stroke:#181818;stroke-width:0.5;" x1="393.5" x2="552.248" y1="39" y2="39"/><line style="stroke:#181818;stroke-width:0.5;" x1="393.5" x2="552.248" y1="47" y2="47"/></g><!--class Suscripcion--><g class="entity" data-entity="Suscripcion" data-source-line="29" data-uid="ent0009" id="entity_Suscripcion"><rect fill="#F1F1F1" height="48" rx="2.5" ry="2.5" style="stroke:#181818;stroke-width:0.5;" width="112.3086" x="255" y="223"/><ellipse cx="270" cy="239" fill="#ADD1B2" rx="11" ry="11" style="stroke:#181818;stroke-width:1;"/><path d="M272.9688,244.6406 Q272.3906,244.9375 271.75,245.0781 Q271.1094,245.2344 270.4063,245.2344 Q267.9063,245.2344 266.5781,243.5938 Q265.2656,241.9375 265.2656,238.8125 Q265.2656,235.6875 266.5781,234.0313 Q267.9063,232.375 270.4063,232.375 Q271.1094,232.375 271.75,232.5313 Q272.4063,232.6875 272.9688,232.9844 L272.9688,235.7031 Q272.3438,235.125 271.75,234.8594 Q271.1563,234.5781 270.5313,234.5781 Q269.1875,234.5781 268.5,235.6563 Q267.8125,236.7188 267.8125,238.8125 Q267.8125,240.9063 268.5,241.9844 Q269.1875,243.0469 270.5313,243.0469 Q271.1563,243.0469 271.75,242.7813 Q272.3438,242.5 272.9688,241.9219 L272.9688,244.6406 Z " fill="#000000"/><text fill="#000000" font-family="sans-serif" font-size="14" lengthAdjust="spacing" textLength="80.3086" x="284" y="243.8467">Suscripcion</text><line style="stroke:#181818;stroke-width:0.5;" x1="256" x2="366.3086" y1="255" y2="255"/><line style="stroke:#181818;stroke-width:0.5;" x1="256" x2="366.3086" y1="263" y2="263"/></g><!--class Genero--><g class="entity" data-entity="Genero" data-source-line="33" data-uid="ent0010" id="entity_Genero"><rect fill="#F1F1F1" height="48" rx="2.5" ry="2.5" style="stroke:#181818;stroke-width:0.5;" width="83.2695" x="778.5" y="439"/><ellipse cx="793.5" cy="455" fill="#ADD1B2" rx="11" ry="11" style="stroke:#181818;stroke-width:1;"/><path d="M796.4688,460.6406 Q795.8906,460.9375 795.25,461.0781 Q794.6094,461.2344 793.9063,461.2344 Q791.4063,461.2344 790.0781,459.5938 Q788.7656,457.9375 788.7656,454.8125 Q788.7656,451.6875 790.0781,450.0313 Q791.4063,448.375 793.9063,448.375 Q794.6094,448.375 795.25,448.5313 Q795.9063,448.6875 796.4688,448.9844 L796.4688,451.7031 Q795.8438,451.125 795.25,450.8594 Q794.6563,450.5781 794.0313,450.5781 Q792.6875,450.5781 792,451.6563 Q791.3125,452.7188 791.3125,454.8125 Q791.3125,456.9063 792,457.9844 Q792.6875,459.0469 794.0313,459.0469 Q794.6563,459.0469 795.25,458.7813 Q795.8438,458.5 796.4688,457.9219 L796.4688,460.6406 Z " fill="#000000"/><text fill="#000000" font-family="sans-serif" font-size="14" lengthAdjust="spacing" textLength="51.2695" x="807.5" y="459.8467">Genero</text><line style="stroke:#181818;stroke-width:0.5;" x1="779.5" x2="860.7695" y1="471" y2="471"/><line style="stroke:#181818;stroke-width:0.5;" x1="779.5" x2="860.7695" y1="479" y2="479"/></g><!--class HistorialReproduccion--><g class="entity" data-entity="HistorialReproduccion" data-source-line="37" data-uid="ent0011" id="entity_HistorialReproduccion"><rect fill="#F1F1F1" height="48" rx="2.5" ry="2.5" style="stroke:#181818;stroke-width:0.5;" width="185.9111" x="402" y="223"/><ellipse cx="417" cy="239" fill="#ADD1B2" rx="11" ry="11" style="stroke:#181818;stroke-width:1;"/><path d="M419.9688,244.6406 Q419.3906,244.9375 418.75,245.0781 Q418.1094,245.2344 417.4063,245.2344 Q414.9063,245.2344 413.5781,243.5938 Q412.2656,241.9375 412.2656,238.8125 Q412.2656,235.6875 413.5781,234.0313 Q414.9063,232.375 417.4063,232.375 Q418.1094,232.375 418.75,232.5313 Q419.4063,232.6875 419.9688,232.9844 L419.9688,235.7031 Q419.3438,235.125 418.75,234.8594 Q418.1563,234.5781 417.5313,234.5781 Q416.1875,234.5781 415.5,235.6563 Q414.8125,236.7188 414.8125,238.8125 Q414.8125,240.9063 415.5,241.9844 Q416.1875,243.0469 417.5313,243.0469 Q418.1563,243.0469 418.75,242.7813 Q419.3438,242.5 419.9688,241.9219 L419.9688,244.6406 Z " fill="#000000"/><text fill="#000000" font-family="sans-serif" font-size="14" lengthAdjust="spacing" textLength="153.9111" x="431" y="243.8467">HistorialReproduccion</text><line style="stroke:#181818;stroke-width:0.5;" x1="403" x2="586.9111" y1="255" y2="255"/><line style="stroke:#181818;stroke-width:0.5;" x1="403" x2="586.9111" y1="263" y2="263"/></g><!--class Monetizacion--><g class="entity" data-entity="Monetizacion" data-source-line="41" data-uid="ent0012" id="entity_Monetizacion"><rect fill="#F1F1F1" height="48" rx="2.5" ry="2.5" style="stroke:#181818;stroke-width:0.5;" width="124.4629" x="537" y="115"/><ellipse cx="552" cy="131" fill="#ADD1B2" rx="11" ry="11" style="stroke:#181818;stroke-width:1;"/><path d="M554.9688,136.6406 Q554.3906,136.9375 553.75,137.0781 Q553.1094,137.2344 552.4063,137.2344 Q549.9063,137.2344 548.5781,135.5938 Q547.2656,133.9375 547.2656,130.8125 Q547.2656,127.6875 548.5781,126.0313 Q549.9063,124.375 552.4063,124.375 Q553.1094,124.375 553.75,124.5313 Q554.4063,124.6875 554.9688,124.9844 L554.9688,127.7031 Q554.3438,127.125 553.75,126.8594 Q553.1563,126.5781 552.5313,126.5781 Q551.1875,126.5781 550.5,127.6563 Q549.8125,128.7188 549.8125,130.8125 Q549.8125,132.9063 550.5,133.9844 Q551.1875,135.0469 552.5313,135.0469 Q553.1563,135.0469 553.75,134.7813 Q554.3438,134.5 554.9688,133.9219 L554.9688,136.6406 Z " fill="#000000"/><text fill="#000000" font-family="sans-serif" font-size="14" lengthAdjust="spacing" textLength="92.4629" x="566" y="135.8467">Monetizacion</text><line style="stroke:#181818;stroke-width:0.5;" x1="538" x2="660.4629" y1="147" y2="147"/><line style="stroke:#181818;stroke-width:0.5;" x1="538" x2="660.4629" y1="155" y2="155"/></g><!--class Pago--><g class="entity" data-entity="Pago" data-source-line="45" data-uid="ent0013" id="entity_Pago"><rect fill="#F1F1F1" height="48" rx="2.5" ry="2.5" style="stroke:#181818;stroke-width:0.5;" width="66.4736" x="623" y="223"/><ellipse cx="638" cy="239" fill="#ADD1B2" rx="11" ry="11" style="stroke:#181818;stroke-width:1;"/><path d="M640.9688,244.6406 Q640.3906,244.9375 639.75,245.0781 Q639.1094,245.2344 638.4063,245.2344 Q635.9063,245.2344 634.5781,243.5938 Q633.2656,241.9375 633.2656,238.8125 Q633.2656,235.6875 634.5781,234.0313 Q635.9063,232.375 638.4063,232.375 Q639.1094,232.375 639.75,232.5313 Q640.4063,232.6875 640.9688,232.9844 L640.9688,235.7031 Q640.3438,235.125 639.75,234.8594 Q639.1563,234.5781 638.5313,234.5781 Q637.1875,234.5781 636.5,235.6563 Q635.8125,236.7188 635.8125,238.8125 Q635.8125,240.9063 636.5,241.9844 Q637.1875,243.0469 638.5313,243.0469 Q639.1563,243.0469 639.75,242.7813 Q640.3438,242.5 640.9688,241.9219 L640.9688,244.6406 Z " fill="#000000"/><text fill="#000000" font-family="sans-serif" font-size="14" lengthAdjust="spacing" textLength="34.4736" x="652" y="243.8467">Pago</text><line style="stroke:#181818;stroke-width:0.5;" x1="624" x2="688.4736" y1="255" y2="255"/><line style="stroke:#181818;stroke-width:0.5;" x1="624" x2="688.4736" y1="263" y2="263"/></g><!--class Ranking--><g class="entity" data-entity="Ranking" data-source-line="49" data-uid="ent0014" id="entity_Ranking"><rect fill="#F1F1F1" height="48" rx="2.5" ry="2.5" style="stroke:#181818;stroke-width:0.5;" width="88.9365" x="836.5" y="223"/><ellipse cx="851.5" cy="239" fill="#ADD1B2" rx="11" ry="11" style="stroke:#181818;stroke-width:1;"/><path d="M854.4688,244.6406 Q853.8906,244.9375 853.25,245.0781 Q852.6094,245.2344 851.9063,245.2344 Q849.4063,245.2344 848.0781,243.5938 Q846.7656,241.9375 846.7656,238.8125 Q846.7656,235.6875 848.0781,234.0313 Q849.4063,232.375 851.9063,232.375 Q852.6094,232.375 853.25,232.5313 Q853.9063,232.6875 854.4688,232.9844 L854.4688,235.7031 Q853.8438,235.125 853.25,234.8594 Q852.6563,234.5781 852.0313,234.5781 Q850.6875,234.5781 850,235.6563 Q849.3125,236.7188 849.3125,238.8125 Q849.3125,240.9063 850,241.9844 Q850.6875,243.0469 852.0313,243.0469 Q852.6563,243.0469 853.25,242.7813 Q853.8438,242.5 854.4688,241.9219 L854.4688,244.6406 Z " fill="#000000"/><text fill="#000000" font-family="sans-serif" font-size="14" lengthAdjust="spacing" textLength="56.9365" x="865.5" y="243.8467">Ranking</text><line style="stroke:#181818;stroke-width:0.5;" x1="837.5" x2="924.4365" y1="255" y2="255"/><line style="stroke:#181818;stroke-width:0.5;" x1="837.5" x2="924.4365" y1="263" y2="263"/></g><!--class Reproductor--><g class="entity" data-entity="Reproductor" data-source-line="53" data-uid="ent0015" id="entity_Reproductor"><rect fill="#F1F1F1" height="48" rx="2.5" ry="2.5" style="stroke:#181818;stroke-width:0.5;" width="118.8164" x="960.5" y="223"/><ellipse cx="975.5" cy="239" fill="#ADD1B2" rx="11" ry="11" style="stroke:#181818;stroke-width:1;"/><path d="M978.4688,244.6406 Q977.8906,244.9375 977.25,245.0781 Q976.6094,245.2344 975.9063,245.2344 Q973.4063,245.2344 972.0781,243.5938 Q970.7656,241.9375 970.7656,238.8125 Q970.7656,235.6875 972.0781,234.0313 Q973.4063,232.375 975.9063,232.375 Q976.6094,232.375 977.25,232.5313 Q977.9063,232.6875 978.4688,232.9844 L978.4688,235.7031 Q977.8438,235.125 977.25,234.8594 Q976.6563,234.5781 976.0313,234.5781 Q974.6875,234.5781 974,235.6563 Q973.3125,236.7188 973.3125,238.8125 Q973.3125,240.9063 974,241.9844 Q974.6875,243.0469 976.0313,243.0469 Q976.6563,243.0469 977.25,242.7813 Q977.8438,242.5 978.4688,241.9219 L978.4688,244.6406 Z " fill="#000000"/><text fill="#000000" font-family="sans-serif" font-size="14" lengthAdjust="spacing" textLength="86.8164" x="989.5" y="243.8467">Reproductor</text><line style="stroke:#181818;stroke-width:0.5;" x1="961.5" x2="1078.3164" y1="255" y2="255"/><line style="stroke:#181818;stroke-width:0.5;" x1="961.5" x2="1078.3164" y1="263" y2="263"/></g><!--reverse link Cancion to Audio--><g class="link" data-entity-1="Cancion" data-entity-2="Audio" data-source-line="58" data-uid="lnk16" id="link_Cancion_Audio"><path codeLine="58" d="M745.2445,389.6103 C735.9145,407.2703 728.69,420.94 719.32,438.68" fill="none" id="Cancion-backto-Audio" style="stroke:#181818;stroke-width:1;"/><polygon fill="#181818" points="750.85,379,744.5105,382.4366,745.2445,389.6103,751.584,386.1737,750.85,379" style="stroke:#181818;stroke-width:1;"/></g><!--reverse link Playlist to Cancion--><g class="link" data-entity-1="Playlist" data-entity-2="Cancion" data-source-line="59" data-uid="lnk17" id="link_Playlist_Cancion"><path codeLine="59" d="M231.4181,269.6618 C237.0181,271.6818 231.46,269.49 237,271 C411.78,318.81 627.26,342.06 718.66,350.34" fill="none" id="Playlist-backto-Cancion" style="stroke:#181818;stroke-width:1;"/><polygon fill="none" points="220.13,265.59,224.4168,271.3886,231.4181,269.6618,227.1313,263.8632,220.13,265.59" style="stroke:#181818;stroke-width:1;"/></g><!--reverse link Album to Cancion--><g class="link" data-entity-1="Album" data-entity-2="Cancion" data-source-line="60" data-uid="lnk18" id="link_Album_Cancion"><path codeLine="60" d="M763,283 C763,300.66 763,312.94 763,330.68" fill="none" id="Album-backto-Cancion" style="stroke:#181818;stroke-width:1;"/><polygon fill="none" points="763,271,759,277,763,283,767,277,763,271" style="stroke:#181818;stroke-width:1;"/></g><!--reverse link Usuario to HistorialReproduccion--><g class="link" data-entity-1="Usuario" data-entity-2="HistorialReproduccion" data-source-line="61" data-uid="lnk19" id="link_Usuario_HistorialReproduccion"><path codeLine="61" d="M430.8264,172.062 C446.1564,189.722 459.36,204.94 474.76,222.68" fill="none" id="Usuario-backto-HistorialReproduccion" style="stroke:#181818;stroke-width:1;"/><polygon fill="none" points="422.96,163,423.8725,170.1531,430.8264,172.062,429.9139,164.9089,422.96,163" style="stroke:#181818;stroke-width:1;"/></g><!--link Artista to Cancion--><g class="link" data-entity-1="Artista" data-entity-2="Cancion" data-source-line="63" data-uid="lnk20" id="link_Artista_Cancion"><path codeLine="63" d="M85.22,261.57 C96.36,265.05 108.56,268.5 120,271 C342.14,319.48 608.0766,342.6837 712.9066,350.5037" fill="none" id="Artista-to-Cancion" style="stroke:#181818;stroke-width:1;"/><polygon fill="#181818" points="718.89,350.95,710.2125,346.2916,713.9039,350.578,709.6174,354.2694,718.89,350.95" style="stroke:#181818;stroke-width:1;"/></g><!--link Artista to Artista--><g class="link" data-entity-1="Artista" data-entity-2="Artista" data-source-line="64" data-uid="lnk21" id="link_Artista_Artista"><path codeLine="64" d="M85.21,227.2 C103.73,224.89 120,231.5 120,247 C120,262.5 109.6839,269.8526 91.1639,267.5426" fill="none" id="Artista-to-Artista" style="stroke:#181818;stroke-width:1;"/><polygon fill="#181818" points="85.21,266.8,93.6457,271.8832,90.1716,267.4189,94.6359,263.9447,85.21,266.8" style="stroke:#181818;stroke-width:1;"/></g><!--link Usuario to Playlist--><g class="link" data-entity-1="Usuario" data-entity-2="Playlist" data-source-line="65" data-uid="lnk22" id="link_Usuario_Playlist"><path codeLine="65" d="M360.34,160.19 C320.1,179.23 265.6033,205.0234 225.7933,223.8634" fill="none" id="Usuario-to-Playlist" style="stroke:#181818;stroke-width:1;"/><polygon fill="#181818" points="220.37,226.43,230.2161,226.1957,224.8895,224.2912,226.794,218.9646,220.37,226.43" style="stroke:#181818;stroke-width:1;"/></g><!--link Usuario to Suscripcion--><g class="link" data-entity-1="Usuario" data-entity-2="Suscripcion" data-source-line="66" data-uid="lnk23" id="link_Usuario_Suscripcion"><path codeLine="66" d="M383.04,163 C367.71,180.66 350.5733,200.4091 335.1733,218.1491" fill="none" id="Usuario-to-Suscripcion" style="stroke:#181818;stroke-width:1;"/><polygon fill="#181818" points="331.24,222.68,340.1605,218.5058,334.5177,218.9042,334.1193,213.2614,331.24,222.68" style="stroke:#181818;stroke-width:1;"/></g><!--link Cancion to Genero--><g class="link" data-entity-1="Cancion" data-entity-2="Genero" data-source-line="67" data-uid="lnk24" id="link_Cancion_Genero"><path codeLine="67" d="M775.37,379 C784.86,396.66 795.0782,415.6556 804.6182,433.3956" fill="none" id="Cancion-to-Genero" style="stroke:#181818;stroke-width:1;"/><polygon fill="#181818" points="807.46,438.68,806.7203,428.859,805.0919,434.2764,799.6745,432.648,807.46,438.68" style="stroke:#181818;stroke-width:1;"/></g><!--link PlataformaMusical to Usuario--><g class="link" data-entity-1="PlataformaMusical" data-entity-2="Usuario" data-source-line="68" data-uid="lnk25" id="link_PlataformaMusical_Usuario"><path codeLine="68" d="M457.81,55 C446.15,72.66 433.4154,91.9326 421.7054,109.6726" fill="none" id="PlataformaMusical-to-Usuario" style="stroke:#181818;stroke-width:1;"/><polygon fill="#181818" points="418.4,114.68,426.6964,109.3724,421.1545,110.5071,420.0198,104.9652,418.4,114.68" style="stroke:#181818;stroke-width:1;"/></g><!--link PlataformaMusical to Monetizacion--><g class="link" data-entity-1="PlataformaMusical" data-entity-2="Monetizacion" data-source-line="69" data-uid="lnk26" id="link_PlataformaMusical_Monetizacion"><path codeLine="69" d="M500.34,55 C521.33,72.66 545.5984,93.0777 566.6884,110.8177" fill="none" id="PlataformaMusical-to-Monetizacion" style="stroke:#181818;stroke-width:1;"/><polygon fill="#181818" points="571.28,114.68,566.9674,105.8255,567.4537,111.4614,561.8177,111.9477,571.28,114.68" style="stroke:#181818;stroke-width:1;"/></g><!--link Ranking to Cancion--><g class="link" data-entity-1="Ranking" data-entity-2="Cancion" data-source-line="70" data-uid="lnk27" id="link_Ranking_Cancion"><path codeLine="70" d="M855.4,271 C835.74,288.66 813.1737,308.9306 793.4237,326.6706" fill="none" id="Ranking-to-Cancion" style="stroke:#181818;stroke-width:1;"/><polygon fill="#181818" points="788.96,330.68,798.3285,327.6417,792.6797,327.3388,792.9826,321.6901,788.96,330.68" style="stroke:#181818;stroke-width:1;"/></g><!--link Monetizacion to Pago--><g class="link" data-entity-1="Monetizacion" data-entity-2="Pago" data-source-line="71" data-uid="lnk28" id="link_Monetizacion_Pago"><path codeLine="71" d="M611.37,163 C620.86,180.66 631.0782,199.6556 640.6182,217.3956" fill="none" id="Monetizacion-to-Pago" style="stroke:#181818;stroke-width:1;"/><polygon fill="#181818" points="643.46,222.68,642.7203,212.859,641.0919,218.2764,635.6745,216.648,643.46,222.68" style="stroke:#181818;stroke-width:1;"/></g><!--link Reproductor to Cancion--><g class="link" data-entity-1="Reproductor" data-entity-2="Cancion" data-source-line="73" data-uid="lnk29" id="link_Reproductor_Cancion"><path codeLine="73" d="M964.23,271 C917.14,290.42 856.1565,315.5717 812.6965,333.5017" fill="none" id="Reproductor-to-Cancion" style="stroke:#181818;stroke-width:1;stroke-dasharray:7,7;"/><polygon fill="#181818" points="807.15,335.79,816.9953,336.0552,811.7721,333.8831,813.9442,328.6599,807.15,335.79" style="stroke:#181818;stroke-width:1;"/></g><!--SRC=[TP512i8m44NtSuhk1A4UGH0NkYaKnGECCSfWJ4hIB5IykscRr8pLNNa_-JDz4GgTAzQe1HbTF05U0A9dAtyYmubjoRN8MAtmhWBb1zNHtnWvE8_sgovSRV5ix0qhxqYWOkdUEs6fcQoraLfQNhGDyuqbL3lPM7FoOdAfCbgszC19KEE5T-rGNqbVE8krOKZaiy1KtoPTqLWAzXfKqa4IEI_BGI2CWan0COP1K4wIe8xz_1-0fByibv-YZCNliQfZQJg3cTfnuOuFQc7wBbqO2_wakM183lD5sGlqcmNp0BdQnM8y_WO0]--></g></svg>