<svg xmlns="http://www.w3.org/2000/svg" xmlns:xlink="http://www.w3.org/1999/xlink" contentStyleType="text/css" data-diagram-type="CLASS" height="230px" preserveAspectRatio="none" style="width:475px;height:230px;background:#FFFFFF;" version="1.1" viewBox="0 0 475 230" width="475px" zoomAndPan="magnify"><defs/><g><!--class Contenido--><g class="entity" data-entity="Contenido" data-source-line="3" data-uid="ent0002" id="entity_Contenido"><rect fill="#F1F1F1" height="32" rx="2.5" ry="2.5" style="stroke:#181818;stroke-width:0.5;" width="103.5313" x="124" y="191"/><ellipse cx="139" cy="207" fill="#B4A7E5" rx="11" ry="11" style="stroke:#181818;stroke-width:1;"/><path d="M134.9219,202.7656 L134.9219,200.6094 L142.3125,200.6094 L142.3125,202.7656 L139.8438,202.7656 L139.8438,210.8438 L142.3125,210.8438 L142.3125,213 L134.9219,213 L134.9219,210.8438 L137.3906,210.8438 L137.3906,202.7656 L134.9219,202.7656 Z " fill="#000000"/><text fill="#000000" font-family="sans-serif" font-size="14" font-style="italic" lengthAdjust="spacing" textLength="71.5313" x="153" y="211.8467">Contenido</text></g><!--class Palabras--><g class="entity" data-entity="Palabras" data-source-line="4" data-uid="ent0003" id="entity_Palabras"><rect fill="#F1F1F1" height="32" rx="2.5" ry="2.5" style="stroke:#181818;stroke-width:0.5;" width="92.0059" x="7" y="99"/><ellipse cx="22" cy="115" fill="#ADD1B2" rx="11" ry="11" style="stroke:#181818;stroke-width:1;"/><path d="M24.9688,120.6406 Q24.3906,120.9375 23.75,121.0781 Q23.1094,121.2344 22.4063,121.2344 Q19.9063,121.2344 18.5781,119.5938 Q17.2656,117.9375 17.2656,114.8125 Q17.2656,111.6875 18.5781,110.0313 Q19.9063,108.375 22.4063,108.375 Q23.1094,108.375 23.75,108.5313 Q24.4063,108.6875 24.9688,108.9844 L24.9688,111.7031 Q24.3438,111.125 23.75,110.8594 Q23.1563,110.5781 22.5313,110.5781 Q21.1875,110.5781 20.5,111.6563 Q19.8125,112.7188 19.8125,114.8125 Q19.8125,116.9063 20.5,117.9844 Q21.1875,119.0469 22.5313,119.0469 Q23.1563,119.0469 23.75,118.7813 Q24.3438,118.5 24.9688,117.9219 L24.9688,120.6406 Z " fill="#000000"/><text fill="#000000" font-family="sans-serif" font-size="14" lengthAdjust="spacing" textLength="60.0059" x="36" y="119.8467">Palabras</text></g><!--class Silencio--><g class="entity" data-entity="Silencio" data-source-line="5" data-uid="ent0004" id="entity_Silencio"><rect fill="#F1F1F1" height="32" rx="2.5" ry="2.5" style="stroke:#181818;stroke-width:0.5;" width="86.3047" x="134" y="99"/><ellipse cx="149" cy="115" fill="#ADD1B2" rx="11" ry="11" style="stroke:#181818;stroke-width:1;"/><path d="M151.9688,120.6406 Q151.3906,120.9375 150.75,121.0781 Q150.1094,121.2344 149.4063,121.2344 Q146.9063,121.2344 145.5781,119.5938 Q144.2656,117.9375 144.2656,114.8125 Q144.2656,111.6875 145.5781,110.0313 Q146.9063,108.375 149.4063,108.375 Q150.1094,108.375 150.75,108.5313 Q151.4063,108.6875 151.9688,108.9844 L151.9688,111.7031 Q151.3438,111.125 150.75,110.8594 Q150.1563,110.5781 149.5313,110.5781 Q148.1875,110.5781 147.5,111.6563 Q146.8125,112.7188 146.8125,114.8125 Q146.8125,116.9063 147.5,117.9844 Q148.1875,119.0469 149.5313,119.0469 Q150.1563,119.0469 150.75,118.7813 Q151.3438,118.5 151.9688,117.9219 L151.9688,120.6406 Z " fill="#000000"/><text fill="#000000" font-family="sans-serif" font-size="14" lengthAdjust="spacing" textLength="54.3047" x="163" y="119.8467">Silencio</text></g><!--class Medio--><g class="entity" data-entity="Medio" data-source-line="6" data-uid="ent0005" id="entity_Medio"><rect fill="#F1F1F1" height="32" rx="2.5" ry="2.5" style="stroke:#181818;stroke-width:0.5;" width="74.0342" x="263" y="191"/><ellipse cx="278" cy="207" fill="#ADD1B2" rx="11" ry="11" style="stroke:#181818;stroke-width:1;"/><path d="M280.9688,212.6406 Q280.3906,212.9375 279.75,213.0781 Q279.1094,213.2344 278.4063,213.2344 Q275.9063,213.2344 274.5781,211.5938 Q273.2656,209.9375 273.2656,206.8125 Q273.2656,203.6875 274.5781,202.0313 Q275.9063,200.375 278.4063,200.375 Q279.1094,200.375 279.75,200.5313 Q280.4063,200.6875 280.9688,200.9844 L280.9688,203.7031 Q280.3438,203.125 279.75,202.8594 Q279.1563,202.5781 278.5313,202.5781 Q277.1875,202.5781 276.5,203.6563 Q275.8125,204.7188 275.8125,206.8125 Q275.8125,208.9063 276.5,209.9844 Q277.1875,211.0469 278.5313,211.0469 Q279.1563,211.0469 279.75,210.7813 Q280.3438,210.5 280.9688,209.9219 L280.9688,212.6406 Z " fill="#000000"/><text fill="#000000" font-family="sans-serif" font-size="14" lengthAdjust="spacing" textLength="42.0342" x="292" y="211.8467">Medio</text></g><!--class Mensaje--><g class="entity" data-entity="Mensaje" data-source-line="7" data-uid="ent0006" id="entity_Mensaje"><rect fill="#F1F1F1" height="32" rx="2.5" ry="2.5" style="stroke:#181818;stroke-width:0.5;" width="89.9414" x="255" y="99"/><ellipse cx="270" cy="115" fill="#ADD1B2" rx="11" ry="11" style="stroke:#181818;stroke-width:1;"/><path d="M272.9688,120.6406 Q272.3906,120.9375 271.75,121.0781 Q271.1094,121.2344 270.4063,121.2344 Q267.9063,121.2344 266.5781,119.5938 Q265.2656,117.9375 265.2656,114.8125 Q265.2656,111.6875 266.5781,110.0313 Q267.9063,108.375 270.4063,108.375 Q271.1094,108.375 271.75,108.5313 Q272.4063,108.6875 272.9688,108.9844 L272.9688,111.7031 Q272.3438,111.125 271.75,110.8594 Q271.1563,110.5781 270.5313,110.5781 Q269.1875,110.5781 268.5,111.6563 Q267.8125,112.7188 267.8125,114.8125 Q267.8125,116.9063 268.5,117.9844 Q269.1875,119.0469 270.5313,119.0469 Q271.1563,119.0469 271.75,118.7813 Q272.3438,118.5 272.9688,117.9219 L272.9688,120.6406 Z " fill="#000000"/><text fill="#000000" font-family="sans-serif" font-size="14" lengthAdjust="spacing" textLength="57.9414" x="284" y="119.8467">Mensaje</text></g><!--class Persona--><g class="entity" data-entity="Persona" data-source-line="8" data-uid="ent0007" id="entity_Persona"><rect fill="#F1F1F1" height="32" rx="2.5" ry="2.5" style="stroke:#181818;stroke-width:0.5;" width="88.123" x="380" y="99"/><ellipse cx="395" cy="115" fill="#ADD1B2" rx="11" ry="11" style="stroke:#181818;stroke-width:1;"/><path d="M397.9688,120.6406 Q397.3906,120.9375 396.75,121.0781 Q396.1094,121.2344 395.4063,121.2344 Q392.9063,121.2344 391.5781,119.5938 Q390.2656,117.9375 390.2656,114.8125 Q390.2656,111.6875 391.5781,110.0313 Q392.9063,108.375 395.4063,108.375 Q396.1094,108.375 396.75,108.5313 Q397.4063,108.6875 397.9688,108.9844 L397.9688,111.7031 Q397.3438,111.125 396.75,110.8594 Q396.1563,110.5781 395.5313,110.5781 Q394.1875,110.5781 393.5,111.6563 Q392.8125,112.7188 392.8125,114.8125 Q392.8125,116.9063 393.5,117.9844 Q394.1875,119.0469 395.5313,119.0469 Q396.1563,119.0469 396.75,118.7813 Q397.3438,118.5 397.9688,117.9219 L397.9688,120.6406 Z " fill="#000000"/><text fill="#000000" font-family="sans-serif" font-size="14" lengthAdjust="spacing" textLength="56.123" x="409" y="119.8467">Persona</text></g><!--class Conversacion--><g class="entity" data-entity="Conversacion" data-source-line="9" data-uid="ent0008" id="entity_Conversacion"><rect fill="#F1F1F1" height="32" rx="2.5" ry="2.5" style="stroke:#181818;stroke-width:0.5;" width="126.7666" x="298.5" y="7"/><ellipse cx="313.5" cy="23" fill="#ADD1B2" rx="11" ry="11" style="stroke:#181818;stroke-width:1;"/><path d="M316.4688,28.6406 Q315.8906,28.9375 315.25,29.0781 Q314.6094,29.2344 313.9063,29.2344 Q311.4063,29.2344 310.0781,27.5938 Q308.7656,25.9375 308.7656,22.8125 Q308.7656,19.6875 310.0781,18.0313 Q311.4063,16.375 313.9063,16.375 Q314.6094,16.375 315.25,16.5313 Q315.9063,16.6875 316.4688,16.9844 L316.4688,19.7031 Q315.8438,19.125 315.25,18.8594 Q314.6563,18.5781 314.0313,18.5781 Q312.6875,18.5781 312,19.6563 Q311.3125,20.7188 311.3125,22.8125 Q311.3125,24.9063 312,25.9844 Q312.6875,27.0469 314.0313,27.0469 Q314.6563,27.0469 315.25,26.7813 Q315.8438,26.5 316.4688,25.9219 L316.4688,28.6406 Z " fill="#000000"/><text fill="#000000" font-family="sans-serif" font-size="14" lengthAdjust="spacing" textLength="94.7666" x="327.5" y="27.8467">Conversacion</text></g><!--class Idioma--><g class="entity" data-entity="Idioma" data-source-line="10" data-uid="ent0009" id="entity_Idioma"><rect fill="#F1F1F1" height="32" rx="2.5" ry="2.5" style="stroke:#181818;stroke-width:0.5;" width="79.6875" x="384" y="191"/><ellipse cx="399" cy="207" fill="#ADD1B2" rx="11" ry="11" style="stroke:#181818;stroke-width:1;"/><path d="M401.9688,212.6406 Q401.3906,212.9375 400.75,213.0781 Q400.1094,213.2344 399.4063,213.2344 Q396.9063,213.2344 395.5781,211.5938 Q394.2656,209.9375 394.2656,206.8125 Q394.2656,203.6875 395.5781,202.0313 Q396.9063,200.375 399.4063,200.375 Q400.1094,200.375 400.75,200.5313 Q401.4063,200.6875 401.9688,200.9844 L401.9688,203.7031 Q401.3438,203.125 400.75,202.8594 Q400.1563,202.5781 399.5313,202.5781 Q398.1875,202.5781 397.5,203.6563 Q396.8125,204.7188 396.8125,206.8125 Q396.8125,208.9063 397.5,209.9844 Q398.1875,211.0469 399.5313,211.0469 Q400.1563,211.0469 400.75,210.7813 Q401.3438,210.5 401.9688,209.9219 L401.9688,212.6406 Z " fill="#000000"/><text fill="#000000" font-family="sans-serif" font-size="14" lengthAdjust="spacing" textLength="47.6875" x="413" y="211.8467">Idioma</text></g><!--link Palabras to Contenido--><g class="link" data-entity-1="Palabras" data-entity-2="Contenido" data-source-line="12" data-uid="lnk10" id="link_Palabras_Contenido"><path codeLine="12" d="M73.59,131.06 C96.29,147.68 118.0838,163.6204 140.8238,180.2604" fill="none" id="Palabras-to-Contenido" style="stroke:#181818;stroke-width:1;stroke-dasharray:7,7;"/><polygon fill="none" points="155.35,190.89,144.3669,175.4183,137.2806,185.1025,155.35,190.89" style="stroke:#181818;stroke-width:1;"/></g><!--link Silencio to Contenido--><g class="link" data-entity-1="Silencio" data-entity-2="Contenido" data-source-line="13" data-uid="lnk11" id="link_Silencio_Contenido"><path codeLine="13" d="M176.83,131.27 C176.65,147.92 176.5456,156.4011 176.3656,172.9611" fill="none" id="Silencio-to-Contenido" style="stroke:#181818;stroke-width:1;stroke-dasharray:7,7;"/><polygon fill="none" points="176.17,190.96,182.3653,173.0263,170.366,172.8958,176.17,190.96" style="stroke:#181818;stroke-width:1;"/></g><!--reverse link Conversacion to Persona--><g class="link" data-entity-1="Conversacion" data-entity-2="Persona" data-source-line="15" data-uid="lnk12" id="link_Conversacion_Persona"><path codeLine="15" d="M379.3277,49.1521 C390.7977,65.8021 402.23,82.4 413.64,98.96" fill="none" id="Conversacion-backto-Persona" style="stroke:#181818;stroke-width:1;"/><polygon fill="none" points="372.52,39.27,372.6298,46.4803,379.3277,49.1521,379.2179,41.9418,372.52,39.27" style="stroke:#181818;stroke-width:1;"/></g><!--reverse link Conversacion to Mensaje--><g class="link" data-entity-1="Conversacion" data-entity-2="Mensaje" data-source-line="16" data-uid="lnk13" id="link_Conversacion_Mensaje"><path codeLine="16" d="M344.6723,49.1521 C333.2023,65.8021 321.77,82.4 310.36,98.96" fill="none" id="Conversacion-backto-Mensaje" style="stroke:#181818;stroke-width:1;"/><polygon fill="#181818" points="351.48,39.27,344.7821,41.9418,344.6723,49.1521,351.3702,46.4803,351.48,39.27" style="stroke:#181818;stroke-width:1;"/></g><!--reverse link Mensaje to Contenido--><g class="link" data-entity-1="Mensaje" data-entity-2="Contenido" data-source-line="17" data-uid="lnk14" id="link_Mensaje_Contenido"><path codeLine="17" d="M269.5397,138.1105 C246.6497,154.7305 219.74,174.25 196.82,190.89" fill="none" id="Mensaje-backto-Contenido" style="stroke:#181818;stroke-width:1;"/><polygon fill="#181818" points="279.25,131.06,272.0447,131.3485,269.5397,138.1105,276.745,137.822,279.25,131.06" style="stroke:#181818;stroke-width:1;"/></g><!--link Mensaje to Medio--><g class="link" data-entity-1="Mensaje" data-entity-2="Medio" data-source-line="18" data-uid="lnk15" id="link_Mensaje_Medio"><path codeLine="18" d="M300,131.27 C300,147.92 300,168.4 300,184.96" fill="none" id="Mensaje-to-Medio" style="stroke:#181818;stroke-width:1;"/><polygon fill="#181818" points="300,190.96,304,181.96,300,185.96,296,181.96,300,190.96" style="stroke:#181818;stroke-width:1;"/></g><!--link Persona to Idioma--><g class="link" data-entity-1="Persona" data-entity-2="Idioma" data-source-line="20" data-uid="lnk16" id="link_Persona_Idioma"><path codeLine="20" d="M424,131.27 C424,147.92 424,168.4 424,184.96" fill="none" id="Persona-to-Idioma" style="stroke:#181818;stroke-width:1;stroke-dasharray:7,7;"/><polygon fill="#181818" points="424,190.96,428,181.96,424,185.96,420,181.96,424,190.96" style="stroke:#181818;stroke-width:1;"/></g><!--SRC=[NOz12W8n34NtEKNNGkS8tRXo8GYU8DD6hBGfjEBAmnkOPAokchpF_p-zvqIkKbsf3u3CJ-etZEIEJKREgK4iE8QxOC6ruz3rcWjnpAQUAKqp3toG-IItCUecgIy1A4vMT19dHG0hSClo3bEzDVrpcBDSytwl-X4E8kmdwRl1RvHXxuF-13HBIeDU-040]--></g></svg>