<svg xmlns="http://www.w3.org/2000/svg" xmlns:xlink="http://www.w3.org/1999/xlink" contentStyleType="text/css" data-diagram-type="CLASS" height="812px" preserveAspectRatio="none" style="width:771px;height:812px;background:#FFFFFF;" version="1.1" viewBox="0 0 771 812" width="771px" zoomAndPan="magnify"><defs/><g><!--class Artista--><g class="entity" data-entity="Artista" data-source-line="2" data-uid="ent0002" id="entity_Artista"><rect fill="#F1F1F1" height="48" rx="2.5" ry="2.5" style="stroke:#181818;stroke-width:0.5;" width="78.0742" x="562.5" y="132"/><ellipse cx="577.5" cy="148" fill="#ADD1B2" rx="11" ry="11" style="stroke:#181818;stroke-width:1;"/><path d="M580.4688,153.6406 Q579.8906,153.9375 579.25,154.0781 Q578.6094,154.2344 577.9063,154.2344 Q575.4063,154.2344 574.0781,152.5938 Q572.7656,150.9375 572.7656,147.8125 Q572.7656,144.6875 574.0781,143.0313 Q575.4063,141.375 577.9063,141.375 Q578.6094,141.375 579.25,141.5313 Q579.9063,141.6875 580.4688,141.9844 L580.4688,144.7031 Q579.8438,144.125 579.25,143.8594 Q578.6563,143.5781 578.0313,143.5781 Q576.6875,143.5781 576,144.6563 Q575.3125,145.7188 575.3125,147.8125 Q575.3125,149.9063 576,150.9844 Q576.6875,152.0469 578.0313,152.0469 Q578.6563,152.0469 579.25,151.7813 Q579.8438,151.5 580.4688,150.9219 L580.4688,153.6406 Z " fill="#000000"/><text fill="#000000" font-family="sans-serif" font-size="14" lengthAdjust="spacing" textLength="46.0742" x="591.5" y="152.8467">Artista</text><line style="stroke:#181818;stroke-width:0.5;" x1="563.5" x2="639.5742" y1="164" y2="164"/><line style="stroke:#181818;stroke-width:0.5;" x1="563.5" x2="639.5742" y1="172" y2="172"/></g><!--class Album--><g class="entity" data-entity="Album" data-source-line="3" data-uid="ent0003" id="entity_Album"><rect fill="#F1F1F1" height="48" rx="2.5" ry="2.5" style="stroke:#181818;stroke-width:0.5;" width="76.8643" x="617" y="257"/><ellipse cx="632" cy="273" fill="#ADD1B2" rx="11" ry="11" style="stroke:#181818;stroke-width:1;"/><path d="M634.9688,278.6406 Q634.3906,278.9375 633.75,279.0781 Q633.1094,279.2344 632.4063,279.2344 Q629.9063,279.2344 628.5781,277.5938 Q627.2656,275.9375 627.2656,272.8125 Q627.2656,269.6875 628.5781,268.0313 Q629.9063,266.375 632.4063,266.375 Q633.1094,266.375 633.75,266.5313 Q634.4063,266.6875 634.9688,266.9844 L634.9688,269.7031 Q634.3438,269.125 633.75,268.8594 Q633.1563,268.5781 632.5313,268.5781 Q631.1875,268.5781 630.5,269.6563 Q629.8125,270.7188 629.8125,272.8125 Q629.8125,274.9063 630.5,275.9844 Q631.1875,277.0469 632.5313,277.0469 Q633.1563,277.0469 633.75,276.7813 Q634.3438,276.5 634.9688,275.9219 L634.9688,278.6406 Z " fill="#000000"/><text fill="#000000" font-family="sans-serif" font-size="14" lengthAdjust="spacing" textLength="44.8643" x="646" y="277.8467">Album</text><line style="stroke:#181818;stroke-width:0.5;" x1="618" x2="692.8643" y1="289" y2="289"/><line style="stroke:#181818;stroke-width:0.5;" x1="618" x2="692.8643" y1="297" y2="297"/></g><!--class Cancion--><g class="entity" data-entity="Cancion" data-source-line="4" data-uid="ent0004" id="entity_Cancion"><rect fill="#F1F1F1" height="48" rx="2.5" ry="2.5" style="stroke:#181818;stroke-width:0.5;" width="88.2529" x="407.5" y="382"/><ellipse cx="422.5" cy="398" fill="#ADD1B2" rx="11" ry="11" style="stroke:#181818;stroke-width:1;"/><path d="M425.4688,403.6406 Q424.8906,403.9375 424.25,404.0781 Q423.6094,404.2344 422.9063,404.2344 Q420.4063,404.2344 419.0781,402.5938 Q417.7656,400.9375 417.7656,397.8125 Q417.7656,394.6875 419.0781,393.0313 Q420.4063,391.375 422.9063,391.375 Q423.6094,391.375 424.25,391.5313 Q424.9063,391.6875 425.4688,391.9844 L425.4688,394.7031 Q424.8438,394.125 424.25,393.8594 Q423.6563,393.5781 423.0313,393.5781 Q421.6875,393.5781 421,394.6563 Q420.3125,395.7188 420.3125,397.8125 Q420.3125,399.9063 421,400.9844 Q421.6875,402.0469 423.0313,402.0469 Q423.6563,402.0469 424.25,401.7813 Q424.8438,401.5 425.4688,400.9219 L425.4688,403.6406 Z " fill="#000000"/><text fill="#000000" font-family="sans-serif" font-size="14" lengthAdjust="spacing" textLength="56.2529" x="436.5" y="402.8467">Cancion</text><line style="stroke:#181818;stroke-width:0.5;" x1="408.5" x2="494.7529" y1="414" y2="414"/><line style="stroke:#181818;stroke-width:0.5;" x1="408.5" x2="494.7529" y1="422" y2="422"/></g><!--class Letra--><g class="entity" data-entity="Letra" data-source-line="5" data-uid="ent0005" id="entity_Letra"><rect fill="#F1F1F1" height="48" rx="2.5" ry="2.5" style="stroke:#181818;stroke-width:0.5;" width="68.2373" x="537.5" y="507"/><ellipse cx="552.5" cy="523" fill="#ADD1B2" rx="11" ry="11" style="stroke:#181818;stroke-width:1;"/><path d="M555.4688,528.6406 Q554.8906,528.9375 554.25,529.0781 Q553.6094,529.2344 552.9063,529.2344 Q550.4063,529.2344 549.0781,527.5938 Q547.7656,525.9375 547.7656,522.8125 Q547.7656,519.6875 549.0781,518.0313 Q550.4063,516.375 552.9063,516.375 Q553.6094,516.375 554.25,516.5313 Q554.9063,516.6875 555.4688,516.9844 L555.4688,519.7031 Q554.8438,519.125 554.25,518.8594 Q553.6563,518.5781 553.0313,518.5781 Q551.6875,518.5781 551,519.6563 Q550.3125,520.7188 550.3125,522.8125 Q550.3125,524.9063 551,525.9844 Q551.6875,527.0469 553.0313,527.0469 Q553.6563,527.0469 554.25,526.7813 Q554.8438,526.5 555.4688,525.9219 L555.4688,528.6406 Z " fill="#000000"/><text fill="#000000" font-family="sans-serif" font-size="14" lengthAdjust="spacing" textLength="36.2373" x="566.5" y="527.8467">Letra</text><line style="stroke:#181818;stroke-width:0.5;" x1="538.5" x2="604.7373" y1="539" y2="539"/><line style="stroke:#181818;stroke-width:0.5;" x1="538.5" x2="604.7373" y1="547" y2="547"/></g><!--class Genero--><g class="entity" data-entity="Genero" data-source-line="6" data-uid="ent0006" id="entity_Genero"><rect fill="#F1F1F1" height="48" rx="2.5" ry="2.5" style="stroke:#181818;stroke-width:0.5;" width="83.2695" x="137" y="507"/><ellipse cx="152" cy="523" fill="#ADD1B2" rx="11" ry="11" style="stroke:#181818;stroke-width:1;"/><path d="M154.9688,528.6406 Q154.3906,528.9375 153.75,529.0781 Q153.1094,529.2344 152.4063,529.2344 Q149.9063,529.2344 148.5781,527.5938 Q147.2656,525.9375 147.2656,522.8125 Q147.2656,519.6875 148.5781,518.0313 Q149.9063,516.375 152.4063,516.375 Q153.1094,516.375 153.75,516.5313 Q154.4063,516.6875 154.9688,516.9844 L154.9688,519.7031 Q154.3438,519.125 153.75,518.8594 Q153.1563,518.5781 152.5313,518.5781 Q151.1875,518.5781 150.5,519.6563 Q149.8125,520.7188 149.8125,522.8125 Q149.8125,524.9063 150.5,525.9844 Q151.1875,527.0469 152.5313,527.0469 Q153.1563,527.0469 153.75,526.7813 Q154.3438,526.5 154.9688,525.9219 L154.9688,528.6406 Z " fill="#000000"/><text fill="#000000" font-family="sans-serif" font-size="14" lengthAdjust="spacing" textLength="51.2695" x="166" y="527.8467">Genero</text><line style="stroke:#181818;stroke-width:0.5;" x1="138" x2="219.2695" y1="539" y2="539"/><line style="stroke:#181818;stroke-width:0.5;" x1="138" x2="219.2695" y1="547" y2="547"/></g><!--class Playlist--><g class="entity" data-entity="Playlist" data-source-line="7" data-uid="ent0007" id="entity_Playlist"><rect fill="#F1F1F1" height="48" rx="2.5" ry="2.5" style="stroke:#181818;stroke-width:0.5;" width="81.7588" x="302.5" y="257"/><ellipse cx="317.5" cy="273" fill="#ADD1B2" rx="11" ry="11" style="stroke:#181818;stroke-width:1;"/><path d="M320.4688,278.6406 Q319.8906,278.9375 319.25,279.0781 Q318.6094,279.2344 317.9063,279.2344 Q315.4063,279.2344 314.0781,277.5938 Q312.7656,275.9375 312.7656,272.8125 Q312.7656,269.6875 314.0781,268.0313 Q315.4063,266.375 317.9063,266.375 Q318.6094,266.375 319.25,266.5313 Q319.9063,266.6875 320.4688,266.9844 L320.4688,269.7031 Q319.8438,269.125 319.25,268.8594 Q318.6563,268.5781 318.0313,268.5781 Q316.6875,268.5781 316,269.6563 Q315.3125,270.7188 315.3125,272.8125 Q315.3125,274.9063 316,275.9844 Q316.6875,277.0469 318.0313,277.0469 Q318.6563,277.0469 319.25,276.7813 Q319.8438,276.5 320.4688,275.9219 L320.4688,278.6406 Z " fill="#000000"/><text fill="#000000" font-family="sans-serif" font-size="14" lengthAdjust="spacing" textLength="49.7588" x="331.5" y="277.8467">Playlist</text><line style="stroke:#181818;stroke-width:0.5;" x1="303.5" x2="383.2588" y1="289" y2="289"/><line style="stroke:#181818;stroke-width:0.5;" x1="303.5" x2="383.2588" y1="297" y2="297"/></g><!--class Usuario--><g class="entity" data-entity="Usuario" data-source-line="8" data-uid="ent0008" id="entity_Usuario"><rect fill="#F1F1F1" height="48" rx="2.5" ry="2.5" style="stroke:#181818;stroke-width:0.5;" width="85.2041" x="175" y="7"/><ellipse cx="190" cy="23" fill="#ADD1B2" rx="11" ry="11" style="stroke:#181818;stroke-width:1;"/><path d="M192.9688,28.6406 Q192.3906,28.9375 191.75,29.0781 Q191.1094,29.2344 190.4063,29.2344 Q187.9063,29.2344 186.5781,27.5938 Q185.2656,25.9375 185.2656,22.8125 Q185.2656,19.6875 186.5781,18.0313 Q187.9063,16.375 190.4063,16.375 Q191.1094,16.375 191.75,16.5313 Q192.4063,16.6875 192.9688,16.9844 L192.9688,19.7031 Q192.3438,19.125 191.75,18.8594 Q191.1563,18.5781 190.5313,18.5781 Q189.1875,18.5781 188.5,19.6563 Q187.8125,20.7188 187.8125,22.8125 Q187.8125,24.9063 188.5,25.9844 Q189.1875,27.0469 190.5313,27.0469 Q191.1563,27.0469 191.75,26.7813 Q192.3438,26.5 192.9688,25.9219 L192.9688,28.6406 Z " fill="#000000"/><text fill="#000000" font-family="sans-serif" font-size="14" lengthAdjust="spacing" textLength="53.2041" x="204" y="27.8467">Usuario</text><line style="stroke:#181818;stroke-width:0.5;" x1="176" x2="259.2041" y1="39" y2="39"/><line style="stroke:#181818;stroke-width:0.5;" x1="176" x2="259.2041" y1="47" y2="47"/></g><!--class Suscripcion--><g class="entity" data-entity="Suscripcion" data-source-line="9" data-uid="ent0009" id="entity_Suscripcion"><rect fill="#F1F1F1" height="48" rx="2.5" ry="2.5" style="stroke:#181818;stroke-width:0.5;" width="112.3086" x="161.5" y="132"/><ellipse cx="176.5" cy="148" fill="#ADD1B2" rx="11" ry="11" style="stroke:#181818;stroke-width:1;"/><path d="M179.4688,153.6406 Q178.8906,153.9375 178.25,154.0781 Q177.6094,154.2344 176.9063,154.2344 Q174.4063,154.2344 173.0781,152.5938 Q171.7656,150.9375 171.7656,147.8125 Q171.7656,144.6875 173.0781,143.0313 Q174.4063,141.375 176.9063,141.375 Q177.6094,141.375 178.25,141.5313 Q178.9063,141.6875 179.4688,141.9844 L179.4688,144.7031 Q178.8438,144.125 178.25,143.8594 Q177.6563,143.5781 177.0313,143.5781 Q175.6875,143.5781 175,144.6563 Q174.3125,145.7188 174.3125,147.8125 Q174.3125,149.9063 175,150.9844 Q175.6875,152.0469 177.0313,152.0469 Q177.6563,152.0469 178.25,151.7813 Q178.8438,151.5 179.4688,150.9219 L179.4688,153.6406 Z " fill="#000000"/><text fill="#000000" font-family="sans-serif" font-size="14" lengthAdjust="spacing" textLength="80.3086" x="190.5" y="152.8467">Suscripcion</text><line style="stroke:#181818;stroke-width:0.5;" x1="162.5" x2="272.8086" y1="164" y2="164"/><line style="stroke:#181818;stroke-width:0.5;" x1="162.5" x2="272.8086" y1="172" y2="172"/></g><!--class Reproductor--><g class="entity" data-entity="Reproductor" data-source-line="10" data-uid="ent0010" id="entity_Reproductor"><rect fill="#F1F1F1" height="48" rx="2.5" ry="2.5" style="stroke:#181818;stroke-width:0.5;" width="118.8164" x="7" y="132"/><ellipse cx="22" cy="148" fill="#ADD1B2" rx="11" ry="11" style="stroke:#181818;stroke-width:1;"/><path d="M24.9688,153.6406 Q24.3906,153.9375 23.75,154.0781 Q23.1094,154.2344 22.4063,154.2344 Q19.9063,154.2344 18.5781,152.5938 Q17.2656,150.9375 17.2656,147.8125 Q17.2656,144.6875 18.5781,143.0313 Q19.9063,141.375 22.4063,141.375 Q23.1094,141.375 23.75,141.5313 Q24.4063,141.6875 24.9688,141.9844 L24.9688,144.7031 Q24.3438,144.125 23.75,143.8594 Q23.1563,143.5781 22.5313,143.5781 Q21.1875,143.5781 20.5,144.6563 Q19.8125,145.7188 19.8125,147.8125 Q19.8125,149.9063 20.5,150.9844 Q21.1875,152.0469 22.5313,152.0469 Q23.1563,152.0469 23.75,151.7813 Q24.3438,151.5 24.9688,150.9219 L24.9688,153.6406 Z " fill="#000000"/><text fill="#000000" font-family="sans-serif" font-size="14" lengthAdjust="spacing" textLength="86.8164" x="36" y="152.8467">Reproductor</text><line style="stroke:#181818;stroke-width:0.5;" x1="8" x2="124.8164" y1="164" y2="164"/><line style="stroke:#181818;stroke-width:0.5;" x1="8" x2="124.8164" y1="172" y2="172"/></g><!--class Productor--><g class="entity" data-entity="Productor" data-source-line="13" data-uid="ent0011" id="entity_Productor"><rect fill="#F1F1F1" height="48" rx="2.5" ry="2.5" style="stroke:#181818;stroke-width:0.5;" width="100.0313" x="461.5" y="7"/><ellipse cx="476.5" cy="23" fill="#ADD1B2" rx="11" ry="11" style="stroke:#181818;stroke-width:1;"/><path d="M479.4688,28.6406 Q478.8906,28.9375 478.25,29.0781 Q477.6094,29.2344 476.9063,29.2344 Q474.4063,29.2344 473.0781,27.5938 Q471.7656,25.9375 471.7656,22.8125 Q471.7656,19.6875 473.0781,18.0313 Q474.4063,16.375 476.9063,16.375 Q477.6094,16.375 478.25,16.5313 Q478.9063,16.6875 479.4688,16.9844 L479.4688,19.7031 Q478.8438,19.125 478.25,18.8594 Q477.6563,18.5781 477.0313,18.5781 Q475.6875,18.5781 475,19.6563 Q474.3125,20.7188 474.3125,22.8125 Q474.3125,24.9063 475,25.9844 Q475.6875,27.0469 477.0313,27.0469 Q477.6563,27.0469 478.25,26.7813 Q478.8438,26.5 479.4688,25.9219 L479.4688,28.6406 Z " fill="#000000"/><text fill="#000000" font-family="sans-serif" font-size="14" lengthAdjust="spacing" textLength="68.0313" x="490.5" y="27.8467">Productor</text><line style="stroke:#181818;stroke-width:0.5;" x1="462.5" x2="560.5313" y1="39" y2="39"/><line style="stroke:#181818;stroke-width:0.5;" x1="462.5" x2="560.5313" y1="47" y2="47"/></g><!--class Estudio--><g class="entity" data-entity="Estudio" data-source-line="14" data-uid="ent0012" id="entity_Estudio"><rect fill="#F1F1F1" height="48" rx="2.5" ry="2.5" style="stroke:#181818;stroke-width:0.5;" width="83.8438" x="673.5" y="507"/><ellipse cx="688.5" cy="523" fill="#ADD1B2" rx="11" ry="11" style="stroke:#181818;stroke-width:1;"/><path d="M691.4688,528.6406 Q690.8906,528.9375 690.25,529.0781 Q689.6094,529.2344 688.9063,529.2344 Q686.4063,529.2344 685.0781,527.5938 Q683.7656,525.9375 683.7656,522.8125 Q683.7656,519.6875 685.0781,518.0313 Q686.4063,516.375 688.9063,516.375 Q689.6094,516.375 690.25,516.5313 Q690.9063,516.6875 691.4688,516.9844 L691.4688,519.7031 Q690.8438,519.125 690.25,518.8594 Q689.6563,518.5781 689.0313,518.5781 Q687.6875,518.5781 687,519.6563 Q686.3125,520.7188 686.3125,522.8125 Q686.3125,524.9063 687,525.9844 Q687.6875,527.0469 689.0313,527.0469 Q689.6563,527.0469 690.25,526.7813 Q690.8438,526.5 691.4688,525.9219 L691.4688,528.6406 Z " fill="#000000"/><text fill="#000000" font-family="sans-serif" font-size="14" lengthAdjust="spacing" textLength="51.8438" x="702.5" y="527.8467">Estudio</text><line style="stroke:#181818;stroke-width:0.5;" x1="674.5" x2="756.3438" y1="539" y2="539"/><line style="stroke:#181818;stroke-width:0.5;" x1="674.5" x2="756.3438" y1="547" y2="547"/></g><!--class Instrumento--><g class="entity" data-entity="Instrumento" data-source-line="15" data-uid="ent0013" id="entity_Instrumento"><rect fill="#F1F1F1" height="48" rx="2.5" ry="2.5" style="stroke:#181818;stroke-width:0.5;" width="117.5928" x="255.5" y="507"/><ellipse cx="270.5" cy="523" fill="#ADD1B2" rx="11" ry="11" style="stroke:#181818;stroke-width:1;"/><path d="M273.4688,528.6406 Q272.8906,528.9375 272.25,529.0781 Q271.6094,529.2344 270.9063,529.2344 Q268.4063,529.2344 267.0781,527.5938 Q265.7656,525.9375 265.7656,522.8125 Q265.7656,519.6875 267.0781,518.0313 Q268.4063,516.375 270.9063,516.375 Q271.6094,516.375 272.25,516.5313 Q272.9063,516.6875 273.4688,516.9844 L273.4688,519.7031 Q272.8438,519.125 272.25,518.8594 Q271.6563,518.5781 271.0313,518.5781 Q269.6875,518.5781 269,519.6563 Q268.3125,520.7188 268.3125,522.8125 Q268.3125,524.9063 269,525.9844 Q269.6875,527.0469 271.0313,527.0469 Q271.6563,527.0469 272.25,526.7813 Q272.8438,526.5 273.4688,525.9219 L273.4688,528.6406 Z " fill="#000000"/><text fill="#000000" font-family="sans-serif" font-size="14" lengthAdjust="spacing" textLength="85.5928" x="284.5" y="527.8467">Instrumento</text><line style="stroke:#181818;stroke-width:0.5;" x1="256.5" x2="372.0928" y1="539" y2="539"/><line style="stroke:#181818;stroke-width:0.5;" x1="256.5" x2="372.0928" y1="547" y2="547"/></g><!--class Partitura--><g class="entity" data-entity="Partitura" data-source-line="16" data-uid="ent0014" id="entity_Partitura"><rect fill="#F1F1F1" height="48" rx="2.5" ry="2.5" style="stroke:#181818;stroke-width:0.5;" width="92.8535" x="409" y="507"/><ellipse cx="424" cy="523" fill="#ADD1B2" rx="11" ry="11" style="stroke:#181818;stroke-width:1;"/><path d="M426.9688,528.6406 Q426.3906,528.9375 425.75,529.0781 Q425.1094,529.2344 424.4063,529.2344 Q421.9063,529.2344 420.5781,527.5938 Q419.2656,525.9375 419.2656,522.8125 Q419.2656,519.6875 420.5781,518.0313 Q421.9063,516.375 424.4063,516.375 Q425.1094,516.375 425.75,516.5313 Q426.4063,516.6875 426.9688,516.9844 L426.9688,519.7031 Q426.3438,519.125 425.75,518.8594 Q425.1563,518.5781 424.5313,518.5781 Q423.1875,518.5781 422.5,519.6563 Q421.8125,520.7188 421.8125,522.8125 Q421.8125,524.9063 422.5,525.9844 Q423.1875,527.0469 424.5313,527.0469 Q425.1563,527.0469 425.75,526.7813 Q426.3438,526.5 426.9688,525.9219 L426.9688,528.6406 Z " fill="#000000"/><text fill="#000000" font-family="sans-serif" font-size="14" lengthAdjust="spacing" textLength="60.8535" x="438" y="527.8467">Partitura</text><line style="stroke:#181818;stroke-width:0.5;" x1="410" x2="500.8535" y1="539" y2="539"/><line style="stroke:#181818;stroke-width:0.5;" x1="410" x2="500.8535" y1="547" y2="547"/></g><!--class Nota--><g class="entity" data-entity="Nota" data-source-line="17" data-uid="ent0015" id="entity_Nota"><rect fill="#F1F1F1" height="48" rx="2.5" ry="2.5" style="stroke:#181818;stroke-width:0.5;" width="65.1064" x="318" y="757"/><ellipse cx="333" cy="773" fill="#ADD1B2" rx="11" ry="11" style="stroke:#181818;stroke-width:1;"/><path d="M335.9688,778.6406 Q335.3906,778.9375 334.75,779.0781 Q334.1094,779.2344 333.4063,779.2344 Q330.9063,779.2344 329.5781,777.5938 Q328.2656,775.9375 328.2656,772.8125 Q328.2656,769.6875 329.5781,768.0313 Q330.9063,766.375 333.4063,766.375 Q334.1094,766.375 334.75,766.5313 Q335.4063,766.6875 335.9688,766.9844 L335.9688,769.7031 Q335.3438,769.125 334.75,768.8594 Q334.1563,768.5781 333.5313,768.5781 Q332.1875,768.5781 331.5,769.6563 Q330.8125,770.7188 330.8125,772.8125 Q330.8125,774.9063 331.5,775.9844 Q332.1875,777.0469 333.5313,777.0469 Q334.1563,777.0469 334.75,776.7813 Q335.3438,776.5 335.9688,775.9219 L335.9688,778.6406 Z " fill="#000000"/><text fill="#000000" font-family="sans-serif" font-size="14" lengthAdjust="spacing" textLength="33.1064" x="347" y="777.8467">Nota</text><line style="stroke:#181818;stroke-width:0.5;" x1="319" x2="382.1064" y1="789" y2="789"/><line style="stroke:#181818;stroke-width:0.5;" x1="319" x2="382.1064" y1="797" y2="797"/></g><!--class Acorde--><g class="entity" data-entity="Acorde" data-source-line="18" data-uid="ent0016" id="entity_Acorde"><rect fill="#F1F1F1" height="48" rx="2.5" ry="2.5" style="stroke:#181818;stroke-width:0.5;" width="81.0957" x="415" y="632"/><ellipse cx="430" cy="648" fill="#ADD1B2" rx="11" ry="11" style="stroke:#181818;stroke-width:1;"/><path d="M432.9688,653.6406 Q432.3906,653.9375 431.75,654.0781 Q431.1094,654.2344 430.4063,654.2344 Q427.9063,654.2344 426.5781,652.5938 Q425.2656,650.9375 425.2656,647.8125 Q425.2656,644.6875 426.5781,643.0313 Q427.9063,641.375 430.4063,641.375 Q431.1094,641.375 431.75,641.5313 Q432.4063,641.6875 432.9688,641.9844 L432.9688,644.7031 Q432.3438,644.125 431.75,643.8594 Q431.1563,643.5781 430.5313,643.5781 Q429.1875,643.5781 428.5,644.6563 Q427.8125,645.7188 427.8125,647.8125 Q427.8125,649.9063 428.5,650.9844 Q429.1875,652.0469 430.5313,652.0469 Q431.1563,652.0469 431.75,651.7813 Q432.3438,651.5 432.9688,650.9219 L432.9688,653.6406 Z " fill="#000000"/><text fill="#000000" font-family="sans-serif" font-size="14" lengthAdjust="spacing" textLength="49.0957" x="444" y="652.8467">Acorde</text><line style="stroke:#181818;stroke-width:0.5;" x1="416" x2="495.0957" y1="664" y2="664"/><line style="stroke:#181818;stroke-width:0.5;" x1="416" x2="495.0957" y1="672" y2="672"/></g><!--class Comp?s--><g class="entity" data-entity="Comp.s" data-source-line="19" data-uid="ent0017" id="entity_Comp.s"><rect fill="#F1F1F1" height="48" rx="2.5" ry="2.5" style="stroke:#181818;stroke-width:0.5;" width="88.7383" x="531" y="632"/><ellipse cx="546" cy="648" fill="#ADD1B2" rx="11" ry="11" style="stroke:#181818;stroke-width:1;"/><path d="M548.9688,653.6406 Q548.3906,653.9375 547.75,654.0781 Q547.1094,654.2344 546.4063,654.2344 Q543.9063,654.2344 542.5781,652.5938 Q541.2656,650.9375 541.2656,647.8125 Q541.2656,644.6875 542.5781,643.0313 Q543.9063,641.375 546.4063,641.375 Q547.1094,641.375 547.75,641.5313 Q548.4063,641.6875 548.9688,641.9844 L548.9688,644.7031 Q548.3438,644.125 547.75,643.8594 Q547.1563,643.5781 546.5313,643.5781 Q545.1875,643.5781 544.5,644.6563 Q543.8125,645.7188 543.8125,647.8125 Q543.8125,649.9063 544.5,650.9844 Q545.1875,652.0469 546.5313,652.0469 Q547.1563,652.0469 547.75,651.7813 Q548.3438,651.5 548.9688,650.9219 L548.9688,653.6406 Z " fill="#000000"/><text fill="#000000" font-family="sans-serif" font-size="14" lengthAdjust="spacing" textLength="56.7383" x="560" y="652.8467">Comp&#225;s</text><line style="stroke:#181818;stroke-width:0.5;" x1="532" x2="618.7383" y1="664" y2="664"/><line style="stroke:#181818;stroke-width:0.5;" x1="532" x2="618.7383" y1="672" y2="672"/></g><!--reverse link Usuario to Suscripcion--><g class="link" data-entity-1="Usuario" data-entity-2="Suscripcion" data-source-line="22" data-uid="lnk18" id="link_Usuario_Suscripcion"><path codeLine="22" d="M217.5,67.14 C217.5,89.13 217.5,110.01 217.5,131.97" fill="none" id="Usuario-backto-Suscripcion" style="stroke:#181818;stroke-width:1;"/><polygon fill="#181818" points="217.5,55.14,213.5,61.14,217.5,67.14,221.5,61.14,217.5,55.14" style="stroke:#181818;stroke-width:1;"/><text fill="#000000" font-family="sans-serif" font-size="13" lengthAdjust="spacing" textLength="32.9443" x="218.5" y="98.0669">tiene</text></g><!--reverse link Cancion to Letra--><g class="link" data-entity-1="Cancion" data-entity-2="Letra" data-source-line="23" data-uid="lnk19" id="link_Cancion_Letra"><path codeLine="23" d="M482.4512,438.7281 C503.9112,460.7181 527.61,485.01 549.03,506.97" fill="none" id="Cancion-backto-Letra" style="stroke:#181818;stroke-width:1;"/><polygon fill="#181818" points="474.07,430.14,475.3979,437.2278,482.4512,438.7281,481.1233,431.6404,474.07,430.14" style="stroke:#181818;stroke-width:1;"/><text fill="#000000" font-family="sans-serif" font-size="13" lengthAdjust="spacing" textLength="32.9443" x="519.5" y="473.0669">tiene</text></g><!--reverse link Cancion to Partitura--><g class="link" data-entity-1="Cancion" data-entity-2="Partitura" data-source-line="24" data-uid="lnk20" id="link_Cancion_Partitura"><path codeLine="24" d="M452.6427,442.1336 C453.3627,464.1236 454.04,485.01 454.75,506.97" fill="none" id="Cancion-backto-Partitura" style="stroke:#181818;stroke-width:1;"/><polygon fill="#181818" points="452.25,430.14,448.4485,436.2677,452.6427,442.1336,456.4442,436.0059,452.25,430.14" style="stroke:#181818;stroke-width:1;"/><text fill="#000000" font-family="sans-serif" font-size="13" lengthAdjust="spacing" textLength="32.9443" x="455.5" y="473.0669">tiene</text></g><!--reverse link Partitura to Nota--><g class="link" data-entity-1="Partitura" data-entity-2="Nota" data-source-line="25" data-uid="lnk21" id="link_Partitura_Nota"><path codeLine="25" d="M403.6626,561.6104 C376.9926,578.9104 354.73,598.76 339.5,632 C320.77,672.87 332.69,726.79 342.17,756.98" fill="none" id="Partitura-backto-Nota" style="stroke:#181818;stroke-width:1;"/><polygon fill="#181818" points="413.73,555.08,406.5195,554.9894,403.6626,561.6104,410.8731,561.701,413.73,555.08" style="stroke:#181818;stroke-width:1;"/><text fill="#000000" font-family="sans-serif" font-size="13" lengthAdjust="spacing" textLength="56.2847" x="340.5" y="660.5669">contiene</text></g><!--reverse link Partitura to Acorde--><g class="link" data-entity-1="Partitura" data-entity-2="Acorde" data-source-line="26" data-uid="lnk22" id="link_Partitura_Acorde"><path codeLine="26" d="M455.5,567.14 C455.5,589.13 455.5,610.01 455.5,631.97" fill="none" id="Partitura-backto-Acorde" style="stroke:#181818;stroke-width:1;"/><polygon fill="#181818" points="455.5,555.14,451.5,561.14,455.5,567.14,459.5,561.14,455.5,555.14" style="stroke:#181818;stroke-width:1;"/><text fill="#000000" font-family="sans-serif" font-size="13" lengthAdjust="spacing" textLength="56.2847" x="456.5" y="598.0669">contiene</text></g><!--reverse link Acorde to Nota--><g class="link" data-entity-1="Acorde" data-entity-2="Nota" data-source-line="27" data-uid="lnk23" id="link_Acorde_Nota"><path codeLine="27" d="M427.9593,689.2672 C409.1893,711.2572 388.9,735.01 370.16,756.97" fill="none" id="Acorde-backto-Nota" style="stroke:#181818;stroke-width:1;"/><polygon fill="#181818" points="435.75,680.14,428.8123,682.1067,427.9593,689.2672,434.8971,687.3005,435.75,680.14" style="stroke:#181818;stroke-width:1;"/><text fill="#000000" font-family="sans-serif" font-size="13" lengthAdjust="spacing" textLength="46.0205" x="410.5" y="723.0669">agrupa</text></g><!--reverse link Album to Cancion--><g class="link" data-entity-1="Album" data-entity-2="Cancion" data-source-line="30" data-uid="lnk24" id="link_Album_Cancion"><path codeLine="30" d="M616.6745,312.3421 C597.8645,326.6721 582.15,337.74 558.5,352 C538.44,364.09 515.24,375.84 495.58,385.18" fill="none" id="Album-backto-Cancion" style="stroke:#181818;stroke-width:1;"/><polygon fill="none" points="626.22,305.07,619.0232,305.5242,616.6745,312.3421,623.8713,311.8879,626.22,305.07" style="stroke:#181818;stroke-width:1;"/><text fill="#000000" font-family="sans-serif" font-size="13" lengthAdjust="spacing" textLength="56.2847" x="583.5" y="348.0669">contiene</text></g><!--reverse link Playlist to Cancion--><g class="link" data-entity-1="Playlist" data-entity-2="Cancion" data-source-line="31" data-uid="lnk25" id="link_Playlist_Cancion"><path codeLine="31" d="M345.9124,316.9813 C347.6024,331.6613 350.41,338.47 360.5,352 C372.3,367.83 390.35,379.73 407.26,388.21" fill="none" id="Playlist-backto-Cancion" style="stroke:#181818;stroke-width:1;"/><polygon fill="none" points="344.54,305.06,341.2524,311.4781,345.9124,316.9813,349.2,310.5632,344.54,305.06" style="stroke:#181818;stroke-width:1;"/><text fill="#000000" font-family="sans-serif" font-size="13" lengthAdjust="spacing" textLength="56.2847" x="361.5" y="348.0669">contiene</text></g><!--reverse link Usuario to Playlist--><g class="link" data-entity-1="Usuario" data-entity-2="Playlist" data-source-line="32" data-uid="lnk26" id="link_Usuario_Playlist"><path codeLine="32" d="M244.0663,64.4945 C251.4263,73.6545 252.27,75.01 259.5,85 C274.17,105.27 279.31,109.62 290.5,132 C311.67,174.36 328.49,227.28 337.13,256.99" fill="none" id="Usuario-backto-Playlist" style="stroke:#181818;stroke-width:1;"/><polygon fill="none" points="236.55,55.14,237.19,62.3226,244.0663,64.4945,243.4263,57.3118,236.55,55.14" style="stroke:#181818;stroke-width:1;"/><text fill="#000000" font-family="sans-serif" font-size="13" lengthAdjust="spacing" textLength="46.5093" x="312.5" y="160.5669">accede</text></g><!--reverse link Cancion to Instrumento--><g class="link" data-entity-1="Cancion" data-entity-2="Instrumento" data-source-line="33" data-uid="lnk27" id="link_Cancion_Instrumento"><path codeLine="33" d="M416.8012,438.1573 C392.3112,460.1473 364.61,485.01 340.15,506.97" fill="none" id="Cancion-backto-Instrumento" style="stroke:#181818;stroke-width:1;"/><polygon fill="none" points="425.73,430.14,418.5932,431.1724,416.8012,438.1573,423.938,437.1249,425.73,430.14" style="stroke:#181818;stroke-width:1;"/><text fill="#000000" font-family="sans-serif" font-size="13" lengthAdjust="spacing" textLength="38.9619" x="392.5" y="473.0669">utiliza</text></g><!--link Artista to Album--><g class="link" data-entity-1="Artista" data-entity-2="Album" data-source-line="36" data-uid="lnk28" id="link_Artista_Album"><path codeLine="36" d="M611.66,180.14 C621.31,202.13 633.3383,229.516 642.9783,251.476" fill="none" id="Artista-to-Album" style="stroke:#181818;stroke-width:1;"/><polygon fill="#181818" points="645.39,256.97,645.435,247.1212,643.3802,252.3917,638.1098,250.3369,645.39,256.97" style="stroke:#181818;stroke-width:1;"/><text fill="#000000" font-family="sans-serif" font-size="13" lengthAdjust="spacing" textLength="47.0806" x="632.5" y="223.0669">publica</text></g><!--link Artista to Cancion--><g class="link" data-entity-1="Artista" data-entity-2="Cancion" data-source-line="37" data-uid="lnk29" id="link_Artista_Cancion"><path codeLine="37" d="M587.39,180.33 C558.73,227.72 497.1055,329.5962 468.5655,376.7762" fill="none" id="Artista-to-Cancion" style="stroke:#181818;stroke-width:1;"/><polygon fill="#181818" points="465.46,381.91,473.5408,376.2797,468.0479,377.6318,466.6958,372.139,465.46,381.91" style="stroke:#181818;stroke-width:1;"/><text fill="#000000" font-family="sans-serif" font-size="13" lengthAdjust="spacing" textLength="47.0806" x="539.5" y="285.5669">publica</text></g><!--link Cancion to Genero--><g class="link" data-entity-1="Cancion" data-entity-2="Genero" data-source-line="38" data-uid="lnk30" id="link_Cancion_Genero"><path codeLine="38" d="M407.4,419.95 C376.59,429.57 334.81,443.81 299.5,460 C269.83,473.61 243.04,489.0793 219.45,503.6993" fill="none" id="Cancion-to-Genero" style="stroke:#181818;stroke-width:1;"/><polygon fill="#181818" points="214.35,506.86,224.1071,505.5189,218.6,504.2261,219.8928,498.7189,214.35,506.86" style="stroke:#181818;stroke-width:1;"/><text fill="#000000" font-family="sans-serif" font-size="13" lengthAdjust="spacing" textLength="66.0728" x="300.5" y="473.0669">pertenece</text></g><!--link Productor to Cancion--><g class="link" data-entity-1="Productor" data-entity-2="Cancion" data-source-line="39" data-uid="lnk31" id="link_Productor_Cancion"><path codeLine="39" d="M507.79,55.05 C497.06,121.76 467.0132,308.5862 456.2132,375.7062" fill="none" id="Productor-to-Cancion" style="stroke:#181818;stroke-width:1;"/><polygon fill="#181818" points="455.26,381.63,460.639,373.3797,456.0543,376.6935,452.7406,372.1088,455.26,381.63" style="stroke:#181818;stroke-width:1;"/><text fill="#000000" font-family="sans-serif" font-size="13" lengthAdjust="spacing" textLength="62.6514" x="482.5" y="223.0669">supervisa</text></g><!--link Cancion to Estudio--><g class="link" data-entity-1="Cancion" data-entity-2="Estudio" data-source-line="40" data-uid="lnk32" id="link_Cancion_Estudio"><path codeLine="40" d="M495.69,427.59 C545.15,450.63 619.2912,485.1763 667.9112,507.8263" fill="none" id="Cancion-to-Estudio" style="stroke:#181818;stroke-width:1;"/><polygon fill="#181818" points="673.35,510.36,666.881,502.9336,668.8177,508.2486,663.5027,510.1853,673.35,510.36" style="stroke:#181818;stroke-width:1;"/><text fill="#000000" font-family="sans-serif" font-size="13" lengthAdjust="spacing" textLength="74.3691" x="599.5" y="473.0669">grabada en</text></g><!--link Partitura to Comp?s--><g class="link" data-entity-1="Partitura" data-entity-2="Comp.s" data-source-line="41" data-uid="lnk33" id="link_Partitura_Comp.s"><path codeLine="41" d="M487.36,555.11 C498.64,563.92 511.11,574.4 521.5,585 C535.69,599.47 546.1109,612.7388 556.2609,626.9388" fill="none" id="Partitura-to-Comp&#225;s" style="stroke:#181818;stroke-width:1;"/><polygon fill="#181818" points="559.75,631.82,557.7706,622.1721,556.8425,627.7523,551.2623,626.8242,559.75,631.82" style="stroke:#181818;stroke-width:1;"/><text fill="#000000" font-family="sans-serif" font-size="13" lengthAdjust="spacing" textLength="34.874" x="536.5" y="598.0669">sigue</text></g><!--link Productor to Artista--><g class="link" data-entity-1="Productor" data-entity-2="Artista" data-source-line="42" data-uid="lnk34" id="link_Productor_Artista"><path codeLine="42" d="M528.43,55.14 C544.52,77.13 565.0367,105.168 581.1067,127.128" fill="none" id="Productor-to-Artista" style="stroke:#181818;stroke-width:1;"/><polygon fill="#181818" points="584.65,131.97,582.563,122.3448,581.6972,127.935,576.107,127.0692,584.65,131.97" style="stroke:#181818;stroke-width:1;"/><text fill="#000000" font-family="sans-serif" font-size="13" lengthAdjust="spacing" textLength="37.0703" x="562.5" y="98.0669">dirige</text></g><!--link Usuario to Reproductor--><g class="link" data-entity-1="Usuario" data-entity-2="Reproductor" data-source-line="45" data-uid="lnk35" id="link_Usuario_Reproductor"><path codeLine="45" d="M189.1,55.14 C162.1,77.13 126.382,106.2207 99.422,128.1807" fill="none" id="Usuario-to-Reproductor" style="stroke:#181818;stroke-width:1;stroke-dasharray:7,7;"/><polygon fill="#181818" points="94.77,131.97,104.2742,129.3875,98.6467,128.8123,99.2219,123.1847,94.77,131.97" style="stroke:#181818;stroke-width:1;"/><text fill="#000000" font-family="sans-serif" font-size="13" lengthAdjust="spacing" textLength="38.9619" x="152.5" y="98.0669">utiliza</text></g><!--link Reproductor to Playlist--><g class="link" data-entity-1="Reproductor" data-entity-2="Playlist" data-source-line="46" data-uid="lnk36" id="link_Reproductor_Playlist"><path codeLine="46" d="M118.6,180.14 C171.89,203.8 248.0963,237.635 296.9663,259.335" fill="none" id="Reproductor-to-Playlist" style="stroke:#181818;stroke-width:1;stroke-dasharray:7,7;"/><polygon fill="#181818" points="302.45,261.77,295.8478,254.4618,297.8802,259.7409,292.6011,261.7734,302.45,261.77" style="stroke:#181818;stroke-width:1;"/><text fill="#000000" font-family="sans-serif" font-size="13" lengthAdjust="spacing" textLength="38.9619" x="223.5" y="223.0669">utiliza</text></g><!--link Reproductor to Cancion--><g class="link" data-entity-1="Reproductor" data-entity-2="Cancion" data-source-line="47" data-uid="lnk37" id="link_Reproductor_Cancion"><path codeLine="47" d="M90.36,180.11 C123.19,211.12 185.02,266.72 244.5,305 C297.7,339.23 358.8349,367.0942 401.9049,385.1142" fill="none" id="Reproductor-to-Cancion" style="stroke:#181818;stroke-width:1;stroke-dasharray:7,7;"/><polygon fill="#181818" points="407.44,387.43,400.6813,380.2662,402.8274,385.5002,397.5935,387.6463,407.44,387.43" style="stroke:#181818;stroke-width:1;"/><text fill="#000000" font-family="sans-serif" font-size="13" lengthAdjust="spacing" textLength="38.9619" x="245.5" y="285.5669">utiliza</text></g><!--link Artista to Estudio--><g class="link" data-entity-1="Artista" data-entity-2="Estudio" data-source-line="48" data-uid="lnk38" id="link_Artista_Estudio"><path codeLine="48" d="M640.88,174.79 C657.16,183.6 675.27,195.49 688.5,210 C704.17,227.18 706.09,234.38 711.5,257 C733.12,347.35 724.6657,453.4193 719.1957,500.9693" fill="none" id="Artista-to-Estudio" style="stroke:#181818;stroke-width:1;stroke-dasharray:7,7;"/><polygon fill="#181818" points="718.51,506.93,723.5123,498.4461,719.0814,501.9628,715.5648,497.5318,718.51,506.93" style="stroke:#181818;stroke-width:1;"/><text fill="#000000" font-family="sans-serif" font-size="13" lengthAdjust="spacing" textLength="38.9619" x="724.5" y="348.0669">utiliza</text></g><!--SRC=[TPDDRi8m48NtEOLtj9NW02oGK8HG94eGAGSmZXLP2dRa7oHwZPwW1-YgHyZ5EauyiK5qPyytzhmt7iz8tbB33IcrQ8IaBJSPWuWXQss5iHHtxTbTmZgdaWabmsx7hSQiBPTSgx0vjFJMmXLXUpAEQe6mSePfqINt77cdLUsOLJhBPcJl-9KQLFTo61WJ_QyaD_B1bUv_w2jMcWwE-usnhfvA5T9OxIvSsaaP1M_MJRBtAlfaIjSSZQfBrtyRBsS-dvEyV3-KLP4N_TVU1x9WYRm1J0oH9R42Ef65HWryQDDJCgcPQ8nuxjK1Oae-ewFWb8T8SfGssdKKRQotnyrs7LqCJqkKDnXKfSN28_x7iGKUJxbGaJ5UHvkU9iy02SwALdn6JLMP5wccSVXWlHf73uvqxjmAHkzOL8GK8vwEu-WXrnRM3FpWg3mSDmvohiBSNn062NYZwPdMb72Pz7-uOfmHVuLet6C1rBeajO0Fnj7lgIhl9cYnMAKV83Q8P6dOfoLTnYO-faHRc84wF8sc0lq3]--></g></svg>