<svg xmlns="http://www.w3.org/2000/svg" xmlns:xlink="http://www.w3.org/1999/xlink" contentStyleType="text/css" data-diagram-type="CLASS" height="895px" preserveAspectRatio="none" style="width:1870px;height:895px;background:#FFFFFF;" version="1.1" viewBox="0 0 1870 895" width="1870px" zoomAndPan="magnify"><title>Domain Model - Tic Tac Toe (MVC + Builder)</title><defs/><g><g class="title" data-source-line="4"><text fill="#000000" font-family="sans-serif" font-size="14" font-weight="bold" lengthAdjust="spacing" textLength="347.5391" x="754.2305" y="22.9951">Domain Model - Tic Tac Toe (MVC + Builder)</text></g><!--cluster View--><g class="cluster" data-entity="View" data-source-line="6" data-uid="ent0002" id="cluster_View"><rect fill="#ADD8E6" height="371.36" rx="2.5" ry="2.5" style="stroke:#000000;stroke-width:1.5;" width="603" x="831" y="437.2969"/><text fill="#000000" font-family="sans-serif" font-size="14" font-weight="bold" lengthAdjust="spacing" textLength="38.0625" x="1113.4688" y="452.292">View</text></g><!--cluster Controller--><g class="cluster" data-entity="Controller" data-source-line="23" data-uid="ent0005" id="cluster_Controller"><rect fill="#90EE90" height="311" rx="2.5" ry="2.5" style="stroke:#000000;stroke-width:1.5;" width="610" x="1112" y="44.2969"/><text fill="#000000" font-family="sans-serif" font-size="14" font-weight="bold" lengthAdjust="spacing" textLength="79.0713" x="1377.4644" y="59.292">Controller</text></g><!--cluster Builder--><g class="cluster" data-entity="Builder" data-source-line="45" data-uid="ent0008" id="cluster_Builder"><rect fill="#F5DEB3" height="148" rx="2.5" ry="2.5" style="stroke:#000000;stroke-width:1.5;" width="334" x="1530" y="461.2969"/><text fill="#000000" font-family="sans-serif" font-size="14" font-weight="bold" lengthAdjust="spacing" textLength="56.6563" x="1668.6719" y="476.292">Builder</text></g><!--cluster Model--><g class="cluster" data-entity="Model" data-source-line="53" data-uid="ent0010" id="cluster_Model"><rect fill="#FFFFE0" height="485" rx="2.5" ry="2.5" style="stroke:#000000;stroke-width:1.5;" width="792" x="7" y="404.2969"/><text fill="#000000" font-family="sans-serif" font-size="14" font-weight="bold" lengthAdjust="spacing" textLength="47.8652" x="379.0674" y="419.292">Model</text></g><!--class View--><g class="entity" data-entity="View" data-source-line="7" data-uid="ent0003" id="entity_View"><rect fill="#F1F1F1" height="113.1875" rx="2.5" ry="2.5" style="stroke:#181818;stroke-width:0.5;" width="259.5908" x="1150" y="488.2969"/><ellipse cx="1258.7803" cy="504.2969" fill="#B4A7E5" rx="11" ry="11" style="stroke:#181818;stroke-width:1;"/><path d="M1254.7021,500.0625 L1254.7021,497.9063 L1262.0928,497.9063 L1262.0928,500.0625 L1259.624,500.0625 L1259.624,508.1406 L1262.0928,508.1406 L1262.0928,510.2969 L1254.7021,510.2969 L1254.7021,508.1406 L1257.1709,508.1406 L1257.1709,500.0625 L1254.7021,500.0625 Z " fill="#000000"/><text fill="#000000" font-family="sans-serif" font-size="14" font-style="italic" lengthAdjust="spacing" textLength="33.5303" x="1279.2803" y="509.1436">View</text><line style="stroke:#181818;stroke-width:0.5;" x1="1151" x2="1408.5908" y1="520.2969" y2="520.2969"/><line style="stroke:#181818;stroke-width:0.5;" x1="1151" x2="1408.5908" y1="528.2969" y2="528.2969"/><text fill="#000000" font-family="sans-serif" font-size="14" lengthAdjust="spacing" textLength="207.0605" x="1156" y="545.292">+displayBoard(cells: char[][])</text><text fill="#000000" font-family="sans-serif" font-size="14" lengthAdjust="spacing" textLength="239.333" x="1156" y="561.5889">+requestCoordinate(): Coordinate</text><text fill="#000000" font-family="sans-serif" font-size="14" lengthAdjust="spacing" textLength="196.7588" x="1156" y="577.8857">+displayWinner(color: char)</text><text fill="#000000" font-family="sans-serif" font-size="14" lengthAdjust="spacing" textLength="247.5908" x="1156" y="594.1826">+displayMessage(message: String)</text></g><!--class ConsoleView--><g class="entity" data-entity="ConsoleView" data-source-line="14" data-uid="ent0004" id="entity_ConsoleView"><rect fill="#F1F1F1" height="129.4844" rx="2.5" ry="2.5" style="stroke:#181818;stroke-width:0.5;" width="259.5908" x="855" y="480.2969"/><ellipse cx="935.9922" cy="496.2969" fill="#ADD1B2" rx="11" ry="11" style="stroke:#181818;stroke-width:1;"/><path d="M938.9609,501.9375 Q938.3828,502.2344 937.7422,502.375 Q937.1016,502.5313 936.3984,502.5313 Q933.8984,502.5313 932.5703,500.8906 Q931.2578,499.2344 931.2578,496.1094 Q931.2578,492.9844 932.5703,491.3281 Q933.8984,489.6719 936.3984,489.6719 Q937.1016,489.6719 937.7422,489.8281 Q938.3984,489.9844 938.9609,490.2813 L938.9609,493 Q938.3359,492.4219 937.7422,492.1563 Q937.1484,491.875 936.5234,491.875 Q935.1797,491.875 934.4922,492.9531 Q933.8047,494.0156 933.8047,496.1094 Q933.8047,498.2031 934.4922,499.2813 Q935.1797,500.3438 936.5234,500.3438 Q937.1484,500.3438 937.7422,500.0781 Q938.3359,499.7969 938.9609,499.2188 L938.9609,501.9375 Z " fill="#000000"/><text fill="#000000" font-family="sans-serif" font-size="14" lengthAdjust="spacing" textLength="89.1064" x="956.4922" y="501.1436">ConsoleView</text><line style="stroke:#181818;stroke-width:0.5;" x1="856" x2="1113.5908" y1="512.2969" y2="512.2969"/><text fill="#000000" font-family="sans-serif" font-size="14" lengthAdjust="spacing" textLength="127.1826" x="861" y="529.292">-scanner: Scanner</text><line style="stroke:#181818;stroke-width:0.5;" x1="856" x2="1113.5908" y1="536.5938" y2="536.5938"/><text fill="#000000" font-family="sans-serif" font-size="14" lengthAdjust="spacing" textLength="207.0605" x="861" y="553.5889">+displayBoard(cells: char[][])</text><text fill="#000000" font-family="sans-serif" font-size="14" lengthAdjust="spacing" textLength="239.333" x="861" y="569.8857">+requestCoordinate(): Coordinate</text><text fill="#000000" font-family="sans-serif" font-size="14" lengthAdjust="spacing" textLength="196.7588" x="861" y="586.1826">+displayWinner(color: char)</text><text fill="#000000" font-family="sans-serif" font-size="14" lengthAdjust="spacing" textLength="247.5908" x="861" y="602.4795">+displayMessage(message: String)</text></g><!--class TicTacToe--><g class="entity" data-entity="TicTacToe" data-source-line="24" data-uid="ent0006" id="entity_TicTacToe"><rect fill="#F1F1F1" height="259.8594" rx="2.5" ry="2.5" style="stroke:#181818;stroke-width:0.5;" width="380.5322" x="1127.5" y="79.2969"/><ellipse cx="1278.1675" cy="95.2969" fill="#ADD1B2" rx="11" ry="11" style="stroke:#181818;stroke-width:1;"/><path d="M1281.1362,100.9375 Q1280.5581,101.2344 1279.9175,101.375 Q1279.2769,101.5313 1278.5737,101.5313 Q1276.0737,101.5313 1274.7456,99.8906 Q1273.4331,98.2344 1273.4331,95.1094 Q1273.4331,91.9844 1274.7456,90.3281 Q1276.0737,88.6719 1278.5737,88.6719 Q1279.2769,88.6719 1279.9175,88.8281 Q1280.5737,88.9844 1281.1362,89.2813 L1281.1362,92 Q1280.5112,91.4219 1279.9175,91.1563 Q1279.3237,90.875 1278.6987,90.875 Q1277.355,90.875 1276.6675,91.9531 Q1275.98,93.0156 1275.98,95.1094 Q1275.98,97.2031 1276.6675,98.2813 Q1277.355,99.3438 1278.6987,99.3438 Q1279.3237,99.3438 1279.9175,99.0781 Q1280.5112,98.7969 1281.1362,98.2188 L1281.1362,100.9375 Z " fill="#000000"/><text fill="#000000" font-family="sans-serif" font-size="14" lengthAdjust="spacing" textLength="70.6973" x="1298.6675" y="100.1436">TicTacToe</text><line style="stroke:#181818;stroke-width:0.5;" x1="1128.5" x2="1507.0322" y1="111.2969" y2="111.2969"/><text fill="#000000" font-family="sans-serif" font-size="14" lengthAdjust="spacing" textLength="96.2842" x="1133.5" y="128.292">-board: Board</text><text fill="#000000" font-family="sans-serif" font-size="14" lengthAdjust="spacing" textLength="120.0117" x="1133.5" y="144.5889">-players: Player[]</text><text fill="#000000" font-family="sans-serif" font-size="14" lengthAdjust="spacing" textLength="75.2637" x="1133.5" y="160.8857">-turn: Turn</text><text fill="#000000" font-family="sans-serif" font-size="14" lengthAdjust="spacing" textLength="79.9873" x="1133.5" y="177.1826">-view: View</text><line style="stroke:#181818;stroke-width:0.5;" x1="1128.5" x2="1507.0322" y1="184.4844" y2="184.4844"/><text fill="#000000" font-family="sans-serif" font-size="14" lengthAdjust="spacing" textLength="168.2871" x="1133.5" y="201.4795">+TicTacToe(view: View)</text><text fill="#000000" font-family="sans-serif" font-size="14" lengthAdjust="spacing" textLength="52.2949" x="1133.5" y="217.7764">+play()</text><text fill="#000000" font-family="sans-serif" font-size="14" lengthAdjust="spacing" textLength="187.6396" x="1133.5" y="234.0732">-placePiece(player: Player)</text><text fill="#000000" font-family="sans-serif" font-size="14" lengthAdjust="spacing" textLength="189.0752" x="1133.5" y="250.3701">-movePiece(player: Player)</text><text fill="#000000" font-family="sans-serif" font-size="14" lengthAdjust="spacing" textLength="197.9756" x="1133.5" y="266.667">-requestOrigin(): Coordinate</text><text fill="#000000" font-family="sans-serif" font-size="14" lengthAdjust="spacing" textLength="235.9971" x="1133.5" y="282.9639">-requestDestination(): Coordinate</text><text fill="#000000" font-family="sans-serif" font-size="14" lengthAdjust="spacing" textLength="368.5322" x="1133.5" y="299.2607">-isValidDestination(coordinate: Coordinate): boolean</text><text fill="#000000" font-family="sans-serif" font-size="14" lengthAdjust="spacing" textLength="330.5107" x="1133.5" y="315.5576">-isValidOrigin(coordinate: Coordinate): boolean</text><text fill="#000000" font-family="sans-serif" font-size="14" lengthAdjust="spacing" textLength="109.5732" x="1133.5" y="331.8545">-displayResult()</text></g><!--class Main--><g class="entity" data-entity="Main" data-source-line="40" data-uid="ent0007" id="entity_Main"><rect fill="#F1F1F1" height="64.2969" rx="2.5" ry="2.5" style="stroke:#181818;stroke-width:0.5;" width="162.0215" x="1544" y="177.2969"/><ellipse cx="1604.0503" cy="193.2969" fill="#ADD1B2" rx="11" ry="11" style="stroke:#181818;stroke-width:1;"/><path d="M1607.019,198.9375 Q1606.4409,199.2344 1605.8003,199.375 Q1605.1597,199.5313 1604.4565,199.5313 Q1601.9565,199.5313 1600.6284,197.8906 Q1599.3159,196.2344 1599.3159,193.1094 Q1599.3159,189.9844 1600.6284,188.3281 Q1601.9565,186.6719 1604.4565,186.6719 Q1605.1597,186.6719 1605.8003,186.8281 Q1606.4565,186.9844 1607.019,187.2813 L1607.019,190 Q1606.394,189.4219 1605.8003,189.1563 Q1605.2065,188.875 1604.5815,188.875 Q1603.2378,188.875 1602.5503,189.9531 Q1601.8628,191.0156 1601.8628,193.1094 Q1601.8628,195.2031 1602.5503,196.2813 Q1603.2378,197.3438 1604.5815,197.3438 Q1605.2065,197.3438 1605.8003,197.0781 Q1606.394,196.7969 1607.019,196.2188 L1607.019,198.9375 Z " fill="#000000"/><text fill="#000000" font-family="sans-serif" font-size="14" lengthAdjust="spacing" textLength="33.4209" x="1624.5503" y="198.1436">Main</text><line style="stroke:#181818;stroke-width:0.5;" x1="1545" x2="1705.0215" y1="209.2969" y2="209.2969"/><line style="stroke:#181818;stroke-width:0.5;" x1="1545" x2="1705.0215" y1="217.2969" y2="217.2969"/><text fill="#000000" font-family="sans-serif" font-size="14" lengthAdjust="spacing" text-decoration="underline" textLength="150.0215" x="1550" y="234.292">+main(args: String[])</text></g><!--class TicTacToeBuilder--><g class="entity" data-entity="TicTacToeBuilder" data-source-line="46" data-uid="ent0009" id="entity_TicTacToeBuilder"><rect fill="#F1F1F1" height="96.8906" rx="2.5" ry="2.5" style="stroke:#181818;stroke-width:0.5;" width="302.1992" x="1546" y="496.2969"/><ellipse cx="1632.7446" cy="512.2969" fill="#ADD1B2" rx="11" ry="11" style="stroke:#181818;stroke-width:1;"/><path d="M1635.7134,517.9375 Q1635.1353,518.2344 1634.4946,518.375 Q1633.854,518.5313 1633.1509,518.5313 Q1630.6509,518.5313 1629.3228,516.8906 Q1628.0103,515.2344 1628.0103,512.1094 Q1628.0103,508.9844 1629.3228,507.3281 Q1630.6509,505.6719 1633.1509,505.6719 Q1633.854,505.6719 1634.4946,505.8281 Q1635.1509,505.9844 1635.7134,506.2813 L1635.7134,509 Q1635.0884,508.4219 1634.4946,508.1563 Q1633.9009,507.875 1633.2759,507.875 Q1631.9321,507.875 1631.2446,508.9531 Q1630.5571,510.0156 1630.5571,512.1094 Q1630.5571,514.2031 1631.2446,515.2813 Q1631.9321,516.3438 1633.2759,516.3438 Q1633.9009,516.3438 1634.4946,516.0781 Q1635.0884,515.7969 1635.7134,515.2188 L1635.7134,517.9375 Z " fill="#000000"/><text fill="#000000" font-family="sans-serif" font-size="14" lengthAdjust="spacing" textLength="120.21" x="1653.2446" y="517.1436">TicTacToeBuilder</text><line style="stroke:#181818;stroke-width:0.5;" x1="1547" x2="1847.1992" y1="528.2969" y2="528.2969"/><text fill="#000000" font-family="sans-serif" font-size="14" lengthAdjust="spacing" textLength="79.9873" x="1552" y="545.292">-view: View</text><line style="stroke:#181818;stroke-width:0.5;" x1="1547" x2="1847.1992" y1="552.5938" y2="552.5938"/><text fill="#000000" font-family="sans-serif" font-size="14" lengthAdjust="spacing" textLength="290.1992" x="1552" y="569.5889">+withView(view: View): TicTacToeBuilder</text><text fill="#000000" font-family="sans-serif" font-size="14" lengthAdjust="spacing" textLength="136.9443" x="1552" y="585.8857">+build(): TicTacToe</text></g><!--class Board--><g class="entity" data-entity="Board" data-source-line="54" data-uid="ent0011" id="entity_Board"><rect fill="#F1F1F1" height="210.9688" rx="2.5" ry="2.5" style="stroke:#181818;stroke-width:0.5;" width="354.0977" x="23" y="439.2969"/><ellipse cx="175.103" cy="455.2969" fill="#ADD1B2" rx="11" ry="11" style="stroke:#181818;stroke-width:1;"/><path d="M178.0718,460.9375 Q177.4937,461.2344 176.853,461.375 Q176.2124,461.5313 175.5093,461.5313 Q173.0093,461.5313 171.6812,459.8906 Q170.3687,458.2344 170.3687,455.1094 Q170.3687,451.9844 171.6812,450.3281 Q173.0093,448.6719 175.5093,448.6719 Q176.2124,448.6719 176.853,448.8281 Q177.5093,448.9844 178.0718,449.2813 L178.0718,452 Q177.4468,451.4219 176.853,451.1563 Q176.2593,450.875 175.6343,450.875 Q174.2905,450.875 173.603,451.9531 Q172.9155,453.0156 172.9155,455.1094 Q172.9155,457.2031 173.603,458.2813 Q174.2905,459.3438 175.6343,459.3438 Q176.2593,459.3438 176.853,459.0781 Q177.4468,458.7969 178.0718,458.2188 L178.0718,460.9375 Z " fill="#000000"/><text fill="#000000" font-family="sans-serif" font-size="14" lengthAdjust="spacing" textLength="41.3916" x="195.603" y="460.1436">Board</text><line style="stroke:#181818;stroke-width:0.5;" x1="24" x2="376.0977" y1="471.2969" y2="471.2969"/><text fill="#000000" font-family="sans-serif" font-size="14" lengthAdjust="spacing" textLength="98.3555" x="29" y="488.292">-cells: char[][]</text><line style="stroke:#181818;stroke-width:0.5;" x1="24" x2="376.0977" y1="495.5938" y2="495.5938"/><text fill="#000000" font-family="sans-serif" font-size="14" lengthAdjust="spacing" textLength="64.0459" x="29" y="512.5889">+Board()</text><text fill="#000000" font-family="sans-serif" font-size="14" lengthAdjust="spacing" textLength="141.0254" x="29" y="528.8857">+getCells(): char[][]</text><text fill="#000000" font-family="sans-serif" font-size="14" lengthAdjust="spacing" textLength="263.1904" x="29" y="545.1826">+isComplete(player: Player): boolean</text><text fill="#000000" font-family="sans-serif" font-size="14" lengthAdjust="spacing" textLength="205.2695" x="29" y="561.4795">+hasThreeInARow(): boolean</text><text fill="#000000" font-family="sans-serif" font-size="14" lengthAdjust="spacing" textLength="273.1367" x="29" y="577.7764">-hasThreeInARow(color: char): boolean</text><text fill="#000000" font-family="sans-serif" font-size="14" lengthAdjust="spacing" textLength="325.6162" x="29" y="594.0732">+isOccupied(coordinate: Coordinate): boolean</text><text fill="#000000" font-family="sans-serif" font-size="14" lengthAdjust="spacing" textLength="342.0977" x="29" y="610.3701">+placePiece(coordinate: Coordinate, color: char)</text><text fill="#000000" font-family="sans-serif" font-size="14" lengthAdjust="spacing" textLength="305.1973" x="29" y="626.667">+isEmpty(coordinate: Coordinate): boolean</text><text fill="#000000" font-family="sans-serif" font-size="14" lengthAdjust="spacing" textLength="274.4561" x="29" y="642.9639">+removePiece(coordinate: Coordinate)</text></g><!--class Player--><g class="entity" data-entity="Player" data-source-line="67" data-uid="ent0012" id="entity_Player"><rect fill="#F1F1F1" height="96.8906" rx="2.5" ry="2.5" style="stroke:#181818;stroke-width:0.5;" width="152.7656" x="412.5" y="496.2969"/><ellipse cx="462.8501" cy="512.2969" fill="#ADD1B2" rx="11" ry="11" style="stroke:#181818;stroke-width:1;"/><path d="M465.8188,517.9375 Q465.2407,518.2344 464.6001,518.375 Q463.9595,518.5313 463.2563,518.5313 Q460.7563,518.5313 459.4282,516.8906 Q458.1157,515.2344 458.1157,512.1094 Q458.1157,508.9844 459.4282,507.3281 Q460.7563,505.6719 463.2563,505.6719 Q463.9595,505.6719 464.6001,505.8281 Q465.2563,505.9844 465.8188,506.2813 L465.8188,509 Q465.1938,508.4219 464.6001,508.1563 Q464.0063,507.875 463.3813,507.875 Q462.0376,507.875 461.3501,508.9531 Q460.6626,510.0156 460.6626,512.1094 Q460.6626,514.2031 461.3501,515.2813 Q462.0376,516.3438 463.3813,516.3438 Q464.0063,516.3438 464.6001,516.0781 Q465.1938,515.7969 465.8188,515.2188 L465.8188,517.9375 Z " fill="#000000"/><text fill="#000000" font-family="sans-serif" font-size="14" lengthAdjust="spacing" textLength="43.5654" x="483.3501" y="517.1436">Player</text><line style="stroke:#181818;stroke-width:0.5;" x1="413.5" x2="564.2656" y1="528.2969" y2="528.2969"/><text fill="#000000" font-family="sans-serif" font-size="14" lengthAdjust="spacing" textLength="79.5977" x="418.5" y="545.292">-color: char</text><line style="stroke:#181818;stroke-width:0.5;" x1="413.5" x2="564.2656" y1="552.5938" y2="552.5938"/><text fill="#000000" font-family="sans-serif" font-size="14" lengthAdjust="spacing" textLength="140.7656" x="418.5" y="569.5889">+Player(color: char)</text><text fill="#000000" font-family="sans-serif" font-size="14" lengthAdjust="spacing" textLength="122.2676" x="418.5" y="585.8857">+getColor(): char</text></g><!--class Turn--><g class="entity" data-entity="Turn" data-source-line="73" data-uid="ent0013" id="entity_Turn"><rect fill="#F1F1F1" height="129.4844" rx="2.5" ry="2.5" style="stroke:#181818;stroke-width:0.5;" width="181.7637" x="601" y="480.2969"/><ellipse cx="671.605" cy="496.2969" fill="#ADD1B2" rx="11" ry="11" style="stroke:#181818;stroke-width:1;"/><path d="M674.5737,501.9375 Q673.9956,502.2344 673.355,502.375 Q672.7144,502.5313 672.0112,502.5313 Q669.5112,502.5313 668.1831,500.8906 Q666.8706,499.2344 666.8706,496.1094 Q666.8706,492.9844 668.1831,491.3281 Q669.5112,489.6719 672.0112,489.6719 Q672.7144,489.6719 673.355,489.8281 Q674.0112,489.9844 674.5737,490.2813 L674.5737,493 Q673.9487,492.4219 673.355,492.1563 Q672.7612,491.875 672.1362,491.875 Q670.7925,491.875 670.105,492.9531 Q669.4175,494.0156 669.4175,496.1094 Q669.4175,498.2031 670.105,499.2813 Q670.7925,500.3438 672.1362,500.3438 Q672.7612,500.3438 673.355,500.0781 Q673.9487,499.7969 674.5737,499.2188 L674.5737,501.9375 Z " fill="#000000"/><text fill="#000000" font-family="sans-serif" font-size="14" lengthAdjust="spacing" textLength="32.0537" x="692.105" y="501.1436">Turn</text><line style="stroke:#181818;stroke-width:0.5;" x1="602" x2="781.7637" y1="512.2969" y2="512.2969"/><text fill="#000000" font-family="sans-serif" font-size="14" lengthAdjust="spacing" textLength="127.0938" x="607" y="529.292">-currentPlayer: int</text><line style="stroke:#181818;stroke-width:0.5;" x1="602" x2="781.7637" y1="536.5938" y2="536.5938"/><text fill="#000000" font-family="sans-serif" font-size="14" lengthAdjust="spacing" textLength="54.708" x="607" y="553.5889">+Turn()</text><text fill="#000000" font-family="sans-serif" font-size="14" lengthAdjust="spacing" textLength="169.7637" x="607" y="569.8857">+getCurrentPlayer(): int</text><text fill="#000000" font-family="sans-serif" font-size="14" lengthAdjust="spacing" textLength="149.4883" x="607" y="586.1826">+getNextPlayer(): int</text><text fill="#000000" font-family="sans-serif" font-size="14" lengthAdjust="spacing" textLength="110.9131" x="607" y="602.4795">+switchPlayer()</text></g><!--class Coordinate--><g class="entity" data-entity="Coordinate" data-source-line="81" data-uid="ent0014" id="entity_Coordinate"><rect fill="#F1F1F1" height="145.7813" rx="2.5" ry="2.5" style="stroke:#181818;stroke-width:0.5;" width="252.6934" x="301.5" y="727.2969"/><ellipse cx="385.1001" cy="743.2969" fill="#ADD1B2" rx="11" ry="11" style="stroke:#181818;stroke-width:1;"/><path d="M388.0688,748.9375 Q387.4907,749.2344 386.8501,749.375 Q386.2095,749.5313 385.5063,749.5313 Q383.0063,749.5313 381.6782,747.8906 Q380.3657,746.2344 380.3657,743.1094 Q380.3657,739.9844 381.6782,738.3281 Q383.0063,736.6719 385.5063,736.6719 Q386.2095,736.6719 386.8501,736.8281 Q387.5063,736.9844 388.0688,737.2813 L388.0688,740 Q387.4438,739.4219 386.8501,739.1563 Q386.2563,738.875 385.6313,738.875 Q384.2876,738.875 383.6001,739.9531 Q382.9126,741.0156 382.9126,743.1094 Q382.9126,745.2031 383.6001,746.2813 Q384.2876,747.3438 385.6313,747.3438 Q386.2563,747.3438 386.8501,747.0781 Q387.4438,746.7969 388.0688,746.2188 L388.0688,748.9375 Z " fill="#000000"/><text fill="#000000" font-family="sans-serif" font-size="14" lengthAdjust="spacing" textLength="76.9932" x="405.6001" y="748.1436">Coordinate</text><line style="stroke:#181818;stroke-width:0.5;" x1="302.5" x2="553.1934" y1="759.2969" y2="759.2969"/><text fill="#000000" font-family="sans-serif" font-size="14" lengthAdjust="spacing" textLength="58.2422" x="307.5" y="776.292">-row: int</text><text fill="#000000" font-family="sans-serif" font-size="14" lengthAdjust="spacing" textLength="84.0068" x="307.5" y="792.5889">-column: int</text><line style="stroke:#181818;stroke-width:0.5;" x1="302.5" x2="553.1934" y1="799.8906" y2="799.8906"/><text fill="#000000" font-family="sans-serif" font-size="14" lengthAdjust="spacing" textLength="240.6934" x="307.5" y="816.8857">+Coordinate(row: int, column: int)</text><text fill="#000000" font-family="sans-serif" font-size="14" lengthAdjust="spacing" textLength="133.7998" x="307.5" y="833.1826">+isValid(): boolean</text><text fill="#000000" font-family="sans-serif" font-size="14" lengthAdjust="spacing" textLength="102.8057" x="307.5" y="849.4795">+getRow(): int</text><text fill="#000000" font-family="sans-serif" font-size="14" lengthAdjust="spacing" textLength="126.6768" x="307.5" y="865.7764">+getColumn(): int</text></g><!--link ConsoleView to View--><g class="link" data-entity-1="ConsoleView" data-entity-2="View" data-source-line="91" data-uid="lnk15" id="link_ConsoleView_View"><path codeLine="91" d="M1070.86,609.5569 C1090.89,623.5369 1112.39,637.8669 1133,650.2969 C1256.15,724.5569 1404.281,789.7551 1409.401,792.0051" fill="none" id="ConsoleView-to-View" style="stroke:#181818;stroke-width:1;stroke-dasharray:7,7;"/><polygon fill="none" points="1425.88,799.2469,1411.8149,786.5121,1406.9871,797.4981,1425.88,799.2469" style="stroke:#181818;stroke-width:1;"/><text fill="#000000" font-family="sans-serif" font-size="13" lengthAdjust="spacing" textLength="76.9082" x="1212" y="693.3638">implements</text></g><!--link TicTacToe to View--><g class="link" data-entity-1="TicTacToe" data-entity-2="View" data-source-line="93" data-uid="lnk16" id="link_TicTacToe_View"><path codeLine="93" d="M1404.2,339.3769 C1413.14,357.8369 1420.83,377.0969 1426,396.2969 C1448.92,481.4219 1449.2775,580.3769 1443.73,658.9269 C1442.3431,678.5644 1440.5872,696.9266 1438.7225,713.4785 C1437.7901,721.7545 1436.8305,729.5779 1435.8763,736.8819 C1435.3992,740.5339 1434.9234,744.056 1434.453,747.44 C1434.3355,748.286 1435.0561,743.1821 1434.9392,744.0107" fill="none" id="TicTacToe-to-View" style="stroke:#181818;stroke-width:1;stroke-dasharray:7,7;"/><polygon fill="#181818" points="1434.1013,749.9519,1439.319,741.5987,1434.7996,745.0009,1431.3974,740.4815,1434.1013,749.9519" style="stroke:#181818;stroke-width:1;"/><text fill="#000000" font-family="sans-serif" font-size="13" lengthAdjust="spacing" textLength="29.7832" x="1447" y="549.3638">uses</text></g><!--link TicTacToeBuilder to View--><g class="link" data-entity-1="TicTacToeBuilder" data-entity-2="View" data-source-line="94" data-uid="lnk17" id="link_TicTacToeBuilder_View"><path codeLine="94" d="M1646.03,593.4769 C1607.39,629.6219 1553.485,680.0469 1508.7013,721.9381 C1486.3094,742.8838 1466.1978,761.6959 1451.4148,775.523 C1447.7191,778.9797 1444.3564,782.1249 1441.3744,784.914 C1439.8833,786.3085 1438.4875,787.614 1437.1928,788.8249 C1436.5454,789.4303 1435.9233,790.0121 1435.3272,790.5696 C1435.0292,790.8483 1434.7377,791.1209 1434.4528,791.3874 C1434.3103,791.5206 1438.5517,787.554 1438.4126,787.6842" fill="none" id="TicTacToeBuilder-to-View" style="stroke:#181818;stroke-width:1;stroke-dasharray:7,7;"/><polygon fill="#181818" points="1434.0303,791.7825,1443.3359,788.5565,1437.6822,788.3672,1437.8715,782.7135,1434.0303,791.7825" style="stroke:#181818;stroke-width:1;"/><text fill="#000000" font-family="sans-serif" font-size="13" lengthAdjust="spacing" textLength="68.1357" x="1546" y="693.3638">configures</text></g><!--link TicTacToe to Board--><g class="link" data-entity-1="TicTacToe" data-entity-2="Board" data-source-line="96" data-uid="lnk18" id="link_TicTacToe_Board"><path codeLine="96" d="M1127.46,223.7469 C935.34,242.9369 633.84,288.7169 395,396.2969 C369.65,407.7169 349.4277,419.5093 326.0377,435.8593" fill="none" id="TicTacToe-to-Board" style="stroke:#181818;stroke-width:1;"/><polygon fill="#181818" points="321.12,439.2969,330.7882,437.419,325.2181,436.4323,326.2048,430.8621,321.12,439.2969" style="stroke:#181818;stroke-width:1;"/><text fill="#000000" font-family="sans-serif" font-size="13" lengthAdjust="spacing" textLength="22.9785" x="442" y="384.3638">has</text></g><!--link TicTacToe to Player--><g class="link" data-entity-1="TicTacToe" data-entity-2="Player" data-source-line="97" data-uid="lnk19" id="link_TicTacToe_Player"><path codeLine="97" d="M1127.49,268.4769 C994.5,307.2369 812.28,356.6869 649,388.2969 C620.42,393.8269 608.65,380.8269 584,396.2969 C547.24,419.3769 524.4368,456.9874 509.2468,490.6674" fill="none" id="TicTacToe-to-Player" style="stroke:#181818;stroke-width:1;"/><polygon fill="#181818" points="506.78,496.1369,514.1265,489.5772,508.8356,491.579,506.8339,486.2882,506.78,496.1369" style="stroke:#181818;stroke-width:1;"/><text fill="#000000" font-family="sans-serif" font-size="13" lengthAdjust="spacing" textLength="22.9785" x="723" y="384.3638">has</text><text fill="#000000" font-family="sans-serif" font-size="13" lengthAdjust="spacing" textLength="8.271" x="500.7533" y="485.3233">2</text></g><!--link TicTacToe to Turn--><g class="link" data-entity-1="TicTacToe" data-entity-2="Turn" data-source-line="98" data-uid="lnk20" id="link_TicTacToe_Turn"><path codeLine="98" d="M1127.45,302.7269 C1055.98,334.1069 973.13,366.6669 895,388.2969 C870.77,395.0069 861.48,385.0369 839,396.2969 C800.05,415.8169 769.1025,445.0794 743.1225,475.4194" fill="none" id="TicTacToe-to-Turn" style="stroke:#181818;stroke-width:1;"/><polygon fill="#181818" points="739.22,479.9769,748.1121,475.7424,742.4721,476.179,742.0355,470.539,739.22,479.9769" style="stroke:#181818;stroke-width:1;"/><text fill="#000000" font-family="sans-serif" font-size="13" lengthAdjust="spacing" textLength="22.9785" x="943" y="384.3638">has</text></g><!--link TicTacToeBuilder to TicTacToe--><g class="link" data-entity-1="TicTacToeBuilder" data-entity-2="TicTacToe" data-source-line="100" data-uid="lnk21" id="link_TicTacToeBuilder_TicTacToe"><path codeLine="100" d="M1640.87,496.1369 C1604.98,465.5269 1557.54,424.8069 1516,388.2969 C1498.12,372.5869 1483.8958,359.9828 1465.4258,343.4928" fill="none" id="TicTacToeBuilder-to-TicTacToe" style="stroke:#181818;stroke-width:1;stroke-dasharray:7,7;"/><polygon fill="#181818" points="1460.95,339.4969,1464.9997,348.4746,1464.6798,342.8268,1470.3276,342.507,1460.95,339.4969" style="stroke:#181818;stroke-width:1;"/><text fill="#000000" font-family="sans-serif" font-size="13" lengthAdjust="spacing" textLength="64.2319" x="1517" y="384.3638">&#171;creates&#187;</text></g><!--link Main to TicTacToeBuilder--><g class="link" data-entity-1="Main" data-entity-2="TicTacToeBuilder" data-source-line="102" data-uid="lnk22" id="link_Main_TicTacToeBuilder"><path codeLine="102" d="M1636.72,241.2969 C1648.39,273.3769 1665.98,325.1669 1676,371.2969 C1685.06,413.0169 1689.9936,455.34 1693.0636,490.2" fill="none" id="Main-to-TicTacToeBuilder" style="stroke:#181818;stroke-width:1;stroke-dasharray:7,7;"/><polygon fill="#181818" points="1693.59,496.1769,1696.785,486.8607,1693.1514,491.1962,1688.8159,487.5625,1693.59,496.1769" style="stroke:#181818;stroke-width:1;"/><text fill="#000000" font-family="sans-serif" font-size="13" lengthAdjust="spacing" textLength="29.7832" x="1679" y="384.3638">uses</text></g><!--link Main to ConsoleView--><g class="link" data-entity-1="Main" data-entity-2="ConsoleView" data-source-line="103" data-uid="lnk23" id="link_Main_ConsoleView"><path codeLine="103" d="M1628.6,241.5969 C1631.34,282.5169 1628.95,353.1069 1586,388.2969 C1566.53,404.2469 1156.18,386.4769 1133,396.2969 C1091.75,413.7669 1059.6788,444.0973 1033.5788,475.5873" fill="none" id="Main-to-ConsoleView" style="stroke:#181818;stroke-width:1;stroke-dasharray:7,7;"/><polygon fill="#181818" points="1029.75,480.2069,1038.5729,475.8301,1032.9407,476.3573,1032.4136,470.725,1029.75,480.2069" style="stroke:#181818;stroke-width:1;"/><text fill="#000000" font-family="sans-serif" font-size="13" lengthAdjust="spacing" textLength="48.3247" x="1600" y="384.3638">creates</text></g><!--link Board to Coordinate--><g class="link" data-entity-1="Board" data-entity-2="Coordinate" data-source-line="105" data-uid="lnk24" id="link_Board_Coordinate"><path codeLine="105" d="M294.05,650.3669 C317.24,676.1469 337.5487,698.7249 358.9987,722.5849" fill="none" id="Board-to-Coordinate" style="stroke:#181818;stroke-width:1;"/><polygon fill="#181818" points="363.01,727.0469,359.9677,717.6797,359.6672,723.3285,354.0184,723.0281,363.01,727.0469" style="stroke:#181818;stroke-width:1;"/><text fill="#000000" font-family="sans-serif" font-size="13" lengthAdjust="spacing" textLength="29.7832" x="336" y="693.3638">uses</text></g><!--link ConsoleView to Coordinate--><g class="link" data-entity-1="ConsoleView" data-entity-2="Coordinate" data-source-line="106" data-uid="lnk25" id="link_ConsoleView_Coordinate"><path codeLine="106" d="M877.08,609.5469 C851.79,623.6069 824.72,637.9669 799,650.2969 C719.35,688.4669 632.8277,723.373 560.2977,750.973" fill="none" id="ConsoleView-to-Coordinate" style="stroke:#181818;stroke-width:1;stroke-dasharray:7,7;"/><polygon fill="#181818" points="554.69,753.1069,564.5242,753.6445,559.3631,751.3286,561.679,746.1675,554.69,753.1069" style="stroke:#181818;stroke-width:1;"/><text fill="#000000" font-family="sans-serif" font-size="13" lengthAdjust="spacing" textLength="48.3247" x="730" y="693.3638">creates</text></g><!--SRC=[rLRBRXen5DtxAoow6KH1LPUZ22aXLHMfD2X1YQee2-Ev6QnuR6fxGjCq_vxhUJ2U1sgwB18C-9xxyZdNnZuAjME6PPHBPksfSqPiSWSNNAjhyHle9s8Fa1NZZoo5Q_SiWHhWZgbK0Y5EE5murnaJYYvr0f9EwLfmkcRura2ZvSs2JkXPBcG2Pap8hen4HpS2zYFwuPj8j-vCva1V2CMNK0xC0-D0FQ1QzAz98knEikSppKmISP3InfHlcRcxlxiVDp03FtEmRg6rIOHY3g9nJ9jVlNYtGYam4TTIcpBWk8TPWhLOT9ILpvXUusQfj0I-ak9Hx28cKbPBwDG-jPpvBEXOVlaVkdeDoCAsdD5IWgaf-se0LDLYsJhIZgnxqeF6Dxwlc1RjDQi-EnZiT5LykRjlJ2utAgPh_6pMdd0tuq8FJG-7R55Z3Lhq6Q9nAoE7bG0EKPcypXrWCltqDqX5mwKHgL17AAX1v_Zs5g6F8eMzOL8a8P8VOA4B-cyqwegfddDLo_lzAlQlmERIHGCQNlfX3WRlnJgiZRzIF-KHCwcjfL9Bj2sMQjXHARTRO6vO91KerCeGpNlXjdubP3dkHMdm6xyGXP210ek3gXRo3vmvlMyLMQWrhAmpbqswScm3tQNW5XxiI-Z3XLteR2V1zIJMvscoPNQznIcxKATNUXyDKTc1XDC-453OIyxpdO3a_MgP18CpxFIH3Xyomdx9Tkxv7r8PQ2RmY5TVhEN-jSXgocbYbx0Zvw4dpHjgqlfP_7dKof4R0ygjAXBnqWfE9iHs9H72VPQM0mA-mwzZLeiZmBUrSUZ6gNSdBD3eVJkEtvOyKvtWmNrIUnHyriWMdyLnCwH3tq4bqMvZYo9MQ2b6CRmcPxC_y_AoHv2VZWotoXBIt2UpsG6GMx2aTuW40FptyY3It40hmdGwhwOwfZWq7SleywZMqP2v8Byq3ATku34zEU463psmypaXnKdQGjHkLIS7GBWXs4GPWf2oPbz4G7Fbszx33gAAy0O0]--></g></svg>