<svg xmlns="http://www.w3.org/2000/svg" xmlns:xlink="http://www.w3.org/1999/xlink" contentStyleType="text/css" data-diagram-type="CLASS" height="494px" preserveAspectRatio="none" style="width:843px;height:494px;background:#FFFFFF;" version="1.1" viewBox="0 0 843 494" width="843px" zoomAndPan="magnify"><defs/><g><!--class Cancion--><g class="entity" data-entity="Cancion" data-source-line="1" data-uid="ent0002" id="entity_Cancion"><rect fill="#F1F1F1" height="48" rx="2.5" ry="2.5" style="stroke:#181818;stroke-width:0.5;" width="88.2529" x="358" y="331"/><ellipse cx="373" cy="347" fill="#ADD1B2" rx="11" ry="11" style="stroke:#181818;stroke-width:1;"/><path d="M375.9688,352.6406 Q375.3906,352.9375 374.75,353.0781 Q374.1094,353.2344 373.4063,353.2344 Q370.9063,353.2344 369.5781,351.5938 Q368.2656,349.9375 368.2656,346.8125 Q368.2656,343.6875 369.5781,342.0313 Q370.9063,340.375 373.4063,340.375 Q374.1094,340.375 374.75,340.5313 Q375.4063,340.6875 375.9688,340.9844 L375.9688,343.7031 Q375.3438,343.125 374.75,342.8594 Q374.1563,342.5781 373.5313,342.5781 Q372.1875,342.5781 371.5,343.6563 Q370.8125,344.7188 370.8125,346.8125 Q370.8125,348.9063 371.5,349.9844 Q372.1875,351.0469 373.5313,351.0469 Q374.1563,351.0469 374.75,350.7813 Q375.3438,350.5 375.9688,349.9219 L375.9688,352.6406 Z " fill="#000000"/><text fill="#000000" font-family="sans-serif" font-size="14" lengthAdjust="spacing" textLength="56.2529" x="387" y="351.8467">Cancion</text><line style="stroke:#181818;stroke-width:0.5;" x1="359" x2="445.2529" y1="363" y2="363"/><line style="stroke:#181818;stroke-width:0.5;" x1="359" x2="445.2529" y1="371" y2="371"/></g><!--class Audio--><g class="entity" data-entity="Audio" data-source-line="5" data-uid="ent0003" id="entity_Audio"><rect fill="#F1F1F1" height="48" rx="2.5" ry="2.5" style="stroke:#181818;stroke-width:0.5;" width="71.792" x="310" y="439"/><ellipse cx="325" cy="455" fill="#ADD1B2" rx="11" ry="11" style="stroke:#181818;stroke-width:1;"/><path d="M327.9688,460.6406 Q327.3906,460.9375 326.75,461.0781 Q326.1094,461.2344 325.4063,461.2344 Q322.9063,461.2344 321.5781,459.5938 Q320.2656,457.9375 320.2656,454.8125 Q320.2656,451.6875 321.5781,450.0313 Q322.9063,448.375 325.4063,448.375 Q326.1094,448.375 326.75,448.5313 Q327.4063,448.6875 327.9688,448.9844 L327.9688,451.7031 Q327.3438,451.125 326.75,450.8594 Q326.1563,450.5781 325.5313,450.5781 Q324.1875,450.5781 323.5,451.6563 Q322.8125,452.7188 322.8125,454.8125 Q322.8125,456.9063 323.5,457.9844 Q324.1875,459.0469 325.5313,459.0469 Q326.1563,459.0469 326.75,458.7813 Q327.3438,458.5 327.9688,457.9219 L327.9688,460.6406 Z " fill="#000000"/><text fill="#000000" font-family="sans-serif" font-size="14" lengthAdjust="spacing" textLength="39.792" x="339" y="459.8467">Audio</text><line style="stroke:#181818;stroke-width:0.5;" x1="311" x2="380.792" y1="471" y2="471"/><line style="stroke:#181818;stroke-width:0.5;" x1="311" x2="380.792" y1="479" y2="479"/></g><!--class Artista--><g class="entity" data-entity="Artista" data-source-line="9" data-uid="ent0004" id="entity_Artista"><rect fill="#F1F1F1" height="48" rx="2.5" ry="2.5" style="stroke:#181818;stroke-width:0.5;" width="78.0742" x="7" y="223"/><ellipse cx="22" cy="239" fill="#ADD1B2" rx="11" ry="11" style="stroke:#181818;stroke-width:1;"/><path d="M24.9688,244.6406 Q24.3906,244.9375 23.75,245.0781 Q23.1094,245.2344 22.4063,245.2344 Q19.9063,245.2344 18.5781,243.5938 Q17.2656,241.9375 17.2656,238.8125 Q17.2656,235.6875 18.5781,234.0313 Q19.9063,232.375 22.4063,232.375 Q23.1094,232.375 23.75,232.5313 Q24.4063,232.6875 24.9688,232.9844 L24.9688,235.7031 Q24.3438,235.125 23.75,234.8594 Q23.1563,234.5781 22.5313,234.5781 Q21.1875,234.5781 20.5,235.6563 Q19.8125,236.7188 19.8125,238.8125 Q19.8125,240.9063 20.5,241.9844 Q21.1875,243.0469 22.5313,243.0469 Q23.1563,243.0469 23.75,242.7813 Q24.3438,242.5 24.9688,241.9219 L24.9688,244.6406 Z " fill="#000000"/><text fill="#000000" font-family="sans-serif" font-size="14" lengthAdjust="spacing" textLength="46.0742" x="36" y="243.8467">Artista</text><line style="stroke:#181818;stroke-width:0.5;" x1="8" x2="84.0742" y1="255" y2="255"/><line style="stroke:#181818;stroke-width:0.5;" x1="8" x2="84.0742" y1="263" y2="263"/></g><!--class Playlist--><g class="entity" data-entity="Playlist" data-source-line="13" data-uid="ent0005" id="entity_Playlist"><rect fill="#F1F1F1" height="48" rx="2.5" ry="2.5" style="stroke:#181818;stroke-width:0.5;" width="81.7588" x="120" y="223"/><ellipse cx="135" cy="239" fill="#ADD1B2" rx="11" ry="11" style="stroke:#181818;stroke-width:1;"/><path d="M137.9688,244.6406 Q137.3906,244.9375 136.75,245.0781 Q136.1094,245.2344 135.4063,245.2344 Q132.9063,245.2344 131.5781,243.5938 Q130.2656,241.9375 130.2656,238.8125 Q130.2656,235.6875 131.5781,234.0313 Q132.9063,232.375 135.4063,232.375 Q136.1094,232.375 136.75,232.5313 Q137.4063,232.6875 137.9688,232.9844 L137.9688,235.7031 Q137.3438,235.125 136.75,234.8594 Q136.1563,234.5781 135.5313,234.5781 Q134.1875,234.5781 133.5,235.6563 Q132.8125,236.7188 132.8125,238.8125 Q132.8125,240.9063 133.5,241.9844 Q134.1875,243.0469 135.5313,243.0469 Q136.1563,243.0469 136.75,242.7813 Q137.3438,242.5 137.9688,241.9219 L137.9688,244.6406 Z " fill="#000000"/><text fill="#000000" font-family="sans-serif" font-size="14" lengthAdjust="spacing" textLength="49.7588" x="149" y="243.8467">Playlist</text><line style="stroke:#181818;stroke-width:0.5;" x1="121" x2="200.7588" y1="255" y2="255"/><line style="stroke:#181818;stroke-width:0.5;" x1="121" x2="200.7588" y1="263" y2="263"/></g><!--class Album--><g class="entity" data-entity="Album" data-source-line="17" data-uid="ent0006" id="entity_Album"><rect fill="#F1F1F1" height="48" rx="2.5" ry="2.5" style="stroke:#181818;stroke-width:0.5;" width="76.8643" x="605.5" y="223"/><ellipse cx="620.5" cy="239" fill="#ADD1B2" rx="11" ry="11" style="stroke:#181818;stroke-width:1;"/><path d="M623.4688,244.6406 Q622.8906,244.9375 622.25,245.0781 Q621.6094,245.2344 620.9063,245.2344 Q618.4063,245.2344 617.0781,243.5938 Q615.7656,241.9375 615.7656,238.8125 Q615.7656,235.6875 617.0781,234.0313 Q618.4063,232.375 620.9063,232.375 Q621.6094,232.375 622.25,232.5313 Q622.9063,232.6875 623.4688,232.9844 L623.4688,235.7031 Q622.8438,235.125 622.25,234.8594 Q621.6563,234.5781 621.0313,234.5781 Q619.6875,234.5781 619,235.6563 Q618.3125,236.7188 618.3125,238.8125 Q618.3125,240.9063 619,241.9844 Q619.6875,243.0469 621.0313,243.0469 Q621.6563,243.0469 622.25,242.7813 Q622.8438,242.5 623.4688,241.9219 L623.4688,244.6406 Z " fill="#000000"/><text fill="#000000" font-family="sans-serif" font-size="14" lengthAdjust="spacing" textLength="44.8643" x="634.5" y="243.8467">Album</text><line style="stroke:#181818;stroke-width:0.5;" x1="606.5" x2="681.3643" y1="255" y2="255"/><line style="stroke:#181818;stroke-width:0.5;" x1="606.5" x2="681.3643" y1="263" y2="263"/></g><!--class Usuario--><g class="entity" data-entity="Usuario" data-source-line="21" data-uid="ent0007" id="entity_Usuario"><rect fill="#F1F1F1" height="48" rx="2.5" ry="2.5" style="stroke:#181818;stroke-width:0.5;" width="85.2041" x="250.5" y="115"/><ellipse cx="265.5" cy="131" fill="#ADD1B2" rx="11" ry="11" style="stroke:#181818;stroke-width:1;"/><path d="M268.4688,136.6406 Q267.8906,136.9375 267.25,137.0781 Q266.6094,137.2344 265.9063,137.2344 Q263.4063,137.2344 262.0781,135.5938 Q260.7656,133.9375 260.7656,130.8125 Q260.7656,127.6875 262.0781,126.0313 Q263.4063,124.375 265.9063,124.375 Q266.6094,124.375 267.25,124.5313 Q267.9063,124.6875 268.4688,124.9844 L268.4688,127.7031 Q267.8438,127.125 267.25,126.8594 Q266.6563,126.5781 266.0313,126.5781 Q264.6875,126.5781 264,127.6563 Q263.3125,128.7188 263.3125,130.8125 Q263.3125,132.9063 264,133.9844 Q264.6875,135.0469 266.0313,135.0469 Q266.6563,135.0469 267.25,134.7813 Q267.8438,134.5 268.4688,133.9219 L268.4688,136.6406 Z " fill="#000000"/><text fill="#000000" font-family="sans-serif" font-size="14" lengthAdjust="spacing" textLength="53.2041" x="279.5" y="135.8467">Usuario</text><line style="stroke:#181818;stroke-width:0.5;" x1="251.5" x2="334.7041" y1="147" y2="147"/><line style="stroke:#181818;stroke-width:0.5;" x1="251.5" x2="334.7041" y1="155" y2="155"/></g><!--class PlataformaMusical--><g class="entity" data-entity="PlataformaMusical" data-source-line="25" data-uid="ent0008" id="entity_PlataformaMusical"><rect fill="#F1F1F1" height="48" rx="2.5" ry="2.5" style="stroke:#181818;stroke-width:0.5;" width="160.748" x="212.5" y="7"/><ellipse cx="227.5" cy="23" fill="#ADD1B2" rx="11" ry="11" style="stroke:#181818;stroke-width:1;"/><path d="M230.4688,28.6406 Q229.8906,28.9375 229.25,29.0781 Q228.6094,29.2344 227.9063,29.2344 Q225.4063,29.2344 224.0781,27.5938 Q222.7656,25.9375 222.7656,22.8125 Q222.7656,19.6875 224.0781,18.0313 Q225.4063,16.375 227.9063,16.375 Q228.6094,16.375 229.25,16.5313 Q229.9063,16.6875 230.4688,16.9844 L230.4688,19.7031 Q229.8438,19.125 229.25,18.8594 Q228.6563,18.5781 228.0313,18.5781 Q226.6875,18.5781 226,19.6563 Q225.3125,20.7188 225.3125,22.8125 Q225.3125,24.9063 226,25.9844 Q226.6875,27.0469 228.0313,27.0469 Q228.6563,27.0469 229.25,26.7813 Q229.8438,26.5 230.4688,25.9219 L230.4688,28.6406 Z " fill="#000000"/><text fill="#000000" font-family="sans-serif" font-size="14" lengthAdjust="spacing" textLength="128.748" x="241.5" y="27.8467">PlataformaMusical</text><line style="stroke:#181818;stroke-width:0.5;" x1="213.5" x2="372.248" y1="39" y2="39"/><line style="stroke:#181818;stroke-width:0.5;" x1="213.5" x2="372.248" y1="47" y2="47"/></g><!--class Suscripcion--><g class="entity" data-entity="Suscripcion" data-source-line="29" data-uid="ent0009" id="entity_Suscripcion"><rect fill="#F1F1F1" height="48" rx="2.5" ry="2.5" style="stroke:#181818;stroke-width:0.5;" width="112.3086" x="237" y="223"/><ellipse cx="252" cy="239" fill="#ADD1B2" rx="11" ry="11" style="stroke:#181818;stroke-width:1;"/><path d="M254.9688,244.6406 Q254.3906,244.9375 253.75,245.0781 Q253.1094,245.2344 252.4063,245.2344 Q249.9063,245.2344 248.5781,243.5938 Q247.2656,241.9375 247.2656,238.8125 Q247.2656,235.6875 248.5781,234.0313 Q249.9063,232.375 252.4063,232.375 Q253.1094,232.375 253.75,232.5313 Q254.4063,232.6875 254.9688,232.9844 L254.9688,235.7031 Q254.3438,235.125 253.75,234.8594 Q253.1563,234.5781 252.5313,234.5781 Q251.1875,234.5781 250.5,235.6563 Q249.8125,236.7188 249.8125,238.8125 Q249.8125,240.9063 250.5,241.9844 Q251.1875,243.0469 252.5313,243.0469 Q253.1563,243.0469 253.75,242.7813 Q254.3438,242.5 254.9688,241.9219 L254.9688,244.6406 Z " fill="#000000"/><text fill="#000000" font-family="sans-serif" font-size="14" lengthAdjust="spacing" textLength="80.3086" x="266" y="243.8467">Suscripcion</text><line style="stroke:#181818;stroke-width:0.5;" x1="238" x2="348.3086" y1="255" y2="255"/><line style="stroke:#181818;stroke-width:0.5;" x1="238" x2="348.3086" y1="263" y2="263"/></g><!--class Genero--><g class="entity" data-entity="Genero" data-source-line="33" data-uid="ent0010" id="entity_Genero"><rect fill="#F1F1F1" height="48" rx="2.5" ry="2.5" style="stroke:#181818;stroke-width:0.5;" width="83.2695" x="417.5" y="439"/><ellipse cx="432.5" cy="455" fill="#ADD1B2" rx="11" ry="11" style="stroke:#181818;stroke-width:1;"/><path d="M435.4688,460.6406 Q434.8906,460.9375 434.25,461.0781 Q433.6094,461.2344 432.9063,461.2344 Q430.4063,461.2344 429.0781,459.5938 Q427.7656,457.9375 427.7656,454.8125 Q427.7656,451.6875 429.0781,450.0313 Q430.4063,448.375 432.9063,448.375 Q433.6094,448.375 434.25,448.5313 Q434.9063,448.6875 435.4688,448.9844 L435.4688,451.7031 Q434.8438,451.125 434.25,450.8594 Q433.6563,450.5781 433.0313,450.5781 Q431.6875,450.5781 431,451.6563 Q430.3125,452.7188 430.3125,454.8125 Q430.3125,456.9063 431,457.9844 Q431.6875,459.0469 433.0313,459.0469 Q433.6563,459.0469 434.25,458.7813 Q434.8438,458.5 435.4688,457.9219 L435.4688,460.6406 Z " fill="#000000"/><text fill="#000000" font-family="sans-serif" font-size="14" lengthAdjust="spacing" textLength="51.2695" x="446.5" y="459.8467">Genero</text><line style="stroke:#181818;stroke-width:0.5;" x1="418.5" x2="499.7695" y1="471" y2="471"/><line style="stroke:#181818;stroke-width:0.5;" x1="418.5" x2="499.7695" y1="479" y2="479"/></g><!--class HistorialReproduccion--><g class="entity" data-entity="HistorialReproduccion" data-source-line="37" data-uid="ent0011" id="entity_HistorialReproduccion"><rect fill="#F1F1F1" height="48" rx="2.5" ry="2.5" style="stroke:#181818;stroke-width:0.5;" width="185.9111" x="384" y="223"/><ellipse cx="399" cy="239" fill="#ADD1B2" rx="11" ry="11" style="stroke:#181818;stroke-width:1;"/><path d="M401.9688,244.6406 Q401.3906,244.9375 400.75,245.0781 Q400.1094,245.2344 399.4063,245.2344 Q396.9063,245.2344 395.5781,243.5938 Q394.2656,241.9375 394.2656,238.8125 Q394.2656,235.6875 395.5781,234.0313 Q396.9063,232.375 399.4063,232.375 Q400.1094,232.375 400.75,232.5313 Q401.4063,232.6875 401.9688,232.9844 L401.9688,235.7031 Q401.3438,235.125 400.75,234.8594 Q400.1563,234.5781 399.5313,234.5781 Q398.1875,234.5781 397.5,235.6563 Q396.8125,236.7188 396.8125,238.8125 Q396.8125,240.9063 397.5,241.9844 Q398.1875,243.0469 399.5313,243.0469 Q400.1563,243.0469 400.75,242.7813 Q401.3438,242.5 401.9688,241.9219 L401.9688,244.6406 Z " fill="#000000"/><text fill="#000000" font-family="sans-serif" font-size="14" lengthAdjust="spacing" textLength="153.9111" x="413" y="243.8467">HistorialReproduccion</text><line style="stroke:#181818;stroke-width:0.5;" x1="385" x2="568.9111" y1="255" y2="255"/><line style="stroke:#181818;stroke-width:0.5;" x1="385" x2="568.9111" y1="263" y2="263"/></g><!--class Reproductor--><g class="entity" data-entity="Reproductor" data-source-line="39" data-uid="ent0012" id="entity_Reproductor"><rect fill="#F1F1F1" height="48" rx="2.5" ry="2.5" style="stroke:#181818;stroke-width:0.5;" width="118.8164" x="717.5" y="223"/><ellipse cx="732.5" cy="239" fill="#ADD1B2" rx="11" ry="11" style="stroke:#181818;stroke-width:1;"/><path d="M735.4688,244.6406 Q734.8906,244.9375 734.25,245.0781 Q733.6094,245.2344 732.9063,245.2344 Q730.4063,245.2344 729.0781,243.5938 Q727.7656,241.9375 727.7656,238.8125 Q727.7656,235.6875 729.0781,234.0313 Q730.4063,232.375 732.9063,232.375 Q733.6094,232.375 734.25,232.5313 Q734.9063,232.6875 735.4688,232.9844 L735.4688,235.7031 Q734.8438,235.125 734.25,234.8594 Q733.6563,234.5781 733.0313,234.5781 Q731.6875,234.5781 731,235.6563 Q730.3125,236.7188 730.3125,238.8125 Q730.3125,240.9063 731,241.9844 Q731.6875,243.0469 733.0313,243.0469 Q733.6563,243.0469 734.25,242.7813 Q734.8438,242.5 735.4688,241.9219 L735.4688,244.6406 Z " fill="#000000"/><text fill="#000000" font-family="sans-serif" font-size="14" lengthAdjust="spacing" textLength="86.8164" x="746.5" y="243.8467">Reproductor</text><line style="stroke:#181818;stroke-width:0.5;" x1="718.5" x2="835.3164" y1="255" y2="255"/><line style="stroke:#181818;stroke-width:0.5;" x1="718.5" x2="835.3164" y1="263" y2="263"/></g><!--reverse link Cancion to Audio--><g class="link" data-entity-1="Cancion" data-entity-2="Audio" data-source-line="42" data-uid="lnk13" id="link_Cancion_Audio"><path codeLine="42" d="M384.2445,389.6103 C374.9145,407.2703 367.69,420.94 358.32,438.68" fill="none" id="Cancion-backto-Audio" style="stroke:#181818;stroke-width:1;"/><polygon fill="#181818" points="389.85,379,383.5105,382.4366,384.2445,389.6103,390.584,386.1737,389.85,379" style="stroke:#181818;stroke-width:1;"/></g><!--reverse link Playlist to Cancion--><g class="link" data-entity-1="Playlist" data-entity-2="Cancion" data-source-line="43" data-uid="lnk14" id="link_Playlist_Cancion"><path codeLine="43" d="M213.1441,270.9322 C256.4241,289.9722 313.33,315 357.75,334.54" fill="none" id="Playlist-backto-Cancion" style="stroke:#181818;stroke-width:1;"/><polygon fill="none" points="202.16,266.1,206.0413,272.1775,213.1441,270.9322,209.2628,264.8547,202.16,266.1" style="stroke:#181818;stroke-width:1;"/></g><!--reverse link Album to Cancion--><g class="link" data-entity-1="Album" data-entity-2="Cancion" data-source-line="44" data-uid="lnk15" id="link_Album_Cancion"><path codeLine="44" d="M594.3985,269.7253 C551.0285,288.7253 491.76,314.69 446.22,334.63" fill="none" id="Album-backto-Cancion" style="stroke:#181818;stroke-width:1;"/><polygon fill="none" points="605.39,264.91,598.2892,263.6538,594.3985,269.7253,601.4993,270.9815,605.39,264.91" style="stroke:#181818;stroke-width:1;"/></g><!--reverse link Usuario to HistorialReproduccion--><g class="link" data-entity-1="Usuario" data-entity-2="HistorialReproduccion" data-source-line="45" data-uid="lnk16" id="link_Usuario_HistorialReproduccion"><path codeLine="45" d="M343.3272,168.9915 C374.0772,186.7115 406.02,205.11 436.84,222.86" fill="none" id="Usuario-backto-HistorialReproduccion" style="stroke:#181818;stroke-width:1;"/><polygon fill="none" points="332.93,163,336.1314,169.4615,343.3272,168.9915,340.1258,162.53,332.93,163" style="stroke:#181818;stroke-width:1;"/></g><!--link Artista to Cancion--><g class="link" data-entity-1="Artista" data-entity-2="Cancion" data-source-line="47" data-uid="lnk17" id="link_Artista_Cancion"><path codeLine="47" d="M85.24,264.81 C90.83,267 96.53,269.13 102,271 C191.47,301.63 292.9804,327.7504 351.9504,342.1104" fill="none" id="Artista-to-Cancion" style="stroke:#181818;stroke-width:1;"/><polygon fill="#181818" points="357.78,343.53,349.9819,337.5142,352.922,342.347,348.0891,345.287,357.78,343.53" style="stroke:#181818;stroke-width:1;"/></g><!--link Usuario to Playlist--><g class="link" data-entity-1="Usuario" data-entity-2="Playlist" data-source-line="48" data-uid="lnk18" id="link_Usuario_Playlist"><path codeLine="48" d="M264.36,163 C242.37,180.66 216.8082,201.1831 194.7182,218.9231" fill="none" id="Usuario-to-Playlist" style="stroke:#181818;stroke-width:1;"/><polygon fill="#181818" points="190.04,222.68,199.5619,220.1634,193.9385,219.5492,194.5526,213.9258,190.04,222.68" style="stroke:#181818;stroke-width:1;"/></g><!--link Usuario to Suscripcion--><g class="link" data-entity-1="Usuario" data-entity-2="Suscripcion" data-source-line="49" data-uid="lnk19" id="link_Usuario_Suscripcion"><path codeLine="49" d="M293,163 C293,180.66 293,198.94 293,216.68" fill="none" id="Usuario-to-Suscripcion" style="stroke:#181818;stroke-width:1;"/><polygon fill="#181818" points="293,222.68,297,213.68,293,217.68,289,213.68,293,222.68" style="stroke:#181818;stroke-width:1;"/></g><!--link PlataformaMusical to Usuario--><g class="link" data-entity-1="PlataformaMusical" data-entity-2="Usuario" data-source-line="50" data-uid="lnk20" id="link_PlataformaMusical_Usuario"><path codeLine="50" d="M293,55 C293,72.66 293,90.94 293,108.68" fill="none" id="PlataformaMusical-to-Usuario" style="stroke:#181818;stroke-width:1;"/><polygon fill="#181818" points="293,114.68,297,105.68,293,109.68,289,105.68,293,114.68" style="stroke:#181818;stroke-width:1;"/></g><!--link Cancion to Genero--><g class="link" data-entity-1="Cancion" data-entity-2="Genero" data-source-line="51" data-uid="lnk21" id="link_Cancion_Genero"><path codeLine="51" d="M414.37,379 C423.86,396.66 434.0782,415.6556 443.6182,433.3956" fill="none" id="Cancion-to-Genero" style="stroke:#181818;stroke-width:1;"/><polygon fill="#181818" points="446.46,438.68,445.7203,428.859,444.0919,434.2764,438.6745,432.648,446.46,438.68" style="stroke:#181818;stroke-width:1;"/></g><!--link Reproductor to Cancion--><g class="link" data-entity-1="Reproductor" data-entity-2="Cancion" data-source-line="53" data-uid="lnk22" id="link_Reproductor_Cancion"><path codeLine="53" d="M717.34,265.94 C711.49,267.66 705.63,269.38 700,271 C609.96,296.98 509.9977,324.5281 451.7877,340.4381" fill="none" id="Reproductor-to-Cancion" style="stroke:#181818;stroke-width:1;stroke-dasharray:7,7;"/><polygon fill="#181818" points="446,342.02,455.7362,343.5056,450.8231,340.7017,453.627,335.7887,446,342.02" style="stroke:#181818;stroke-width:1;"/></g><!--SRC=[TP112i8m44NtSuhk124zWY0kT2E8uW76D49WsiXCin3nxYQsAHsBoxp_9t_-M4AHQeUTzQ6hNW1l0FjbszZue0dtNdfKx4Juf4IraMwnLUGg4VddkpJQuprmYySetY8fzHB5idyirjgxph7-w93o0tkaitjmQABDGqKiB3a0Lkb9c6KdK4glZHdAmbGc93JAC9IPar8cip_PvLJ6R1PZcPKa1MULONcSx1ZTq-gP3GS1c1MjwdgA_G00]--></g></svg>