<?xml version="1.0" standalone="no"?>
<!DOCTYPE svg PUBLIC "-//W3C//DTD SVG 20010904//EN"
 "http://www.w3.org/TR/2001/REC-SVG-20010904/DTD/svg10.dtd">
<svg version="1.0" xmlns="http://www.w3.org/2000/svg"
 width="696.000000pt" height="492.000000pt" viewBox="0 0 696.000000 492.000000"
 preserveAspectRatio="xMidYMid meet">

<g transform="translate(0.000000,492.000000) scale(0.100000,-0.100000)"
fill="#000000" stroke="none">
<path d="M2213 4648 c-13 -6 -23 -15 -23 -20 0 -4 -9 -8 -20 -8 -24 0 -44 -42
-34 -72 9 -31 49 -51 73 -38 25 13 27 40 5 81 -8 17 -14 32 -12 34 2 1 17 10
33 18 33 18 13 22 -22 5z m-10 -72 c14 -31 14 -36 1 -47 -30 -25 -66 24 -50
67 9 24 32 15 49 -20z"/>
<path d="M3786 4648 c-17 -56 -24 -103 -16 -106 6 -2 10 -17 10 -33 0 -16 5
-29 10 -29 6 0 10 9 10 19 0 55 32 69 49 21 5 -16 15 -30 22 -30 6 0 9 6 6 13
-3 6 -8 20 -12 29 -5 12 -1 17 16 20 12 2 24 9 27 17 3 10 -3 12 -27 9 -29 -4
-33 -1 -51 39 -19 42 -37 55 -44 31z"/>
<path d="M4700 4624 c-26 -77 16 -147 88 -147 45 0 62 8 62 29 0 16 -26 19
-35 4 -12 -19 -61 -10 -85 15 -20 21 -22 31 -17 80 3 30 4 55 2 55 -2 0 -9
-16 -15 -36z"/>
<path d="M460 4635 l-35 -15 35 7 c19 3 43 6 53 5 22 -1 67 -29 67 -41 0 -16
-28 -32 -64 -38 -35 -5 -36 -5 -37 28 -1 27 -3 24 -9 -16 -7 -53 -2 -98 10
-90 4 2 5 15 3 27 -4 20 3 25 45 41 60 21 72 42 40 73 -30 30 -65 36 -108 19z"/>
<path d="M1056 4635 c-21 -21 -29 -75 -17 -108 15 -38 20 -34 14 12 -8 60 3
93 30 89 31 -4 30 -49 0 -63 -13 -5 -23 -12 -23 -15 0 -8 90 -43 96 -37 3 3
-8 13 -25 22 -30 15 -31 17 -16 38 19 28 19 33 -5 57 -24 24 -34 25 -54 5z"/>
<path d="M1197 4643 c-3 -5 -8 -23 -12 -40 -4 -19 -13 -33 -21 -33 -8 0 -14
-4 -14 -10 0 -5 9 -10 19 -10 12 0 21 -8 24 -22 4 -22 4 -22 6 -2 1 14 10 24
26 28 32 8 45 1 45 -25 0 -10 5 -19 11 -19 17 0 2 48 -32 97 -29 42 -43 51
-52 36z m37 -35 c22 -31 20 -38 -9 -38 -21 0 -25 5 -25 30 0 36 13 38 34 8z"/>
<path d="M1851 4613 c-13 -46 -14 -83 -2 -83 5 0 11 9 14 20 7 28 31 25 45 -5
6 -14 16 -25 22 -25 13 0 13 6 0 31 -7 13 -7 19 0 19 5 0 10 5 10 10 0 6 -6
10 -14 10 -8 0 -19 14 -25 30 -14 42 -38 38 -50 -7z m39 -20 c0 -7 -7 -13 -16
-13 -11 0 -14 5 -10 16 3 9 6 21 6 27 0 16 20 -14 20 -30z"/>
<path d="M2395 4630 c-13 -15 -16 -28 -10 -56 6 -35 5 -37 -11 -23 -10 8 -31
29 -47 47 -22 24 -33 30 -42 22 -10 -8 -15 -6 -19 7 -6 20 2 -46 10 -89 9 -47
19 -31 16 24 l-3 53 41 -47 c24 -28 50 -48 62 -48 18 0 19 4 14 35 -8 43 0 75
20 75 8 0 14 5 14 10 0 17 -26 11 -45 -10z"/>
<path d="M2834 4615 c-18 -44 -18 -47 7 -79 27 -34 86 -37 97 -5 7 19 9 19 21
5 18 -22 64 -20 85 3 15 16 16 23 6 43 -22 41 -42 58 -71 58 -29 0 -34 -8 -41
-70 -4 -35 -50 -50 -78 -25 -24 22 -25 43 -4 74 12 17 22 21 41 16 16 -4 22
-2 18 5 -3 5 -20 10 -36 10 -25 0 -33 -6 -45 -35z m168 -12 c33 -31 35 -48 9
-63 -25 -13 -27 -13 -45 6 -23 22 -21 84 3 84 3 0 18 -12 33 -27z"/>
<path d="M3061 4641 c-21 -13 -7 -37 39 -66 44 -27 48 -48 12 -53 -15 -2 -22
2 -22 12 0 9 -4 16 -10 16 -22 0 -10 -40 14 -46 31 -7 66 11 66 36 0 19 -38
55 -71 65 -25 8 -24 25 1 25 11 0 20 5 20 10 0 12 -30 13 -49 1z"/>
<path d="M4564 4624 c-20 -29 -20 -94 -2 -127 12 -20 13 -18 16 26 3 39 6 47
22 47 12 0 29 -15 42 -35 13 -19 29 -35 36 -35 16 0 15 16 -4 45 -9 13 -13 29
-9 35 3 5 0 10 -8 10 -8 0 -20 14 -26 30 -13 38 -44 40 -67 4z m46 -30 c0 -8
-7 -14 -15 -14 -17 0 -18 2 -9 24 7 18 24 12 24 -10z"/>
<path d="M1545 4630 c-22 -4 -33 -8 -23 -9 12 -1 18 -15 23 -51 4 -27 11 -50
17 -50 6 0 7 8 3 18 -4 9 -9 32 -12 50 -5 31 -4 32 26 32 19 0 30 4 26 10 -3
6 -9 9 -13 9 -4 -1 -25 -5 -47 -9z"/>
<path d="M2700 4631 c-20 -5 -26 -14 -28 -45 -6 -66 47 -113 97 -86 33 17 25
29 -19 27 -50 -3 -52 14 -3 30 l38 13 -48 -5 c-48 -5 -48 -4 -45 23 3 24 9 28
58 39 52 10 53 11 15 11 -22 0 -51 -3 -65 -7z"/>
<path d="M3383 4633 c-48 -5 -59 -23 -13 -23 26 0 30 -5 41 -42 13 -52 18 -60
29 -53 4 2 0 25 -8 49 -18 49 -14 61 15 52 14 -4 19 -16 19 -40 0 -19 6 -42
14 -51 30 -36 100 -43 100 -10 0 11 -8 13 -29 9 -29 -6 -71 9 -71 26 0 5 15
11 33 13 l32 4 -32 1 c-26 2 -33 6 -33 22 0 16 7 20 33 21 17 1 46 5 62 9 22
6 8 8 -48 8 -42 -1 -80 2 -84 5 -3 4 -9 6 -12 5 -3 -1 -25 -3 -48 -5z"/>
<path d="M4102 4598 c4 -60 -22 -64 -57 -9 -27 45 -41 51 -49 24 -8 -26 17
-116 33 -121 11 -4 13 2 8 27 -7 31 -6 32 15 16 13 -8 33 -15 46 -15 12 0 25
-7 28 -15 4 -8 15 -15 27 -15 19 0 19 1 4 18 -10 10 -17 27 -17 37 0 29 -22
95 -32 95 -6 0 -8 -19 -6 -42z"/>
<path d="M617 4612 c-19 -20 -23 -88 -7 -112 8 -12 10 -11 10 8 0 27 8 27 40
2 26 -21 40 -25 40 -12 0 4 -16 17 -36 30 l-36 23 27 25 c15 13 25 30 22 37
-6 20 -42 19 -60 -1z m43 -6 c0 -7 -7 -19 -15 -26 -13 -10 -18 -11 -28 -1 -9
10 -8 15 7 27 25 18 36 18 36 0z"/>
<path d="M917 4623 c-12 -11 -8 -78 6 -96 15 -20 63 -32 71 -18 5 7 -4 11 -23
11 -20 0 -34 7 -41 20 -11 21 -9 24 35 33 12 3 8 5 -12 6 -46 1 -33 26 20 38
l42 11 -46 1 c-25 0 -49 -2 -52 -6z"/>
<path d="M1436 4609 c-13 -62 -16 -119 -7 -119 5 0 11 30 13 68 4 72 2 89 -6
51z"/>
<path d="M1737 4616 c-14 -11 -17 -25 -15 -63 2 -26 8 -47 13 -45 6 2 9 12 7
22 -3 18 0 17 42 -6 25 -14 54 -24 63 -22 12 3 1 13 -35 31 -48 25 -51 29 -37
44 33 33 -1 67 -38 39z m38 -5 c3 -5 -3 -17 -12 -27 -11 -11 -18 -13 -21 -5
-9 28 18 55 33 32z"/>
<path d="M1987 4623 c-13 -12 -7 -72 8 -87 10 -10 33 -14 65 -14 28 1 46 4 41
7 -5 3 -16 22 -24 41 l-15 35 -1 -32 c-1 -28 -5 -33 -24 -33 -13 0 -28 5 -35
12 -18 18 -15 55 6 67 14 9 15 10 1 11 -9 0 -19 -3 -22 -7z"/>
<path d="M3241 4616 c-16 -19 14 -52 63 -69 54 -18 62 -42 12 -34 -36 6 -50
-6 -20 -17 27 -10 61 -7 74 9 17 21 5 33 -61 62 -32 14 -59 29 -59 33 0 5 12
13 28 18 l27 10 -26 1 c-15 1 -32 -5 -38 -13z"/>
<path d="M3705 4620 c-3 -5 -3 -21 1 -35 5 -22 3 -25 -20 -25 -19 0 -32 8 -44
30 -9 16 -20 30 -24 30 -12 0 -10 -52 3 -89 15 -41 33 -41 24 2 -6 26 -5 30 6
20 7 -7 27 -13 45 -13 19 0 34 -6 38 -15 3 -8 12 -15 21 -15 14 0 14 3 1 28
-7 15 -17 42 -21 60 -7 32 -18 41 -30 22z"/>
<path d="M4290 4607 c0 -13 14 -36 30 -52 33 -32 38 -45 15 -45 -8 0 -15 5
-15 10 0 6 -4 10 -10 10 -5 0 -10 -9 -10 -21 0 -17 5 -20 37 -17 53 4 53 27 1
77 l-43 41 30 0 c23 0 27 3 15 10 -27 18 -50 12 -50 -13z"/>
<path d="M4466 4608 c-23 -32 -20 -65 9 -93 24 -25 75 -35 75 -15 0 6 -8 10
-18 10 -52 0 -81 63 -45 102 9 10 11 18 5 18 -6 0 -18 -10 -26 -22z"/>
<path d="M772 4605 c-17 -20 -1 -125 19 -125 6 0 7 22 4 53 -4 38 -3 46 4 30
11 -25 40 -42 59 -36 6 3 12 -2 12 -11 0 -9 5 -16 11 -16 7 0 8 7 4 18 -5 9
-11 37 -15 62 -7 44 -13 40 -14 -10 -2 -42 -31 -36 -50 10 -18 45 -17 44 -34
25z"/>
<path d="M1610 4605 c-30 -36 19 -113 65 -101 36 9 31 27 -6 19 -21 -4 -34 -1
-40 8 -15 25 -10 38 19 42 l27 4 -27 2 c-42 2 -34 17 15 28 l42 11 -41 1 c-26
1 -46 -5 -54 -14z"/>
<path d="M4184 4577 c5 -70 52 -112 93 -82 15 11 16 17 4 56 -7 24 -15 50 -18
58 -3 11 -6 12 -15 3 -9 -9 -8 -23 4 -57 10 -25 13 -47 8 -50 -20 -12 -50 17
-60 58 -17 63 -20 67 -16 14z"/>
<path d="M701 4574 c0 -21 4 -48 9 -59 6 -13 7 -1 3 35 -7 66 -13 78 -12 24z"/>
<path d="M4401 4577 c-1 -41 13 -77 31 -77 6 0 6 6 -3 16 -7 9 -16 34 -20 57
l-6 42 -2 -38z"/>
<path d="M3180 4587 c0 -25 22 -77 32 -77 6 0 7 8 3 18 -4 9 -10 27 -12 40 -6
26 -23 40 -23 19z"/>
<path d="M2465 4520 c-3 -5 -1 -10 4 -10 6 0 11 5 11 10 0 6 -2 10 -4 10 -3 0
-8 -4 -11 -10z"/>
<path d="M580 4430 c0 -5 5 -10 10 -10 6 0 10 5 10 10 0 6 -4 10 -10 10 -5 0
-10 -4 -10 -10z"/>
<path d="M690 4430 c0 -5 5 -10 11 -10 5 0 7 5 4 10 -3 6 -8 10 -11 10 -2 0
-4 -4 -4 -10z"/>
<path d="M940 4430 c0 -5 5 -10 11 -10 5 0 7 5 4 10 -3 6 -8 10 -11 10 -2 0
-4 -4 -4 -10z"/>
<path d="M1020 4430 c0 -5 5 -10 11 -10 5 0 7 5 4 10 -3 6 -8 10 -11 10 -2 0
-4 -4 -4 -10z"/>
<path d="M1125 4430 c-3 -5 1 -10 10 -10 9 0 13 5 10 10 -3 6 -8 10 -10 10 -2
0 -7 -4 -10 -10z"/>
<path d="M1295 4430 c-3 -5 1 -10 10 -10 9 0 13 5 10 10 -3 6 -8 10 -10 10 -2
0 -7 -4 -10 -10z"/>
<path d="M1728 4413 c7 -3 16 -2 19 1 4 3 -2 6 -13 5 -11 0 -14 -3 -6 -6z"/>
<path d="M1768 4403 c7 -3 16 -2 19 1 4 3 -2 6 -13 5 -11 0 -14 -3 -6 -6z"/>
<path d="M4050 3859 c-85 -5 -303 -15 -483 -23 -181 -8 -331 -16 -333 -19 -12
-11 1049 23 1061 34 5 5 -2 9 -20 9 -17 0 -39 2 -50 4 -11 2 -90 0 -175 -5z"/>
<path d="M4286 3779 c-3 -17 -6 -64 -6 -104 l0 -72 -122 -7 c-68 -3 -269 -10
-448 -16 -179 -5 -356 -12 -393 -15 l-68 -5 3 114 c2 63 0 112 -4 108 -12 -13
-12 -457 1 -480 10 -20 17 -21 94 -15 45 3 144 2 219 -2 l137 -7 -30 -60 c-36
-71 -33 -88 4 -26 l26 43 1 -287 0 -288 -62 0 c-35 0 -127 7 -205 15 -105 11
-150 11 -173 3 -39 -13 -34 -21 7 -9 18 5 77 4 154 -5 152 -16 622 -30 702
-20 97 12 55 22 -60 14 -59 -5 -157 -5 -218 -2 l-110 6 -2 265 c-1 237 0 263
13 244 8 -12 22 -21 31 -21 14 0 12 4 -6 24 -21 22 -47 93 -38 102 3 3 116 9
251 13 222 8 269 12 255 25 -2 2 -220 1 -484 -3 -264 -4 -484 -3 -490 2 -5 4
-11 59 -13 121 l-4 113 43 7 c24 4 72 4 108 1 74 -7 839 11 863 20 12 5 16
-10 21 -92 6 -100 20 -159 36 -149 4 3 2 29 -6 58 -11 37 -16 110 -17 235 0
101 -2 183 -2 183 -1 0 -4 -14 -8 -31z"/>
<path d="M3985 3750 c-4 -6 9 -10 32 -10 28 0 34 3 23 10 -20 13 -47 13 -55 0z"/>
<path d="M3852 3743 c-48 -9 -52 -74 -6 -95 19 -9 28 -8 41 4 13 10 34 14 71
11 35 -2 51 0 47 7 -3 5 -17 10 -31 10 -26 0 -31 9 -12 28 10 10 8 16 -5 29
-22 22 -51 7 -55 -28 -3 -28 -34 -51 -57 -43 -21 9 -19 24 4 24 11 0 23 5 26
10 4 7 -2 9 -19 4 -20 -5 -26 -2 -26 10 0 10 9 16 25 16 14 0 25 5 25 10 0 6
-1 9 -2 9 -2 -1 -13 -4 -26 -6z m96 -25 c-6 -18 -28 -21 -28 -4 0 9 7 16 16
16 9 0 14 -5 12 -12z"/>
<path d="M4096 3734 c-21 -20 -21 -60 0 -68 55 -21 103 8 82 49 -20 38 -55 46
-82 19z m38 -14 c36 -13 34 -40 -3 -40 -33 0 -46 13 -37 35 6 18 7 18 40 5z"/>
<path d="M3380 3710 c-11 -11 -20 -29 -20 -40 0 -34 66 -54 91 -27 7 7 25 11
41 9 15 -2 36 -1 45 3 10 5 23 7 29 6 7 -1 9 9 6 26 -4 28 -4 28 36 -11 30
-28 45 -37 59 -31 10 4 46 7 81 7 59 1 79 9 47 22 -8 3 -15 12 -15 21 0 8 -5
15 -11 15 -6 0 -9 -6 -6 -14 3 -7 0 -19 -6 -25 -16 -16 -57 -14 -63 4 -8 21
15 47 35 40 12 -4 13 -3 5 5 -14 14 -39 4 -52 -23 -8 -17 -11 -18 -11 -5 -1 9
-6 20 -13 24 -8 5 -9 -2 -5 -24 8 -40 -1 -40 -38 -2 -30 31 -51 38 -57 19 -2
-7 -12 -7 -30 2 -31 14 -54 1 -69 -38 -7 -18 -16 -23 -44 -23 -43 0 -55 22
-29 51 13 14 27 19 46 17 16 -3 28 -1 28 4 0 16 -61 7 -80 -12z m148 -42 c-17
-11 -46 -10 -53 1 -3 5 2 17 11 26 15 15 18 15 35 -1 15 -14 17 -19 7 -26z"/>
<path d="M4018 3700 c2 -17 9 -33 15 -37 6 -4 8 2 4 18 -4 13 -7 30 -7 37 0 6
-4 12 -8 12 -5 0 -7 -14 -4 -30z"/>
<path d="M4510 3653 c-108 -2 -178 -8 -185 -14 -7 -8 -3 -9 15 -3 28 9 1805
11 2115 2 118 -4 180 -3 150 2 -53 9 -1796 20 -2095 13z"/>
<path d="M6680 3625 c-1 -22 -1 -96 1 -165 1 -69 3 -323 4 -565 0 -242 4 -573
9 -736 l9 -295 -244 -22 c-134 -13 -257 -25 -274 -29 l-30 -6 44 51 c56 68 36
67 -24 0 l-46 -53 6 106 c4 59 3 109 -2 112 -4 3 -9 -41 -11 -96 -2 -56 -5
-109 -7 -117 -4 -13 -51 -15 -342 -15 -186 0 -411 -4 -500 -9 l-163 -9 0 49
c0 83 -13 244 -19 244 -3 0 -5 -62 -3 -138 l3 -137 -88 -31 c-48 -17 -149 -51
-223 -76 -74 -25 -157 -55 -185 -66 -27 -12 -90 -37 -140 -55 -49 -19 -98 -37
-107 -42 -29 -12 -21 14 17 61 37 45 47 68 18 41 -10 -8 -22 -15 -28 -15 -5 0
-22 -24 -38 -53 l-28 -54 4 145 c2 88 0 133 -5 115 -4 -16 -11 -119 -14 -228
-3 -109 -8 -205 -11 -214 -7 -19 17 -35 33 -22 8 7 9 21 3 47 -5 20 -9 53 -9
72 l0 35 82 0 c54 0 83 4 85 12 3 8 -16 13 -64 15 l-68 3 100 39 c55 22 150
59 210 83 61 24 161 60 223 79 63 19 138 46 168 59 l54 24 -3 -112 c-1 -62 1
-113 6 -115 4 -1 9 46 12 104 2 59 6 109 9 111 3 3 224 7 493 9 268 3 494 6
501 9 9 3 12 -20 12 -98 0 -56 3 -119 6 -139 l6 -37 -463 2 c-313 1 -480 -2
-514 -10 -40 -9 -7 -10 168 -5 119 3 218 3 219 1 0 -2 4 -214 7 -471 5 -350 9
-470 18 -479 7 -7 15 -10 18 -7 3 3 -2 184 -10 404 -8 219 -15 435 -15 478 l0
79 93 -7 c189 -13 414 -19 461 -12 48 7 48 8 42 39 -13 66 -19 257 -8 257 7 0
26 -9 44 -20 33 -20 78 -27 78 -12 0 9 -80 42 -103 42 -10 0 -16 4 -13 9 3 5
56 12 118 15 62 4 186 12 275 18 130 9 165 8 178 -2 18 -15 17 -34 15 220 0
102 -5 273 -10 380 -6 107 -13 362 -16 565 -5 370 -18 715 -24 640z"/>
<path d="M5278 3353 c-93 -2 -168 -7 -168 -11 0 -4 284 -8 630 -10 565 -3 630
-1 630 12 0 14 -50 16 -462 14 -255 -1 -538 -4 -630 -5z"/>
<path d="M5131 3188 c-1 -116 -3 -138 -16 -138 -8 0 -15 -4 -15 -10 0 -5 5
-10 10 -10 11 0 13 -71 4 -107 -4 -15 -14 -23 -28 -23 -33 0 -143 -39 -157
-56 -19 -23 -6 -26 42 -9 l44 15 -25 -20 c-14 -10 -47 -31 -75 -46 -27 -15
-122 -76 -210 -136 -140 -95 -228 -158 -439 -314 l-49 -36 5 146 c2 80 2 143
-1 141 -8 -9 -19 -291 -12 -350 3 -32 11 -60 18 -62 9 -3 10 4 2 29 -19 69
-13 84 49 127 31 22 111 78 177 125 236 166 261 183 345 235 232 143 260 159
250 141 -12 -22 -13 -50 -2 -50 4 0 20 24 34 53 l27 52 0 -62 c1 -40 6 -67 16
-76 12 -13 89 -15 540 -14 342 1 525 5 525 12 0 7 -180 9 -525 7 l-525 -4 0
141 0 141 138 1 c709 8 1047 15 1047 24 0 20 -307 24 -695 10 -212 -8 -407
-15 -435 -15 l-50 0 3 82 c2 46 -1 108 -6 138 -8 48 -10 37 -11 -82z"/>
<path d="M6369 3208 c-15 -110 -19 -421 -6 -434 4 -4 12 -3 17 2 7 7 6 51 -2
132 -9 96 -9 151 0 258 7 75 11 139 8 141 -2 2 -10 -42 -17 -99z"/>
<path d="M5262 3228 c-11 -14 -15 -33 -13 -59 2 -32 96 -54 107 -24 5 11 10
12 23 3 10 -6 30 -8 44 -4 21 5 27 12 27 34 0 35 -16 52 -51 52 -27 0 -39 -15
-39 -51 0 -15 -7 -19 -39 -19 -48 0 -67 19 -51 50 9 17 19 21 40 18 16 -2 27
-1 24 4 -8 13 -60 9 -72 -4z m153 -22 c23 -16 14 -46 -15 -46 -23 0 -35 22
-26 45 7 19 17 19 41 1z"/>
<path d="M5540 3217 c0 -32 -10 -34 -35 -7 -10 11 -24 20 -32 20 -13 0 -18
-36 -7 -64 10 -26 22 -18 16 12 -5 26 -4 26 15 10 11 -10 27 -18 35 -18 9 0
21 -7 28 -15 21 -26 29 -6 13 33 -21 51 -33 62 -33 29z"/>
<path d="M5604 3225 c-8 -21 4 -83 18 -91 7 -5 9 0 6 14 -4 12 -2 22 2 22 5 0
15 3 24 6 10 4 16 1 16 -10 0 -24 38 -40 66 -27 35 16 34 66 -2 75 -14 4 -34
4 -44 1 -11 -3 -20 0 -24 10 -7 19 -55 20 -62 0z m54 -18 c2 -11 -3 -17 -17
-17 -23 0 -35 15 -26 31 10 15 39 6 43 -14z m77 -18 c6 -19 -7 -38 -26 -39
-14 0 -29 28 -23 44 9 23 41 20 49 -5z"/>
<path d="M5781 3226 c-10 -11 -8 -18 9 -34 20 -18 20 -20 3 -27 -16 -6 -16 -8
5 -16 25 -10 52 -2 52 15 0 6 -14 20 -32 31 -18 10 -27 20 -20 23 14 4 16 22
3 22 -5 0 -14 -6 -20 -14z"/>
<path d="M5845 3230 c-3 -5 1 -10 9 -10 9 0 15 -3 15 -7 -4 -27 3 -73 11 -73
6 0 8 11 5 25 -3 14 -7 36 -10 50 -6 26 -19 33 -30 15z"/>
<path d="M6132 3228 c-16 -16 -15 -60 2 -84 20 -27 28 -14 14 24 -9 24 -9 35
-1 43 18 18 35 0 28 -31 -6 -27 -4 -30 35 -40 40 -11 65 -6 55 9 -2 5 -17 11
-33 14 -19 4 -28 12 -29 27 -4 43 -44 65 -71 38z"/>
<path d="M5920 3220 c0 -5 6 -10 14 -10 8 0 16 -16 20 -40 3 -22 10 -40 15
-40 6 0 7 16 4 35 -4 28 -1 39 13 50 17 13 16 14 -23 15 -24 0 -43 -4 -43 -10z"/>
<path d="M6022 3208 c-20 -20 -15 -66 8 -78 47 -25 85 20 56 65 -18 27 -45 32
-64 13z m46 -32 c2 -10 -1 -23 -7 -29 -15 -15 -46 16 -37 38 8 21 40 15 44 -9z"/>
<path d="M5682 2670 c-3 -109 -24 -476 -28 -499 -5 -22 -6 -21 -25 15 -11 22
-26 57 -34 79 l-14 40 -1 -45 c0 -30 10 -66 29 -106 l29 -61 -222 -6 c-197 -5
-290 -16 -273 -33 3 -3 16 0 28 7 23 12 282 9 737 -9 89 -4 167 -5 173 -4 6 3
6 9 -2 18 -9 11 -51 14 -205 14 -166 0 -194 2 -194 15 0 19 39 103 51 111 5 3
9 15 9 27 -1 21 -2 20 -26 -8 l-26 -30 5 190 c2 105 1 224 -3 265 -6 71 -7 72
-8 20z"/>
<path d="M1037 2643 c-3 -5 34 -9 82 -10 47 -1 172 -6 276 -12 245 -14 495
-14 495 -1 0 6 -6 12 -12 14 -25 8 -837 16 -841 9z"/>
<path d="M3237 2520 c-4 -74 -12 -139 -17 -144 -6 -6 -192 -13 -483 -17 -259
-4 -546 -10 -635 -12 l-164 -5 26 27 c41 43 30 59 -12 18 -21 -20 -40 -37 -42
-37 -3 0 -4 62 -3 137 2 191 -12 108 -22 -127 -12 -274 -8 -330 21 -330 12 0
14 5 9 18 -8 18 -20 272 -13 272 2 0 28 -12 57 -26 35 -16 57 -22 63 -16 11
11 -15 29 -61 43 -14 4 215 8 509 8 294 1 585 4 645 7 l110 7 -4 -59 -3 -59
-67 -41 c-36 -22 -91 -51 -121 -65 -30 -13 -134 -64 -230 -112 -96 -49 -197
-98 -225 -109 -43 -17 -134 -62 -338 -166 -26 -14 -45 -27 -43 -29 2 -3 35 11
73 30 113 58 303 147 315 147 7 0 100 44 207 98 108 54 225 112 261 127 36 16
87 44 114 62 50 34 61 34 68 -2 6 -32 46 -45 149 -45 53 0 150 -3 217 -7 l121
-6 6 -61 c4 -34 3 -88 -2 -121 l-9 -60 -32 44 c-21 29 -32 38 -32 26 0 -10 12
-33 26 -52 18 -24 21 -34 12 -37 -7 -3 -105 -6 -218 -9 -141 -2 -212 -8 -225
-16 -20 -12 -20 -12 0 -5 11 5 148 9 305 10 157 1 383 2 503 3 194 1 217 3
217 18 0 15 -22 15 -256 9 l-256 -7 21 30 c12 17 26 33 31 36 14 8 12 35 -1
35 -6 0 -20 -11 -31 -25 -11 -14 -22 -25 -26 -25 -4 0 -8 37 -9 83 -2 45 -5
92 -8 104 -5 21 -4 21 159 21 182 0 279 9 273 25 -2 6 -35 9 -88 6 -46 -2
-247 -4 -447 -3 -328 0 -364 2 -380 18 -17 17 -17 16 -13 236 l1 65 107 -2
c610 -9 826 -7 831 5 3 11 -80 13 -462 10 l-465 -3 -3 95 -3 95 -8 -135z"/>
<path d="M3394 2575 c-16 -39 -18 -65 -5 -65 5 0 11 7 15 15 7 20 26 19 42 -2
7 -10 15 -15 18 -12 6 6 -41 99 -50 99 -3 0 -12 -16 -20 -35z m31 -15 c3 -5 1
-10 -4 -10 -6 0 -11 5 -11 10 0 6 2 10 4 10 3 0 8 -4 11 -10z"/>
<path d="M1060 2552 c0 -27 -3 -83 -6 -124 l-7 -75 -21 17 c-11 10 -40 34 -64
53 l-42 35 -56 -33 c-31 -19 -64 -41 -74 -50 -10 -9 -38 -16 -71 -17 l-54 -1
60 -6 c60 -6 97 -23 147 -69 l27 -25 59 26 c33 15 64 27 70 27 7 0 8 -40 5
-119 -3 -65 -3 -129 0 -142 l6 -24 393 -4 c341 -3 395 -1 406 12 10 12 10 16
-4 21 -8 3 -25 4 -37 1 -12 -3 -183 -7 -379 -9 l-358 -4 0 129 0 129 163 0
c89 0 265 -5 391 -10 225 -10 266 -6 240 20 -9 9 -689 17 -759 9 l-30 -4 3 65
c1 36 5 100 8 143 4 53 3 77 -5 77 -6 0 -11 -20 -11 -48z m-167 -247 c-3 -9
-8 -14 -10 -11 -3 3 -2 9 2 15 9 16 15 13 8 -4z"/>
<path d="M3486 2585 c-8 -21 13 -73 23 -57 6 9 15 10 34 3 14 -6 29 -6 32 -2
2 5 -6 12 -19 15 -19 5 -22 11 -18 31 4 21 1 25 -21 25 -14 0 -27 -7 -31 -15z
m42 -7 c-6 -18 -28 -21 -28 -4 0 9 7 16 16 16 9 0 14 -5 12 -12z"/>
<path d="M3575 2591 c-19 -8 -18 -9 5 -12 19 -3 26 -11 28 -31 2 -16 7 -28 11
-28 4 0 6 14 3 30 -3 24 -1 30 14 30 16 0 17 2 4 10 -18 11 -38 12 -65 1z"/>
<path d="M3715 2580 c-8 -13 3 -30 20 -30 8 0 17 -5 20 -11 5 -7 -6 -9 -31 -7
-31 2 -40 8 -45 28 l-7 25 -1 -24 c-2 -39 47 -63 93 -45 26 10 18 31 -16 44
l-33 12 25 8 c23 7 23 8 3 9 -12 1 -25 -3 -28 -9z"/>
<path d="M3780 2579 c-12 -8 -10 -9 8 -4 20 6 22 3 22 -29 0 -20 4 -36 10 -36
5 0 7 13 3 31 -4 21 -1 34 8 40 10 6 7 9 -11 9 -14 0 -32 -5 -40 -11z"/>
<path d="M3887 2570 c-6 -25 2 -60 15 -60 5 0 6 5 3 10 -4 6 6 10 23 10 19 0
35 -8 45 -22 l16 -23 0 22 c2 55 -89 111 -102 63z m53 -5 c11 -13 8 -15 -14
-15 -16 0 -26 5 -26 15 0 8 6 15 14 15 7 0 19 -7 26 -15z"/>
<path d="M1278 2563 c-10 -2 -18 -9 -18 -15 0 -5 7 -7 16 -4 9 3 20 6 25 6 5
0 9 5 9 10 0 10 -3 11 -32 3z"/>
<path d="M1689 2506 c-12 -20 -23 -36 -25 -36 -3 0 -9 12 -14 26 -14 36 -36
25 -32 -17 3 -41 22 -64 23 -28 0 13 3 18 6 12 7 -20 30 -15 47 9 l16 22 0
-24 c0 -40 11 -70 25 -70 11 0 11 8 4 32 -5 18 -9 47 -9 65 0 46 -17 50 -41 9z"/>
<path d="M1418 2513 c-13 -15 -13 -25 -4 -57 14 -49 36 -64 70 -48 32 14 35
51 6 59 -12 3 -20 13 -19 22 3 32 -1 41 -19 41 -11 0 -26 -8 -34 -17z m42 -11
c0 -10 -5 -23 -11 -29 -7 -7 -1 -12 21 -17 19 -3 30 -11 28 -18 -7 -20 -44
-21 -62 -3 -16 16 -22 66 -9 78 13 14 33 7 33 -11z"/>
<path d="M1232 2498 c-15 -39 -23 -108 -13 -108 5 0 13 9 16 20 9 27 49 26 67
-2 30 -45 26 1 -5 52 -37 62 -53 71 -65 38z m30 -50 c-9 -9 -12 -7 -12 12 0
19 3 21 12 12 9 -9 9 -15 0 -24z"/>
<path d="M1335 2477 c3 -27 7 -53 11 -58 7 -12 51 -12 59 1 4 6 -6 10 -23 10
-27 0 -31 4 -41 48 l-10 47 4 -48z"/>
<path d="M1516 2475 c8 -40 23 -57 48 -53 26 4 32 36 11 63 -15 19 -15 18 -9
-18 6 -34 4 -39 -11 -35 -10 1 -24 19 -32 38 -12 32 -13 32 -7 5z"/>
<path d="M651 2185 c-4 -430 -22 -883 -38 -975 -13 -71 -17 -149 -17 -310 l1
-215 581 3 582 2 5 -22 c3 -13 2 -62 -3 -110 -7 -80 -6 -88 10 -94 10 -3 23
-2 30 3 7 4 76 9 153 9 77 1 430 5 785 9 450 5 727 4 915 -4 204 -9 366 -10
665 -1 217 6 512 13 655 15 143 3 329 8 413 11 135 5 153 8 150 23 -4 19 51
19 -643 0 -280 -8 -685 -14 -900 -13 -1289 3 -1510 3 -1700 -6 -115 -6 -273
-13 -351 -16 -116 -6 -142 -4 -146 7 -2 8 -2 51 0 97 l4 82 372 0 c204 0 508
4 676 9 168 5 458 6 645 2 288 -5 342 -4 352 8 8 9 9 19 4 25 -7 9 -31 396
-31 494 0 13 -6 22 -16 22 -13 0 -15 -9 -10 -57 3 -32 7 -148 8 -258 l3 -200
-375 -1 c-206 0 -657 -4 -1002 -9 l-628 -8 0 151 c0 84 3 152 6 152 3 0 14
-20 25 -45 11 -25 26 -45 34 -45 23 0 18 14 -25 85 -22 36 -40 67 -40 69 0 2
81 5 181 8 160 5 220 14 192 31 -4 3 -114 0 -243 -5 -129 -5 -286 -8 -348 -6
-105 3 -115 5 -133 26 -29 37 -39 90 -33 172 l6 75 77 -7 c42 -3 146 -7 232
-7 86 -1 244 -4 353 -8 l197 -6 -2 -131 c-1 -85 2 -131 9 -131 7 0 12 88 16
250 6 290 9 305 43 305 15 0 23 5 21 13 -3 8 -34 14 -89 17 -83 5 -90 20 -9
20 21 0 42 5 46 12 5 8 -7 9 -47 4 -117 -16 -121 -16 -114 2 16 40 23 72 14
67 -5 -4 -9 -13 -9 -21 0 -8 -7 -28 -15 -44 l-16 -30 -332 -1 c-182 -1 -345
-4 -361 -8 -17 -3 107 -7 275 -9 280 -3 586 -15 593 -23 2 -2 -1 -59 -7 -126
l-10 -121 -40 -4 c-22 -2 -217 -2 -433 0 l-392 4 4 52 c3 28 1 85 -4 126 l-9
75 -2 -109 c0 -61 -6 -160 -12 -220 -10 -101 -9 -116 8 -161 27 -72 47 -80
215 -77 l136 2 -34 -67 c-36 -73 -39 -83 -24 -83 5 0 22 24 37 53 l28 52 3
-60 c2 -33 1 -105 -3 -160 l-7 -100 -251 -1 c-139 0 -395 -3 -569 -8 l-318 -7
0 208 c1 138 6 233 15 283 19 97 40 947 27 1070 -9 83 -9 81 -11 -75z"/>
<path d="M5259 1951 c-31 -31 -39 -77 -17 -99 7 -7 31 -12 54 -12 32 0 48 6
68 27 l28 27 18 -24 c30 -40 35 -15 7 37 -31 60 -49 61 -61 6 l-10 -43 -48 0
c-40 0 -48 3 -48 19 0 25 38 71 59 71 9 0 22 -5 29 -12 9 -9 12 -9 12 0 0 10
-38 32 -56 32 -3 0 -19 -13 -35 -29z"/>
<path d="M5728 1947 c-36 -29 -38 -79 -6 -101 12 -9 28 -16 35 -16 20 0 25 39
9 72 -9 17 -14 40 -10 50 7 23 5 22 -28 -5z m22 -57 c15 -35 7 -49 -18 -34
-19 12 -27 38 -18 60 8 20 21 11 36 -26z"/>
<path d="M5526 1903 l6 -48 -39 43 c-22 23 -43 42 -47 42 -9 0 4 -72 15 -84 5
-6 9 0 9 15 l0 24 23 -29 c35 -43 57 -30 57 34 0 39 -4 50 -16 50 -13 0 -14
-8 -8 -47z"/>
<path d="M5860 1930 c-6 -11 -8 -26 -4 -33 4 -6 -4 -2 -18 11 -29 26 -48 28
-48 5 0 -30 12 -63 22 -63 6 0 7 11 4 26 -7 27 -7 27 19 -5 38 -45 59 -42 50
8 -6 34 -4 40 14 46 12 3 19 11 16 16 -11 16 -44 10 -55 -11z"/>
<path d="M5592 1928 c-7 -7 -12 -24 -12 -40 0 -32 26 -49 70 -46 30 2 31 4 25
33 -4 16 -7 38 -7 48 1 9 -4 15 -9 11 -6 -3 -7 -19 -4 -34 5 -23 2 -30 -15
-35 -23 -7 -50 9 -50 31 0 7 7 20 16 28 8 9 12 16 7 16 -5 0 -14 -5 -21 -12z"/>
<path d="M3236 1555 c-5 -132 -9 -258 -10 -280 l-1 -40 40 2 c22 1 239 5 483
9 318 5 442 10 439 18 -4 13 -550 16 -792 4 l-150 -8 3 193 c5 304 -2 365 -12
102z"/>
<path d="M3344 1737 c-32 -28 -36 -74 -8 -94 12 -9 39 -13 76 -11 51 2 57 5
52 21 -5 17 -3 17 35 -3 23 -11 41 -17 41 -12 0 5 -12 15 -27 22 -16 7 -23 15
-15 17 14 6 16 39 2 48 -18 11 -50 -15 -50 -41 0 -24 -1 -24 -22 -10 -24 17
-58 21 -58 8 0 -5 10 -14 23 -20 l22 -11 -26 0 c-14 -1 -34 5 -45 13 -18 14
-18 17 -4 43 16 28 60 45 60 22 0 -7 3 -9 6 -6 8 7 -14 37 -27 37 -4 0 -20
-10 -35 -23z m156 -37 c0 -5 -7 -10 -15 -10 -8 0 -15 5 -15 10 0 6 7 10 15 10
8 0 15 -4 15 -10z"/>
<path d="M3752 1730 c-5 -14 -11 -32 -14 -40 -4 -11 -10 -8 -30 13 -48 51 -80
27 -59 -45 11 -34 16 -39 34 -34 12 3 28 6 35 6 7 0 17 10 22 23 6 16 9 17 9
5 1 -9 6 -20 12 -24 8 -4 9 0 4 15 -9 29 21 28 52 -1 14 -13 23 -17 23 -9 0 9
4 10 13 4 17 -14 105 -24 112 -13 3 6 15 5 30 -2 49 -22 72 14 39 60 -9 13
-14 26 -11 29 12 11 26 -9 32 -47 7 -44 25 -64 25 -28 l0 22 16 -22 c9 -13 26
-22 41 -22 24 0 25 1 18 50 -6 42 -4 50 9 50 21 0 21 19 0 27 -26 10 -45 -25
-38 -67 6 -31 6 -34 -9 -22 -9 8 -19 22 -22 33 -4 10 -13 19 -21 19 -8 0 -14
7 -14 15 0 25 -43 17 -73 -15 -20 -20 -27 -34 -23 -48 10 -31 -33 -16 -45 15
-10 28 -33 20 -26 -9 4 -15 1 -19 -16 -16 -29 4 -35 45 -10 63 10 8 13 15 6
15 -6 0 -20 -12 -31 -26 -20 -29 -19 -29 -61 26 l-19 25 -10 -25z m-67 -20 c3
-5 1 -10 -4 -10 -6 0 -11 -4 -11 -10 0 -5 9 -10 19 -10 11 0 23 -5 26 -11 9
-13 5 -16 -20 -21 -21 -3 -51 44 -40 62 8 13 22 13 30 0z m99 -5 c3 -9 0 -15
-9 -15 -8 0 -15 7 -15 15 0 8 4 15 9 15 5 0 11 -7 15 -15z m232 -22 c19 -25
17 -43 -5 -43 -24 0 -45 25 -37 45 7 20 26 19 42 -2z m-176 -23 c0 -5 -2 -10
-4 -10 -3 0 -8 5 -11 10 -3 6 -1 10 4 10 6 0 11 -4 11 -10z"/>
<path d="M3551 1706 c-11 -20 -10 -28 4 -52 13 -24 15 -25 12 -6 -4 18 -1 22
19 22 14 0 27 -7 30 -15 9 -23 26 -18 19 5 -7 22 -51 70 -64 70 -4 0 -13 -11
-20 -24z m39 -7 c0 -5 -7 -9 -15 -9 -15 0 -20 12 -9 23 8 8 24 -1 24 -14z"/>
<path d="M1698 1593 c6 -2 18 -2 25 0 6 3 1 5 -13 5 -14 0 -19 -2 -12 -5z"/>
<path d="M1910 1582 c-21 -9 -23 -47 -5 -81 16 -31 59 -48 79 -32 7 6 16 8 19
4 4 -3 7 1 7 11 0 15 2 15 25 0 13 -9 30 -14 37 -12 7 3 -2 13 -20 23 l-32 20
22 17 c19 14 21 21 12 35 -6 10 -23 19 -37 21 -32 4 -49 -24 -41 -68 6 -30 5
-31 -21 -28 -33 4 -47 28 -16 28 12 0 21 5 21 10 0 6 -11 10 -25 10 -16 0 -25
6 -25 15 0 10 10 15 31 15 17 0 28 4 24 10 -7 11 -32 12 -55 2z m129 -16 c10
-12 8 -17 -8 -25 -26 -14 -28 -14 -35 6 -4 9 -1 20 6 25 18 11 24 10 37 -6z"/>
<path d="M1552 1564 c-29 -20 -28 -59 2 -89 22 -22 31 -24 117 -22 60 1 94 6
96 14 3 8 -8 10 -37 6 -30 -4 -45 -2 -51 8 -17 27 -10 42 16 37 14 -3 25 -1
25 3 0 5 -11 9 -25 9 -14 0 -25 6 -25 13 0 8 -3 8 -9 -2 -5 -8 -7 -19 -5 -26
3 -7 -7 -10 -31 -7 -21 3 -35 0 -35 -7 0 -6 11 -11 25 -11 14 0 25 -4 25 -10
0 -5 -13 -10 -30 -10 -32 0 -70 30 -70 54 0 24 31 48 56 43 13 -2 21 0 18 4
-8 14 -37 11 -62 -7z"/>
<path d="M2087 1543 c6 -45 35 -73 74 -73 36 0 50 24 37 62 -12 34 -35 48 -82
48 -34 0 -35 0 -29 -37z m84 -4 c27 -27 20 -44 -21 -44 -36 0 -57 22 -47 49 9
22 43 20 68 -5z"/>
<path d="M1683 1563 c9 -2 25 -2 35 0 9 3 1 5 -18 5 -19 0 -27 -2 -17 -5z"/>
<path d="M1770 1532 c0 -16 7 -37 15 -48 17 -23 19 -16 5 23 l-11 28 25 -31
c27 -33 56 -46 76 -34 9 6 9 17 -1 49 -7 22 -16 41 -21 41 -11 0 -10 -27 2
-50 20 -37 -9 -30 -41 10 -38 47 -49 50 -49 12z"/>
<path d="M3535 1550 c-269 -9 -284 -10 -220 -20 28 -5 240 -9 471 -9 341 -1
424 2 433 12 6 8 8 17 4 20 -8 8 -391 6 -688 -3z"/>
</g>
</svg>
