<?xml version="1.0" encoding="us-ascii" standalone="no"?><svg xmlns="http://www.w3.org/2000/svg" xmlns:xlink="http://www.w3.org/1999/xlink" contentStyleType="text/css" height="760px" preserveAspectRatio="none" style="width:632px;height:760px;background:#FFFFFF;" version="1.1" viewBox="0 0 632 760" width="632px" zoomAndPan="magnify"><defs/><g><text fill="#000000" font-family="sans-serif" font-size="14" font-weight="bold" lengthAdjust="spacing" textLength="137" x="240.5" y="24.5332">Ecosistema musical</text><!--class Artista--><g id="elem_Artista"><rect codeLine="3" fill="#F1F1F1" height="48" id="Artista" rx="2.5" ry="2.5" style="stroke:#181818;stroke-width:0.5;" width="72" x="291" y="45.6094"/><ellipse cx="306" cy="61.6094" fill="#ADD1B2" rx="11" ry="11" style="stroke:#181818;stroke-width:1.0;"/><path d="M308.7656,57.4844 Q308.9219,57.2656 309.1094,57.1563 Q309.2969,57.0469 309.5156,57.0469 Q309.8906,57.0469 310.125,57.3125 Q310.3594,57.5625 310.3594,58.1719 L310.3594,59.625 Q310.3594,60.2344 310.125,60.5 Q309.8906,60.7656 309.5156,60.7656 Q309.1719,60.7656 308.9688,60.5625 Q308.7656,60.375 308.6563,59.8594 Q308.6094,59.5 308.4219,59.3125 Q308.0938,58.9375 307.4844,58.7188 Q306.875,58.5 306.25,58.5 Q305.4844,58.5 304.8438,58.8281 Q304.2188,59.1563 303.7188,59.9063 Q303.2344,60.6563 303.2344,61.6875 L303.2344,62.7813 Q303.2344,64.0156 304.125,64.8438 Q305.0156,65.6563 306.6094,65.6563 Q307.5469,65.6563 308.2031,65.4063 Q308.5938,65.25 309.0156,64.8125 Q309.2813,64.5469 309.4219,64.4688 Q309.5781,64.3906 309.7813,64.3906 Q310.1094,64.3906 310.3594,64.6563 Q310.625,64.9063 310.625,65.25 Q310.625,65.5938 310.2813,66 Q309.7813,66.5781 308.9844,66.9063 Q307.9063,67.3594 306.6094,67.3594 Q305.0938,67.3594 303.8906,66.7344 Q302.9063,66.2344 302.2188,65.1719 Q301.5313,64.0938 301.5313,62.8125 L301.5313,61.6563 Q301.5313,60.3281 302.1406,59.1875 Q302.7656,58.0313 303.8594,57.4219 Q304.9531,56.7969 306.1875,56.7969 Q306.9219,56.7969 307.5625,56.9688 Q308.2188,57.125 308.7656,57.4844 Z " fill="#000000"/><text fill="#000000" font-family="sans-serif" font-size="14" lengthAdjust="spacing" textLength="40" x="320" y="67.3379">Artista</text><line style="stroke:#181818;stroke-width:0.5;" x1="292" x2="362" y1="77.6094" y2="77.6094"/><line style="stroke:#181818;stroke-width:0.5;" x1="292" x2="362" y1="85.6094" y2="85.6094"/></g><!--class Cancion--><g id="elem_Cancion"><rect codeLine="4" fill="#F1F1F1" height="48" id="Cancion" rx="2.5" ry="2.5" style="stroke:#181818;stroke-width:0.5;" width="84" x="217" y="579.6094"/><ellipse cx="232" cy="595.6094" fill="#ADD1B2" rx="11" ry="11" style="stroke:#181818;stroke-width:1.0;"/><path d="M234.7656,591.4844 Q234.9219,591.2656 235.1094,591.1563 Q235.2969,591.0469 235.5156,591.0469 Q235.8906,591.0469 236.125,591.3125 Q236.3594,591.5625 236.3594,592.1719 L236.3594,593.625 Q236.3594,594.2344 236.125,594.5 Q235.8906,594.7656 235.5156,594.7656 Q235.1719,594.7656 234.9688,594.5625 Q234.7656,594.375 234.6563,593.8594 Q234.6094,593.5 234.4219,593.3125 Q234.0938,592.9375 233.4844,592.7188 Q232.875,592.5 232.25,592.5 Q231.4844,592.5 230.8438,592.8281 Q230.2188,593.1563 229.7188,593.9063 Q229.2344,594.6563 229.2344,595.6875 L229.2344,596.7813 Q229.2344,598.0156 230.125,598.8438 Q231.0156,599.6563 232.6094,599.6563 Q233.5469,599.6563 234.2031,599.4063 Q234.5938,599.25 235.0156,598.8125 Q235.2813,598.5469 235.4219,598.4688 Q235.5781,598.3906 235.7813,598.3906 Q236.1094,598.3906 236.3594,598.6563 Q236.625,598.9063 236.625,599.25 Q236.625,599.5938 236.2813,600 Q235.7813,600.5781 234.9844,600.9063 Q233.9063,601.3594 232.6094,601.3594 Q231.0938,601.3594 229.8906,600.7344 Q228.9063,600.2344 228.2188,599.1719 Q227.5313,598.0938 227.5313,596.8125 L227.5313,595.6563 Q227.5313,594.3281 228.1406,593.1875 Q228.7656,592.0313 229.8594,591.4219 Q230.9531,590.7969 232.1875,590.7969 Q232.9219,590.7969 233.5625,590.9688 Q234.2188,591.125 234.7656,591.4844 Z " fill="#000000"/><text fill="#000000" font-family="sans-serif" font-size="14" lengthAdjust="spacing" textLength="52" x="246" y="601.3379">Cancion</text><line style="stroke:#181818;stroke-width:0.5;" x1="218" x2="300" y1="611.6094" y2="611.6094"/><line style="stroke:#181818;stroke-width:0.5;" x1="218" x2="300" y1="619.6094" y2="619.6094"/></g><!--class Grabacion--><g id="elem_Grabacion"><rect codeLine="5" fill="#F1F1F1" height="48" id="Grabacion" rx="2.5" ry="2.5" style="stroke:#181818;stroke-width:0.5;" width="98" x="280" y="453.6094"/><ellipse cx="295" cy="469.6094" fill="#ADD1B2" rx="11" ry="11" style="stroke:#181818;stroke-width:1.0;"/><path d="M297.7656,465.4844 Q297.9219,465.2656 298.1094,465.1563 Q298.2969,465.0469 298.5156,465.0469 Q298.8906,465.0469 299.125,465.3125 Q299.3594,465.5625 299.3594,466.1719 L299.3594,467.625 Q299.3594,468.2344 299.125,468.5 Q298.8906,468.7656 298.5156,468.7656 Q298.1719,468.7656 297.9688,468.5625 Q297.7656,468.375 297.6563,467.8594 Q297.6094,467.5 297.4219,467.3125 Q297.0938,466.9375 296.4844,466.7188 Q295.875,466.5 295.25,466.5 Q294.4844,466.5 293.8438,466.8281 Q293.2188,467.1563 292.7188,467.9063 Q292.2344,468.6563 292.2344,469.6875 L292.2344,470.7813 Q292.2344,472.0156 293.125,472.8438 Q294.0156,473.6563 295.6094,473.6563 Q296.5469,473.6563 297.2031,473.4063 Q297.5938,473.25 298.0156,472.8125 Q298.2813,472.5469 298.4219,472.4688 Q298.5781,472.3906 298.7813,472.3906 Q299.1094,472.3906 299.3594,472.6563 Q299.625,472.9063 299.625,473.25 Q299.625,473.5938 299.2813,474 Q298.7813,474.5781 297.9844,474.9063 Q296.9063,475.3594 295.6094,475.3594 Q294.0938,475.3594 292.8906,474.7344 Q291.9063,474.2344 291.2188,473.1719 Q290.5313,472.0938 290.5313,470.8125 L290.5313,469.6563 Q290.5313,468.3281 291.1406,467.1875 Q291.7656,466.0313 292.8594,465.4219 Q293.9531,464.7969 295.1875,464.7969 Q295.9219,464.7969 296.5625,464.9688 Q297.2188,465.125 297.7656,465.4844 Z " fill="#000000"/><text fill="#000000" font-family="sans-serif" font-size="14" lengthAdjust="spacing" textLength="66" x="309" y="475.3379">Grabacion</text><line style="stroke:#181818;stroke-width:0.5;" x1="281" x2="377" y1="485.6094" y2="485.6094"/><line style="stroke:#181818;stroke-width:0.5;" x1="281" x2="377" y1="493.6094" y2="493.6094"/></g><!--class Album--><g id="elem_Album"><rect codeLine="6" fill="#F1F1F1" height="48" id="Album" rx="2.5" ry="2.5" style="stroke:#181818;stroke-width:0.5;" width="71" x="240.5" y="327.6094"/><ellipse cx="255.5" cy="343.6094" fill="#ADD1B2" rx="11" ry="11" style="stroke:#181818;stroke-width:1.0;"/><path d="M258.2656,339.4844 Q258.4219,339.2656 258.6094,339.1563 Q258.7969,339.0469 259.0156,339.0469 Q259.3906,339.0469 259.625,339.3125 Q259.8594,339.5625 259.8594,340.1719 L259.8594,341.625 Q259.8594,342.2344 259.625,342.5 Q259.3906,342.7656 259.0156,342.7656 Q258.6719,342.7656 258.4688,342.5625 Q258.2656,342.375 258.1563,341.8594 Q258.1094,341.5 257.9219,341.3125 Q257.5938,340.9375 256.9844,340.7188 Q256.375,340.5 255.75,340.5 Q254.9844,340.5 254.3438,340.8281 Q253.7188,341.1563 253.2188,341.9063 Q252.7344,342.6563 252.7344,343.6875 L252.7344,344.7813 Q252.7344,346.0156 253.625,346.8438 Q254.5156,347.6563 256.1094,347.6563 Q257.0469,347.6563 257.7031,347.4063 Q258.0938,347.25 258.5156,346.8125 Q258.7813,346.5469 258.9219,346.4688 Q259.0781,346.3906 259.2813,346.3906 Q259.6094,346.3906 259.8594,346.6563 Q260.125,346.9063 260.125,347.25 Q260.125,347.5938 259.7813,348 Q259.2813,348.5781 258.4844,348.9063 Q257.4063,349.3594 256.1094,349.3594 Q254.5938,349.3594 253.3906,348.7344 Q252.4063,348.2344 251.7188,347.1719 Q251.0313,346.0938 251.0313,344.8125 L251.0313,343.6563 Q251.0313,342.3281 251.6406,341.1875 Q252.2656,340.0313 253.3594,339.4219 Q254.4531,338.7969 255.6875,338.7969 Q256.4219,338.7969 257.0625,338.9688 Q257.7188,339.125 258.2656,339.4844 Z " fill="#000000"/><text fill="#000000" font-family="sans-serif" font-size="14" lengthAdjust="spacing" textLength="39" x="269.5" y="349.3379">Album</text><line style="stroke:#181818;stroke-width:0.5;" x1="241.5" x2="310.5" y1="359.6094" y2="359.6094"/><line style="stroke:#181818;stroke-width:0.5;" x1="241.5" x2="310.5" y1="367.6094" y2="367.6094"/></g><!--class Discografica--><g id="elem_Discografica"><rect codeLine="7" fill="#F1F1F1" height="48" id="Discografica" rx="2.5" ry="2.5" style="stroke:#181818;stroke-width:0.5;" width="110" x="209" y="171.6094"/><ellipse cx="224" cy="187.6094" fill="#ADD1B2" rx="11" ry="11" style="stroke:#181818;stroke-width:1.0;"/><path d="M226.7656,183.4844 Q226.9219,183.2656 227.1094,183.1563 Q227.2969,183.0469 227.5156,183.0469 Q227.8906,183.0469 228.125,183.3125 Q228.3594,183.5625 228.3594,184.1719 L228.3594,185.625 Q228.3594,186.2344 228.125,186.5 Q227.8906,186.7656 227.5156,186.7656 Q227.1719,186.7656 226.9688,186.5625 Q226.7656,186.375 226.6563,185.8594 Q226.6094,185.5 226.4219,185.3125 Q226.0938,184.9375 225.4844,184.7188 Q224.875,184.5 224.25,184.5 Q223.4844,184.5 222.8438,184.8281 Q222.2188,185.1563 221.7188,185.9063 Q221.2344,186.6563 221.2344,187.6875 L221.2344,188.7813 Q221.2344,190.0156 222.125,190.8438 Q223.0156,191.6563 224.6094,191.6563 Q225.5469,191.6563 226.2031,191.4063 Q226.5938,191.25 227.0156,190.8125 Q227.2813,190.5469 227.4219,190.4688 Q227.5781,190.3906 227.7813,190.3906 Q228.1094,190.3906 228.3594,190.6563 Q228.625,190.9063 228.625,191.25 Q228.625,191.5938 228.2813,192 Q227.7813,192.5781 226.9844,192.9063 Q225.9063,193.3594 224.6094,193.3594 Q223.0938,193.3594 221.8906,192.7344 Q220.9063,192.2344 220.2188,191.1719 Q219.5313,190.0938 219.5313,188.8125 L219.5313,187.6563 Q219.5313,186.3281 220.1406,185.1875 Q220.7656,184.0313 221.8594,183.4219 Q222.9531,182.7969 224.1875,182.7969 Q224.9219,182.7969 225.5625,182.9688 Q226.2188,183.125 226.7656,183.4844 Z " fill="#000000"/><text fill="#000000" font-family="sans-serif" font-size="14" lengthAdjust="spacing" textLength="78" x="238" y="193.3379">Discografica</text><line style="stroke:#181818;stroke-width:0.5;" x1="210" x2="318" y1="203.6094" y2="203.6094"/><line style="stroke:#181818;stroke-width:0.5;" x1="210" x2="318" y1="211.6094" y2="211.6094"/></g><!--class Concierto--><g id="elem_Concierto"><rect codeLine="8" fill="#F1F1F1" height="48" id="Concierto" rx="2.5" ry="2.5" style="stroke:#181818;stroke-width:0.5;" width="93" x="513.5" y="171.6094"/><ellipse cx="528.5" cy="187.6094" fill="#ADD1B2" rx="11" ry="11" style="stroke:#181818;stroke-width:1.0;"/><path d="M531.2656,183.4844 Q531.4219,183.2656 531.6094,183.1563 Q531.7969,183.0469 532.0156,183.0469 Q532.3906,183.0469 532.625,183.3125 Q532.8594,183.5625 532.8594,184.1719 L532.8594,185.625 Q532.8594,186.2344 532.625,186.5 Q532.3906,186.7656 532.0156,186.7656 Q531.6719,186.7656 531.4688,186.5625 Q531.2656,186.375 531.1563,185.8594 Q531.1094,185.5 530.9219,185.3125 Q530.5938,184.9375 529.9844,184.7188 Q529.375,184.5 528.75,184.5 Q527.9844,184.5 527.3438,184.8281 Q526.7188,185.1563 526.2188,185.9063 Q525.7344,186.6563 525.7344,187.6875 L525.7344,188.7813 Q525.7344,190.0156 526.625,190.8438 Q527.5156,191.6563 529.1094,191.6563 Q530.0469,191.6563 530.7031,191.4063 Q531.0938,191.25 531.5156,190.8125 Q531.7813,190.5469 531.9219,190.4688 Q532.0781,190.3906 532.2813,190.3906 Q532.6094,190.3906 532.8594,190.6563 Q533.125,190.9063 533.125,191.25 Q533.125,191.5938 532.7813,192 Q532.2813,192.5781 531.4844,192.9063 Q530.4063,193.3594 529.1094,193.3594 Q527.5938,193.3594 526.3906,192.7344 Q525.4063,192.2344 524.7188,191.1719 Q524.0313,190.0938 524.0313,188.8125 L524.0313,187.6563 Q524.0313,186.3281 524.6406,185.1875 Q525.2656,184.0313 526.3594,183.4219 Q527.4531,182.7969 528.6875,182.7969 Q529.4219,182.7969 530.0625,182.9688 Q530.7188,183.125 531.2656,183.4844 Z " fill="#000000"/><text fill="#000000" font-family="sans-serif" font-size="14" lengthAdjust="spacing" textLength="61" x="542.5" y="193.3379">Concierto</text><line style="stroke:#181818;stroke-width:0.5;" x1="514.5" x2="605.5" y1="203.6094" y2="203.6094"/><line style="stroke:#181818;stroke-width:0.5;" x1="514.5" x2="605.5" y1="211.6094" y2="211.6094"/></g><!--class Entrada--><g id="elem_Entrada"><rect codeLine="9" fill="#F1F1F1" height="48" id="Entrada" rx="2.5" ry="2.5" style="stroke:#181818;stroke-width:0.5;" width="82" x="520" y="327.6094"/><ellipse cx="535" cy="343.6094" fill="#ADD1B2" rx="11" ry="11" style="stroke:#181818;stroke-width:1.0;"/><path d="M537.7656,339.4844 Q537.9219,339.2656 538.1094,339.1563 Q538.2969,339.0469 538.5156,339.0469 Q538.8906,339.0469 539.125,339.3125 Q539.3594,339.5625 539.3594,340.1719 L539.3594,341.625 Q539.3594,342.2344 539.125,342.5 Q538.8906,342.7656 538.5156,342.7656 Q538.1719,342.7656 537.9688,342.5625 Q537.7656,342.375 537.6563,341.8594 Q537.6094,341.5 537.4219,341.3125 Q537.0938,340.9375 536.4844,340.7188 Q535.875,340.5 535.25,340.5 Q534.4844,340.5 533.8438,340.8281 Q533.2188,341.1563 532.7188,341.9063 Q532.2344,342.6563 532.2344,343.6875 L532.2344,344.7813 Q532.2344,346.0156 533.125,346.8438 Q534.0156,347.6563 535.6094,347.6563 Q536.5469,347.6563 537.2031,347.4063 Q537.5938,347.25 538.0156,346.8125 Q538.2813,346.5469 538.4219,346.4688 Q538.5781,346.3906 538.7813,346.3906 Q539.1094,346.3906 539.3594,346.6563 Q539.625,346.9063 539.625,347.25 Q539.625,347.5938 539.2813,348 Q538.7813,348.5781 537.9844,348.9063 Q536.9063,349.3594 535.6094,349.3594 Q534.0938,349.3594 532.8906,348.7344 Q531.9063,348.2344 531.2188,347.1719 Q530.5313,346.0938 530.5313,344.8125 L530.5313,343.6563 Q530.5313,342.3281 531.1406,341.1875 Q531.7656,340.0313 532.8594,339.4219 Q533.9531,338.7969 535.1875,338.7969 Q535.9219,338.7969 536.5625,338.9688 Q537.2188,339.125 537.7656,339.4844 Z " fill="#000000"/><text fill="#000000" font-family="sans-serif" font-size="14" lengthAdjust="spacing" textLength="50" x="549" y="349.3379">Entrada</text><line style="stroke:#181818;stroke-width:0.5;" x1="521" x2="601" y1="359.6094" y2="359.6094"/><line style="stroke:#181818;stroke-width:0.5;" x1="521" x2="601" y1="367.6094" y2="367.6094"/></g><!--class Instrumento--><g id="elem_Instrumento"><rect codeLine="10" fill="#F1F1F1" height="48" id="Instrumento" rx="2.5" ry="2.5" style="stroke:#181818;stroke-width:0.5;" width="106" x="345" y="579.6094"/><ellipse cx="360" cy="595.6094" fill="#ADD1B2" rx="11" ry="11" style="stroke:#181818;stroke-width:1.0;"/><path d="M362.7656,591.4844 Q362.9219,591.2656 363.1094,591.1563 Q363.2969,591.0469 363.5156,591.0469 Q363.8906,591.0469 364.125,591.3125 Q364.3594,591.5625 364.3594,592.1719 L364.3594,593.625 Q364.3594,594.2344 364.125,594.5 Q363.8906,594.7656 363.5156,594.7656 Q363.1719,594.7656 362.9688,594.5625 Q362.7656,594.375 362.6563,593.8594 Q362.6094,593.5 362.4219,593.3125 Q362.0938,592.9375 361.4844,592.7188 Q360.875,592.5 360.25,592.5 Q359.4844,592.5 358.8438,592.8281 Q358.2188,593.1563 357.7188,593.9063 Q357.2344,594.6563 357.2344,595.6875 L357.2344,596.7813 Q357.2344,598.0156 358.125,598.8438 Q359.0156,599.6563 360.6094,599.6563 Q361.5469,599.6563 362.2031,599.4063 Q362.5938,599.25 363.0156,598.8125 Q363.2813,598.5469 363.4219,598.4688 Q363.5781,598.3906 363.7813,598.3906 Q364.1094,598.3906 364.3594,598.6563 Q364.625,598.9063 364.625,599.25 Q364.625,599.5938 364.2813,600 Q363.7813,600.5781 362.9844,600.9063 Q361.9063,601.3594 360.6094,601.3594 Q359.0938,601.3594 357.8906,600.7344 Q356.9063,600.2344 356.2188,599.1719 Q355.5313,598.0938 355.5313,596.8125 L355.5313,595.6563 Q355.5313,594.3281 356.1406,593.1875 Q356.7656,592.0313 357.8594,591.4219 Q358.9531,590.7969 360.1875,590.7969 Q360.9219,590.7969 361.5625,590.9688 Q362.2188,591.125 362.7656,591.4844 Z " fill="#000000"/><text fill="#000000" font-family="sans-serif" font-size="14" lengthAdjust="spacing" textLength="74" x="374" y="601.3379">Instrumento</text><line style="stroke:#181818;stroke-width:0.5;" x1="346" x2="450" y1="611.6094" y2="611.6094"/><line style="stroke:#181818;stroke-width:0.5;" x1="346" x2="450" y1="619.6094" y2="619.6094"/></g><!--class Genero--><g id="elem_Genero"><rect codeLine="11" fill="#F1F1F1" height="48" id="Genero" rx="2.5" ry="2.5" style="stroke:#181818;stroke-width:0.5;" width="80" x="145" y="705.6094"/><ellipse cx="160" cy="721.6094" fill="#ADD1B2" rx="11" ry="11" style="stroke:#181818;stroke-width:1.0;"/><path d="M162.7656,717.4844 Q162.9219,717.2656 163.1094,717.1563 Q163.2969,717.0469 163.5156,717.0469 Q163.8906,717.0469 164.125,717.3125 Q164.3594,717.5625 164.3594,718.1719 L164.3594,719.625 Q164.3594,720.2344 164.125,720.5 Q163.8906,720.7656 163.5156,720.7656 Q163.1719,720.7656 162.9688,720.5625 Q162.7656,720.375 162.6563,719.8594 Q162.6094,719.5 162.4219,719.3125 Q162.0938,718.9375 161.4844,718.7188 Q160.875,718.5 160.25,718.5 Q159.4844,718.5 158.8438,718.8281 Q158.2188,719.1563 157.7188,719.9063 Q157.2344,720.6563 157.2344,721.6875 L157.2344,722.7813 Q157.2344,724.0156 158.125,724.8438 Q159.0156,725.6563 160.6094,725.6563 Q161.5469,725.6563 162.2031,725.4063 Q162.5938,725.25 163.0156,724.8125 Q163.2813,724.5469 163.4219,724.4688 Q163.5781,724.3906 163.7813,724.3906 Q164.1094,724.3906 164.3594,724.6563 Q164.625,724.9063 164.625,725.25 Q164.625,725.5938 164.2813,726 Q163.7813,726.5781 162.9844,726.9063 Q161.9063,727.3594 160.6094,727.3594 Q159.0938,727.3594 157.8906,726.7344 Q156.9063,726.2344 156.2188,725.1719 Q155.5313,724.0938 155.5313,722.8125 L155.5313,721.6563 Q155.5313,720.3281 156.1406,719.1875 Q156.7656,718.0313 157.8594,717.4219 Q158.9531,716.7969 160.1875,716.7969 Q160.9219,716.7969 161.5625,716.9688 Q162.2188,717.125 162.7656,717.4844 Z " fill="#000000"/><text fill="#000000" font-family="sans-serif" font-size="14" lengthAdjust="spacing" textLength="48" x="174" y="727.3379">Genero</text><line style="stroke:#181818;stroke-width:0.5;" x1="146" x2="224" y1="737.6094" y2="737.6094"/><line style="stroke:#181818;stroke-width:0.5;" x1="146" x2="224" y1="745.6094" y2="745.6094"/></g><!--class Compositor--><g id="elem_Compositor"><rect codeLine="12" fill="#F1F1F1" height="48" id="Compositor" rx="2.5" ry="2.5" style="stroke:#181818;stroke-width:0.5;" width="104" x="7" y="249.6094"/><ellipse cx="22" cy="265.6094" fill="#ADD1B2" rx="11" ry="11" style="stroke:#181818;stroke-width:1.0;"/><path d="M24.7656,261.4844 Q24.9219,261.2656 25.1094,261.1563 Q25.2969,261.0469 25.5156,261.0469 Q25.8906,261.0469 26.125,261.3125 Q26.3594,261.5625 26.3594,262.1719 L26.3594,263.625 Q26.3594,264.2344 26.125,264.5 Q25.8906,264.7656 25.5156,264.7656 Q25.1719,264.7656 24.9688,264.5625 Q24.7656,264.375 24.6563,263.8594 Q24.6094,263.5 24.4219,263.3125 Q24.0938,262.9375 23.4844,262.7188 Q22.875,262.5 22.25,262.5 Q21.4844,262.5 20.8438,262.8281 Q20.2188,263.1563 19.7188,263.9063 Q19.2344,264.6563 19.2344,265.6875 L19.2344,266.7813 Q19.2344,268.0156 20.125,268.8438 Q21.0156,269.6563 22.6094,269.6563 Q23.5469,269.6563 24.2031,269.4063 Q24.5938,269.25 25.0156,268.8125 Q25.2813,268.5469 25.4219,268.4688 Q25.5781,268.3906 25.7813,268.3906 Q26.1094,268.3906 26.3594,268.6563 Q26.625,268.9063 26.625,269.25 Q26.625,269.5938 26.2813,270 Q25.7813,270.5781 24.9844,270.9063 Q23.9063,271.3594 22.6094,271.3594 Q21.0938,271.3594 19.8906,270.7344 Q18.9063,270.2344 18.2188,269.1719 Q17.5313,268.0938 17.5313,266.8125 L17.5313,265.6563 Q17.5313,264.3281 18.1406,263.1875 Q18.7656,262.0313 19.8594,261.4219 Q20.9531,260.7969 22.1875,260.7969 Q22.9219,260.7969 23.5625,260.9688 Q24.2188,261.125 24.7656,261.4844 Z " fill="#000000"/><text fill="#000000" font-family="sans-serif" font-size="14" lengthAdjust="spacing" textLength="72" x="36" y="271.3379">Compositor</text><line style="stroke:#181818;stroke-width:0.5;" x1="8" x2="110" y1="281.6094" y2="281.6094"/><line style="stroke:#181818;stroke-width:0.5;" x1="8" x2="110" y1="289.6094" y2="289.6094"/></g><!--class Letra--><g id="elem_Letra"><rect codeLine="13" fill="#F1F1F1" height="48" id="Letra" rx="2.5" ry="2.5" style="stroke:#181818;stroke-width:0.5;" width="65" x="291.5" y="705.6094"/><ellipse cx="306.5" cy="721.6094" fill="#ADD1B2" rx="11" ry="11" style="stroke:#181818;stroke-width:1.0;"/><path d="M309.2656,717.4844 Q309.4219,717.2656 309.6094,717.1563 Q309.7969,717.0469 310.0156,717.0469 Q310.3906,717.0469 310.625,717.3125 Q310.8594,717.5625 310.8594,718.1719 L310.8594,719.625 Q310.8594,720.2344 310.625,720.5 Q310.3906,720.7656 310.0156,720.7656 Q309.6719,720.7656 309.4688,720.5625 Q309.2656,720.375 309.1563,719.8594 Q309.1094,719.5 308.9219,719.3125 Q308.5938,718.9375 307.9844,718.7188 Q307.375,718.5 306.75,718.5 Q305.9844,718.5 305.3438,718.8281 Q304.7188,719.1563 304.2188,719.9063 Q303.7344,720.6563 303.7344,721.6875 L303.7344,722.7813 Q303.7344,724.0156 304.625,724.8438 Q305.5156,725.6563 307.1094,725.6563 Q308.0469,725.6563 308.7031,725.4063 Q309.0938,725.25 309.5156,724.8125 Q309.7813,724.5469 309.9219,724.4688 Q310.0781,724.3906 310.2813,724.3906 Q310.6094,724.3906 310.8594,724.6563 Q311.125,724.9063 311.125,725.25 Q311.125,725.5938 310.7813,726 Q310.2813,726.5781 309.4844,726.9063 Q308.4063,727.3594 307.1094,727.3594 Q305.5938,727.3594 304.3906,726.7344 Q303.4063,726.2344 302.7188,725.1719 Q302.0313,724.0938 302.0313,722.8125 L302.0313,721.6563 Q302.0313,720.3281 302.6406,719.1875 Q303.2656,718.0313 304.3594,717.4219 Q305.4531,716.7969 306.6875,716.7969 Q307.4219,716.7969 308.0625,716.9688 Q308.7188,717.125 309.2656,717.4844 Z " fill="#000000"/><text fill="#000000" font-family="sans-serif" font-size="14" lengthAdjust="spacing" textLength="33" x="320.5" y="727.3379">Letra</text><line style="stroke:#181818;stroke-width:0.5;" x1="292.5" x2="355.5" y1="737.6094" y2="737.6094"/><line style="stroke:#181818;stroke-width:0.5;" x1="292.5" x2="355.5" y1="745.6094" y2="745.6094"/></g><!--link Discografica to Album--><g id="link_Discografica_Album"><path codeLine="15" d="M265.8,219.6694 C268.06,248.6994 271.4535,292.3075 273.7235,321.4175 " fill="none" id="Discografica-to-Album" style="stroke:#181818;stroke-width:1.0;"/><polygon fill="#181818" points="274.19,327.3994,277.4782,318.1156,273.8013,322.4145,269.5024,318.7376,274.19,327.3994" style="stroke:#181818;stroke-width:1.0;"/><text fill="#000000" font-family="sans-serif" font-size="13" lengthAdjust="spacing" textLength="41" x="273" y="279.1045">publica</text></g><!--link Artista to Discografica--><g id="link_Artista_Discografica"><path codeLine="16" d="M301.92,93.7394 C293.84,102.3894 285.55,112.7694 280,123.6094 C272.34,138.5694 269.1858,151.2122 267.0858,165.6122 " fill="none" id="Artista-to-Discografica" style="stroke:#181818;stroke-width:1.0;"/><polygon fill="#181818" points="266.22,171.5494,271.4769,163.2208,266.9415,166.6017,263.5606,162.0664,266.22,171.5494" style="stroke:#181818;stroke-width:1.0;"/><text fill="#000000" font-family="sans-serif" font-size="13" lengthAdjust="spacing" textLength="64" x="281" y="138.1045">trabaja con</text></g><!--link Album to Grabacion--><g id="link_Album_Grabacion"><path codeLine="17" d="M283.15,375.6394 C287.75,389.6994 294.14,407.9294 301,423.6094 C305.38,433.6194 308.0206,439.0645 312.9806,448.2145 " fill="none" id="Album-to-Grabacion" style="stroke:#181818;stroke-width:1.0;"/><polygon fill="#181818" points="315.84,453.4894,315.0675,443.6709,313.4572,449.0937,308.0344,447.4834,315.84,453.4894" style="stroke:#181818;stroke-width:1.0;"/><text fill="#000000" font-family="sans-serif" font-size="13" lengthAdjust="spacing" textLength="41" x="302" y="420.1045">incluye</text></g><!--link Artista to Grabacion--><g id="link_Artista_Grabacion"><path codeLine="18" d="M339.45,93.6694 C343.69,102.7294 347.88,113.3994 350,123.6094 C351.63,131.4394 350.03,133.6094 350,141.6094 C349.56,266.9494 369.9,300.1994 348,423.6094 C346.21,433.7194 344.8517,438.8523 341.3217,447.9923 " fill="none" id="Artista-to-Grabacion" style="stroke:#181818;stroke-width:1.0;"/><polygon fill="#181818" points="339.16,453.5894,346.1339,446.6349,340.9614,448.9252,338.6711,443.7527,339.16,453.5894" style="stroke:#181818;stroke-width:1.0;"/><text fill="#000000" font-family="sans-serif" font-size="13" lengthAdjust="spacing" textLength="32" x="359" y="279.1045">graba</text></g><!--link Grabacion to Cancion--><g id="link_Grabacion_Cancion"><path codeLine="19" d="M293.78,501.7094 C283.88,509.9594 274.15,520.0994 268,531.6094 C260.15,546.2894 258.1366,559.06 257.9266,573.61 " fill="none" id="Grabacion-to-Cancion" style="stroke:#181818;stroke-width:1.0;"/><polygon fill="#181818" points="257.84,579.6094,261.9695,570.668,257.9122,574.6099,253.9703,570.5526,257.84,579.6094" style="stroke:#181818;stroke-width:1.0;"/><text fill="#000000" font-family="sans-serif" font-size="13" lengthAdjust="spacing" textLength="82" x="269" y="546.1045">corresponde a</text></g><!--link Artista to Concierto--><g id="link_Artista_Concierto"><path codeLine="20" d="M363.15,78.1694 C396.24,86.1394 445.72,100.7394 484,123.6094 C505.39,136.3894 521.7305,151.6197 536.0005,167.0097 " fill="none" id="Artista-to-Concierto" style="stroke:#181818;stroke-width:1.0;"/><polygon fill="#181818" points="540.08,171.4094,536.8939,162.0901,536.6804,167.7429,531.0276,167.5295,540.08,171.4094" style="stroke:#181818;stroke-width:1.0;"/><text fill="#000000" font-family="sans-serif" font-size="13" lengthAdjust="spacing" textLength="50" x="509" y="138.1045">actua en</text></g><!--reverse link Concierto to Entrada--><g id="link_Concierto_Entrada"><path codeLine="21" d="M560.2285,231.6691 C560.4185,260.6991 560.66,298.2894 560.85,327.3994 " fill="none" id="Concierto-backto-Entrada" style="stroke:#181818;stroke-width:1.0;"/><polygon fill="#181818" points="560.15,219.6694,556.1894,225.6954,560.2285,231.6691,564.1892,225.6431,560.15,219.6694" style="stroke:#181818;stroke-width:1.0;"/><text fill="#000000" font-family="sans-serif" font-size="13" lengthAdjust="spacing" textLength="63" x="561" y="279.1045">dispone de</text></g><!--link Compositor to Cancion--><g id="link_Compositor_Cancion"><path codeLine="22" d="M53.14,297.7794 C46.7,328.1494 39.53,382.4194 58,423.6094 C90.41,495.8794 162.8606,547.8566 211.6106,576.7966 " fill="none" id="Compositor-to-Cancion" style="stroke:#181818;stroke-width:1.0;"/><polygon fill="#181818" points="216.77,579.8594,211.0728,571.8256,212.4705,577.307,206.9891,578.7047,216.77,579.8594" style="stroke:#181818;stroke-width:1.0;"/><text fill="#000000" font-family="sans-serif" font-size="13" lengthAdjust="spacing" textLength="53" x="59" y="420.1045">compone</text></g><!--link Artista to Compositor--><g id="link_Artista_Compositor"><path codeLine="23" d="M290.92,72.1294 C223.75,75.7894 83.64,87.6594 54,123.6094 C24.69,159.1594 36.5898,211.6421 47.7598,243.7721 " fill="none" id="Artista-to-Compositor" style="stroke:#181818;stroke-width:1.0;"/><polygon fill="#181818" points="49.73,249.4394,50.5528,239.625,48.0881,244.7166,42.9965,242.2519,49.73,249.4394" style="stroke:#181818;stroke-width:1.0;"/><text fill="#000000" font-family="sans-serif" font-size="13" lengthAdjust="spacing" textLength="74" x="55" y="138.1045">colabora con</text></g><!--reverse link Cancion to Letra--><g id="link_Cancion_Letra"><path codeLine="24" d="M276.6429,638.2668 C288.2529,660.4068 300.12,683.0494 311.77,705.2794 " fill="none" id="Cancion-backto-Letra" style="stroke:#181818;stroke-width:1.0;"/><polygon fill="#181818" points="271.07,627.6394,270.314,634.8107,276.6429,638.2668,277.3989,631.0955,271.07,627.6394" style="stroke:#181818;stroke-width:1.0;"/><text fill="#000000" font-family="sans-serif" font-size="13" lengthAdjust="spacing" textLength="28" x="297" y="672.1045">tiene</text></g><!--link Cancion to Genero--><g id="link_Cancion_Genero"><path codeLine="25" d="M233.79,627.7094 C225.36,636.4394 216.47,646.8794 210,657.6094 C201.03,672.4994 196.2635,685.306 192.1835,699.726 " fill="none" id="Cancion-to-Genero" style="stroke:#181818;stroke-width:1.0;"/><polygon fill="#181818" points="190.55,705.4994,196.8492,697.9284,191.9113,700.6882,189.1514,695.7503,190.55,705.4994" style="stroke:#181818;stroke-width:1.0;"/><text fill="#000000" font-family="sans-serif" font-size="13" lengthAdjust="spacing" textLength="68" x="211" y="672.1045">pertenece a</text></g><!--link Artista to Genero--><g id="link_Artista_Genero"><path codeLine="26" d="M290.74,79.4494 C240.54,94.1094 156,128.5994 156,194.6094 C156,194.6094 156,194.6094 156,604.6094 C156,640.4294 165.6479,674.8993 174.1779,699.5493 " fill="none" id="Artista-to-Genero" style="stroke:#181818;stroke-width:1.0;"/><polygon fill="#181818" points="176.14,705.2194,176.9769,695.4061,174.5049,700.4943,169.4168,698.0223,176.14,705.2194" style="stroke:#181818;stroke-width:1.0;"/><text fill="#000000" font-family="sans-serif" font-size="13" lengthAdjust="spacing" textLength="101" x="157" y="420.1045">se especializa en</text></g><!--link Artista to Instrumento--><g id="link_Artista_Instrumento"><path codeLine="27" d="M363.14,86.0194 C401.92,105.2594 458,142.1594 458,194.6094 C458,194.6094 458,194.6094 458,478.6094 C458,516.8694 438.1278,550.9254 420.5478,574.6954 " fill="none" id="Artista-to-Instrumento" style="stroke:#181818;stroke-width:1.0;"/><polygon fill="#181818" points="416.98,579.5194,425.5477,574.6619,419.9531,575.4994,419.1157,569.9049,416.98,579.5194" style="stroke:#181818;stroke-width:1.0;"/><text fill="#000000" font-family="sans-serif" font-size="13" lengthAdjust="spacing" textLength="25" x="459" y="357.1045">toca</text></g><!--link Grabacion to Instrumento--><g id="link_Grabacion_Instrumento"><path codeLine="28" d="M341.82,501.6394 C354.13,523.7794 369.7325,551.8064 382.1025,574.0364 " fill="none" id="Grabacion-to-Instrumento" style="stroke:#181818;stroke-width:1.0;stroke-dasharray:7.0,7.0;"/><polygon fill="#181818" points="385.02,579.2794,384.1391,569.47,382.5888,574.9103,377.1485,573.3599,385.02,579.2794" style="stroke:#181818;stroke-width:1.0;"/><text fill="#000000" font-family="sans-serif" font-size="13" lengthAdjust="spacing" textLength="34" x="369" y="546.1045">utiliza</text></g><!--SRC=[PL59RiCm3Bph5JeNS1wGGu6W3O82_GHDiu4ABOQMG_lwahOio-vDv0mvd54ssPA-OqWcPNAWNKa6mIg55bBIjvWPW5gzWKSJVAqU4KRewfiTYwllTvCmF2DyyR9jEF0mnHngVVSvmhIX7pxbM1pvXZ_8KmnjsCryOmwnDZw9fvNgTVGmlAv7wAkUosX5knfOi0FvghFS_mqQsS4w9gJcYXd6eoq_T5ZIuqzvgxqZUCs8KGmnKfg3dqWV3sbHC0im5z3arTvy6OOj7IPCHdQGdaZjAVoJSi8vYJIo42oC8QvcjpdHMNAKC0p7tP35w9A_HCb7yHlFBXeXaMQVX0Qi-LsyzBJkPqKdO9_OvN8cb6naY_e3]--></g></svg>