<svg xmlns="http://www.w3.org/2000/svg" xmlns:xlink="http://www.w3.org/1999/xlink" contentStyleType="text/css" data-diagram-type="CLASS" height="602px" preserveAspectRatio="none" style="width:555px;height:602px;background:#FFFFFF;" version="1.1" viewBox="0 0 555 602" width="555px" zoomAndPan="magnify"><defs/><g><!--class User--><g class="entity" data-entity="User" data-source-line="1" data-uid="ent0002" id="entity_User"><rect fill="#F1F1F1" height="48" rx="2.5" ry="2.5" style="stroke:#181818;stroke-width:0.5;" width="63.9102" x="246" y="7"/><ellipse cx="261" cy="23" fill="#ADD1B2" rx="11" ry="11" style="stroke:#181818;stroke-width:1;"/><path d="M263.9688,28.6406 Q263.3906,28.9375 262.75,29.0781 Q262.1094,29.2344 261.4063,29.2344 Q258.9063,29.2344 257.5781,27.5938 Q256.2656,25.9375 256.2656,22.8125 Q256.2656,19.6875 257.5781,18.0313 Q258.9063,16.375 261.4063,16.375 Q262.1094,16.375 262.75,16.5313 Q263.4063,16.6875 263.9688,16.9844 L263.9688,19.7031 Q263.3438,19.125 262.75,18.8594 Q262.1563,18.5781 261.5313,18.5781 Q260.1875,18.5781 259.5,19.6563 Q258.8125,20.7188 258.8125,22.8125 Q258.8125,24.9063 259.5,25.9844 Q260.1875,27.0469 261.5313,27.0469 Q262.1563,27.0469 262.75,26.7813 Q263.3438,26.5 263.9688,25.9219 L263.9688,28.6406 Z " fill="#000000"/><text fill="#000000" font-family="sans-serif" font-size="14" lengthAdjust="spacing" textLength="31.9102" x="275" y="27.8467">User</text><line style="stroke:#181818;stroke-width:0.5;" x1="247" x2="308.9102" y1="39" y2="39"/><line style="stroke:#181818;stroke-width:0.5;" x1="247" x2="308.9102" y1="47" y2="47"/></g><!--class Profile--><g class="entity" data-entity="Profile" data-source-line="4" data-uid="ent0003" id="entity_Profile"><rect fill="#F1F1F1" height="48" rx="2.5" ry="2.5" style="stroke:#181818;stroke-width:0.5;" width="76.085" x="297" y="115"/><ellipse cx="312" cy="131" fill="#ADD1B2" rx="11" ry="11" style="stroke:#181818;stroke-width:1;"/><path d="M314.9688,136.6406 Q314.3906,136.9375 313.75,137.0781 Q313.1094,137.2344 312.4063,137.2344 Q309.9063,137.2344 308.5781,135.5938 Q307.2656,133.9375 307.2656,130.8125 Q307.2656,127.6875 308.5781,126.0313 Q309.9063,124.375 312.4063,124.375 Q313.1094,124.375 313.75,124.5313 Q314.4063,124.6875 314.9688,124.9844 L314.9688,127.7031 Q314.3438,127.125 313.75,126.8594 Q313.1563,126.5781 312.5313,126.5781 Q311.1875,126.5781 310.5,127.6563 Q309.8125,128.7188 309.8125,130.8125 Q309.8125,132.9063 310.5,133.9844 Q311.1875,135.0469 312.5313,135.0469 Q313.1563,135.0469 313.75,134.7813 Q314.3438,134.5 314.9688,133.9219 L314.9688,136.6406 Z " fill="#000000"/><text fill="#000000" font-family="sans-serif" font-size="14" lengthAdjust="spacing" textLength="44.085" x="326" y="135.8467">Profile</text><line style="stroke:#181818;stroke-width:0.5;" x1="298" x2="372.085" y1="147" y2="147"/><line style="stroke:#181818;stroke-width:0.5;" x1="298" x2="372.085" y1="155" y2="155"/></g><!--class Subscription--><g class="entity" data-entity="Subscription" data-source-line="8" data-uid="ent0004" id="entity_Subscription"><rect fill="#F1F1F1" height="48" rx="2.5" ry="2.5" style="stroke:#181818;stroke-width:0.5;" width="118.9873" x="151.5" y="223"/><ellipse cx="166.5" cy="239" fill="#ADD1B2" rx="11" ry="11" style="stroke:#181818;stroke-width:1;"/><path d="M169.4688,244.6406 Q168.8906,244.9375 168.25,245.0781 Q167.6094,245.2344 166.9063,245.2344 Q164.4063,245.2344 163.0781,243.5938 Q161.7656,241.9375 161.7656,238.8125 Q161.7656,235.6875 163.0781,234.0313 Q164.4063,232.375 166.9063,232.375 Q167.6094,232.375 168.25,232.5313 Q168.9063,232.6875 169.4688,232.9844 L169.4688,235.7031 Q168.8438,235.125 168.25,234.8594 Q167.6563,234.5781 167.0313,234.5781 Q165.6875,234.5781 165,235.6563 Q164.3125,236.7188 164.3125,238.8125 Q164.3125,240.9063 165,241.9844 Q165.6875,243.0469 167.0313,243.0469 Q167.6563,243.0469 168.25,242.7813 Q168.8438,242.5 169.4688,241.9219 L169.4688,244.6406 Z " fill="#000000"/><text fill="#000000" font-family="sans-serif" font-size="14" lengthAdjust="spacing" textLength="86.9873" x="180.5" y="243.8467">Subscription</text><line style="stroke:#181818;stroke-width:0.5;" x1="152.5" x2="269.4873" y1="255" y2="255"/><line style="stroke:#181818;stroke-width:0.5;" x1="152.5" x2="269.4873" y1="263" y2="263"/></g><!--class SubscriptionStatus--><g class="entity" data-entity="SubscriptionStatus" data-source-line="12" data-uid="ent0005" id="entity_SubscriptionStatus"><rect fill="#F1F1F1" height="48" rx="2.5" ry="2.5" style="stroke:#181818;stroke-width:0.5;" width="163.5986" x="7" y="331"/><ellipse cx="22" cy="347" fill="#EB937F" rx="11" ry="11" style="stroke:#181818;stroke-width:1;"/><path d="M26.1094,353 L18.3906,353 L18.3906,340.6094 L26.1094,340.6094 L26.1094,342.7656 L20.8438,342.7656 L20.8438,345.4375 L25.6094,345.4375 L25.6094,347.5938 L20.8438,347.5938 L20.8438,350.8438 L26.1094,350.8438 L26.1094,353 Z " fill="#000000"/><text fill="#000000" font-family="sans-serif" font-size="14" lengthAdjust="spacing" textLength="131.5986" x="36" y="351.8467">SubscriptionStatus</text><line style="stroke:#181818;stroke-width:0.5;" x1="8" x2="169.5986" y1="363" y2="363"/><line style="stroke:#181818;stroke-width:0.5;" x1="8" x2="169.5986" y1="371" y2="371"/></g><!--class Plan--><g class="entity" data-entity="Plan" data-source-line="15" data-uid="ent0006" id="entity_Plan"><rect fill="#F1F1F1" height="48" rx="2.5" ry="2.5" style="stroke:#181818;stroke-width:0.5;" width="61.7842" x="206" y="331"/><ellipse cx="221" cy="347" fill="#ADD1B2" rx="11" ry="11" style="stroke:#181818;stroke-width:1;"/><path d="M223.9688,352.6406 Q223.3906,352.9375 222.75,353.0781 Q222.1094,353.2344 221.4063,353.2344 Q218.9063,353.2344 217.5781,351.5938 Q216.2656,349.9375 216.2656,346.8125 Q216.2656,343.6875 217.5781,342.0313 Q218.9063,340.375 221.4063,340.375 Q222.1094,340.375 222.75,340.5313 Q223.4063,340.6875 223.9688,340.9844 L223.9688,343.7031 Q223.3438,343.125 222.75,342.8594 Q222.1563,342.5781 221.5313,342.5781 Q220.1875,342.5781 219.5,343.6563 Q218.8125,344.7188 218.8125,346.8125 Q218.8125,348.9063 219.5,349.9844 Q220.1875,351.0469 221.5313,351.0469 Q222.1563,351.0469 222.75,350.7813 Q223.3438,350.5 223.9688,349.9219 L223.9688,352.6406 Z " fill="#000000"/><text fill="#000000" font-family="sans-serif" font-size="14" lengthAdjust="spacing" textLength="29.7842" x="235" y="351.8467">Plan</text><line style="stroke:#181818;stroke-width:0.5;" x1="207" x2="266.7842" y1="363" y2="363"/><line style="stroke:#181818;stroke-width:0.5;" x1="207" x2="266.7842" y1="371" y2="371"/></g><!--class Album--><g class="entity" data-entity="Album" data-source-line="18" data-uid="ent0007" id="entity_Album"><rect fill="#F1F1F1" height="48" rx="2.5" ry="2.5" style="stroke:#181818;stroke-width:0.5;" width="76.8643" x="471.5" y="331"/><ellipse cx="486.5" cy="347" fill="#ADD1B2" rx="11" ry="11" style="stroke:#181818;stroke-width:1;"/><path d="M489.4688,352.6406 Q488.8906,352.9375 488.25,353.0781 Q487.6094,353.2344 486.9063,353.2344 Q484.4063,353.2344 483.0781,351.5938 Q481.7656,349.9375 481.7656,346.8125 Q481.7656,343.6875 483.0781,342.0313 Q484.4063,340.375 486.9063,340.375 Q487.6094,340.375 488.25,340.5313 Q488.9063,340.6875 489.4688,340.9844 L489.4688,343.7031 Q488.8438,343.125 488.25,342.8594 Q487.6563,342.5781 487.0313,342.5781 Q485.6875,342.5781 485,343.6563 Q484.3125,344.7188 484.3125,346.8125 Q484.3125,348.9063 485,349.9844 Q485.6875,351.0469 487.0313,351.0469 Q487.6563,351.0469 488.25,350.7813 Q488.8438,350.5 489.4688,349.9219 L489.4688,352.6406 Z " fill="#000000"/><text fill="#000000" font-family="sans-serif" font-size="14" lengthAdjust="spacing" textLength="44.8643" x="500.5" y="351.8467">Album</text><line style="stroke:#181818;stroke-width:0.5;" x1="472.5" x2="547.3643" y1="363" y2="363"/><line style="stroke:#181818;stroke-width:0.5;" x1="472.5" x2="547.3643" y1="371" y2="371"/></g><!--class EP--><g class="entity" data-entity="EP" data-source-line="21" data-uid="ent0008" id="entity_EP"><rect fill="#F1F1F1" height="48" rx="2.5" ry="2.5" style="stroke:#181818;stroke-width:0.5;" width="49.2881" x="485.5" y="439"/><ellipse cx="500.5" cy="455" fill="#ADD1B2" rx="11" ry="11" style="stroke:#181818;stroke-width:1;"/><path d="M503.4688,460.6406 Q502.8906,460.9375 502.25,461.0781 Q501.6094,461.2344 500.9063,461.2344 Q498.4063,461.2344 497.0781,459.5938 Q495.7656,457.9375 495.7656,454.8125 Q495.7656,451.6875 497.0781,450.0313 Q498.4063,448.375 500.9063,448.375 Q501.6094,448.375 502.25,448.5313 Q502.9063,448.6875 503.4688,448.9844 L503.4688,451.7031 Q502.8438,451.125 502.25,450.8594 Q501.6563,450.5781 501.0313,450.5781 Q499.6875,450.5781 499,451.6563 Q498.3125,452.7188 498.3125,454.8125 Q498.3125,456.9063 499,457.9844 Q499.6875,459.0469 501.0313,459.0469 Q501.6563,459.0469 502.25,458.7813 Q502.8438,458.5 503.4688,457.9219 L503.4688,460.6406 Z " fill="#000000"/><text fill="#000000" font-family="sans-serif" font-size="14" lengthAdjust="spacing" textLength="17.2881" x="514.5" y="459.8467">EP</text><line style="stroke:#181818;stroke-width:0.5;" x1="486.5" x2="533.7881" y1="471" y2="471"/><line style="stroke:#181818;stroke-width:0.5;" x1="486.5" x2="533.7881" y1="479" y2="479"/></g><!--class Song--><g class="entity" data-entity="Song" data-source-line="23" data-uid="ent0009" id="entity_Song"><rect fill="#F1F1F1" height="48" rx="2.5" ry="2.5" style="stroke:#181818;stroke-width:0.5;" width="67.2119" x="383.5" y="439"/><ellipse cx="398.5" cy="455" fill="#ADD1B2" rx="11" ry="11" style="stroke:#181818;stroke-width:1;"/><path d="M401.4688,460.6406 Q400.8906,460.9375 400.25,461.0781 Q399.6094,461.2344 398.9063,461.2344 Q396.4063,461.2344 395.0781,459.5938 Q393.7656,457.9375 393.7656,454.8125 Q393.7656,451.6875 395.0781,450.0313 Q396.4063,448.375 398.9063,448.375 Q399.6094,448.375 400.25,448.5313 Q400.9063,448.6875 401.4688,448.9844 L401.4688,451.7031 Q400.8438,451.125 400.25,450.8594 Q399.6563,450.5781 399.0313,450.5781 Q397.6875,450.5781 397,451.6563 Q396.3125,452.7188 396.3125,454.8125 Q396.3125,456.9063 397,457.9844 Q397.6875,459.0469 399.0313,459.0469 Q399.6563,459.0469 400.25,458.7813 Q400.8438,458.5 401.4688,457.9219 L401.4688,460.6406 Z " fill="#000000"/><text fill="#000000" font-family="sans-serif" font-size="14" lengthAdjust="spacing" textLength="35.2119" x="412.5" y="459.8467">Song</text><line style="stroke:#181818;stroke-width:0.5;" x1="384.5" x2="449.7119" y1="471" y2="471"/><line style="stroke:#181818;stroke-width:0.5;" x1="384.5" x2="449.7119" y1="479" y2="479"/></g><!--class Single--><g class="entity" data-entity="Single" data-source-line="26" data-uid="ent0010" id="entity_Single"><rect fill="#F1F1F1" height="48" rx="2.5" ry="2.5" style="stroke:#181818;stroke-width:0.5;" width="75.0391" x="379.5" y="547"/><ellipse cx="394.5" cy="563" fill="#ADD1B2" rx="11" ry="11" style="stroke:#181818;stroke-width:1;"/><path d="M397.4688,568.6406 Q396.8906,568.9375 396.25,569.0781 Q395.6094,569.2344 394.9063,569.2344 Q392.4063,569.2344 391.0781,567.5938 Q389.7656,565.9375 389.7656,562.8125 Q389.7656,559.6875 391.0781,558.0313 Q392.4063,556.375 394.9063,556.375 Q395.6094,556.375 396.25,556.5313 Q396.9063,556.6875 397.4688,556.9844 L397.4688,559.7031 Q396.8438,559.125 396.25,558.8594 Q395.6563,558.5781 395.0313,558.5781 Q393.6875,558.5781 393,559.6563 Q392.3125,560.7188 392.3125,562.8125 Q392.3125,564.9063 393,565.9844 Q393.6875,567.0469 395.0313,567.0469 Q395.6563,567.0469 396.25,566.7813 Q396.8438,566.5 397.4688,565.9219 L397.4688,568.6406 Z " fill="#000000"/><text fill="#000000" font-family="sans-serif" font-size="14" lengthAdjust="spacing" textLength="43.0391" x="408.5" y="567.8467">Single</text><line style="stroke:#181818;stroke-width:0.5;" x1="380.5" x2="453.5391" y1="579" y2="579"/><line style="stroke:#181818;stroke-width:0.5;" x1="380.5" x2="453.5391" y1="587" y2="587"/></g><!--class Playlist--><g class="entity" data-entity="Playlist" data-source-line="28" data-uid="ent0011" id="entity_Playlist"><rect fill="#F1F1F1" height="48" rx="2.5" ry="2.5" style="stroke:#181818;stroke-width:0.5;" width="81.7588" x="306" y="223"/><ellipse cx="321" cy="239" fill="#ADD1B2" rx="11" ry="11" style="stroke:#181818;stroke-width:1;"/><path d="M323.9688,244.6406 Q323.3906,244.9375 322.75,245.0781 Q322.1094,245.2344 321.4063,245.2344 Q318.9063,245.2344 317.5781,243.5938 Q316.2656,241.9375 316.2656,238.8125 Q316.2656,235.6875 317.5781,234.0313 Q318.9063,232.375 321.4063,232.375 Q322.1094,232.375 322.75,232.5313 Q323.4063,232.6875 323.9688,232.9844 L323.9688,235.7031 Q323.3438,235.125 322.75,234.8594 Q322.1563,234.5781 321.5313,234.5781 Q320.1875,234.5781 319.5,235.6563 Q318.8125,236.7188 318.8125,238.8125 Q318.8125,240.9063 319.5,241.9844 Q320.1875,243.0469 321.5313,243.0469 Q322.1563,243.0469 322.75,242.7813 Q323.3438,242.5 323.9688,241.9219 L323.9688,244.6406 Z " fill="#000000"/><text fill="#000000" font-family="sans-serif" font-size="14" lengthAdjust="spacing" textLength="49.7588" x="335" y="243.8467">Playlist</text><line style="stroke:#181818;stroke-width:0.5;" x1="307" x2="386.7588" y1="255" y2="255"/><line style="stroke:#181818;stroke-width:0.5;" x1="307" x2="386.7588" y1="263" y2="263"/></g><!--class Artist--><g class="entity" data-entity="Artist" data-source-line="31" data-uid="ent0012" id="entity_Artist"><rect fill="#F1F1F1" height="48" rx="2.5" ry="2.5" style="stroke:#181818;stroke-width:0.5;" width="69.4951" x="423.5" y="223"/><ellipse cx="438.5" cy="239" fill="#ADD1B2" rx="11" ry="11" style="stroke:#181818;stroke-width:1;"/><path d="M441.4688,244.6406 Q440.8906,244.9375 440.25,245.0781 Q439.6094,245.2344 438.9063,245.2344 Q436.4063,245.2344 435.0781,243.5938 Q433.7656,241.9375 433.7656,238.8125 Q433.7656,235.6875 435.0781,234.0313 Q436.4063,232.375 438.9063,232.375 Q439.6094,232.375 440.25,232.5313 Q440.9063,232.6875 441.4688,232.9844 L441.4688,235.7031 Q440.8438,235.125 440.25,234.8594 Q439.6563,234.5781 439.0313,234.5781 Q437.6875,234.5781 437,235.6563 Q436.3125,236.7188 436.3125,238.8125 Q436.3125,240.9063 437,241.9844 Q437.6875,243.0469 439.0313,243.0469 Q439.6563,243.0469 440.25,242.7813 Q440.8438,242.5 441.4688,241.9219 L441.4688,244.6406 Z " fill="#000000"/><text fill="#000000" font-family="sans-serif" font-size="14" lengthAdjust="spacing" textLength="37.4951" x="452.5" y="243.8467">Artist</text><line style="stroke:#181818;stroke-width:0.5;" x1="424.5" x2="491.9951" y1="255" y2="255"/><line style="stroke:#181818;stroke-width:0.5;" x1="424.5" x2="491.9951" y1="263" y2="263"/></g><!--link Subscription to Plan--><g class="link" data-entity-1="Subscription" data-entity-2="Plan" data-source-line="35" data-uid="lnk13" id="link_Subscription_Plan"><path codeLine="35" d="M216.64,271 C220.97,288.66 225.5011,307.1126 229.8511,324.8526" fill="none" id="Subscription-to-Plan" style="stroke:#181818;stroke-width:1;"/><polygon fill="#181818" points="231.28,330.68,233.0215,320.9863,230.0892,325.8239,225.2517,322.8916,231.28,330.68" style="stroke:#181818;stroke-width:1;"/></g><!--link Subscription to SubscriptionStatus--><g class="link" data-entity-1="Subscription" data-entity-2="SubscriptionStatus" data-source-line="36" data-uid="lnk14" id="link_Subscription_SubscriptionStatus"><path codeLine="36" d="M184.53,271 C164.2,288.66 140.7894,309.005 120.3694,326.745" fill="none" id="Subscription-to-SubscriptionStatus" style="stroke:#181818;stroke-width:1;stroke-dasharray:7,7;"/><polygon fill="#181818" points="115.84,330.68,125.2575,327.7972,119.6145,327.4008,120.0108,321.7579,115.84,330.68" style="stroke:#181818;stroke-width:1;"/></g><!--reverse link User to Profile--><g class="link" data-entity-1="User" data-entity-2="Profile" data-source-line="37" data-uid="lnk15" id="link_User_Profile"><path codeLine="37" d="M296.0503,65.5705 C305.5403,83.2305 312.92,96.94 322.46,114.68" fill="none" id="User-backto-Profile" style="stroke:#181818;stroke-width:1;"/><polygon fill="#181818" points="290.37,55,289.6867,62.1787,296.0503,65.5705,296.7336,58.3918,290.37,55" style="stroke:#181818;stroke-width:1;"/></g><!--reverse link User to Subscription--><g class="link" data-entity-1="User" data-entity-2="Subscription" data-source-line="39" data-uid="lnk16" id="link_User_Subscription"><path codeLine="39" d="M267.1137,66.7616 C254.2237,107.9216 231.17,181.58 218.29,222.72" fill="none" id="User-backto-Subscription" style="stroke:#181818;stroke-width:1;"/><polygon fill="#181818" points="270.7,55.31,265.0897,59.8404,267.1137,66.7616,272.7241,62.2312,270.7,55.31" style="stroke:#181818;stroke-width:1;"/></g><!--link Profile to Subscription--><g class="link" data-entity-1="Profile" data-entity-2="Subscription" data-source-line="40" data-uid="lnk17" id="link_Profile_Subscription"><path codeLine="40" d="M308.09,163 C287.44,180.66 263.5905,201.041 242.8405,218.781" fill="none" id="Profile-to-Subscription" style="stroke:#181818;stroke-width:1;stroke-dasharray:7,7;"/><polygon fill="#181818" points="238.28,222.68,247.7201,219.8719,242.0804,219.4309,242.5214,213.7912,238.28,222.68" style="stroke:#181818;stroke-width:1;"/></g><!--reverse link Profile to Playlist--><g class="link" data-entity-1="Profile" data-entity-2="Playlist" data-source-line="41" data-uid="lnk18" id="link_Profile_Playlist"><path codeLine="41" d="M338.9504,174.9238 C340.9504,192.5838 342.35,204.94 344.36,222.68" fill="none" id="Profile-backto-Playlist" style="stroke:#181818;stroke-width:1;"/><polygon fill="none" points="337.6,163,334.3006,169.412,338.9504,174.9238,342.2498,168.5118,337.6,163" style="stroke:#181818;stroke-width:1;"/></g><!--link Profile to Profile--><g class="link" data-entity-1="Profile" data-entity-2="Profile" data-source-line="44" data-uid="lnk19" id="link_Profile_Profile"><path codeLine="44" d="M373.31,119.24 C391.73,116.81 408,123.39 408,139 C408,154.61 397.6785,161.9747 379.2585,159.5447" fill="none" id="Profile-to-Profile" style="stroke:#181818;stroke-width:1;"/><polygon fill="#181818" points="373.31,158.76,381.7095,163.9027,378.2671,159.4139,382.7558,155.9715,373.31,158.76" style="stroke:#181818;stroke-width:1;"/></g><!--link Profile to Artist--><g class="link" data-entity-1="Profile" data-entity-2="Artist" data-source-line="45" data-uid="lnk20" id="link_Profile_Artist"><path codeLine="45" d="M361.69,163 C382.18,180.66 405.8154,201.0225 426.3954,218.7625" fill="none" id="Profile-to-Artist" style="stroke:#181818;stroke-width:1;"/><polygon fill="#181818" points="430.94,222.68,426.7347,213.7741,427.1528,219.4154,421.5114,219.8335,430.94,222.68" style="stroke:#181818;stroke-width:1;"/></g><!--reverse link Album to Song--><g class="link" data-entity-1="Album" data-entity-2="Song" data-source-line="48" data-uid="lnk21" id="link_Album_Song"><path codeLine="48" d="M481.9071,388.0214 C466.4171,405.6814 453.02,420.94 437.46,438.68" fill="none" id="Album-backto-Song" style="stroke:#181818;stroke-width:1;"/><polygon fill="none" points="489.82,379,482.8564,380.8731,481.9071,388.0214,488.8707,386.1483,489.82,379" style="stroke:#181818;stroke-width:1;"/></g><!--reverse link Album to EP--><g class="link" data-entity-1="Album" data-entity-2="EP" data-source-line="49" data-uid="lnk22" id="link_Album_EP"><path codeLine="49" d="M510,397 C510,414.66 510,420.94 510,438.68" fill="none" id="Album-backto-EP" style="stroke:#181818;stroke-width:1;"/><polygon fill="none" points="510,379,504,397,516,397,510,379" style="stroke:#181818;stroke-width:1;"/></g><!--reverse link Song to Single--><g class="link" data-entity-1="Song" data-entity-2="Single" data-source-line="50" data-uid="lnk23" id="link_Song_Single"><path codeLine="50" d="M417,505 C417,522.66 417,528.94 417,546.68" fill="none" id="Song-backto-Single" style="stroke:#181818;stroke-width:1;"/><polygon fill="none" points="417,487,411,505,423,505,417,487" style="stroke:#181818;stroke-width:1;"/></g><!--reverse link Playlist to Song--><g class="link" data-entity-1="Playlist" data-entity-2="Song" data-source-line="51" data-uid="lnk24" id="link_Playlist_Song"><path codeLine="51" d="M358.3523,282.7148 C371.8223,323.8748 395.93,397.58 409.38,438.72" fill="none" id="Playlist-backto-Song" style="stroke:#181818;stroke-width:1;"/><polygon fill="none" points="354.62,271.31,352.6846,278.2565,358.3523,282.7148,360.2878,275.7683,354.62,271.31" style="stroke:#181818;stroke-width:1;"/></g><!--link Artist to Album--><g class="link" data-entity-1="Artist" data-entity-2="Album" data-source-line="55" data-uid="lnk25" id="link_Artist_Album"><path codeLine="55" d="M471.9242,276.3859 C480.5942,294.0459 487.2181,307.5529 495.9181,325.2929" fill="none" id="Artist-Album" style="stroke:#181818;stroke-width:1;"/><polygon fill="#181818" points="469.28,271,469.6556,280.8417,471.4835,275.4883,476.8369,277.3161,469.28,271" style="stroke:#181818;stroke-width:1;"/><polygon fill="#181818" points="498.56,330.68,498.1885,320.8382,496.3584,326.1908,491.0058,324.3607,498.56,330.68" style="stroke:#181818;stroke-width:1;"/></g><!--link Artist to Song--><g class="link" data-entity-1="Artist" data-entity-2="Song" data-source-line="56" data-uid="lnk26" id="link_Artist_Song"><path codeLine="56" d="M452.4018,277.203 C444.5218,318.363 430.4687,391.6871 422.5887,432.8271" fill="none" id="Artist-Song" style="stroke:#181818;stroke-width:1;"/><polygon fill="#181818" points="453.53,271.31,447.9091,279.3973,452.5898,276.2208,455.7664,280.9016,453.53,271.31" style="stroke:#181818;stroke-width:1;"/><polygon fill="#181818" points="421.46,438.72,427.0817,430.6332,422.4006,433.8093,419.2245,429.1282,421.46,438.72" style="stroke:#181818;stroke-width:1;"/></g><!--SRC=[RL5RQiCm4FplAVOlK71E41BSn1-6D39IV035g46WIAuUBQNjtRkIOrTn0h9XPn-pEzCfxXoqJbZuVWBunGzVbz36cZUfH9vOyE0D5LfyGiyjXnXQeSq7xwJHcyrYQcRXv3ehUuzuDW2VqE5oasQU- -0Uy2kkxy1IdR3z3gwQF696d-zhcDHd9MOCNqewFvJ-SrYFuCtTq10AJKcF5UogFRIiBMbDC9CV0aMnJblFyULo_U1Yh4h2FnV5g7MY4Ww4Wk02jzA0YK4lBARXFKYXmUDFGD0SN4WZa_Rvj9mByT78-HfPoiGThcfSJzwILmAqsW4ZsxhSPyNfp6dX71sK6pLZv8LMW79joU5O7UfT56mmCF95boPWzOD8SZ6PbyB9i76plEsMf6oFXDPb73UOjqhhnD4pBBR_0G00]--></g><script xmlns=""/></svg>