<svg xmlns="http://www.w3.org/2000/svg" xmlns:xlink="http://www.w3.org/1999/xlink" contentStyleType="text/css" data-diagram-type="CLASS" height="1222px" preserveAspectRatio="none" style="width:812px;height:1222px;background:#FFFFFF;" version="1.1" viewBox="0 0 812 1222" width="812px" zoomAndPan="magnify"><defs/><g><!--class User--><g class="entity" data-entity="User" data-source-line="1" data-uid="ent0002" id="entity_User"><rect fill="#F1F1F1" height="178.375" rx="2.5" ry="2.5" style="stroke:#181818;stroke-width:0.5;" width="211.999" x="259" y="7"/><ellipse cx="344.7944" cy="23" fill="#ADD1B2" rx="11" ry="11" style="stroke:#181818;stroke-width:1;"/><path d="M347.7632,28.6406 Q347.1851,28.9375 346.5444,29.0781 Q345.9038,29.2344 345.2007,29.2344 Q342.7007,29.2344 341.3726,27.5938 Q340.0601,25.9375 340.0601,22.8125 Q340.0601,19.6875 341.3726,18.0313 Q342.7007,16.375 345.2007,16.375 Q345.9038,16.375 346.5444,16.5313 Q347.2007,16.6875 347.7632,16.9844 L347.7632,19.7031 Q347.1382,19.125 346.5444,18.8594 Q345.9507,18.5781 345.3257,18.5781 Q343.9819,18.5781 343.2944,19.6563 Q342.6069,20.7188 342.6069,22.8125 Q342.6069,24.9063 343.2944,25.9844 Q343.9819,27.0469 345.3257,27.0469 Q345.9507,27.0469 346.5444,26.7813 Q347.1382,26.5 347.7632,25.9219 L347.7632,28.6406 Z " fill="#000000"/><text fill="#000000" font-family="sans-serif" font-size="14" lengthAdjust="spacing" textLength="31.9102" x="365.2944" y="27.8467">User</text><line style="stroke:#181818;stroke-width:0.5;" x1="260" x2="469.999" y1="39" y2="39"/><rect fill="none" height="6" style="stroke:#C82930;stroke-width:1;" width="6" x="267" y="49.6484"/><text fill="#000000" font-family="sans-serif" font-size="14" lengthAdjust="spacing" textLength="44.6455" x="279" y="55.9951">id : int</text><rect fill="none" height="6" style="stroke:#C82930;stroke-width:1;" width="6" x="267" y="65.9453"/><text fill="#000000" font-family="sans-serif" font-size="14" lengthAdjust="spacing" textLength="95.1016" x="279" y="72.292">name : String</text><rect fill="none" height="6" style="stroke:#C82930;stroke-width:1;" width="6" x="267" y="82.2422"/><text fill="#000000" font-family="sans-serif" font-size="14" lengthAdjust="spacing" textLength="94.0078" x="279" y="88.5889">email : String</text><rect fill="none" height="6" style="stroke:#C82930;stroke-width:1;" width="6" x="267" y="98.5391"/><text fill="#000000" font-family="sans-serif" font-size="14" lengthAdjust="spacing" textLength="122.1104" x="279" y="104.8857">password : String</text><rect fill="none" height="6" style="stroke:#C82930;stroke-width:1;" width="6" x="267" y="114.8359"/><text fill="#000000" font-family="sans-serif" font-size="14" lengthAdjust="spacing" textLength="104.4873" x="279" y="121.1826">country: String</text><rect fill="none" height="6" style="stroke:#C82930;stroke-width:1;" width="6" x="267" y="131.1328"/><text fill="#000000" font-family="sans-serif" font-size="14" lengthAdjust="spacing" textLength="166.9199" x="279" y="137.4795">registerDate: LocalDate</text><rect fill="none" height="6" style="stroke:#C82930;stroke-width:1;" width="6" x="267" y="147.4297"/><text fill="#000000" font-family="sans-serif" font-size="14" lengthAdjust="spacing" textLength="145.1953" x="279" y="153.7764">profiles : List‹Profile›</text><rect fill="none" height="6" style="stroke:#C82930;stroke-width:1;" width="6" x="267" y="163.7266"/><text fill="#000000" font-family="sans-serif" font-size="14" lengthAdjust="spacing" textLength="185.999" x="279" y="170.0732">subscription : Subscription</text><line style="stroke:#181818;stroke-width:0.5;" x1="260" x2="469.999" y1="177.375" y2="177.375"/></g><!--class Profile--><g class="entity" data-entity="Profile" data-source-line="12" data-uid="ent0003" id="entity_Profile"><rect fill="#F1F1F1" height="194.6719" rx="2.5" ry="2.5" style="stroke:#181818;stroke-width:0.5;" width="240.8877" x="348.5" y="245"/><ellipse cx="442.6514" cy="261" fill="#ADD1B2" rx="11" ry="11" style="stroke:#181818;stroke-width:1;"/><path d="M445.6201,266.6406 Q445.042,266.9375 444.4014,267.0781 Q443.7607,267.2344 443.0576,267.2344 Q440.5576,267.2344 439.2295,265.5938 Q437.917,263.9375 437.917,260.8125 Q437.917,257.6875 439.2295,256.0313 Q440.5576,254.375 443.0576,254.375 Q443.7607,254.375 444.4014,254.5313 Q445.0576,254.6875 445.6201,254.9844 L445.6201,257.7031 Q444.9951,257.125 444.4014,256.8594 Q443.8076,256.5781 443.1826,256.5781 Q441.8389,256.5781 441.1514,257.6563 Q440.4639,258.7188 440.4639,260.8125 Q440.4639,262.9063 441.1514,263.9844 Q441.8389,265.0469 443.1826,265.0469 Q443.8076,265.0469 444.4014,264.7813 Q444.9951,264.5 445.6201,263.9219 L445.6201,266.6406 Z " fill="#000000"/><text fill="#000000" font-family="sans-serif" font-size="14" lengthAdjust="spacing" textLength="44.085" x="463.1514" y="265.8467">Profile</text><line style="stroke:#181818;stroke-width:0.5;" x1="349.5" x2="588.3877" y1="277" y2="277"/><rect fill="none" height="6" style="stroke:#C82930;stroke-width:1;" width="6" x="356.5" y="287.6484"/><text fill="#000000" font-family="sans-serif" font-size="14" lengthAdjust="spacing" textLength="44.6455" x="368.5" y="293.9951">id : int</text><rect fill="none" height="6" style="stroke:#C82930;stroke-width:1;" width="6" x="356.5" y="303.9453"/><text fill="#000000" font-family="sans-serif" font-size="14" lengthAdjust="spacing" textLength="123.6689" x="368.5" y="310.292">nickname : String</text><rect fill="none" height="6" style="stroke:#C82930;stroke-width:1;" width="6" x="356.5" y="320.2422"/><text fill="#000000" font-family="sans-serif" font-size="14" lengthAdjust="spacing" textLength="129.8281" x="368.5" y="326.5889">isPrivate : boolean</text><rect fill="none" height="6" style="stroke:#C82930;stroke-width:1;" width="6" x="356.5" y="336.5391"/><text fill="#000000" font-family="sans-serif" font-size="14" lengthAdjust="spacing" textLength="178.0215" x="368.5" y="342.8857">myPlaylists : List‹Playlist›</text><rect fill="none" height="6" style="stroke:#C82930;stroke-width:1;" width="6" x="356.5" y="352.8359"/><text fill="#000000" font-family="sans-serif" font-size="14" lengthAdjust="spacing" textLength="214.8877" x="368.5" y="359.1826">followedPlaylists : List‹Playlist›</text><rect fill="none" height="6" style="stroke:#C82930;stroke-width:1;" width="6" x="356.5" y="369.1328"/><text fill="#000000" font-family="sans-serif" font-size="14" lengthAdjust="spacing" textLength="190.3604" x="368.5" y="375.4795">followedArtists : List‹Artist›</text><rect fill="none" height="6" style="stroke:#C82930;stroke-width:1;" width="6" x="356.5" y="385.4297"/><text fill="#000000" font-family="sans-serif" font-size="14" lengthAdjust="spacing" textLength="156.3105" x="368.5" y="391.7764">following : List‹Profile›</text><rect fill="none" height="6" style="stroke:#C82930;stroke-width:1;" width="6" x="356.5" y="401.7266"/><text fill="#000000" font-family="sans-serif" font-size="14" lengthAdjust="spacing" textLength="156.3242" x="368.5" y="408.0732">followers : List‹Profile›</text><rect fill="none" height="6" style="stroke:#C82930;stroke-width:1;" width="6" x="356.5" y="418.0234"/><text fill="#000000" font-family="sans-serif" font-size="14" lengthAdjust="spacing" textLength="120.5586" x="368.5" y="424.3701">avatarUrl : String</text><line style="stroke:#181818;stroke-width:0.5;" x1="349.5" x2="588.3877" y1="431.6719" y2="431.6719"/></g><!--class Subscription--><g class="entity" data-entity="Subscription" data-source-line="25" data-uid="ent0004" id="entity_Subscription"><rect fill="#F1F1F1" height="145.7813" rx="2.5" ry="2.5" style="stroke:#181818;stroke-width:0.5;" width="214.2344" x="137" y="524.5"/><ellipse cx="196.3735" cy="540.5" fill="#ADD1B2" rx="11" ry="11" style="stroke:#181818;stroke-width:1;"/><path d="M199.3423,546.1406 Q198.7642,546.4375 198.1235,546.5781 Q197.4829,546.7344 196.7798,546.7344 Q194.2798,546.7344 192.9517,545.0938 Q191.6392,543.4375 191.6392,540.3125 Q191.6392,537.1875 192.9517,535.5313 Q194.2798,533.875 196.7798,533.875 Q197.4829,533.875 198.1235,534.0313 Q198.7798,534.1875 199.3423,534.4844 L199.3423,537.2031 Q198.7173,536.625 198.1235,536.3594 Q197.5298,536.0781 196.9048,536.0781 Q195.561,536.0781 194.8735,537.1563 Q194.186,538.2188 194.186,540.3125 Q194.186,542.4063 194.8735,543.4844 Q195.561,544.5469 196.9048,544.5469 Q197.5298,544.5469 198.1235,544.2813 Q198.7173,544 199.3423,543.4219 L199.3423,546.1406 Z " fill="#000000"/><text fill="#000000" font-family="sans-serif" font-size="14" lengthAdjust="spacing" textLength="86.9873" x="216.8735" y="545.3467">Subscription</text><line style="stroke:#181818;stroke-width:0.5;" x1="138" x2="350.2344" y1="556.5" y2="556.5"/><rect fill="none" height="6" style="stroke:#C82930;stroke-width:1;" width="6" x="145" y="567.1484"/><text fill="#000000" font-family="sans-serif" font-size="14" lengthAdjust="spacing" textLength="44.6455" x="157" y="573.4951">id : int</text><rect fill="none" height="6" style="stroke:#C82930;stroke-width:1;" width="6" x="145" y="583.4453"/><text fill="#000000" font-family="sans-serif" font-size="14" lengthAdjust="spacing" textLength="149.6797" x="157" y="589.792">startDate : LocalDate</text><rect fill="none" height="6" style="stroke:#C82930;stroke-width:1;" width="6" x="145" y="599.7422"/><text fill="#000000" font-family="sans-serif" font-size="14" lengthAdjust="spacing" textLength="143.4453" x="157" y="606.0889">endDate : LocalDate</text><rect fill="none" height="6" style="stroke:#C82930;stroke-width:1;" width="6" x="145" y="616.0391"/><text fill="#000000" font-family="sans-serif" font-size="14" lengthAdjust="spacing" textLength="188.2344" x="157" y="622.3857">status : SubscriptionStatus</text><rect fill="none" height="6" style="stroke:#C82930;stroke-width:1;" width="6" x="145" y="632.3359"/><text fill="#000000" font-family="sans-serif" font-size="14" lengthAdjust="spacing" textLength="170.2695" x="157" y="638.6826">paymentMethod : String</text><rect fill="none" height="6" style="stroke:#C82930;stroke-width:1;" width="6" x="145" y="648.6328"/><text fill="#000000" font-family="sans-serif" font-size="14" lengthAdjust="spacing" textLength="73.6299" x="157" y="654.9795">plan : Plan</text><line style="stroke:#181818;stroke-width:0.5;" x1="138" x2="350.2344" y1="662.2813" y2="662.2813"/></g><!--class SubscriptionStatus--><g class="entity" data-entity="SubscriptionStatus" data-source-line="35" data-uid="ent0005" id="entity_SubscriptionStatus"><rect fill="#F1F1F1" height="113.1875" rx="2.5" ry="2.5" style="stroke:#181818;stroke-width:0.5;" width="163.5986" x="7" y="771.5"/><ellipse cx="22" cy="787.5" fill="#EB937F" rx="11" ry="11" style="stroke:#181818;stroke-width:1;"/><path d="M26.1094,793.5 L18.3906,793.5 L18.3906,781.1094 L26.1094,781.1094 L26.1094,783.2656 L20.8438,783.2656 L20.8438,785.9375 L25.6094,785.9375 L25.6094,788.0938 L20.8438,788.0938 L20.8438,791.3438 L26.1094,791.3438 L26.1094,793.5 Z " fill="#000000"/><text fill="#000000" font-family="sans-serif" font-size="14" lengthAdjust="spacing" textLength="131.5986" x="36" y="792.3467">SubscriptionStatus</text><line style="stroke:#181818;stroke-width:0.5;" x1="8" x2="169.5986" y1="803.5" y2="803.5"/><text fill="#000000" font-family="sans-serif" font-size="14" lengthAdjust="spacing" textLength="50.4561" x="13" y="820.4951">ACTIVE</text><text fill="#000000" font-family="sans-serif" font-size="14" lengthAdjust="spacing" textLength="60.3613" x="13" y="836.792">EXPIRED</text><text fill="#000000" font-family="sans-serif" font-size="14" lengthAdjust="spacing" textLength="83.6719" x="13" y="853.0889">CANCELLED</text><text fill="#000000" font-family="sans-serif" font-size="14" lengthAdjust="spacing" textLength="137.5117" x="13" y="869.3857">PENDING_PAYMENT</text><line style="stroke:#181818;stroke-width:0.5;" x1="8" x2="169.5986" y1="876.6875" y2="876.6875"/></g><!--class Plan--><g class="entity" data-entity="Plan" data-source-line="42" data-uid="ent0006" id="entity_Plan"><rect fill="#F1F1F1" height="129.4844" rx="2.5" ry="2.5" style="stroke:#181818;stroke-width:0.5;" width="178.1064" x="206" y="763.5"/><ellipse cx="275.9111" cy="779.5" fill="#ADD1B2" rx="11" ry="11" style="stroke:#181818;stroke-width:1;"/><path d="M278.8799,785.1406 Q278.3018,785.4375 277.6611,785.5781 Q277.0205,785.7344 276.3174,785.7344 Q273.8174,785.7344 272.4893,784.0938 Q271.1768,782.4375 271.1768,779.3125 Q271.1768,776.1875 272.4893,774.5313 Q273.8174,772.875 276.3174,772.875 Q277.0205,772.875 277.6611,773.0313 Q278.3174,773.1875 278.8799,773.4844 L278.8799,776.2031 Q278.2549,775.625 277.6611,775.3594 Q277.0674,775.0781 276.4424,775.0781 Q275.0986,775.0781 274.4111,776.1563 Q273.7236,777.2188 273.7236,779.3125 Q273.7236,781.4063 274.4111,782.4844 Q275.0986,783.5469 276.4424,783.5469 Q277.0674,783.5469 277.6611,783.2813 Q278.2549,783 278.8799,782.4219 L278.8799,785.1406 Z " fill="#000000"/><text fill="#000000" font-family="sans-serif" font-size="14" lengthAdjust="spacing" textLength="29.7842" x="296.4111" y="784.3467">Plan</text><line style="stroke:#181818;stroke-width:0.5;" x1="207" x2="383.1064" y1="795.5" y2="795.5"/><rect fill="none" height="6" style="stroke:#C82930;stroke-width:1;" width="6" x="214" y="806.1484"/><text fill="#000000" font-family="sans-serif" font-size="14" lengthAdjust="spacing" textLength="44.6455" x="226" y="812.4951">id : int</text><rect fill="none" height="6" style="stroke:#C82930;stroke-width:1;" width="6" x="214" y="822.4453"/><text fill="#000000" font-family="sans-serif" font-size="14" lengthAdjust="spacing" textLength="95.1016" x="226" y="828.792">name : String</text><rect fill="none" height="6" style="stroke:#C82930;stroke-width:1;" width="6" x="214" y="838.7422"/><text fill="#000000" font-family="sans-serif" font-size="14" lengthAdjust="spacing" textLength="96.1748" x="226" y="845.0889">price : double</text><rect fill="none" height="6" style="stroke:#C82930;stroke-width:1;" width="6" x="214" y="855.0391"/><text fill="#000000" font-family="sans-serif" font-size="14" lengthAdjust="spacing" textLength="113.75" x="226" y="861.3857">maxProfiles : int</text><rect fill="none" height="6" style="stroke:#C82930;stroke-width:1;" width="6" x="214" y="871.3359"/><text fill="#000000" font-family="sans-serif" font-size="14" lengthAdjust="spacing" textLength="152.1064" x="226" y="877.6826">allowOffline : boolean</text><line style="stroke:#181818;stroke-width:0.5;" x1="207" x2="383.1064" y1="884.9844" y2="884.9844"/></g><!--class Album--><g class="entity" data-entity="Album" data-source-line="50" data-uid="ent0007" id="entity_Album"><rect fill="#F1F1F1" height="145.7813" rx="2.5" ry="2.5" style="stroke:#181818;stroke-width:0.5;" width="194.4307" x="611" y="755"/><ellipse cx="681.5332" cy="771" fill="#ADD1B2" rx="11" ry="11" style="stroke:#181818;stroke-width:1;"/><path d="M684.502,776.6406 Q683.9238,776.9375 683.2832,777.0781 Q682.6426,777.2344 681.9395,777.2344 Q679.4395,777.2344 678.1113,775.5938 Q676.7988,773.9375 676.7988,770.8125 Q676.7988,767.6875 678.1113,766.0313 Q679.4395,764.375 681.9395,764.375 Q682.6426,764.375 683.2832,764.5313 Q683.9395,764.6875 684.502,764.9844 L684.502,767.7031 Q683.877,767.125 683.2832,766.8594 Q682.6895,766.5781 682.0645,766.5781 Q680.7207,766.5781 680.0332,767.6563 Q679.3457,768.7188 679.3457,770.8125 Q679.3457,772.9063 680.0332,773.9844 Q680.7207,775.0469 682.0645,775.0469 Q682.6895,775.0469 683.2832,774.7813 Q683.877,774.5 684.502,773.9219 L684.502,776.6406 Z " fill="#000000"/><text fill="#000000" font-family="sans-serif" font-size="14" lengthAdjust="spacing" textLength="44.8643" x="702.0332" y="775.8467">Album</text><line style="stroke:#181818;stroke-width:0.5;" x1="612" x2="804.4307" y1="787" y2="787"/><rect fill="none" height="6" style="stroke:#C82930;stroke-width:1;" width="6" x="619" y="797.6484"/><text fill="#000000" font-family="sans-serif" font-size="14" lengthAdjust="spacing" textLength="44.6455" x="631" y="803.9951">id : int</text><rect fill="none" height="6" style="stroke:#C82930;stroke-width:1;" width="6" x="619" y="813.9453"/><text fill="#000000" font-family="sans-serif" font-size="14" lengthAdjust="spacing" textLength="82.7695" x="631" y="820.292">title : String</text><rect fill="none" height="6" style="stroke:#C82930;stroke-width:1;" width="6" x="619" y="830.2422"/><text fill="#000000" font-family="sans-serif" font-size="14" lengthAdjust="spacing" textLength="168.4307" x="631" y="836.5889">releaseDate : LocalDate</text><rect fill="none" height="6" style="stroke:#C82930;stroke-width:1;" width="6" x="619" y="846.5391"/><text fill="#000000" font-family="sans-serif" font-size="14" lengthAdjust="spacing" textLength="125.4121" x="631" y="852.8857">songs : List‹Song›</text><rect fill="none" height="6" style="stroke:#C82930;stroke-width:1;" width="6" x="619" y="862.8359"/><text fill="#000000" font-family="sans-serif" font-size="14" lengthAdjust="spacing" textLength="130.5732" x="631" y="869.1826">artists : List‹Artist›</text><rect fill="none" height="6" style="stroke:#C82930;stroke-width:1;" width="6" x="619" y="879.1328"/><text fill="#000000" font-family="sans-serif" font-size="14" lengthAdjust="spacing" textLength="114.208" x="631" y="885.4795">coverUrl : String</text><line style="stroke:#181818;stroke-width:0.5;" x1="612" x2="804.4307" y1="892.7813" y2="892.7813"/></g><!--class EP--><g class="entity" data-entity="EP" data-source-line="59" data-uid="ent0008" id="entity_EP"><rect fill="#F1F1F1" height="48" rx="2.5" ry="2.5" style="stroke:#181818;stroke-width:0.5;" width="49.2881" x="683.5" y="1010"/><ellipse cx="698.5" cy="1026" fill="#ADD1B2" rx="11" ry="11" style="stroke:#181818;stroke-width:1;"/><path d="M701.4688,1031.6406 Q700.8906,1031.9375 700.25,1032.0781 Q699.6094,1032.2344 698.9063,1032.2344 Q696.4063,1032.2344 695.0781,1030.5938 Q693.7656,1028.9375 693.7656,1025.8125 Q693.7656,1022.6875 695.0781,1021.0313 Q696.4063,1019.375 698.9063,1019.375 Q699.6094,1019.375 700.25,1019.5313 Q700.9063,1019.6875 701.4688,1019.9844 L701.4688,1022.7031 Q700.8438,1022.125 700.25,1021.8594 Q699.6563,1021.5781 699.0313,1021.5781 Q697.6875,1021.5781 697,1022.6563 Q696.3125,1023.7188 696.3125,1025.8125 Q696.3125,1027.9063 697,1028.9844 Q697.6875,1030.0469 699.0313,1030.0469 Q699.6563,1030.0469 700.25,1029.7813 Q700.8438,1029.5 701.4688,1028.9219 L701.4688,1031.6406 Z " fill="#000000"/><text fill="#000000" font-family="sans-serif" font-size="14" lengthAdjust="spacing" textLength="17.2881" x="712.5" y="1030.8467">EP</text><line style="stroke:#181818;stroke-width:0.5;" x1="684.5" x2="731.7881" y1="1042" y2="1042"/><line style="stroke:#181818;stroke-width:0.5;" x1="684.5" x2="731.7881" y1="1050" y2="1050"/></g><!--class Song--><g class="entity" data-entity="Song" data-source-line="61" data-uid="ent0009" id="entity_Song"><rect fill="#F1F1F1" height="145.7813" rx="2.5" ry="2.5" style="stroke:#181818;stroke-width:0.5;" width="156.5732" x="479.5" y="961"/><ellipse cx="535.9307" cy="977" fill="#ADD1B2" rx="11" ry="11" style="stroke:#181818;stroke-width:1;"/><path d="M538.8994,982.6406 Q538.3213,982.9375 537.6807,983.0781 Q537.04,983.2344 536.3369,983.2344 Q533.8369,983.2344 532.5088,981.5938 Q531.1963,979.9375 531.1963,976.8125 Q531.1963,973.6875 532.5088,972.0313 Q533.8369,970.375 536.3369,970.375 Q537.04,970.375 537.6807,970.5313 Q538.3369,970.6875 538.8994,970.9844 L538.8994,973.7031 Q538.2744,973.125 537.6807,972.8594 Q537.0869,972.5781 536.4619,972.5781 Q535.1182,972.5781 534.4307,973.6563 Q533.7432,974.7188 533.7432,976.8125 Q533.7432,978.9063 534.4307,979.9844 Q535.1182,981.0469 536.4619,981.0469 Q537.0869,981.0469 537.6807,980.7813 Q538.2744,980.5 538.8994,979.9219 L538.8994,982.6406 Z " fill="#000000"/><text fill="#000000" font-family="sans-serif" font-size="14" lengthAdjust="spacing" textLength="35.2119" x="556.4307" y="981.8467">Song</text><line style="stroke:#181818;stroke-width:0.5;" x1="480.5" x2="635.0732" y1="993" y2="993"/><rect fill="none" height="6" style="stroke:#C82930;stroke-width:1;" width="6" x="487.5" y="1003.6484"/><text fill="#000000" font-family="sans-serif" font-size="14" lengthAdjust="spacing" textLength="44.6455" x="499.5" y="1009.9951">id : int</text><rect fill="none" height="6" style="stroke:#C82930;stroke-width:1;" width="6" x="487.5" y="1019.9453"/><text fill="#000000" font-family="sans-serif" font-size="14" lengthAdjust="spacing" textLength="82.7695" x="499.5" y="1026.292">title : String</text><rect fill="none" height="6" style="stroke:#C82930;stroke-width:1;" width="6" x="487.5" y="1036.2422"/><text fill="#000000" font-family="sans-serif" font-size="14" lengthAdjust="spacing" textLength="90.7813" x="499.5" y="1042.5889">duration : int</text><rect fill="none" height="6" style="stroke:#C82930;stroke-width:1;" width="6" x="487.5" y="1052.5391"/><text fill="#000000" font-family="sans-serif" font-size="14" lengthAdjust="spacing" textLength="96.6123" x="499.5" y="1058.8857">fileUrl : String</text><rect fill="none" height="6" style="stroke:#C82930;stroke-width:1;" width="6" x="487.5" y="1068.8359"/><text fill="#000000" font-family="sans-serif" font-size="14" lengthAdjust="spacing" textLength="130.5732" x="499.5" y="1075.1826">artists : List‹Artist›</text><rect fill="none" height="6" style="stroke:#C82930;stroke-width:1;" width="6" x="487.5" y="1085.1328"/><text fill="#000000" font-family="sans-serif" font-size="14" lengthAdjust="spacing" textLength="115.0488" x="499.5" y="1091.4795">playCount : long</text><line style="stroke:#181818;stroke-width:0.5;" x1="480.5" x2="635.0732" y1="1098.7813" y2="1098.7813"/></g><!--class Single--><g class="entity" data-entity="Single" data-source-line="70" data-uid="ent0010" id="entity_Single"><rect fill="#F1F1F1" height="48" rx="2.5" ry="2.5" style="stroke:#181818;stroke-width:0.5;" width="75.0391" x="520.5" y="1167"/><ellipse cx="535.5" cy="1183" fill="#ADD1B2" rx="11" ry="11" style="stroke:#181818;stroke-width:1;"/><path d="M538.4688,1188.6406 Q537.8906,1188.9375 537.25,1189.0781 Q536.6094,1189.2344 535.9063,1189.2344 Q533.4063,1189.2344 532.0781,1187.5938 Q530.7656,1185.9375 530.7656,1182.8125 Q530.7656,1179.6875 532.0781,1178.0313 Q533.4063,1176.375 535.9063,1176.375 Q536.6094,1176.375 537.25,1176.5313 Q537.9063,1176.6875 538.4688,1176.9844 L538.4688,1179.7031 Q537.8438,1179.125 537.25,1178.8594 Q536.6563,1178.5781 536.0313,1178.5781 Q534.6875,1178.5781 534,1179.6563 Q533.3125,1180.7188 533.3125,1182.8125 Q533.3125,1184.9063 534,1185.9844 Q534.6875,1187.0469 536.0313,1187.0469 Q536.6563,1187.0469 537.25,1186.7813 Q537.8438,1186.5 538.4688,1185.9219 L538.4688,1188.6406 Z " fill="#000000"/><text fill="#000000" font-family="sans-serif" font-size="14" lengthAdjust="spacing" textLength="43.0391" x="549.5" y="1187.8467">Single</text><line style="stroke:#181818;stroke-width:0.5;" x1="521.5" x2="594.5391" y1="1199" y2="1199"/><line style="stroke:#181818;stroke-width:0.5;" x1="521.5" x2="594.5391" y1="1207" y2="1207"/></g><!--class Playlist--><g class="entity" data-entity="Playlist" data-source-line="72" data-uid="ent0011" id="entity_Playlist"><rect fill="#F1F1F1" height="194.6719" rx="2.5" ry="2.5" style="stroke:#181818;stroke-width:0.5;" width="200.5352" x="386.5" y="500"/><ellipse cx="457.6382" cy="516" fill="#ADD1B2" rx="11" ry="11" style="stroke:#181818;stroke-width:1;"/><path d="M460.6069,521.6406 Q460.0288,521.9375 459.3882,522.0781 Q458.7476,522.2344 458.0444,522.2344 Q455.5444,522.2344 454.2163,520.5938 Q452.9038,518.9375 452.9038,515.8125 Q452.9038,512.6875 454.2163,511.0313 Q455.5444,509.375 458.0444,509.375 Q458.7476,509.375 459.3882,509.5313 Q460.0444,509.6875 460.6069,509.9844 L460.6069,512.7031 Q459.9819,512.125 459.3882,511.8594 Q458.7944,511.5781 458.1694,511.5781 Q456.8257,511.5781 456.1382,512.6563 Q455.4507,513.7188 455.4507,515.8125 Q455.4507,517.9063 456.1382,518.9844 Q456.8257,520.0469 458.1694,520.0469 Q458.7944,520.0469 459.3882,519.7813 Q459.9819,519.5 460.6069,518.9219 L460.6069,521.6406 Z " fill="#000000"/><text fill="#000000" font-family="sans-serif" font-size="14" lengthAdjust="spacing" textLength="49.7588" x="478.1382" y="520.8467">Playlist</text><line style="stroke:#181818;stroke-width:0.5;" x1="387.5" x2="586.0352" y1="532" y2="532"/><rect fill="none" height="6" style="stroke:#C82930;stroke-width:1;" width="6" x="394.5" y="542.6484"/><text fill="#000000" font-family="sans-serif" font-size="14" lengthAdjust="spacing" textLength="44.6455" x="406.5" y="548.9951">id : int</text><rect fill="none" height="6" style="stroke:#C82930;stroke-width:1;" width="6" x="394.5" y="558.9453"/><text fill="#000000" font-family="sans-serif" font-size="14" lengthAdjust="spacing" textLength="82.7695" x="406.5" y="565.292">title : String</text><rect fill="none" height="6" style="stroke:#C82930;stroke-width:1;" width="6" x="394.5" y="575.2422"/><text fill="#000000" font-family="sans-serif" font-size="14" lengthAdjust="spacing" textLength="133.2393" x="406.5" y="581.5889">description : String</text><rect fill="none" height="6" style="stroke:#C82930;stroke-width:1;" width="6" x="394.5" y="591.5391"/><text fill="#000000" font-family="sans-serif" font-size="14" lengthAdjust="spacing" textLength="114.208" x="406.5" y="597.8857">coverUrl : String</text><rect fill="none" height="6" style="stroke:#C82930;stroke-width:1;" width="6" x="394.5" y="607.8359"/><text fill="#000000" font-family="sans-serif" font-size="14" lengthAdjust="spacing" textLength="122.4521" x="406.5" y="614.1826">isPublic : boolean</text><rect fill="none" height="6" style="stroke:#C82930;stroke-width:1;" width="6" x="394.5" y="624.1328"/><text fill="#000000" font-family="sans-serif" font-size="14" lengthAdjust="spacing" textLength="125.4121" x="406.5" y="630.4795">songs : List‹Song›</text><rect fill="none" height="6" style="stroke:#C82930;stroke-width:1;" width="6" x="394.5" y="640.4297"/><text fill="#000000" font-family="sans-serif" font-size="14" lengthAdjust="spacing" textLength="100.96" x="406.5" y="646.7764">owner : Profile</text><rect fill="none" height="6" style="stroke:#C82930;stroke-width:1;" width="6" x="394.5" y="656.7266"/><text fill="#000000" font-family="sans-serif" font-size="14" lengthAdjust="spacing" textLength="174.5352" x="406.5" y="663.0732">creationDate : LocalDate</text><rect fill="none" height="6" style="stroke:#C82930;stroke-width:1;" width="6" x="394.5" y="673.0234"/><text fill="#000000" font-family="sans-serif" font-size="14" lengthAdjust="spacing" textLength="156.3242" x="406.5" y="679.3701">followers : List‹Profile›</text><line style="stroke:#181818;stroke-width:0.5;" x1="387.5" x2="586.0352" y1="686.6719" y2="686.6719"/></g><!--class Artist--><g class="entity" data-entity="Artist" data-source-line="84" data-uid="ent0012" id="entity_Artist"><rect fill="#F1F1F1" height="162.0781" rx="2.5" ry="2.5" style="stroke:#181818;stroke-width:0.5;" width="171.3115" x="622.5" y="516.5"/><ellipse cx="685.1582" cy="532.5" fill="#ADD1B2" rx="11" ry="11" style="stroke:#181818;stroke-width:1;"/><path d="M688.127,538.1406 Q687.5488,538.4375 686.9082,538.5781 Q686.2676,538.7344 685.5645,538.7344 Q683.0645,538.7344 681.7363,537.0938 Q680.4238,535.4375 680.4238,532.3125 Q680.4238,529.1875 681.7363,527.5313 Q683.0645,525.875 685.5645,525.875 Q686.2676,525.875 686.9082,526.0313 Q687.5645,526.1875 688.127,526.4844 L688.127,529.2031 Q687.502,528.625 686.9082,528.3594 Q686.3145,528.0781 685.6895,528.0781 Q684.3457,528.0781 683.6582,529.1563 Q682.9707,530.2188 682.9707,532.3125 Q682.9707,534.4063 683.6582,535.4844 Q684.3457,536.5469 685.6895,536.5469 Q686.3145,536.5469 686.9082,536.2813 Q687.502,536 688.127,535.4219 L688.127,538.1406 Z " fill="#000000"/><text fill="#000000" font-family="sans-serif" font-size="14" lengthAdjust="spacing" textLength="37.4951" x="705.6582" y="537.3467">Artist</text><line style="stroke:#181818;stroke-width:0.5;" x1="623.5" x2="792.8115" y1="548.5" y2="548.5"/><rect fill="none" height="6" style="stroke:#C82930;stroke-width:1;" width="6" x="630.5" y="559.1484"/><text fill="#000000" font-family="sans-serif" font-size="14" lengthAdjust="spacing" textLength="44.6455" x="642.5" y="565.4951">id : int</text><rect fill="none" height="6" style="stroke:#C82930;stroke-width:1;" width="6" x="630.5" y="575.4453"/><text fill="#000000" font-family="sans-serif" font-size="14" lengthAdjust="spacing" textLength="95.1016" x="642.5" y="581.792">name : String</text><rect fill="none" height="6" style="stroke:#C82930;stroke-width:1;" width="6" x="630.5" y="591.7422"/><text fill="#000000" font-family="sans-serif" font-size="14" lengthAdjust="spacing" textLength="126.0068" x="642.5" y="598.0889">biography : String</text><rect fill="none" height="6" style="stroke:#C82930;stroke-width:1;" width="6" x="630.5" y="608.0391"/><text fill="#000000" font-family="sans-serif" font-size="14" lengthAdjust="spacing" textLength="108.9375" x="642.5" y="614.3857">country : String</text><rect fill="none" height="6" style="stroke:#C82930;stroke-width:1;" width="6" x="630.5" y="624.3359"/><text fill="#000000" font-family="sans-serif" font-size="14" lengthAdjust="spacing" textLength="120.5586" x="642.5" y="630.6826">avatarUrl : String</text><rect fill="none" height="6" style="stroke:#C82930;stroke-width:1;" width="6" x="630.5" y="640.6328"/><text fill="#000000" font-family="sans-serif" font-size="14" lengthAdjust="spacing" textLength="145.3115" x="642.5" y="646.9795">albums : List‹Album›</text><rect fill="none" height="6" style="stroke:#C82930;stroke-width:1;" width="6" x="630.5" y="656.9297"/><text fill="#000000" font-family="sans-serif" font-size="14" lengthAdjust="spacing" textLength="125.4121" x="642.5" y="663.2764">songs : List‹Song›</text><line style="stroke:#181818;stroke-width:0.5;" x1="623.5" x2="792.8115" y1="670.5781" y2="670.5781"/></g><!--link Subscription to Plan--><g class="link" data-entity-1="Subscription" data-entity-2="Plan" data-source-line="95" data-uid="lnk13" id="link_Subscription_Plan"><path codeLine="95" d="M260.14,670.8 C266.76,700.48 273.0511,728.6945 279.4711,757.4145" fill="none" id="Subscription-to-Plan" style="stroke:#181818;stroke-width:1;"/><polygon fill="#181818" points="280.78,763.27,282.7203,753.6142,279.6892,758.3904,274.913,755.3594,280.78,763.27" style="stroke:#181818;stroke-width:1;"/></g><!--link Subscription to SubscriptionStatus--><g class="link" data-entity-1="Subscription" data-entity-2="SubscriptionStatus" data-source-line="96" data-uid="lnk14" id="link_Subscription_SubscriptionStatus"><path codeLine="96" d="M194.96,670.8 C172.87,703.36 150.5782,736.2246 130.0382,766.5046" fill="none" id="Subscription-to-SubscriptionStatus" style="stroke:#181818;stroke-width:1;stroke-dasharray:7,7;"/><polygon fill="#181818" points="126.67,771.47,135.0326,766.2674,129.4768,767.3322,128.412,761.7764,126.67,771.47" style="stroke:#181818;stroke-width:1;"/></g><!--reverse link User to Profile--><g class="link" data-entity-1="User" data-entity-2="Profile" data-source-line="97" data-uid="lnk15" id="link_User_Profile"><path codeLine="97" d="M407.2445,196.3136 C415.4445,215.6036 419.48,225.07 427.81,244.67" fill="none" id="User-backto-Profile" style="stroke:#181818;stroke-width:1;"/><polygon fill="#181818" points="402.55,185.27,401.2161,192.3567,407.2445,196.3136,408.5785,189.227,402.55,185.27" style="stroke:#181818;stroke-width:1;"/></g><!--reverse link User to Subscription--><g class="link" data-entity-1="User" data-entity-2="Subscription" data-source-line="99" data-uid="lnk16" id="link_User_Subscription"><path codeLine="99" d="M340.8241,196.8125 C317.4441,293.3025 283.24,434.51 261.51,524.21" fill="none" id="User-backto-Subscription" style="stroke:#181818;stroke-width:1;"/><polygon fill="#181818" points="343.65,185.15,338.3496,190.0393,340.8241,196.8125,346.1246,191.9232,343.65,185.15" style="stroke:#181818;stroke-width:1;"/></g><!--link Profile to Subscription--><g class="link" data-entity-1="Profile" data-entity-2="Subscription" data-source-line="100" data-uid="lnk17" id="link_Profile_Subscription"><path codeLine="100" d="M382.97,440.23 C358.16,468.13 335.5176,493.5968 312.2676,519.7368" fill="none" id="Profile-to-Subscription" style="stroke:#181818;stroke-width:1;stroke-dasharray:7,7;"/><polygon fill="#181818" points="308.28,524.22,317.2502,520.1535,311.603,520.484,311.2725,514.8368,308.28,524.22" style="stroke:#181818;stroke-width:1;"/></g><!--reverse link Profile to Playlist--><g class="link" data-entity-1="Profile" data-entity-2="Playlist" data-source-line="101" data-uid="lnk18" id="link_Profile_Playlist"><path codeLine="101" d="M476.7319,452.1997 C478.1219,471.7297 478.73,480.29 480.12,499.82" fill="none" id="Profile-backto-Playlist" style="stroke:#181818;stroke-width:1;"/><polygon fill="none" points="475.88,440.23,472.3161,446.4988,476.7319,452.1997,480.2959,445.9309,475.88,440.23" style="stroke:#181818;stroke-width:1;"/></g><!--link Profile to Profile--><g class="link" data-entity-1="Profile" data-entity-2="Profile" data-source-line="104" data-uid="lnk19" id="link_Profile_Profile"><path codeLine="104" d="M589.62,299.44 C610.22,305.32 624.5,319.68 624.5,342.5 C624.5,365.32 615.9896,378.0332 595.3896,383.9132" fill="none" id="Profile-to-Profile" style="stroke:#181818;stroke-width:1;"/><polygon fill="#181818" points="589.62,385.56,599.3722,386.9361,594.428,384.1876,597.1765,379.2434,589.62,385.56" style="stroke:#181818;stroke-width:1;"/></g><!--link Profile to Artist--><g class="link" data-entity-1="Profile" data-entity-2="Artist" data-source-line="105" data-uid="lnk20" id="link_Profile_Artist"><path codeLine="105" d="M560.38,440.23 C584.1,465.34 605.27,487.7481 628.09,511.9081" fill="none" id="Profile-to-Artist" style="stroke:#181818;stroke-width:1;"/><polygon fill="#181818" points="632.21,516.27,628.938,506.9805,628.7767,512.6351,623.1222,512.4738,632.21,516.27" style="stroke:#181818;stroke-width:1;"/></g><!--reverse link Album to Song--><g class="link" data-entity-1="Album" data-entity-2="Song" data-source-line="108" data-uid="lnk21" id="link_Album_Song"><path codeLine="108" d="M647.7922,910.8784 C633.5522,930.2484 625.26,941.52 611.02,960.89" fill="none" id="Album-backto-Song" style="stroke:#181818;stroke-width:1;"/><polygon fill="none" points="654.9,901.21,648.1233,903.6749,647.7922,910.8784,654.5689,908.4135,654.9,901.21" style="stroke:#181818;stroke-width:1;"/></g><!--reverse link Album to EP--><g class="link" data-entity-1="Album" data-entity-2="EP" data-source-line="109" data-uid="lnk22" id="link_Album_EP"><path codeLine="109" d="M708,919.21 C708,957.26 708,983.38 708,1009.7" fill="none" id="Album-backto-EP" style="stroke:#181818;stroke-width:1;"/><polygon fill="none" points="708,901.21,702,919.21,714,919.21,708,901.21" style="stroke:#181818;stroke-width:1;"/></g><!--reverse link Song to Single--><g class="link" data-entity-1="Song" data-entity-2="Single" data-source-line="110" data-uid="lnk23" id="link_Song_Single"><path codeLine="110" d="M558,1125.05 C558,1146.72 558,1150.95 558,1166.94" fill="none" id="Song-backto-Single" style="stroke:#181818;stroke-width:1;"/><polygon fill="none" points="558,1107.05,552,1125.05,564,1125.05,558,1107.05" style="stroke:#181818;stroke-width:1;"/></g><!--reverse link Playlist to Song--><g class="link" data-entity-1="Playlist" data-entity-2="Song" data-source-line="111" data-uid="lnk24" id="link_Playlist_Song"><path codeLine="111" d="M501.8717,706.9516 C510.2917,766.4416 520.14,832.33 532,901 C535.36,920.45 539.33,941.44 543.15,960.84" fill="none" id="Playlist-backto-Song" style="stroke:#181818;stroke-width:1;"/><polygon fill="none" points="500.19,695.07,497.0703,701.5713,501.8717,706.9516,504.9914,700.4502,500.19,695.07" style="stroke:#181818;stroke-width:1;"/></g><!--link Artist to Album--><g class="link" data-entity-1="Artist" data-entity-2="Album" data-source-line="115" data-uid="lnk25" id="link_Artist_Album"><path codeLine="115" d="M708,684.74 C708,709.56 708,724.73 708,748.96" fill="none" id="Artist-Album" style="stroke:#181818;stroke-width:1;"/><polygon fill="#181818" points="708,678.74,704,687.74,708,683.74,712,687.74,708,678.74" style="stroke:#181818;stroke-width:1;"/><polygon fill="#181818" points="708,754.96,712,745.96,708,749.96,704,745.96,708,754.96" style="stroke:#181818;stroke-width:1;"/></g><!--link Artist to Song--><g class="link" data-entity-1="Artist" data-entity-2="Song" data-source-line="116" data-uid="lnk26" id="link_Artist_Song"><path codeLine="116" d="M634.2765,683.6092 C617.3565,706.8292 604.64,728.3 594,755 C567.52,821.46 559.784,897.2635 557.824,954.8735" fill="none" id="Artist-Song" style="stroke:#181818;stroke-width:1;"/><polygon fill="#181818" points="637.81,678.76,629.277,683.6781,634.8654,682.801,635.7425,688.3894,637.81,678.76" style="stroke:#181818;stroke-width:1;"/><polygon fill="#181818" points="557.62,960.87,561.9237,952.0112,557.79,955.8729,553.9283,951.7392,557.62,960.87" style="stroke:#181818;stroke-width:1;"/></g><!--SRC=[bLNXRfim4FxVf_2_I9FI1uYgLWnGXPG61Ccq_PeSS59hZfqPaopQAlMrjiVfa-ni81Wdf4r49EvydC_VVVSvPxWiqQ8a4ls-GV0R8rgW2Q9SDIR76mAEJ4dArusFR31bhdCBcVP25gu_5nLNyk1u9LdJKX4PO4KcQ2fopFHhcqkA5MMaX5nJ27jx_PlKdhVNVqr8MItBNDAjeeBhBIqJ8bxW3qzkZjTyEtX2clyuTqfQ9fBke2XOM0h12ERDokQGC7nWK9bTOUFgIbm9niIU55S5UrBrGsk76mXbNW2dIIOl0OZXQ5WkPA-H3MuZN2cH4axsq5Q9aJObuMA7Sy3tuM5qnDR6tSKNjQs2VLHG0-bscl1YO0M-KbNfj3OppYFZ3Xl2rHDHpwAZNRlhbc5D343Q8WGyX5URCpaRTdZ-FFeIcjVmQnAbOL3dyxsP7qwdOM2i99m5qUpnU-9zUmfdynF2mPuV6QTZgPBcsbk8QidQys_mhwGR0mjEh7iRhrQCyZurUpLuR0dd7AX2KSLE-2u9v2d9K3i4Nrjqoi2qkFGUQNEn8mDSgyiD4zlIsQ-glQWaRfIWYzJOENj-g5XWpi7NgWKXJ9pMca4kqoQxuMQShogPzFIhBvaEMgYJ9608pKyKwM9tn9w3lazQ7MmtaSH0Dj3lzoJavQQZci7lcWjaISLQuktpOU2oE6dPEQsgPm5ORhTIszObCGHBgtCeYLEKUEayH44uHOjiuQLH32ksGA3n-BxLaPx_zlR-l3gP2_NJU6n1Fa8mnuIXggomf089RMo9X6NqiwA40qj0S575CTnj9gNHMZkRSycrzvfRXhKaT0qDEPiZ-_5JZBIkPR4VULChs1ppMB3jhJlSOfR5dzCG0Ln-F9k7ioZGWDLwe_VBwf6f7NT_m6E6syoqCO_pqrPcVzRVn5lCupJoTBgQP7Uc79tQyUdF_mC0]--></g><script xmlns=""/></svg>