<?plantuml 1.2026.2beta3?><svg xmlns="http://www.w3.org/2000/svg" xmlns:xlink="http://www.w3.org/1999/xlink" contentStyleType="text/css" data-diagram-type="CLASS" height="599px" preserveAspectRatio="none" style="width:199px;height:599px;background:#FFFFFF;" version="1.1" viewBox="0 0 199 599" width="199px" zoomAndPan="magnify"><title>Ecosistema musical</title><defs/><g><g class="title" data-source-line="1"><text fill="#000000" font-family="sans-serif" font-size="14" font-weight="bold" lengthAdjust="spacing" textLength="154.2734" x="15.6538" y="22.9951">Ecosistema musical</text></g><!--class Usuario--><g class="entity" data-qualified-name="Usuario" data-source-line="3" id="ent0002"><rect fill="#F1F1F1" height="48" rx="2.5" ry="2.5" style="stroke:#181818;stroke-width:0.5;" width="85.2041" x="66.44" y="44.2969"/><ellipse cx="81.44" cy="60.2969" fill="#ADD1B2" rx="11" ry="11" style="stroke:#181818;stroke-width:1;"/><path d="M84.4088,65.9375 Q83.8306,66.2344 83.19,66.375 Q82.5494,66.5313 81.8463,66.5313 Q79.3463,66.5313 78.0181,64.8906 Q76.7056,63.2344 76.7056,60.1094 Q76.7056,56.9844 78.0181,55.3281 Q79.3463,53.6719 81.8463,53.6719 Q82.5494,53.6719 83.19,53.8281 Q83.8463,53.9844 84.4088,54.2813 L84.4088,57 Q83.7838,56.4219 83.19,56.1563 Q82.5963,55.875 81.9713,55.875 Q80.6275,55.875 79.94,56.9531 Q79.2525,58.0156 79.2525,60.1094 Q79.2525,62.2031 79.94,63.2813 Q80.6275,64.3438 81.9713,64.3438 Q82.5963,64.3438 83.19,64.0781 Q83.7838,63.7969 84.4088,63.2188 L84.4088,65.9375 Z " fill="#000000"/><text fill="#000000" font-family="sans-serif" font-size="14" lengthAdjust="spacing" textLength="53.2041" x="95.44" y="65.1436">Usuario</text><line style="stroke:#181818;stroke-width:0.5;" x1="67.44" x2="150.6441" y1="76.2969" y2="76.2969"/><line style="stroke:#181818;stroke-width:0.5;" x1="67.44" x2="150.6441" y1="84.2969" y2="84.2969"/></g><!--class Playlist--><g class="entity" data-qualified-name="Playlist" data-source-line="4" id="ent0003"><rect fill="#F1F1F1" height="48" rx="2.5" ry="2.5" style="stroke:#181818;stroke-width:0.5;" width="81.7588" x="68.16" y="169.2969"/><ellipse cx="83.16" cy="185.2969" fill="#ADD1B2" rx="11" ry="11" style="stroke:#181818;stroke-width:1;"/><path d="M86.1288,190.9375 Q85.5506,191.2344 84.91,191.375 Q84.2694,191.5313 83.5663,191.5313 Q81.0663,191.5313 79.7381,189.8906 Q78.4256,188.2344 78.4256,185.1094 Q78.4256,181.9844 79.7381,180.3281 Q81.0663,178.6719 83.5663,178.6719 Q84.2694,178.6719 84.91,178.8281 Q85.5663,178.9844 86.1288,179.2813 L86.1288,182 Q85.5038,181.4219 84.91,181.1563 Q84.3163,180.875 83.6913,180.875 Q82.3475,180.875 81.66,181.9531 Q80.9725,183.0156 80.9725,185.1094 Q80.9725,187.2031 81.66,188.2813 Q82.3475,189.3438 83.6913,189.3438 Q84.3163,189.3438 84.91,189.0781 Q85.5038,188.7969 86.1288,188.2188 L86.1288,190.9375 Z " fill="#000000"/><text fill="#000000" font-family="sans-serif" font-size="14" lengthAdjust="spacing" textLength="49.7588" x="97.16" y="190.1436">Playlist</text><line style="stroke:#181818;stroke-width:0.5;" x1="69.16" x2="148.9188" y1="201.2969" y2="201.2969"/><line style="stroke:#181818;stroke-width:0.5;" x1="69.16" x2="148.9188" y1="209.2969" y2="209.2969"/></g><!--class Cancion--><g class="entity" data-qualified-name="Cancion" data-source-line="5" id="ent0004"><rect fill="#F1F1F1" height="48" rx="2.5" ry="2.5" style="stroke:#181818;stroke-width:0.5;" width="88.2529" x="64.91" y="294.2969"/><ellipse cx="79.91" cy="310.2969" fill="#ADD1B2" rx="11" ry="11" style="stroke:#181818;stroke-width:1;"/><path d="M82.8788,315.9375 Q82.3006,316.2344 81.66,316.375 Q81.0194,316.5313 80.3163,316.5313 Q77.8163,316.5313 76.4881,314.8906 Q75.1756,313.2344 75.1756,310.1094 Q75.1756,306.9844 76.4881,305.3281 Q77.8163,303.6719 80.3163,303.6719 Q81.0194,303.6719 81.66,303.8281 Q82.3163,303.9844 82.8788,304.2813 L82.8788,307 Q82.2538,306.4219 81.66,306.1563 Q81.0663,305.875 80.4413,305.875 Q79.0975,305.875 78.41,306.9531 Q77.7225,308.0156 77.7225,310.1094 Q77.7225,312.2031 78.41,313.2813 Q79.0975,314.3438 80.4413,314.3438 Q81.0663,314.3438 81.66,314.0781 Q82.2538,313.7969 82.8788,313.2188 L82.8788,315.9375 Z " fill="#000000"/><text fill="#000000" font-family="sans-serif" font-size="14" lengthAdjust="spacing" textLength="56.2529" x="93.91" y="315.1436">Cancion</text><line style="stroke:#181818;stroke-width:0.5;" x1="65.91" x2="152.1629" y1="326.2969" y2="326.2969"/><line style="stroke:#181818;stroke-width:0.5;" x1="65.91" x2="152.1629" y1="334.2969" y2="334.2969"/></g><!--class Artista--><g class="entity" data-qualified-name="Artista" data-source-line="6" id="ent0005"><rect fill="#F1F1F1" height="48" rx="2.5" ry="2.5" style="stroke:#181818;stroke-width:0.5;" width="78.0742" x="7" y="419.2969"/><ellipse cx="22" cy="435.2969" fill="#ADD1B2" rx="11" ry="11" style="stroke:#181818;stroke-width:1;"/><path d="M24.9688,440.9375 Q24.3906,441.2344 23.75,441.375 Q23.1094,441.5313 22.4063,441.5313 Q19.9063,441.5313 18.5781,439.8906 Q17.2656,438.2344 17.2656,435.1094 Q17.2656,431.9844 18.5781,430.3281 Q19.9063,428.6719 22.4063,428.6719 Q23.1094,428.6719 23.75,428.8281 Q24.4063,428.9844 24.9688,429.2813 L24.9688,432 Q24.3438,431.4219 23.75,431.1563 Q23.1563,430.875 22.5313,430.875 Q21.1875,430.875 20.5,431.9531 Q19.8125,433.0156 19.8125,435.1094 Q19.8125,437.2031 20.5,438.2813 Q21.1875,439.3438 22.5313,439.3438 Q23.1563,439.3438 23.75,439.0781 Q24.3438,438.7969 24.9688,438.2188 L24.9688,440.9375 Z " fill="#000000"/><text fill="#000000" font-family="sans-serif" font-size="14" lengthAdjust="spacing" textLength="46.0742" x="36" y="440.1436">Artista</text><line style="stroke:#181818;stroke-width:0.5;" x1="8" x2="84.0742" y1="451.2969" y2="451.2969"/><line style="stroke:#181818;stroke-width:0.5;" x1="8" x2="84.0742" y1="459.2969" y2="459.2969"/></g><!--class Album--><g class="entity" data-qualified-name="Album" data-source-line="7" id="ent0006"><rect fill="#F1F1F1" height="48" rx="2.5" ry="2.5" style="stroke:#181818;stroke-width:0.5;" width="76.8643" x="62.6" y="544.2969"/><ellipse cx="77.6" cy="560.2969" fill="#ADD1B2" rx="11" ry="11" style="stroke:#181818;stroke-width:1;"/><path d="M80.5688,565.9375 Q79.9906,566.2344 79.35,566.375 Q78.7094,566.5313 78.0063,566.5313 Q75.5063,566.5313 74.1781,564.8906 Q72.8656,563.2344 72.8656,560.1094 Q72.8656,556.9844 74.1781,555.3281 Q75.5063,553.6719 78.0063,553.6719 Q78.7094,553.6719 79.35,553.8281 Q80.0063,553.9844 80.5688,554.2813 L80.5688,557 Q79.9438,556.4219 79.35,556.1563 Q78.7563,555.875 78.1313,555.875 Q76.7875,555.875 76.1,556.9531 Q75.4125,558.0156 75.4125,560.1094 Q75.4125,562.2031 76.1,563.2813 Q76.7875,564.3438 78.1313,564.3438 Q78.7563,564.3438 79.35,564.0781 Q79.9438,563.7969 80.5688,563.2188 L80.5688,565.9375 Z " fill="#000000"/><text fill="#000000" font-family="sans-serif" font-size="14" lengthAdjust="spacing" textLength="44.8643" x="91.6" y="565.1436">Album</text><line style="stroke:#181818;stroke-width:0.5;" x1="63.6" x2="138.4643" y1="576.2969" y2="576.2969"/><line style="stroke:#181818;stroke-width:0.5;" x1="63.6" x2="138.4643" y1="584.2969" y2="584.2969"/></g><!--reverse link Usuario to Playlist--><g class="link" data-entity-1="ent0002" data-entity-2="ent0003" data-link-type="composition" data-source-line="9" id="lnk7"><path codeLine="9" d="M109.04,104.7169 C109.04,126.6069 109.04,147.0969 109.04,168.9569" fill="none" id="Usuario-backto-Playlist" style="stroke:#181818;stroke-width:1;"/><polygon fill="#181818" points="109.04,92.7169,105.04,98.7169,109.04,104.7169,113.04,98.7169,109.04,92.7169" style="stroke:#181818;stroke-width:1;"/><text fill="#000000" font-family="sans-serif" font-size="13" lengthAdjust="spacing" textLength="28.4565" x="110.04" y="135.3638">crea</text></g><!--reverse link Album to Cancion--><g class="link" data-entity-1="ent0006" data-entity-2="ent0004" data-link-type="aggregation" data-source-line="10" id="lnk8"><path codeLine="10" d="M125.3362,533.9602 C131.0462,525.1302 130.12,524.7569 133.04,514.2969 C149.97,453.4969 146.35,433.9869 133.04,372.2969 C130.84,362.1269 126.53,351.5569 122.16,342.5669" fill="none" id="Album-backto-Cancion" style="stroke:#181818;stroke-width:1;"/><polygon fill="none" points="118.82,544.0369,125.437,541.1706,125.3362,533.9602,118.7192,536.8265,118.82,544.0369" style="stroke:#181818;stroke-width:1;"/><text fill="#000000" font-family="sans-serif" font-size="13" lengthAdjust="spacing" textLength="46.541" x="145.04" y="447.8638">incluye</text></g><!--link Playlist to Cancion--><g class="link" data-entity-1="ent0003" data-entity-2="ent0004" data-link-type="dependency" data-source-line="11" id="lnk9"><path codeLine="11" d="M109.04,217.7169 C109.04,239.6069 109.04,266.0969 109.04,287.9569" fill="none" id="Playlist-to-Cancion" style="stroke:#181818;stroke-width:1;"/><polygon fill="#181818" points="109.04,293.9569,113.04,284.9569,109.04,288.9569,105.04,284.9569,109.04,293.9569" style="stroke:#181818;stroke-width:1;"/><text fill="#000000" font-family="sans-serif" font-size="13" lengthAdjust="spacing" textLength="56.2847" x="110.04" y="260.3638">contiene</text></g><!--link Cancion to Artista--><g class="link" data-entity-1="ent0004" data-entity-2="ent0005" data-link-type="dependency" data-source-line="12" id="lnk10"><path codeLine="12" d="M83.09,342.5669 C74.92,351.1669 66.58,361.4669 61.04,372.2969 C53.61,386.7869 50.6607,398.8305 48.7607,412.9405" fill="none" id="Cancion-to-Artista" style="stroke:#181818;stroke-width:1;"/><polygon fill="#181818" points="47.96,418.8869,53.1253,410.5012,48.6273,413.9316,45.1968,409.4336,47.96,418.8869" style="stroke:#181818;stroke-width:1;"/><text fill="#000000" font-family="sans-serif" font-size="13" lengthAdjust="spacing" textLength="66.0728" x="62.04" y="385.3638">pertenece</text></g><!--link Artista to Album--><g class="link" data-entity-1="ent0005" data-entity-2="ent0006" data-link-type="dependency" data-source-line="13" id="lnk11"><path codeLine="13" d="M56.51,467.7169 C66.3,489.6069 78.3818,516.6191 88.1518,538.4791" fill="none" id="Artista-to-Album" style="stroke:#181818;stroke-width:1;"/><polygon fill="#181818" points="90.6,543.9569,90.5795,534.108,88.5598,539.392,83.2758,537.3723,90.6,543.9569" style="stroke:#181818;stroke-width:1;"/><text fill="#000000" font-family="sans-serif" font-size="13" lengthAdjust="spacing" textLength="47.0806" x="77.04" y="510.3638">publica</text></g><?plantuml-src JSyn2aCn20RWtLCu5tA13eLIkdVf0NpY89Yan6Hujwzz98-Elzzl95sx2JwvkdgNJ9Y7AvCX01kvuzi7DQqplOnsY-QC3ogijSnqRps8Lh9jP82vZvUKpcsy8ZSXE2fOG-P30LhOnYvmTbEw_J7NqbMAm1hzU1uE_aZheIomPeSVTqB7Pl6vBm00?></g></svg>