<?plantuml 1.2026.2beta3?><svg xmlns="http://www.w3.org/2000/svg" xmlns:xlink="http://www.w3.org/1999/xlink" contentStyleType="text/css" data-diagram-type="CLASS" height="494px" preserveAspectRatio="none" style="width:867px;height:494px;background:#FFFFFF;" version="1.1" viewBox="0 0 867 494" width="867px" zoomAndPan="magnify"><defs/><g><!--class Participante--><g class="entity" data-qualified-name="Participante" data-source-line="1" id="ent0002"><rect fill="#F1F1F1" height="48" rx="2.5" ry="2.5" style="stroke:#181818;stroke-width:0.5;" width="116.1846" x="645.74" y="7"/><ellipse cx="660.74" cy="23" fill="#ADD1B2" rx="11" ry="11" style="stroke:#181818;stroke-width:1;"/><path d="M663.7088,28.6406 Q663.1306,28.9375 662.49,29.0781 Q661.8494,29.2344 661.1463,29.2344 Q658.6463,29.2344 657.3181,27.5938 Q656.0056,25.9375 656.0056,22.8125 Q656.0056,19.6875 657.3181,18.0313 Q658.6463,16.375 661.1463,16.375 Q661.8494,16.375 662.49,16.5313 Q663.1463,16.6875 663.7088,16.9844 L663.7088,19.7031 Q663.0838,19.125 662.49,18.8594 Q661.8963,18.5781 661.2713,18.5781 Q659.9275,18.5781 659.24,19.6563 Q658.5525,20.7188 658.5525,22.8125 Q658.5525,24.9063 659.24,25.9844 Q659.9275,27.0469 661.2713,27.0469 Q661.8963,27.0469 662.49,26.7813 Q663.0838,26.5 663.7088,25.9219 L663.7088,28.6406 Z " fill="#000000"/><text fill="#000000" font-family="sans-serif" font-size="14" lengthAdjust="spacing" textLength="84.1846" x="674.74" y="27.8467">Participante</text><line style="stroke:#181818;stroke-width:0.5;" x1="646.74" x2="760.9246" y1="39" y2="39"/><line style="stroke:#181818;stroke-width:0.5;" x1="646.74" x2="760.9246" y1="47" y2="47"/></g><!--class Conversacion--><g class="entity" data-qualified-name="Conversacion" data-source-line="2" id="ent0003"><rect fill="#F1F1F1" height="48" rx="2.5" ry="2.5" style="stroke:#181818;stroke-width:0.5;" width="126.7666" x="341.44" y="115"/><ellipse cx="356.44" cy="131" fill="#ADD1B2" rx="11" ry="11" style="stroke:#181818;stroke-width:1;"/><path d="M359.4088,136.6406 Q358.8306,136.9375 358.19,137.0781 Q357.5494,137.2344 356.8463,137.2344 Q354.3463,137.2344 353.0181,135.5938 Q351.7056,133.9375 351.7056,130.8125 Q351.7056,127.6875 353.0181,126.0313 Q354.3463,124.375 356.8463,124.375 Q357.5494,124.375 358.19,124.5313 Q358.8463,124.6875 359.4088,124.9844 L359.4088,127.7031 Q358.7838,127.125 358.19,126.8594 Q357.5963,126.5781 356.9713,126.5781 Q355.6275,126.5781 354.94,127.6563 Q354.2525,128.7188 354.2525,130.8125 Q354.2525,132.9063 354.94,133.9844 Q355.6275,135.0469 356.9713,135.0469 Q357.5963,135.0469 358.19,134.7813 Q358.7838,134.5 359.4088,133.9219 L359.4088,136.6406 Z " fill="#000000"/><text fill="#000000" font-family="sans-serif" font-size="14" lengthAdjust="spacing" textLength="94.7666" x="370.44" y="135.8467">Conversacion</text><line style="stroke:#181818;stroke-width:0.5;" x1="342.44" x2="467.2066" y1="147" y2="147"/><line style="stroke:#181818;stroke-width:0.5;" x1="342.44" x2="467.2066" y1="155" y2="155"/></g><!--class Interaccion--><g class="entity" data-qualified-name="Interaccion" data-source-line="3" id="ent0004"><rect fill="#F1F1F1" height="48" rx="2.5" ry="2.5" style="stroke:#181818;stroke-width:0.5;" width="110.1621" x="692.75" y="331"/><ellipse cx="707.75" cy="347" fill="#ADD1B2" rx="11" ry="11" style="stroke:#181818;stroke-width:1;"/><path d="M710.7188,352.6406 Q710.1406,352.9375 709.5,353.0781 Q708.8594,353.2344 708.1563,353.2344 Q705.6563,353.2344 704.3281,351.5938 Q703.0156,349.9375 703.0156,346.8125 Q703.0156,343.6875 704.3281,342.0313 Q705.6563,340.375 708.1563,340.375 Q708.8594,340.375 709.5,340.5313 Q710.1563,340.6875 710.7188,340.9844 L710.7188,343.7031 Q710.0938,343.125 709.5,342.8594 Q708.9063,342.5781 708.2813,342.5781 Q706.9375,342.5781 706.25,343.6563 Q705.5625,344.7188 705.5625,346.8125 Q705.5625,348.9063 706.25,349.9844 Q706.9375,351.0469 708.2813,351.0469 Q708.9063,351.0469 709.5,350.7813 Q710.0938,350.5 710.7188,349.9219 L710.7188,352.6406 Z " fill="#000000"/><text fill="#000000" font-family="sans-serif" font-size="14" lengthAdjust="spacing" textLength="78.1621" x="721.75" y="351.8467">Interaccion</text><line style="stroke:#181818;stroke-width:0.5;" x1="693.75" x2="801.9121" y1="363" y2="363"/><line style="stroke:#181818;stroke-width:0.5;" x1="693.75" x2="801.9121" y1="371" y2="371"/></g><!--class Contexto--><g class="entity" data-qualified-name="Contexto" data-source-line="4" id="ent0005"><rect fill="#F1F1F1" height="48" rx="2.5" ry="2.5" style="stroke:#181818;stroke-width:0.5;" width="95.6563" x="7" y="223"/><ellipse cx="22" cy="239" fill="#ADD1B2" rx="11" ry="11" style="stroke:#181818;stroke-width:1;"/><path d="M24.9688,244.6406 Q24.3906,244.9375 23.75,245.0781 Q23.1094,245.2344 22.4063,245.2344 Q19.9063,245.2344 18.5781,243.5938 Q17.2656,241.9375 17.2656,238.8125 Q17.2656,235.6875 18.5781,234.0313 Q19.9063,232.375 22.4063,232.375 Q23.1094,232.375 23.75,232.5313 Q24.4063,232.6875 24.9688,232.9844 L24.9688,235.7031 Q24.3438,235.125 23.75,234.8594 Q23.1563,234.5781 22.5313,234.5781 Q21.1875,234.5781 20.5,235.6563 Q19.8125,236.7188 19.8125,238.8125 Q19.8125,240.9063 20.5,241.9844 Q21.1875,243.0469 22.5313,243.0469 Q23.1563,243.0469 23.75,242.7813 Q24.3438,242.5 24.9688,241.9219 L24.9688,244.6406 Z " fill="#000000"/><text fill="#000000" font-family="sans-serif" font-size="14" lengthAdjust="spacing" textLength="63.6563" x="36" y="243.8467">Contexto</text><line style="stroke:#181818;stroke-width:0.5;" x1="8" x2="101.6563" y1="255" y2="255"/><line style="stroke:#181818;stroke-width:0.5;" x1="8" x2="101.6563" y1="263" y2="263"/></g><!--class Tema--><g class="entity" data-qualified-name="Tema" data-source-line="5" id="ent0006"><rect fill="#F1F1F1" height="48" rx="2.5" ry="2.5" style="stroke:#181818;stroke-width:0.5;" width="71.3818" x="138.14" y="223"/><ellipse cx="153.14" cy="239" fill="#ADD1B2" rx="11" ry="11" style="stroke:#181818;stroke-width:1;"/><path d="M156.1088,244.6406 Q155.5306,244.9375 154.89,245.0781 Q154.2494,245.2344 153.5463,245.2344 Q151.0463,245.2344 149.7181,243.5938 Q148.4056,241.9375 148.4056,238.8125 Q148.4056,235.6875 149.7181,234.0313 Q151.0463,232.375 153.5463,232.375 Q154.2494,232.375 154.89,232.5313 Q155.5463,232.6875 156.1088,232.9844 L156.1088,235.7031 Q155.4838,235.125 154.89,234.8594 Q154.2963,234.5781 153.6713,234.5781 Q152.3275,234.5781 151.64,235.6563 Q150.9525,236.7188 150.9525,238.8125 Q150.9525,240.9063 151.64,241.9844 Q152.3275,243.0469 153.6713,243.0469 Q154.2963,243.0469 154.89,242.7813 Q155.4838,242.5 156.1088,241.9219 L156.1088,244.6406 Z " fill="#000000"/><text fill="#000000" font-family="sans-serif" font-size="14" lengthAdjust="spacing" textLength="39.3818" x="167.14" y="243.8467">Tema</text><line style="stroke:#181818;stroke-width:0.5;" x1="139.14" x2="208.5218" y1="255" y2="255"/><line style="stroke:#181818;stroke-width:0.5;" x1="139.14" x2="208.5218" y1="263" y2="263"/></g><!--class Silencio--><g class="entity" data-qualified-name="Silencio" data-source-line="6" id="ent0007"><rect fill="#F1F1F1" height="48" rx="2.5" ry="2.5" style="stroke:#181818;stroke-width:0.5;" width="86.3047" x="641.68" y="439"/><ellipse cx="656.68" cy="455" fill="#ADD1B2" rx="11" ry="11" style="stroke:#181818;stroke-width:1;"/><path d="M659.6488,460.6406 Q659.0706,460.9375 658.43,461.0781 Q657.7894,461.2344 657.0863,461.2344 Q654.5863,461.2344 653.2581,459.5938 Q651.9456,457.9375 651.9456,454.8125 Q651.9456,451.6875 653.2581,450.0313 Q654.5863,448.375 657.0863,448.375 Q657.7894,448.375 658.43,448.5313 Q659.0863,448.6875 659.6488,448.9844 L659.6488,451.7031 Q659.0238,451.125 658.43,450.8594 Q657.8363,450.5781 657.2113,450.5781 Q655.8675,450.5781 655.18,451.6563 Q654.4925,452.7188 654.4925,454.8125 Q654.4925,456.9063 655.18,457.9844 Q655.8675,459.0469 657.2113,459.0469 Q657.8363,459.0469 658.43,458.7813 Q659.0238,458.5 659.6488,457.9219 L659.6488,460.6406 Z " fill="#000000"/><text fill="#000000" font-family="sans-serif" font-size="14" lengthAdjust="spacing" textLength="54.3047" x="670.68" y="459.8467">Silencio</text><line style="stroke:#181818;stroke-width:0.5;" x1="642.68" x2="726.9847" y1="471" y2="471"/><line style="stroke:#181818;stroke-width:0.5;" x1="642.68" x2="726.9847" y1="479" y2="479"/></g><!--class Turno--><g class="entity" data-qualified-name="Turno" data-source-line="7" id="ent0008"><rect fill="#F1F1F1" height="48" rx="2.5" ry="2.5" style="stroke:#181818;stroke-width:0.5;" width="72.6191" x="605.52" y="223"/><ellipse cx="620.52" cy="239" fill="#ADD1B2" rx="11" ry="11" style="stroke:#181818;stroke-width:1;"/><path d="M623.4888,244.6406 Q622.9106,244.9375 622.27,245.0781 Q621.6294,245.2344 620.9263,245.2344 Q618.4263,245.2344 617.0981,243.5938 Q615.7856,241.9375 615.7856,238.8125 Q615.7856,235.6875 617.0981,234.0313 Q618.4263,232.375 620.9263,232.375 Q621.6294,232.375 622.27,232.5313 Q622.9263,232.6875 623.4888,232.9844 L623.4888,235.7031 Q622.8638,235.125 622.27,234.8594 Q621.6763,234.5781 621.0513,234.5781 Q619.7075,234.5781 619.02,235.6563 Q618.3325,236.7188 618.3325,238.8125 Q618.3325,240.9063 619.02,241.9844 Q619.7075,243.0469 621.0513,243.0469 Q621.6763,243.0469 622.27,242.7813 Q622.8638,242.5 623.4888,241.9219 L623.4888,244.6406 Z " fill="#000000"/><text fill="#000000" font-family="sans-serif" font-size="14" lengthAdjust="spacing" textLength="40.6191" x="634.52" y="243.8467">Turno</text><line style="stroke:#181818;stroke-width:0.5;" x1="606.52" x2="677.1391" y1="255" y2="255"/><line style="stroke:#181818;stroke-width:0.5;" x1="606.52" x2="677.1391" y1="263" y2="263"/></g><!--class Medio--><g class="entity" data-qualified-name="Medio" data-source-line="8" id="ent0009"><rect fill="#F1F1F1" height="48" rx="2.5" ry="2.5" style="stroke:#181818;stroke-width:0.5;" width="74.0342" x="244.81" y="223"/><ellipse cx="259.81" cy="239" fill="#ADD1B2" rx="11" ry="11" style="stroke:#181818;stroke-width:1;"/><path d="M262.7788,244.6406 Q262.2006,244.9375 261.56,245.0781 Q260.9194,245.2344 260.2163,245.2344 Q257.7163,245.2344 256.3881,243.5938 Q255.0756,241.9375 255.0756,238.8125 Q255.0756,235.6875 256.3881,234.0313 Q257.7163,232.375 260.2163,232.375 Q260.9194,232.375 261.56,232.5313 Q262.2163,232.6875 262.7788,232.9844 L262.7788,235.7031 Q262.1538,235.125 261.56,234.8594 Q260.9663,234.5781 260.3413,234.5781 Q258.9975,234.5781 258.31,235.6563 Q257.6225,236.7188 257.6225,238.8125 Q257.6225,240.9063 258.31,241.9844 Q258.9975,243.0469 260.3413,243.0469 Q260.9663,243.0469 261.56,242.7813 Q262.1538,242.5 262.7788,241.9219 L262.7788,244.6406 Z " fill="#000000"/><text fill="#000000" font-family="sans-serif" font-size="14" lengthAdjust="spacing" textLength="42.0342" x="273.81" y="243.8467">Medio</text><line style="stroke:#181818;stroke-width:0.5;" x1="245.81" x2="317.8442" y1="255" y2="255"/><line style="stroke:#181818;stroke-width:0.5;" x1="245.81" x2="317.8442" y1="263" y2="263"/></g><!--class Resultado--><g class="entity" data-qualified-name="Resultado" data-source-line="9" id="ent0010"><rect fill="#F1F1F1" height="48" rx="2.5" ry="2.5" style="stroke:#181818;stroke-width:0.5;" width="101.918" x="353.87" y="223"/><ellipse cx="368.87" cy="239" fill="#ADD1B2" rx="11" ry="11" style="stroke:#181818;stroke-width:1;"/><path d="M371.8388,244.6406 Q371.2606,244.9375 370.62,245.0781 Q369.9794,245.2344 369.2763,245.2344 Q366.7763,245.2344 365.4481,243.5938 Q364.1356,241.9375 364.1356,238.8125 Q364.1356,235.6875 365.4481,234.0313 Q366.7763,232.375 369.2763,232.375 Q369.9794,232.375 370.62,232.5313 Q371.2763,232.6875 371.8388,232.9844 L371.8388,235.7031 Q371.2138,235.125 370.62,234.8594 Q370.0263,234.5781 369.4013,234.5781 Q368.0575,234.5781 367.37,235.6563 Q366.6825,236.7188 366.6825,238.8125 Q366.6825,240.9063 367.37,241.9844 Q368.0575,243.0469 369.4013,243.0469 Q370.0263,243.0469 370.62,242.7813 Q371.2138,242.5 371.8388,241.9219 L371.8388,244.6406 Z " fill="#000000"/><text fill="#000000" font-family="sans-serif" font-size="14" lengthAdjust="spacing" textLength="69.918" x="382.87" y="243.8467">Resultado</text><line style="stroke:#181818;stroke-width:0.5;" x1="354.87" x2="454.788" y1="255" y2="255"/><line style="stroke:#181818;stroke-width:0.5;" x1="354.87" x2="454.788" y1="263" y2="263"/></g><!--class Intencion--><g class="entity" data-qualified-name="Intencion" data-source-line="10" id="ent0011"><rect fill="#F1F1F1" height="48" rx="2.5" ry="2.5" style="stroke:#181818;stroke-width:0.5;" width="97.0029" x="763.33" y="439"/><ellipse cx="778.33" cy="455" fill="#ADD1B2" rx="11" ry="11" style="stroke:#181818;stroke-width:1;"/><path d="M781.2988,460.6406 Q780.7206,460.9375 780.08,461.0781 Q779.4394,461.2344 778.7363,461.2344 Q776.2363,461.2344 774.9081,459.5938 Q773.5956,457.9375 773.5956,454.8125 Q773.5956,451.6875 774.9081,450.0313 Q776.2363,448.375 778.7363,448.375 Q779.4394,448.375 780.08,448.5313 Q780.7363,448.6875 781.2988,448.9844 L781.2988,451.7031 Q780.6738,451.125 780.08,450.8594 Q779.4863,450.5781 778.8613,450.5781 Q777.5175,450.5781 776.83,451.6563 Q776.1425,452.7188 776.1425,454.8125 Q776.1425,456.9063 776.83,457.9844 Q777.5175,459.0469 778.8613,459.0469 Q779.4863,459.0469 780.08,458.7813 Q780.6738,458.5 781.2988,457.9219 L781.2988,460.6406 Z " fill="#000000"/><text fill="#000000" font-family="sans-serif" font-size="14" lengthAdjust="spacing" textLength="65.0029" x="792.33" y="459.8467">Intencion</text><line style="stroke:#181818;stroke-width:0.5;" x1="764.33" x2="859.3329" y1="471" y2="471"/><line style="stroke:#181818;stroke-width:0.5;" x1="764.33" x2="859.3329" y1="479" y2="479"/></g><!--class Estado--><g class="entity" data-qualified-name="Estado" data-source-line="11" id="ent0012"><rect fill="#F1F1F1" height="48" rx="2.5" ry="2.5" style="stroke:#181818;stroke-width:0.5;" width="79.6602" x="491" y="223"/><ellipse cx="506" cy="239" fill="#ADD1B2" rx="11" ry="11" style="stroke:#181818;stroke-width:1;"/><path d="M508.9688,244.6406 Q508.3906,244.9375 507.75,245.0781 Q507.1094,245.2344 506.4063,245.2344 Q503.9063,245.2344 502.5781,243.5938 Q501.2656,241.9375 501.2656,238.8125 Q501.2656,235.6875 502.5781,234.0313 Q503.9063,232.375 506.4063,232.375 Q507.1094,232.375 507.75,232.5313 Q508.4063,232.6875 508.9688,232.9844 L508.9688,235.7031 Q508.3438,235.125 507.75,234.8594 Q507.1563,234.5781 506.5313,234.5781 Q505.1875,234.5781 504.5,235.6563 Q503.8125,236.7188 503.8125,238.8125 Q503.8125,240.9063 504.5,241.9844 Q505.1875,243.0469 506.5313,243.0469 Q507.1563,243.0469 507.75,242.7813 Q508.3438,242.5 508.9688,241.9219 L508.9688,244.6406 Z " fill="#000000"/><text fill="#000000" font-family="sans-serif" font-size="14" lengthAdjust="spacing" textLength="47.6602" x="520" y="243.8467">Estado</text><line style="stroke:#181818;stroke-width:0.5;" x1="492" x2="569.6602" y1="255" y2="255"/><line style="stroke:#181818;stroke-width:0.5;" x1="492" x2="569.6602" y1="263" y2="263"/></g><!--reverse link Interaccion to Silencio--><g class="link" data-entity-1="ent0004" data-entity-2="ent0007" data-link-type="extension" data-source-line="13" id="lnk13"><path codeLine="13" d="M724.8087,394.7364 C714.3087,412.4164 709.12,421.13 698.62,438.79" fill="none" id="Interaccion-backto-Silencio" style="stroke:#181818;stroke-width:1;"/><polygon fill="none" points="734,379.26,719.6499,391.6727,729.9675,397.8002,734,379.26" style="stroke:#181818;stroke-width:1;"/></g><!--link Participante to Conversacion--><g class="link" data-entity-1="ent0002" data-entity-2="ent0003" data-link-type="association" data-source-line="14" id="lnk14"><path codeLine="14" d="M645.47,52.69 C594.57,70.73 520.88,96.86 468.47,115.44" fill="none" id="Participante-Conversacion" style="stroke:#181818;stroke-width:1;"/></g><!--link Conversacion to Contexto--><g class="link" data-entity-1="ent0003" data-entity-2="ent0005" data-link-type="association" data-source-line="15" id="lnk15"><path codeLine="15" d="M341.1,157.62 C283.35,173.83 196.05,198.92 120.83,223 C115.05,224.85 109.01,226.85 103.03,228.88" fill="none" id="Conversacion-Contexto" style="stroke:#181818;stroke-width:1;"/></g><!--reverse link Conversacion to Tema--><g class="link" data-entity-1="ent0003" data-entity-2="ent0006" data-link-type="aggregation" data-source-line="16" id="lnk16"><path codeLine="16" d="M342.9437,168.3952 C299.3637,188.3952 248.64,211.67 209.98,229.41" fill="none" id="Conversacion-backto-Tema" style="stroke:#181818;stroke-width:1;"/><polygon fill="none" points="353.85,163.39,346.7284,162.2572,342.9437,168.3952,350.0652,169.528,353.85,163.39" style="stroke:#181818;stroke-width:1;"/></g><!--reverse link Conversacion to Turno--><g class="link" data-entity-1="ent0003" data-entity-2="ent0008" data-link-type="composition" data-source-line="17" id="lnk17"><path codeLine="17" d="M468.0842,168.2895 C512.9342,188.3495 565.45,211.84 605.1,229.57" fill="none" id="Conversacion-backto-Turno" style="stroke:#181818;stroke-width:1;"/><polygon fill="#181818" points="457.13,163.39,460.974,169.4911,468.0842,168.2895,464.2403,162.1883,457.13,163.39" style="stroke:#181818;stroke-width:1;"/></g><!--link Participante to Turno--><g class="link" data-entity-1="ent0002" data-entity-2="ent0008" data-link-type="dependency" data-source-line="18" id="lnk18"><path codeLine="18" d="M697.08,55.31 C685.15,96.47 662.1598,175.817 650.2398,216.957" fill="none" id="Participante-to-Turno" style="stroke:#181818;stroke-width:1;"/><polygon fill="#181818" points="648.57,222.72,654.9166,215.1887,649.9615,217.9175,647.2327,212.9624,648.57,222.72" style="stroke:#181818;stroke-width:1;"/></g><!--reverse link Turno to Interaccion--><g class="link" data-entity-1="ent0008" data-entity-2="ent0004" data-link-type="aggregation" data-source-line="19" id="lnk19"><path codeLine="19" d="M673.5729,279.7477 C691.2429,297.4277 706.96,313.13 724.62,330.79" fill="none" id="Turno-backto-Interaccion" style="stroke:#181818;stroke-width:1;"/><polygon fill="none" points="665.09,271.26,666.5022,278.3315,673.5729,279.7477,672.1607,272.6762,665.09,271.26" style="stroke:#181818;stroke-width:1;"/></g><!--link Participante to Interaccion--><g class="link" data-entity-1="ent0002" data-entity-2="ent0004" data-link-type="dependency" data-source-line="20" id="lnk20"><path codeLine="20" d="M700,55.42 C700.49,114.9 720.3317,265.4905 736.0817,324.8705" fill="none" id="Participante-to-Interaccion" style="stroke:#181818;stroke-width:1;"/><polygon fill="#181818" points="737.62,330.67,739.1789,320.9453,736.3381,325.8371,731.4463,322.9963,737.62,330.67" style="stroke:#181818;stroke-width:1;"/></g><!--link Interaccion to Participante--><g class="link" data-entity-1="ent0004" data-entity-2="ent0002" data-link-type="dependency" data-source-line="21" id="lnk21"><path codeLine="21" d="M752.07,330.67 C752.05,271.29 732.2576,120.6889 716.0476,61.2089" fill="none" id="Interaccion-to-Participante" style="stroke:#181818;stroke-width:1;"/><polygon fill="#181818" points="714.47,55.42,712.9772,65.1551,715.7847,60.2441,720.6957,63.0516,714.47,55.42" style="stroke:#181818;stroke-width:1;"/></g><!--link Conversacion to Medio--><g class="link" data-entity-1="ent0003" data-entity-2="ent0009" data-link-type="association" data-source-line="22" id="lnk22"><path codeLine="22" d="M377.84,163.26 C357.33,180.94 329.25,205.13 308.76,222.79" fill="none" id="Conversacion-Medio" style="stroke:#181818;stroke-width:1;"/></g><!--link Conversacion to Resultado--><g class="link" data-entity-1="ent0003" data-entity-2="ent0010" data-link-type="dependency" data-source-line="23" id="lnk23"><path codeLine="23" d="M404.83,163.26 C404.83,180.94 404.83,199.13 404.83,216.79" fill="none" id="Conversacion-to-Resultado" style="stroke:#181818;stroke-width:1;"/><polygon fill="#181818" points="404.83,222.79,408.83,213.79,404.83,217.79,400.83,213.79,404.83,222.79" style="stroke:#181818;stroke-width:1;"/></g><!--reverse link Interaccion to Intencion--><g class="link" data-entity-1="ent0004" data-entity-2="ent0011" data-link-type="aggregation" data-source-line="24" id="lnk24"><path codeLine="24" d="M768.0704,389.534 C778.7404,407.214 787.15,421.13 797.82,438.79" fill="none" id="Interaccion-backto-Intencion" style="stroke:#181818;stroke-width:1;"/><polygon fill="none" points="761.87,379.26,761.5455,386.4638,768.0704,389.534,768.3949,382.3302,761.87,379.26" style="stroke:#181818;stroke-width:1;"/></g><!--link Conversacion to Estado--><g class="link" data-entity-1="ent0003" data-entity-2="ent0012" data-link-type="association" data-source-line="25" id="lnk25"><path codeLine="25" d="M432.48,163.26 C453.49,180.94 482.25,205.13 503.24,222.79" fill="none" id="Conversacion-Estado" style="stroke:#181818;stroke-width:1;"/></g><?plantuml-src RP113W8X34NtSmhM9dC3CnlZmeM9KI_GC5sGO37061SUNgQ05dH3slyA_Nnj8GHr0X-DDdUWY8DcQUVeWJw0DewAT4ZKWnPA6ehuZAwqLxn1AI_68gN9IXPFjJxY_D7F61ORONPY1Oa5-y1m4AlLzZMEt_UbTPL0uris1MQ_3N29iFL6tQmgs-vMJ4Ncao_BO7w69PJVM5cJUsysvzIfauXClbPjqDz_vnZV?></g></svg>