<?plantuml 1.2026.2beta3?><svg xmlns="http://www.w3.org/2000/svg" xmlns:xlink="http://www.w3.org/1999/xlink" contentStyleType="text/css" data-diagram-type="CLASS" height="687px" preserveAspectRatio="none" style="width:760px;height:687px;background:#FFFFFF;" version="1.1" viewBox="0 0 760 687" width="760px" zoomAndPan="magnify"><defs/><g><!--class Plataforma--><g class="entity" data-qualified-name="Plataforma" data-source-line="1" id="ent0002"><rect fill="#F1F1F1" height="48" rx="2.5" ry="2.5" style="stroke:#181818;stroke-width:0.5;" width="108.4463" x="198.2" y="7"/><ellipse cx="213.2" cy="23" fill="#ADD1B2" rx="11" ry="11" style="stroke:#181818;stroke-width:1;"/><path d="M216.1688,28.6406 Q215.5906,28.9375 214.95,29.0781 Q214.3094,29.2344 213.6063,29.2344 Q211.1063,29.2344 209.7781,27.5938 Q208.4656,25.9375 208.4656,22.8125 Q208.4656,19.6875 209.7781,18.0313 Q211.1063,16.375 213.6063,16.375 Q214.3094,16.375 214.95,16.5313 Q215.6063,16.6875 216.1688,16.9844 L216.1688,19.7031 Q215.5438,19.125 214.95,18.8594 Q214.3563,18.5781 213.7313,18.5781 Q212.3875,18.5781 211.7,19.6563 Q211.0125,20.7188 211.0125,22.8125 Q211.0125,24.9063 211.7,25.9844 Q212.3875,27.0469 213.7313,27.0469 Q214.3563,27.0469 214.95,26.7813 Q215.5438,26.5 216.1688,25.9219 L216.1688,28.6406 Z " fill="#000000"/><text fill="#000000" font-family="sans-serif" font-size="14" lengthAdjust="spacing" textLength="76.4463" x="227.2" y="27.8467">Plataforma</text><line style="stroke:#181818;stroke-width:0.5;" x1="199.2" x2="305.6463" y1="39" y2="39"/><line style="stroke:#181818;stroke-width:0.5;" x1="199.2" x2="305.6463" y1="47" y2="47"/></g><!--class Estadistica--><g class="entity" data-qualified-name="Estadistica" data-source-line="2" id="ent0003"><rect fill="#F1F1F1" height="48" rx="2.5" ry="2.5" style="stroke:#181818;stroke-width:0.5;" width="107.9336" x="155.46" y="132"/><ellipse cx="170.46" cy="148" fill="#ADD1B2" rx="11" ry="11" style="stroke:#181818;stroke-width:1;"/><path d="M173.4288,153.6406 Q172.8506,153.9375 172.21,154.0781 Q171.5694,154.2344 170.8663,154.2344 Q168.3663,154.2344 167.0381,152.5938 Q165.7256,150.9375 165.7256,147.8125 Q165.7256,144.6875 167.0381,143.0313 Q168.3663,141.375 170.8663,141.375 Q171.5694,141.375 172.21,141.5313 Q172.8663,141.6875 173.4288,141.9844 L173.4288,144.7031 Q172.8038,144.125 172.21,143.8594 Q171.6163,143.5781 170.9913,143.5781 Q169.6475,143.5781 168.96,144.6563 Q168.2725,145.7188 168.2725,147.8125 Q168.2725,149.9063 168.96,150.9844 Q169.6475,152.0469 170.9913,152.0469 Q171.6163,152.0469 172.21,151.7813 Q172.8038,151.5 173.4288,150.9219 L173.4288,153.6406 Z " fill="#000000"/><text fill="#000000" font-family="sans-serif" font-size="14" lengthAdjust="spacing" textLength="75.9336" x="184.46" y="152.8467">Estadistica</text><line style="stroke:#181818;stroke-width:0.5;" x1="156.46" x2="262.3936" y1="164" y2="164"/><line style="stroke:#181818;stroke-width:0.5;" x1="156.46" x2="262.3936" y1="172" y2="172"/></g><!--class Reproduccion--><g class="entity" data-qualified-name="Reproduccion" data-source-line="3" id="ent0004"><rect fill="#F1F1F1" height="48" rx="2.5" ry="2.5" style="stroke:#181818;stroke-width:0.5;" width="128.0313" x="135.41" y="257"/><ellipse cx="150.41" cy="273" fill="#ADD1B2" rx="11" ry="11" style="stroke:#181818;stroke-width:1;"/><path d="M153.3788,278.6406 Q152.8006,278.9375 152.16,279.0781 Q151.5194,279.2344 150.8163,279.2344 Q148.3163,279.2344 146.9881,277.5938 Q145.6756,275.9375 145.6756,272.8125 Q145.6756,269.6875 146.9881,268.0313 Q148.3163,266.375 150.8163,266.375 Q151.5194,266.375 152.16,266.5313 Q152.8163,266.6875 153.3788,266.9844 L153.3788,269.7031 Q152.7538,269.125 152.16,268.8594 Q151.5663,268.5781 150.9413,268.5781 Q149.5975,268.5781 148.91,269.6563 Q148.2225,270.7188 148.2225,272.8125 Q148.2225,274.9063 148.91,275.9844 Q149.5975,277.0469 150.9413,277.0469 Q151.5663,277.0469 152.16,276.7813 Q152.7538,276.5 153.3788,275.9219 L153.3788,278.6406 Z " fill="#000000"/><text fill="#000000" font-family="sans-serif" font-size="14" lengthAdjust="spacing" textLength="96.0313" x="164.41" y="277.8467">Reproduccion</text><line style="stroke:#181818;stroke-width:0.5;" x1="136.41" x2="262.4412" y1="289" y2="289"/><line style="stroke:#181818;stroke-width:0.5;" x1="136.41" x2="262.4412" y1="297" y2="297"/></g><!--class Oyente--><g class="entity" data-qualified-name="Oyente" data-source-line="4" id="ent0005"><rect fill="#F1F1F1" height="48" rx="2.5" ry="2.5" style="stroke:#181818;stroke-width:0.5;" width="82.8936" x="297.98" y="132"/><ellipse cx="312.98" cy="148" fill="#ADD1B2" rx="11" ry="11" style="stroke:#181818;stroke-width:1;"/><path d="M315.9488,153.6406 Q315.3706,153.9375 314.73,154.0781 Q314.0894,154.2344 313.3863,154.2344 Q310.8863,154.2344 309.5581,152.5938 Q308.2456,150.9375 308.2456,147.8125 Q308.2456,144.6875 309.5581,143.0313 Q310.8863,141.375 313.3863,141.375 Q314.0894,141.375 314.73,141.5313 Q315.3863,141.6875 315.9488,141.9844 L315.9488,144.7031 Q315.3238,144.125 314.73,143.8594 Q314.1363,143.5781 313.5113,143.5781 Q312.1675,143.5781 311.48,144.6563 Q310.7925,145.7188 310.7925,147.8125 Q310.7925,149.9063 311.48,150.9844 Q312.1675,152.0469 313.5113,152.0469 Q314.1363,152.0469 314.73,151.7813 Q315.3238,151.5 315.9488,150.9219 L315.9488,153.6406 Z " fill="#000000"/><text fill="#000000" font-family="sans-serif" font-size="14" lengthAdjust="spacing" textLength="50.8936" x="326.98" y="152.8467">Oyente</text><line style="stroke:#181818;stroke-width:0.5;" x1="298.98" x2="379.8736" y1="164" y2="164"/><line style="stroke:#181818;stroke-width:0.5;" x1="298.98" x2="379.8736" y1="172" y2="172"/></g><!--class Playlist--><g class="entity" data-qualified-name="Playlist" data-source-line="5" id="ent0006"><rect fill="#F1F1F1" height="48" rx="2.5" ry="2.5" style="stroke:#181818;stroke-width:0.5;" width="81.7588" x="298.55" y="257"/><ellipse cx="313.55" cy="273" fill="#ADD1B2" rx="11" ry="11" style="stroke:#181818;stroke-width:1;"/><path d="M316.5188,278.6406 Q315.9406,278.9375 315.3,279.0781 Q314.6594,279.2344 313.9563,279.2344 Q311.4563,279.2344 310.1281,277.5938 Q308.8156,275.9375 308.8156,272.8125 Q308.8156,269.6875 310.1281,268.0313 Q311.4563,266.375 313.9563,266.375 Q314.6594,266.375 315.3,266.5313 Q315.9563,266.6875 316.5188,266.9844 L316.5188,269.7031 Q315.8938,269.125 315.3,268.8594 Q314.7063,268.5781 314.0813,268.5781 Q312.7375,268.5781 312.05,269.6563 Q311.3625,270.7188 311.3625,272.8125 Q311.3625,274.9063 312.05,275.9844 Q312.7375,277.0469 314.0813,277.0469 Q314.7063,277.0469 315.3,276.7813 Q315.8938,276.5 316.5188,275.9219 L316.5188,278.6406 Z " fill="#000000"/><text fill="#000000" font-family="sans-serif" font-size="14" lengthAdjust="spacing" textLength="49.7588" x="327.55" y="277.8467">Playlist</text><line style="stroke:#181818;stroke-width:0.5;" x1="299.55" x2="379.3088" y1="289" y2="289"/><line style="stroke:#181818;stroke-width:0.5;" x1="299.55" x2="379.3088" y1="297" y2="297"/></g><!--class Reproductor--><g class="entity" data-qualified-name="Reproductor" data-source-line="6" id="ent0007"><rect fill="#F1F1F1" height="48" rx="2.5" ry="2.5" style="stroke:#181818;stroke-width:0.5;" width="118.8164" x="415.02" y="257"/><ellipse cx="430.02" cy="273" fill="#ADD1B2" rx="11" ry="11" style="stroke:#181818;stroke-width:1;"/><path d="M432.9888,278.6406 Q432.4106,278.9375 431.77,279.0781 Q431.1294,279.2344 430.4263,279.2344 Q427.9263,279.2344 426.5981,277.5938 Q425.2856,275.9375 425.2856,272.8125 Q425.2856,269.6875 426.5981,268.0313 Q427.9263,266.375 430.4263,266.375 Q431.1294,266.375 431.77,266.5313 Q432.4263,266.6875 432.9888,266.9844 L432.9888,269.7031 Q432.3638,269.125 431.77,268.8594 Q431.1763,268.5781 430.5513,268.5781 Q429.2075,268.5781 428.52,269.6563 Q427.8325,270.7188 427.8325,272.8125 Q427.8325,274.9063 428.52,275.9844 Q429.2075,277.0469 430.5513,277.0469 Q431.1763,277.0469 431.77,276.7813 Q432.3638,276.5 432.9888,275.9219 L432.9888,278.6406 Z " fill="#000000"/><text fill="#000000" font-family="sans-serif" font-size="14" lengthAdjust="spacing" textLength="86.8164" x="444.02" y="277.8467">Reproductor</text><line style="stroke:#181818;stroke-width:0.5;" x1="416.02" x2="532.8364" y1="289" y2="289"/><line style="stroke:#181818;stroke-width:0.5;" x1="416.02" x2="532.8364" y1="297" y2="297"/></g><!--class Cancion--><g class="entity" data-qualified-name="Cancion" data-source-line="7" id="ent0008"><rect fill="#F1F1F1" height="48" rx="2.5" ry="2.5" style="stroke:#181818;stroke-width:0.5;" width="88.2529" x="295.3" y="382"/><ellipse cx="310.3" cy="398" fill="#ADD1B2" rx="11" ry="11" style="stroke:#181818;stroke-width:1;"/><path d="M313.2688,403.6406 Q312.6906,403.9375 312.05,404.0781 Q311.4094,404.2344 310.7063,404.2344 Q308.2063,404.2344 306.8781,402.5938 Q305.5656,400.9375 305.5656,397.8125 Q305.5656,394.6875 306.8781,393.0313 Q308.2063,391.375 310.7063,391.375 Q311.4094,391.375 312.05,391.5313 Q312.7063,391.6875 313.2688,391.9844 L313.2688,394.7031 Q312.6438,394.125 312.05,393.8594 Q311.4563,393.5781 310.8313,393.5781 Q309.4875,393.5781 308.8,394.6563 Q308.1125,395.7188 308.1125,397.8125 Q308.1125,399.9063 308.8,400.9844 Q309.4875,402.0469 310.8313,402.0469 Q311.4563,402.0469 312.05,401.7813 Q312.6438,401.5 313.2688,400.9219 L313.2688,403.6406 Z " fill="#000000"/><text fill="#000000" font-family="sans-serif" font-size="14" lengthAdjust="spacing" textLength="56.2529" x="324.3" y="402.8467">Cancion</text><line style="stroke:#181818;stroke-width:0.5;" x1="296.3" x2="382.5529" y1="414" y2="414"/><line style="stroke:#181818;stroke-width:0.5;" x1="296.3" x2="382.5529" y1="422" y2="422"/></g><!--class Partitura--><g class="entity" data-qualified-name="Partitura" data-source-line="8" id="ent0009"><rect fill="#F1F1F1" height="48" rx="2.5" ry="2.5" style="stroke:#181818;stroke-width:0.5;" width="92.8535" x="7" y="507"/><ellipse cx="22" cy="523" fill="#ADD1B2" rx="11" ry="11" style="stroke:#181818;stroke-width:1;"/><path d="M24.9688,528.6406 Q24.3906,528.9375 23.75,529.0781 Q23.1094,529.2344 22.4063,529.2344 Q19.9063,529.2344 18.5781,527.5938 Q17.2656,525.9375 17.2656,522.8125 Q17.2656,519.6875 18.5781,518.0313 Q19.9063,516.375 22.4063,516.375 Q23.1094,516.375 23.75,516.5313 Q24.4063,516.6875 24.9688,516.9844 L24.9688,519.7031 Q24.3438,519.125 23.75,518.8594 Q23.1563,518.5781 22.5313,518.5781 Q21.1875,518.5781 20.5,519.6563 Q19.8125,520.7188 19.8125,522.8125 Q19.8125,524.9063 20.5,525.9844 Q21.1875,527.0469 22.5313,527.0469 Q23.1563,527.0469 23.75,526.7813 Q24.3438,526.5 24.9688,525.9219 L24.9688,528.6406 Z " fill="#000000"/><text fill="#000000" font-family="sans-serif" font-size="14" lengthAdjust="spacing" textLength="60.8535" x="36" y="527.8467">Partitura</text><line style="stroke:#181818;stroke-width:0.5;" x1="8" x2="98.8535" y1="539" y2="539"/><line style="stroke:#181818;stroke-width:0.5;" x1="8" x2="98.8535" y1="547" y2="547"/></g><!--class Nota--><g class="entity" data-qualified-name="Nota" data-source-line="9" id="ent0010"><rect fill="#F1F1F1" height="48" rx="2.5" ry="2.5" style="stroke:#181818;stroke-width:0.5;" width="65.1064" x="20.87" y="632"/><ellipse cx="35.87" cy="648" fill="#ADD1B2" rx="11" ry="11" style="stroke:#181818;stroke-width:1;"/><path d="M38.8388,653.6406 Q38.2606,653.9375 37.62,654.0781 Q36.9794,654.2344 36.2763,654.2344 Q33.7763,654.2344 32.4481,652.5938 Q31.1356,650.9375 31.1356,647.8125 Q31.1356,644.6875 32.4481,643.0313 Q33.7763,641.375 36.2763,641.375 Q36.9794,641.375 37.62,641.5313 Q38.2763,641.6875 38.8388,641.9844 L38.8388,644.7031 Q38.2138,644.125 37.62,643.8594 Q37.0263,643.5781 36.4013,643.5781 Q35.0575,643.5781 34.37,644.6563 Q33.6825,645.7188 33.6825,647.8125 Q33.6825,649.9063 34.37,650.9844 Q35.0575,652.0469 36.4013,652.0469 Q37.0263,652.0469 37.62,651.7813 Q38.2138,651.5 38.8388,650.9219 L38.8388,653.6406 Z " fill="#000000"/><text fill="#000000" font-family="sans-serif" font-size="14" lengthAdjust="spacing" textLength="33.1064" x="49.87" y="652.8467">Nota</text><line style="stroke:#181818;stroke-width:0.5;" x1="21.87" x2="84.9764" y1="664" y2="664"/><line style="stroke:#181818;stroke-width:0.5;" x1="21.87" x2="84.9764" y1="672" y2="672"/></g><!--class GeneroMusical--><g class="entity" data-qualified-name="GeneroMusical" data-source-line="10" id="ent0011"><rect fill="#F1F1F1" height="48" rx="2.5" ry="2.5" style="stroke:#181818;stroke-width:0.5;" width="135.5713" x="134.64" y="507"/><ellipse cx="149.64" cy="523" fill="#ADD1B2" rx="11" ry="11" style="stroke:#181818;stroke-width:1;"/><path d="M152.6088,528.6406 Q152.0306,528.9375 151.39,529.0781 Q150.7494,529.2344 150.0463,529.2344 Q147.5463,529.2344 146.2181,527.5938 Q144.9056,525.9375 144.9056,522.8125 Q144.9056,519.6875 146.2181,518.0313 Q147.5463,516.375 150.0463,516.375 Q150.7494,516.375 151.39,516.5313 Q152.0463,516.6875 152.6088,516.9844 L152.6088,519.7031 Q151.9838,519.125 151.39,518.8594 Q150.7963,518.5781 150.1713,518.5781 Q148.8275,518.5781 148.14,519.6563 Q147.4525,520.7188 147.4525,522.8125 Q147.4525,524.9063 148.14,525.9844 Q148.8275,527.0469 150.1713,527.0469 Q150.7963,527.0469 151.39,526.7813 Q151.9838,526.5 152.6088,525.9219 L152.6088,528.6406 Z " fill="#000000"/><text fill="#000000" font-family="sans-serif" font-size="14" lengthAdjust="spacing" textLength="103.5713" x="163.64" y="527.8467">GeneroMusical</text><line style="stroke:#181818;stroke-width:0.5;" x1="135.64" x2="269.2113" y1="539" y2="539"/><line style="stroke:#181818;stroke-width:0.5;" x1="135.64" x2="269.2113" y1="547" y2="547"/></g><!--class Letra--><g class="entity" data-qualified-name="Letra" data-source-line="11" id="ent0012"><rect fill="#F1F1F1" height="48" rx="2.5" ry="2.5" style="stroke:#181818;stroke-width:0.5;" width="68.2373" x="305.31" y="507"/><ellipse cx="320.31" cy="523" fill="#ADD1B2" rx="11" ry="11" style="stroke:#181818;stroke-width:1;"/><path d="M323.2788,528.6406 Q322.7006,528.9375 322.06,529.0781 Q321.4194,529.2344 320.7163,529.2344 Q318.2163,529.2344 316.8881,527.5938 Q315.5756,525.9375 315.5756,522.8125 Q315.5756,519.6875 316.8881,518.0313 Q318.2163,516.375 320.7163,516.375 Q321.4194,516.375 322.06,516.5313 Q322.7163,516.6875 323.2788,516.9844 L323.2788,519.7031 Q322.6538,519.125 322.06,518.8594 Q321.4663,518.5781 320.8413,518.5781 Q319.4975,518.5781 318.81,519.6563 Q318.1225,520.7188 318.1225,522.8125 Q318.1225,524.9063 318.81,525.9844 Q319.4975,527.0469 320.8413,527.0469 Q321.4663,527.0469 322.06,526.7813 Q322.6538,526.5 323.2788,525.9219 L323.2788,528.6406 Z " fill="#000000"/><text fill="#000000" font-family="sans-serif" font-size="14" lengthAdjust="spacing" textLength="36.2373" x="334.31" y="527.8467">Letra</text><line style="stroke:#181818;stroke-width:0.5;" x1="306.31" x2="372.5473" y1="539" y2="539"/><line style="stroke:#181818;stroke-width:0.5;" x1="306.31" x2="372.5473" y1="547" y2="547"/></g><!--class Productor--><g class="entity" data-qualified-name="Productor" data-source-line="12" id="ent0013"><rect fill="#F1F1F1" height="48" rx="2.5" ry="2.5" style="stroke:#181818;stroke-width:0.5;" width="100.0313" x="408.41" y="507"/><ellipse cx="423.41" cy="523" fill="#ADD1B2" rx="11" ry="11" style="stroke:#181818;stroke-width:1;"/><path d="M426.3788,528.6406 Q425.8006,528.9375 425.16,529.0781 Q424.5194,529.2344 423.8163,529.2344 Q421.3163,529.2344 419.9881,527.5938 Q418.6756,525.9375 418.6756,522.8125 Q418.6756,519.6875 419.9881,518.0313 Q421.3163,516.375 423.8163,516.375 Q424.5194,516.375 425.16,516.5313 Q425.8163,516.6875 426.3788,516.9844 L426.3788,519.7031 Q425.7538,519.125 425.16,518.8594 Q424.5663,518.5781 423.9413,518.5781 Q422.5975,518.5781 421.91,519.6563 Q421.2225,520.7188 421.2225,522.8125 Q421.2225,524.9063 421.91,525.9844 Q422.5975,527.0469 423.9413,527.0469 Q424.5663,527.0469 425.16,526.7813 Q425.7538,526.5 426.3788,525.9219 L426.3788,528.6406 Z " fill="#000000"/><text fill="#000000" font-family="sans-serif" font-size="14" lengthAdjust="spacing" textLength="68.0313" x="437.41" y="527.8467">Productor</text><line style="stroke:#181818;stroke-width:0.5;" x1="409.41" x2="507.4413" y1="539" y2="539"/><line style="stroke:#181818;stroke-width:0.5;" x1="409.41" x2="507.4413" y1="547" y2="547"/></g><!--class Album--><g class="entity" data-qualified-name="Album" data-source-line="13" id="ent0014"><rect fill="#F1F1F1" height="48" rx="2.5" ry="2.5" style="stroke:#181818;stroke-width:0.5;" width="76.8643" x="568.99" y="257"/><ellipse cx="583.99" cy="273" fill="#ADD1B2" rx="11" ry="11" style="stroke:#181818;stroke-width:1;"/><path d="M586.9588,278.6406 Q586.3806,278.9375 585.74,279.0781 Q585.0994,279.2344 584.3963,279.2344 Q581.8963,279.2344 580.5681,277.5938 Q579.2556,275.9375 579.2556,272.8125 Q579.2556,269.6875 580.5681,268.0313 Q581.8963,266.375 584.3963,266.375 Q585.0994,266.375 585.74,266.5313 Q586.3963,266.6875 586.9588,266.9844 L586.9588,269.7031 Q586.3338,269.125 585.74,268.8594 Q585.1463,268.5781 584.5213,268.5781 Q583.1775,268.5781 582.49,269.6563 Q581.8025,270.7188 581.8025,272.8125 Q581.8025,274.9063 582.49,275.9844 Q583.1775,277.0469 584.5213,277.0469 Q585.1463,277.0469 585.74,276.7813 Q586.3338,276.5 586.9588,275.9219 L586.9588,278.6406 Z " fill="#000000"/><text fill="#000000" font-family="sans-serif" font-size="14" lengthAdjust="spacing" textLength="44.8643" x="597.99" y="277.8467">Album</text><line style="stroke:#181818;stroke-width:0.5;" x1="569.99" x2="644.8543" y1="289" y2="289"/><line style="stroke:#181818;stroke-width:0.5;" x1="569.99" x2="644.8543" y1="297" y2="297"/></g><!--class Banda--><g class="entity" data-qualified-name="Banda" data-source-line="14" id="ent0015"><rect fill="#F1F1F1" height="48" rx="2.5" ry="2.5" style="stroke:#181818;stroke-width:0.5;" width="76.5225" x="677.17" y="382"/><ellipse cx="692.17" cy="398" fill="#ADD1B2" rx="11" ry="11" style="stroke:#181818;stroke-width:1;"/><path d="M695.1388,403.6406 Q694.5606,403.9375 693.92,404.0781 Q693.2794,404.2344 692.5763,404.2344 Q690.0763,404.2344 688.7481,402.5938 Q687.4356,400.9375 687.4356,397.8125 Q687.4356,394.6875 688.7481,393.0313 Q690.0763,391.375 692.5763,391.375 Q693.2794,391.375 693.92,391.5313 Q694.5763,391.6875 695.1388,391.9844 L695.1388,394.7031 Q694.5138,394.125 693.92,393.8594 Q693.3263,393.5781 692.7013,393.5781 Q691.3575,393.5781 690.67,394.6563 Q689.9825,395.7188 689.9825,397.8125 Q689.9825,399.9063 690.67,400.9844 Q691.3575,402.0469 692.7013,402.0469 Q693.3263,402.0469 693.92,401.7813 Q694.5138,401.5 695.1388,400.9219 L695.1388,403.6406 Z " fill="#000000"/><text fill="#000000" font-family="sans-serif" font-size="14" lengthAdjust="spacing" textLength="44.5225" x="706.17" y="402.8467">Banda</text><line style="stroke:#181818;stroke-width:0.5;" x1="678.17" x2="752.6925" y1="414" y2="414"/><line style="stroke:#181818;stroke-width:0.5;" x1="678.17" x2="752.6925" y1="422" y2="422"/></g><!--class Artista--><g class="entity" data-qualified-name="Artista" data-source-line="15" id="ent0016"><rect fill="#F1F1F1" height="48" rx="2.5" ry="2.5" style="stroke:#181818;stroke-width:0.5;" width="78.0742" x="598.39" y="507"/><ellipse cx="613.39" cy="523" fill="#ADD1B2" rx="11" ry="11" style="stroke:#181818;stroke-width:1;"/><path d="M616.3588,528.6406 Q615.7806,528.9375 615.14,529.0781 Q614.4994,529.2344 613.7963,529.2344 Q611.2963,529.2344 609.9681,527.5938 Q608.6556,525.9375 608.6556,522.8125 Q608.6556,519.6875 609.9681,518.0313 Q611.2963,516.375 613.7963,516.375 Q614.4994,516.375 615.14,516.5313 Q615.7963,516.6875 616.3588,516.9844 L616.3588,519.7031 Q615.7338,519.125 615.14,518.8594 Q614.5463,518.5781 613.9213,518.5781 Q612.5775,518.5781 611.89,519.6563 Q611.2025,520.7188 611.2025,522.8125 Q611.2025,524.9063 611.89,525.9844 Q612.5775,527.0469 613.9213,527.0469 Q614.5463,527.0469 615.14,526.7813 Q615.7338,526.5 616.3588,525.9219 L616.3588,528.6406 Z " fill="#000000"/><text fill="#000000" font-family="sans-serif" font-size="14" lengthAdjust="spacing" textLength="46.0742" x="627.39" y="527.8467">Artista</text><line style="stroke:#181818;stroke-width:0.5;" x1="599.39" x2="675.4642" y1="539" y2="539"/><line style="stroke:#181818;stroke-width:0.5;" x1="599.39" x2="675.4642" y1="547" y2="547"/></g><!--class Instrumento--><g class="entity" data-qualified-name="Instrumento" data-source-line="16" id="ent0017"><rect fill="#F1F1F1" height="48" rx="2.5" ry="2.5" style="stroke:#181818;stroke-width:0.5;" width="117.5928" x="578.63" y="632"/><ellipse cx="593.63" cy="648" fill="#ADD1B2" rx="11" ry="11" style="stroke:#181818;stroke-width:1;"/><path d="M596.5988,653.6406 Q596.0206,653.9375 595.38,654.0781 Q594.7394,654.2344 594.0363,654.2344 Q591.5363,654.2344 590.2081,652.5938 Q588.8956,650.9375 588.8956,647.8125 Q588.8956,644.6875 590.2081,643.0313 Q591.5363,641.375 594.0363,641.375 Q594.7394,641.375 595.38,641.5313 Q596.0363,641.6875 596.5988,641.9844 L596.5988,644.7031 Q595.9738,644.125 595.38,643.8594 Q594.7863,643.5781 594.1613,643.5781 Q592.8175,643.5781 592.13,644.6563 Q591.4425,645.7188 591.4425,647.8125 Q591.4425,649.9063 592.13,650.9844 Q592.8175,652.0469 594.1613,652.0469 Q594.7863,652.0469 595.38,651.7813 Q595.9738,651.5 596.5988,650.9219 L596.5988,653.6406 Z " fill="#000000"/><text fill="#000000" font-family="sans-serif" font-size="14" lengthAdjust="spacing" textLength="85.5928" x="607.63" y="652.8467">Instrumento</text><line style="stroke:#181818;stroke-width:0.5;" x1="579.63" x2="695.2228" y1="664" y2="664"/><line style="stroke:#181818;stroke-width:0.5;" x1="579.63" x2="695.2228" y1="672" y2="672"/></g><!--reverse link Plataforma to Oyente--><g class="link" data-entity-1="ent0002" data-entity-2="ent0005" data-link-type="composition" data-source-line="19" id="lnk18"><path codeLine="19" d="M275.9286,65.2177 C291.4086,87.1077 307.46,109.8 322.92,131.66" fill="none" id="Plataforma-backto-Oyente" style="stroke:#181818;stroke-width:1;"/><polygon fill="#181818" points="269,55.42,269.1984,62.6284,275.9286,65.2177,275.7302,58.0093,269,55.42" style="stroke:#181818;stroke-width:1;"/><text fill="#000000" font-family="sans-serif" font-size="13" lengthAdjust="spacing" textLength="31.1099" x="302.43" y="98.0669">aloja</text></g><!--reverse link Plataforma to Estadistica--><g class="link" data-entity-1="ent0002" data-entity-2="ent0003" data-link-type="composition" data-source-line="20" id="lnk19"><path codeLine="20" d="M234.9929,66.1272 C230.5629,75.2172 231.02,75.05 227.43,85 C221.93,100.23 217.41,117.88 214.27,131.65" fill="none" id="Plataforma-backto-Estadistica" style="stroke:#181818;stroke-width:1;"/><polygon fill="#181818" points="240.25,55.34,234.0257,58.9812,234.9929,66.1272,241.2172,62.4859,240.25,55.34" style="stroke:#181818;stroke-width:1;"/><text fill="#000000" font-family="sans-serif" font-size="13" lengthAdjust="spacing" textLength="45.6904" x="228.43" y="98.0669">calcula</text></g><!--reverse link Oyente to Playlist--><g class="link" data-entity-1="ent0005" data-entity-2="ent0006" data-link-type="composition" data-source-line="21" id="lnk20"><path codeLine="21" d="M339.43,192.42 C339.43,214.31 339.43,234.8 339.43,256.66" fill="none" id="Oyente-backto-Playlist" style="stroke:#181818;stroke-width:1;"/><polygon fill="#181818" points="339.43,180.42,335.43,186.42,339.43,192.42,343.43,186.42,339.43,180.42" style="stroke:#181818;stroke-width:1;"/><text fill="#000000" font-family="sans-serif" font-size="13" lengthAdjust="spacing" textLength="38.9746" x="340.43" y="223.0669">posee</text></g><!--reverse link Partitura to Nota--><g class="link" data-entity-1="ent0009" data-entity-2="ent0010" data-link-type="composition" data-source-line="22" id="lnk21"><path codeLine="22" d="M53.43,567.42 C53.43,589.31 53.43,609.8 53.43,631.66" fill="none" id="Partitura-backto-Nota" style="stroke:#181818;stroke-width:1;"/><polygon fill="#181818" points="53.43,555.42,49.43,561.42,53.43,567.42,57.43,561.42,53.43,555.42" style="stroke:#181818;stroke-width:1;"/><text fill="#000000" font-family="sans-serif" font-size="13" lengthAdjust="spacing" textLength="56.2847" x="54.43" y="598.0669">contiene</text></g><!--reverse link Banda to Artista--><g class="link" data-entity-1="ent0015" data-entity-2="ent0016" data-link-type="aggregation" data-source-line="25" id="lnk22"><path codeLine="25" d="M697.6761,441.0299 C690.3161,454.8399 686.13,461.9 676.43,477 C670,486.99 662.36,497.61 655.55,506.7" fill="none" id="Banda-backto-Artista" style="stroke:#181818;stroke-width:1;"/><polygon fill="none" points="703.32,430.44,696.9681,433.8537,697.6761,441.0299,704.028,437.6163,703.32,430.44" style="stroke:#181818;stroke-width:1;"/><text fill="#000000" font-family="sans-serif" font-size="13" lengthAdjust="spacing" textLength="46.0205" x="687.43" y="473.0669">agrupa</text></g><!--reverse link Album to Cancion--><g class="link" data-entity-1="ent0014" data-entity-2="ent0008" data-link-type="aggregation" data-source-line="26" id="lnk23"><path codeLine="26" d="M557.8343,304.7565 C508.8443,327.2465 435.5,360.9 383.9,384.59" fill="none" id="Album-backto-Cancion" style="stroke:#181818;stroke-width:1;"/><polygon fill="none" points="568.74,299.75,561.6183,298.618,557.8343,304.7565,564.956,305.8885,568.74,299.75" style="stroke:#181818;stroke-width:1;"/><text fill="#000000" font-family="sans-serif" font-size="13" lengthAdjust="spacing" textLength="56.2847" x="491.43" y="348.0669">contiene</text></g><!--reverse link Playlist to Cancion--><g class="link" data-entity-1="ent0006" data-entity-2="ent0008" data-link-type="aggregation" data-source-line="27" id="lnk24"><path codeLine="27" d="M339.43,317.42 C339.43,339.31 339.43,359.8 339.43,381.66" fill="none" id="Playlist-backto-Cancion" style="stroke:#181818;stroke-width:1;"/><polygon fill="none" points="339.43,305.42,335.43,311.42,339.43,317.42,343.43,311.42,339.43,305.42" style="stroke:#181818;stroke-width:1;"/><text fill="#000000" font-family="sans-serif" font-size="13" lengthAdjust="spacing" textLength="51.8857" x="340.43" y="348.0669">recopila</text></g><!--reverse link Cancion to Letra--><g class="link" data-entity-1="ent0008" data-entity-2="ent0012" data-link-type="aggregation" data-source-line="28" id="lnk25"><path codeLine="28" d="M339.43,442.42 C339.43,464.31 339.43,484.8 339.43,506.66" fill="none" id="Cancion-backto-Letra" style="stroke:#181818;stroke-width:1;"/><polygon fill="none" points="339.43,430.42,335.43,436.42,339.43,442.42,343.43,436.42,339.43,430.42" style="stroke:#181818;stroke-width:1;"/><text fill="#000000" font-family="sans-serif" font-size="13" lengthAdjust="spacing" textLength="32.9443" x="340.43" y="473.0669">tiene</text></g><!--reverse link Cancion to Partitura--><g class="link" data-entity-1="ent0008" data-entity-2="ent0009" data-link-type="aggregation" data-source-line="29" id="lnk26"><path codeLine="29" d="M283.3162,414.4776 C240.5362,421.2176 186.7,433.28 135.43,460 C112.52,471.94 90.48,491.35 75.03,506.7" fill="none" id="Cancion-backto-Partitura" style="stroke:#181818;stroke-width:1;"/><polygon fill="none" points="295.17,412.61,288.6206,409.5925,283.3162,414.4776,289.8656,417.495,295.17,412.61" style="stroke:#181818;stroke-width:1;"/><text fill="#000000" font-family="sans-serif" font-size="13" lengthAdjust="spacing" textLength="82.9575" x="136.43" y="473.0669">transcrita en</text></g><!--reverse link Cancion to GeneroMusical--><g class="link" data-entity-1="ent0008" data-entity-2="ent0011" data-link-type="aggregation" data-source-line="30" id="lnk27"><path codeLine="30" d="M284.0318,429.1687 C265.5618,437.8587 255.77,444.74 240.43,460 C227.19,473.16 217.34,491.91 211,506.69" fill="none" id="Cancion-backto-GeneroMusical" style="stroke:#181818;stroke-width:1;"/><polygon fill="none" points="294.89,424.06,287.758,422.9949,284.0318,429.1687,291.1638,430.2338,294.89,424.06" style="stroke:#181818;stroke-width:1;"/><text fill="#000000" font-family="sans-serif" font-size="13" lengthAdjust="spacing" textLength="89.0005" x="241.43" y="473.0669">clasificada en</text></g><!--reverse link Cancion to Productor--><g class="link" data-entity-1="ent0008" data-entity-2="ent0013" data-link-type="aggregation" data-source-line="31" id="lnk28"><path codeLine="31" d="M370.4322,439.046 C391.6022,460.936 414.7,484.8 435.85,506.66" fill="none" id="Cancion-backto-Productor" style="stroke:#181818;stroke-width:1;"/><polygon fill="none" points="362.09,430.42,363.3858,437.5137,370.4322,439.046,369.1364,431.9522,362.09,430.42" style="stroke:#181818;stroke-width:1;"/><text fill="#000000" font-family="sans-serif" font-size="13" lengthAdjust="spacing" textLength="90.7017" x="407.43" y="473.0669">producida por</text></g><!--reverse link Cancion to Artista--><g class="link" data-entity-1="ent0008" data-entity-2="ent0016" data-link-type="aggregation" data-source-line="32" id="lnk29"><path codeLine="32" d="M395.3759,421.9244 C429.4959,431.4744 465.93,442.92 506.43,460 C538.27,473.42 572.67,491.97 598.22,506.61" fill="none" id="Cancion-backto-Artista" style="stroke:#181818;stroke-width:1;"/><polygon fill="none" points="383.82,418.69,388.5198,424.1592,395.3759,421.9244,390.6761,416.4553,383.82,418.69" style="stroke:#181818;stroke-width:1;"/><text fill="#000000" font-family="sans-serif" font-size="13" lengthAdjust="spacing" textLength="106.8501" x="540.43" y="473.0669">interpretada por</text></g><!--link Oyente to Reproductor--><g class="link" data-entity-1="ent0005" data-entity-2="ent0007" data-link-type="dependency" data-source-line="35" id="lnk30"><path codeLine="35" d="M365.14,180.42 C389.16,202.31 420.385,230.7588 444.375,252.6188" fill="none" id="Oyente-to-Reproductor" style="stroke:#181818;stroke-width:1;stroke-dasharray:7,7;"/><polygon fill="#181818" points="448.81,256.66,444.8517,247.6416,445.1142,253.2923,439.4634,253.5549,448.81,256.66" style="stroke:#181818;stroke-width:1;"/><text fill="#000000" font-family="sans-serif" font-size="13" lengthAdjust="spacing" textLength="22.9785" x="416.43" y="223.0669">usa</text></g><!--link Oyente to Reproduccion--><g class="link" data-entity-1="ent0005" data-entity-2="ent0004" data-link-type="dependency" data-source-line="36" id="lnk31"><path codeLine="36" d="M312.76,180.42 C287.85,202.31 255.3774,230.8397 230.4974,252.6997" fill="none" id="Oyente-to-Reproduccion" style="stroke:#181818;stroke-width:1;stroke-dasharray:7,7;"/><polygon fill="#181818" points="225.99,256.66,235.3912,253.7245,229.7461,253.3598,230.1109,247.7147,225.99,256.66" style="stroke:#181818;stroke-width:1;"/><text fill="#000000" font-family="sans-serif" font-size="13" lengthAdjust="spacing" textLength="45.7983" x="279.43" y="223.0669">genera</text></g><!--link Reproduccion to Cancion--><g class="link" data-entity-1="ent0004" data-entity-2="ent0008" data-link-type="dependency" data-source-line="37" id="lnk32"><path codeLine="37" d="M225.7,305.4 C241.05,319.03 260.8,336.53 278.43,352 C289.5,361.72 297.2166,368.4496 307.8166,377.6396" fill="none" id="Reproduccion-to-Cancion" style="stroke:#181818;stroke-width:1;stroke-dasharray:7,7;"/><polygon fill="#181818" points="312.35,381.57,308.1701,372.6521,308.5721,378.2947,302.9296,378.6967,312.35,381.57" style="stroke:#181818;stroke-width:1;"/><text fill="#000000" font-family="sans-serif" font-size="13" lengthAdjust="spacing" textLength="51.4351" x="279.43" y="348.0669">procesa</text></g><!--link Artista to Instrumento--><g class="link" data-entity-1="ent0016" data-entity-2="ent0017" data-link-type="dependency" data-source-line="38" id="lnk33"><path codeLine="38" d="M637.43,555.42 C637.43,577.31 637.43,603.8 637.43,625.66" fill="none" id="Artista-to-Instrumento" style="stroke:#181818;stroke-width:1;stroke-dasharray:7,7;"/><polygon fill="#181818" points="637.43,631.66,641.43,622.66,637.43,626.66,633.43,622.66,637.43,631.66" style="stroke:#181818;stroke-width:1;"/><text fill="#000000" font-family="sans-serif" font-size="13" lengthAdjust="spacing" textLength="28.1646" x="638.43" y="598.0669">toca</text></g><?plantuml-src PL9BQiCm4Dtx5DeL2ia1kWYu8OH04vk47c0gAq55rXXz5Zb7ZzIBTKQH_4btqdjlPjuyIHhmNhG60bpHzL391EnyW4xxe6L1pcfms4KfDTeCDNTbWyeNQd4tLF4a3-WoiWKxgst11HsYA-rF6CfnhwnoU8oUXfkCVQWmIjkdnhNvYdq-luFjYgwc2NxiUh0-kDYJOwog5x5QhSIsERRDvR0z_FwS6AYc6CGhyO_zn9i0WzyWdkbPHgGXhp8QKkKgLfHCY1xGAqKjojg9vwMv56tGjBGenkhzURUl9rzfAu7CF7PYJpSN1ngNjazS3dZHS7Im53WbST3ijc3Cfv29pRLpQl9Dj0FhfTDaGzcbRF5qR8IYrrUwTF-rupDoEkciIJNGVI6RDjOKgnkS2b1qEQxFIvDYoiclrvlvzwFAwATtcRCvZHkx9iK2PjqK615ISPTYX-dPb-9OKC8V?></g></svg>