<?plantuml 1.2026.2beta3?><svg xmlns="http://www.w3.org/2000/svg" xmlns:xlink="http://www.w3.org/1999/xlink" contentStyleType="text/css" data-diagram-type="CLASS" height="533px" preserveAspectRatio="none" style="width:785px;height:533px;background:#FFFFFF;" version="1.1" viewBox="0 0 785 533" width="785px" zoomAndPan="magnify"><defs/><g><!--class Letra--><g class="entity" data-qualified-name="Letra" data-source-line="4" id="ent0002"><rect fill="#F1F1F1" height="42.2969" rx="2.5" ry="2.5" style="stroke:#181818;stroke-width:0.5;" width="42.2373" x="239.14" y="364.89"/><text fill="#000000" font-family="sans-serif" font-size="14" lengthAdjust="spacing" textLength="36.2373" x="242.14" y="382.8851">Letra</text><line style="stroke:#181818;stroke-width:0.5;" x1="240.14" x2="280.3773" y1="391.1869" y2="391.1869"/><line style="stroke:#181818;stroke-width:0.5;" x1="240.14" x2="280.3773" y1="399.1869" y2="399.1869"/></g><!--class Partitura--><g class="entity" data-qualified-name="Partitura" data-source-line="5" id="ent0003"><rect fill="#F1F1F1" height="42.2969" rx="2.5" ry="2.5" style="stroke:#181818;stroke-width:0.5;" width="66.8535" x="316.83" y="364.89"/><text fill="#000000" font-family="sans-serif" font-size="14" lengthAdjust="spacing" textLength="60.8535" x="319.83" y="382.8851">Partitura</text><line style="stroke:#181818;stroke-width:0.5;" x1="317.83" x2="382.6835" y1="391.1869" y2="391.1869"/><line style="stroke:#181818;stroke-width:0.5;" x1="317.83" x2="382.6835" y1="399.1869" y2="399.1869"/></g><!--class GeneroMusical--><g class="entity" data-qualified-name="GeneroMusical" data-source-line="6" id="ent0004"><rect fill="#F1F1F1" height="42.2969" rx="2.5" ry="2.5" style="stroke:#181818;stroke-width:0.5;" width="109.5713" x="418.48" y="364.89"/><text fill="#000000" font-family="sans-serif" font-size="14" lengthAdjust="spacing" textLength="103.5713" x="421.48" y="382.8851">GeneroMusical</text><line style="stroke:#181818;stroke-width:0.5;" x1="419.48" x2="527.0513" y1="391.1869" y2="391.1869"/><line style="stroke:#181818;stroke-width:0.5;" x1="419.48" x2="527.0513" y1="399.1869" y2="399.1869"/></g><!--class Compositor--><g class="entity" data-qualified-name="Compositor" data-source-line="7" id="ent0005"><rect fill="#F1F1F1" height="42.2969" rx="2.5" ry="2.5" style="stroke:#181818;stroke-width:0.5;" width="86.4248" x="563.05" y="364.89"/><text fill="#000000" font-family="sans-serif" font-size="14" lengthAdjust="spacing" textLength="80.4248" x="566.05" y="382.8851">Compositor</text><line style="stroke:#181818;stroke-width:0.5;" x1="564.05" x2="648.4748" y1="391.1869" y2="391.1869"/><line style="stroke:#181818;stroke-width:0.5;" x1="564.05" x2="648.4748" y1="399.1869" y2="399.1869"/></g><!--class Productor--><g class="entity" data-qualified-name="Productor" data-source-line="8" id="ent0006"><rect fill="#F1F1F1" height="42.2969" rx="2.5" ry="2.5" style="stroke:#181818;stroke-width:0.5;" width="74.0313" x="701.25" y="364.89"/><text fill="#000000" font-family="sans-serif" font-size="14" lengthAdjust="spacing" textLength="68.0313" x="704.25" y="382.8851">Productor</text><line style="stroke:#181818;stroke-width:0.5;" x1="702.25" x2="774.2813" y1="391.1869" y2="391.1869"/><line style="stroke:#181818;stroke-width:0.5;" x1="702.25" x2="774.2813" y1="399.1869" y2="399.1869"/></g><!--class Instrumento--><g class="entity" data-qualified-name="Instrumento" data-source-line="9" id="ent0007"><rect fill="#F1F1F1" height="42.2969" rx="2.5" ry="2.5" style="stroke:#181818;stroke-width:0.5;" width="91.5928" x="30.46" y="484.18"/><text fill="#000000" font-family="sans-serif" font-size="14" lengthAdjust="spacing" textLength="85.5928" x="33.46" y="502.1751">Instrumento</text><line style="stroke:#181818;stroke-width:0.5;" x1="31.46" x2="121.0528" y1="510.4769" y2="510.4769"/><line style="stroke:#181818;stroke-width:0.5;" x1="31.46" x2="121.0528" y1="518.4769" y2="518.4769"/></g><!--class Reproductor--><g class="entity" data-qualified-name="Reproductor" data-source-line="10" id="ent0008"><rect fill="#F1F1F1" height="42.2969" rx="2.5" ry="2.5" style="stroke:#181818;stroke-width:0.5;" width="92.8164" x="205.85" y="126.29"/><text fill="#000000" font-family="sans-serif" font-size="14" lengthAdjust="spacing" textLength="86.8164" x="208.85" y="144.2851">Reproductor</text><line style="stroke:#181818;stroke-width:0.5;" x1="206.85" x2="297.6664" y1="152.5869" y2="152.5869"/><line style="stroke:#181818;stroke-width:0.5;" x1="206.85" x2="297.6664" y1="160.5869" y2="160.5869"/></g><!--class Banda--><g class="entity" data-qualified-name="Banda" data-source-line="11" id="ent0009"><rect fill="#F1F1F1" height="42.2969" rx="2.5" ry="2.5" style="stroke:#181818;stroke-width:0.5;" width="50.5225" x="7" y="245.59"/><text fill="#000000" font-family="sans-serif" font-size="14" lengthAdjust="spacing" textLength="44.5225" x="10" y="263.5851">Banda</text><line style="stroke:#181818;stroke-width:0.5;" x1="8" x2="56.5225" y1="271.8869" y2="271.8869"/><line style="stroke:#181818;stroke-width:0.5;" x1="8" x2="56.5225" y1="279.8869" y2="279.8869"/></g><!--class Artista--><g class="entity" data-qualified-name="Artista" data-source-line="12" id="ent0010"><rect fill="#F1F1F1" height="42.2969" rx="2.5" ry="2.5" style="stroke:#181818;stroke-width:0.5;" width="52.0742" x="50.22" y="364.89"/><text fill="#000000" font-family="sans-serif" font-size="14" lengthAdjust="spacing" textLength="46.0742" x="53.22" y="382.8851">Artista</text><line style="stroke:#181818;stroke-width:0.5;" x1="51.22" x2="101.2942" y1="391.1869" y2="391.1869"/><line style="stroke:#181818;stroke-width:0.5;" x1="51.22" x2="101.2942" y1="399.1869" y2="399.1869"/></g><!--class Cancion--><g class="entity" data-qualified-name="Cancion" data-source-line="13" id="ent0011"><rect fill="#F1F1F1" height="42.2969" rx="2.5" ry="2.5" style="stroke:#181818;stroke-width:0.5;" width="62.2529" x="380.13" y="245.59"/><text fill="#000000" font-family="sans-serif" font-size="14" lengthAdjust="spacing" textLength="56.2529" x="383.13" y="263.5851">Cancion</text><line style="stroke:#181818;stroke-width:0.5;" x1="381.13" x2="441.3829" y1="271.8869" y2="271.8869"/><line style="stroke:#181818;stroke-width:0.5;" x1="381.13" x2="441.3829" y1="279.8869" y2="279.8869"/></g><!--class Album--><g class="entity" data-qualified-name="Album" data-source-line="14" id="ent0012"><rect fill="#F1F1F1" height="42.2969" rx="2.5" ry="2.5" style="stroke:#181818;stroke-width:0.5;" width="50.8643" x="548.83" y="126.29"/><text fill="#000000" font-family="sans-serif" font-size="14" lengthAdjust="spacing" textLength="44.8643" x="551.83" y="144.2851">Album</text><line style="stroke:#181818;stroke-width:0.5;" x1="549.83" x2="598.6943" y1="152.5869" y2="152.5869"/><line style="stroke:#181818;stroke-width:0.5;" x1="549.83" x2="598.6943" y1="160.5869" y2="160.5869"/></g><!--class Playlist--><g class="entity" data-qualified-name="Playlist" data-source-line="15" id="ent0013"><rect fill="#F1F1F1" height="42.2969" rx="2.5" ry="2.5" style="stroke:#181818;stroke-width:0.5;" width="55.7588" x="458.38" y="126.29"/><text fill="#000000" font-family="sans-serif" font-size="14" lengthAdjust="spacing" textLength="49.7588" x="461.38" y="144.2851">Playlist</text><line style="stroke:#181818;stroke-width:0.5;" x1="459.38" x2="513.1388" y1="152.5869" y2="152.5869"/><line style="stroke:#181818;stroke-width:0.5;" x1="459.38" x2="513.1388" y1="160.5869" y2="160.5869"/></g><!--class Oyente--><g class="entity" data-qualified-name="Oyente" data-source-line="16" id="ent0014"><rect fill="#F1F1F1" height="42.2969" rx="2.5" ry="2.5" style="stroke:#181818;stroke-width:0.5;" width="56.8936" x="339.81" y="7"/><text fill="#000000" font-family="sans-serif" font-size="14" lengthAdjust="spacing" textLength="50.8936" x="342.81" y="24.9951">Oyente</text><line style="stroke:#181818;stroke-width:0.5;" x1="340.81" x2="395.7036" y1="33.2969" y2="33.2969"/><line style="stroke:#181818;stroke-width:0.5;" x1="340.81" x2="395.7036" y1="41.2969" y2="41.2969"/></g><!--reverse link Banda to Artista--><g class="link" data-entity-1="ent0009" data-entity-2="ent0010" data-link-type="aggregation" data-source-line="19" id="lnk15"><path codeLine="19" d="M24.996,299.9523 C22.546,313.6423 23.38,320.02 29.26,334.89 C33.74,346.2 42.11,356.46 50.56,364.71" fill="none" id="Banda-backto-Artista" style="stroke:#181818;stroke-width:1;"/><polygon fill="none" points="27.11,288.14,22.1156,293.3415,24.996,299.9523,29.9905,294.7508,27.11,288.14" style="stroke:#181818;stroke-width:1;"/><text fill="#000000" font-family="sans-serif" font-size="13" lengthAdjust="spacing" textLength="46.0205" x="30.26" y="330.9569">agrupa</text></g><!--reverse link Album to Cancion--><g class="link" data-entity-1="ent0012" data-entity-2="ent0011" data-link-type="aggregation" data-source-line="20" id="lnk16"><path codeLine="20" d="M551.6704,178.2297 C540.2504,192.6197 531.01,202.24 513.26,215.59 C491.5,231.96 463.56,245.26 442.43,254.03" fill="none" id="Album-backto-Cancion" style="stroke:#181818;stroke-width:1;"/><polygon fill="none" points="559.13,168.83,552.267,171.0433,551.6704,178.2297,558.5334,176.0164,559.13,168.83" style="stroke:#181818;stroke-width:1;"/><text fill="#000000" font-family="sans-serif" font-size="13" lengthAdjust="spacing" textLength="56.2847" x="532.26" y="211.6569">contiene</text></g><!--reverse link Playlist to Cancion--><g class="link" data-entity-1="ent0013" data-entity-2="ent0011" data-link-type="aggregation" data-source-line="21" id="lnk17"><path codeLine="21" d="M466.7367,178.9807 C453.0567,200.3807 438.15,223.69 424.43,245.15" fill="none" id="Playlist-backto-Cancion" style="stroke:#181818;stroke-width:1;"/><polygon fill="none" points="473.2,168.87,466.5981,171.7709,466.7367,178.9807,473.3386,176.0798,473.2,168.87" style="stroke:#181818;stroke-width:1;"/><text fill="#000000" font-family="sans-serif" font-size="13" lengthAdjust="spacing" textLength="51.8857" x="453.26" y="211.6569">recopila</text></g><!--reverse link Oyente to Playlist--><g class="link" data-entity-1="ent0014" data-entity-2="ent0013" data-link-type="composition" data-source-line="24" id="lnk18"><path codeLine="24" d="M397.3309,58.0395 C418.8509,79.4295 443.96,104.39 465.55,125.85" fill="none" id="Oyente-backto-Playlist" style="stroke:#181818;stroke-width:1;"/><polygon fill="#181818" points="388.82,49.58,390.2556,56.6468,397.3309,58.0395,395.8953,50.9728,388.82,49.58" style="stroke:#181818;stroke-width:1;"/><text fill="#000000" font-family="sans-serif" font-size="13" lengthAdjust="spacing" textLength="38.9746" x="435.26" y="92.3569">posee</text></g><!--link Artista to Instrumento--><g class="link" data-entity-1="ent0010" data-entity-2="ent0007" data-link-type="dependency" data-source-line="27" id="lnk19"><path codeLine="27" d="M76.26,407.47 C76.26,428.86 76.26,456.28 76.26,477.74" fill="none" id="Artista-to-Instrumento" style="stroke:#181818;stroke-width:1;"/><polygon fill="#181818" points="76.26,483.74,80.26,474.74,76.26,478.74,72.26,474.74,76.26,483.74" style="stroke:#181818;stroke-width:1;"/><text fill="#000000" font-family="sans-serif" font-size="13" lengthAdjust="spacing" textLength="28.1646" x="77.26" y="450.2469">toca</text></g><!--link Cancion to Letra--><g class="link" data-entity-1="ent0011" data-entity-2="ent0002" data-link-type="dependency" data-source-line="28" id="lnk20"><path codeLine="28" d="M379.95,280.22 C360.19,288.99 334.81,301.98 315.26,317.89 C298.78,331.3 287.2322,345.3997 277.0722,359.7797" fill="none" id="Cancion-to-Letra" style="stroke:#181818;stroke-width:1;"/><polygon fill="#181818" points="273.61,364.68,282.0702,359.6377,276.4952,360.5964,275.5365,355.0214,273.61,364.68" style="stroke:#181818;stroke-width:1;"/><text fill="#000000" font-family="sans-serif" font-size="13" lengthAdjust="spacing" textLength="32.9443" x="316.26" y="330.9569">tiene</text></g><!--link Cancion to Partitura--><g class="link" data-entity-1="ent0011" data-entity-2="ent0003" data-link-type="dependency" data-source-line="29" id="lnk21"><path codeLine="29" d="M387.28,288.14 C378.81,296.53 369.98,306.87 364.26,317.89 C356.68,332.47 353.8991,344.8797 352.2991,358.7197" fill="none" id="Cancion-to-Partitura" style="stroke:#181818;stroke-width:1;"/><polygon fill="#181818" points="351.61,364.68,356.6171,356.1989,352.1842,359.7131,348.67,355.2802,351.61,364.68" style="stroke:#181818;stroke-width:1;"/><text fill="#000000" font-family="sans-serif" font-size="13" lengthAdjust="spacing" textLength="64.3081" x="365.26" y="330.9569">escrita en</text></g><!--link Cancion to GeneroMusical--><g class="link" data-entity-1="ent0011" data-entity-2="ent0004" data-link-type="dependency" data-source-line="30" id="lnk22"><path codeLine="30" d="M422.06,288.17 C433.37,309.57 448.2357,337.6856 459.5757,359.1356" fill="none" id="Cancion-to-GeneroMusical" style="stroke:#181818;stroke-width:1;"/><polygon fill="#181818" points="462.38,364.44,461.7098,354.614,460.0431,360.0197,454.6374,358.353,462.38,364.44" style="stroke:#181818;stroke-width:1;"/><text fill="#000000" font-family="sans-serif" font-size="13" lengthAdjust="spacing" textLength="78.1714" x="446.26" y="330.9569">pertenece a</text></g><!--link Cancion to Compositor--><g class="link" data-entity-1="ent0011" data-entity-2="ent0005" data-link-type="dependency" data-source-line="31" id="lnk23"><path codeLine="31" d="M442.81,277.27 C468.36,285.77 504.67,299.69 533.26,317.89 C553.74,330.92 569.6565,345.6401 583.5465,360.1201" fill="none" id="Cancion-to-Compositor" style="stroke:#181818;stroke-width:1;"/><polygon fill="#181818" points="587.7,364.45,584.3564,355.1861,584.2387,360.8417,578.5831,360.7241,587.7,364.45" style="stroke:#181818;stroke-width:1;"/><text fill="#000000" font-family="sans-serif" font-size="13" lengthAdjust="spacing" textLength="97.7729" x="555.26" y="330.9569">compuesta por</text></g><!--link Cancion to Productor--><g class="link" data-entity-1="ent0011" data-entity-2="ent0006" data-link-type="dependency" data-source-line="32" id="lnk24"><path codeLine="32" d="M442.52,268.89 C491.54,271.79 588.39,282 661.26,317.89 C684.33,329.25 701.8447,344.9232 716.2747,360.1632" fill="none" id="Cancion-to-Productor" style="stroke:#181818;stroke-width:1;"/><polygon fill="#181818" points="720.4,364.52,717.1166,355.2346,716.9623,360.8893,711.3075,360.7349,720.4,364.52" style="stroke:#181818;stroke-width:1;"/><text fill="#000000" font-family="sans-serif" font-size="13" lengthAdjust="spacing" textLength="90.7017" x="687.26" y="330.9569">producida por</text></g><!--link Cancion to Artista--><g class="link" data-entity-1="ent0011" data-entity-2="ent0010" data-link-type="dependency" data-source-line="33" id="lnk25"><path codeLine="33" d="M379.86,271.1 C334.75,276.7 249.64,290.18 182.26,317.89 C153.25,329.82 128.192,346.0404 107.572,361.0404" fill="none" id="Cancion-to-Artista" style="stroke:#181818;stroke-width:1;"/><polygon fill="#181818" points="102.72,364.57,112.3511,362.5103,106.7633,361.6287,107.645,356.0409,102.72,364.57" style="stroke:#181818;stroke-width:1;"/><text fill="#000000" font-family="sans-serif" font-size="13" lengthAdjust="spacing" textLength="106.8501" x="183.26" y="330.9569">interpretada por</text></g><!--link Oyente to Cancion--><g class="link" data-entity-1="ent0014" data-entity-2="ent0011" data-link-type="dependency" data-source-line="36" id="lnk26"><path codeLine="36" d="M370.1,49.59 C372.74,76.88 378.19,126.64 386.26,168.59 C391.43,195.44 398.0097,220.1214 403.5997,239.6614" fill="none" id="Oyente-to-Cancion" style="stroke:#181818;stroke-width:1;stroke-dasharray:7,7;"/><polygon fill="#181818" points="405.25,245.43,406.6203,235.6769,403.8748,240.6228,398.9289,237.8773,405.25,245.43" style="stroke:#181818;stroke-width:1;"/><text fill="#000000" font-family="sans-serif" font-size="13" lengthAdjust="spacing" textLength="53.5107" x="387.26" y="152.0069">escucha</text></g><!--link Oyente to Reproductor--><g class="link" data-entity-1="ent0014" data-entity-2="ent0008" data-link-type="dependency" data-source-line="37" id="lnk27"><path codeLine="37" d="M347.79,49.61 C338.73,58.68 327.95,69.51 318.26,79.29 C302.85,94.86 289.6922,108.2473 276.6422,121.5473" fill="none" id="Oyente-to-Reproductor" style="stroke:#181818;stroke-width:1;stroke-dasharray:7,7;"/><polygon fill="#181818" points="272.44,125.83,281.5984,122.2074,275.9418,122.2611,275.8882,116.6045,272.44,125.83" style="stroke:#181818;stroke-width:1;"/><text fill="#000000" font-family="sans-serif" font-size="13" lengthAdjust="spacing" textLength="22.9785" x="319.26" y="92.3569">usa</text></g><!--link Reproductor to Cancion--><g class="link" data-entity-1="ent0008" data-entity-2="ent0011" data-link-type="dependency" data-source-line="38" id="lnk28"><path codeLine="38" d="M259.35,169.04 C265.32,183.72 275.16,203 289.26,215.59 C315.15,238.69 347.3179,250.4818 374.0079,257.5118" fill="none" id="Reproductor-to-Cancion" style="stroke:#181818;stroke-width:1;stroke-dasharray:7,7;"/><polygon fill="#181818" points="379.81,259.04,372.1257,252.8796,374.9749,257.7665,370.088,260.6157,379.81,259.04" style="stroke:#181818;stroke-width:1;"/><text fill="#000000" font-family="sans-serif" font-size="13" lengthAdjust="spacing" textLength="51.4351" x="290.26" y="211.6569">procesa</text></g><?plantuml-src RLB1QiCm3BtxAtmR359sxg6GTJ0A7HlR5wYEwCmSsrZo8VkjVS9-R8eRfqdP9LXwJthIK-ZB-WW9UaqyE9HliePpxnJDY750rB8WfynuCC5_s6_K3qeLH1-H4qplDqXiES_nCtfCuIMJDU2ct3xqCP3ba6fH2bqsr_ZWPOpSe-SmPTuntd0UmNTLf1LDuXhjmHiRVCNSAVTLny7WX3c5huCee59tkZqdFCDOXQHLQQr3qzJ6UglXd784hKgxWaqoWeaXR6LFhQh03I6X2T4wAHUjQNjZVt-yLfSPzBtmv-Aj5W9YORSKZ9qdg_CqpMvfabHmCDA-IevukSg8N4PRGlEH14OooKfBz6lEwd3ZI9XOKWRrZSxrciMAFcOSHumIhqNh0STcvMsxVsXNowqOas92XieJFvumekzG-42pUvlDRk6sR9JD9wpGnVyZZ4o2BbFh1f8tIF07?></g></svg>