<?plantuml 1.2026.2beta3?><svg xmlns="http://www.w3.org/2000/svg" xmlns:xlink="http://www.w3.org/1999/xlink" contentStyleType="text/css" data-diagram-type="CLASS" height="599px" preserveAspectRatio="none" style="width:440px;height:599px;background:#FFFFFF;" version="1.1" viewBox="0 0 440 599" width="440px" zoomAndPan="magnify"><title>Diagrama de clases de una decisi&#243;n</title><defs/><g><g class="title" data-source-line="1"><text fill="#000000" font-family="sans-serif" font-size="14" font-weight="bold" lengthAdjust="spacing" textLength="283.0967" x="71.5854" y="22.9951">Diagrama de clases de una decisi&#243;n</text></g><!--class Decisi?n--><g class="entity" data-qualified-name="Decisi.n" data-source-line="4" id="ent0002"><rect fill="#F1F1F1" height="48" rx="2.5" ry="2.5" style="stroke:#181818;stroke-width:0.5;" width="91.6025" x="141.07" y="169.2969"/><ellipse cx="156.07" cy="185.2969" fill="#ADD1B2" rx="11" ry="11" style="stroke:#181818;stroke-width:1;"/><path d="M159.0388,190.9375 Q158.4606,191.2344 157.82,191.375 Q157.1794,191.5313 156.4763,191.5313 Q153.9763,191.5313 152.6481,189.8906 Q151.3356,188.2344 151.3356,185.1094 Q151.3356,181.9844 152.6481,180.3281 Q153.9763,178.6719 156.4763,178.6719 Q157.1794,178.6719 157.82,178.8281 Q158.4763,178.9844 159.0388,179.2813 L159.0388,182 Q158.4138,181.4219 157.82,181.1563 Q157.2263,180.875 156.6013,180.875 Q155.2575,180.875 154.57,181.9531 Q153.8825,183.0156 153.8825,185.1094 Q153.8825,187.2031 154.57,188.2813 Q155.2575,189.3438 156.6013,189.3438 Q157.2263,189.3438 157.82,189.0781 Q158.4138,188.7969 159.0388,188.2188 L159.0388,190.9375 Z " fill="#000000"/><text fill="#000000" font-family="sans-serif" font-size="14" lengthAdjust="spacing" textLength="59.6025" x="170.07" y="190.1436">Decisi&#243;n</text><line style="stroke:#181818;stroke-width:0.5;" x1="142.07" x2="231.6725" y1="201.2969" y2="201.2969"/><line style="stroke:#181818;stroke-width:0.5;" x1="142.07" x2="231.6725" y1="209.2969" y2="209.2969"/></g><!--class Criterio--><g class="entity" data-qualified-name="Criterio" data-source-line="8" id="ent0003"><rect fill="#F1F1F1" height="48" rx="2.5" ry="2.5" style="stroke:#181818;stroke-width:0.5;" width="83.7344" x="7" y="544.2969"/><ellipse cx="22" cy="560.2969" fill="#ADD1B2" rx="11" ry="11" style="stroke:#181818;stroke-width:1;"/><path d="M24.9688,565.9375 Q24.3906,566.2344 23.75,566.375 Q23.1094,566.5313 22.4063,566.5313 Q19.9063,566.5313 18.5781,564.8906 Q17.2656,563.2344 17.2656,560.1094 Q17.2656,556.9844 18.5781,555.3281 Q19.9063,553.6719 22.4063,553.6719 Q23.1094,553.6719 23.75,553.8281 Q24.4063,553.9844 24.9688,554.2813 L24.9688,557 Q24.3438,556.4219 23.75,556.1563 Q23.1563,555.875 22.5313,555.875 Q21.1875,555.875 20.5,556.9531 Q19.8125,558.0156 19.8125,560.1094 Q19.8125,562.2031 20.5,563.2813 Q21.1875,564.3438 22.5313,564.3438 Q23.1563,564.3438 23.75,564.0781 Q24.3438,563.7969 24.9688,563.2188 L24.9688,565.9375 Z " fill="#000000"/><text fill="#000000" font-family="sans-serif" font-size="14" lengthAdjust="spacing" textLength="51.7344" x="36" y="565.1436">Criterio</text><line style="stroke:#181818;stroke-width:0.5;" x1="8" x2="89.7344" y1="576.2969" y2="576.2969"/><line style="stroke:#181818;stroke-width:0.5;" x1="8" x2="89.7344" y1="584.2969" y2="584.2969"/></g><!--class Opci?n--><g class="entity" data-qualified-name="Opci.n" data-source-line="12" id="ent0004"><rect fill="#F1F1F1" height="48" rx="2.5" ry="2.5" style="stroke:#181818;stroke-width:0.5;" width="80.9316" x="72.4" y="294.2969"/><ellipse cx="87.4" cy="310.2969" fill="#ADD1B2" rx="11" ry="11" style="stroke:#181818;stroke-width:1;"/><path d="M90.3688,315.9375 Q89.7906,316.2344 89.15,316.375 Q88.5094,316.5313 87.8063,316.5313 Q85.3063,316.5313 83.9781,314.8906 Q82.6656,313.2344 82.6656,310.1094 Q82.6656,306.9844 83.9781,305.3281 Q85.3063,303.6719 87.8063,303.6719 Q88.5094,303.6719 89.15,303.8281 Q89.8063,303.9844 90.3688,304.2813 L90.3688,307 Q89.7438,306.4219 89.15,306.1563 Q88.5563,305.875 87.9313,305.875 Q86.5875,305.875 85.9,306.9531 Q85.2125,308.0156 85.2125,310.1094 Q85.2125,312.2031 85.9,313.2813 Q86.5875,314.3438 87.9313,314.3438 Q88.5563,314.3438 89.15,314.0781 Q89.7438,313.7969 90.3688,313.2188 L90.3688,315.9375 Z " fill="#000000"/><text fill="#000000" font-family="sans-serif" font-size="14" lengthAdjust="spacing" textLength="48.9316" x="101.4" y="315.1436">Opci&#243;n</text><line style="stroke:#181818;stroke-width:0.5;" x1="73.4" x2="152.3316" y1="326.2969" y2="326.2969"/><line style="stroke:#181818;stroke-width:0.5;" x1="73.4" x2="152.3316" y1="334.2969" y2="334.2969"/></g><!--class Experiencia--><g class="entity" data-qualified-name="Experiencia" data-source-line="16" id="ent0005"><rect fill="#F1F1F1" height="48" rx="2.5" ry="2.5" style="stroke:#181818;stroke-width:0.5;" width="113.9287" x="126.9" y="419.2969"/><ellipse cx="141.9" cy="435.2969" fill="#ADD1B2" rx="11" ry="11" style="stroke:#181818;stroke-width:1;"/><path d="M144.8688,440.9375 Q144.2906,441.2344 143.65,441.375 Q143.0094,441.5313 142.3063,441.5313 Q139.8063,441.5313 138.4781,439.8906 Q137.1656,438.2344 137.1656,435.1094 Q137.1656,431.9844 138.4781,430.3281 Q139.8063,428.6719 142.3063,428.6719 Q143.0094,428.6719 143.65,428.8281 Q144.3063,428.9844 144.8688,429.2813 L144.8688,432 Q144.2438,431.4219 143.65,431.1563 Q143.0563,430.875 142.4313,430.875 Q141.0875,430.875 140.4,431.9531 Q139.7125,433.0156 139.7125,435.1094 Q139.7125,437.2031 140.4,438.2813 Q141.0875,439.3438 142.4313,439.3438 Q143.0563,439.3438 143.65,439.0781 Q144.2438,438.7969 144.8688,438.2188 L144.8688,440.9375 Z " fill="#000000"/><text fill="#000000" font-family="sans-serif" font-size="14" lengthAdjust="spacing" textLength="81.9287" x="155.9" y="440.1436">Experiencia</text><line style="stroke:#181818;stroke-width:0.5;" x1="127.9" x2="239.8287" y1="451.2969" y2="451.2969"/><line style="stroke:#181818;stroke-width:0.5;" x1="127.9" x2="239.8287" y1="459.2969" y2="459.2969"/></g><!--class Resultado--><g class="entity" data-qualified-name="Resultado" data-source-line="20" id="ent0006"><rect fill="#F1F1F1" height="48" rx="2.5" ry="2.5" style="stroke:#181818;stroke-width:0.5;" width="101.918" x="187.91" y="294.2969"/><ellipse cx="202.91" cy="310.2969" fill="#ADD1B2" rx="11" ry="11" style="stroke:#181818;stroke-width:1;"/><path d="M205.8788,315.9375 Q205.3006,316.2344 204.66,316.375 Q204.0194,316.5313 203.3163,316.5313 Q200.8163,316.5313 199.4881,314.8906 Q198.1756,313.2344 198.1756,310.1094 Q198.1756,306.9844 199.4881,305.3281 Q200.8163,303.6719 203.3163,303.6719 Q204.0194,303.6719 204.66,303.8281 Q205.3163,303.9844 205.8788,304.2813 L205.8788,307 Q205.2538,306.4219 204.66,306.1563 Q204.0663,305.875 203.4413,305.875 Q202.0975,305.875 201.41,306.9531 Q200.7225,308.0156 200.7225,310.1094 Q200.7225,312.2031 201.41,313.2813 Q202.0975,314.3438 203.4413,314.3438 Q204.0663,314.3438 204.66,314.0781 Q205.2538,313.7969 205.8788,313.2188 L205.8788,315.9375 Z " fill="#000000"/><text fill="#000000" font-family="sans-serif" font-size="14" lengthAdjust="spacing" textLength="69.918" x="216.91" y="315.1436">Resultado</text><line style="stroke:#181818;stroke-width:0.5;" x1="188.91" x2="288.828" y1="326.2969" y2="326.2969"/><line style="stroke:#181818;stroke-width:0.5;" x1="188.91" x2="288.828" y1="334.2969" y2="334.2969"/></g><!--class Contexto--><g class="entity" data-qualified-name="Contexto" data-source-line="25" id="ent0007"><rect fill="#F1F1F1" height="48" rx="2.5" ry="2.5" style="stroke:#181818;stroke-width:0.5;" width="95.6563" x="331.04" y="294.2969"/><ellipse cx="346.04" cy="310.2969" fill="#ADD1B2" rx="11" ry="11" style="stroke:#181818;stroke-width:1;"/><path d="M349.0088,315.9375 Q348.4306,316.2344 347.79,316.375 Q347.1494,316.5313 346.4463,316.5313 Q343.9463,316.5313 342.6181,314.8906 Q341.3056,313.2344 341.3056,310.1094 Q341.3056,306.9844 342.6181,305.3281 Q343.9463,303.6719 346.4463,303.6719 Q347.1494,303.6719 347.79,303.8281 Q348.4463,303.9844 349.0088,304.2813 L349.0088,307 Q348.3838,306.4219 347.79,306.1563 Q347.1963,305.875 346.5713,305.875 Q345.2275,305.875 344.54,306.9531 Q343.8525,308.0156 343.8525,310.1094 Q343.8525,312.2031 344.54,313.2813 Q345.2275,314.3438 346.5713,314.3438 Q347.1963,314.3438 347.79,314.0781 Q348.3838,313.7969 349.0088,313.2188 L349.0088,315.9375 Z " fill="#000000"/><text fill="#000000" font-family="sans-serif" font-size="14" lengthAdjust="spacing" textLength="63.6563" x="360.04" y="315.1436">Contexto</text><line style="stroke:#181818;stroke-width:0.5;" x1="332.04" x2="425.6963" y1="326.2969" y2="326.2969"/><line style="stroke:#181818;stroke-width:0.5;" x1="332.04" x2="425.6963" y1="334.2969" y2="334.2969"/></g><!--class Evento--><g class="entity" data-qualified-name="Evento" data-source-line="29" id="ent0008"><rect fill="#F1F1F1" height="48" rx="2.5" ry="2.5" style="stroke:#181818;stroke-width:0.5;" width="80.6719" x="244.53" y="44.2969"/><ellipse cx="259.53" cy="60.2969" fill="#ADD1B2" rx="11" ry="11" style="stroke:#181818;stroke-width:1;"/><path d="M262.4988,65.9375 Q261.9206,66.2344 261.28,66.375 Q260.6394,66.5313 259.9363,66.5313 Q257.4363,66.5313 256.1081,64.8906 Q254.7956,63.2344 254.7956,60.1094 Q254.7956,56.9844 256.1081,55.3281 Q257.4363,53.6719 259.9363,53.6719 Q260.6394,53.6719 261.28,53.8281 Q261.9363,53.9844 262.4988,54.2813 L262.4988,57 Q261.8738,56.4219 261.28,56.1563 Q260.6863,55.875 260.0613,55.875 Q258.7175,55.875 258.03,56.9531 Q257.3425,58.0156 257.3425,60.1094 Q257.3425,62.2031 258.03,63.2813 Q258.7175,64.3438 260.0613,64.3438 Q260.6863,64.3438 261.28,64.0781 Q261.8738,63.7969 262.4988,63.2188 L262.4988,65.9375 Z " fill="#000000"/><text fill="#000000" font-family="sans-serif" font-size="14" lengthAdjust="spacing" textLength="48.6719" x="273.53" y="65.1436">Evento</text><line style="stroke:#181818;stroke-width:0.5;" x1="245.53" x2="324.2019" y1="76.2969" y2="76.2969"/><line style="stroke:#181818;stroke-width:0.5;" x1="245.53" x2="324.2019" y1="84.2969" y2="84.2969"/></g><!--reverse link Decisi?n to Opci?n--><g class="link" data-entity-1="ent0002" data-entity-2="ent0004" data-link-type="composition" data-source-line="35" id="lnk9"><path codeLine="35" d="M153.1155,226.32 C144.7555,235 144.29,236.6869 137.87,247.2969 C129.11,261.7569 122.77,279.7469 118.66,293.8669" fill="none" id="Decisi&#243;n-backto-Opci&#243;n" style="stroke:#181818;stroke-width:1;"/><polygon fill="#181818" points="161.44,217.6769,154.3967,219.2236,153.1155,226.32,160.1588,224.7732,161.44,217.6769" style="stroke:#181818;stroke-width:1;"/><text fill="#000000" font-family="sans-serif" font-size="13" lengthAdjust="spacing" textLength="32.9443" x="138.87" y="260.3638">tiene</text></g><!--reverse link Decisi?n to Criterio--><g class="link" data-entity-1="ent0002" data-entity-2="ent0003" data-link-type="aggregation" data-source-line="36" id="lnk10"><path codeLine="36" d="M130.2302,221.3587 C99.8902,238.0787 73.04,258.7069 54.87,294.2969 C12.28,377.6769 31.83,494.8869 42.99,544.1069" fill="none" id="Decisi&#243;n-backto-Criterio" style="stroke:#181818;stroke-width:1;"/><polygon fill="none" points="140.74,215.5669,133.5545,214.9595,130.2302,221.3587,137.4157,221.966,140.74,215.5669" style="stroke:#181818;stroke-width:1;"/><text fill="#000000" font-family="sans-serif" font-size="13" lengthAdjust="spacing" textLength="22.9785" x="32.87" y="385.3638">usa</text></g><!--reverse link Decisi?n to Resultado--><g class="link" data-entity-1="ent0002" data-entity-2="ent0006" data-link-type="composition" data-source-line="37" id="lnk11"><path codeLine="37" d="M178.9422,229.406 C176.5422,243.476 177.63,249.6369 183.87,264.2969 C188.69,275.6469 197.27,285.7469 206.24,294.0069" fill="none" id="Decisi&#243;n-backto-Resultado" style="stroke:#181818;stroke-width:1;"/><polygon fill="#181818" points="180.96,217.5769,176.0081,222.8189,178.9422,229.406,183.8942,224.164,180.96,217.5769" style="stroke:#181818;stroke-width:1;"/><text fill="#000000" font-family="sans-serif" font-size="13" lengthAdjust="spacing" textLength="53.187" x="184.87" y="260.3638">produce</text></g><!--link Resultado to Experiencia--><g class="link" data-entity-1="ent0006" data-entity-2="ent0005" data-link-type="dependency" data-source-line="38" id="lnk12"><path codeLine="38" d="M228.39,342.7169 C218.61,364.6069 206.5303,391.62 196.7503,413.48" fill="none" id="Resultado-to-Experiencia" style="stroke:#181818;stroke-width:1;"/><polygon fill="#181818" points="194.3,418.9569,201.6267,412.3751,196.3419,414.3928,194.3242,409.108,194.3,418.9569" style="stroke:#181818;stroke-width:1;"/><text fill="#000000" font-family="sans-serif" font-size="13" lengthAdjust="spacing" textLength="45.7983" x="215.87" y="385.3638">genera</text></g><!--link Decisi?n to Contexto--><g class="link" data-entity-1="ent0002" data-entity-2="ent0007" data-link-type="dependency" data-source-line="39" id="lnk13"><path codeLine="39" d="M215,217.6069 C232.78,231.8569 256.55,250.0269 278.87,264.2969 C295.34,274.8269 308.7846,282.4128 325.5846,291.1328" fill="none" id="Decisi&#243;n-to-Contexto" style="stroke:#181818;stroke-width:1;"/><polygon fill="#181818" points="330.91,293.8969,324.7647,286.2004,326.4722,291.5934,321.0792,293.3009,330.91,293.8969" style="stroke:#181818;stroke-width:1;"/><text fill="#000000" font-family="sans-serif" font-size="13" lengthAdjust="spacing" textLength="77.3716" x="279.87" y="260.3638">depende de</text></g><!--link Experiencia to Criterio--><g class="link" data-entity-1="ent0005" data-entity-2="ent0003" data-link-type="dependency" data-source-line="40" id="lnk14"><path codeLine="40" d="M158.16,467.7169 C134.14,489.6069 102.905,518.0557 78.915,539.9157" fill="none" id="Experiencia-to-Criterio" style="stroke:#181818;stroke-width:1;"/><polygon fill="#181818" points="74.48,543.9569,83.8266,540.8517,78.1758,540.5892,78.4383,534.9385,74.48,543.9569" style="stroke:#181818;stroke-width:1;"/><text fill="#000000" font-family="sans-serif" font-size="13" lengthAdjust="spacing" textLength="39.6538" x="125.87" y="510.3638">ajusta</text></g><!--link Evento to Decisi?n--><g class="link" data-entity-1="ent0008" data-entity-2="ent0002" data-link-type="dependency" data-source-line="41" id="lnk15"><path codeLine="41" d="M266.2,92.7169 C248.77,114.6069 226.6193,142.4046 209.1993,164.2646" fill="none" id="Evento-to-Decisi&#243;n" style="stroke:#181818;stroke-width:1;stroke-dasharray:7,7;"/><polygon fill="#181818" points="205.46,168.9569,214.1971,164.4112,208.5761,165.0466,207.9407,159.4255,205.46,168.9569" style="stroke:#181818;stroke-width:1;"/><text fill="#000000" font-family="sans-serif" font-size="13" lengthAdjust="spacing" textLength="86.8296" x="242.87" y="135.3638">desencadena</text></g><!--link Evento to Contexto--><g class="link" data-entity-1="ent0008" data-entity-2="ent0007" data-link-type="dependency" data-source-line="42" id="lnk16"><path codeLine="42" d="M314.13,92.6569 C322.98,101.1169 331.92,111.3069 337.87,122.2969 C368.43,178.7269 375.9206,249.7749 377.8906,287.9249" fill="none" id="Evento-to-Contexto" style="stroke:#181818;stroke-width:1;"/><polygon fill="#181818" points="378.2,293.9169,381.7306,284.7226,377.9422,288.9235,373.7412,285.1351,378.2,293.9169" style="stroke:#181818;stroke-width:1;"/><text fill="#000000" font-family="sans-serif" font-size="13" lengthAdjust="spacing" textLength="62.3975" x="369.87" y="197.8638">ocurre en</text></g><?plantuml-src NP0z2iCm38LtdK9qB2G7yD0boLpe3OGjYajg1_-KGEcfUeHUh7Q9dQIRU7fw-gIWmyXuw3LT7Tq95QCSoRFFLJHPaDhhpziS022tFFP5mYV0gwYTqu6TjZlnFCbgn28EyvICRAIcdVd2Few1r19H_PqrWUUmJnuURAe4i38TcwQi5HZI6juqRMeMK87HqzzWHH0uEQkYP5YfckQqPHTuJU5k6v4TXLQarqriqXiLm_Radwaoq2twGB2SqxQdzRqvmQSPKcogOx_2okWS8vil?></g></svg>