<?plantuml 1.2026.2beta3?><svg xmlns="http://www.w3.org/2000/svg" xmlns:xlink="http://www.w3.org/1999/xlink" contentStyleType="text/css" data-diagram-type="CLASS" height="494px" preserveAspectRatio="none" style="width:694px;height:494px;background:#FFFFFF;" version="1.1" viewBox="0 0 694 494" width="694px" zoomAndPan="magnify"><defs/><g><!--class Participante--><g class="entity" data-qualified-name="Participante" data-source-line="1" id="ent0002"><rect fill="#F1F1F1" height="48" rx="2.5" ry="2.5" style="stroke:#181818;stroke-width:0.5;" width="116.1846" x="530.74" y="7"/><ellipse cx="545.74" cy="23" fill="#ADD1B2" rx="11" ry="11" style="stroke:#181818;stroke-width:1;"/><path d="M548.7088,28.6406 Q548.1306,28.9375 547.49,29.0781 Q546.8494,29.2344 546.1463,29.2344 Q543.6463,29.2344 542.3181,27.5938 Q541.0056,25.9375 541.0056,22.8125 Q541.0056,19.6875 542.3181,18.0313 Q543.6463,16.375 546.1463,16.375 Q546.8494,16.375 547.49,16.5313 Q548.1463,16.6875 548.7088,16.9844 L548.7088,19.7031 Q548.0838,19.125 547.49,18.8594 Q546.8963,18.5781 546.2713,18.5781 Q544.9275,18.5781 544.24,19.6563 Q543.5525,20.7188 543.5525,22.8125 Q543.5525,24.9063 544.24,25.9844 Q544.9275,27.0469 546.2713,27.0469 Q546.8963,27.0469 547.49,26.7813 Q548.0838,26.5 548.7088,25.9219 L548.7088,28.6406 Z " fill="#000000"/><text fill="#000000" font-family="sans-serif" font-size="14" lengthAdjust="spacing" textLength="84.1846" x="559.74" y="27.8467">Participante</text><line style="stroke:#181818;stroke-width:0.5;" x1="531.74" x2="645.9246" y1="39" y2="39"/><line style="stroke:#181818;stroke-width:0.5;" x1="531.74" x2="645.9246" y1="47" y2="47"/></g><!--class Conversacion--><g class="entity" data-qualified-name="Conversacion" data-source-line="2" id="ent0003"><rect fill="#F1F1F1" height="48" rx="2.5" ry="2.5" style="stroke:#181818;stroke-width:0.5;" width="126.7666" x="280.44" y="115"/><ellipse cx="295.44" cy="131" fill="#ADD1B2" rx="11" ry="11" style="stroke:#181818;stroke-width:1;"/><path d="M298.4088,136.6406 Q297.8306,136.9375 297.19,137.0781 Q296.5494,137.2344 295.8463,137.2344 Q293.3463,137.2344 292.0181,135.5938 Q290.7056,133.9375 290.7056,130.8125 Q290.7056,127.6875 292.0181,126.0313 Q293.3463,124.375 295.8463,124.375 Q296.5494,124.375 297.19,124.5313 Q297.8463,124.6875 298.4088,124.9844 L298.4088,127.7031 Q297.7838,127.125 297.19,126.8594 Q296.5963,126.5781 295.9713,126.5781 Q294.6275,126.5781 293.94,127.6563 Q293.2525,128.7188 293.2525,130.8125 Q293.2525,132.9063 293.94,133.9844 Q294.6275,135.0469 295.9713,135.0469 Q296.5963,135.0469 297.19,134.7813 Q297.7838,134.5 298.4088,133.9219 L298.4088,136.6406 Z " fill="#000000"/><text fill="#000000" font-family="sans-serif" font-size="14" lengthAdjust="spacing" textLength="94.7666" x="309.44" y="135.8467">Conversacion</text><line style="stroke:#181818;stroke-width:0.5;" x1="281.44" x2="406.2066" y1="147" y2="147"/><line style="stroke:#181818;stroke-width:0.5;" x1="281.44" x2="406.2066" y1="155" y2="155"/></g><!--class Interaccion--><g class="entity" data-qualified-name="Interaccion" data-source-line="3" id="ent0004"><rect fill="#F1F1F1" height="48" rx="2.5" ry="2.5" style="stroke:#181818;stroke-width:0.5;" width="110.1621" x="577.75" y="331"/><ellipse cx="592.75" cy="347" fill="#ADD1B2" rx="11" ry="11" style="stroke:#181818;stroke-width:1;"/><path d="M595.7188,352.6406 Q595.1406,352.9375 594.5,353.0781 Q593.8594,353.2344 593.1563,353.2344 Q590.6563,353.2344 589.3281,351.5938 Q588.0156,349.9375 588.0156,346.8125 Q588.0156,343.6875 589.3281,342.0313 Q590.6563,340.375 593.1563,340.375 Q593.8594,340.375 594.5,340.5313 Q595.1563,340.6875 595.7188,340.9844 L595.7188,343.7031 Q595.0938,343.125 594.5,342.8594 Q593.9063,342.5781 593.2813,342.5781 Q591.9375,342.5781 591.25,343.6563 Q590.5625,344.7188 590.5625,346.8125 Q590.5625,348.9063 591.25,349.9844 Q591.9375,351.0469 593.2813,351.0469 Q593.9063,351.0469 594.5,350.7813 Q595.0938,350.5 595.7188,349.9219 L595.7188,352.6406 Z " fill="#000000"/><text fill="#000000" font-family="sans-serif" font-size="14" lengthAdjust="spacing" textLength="78.1621" x="606.75" y="351.8467">Interaccion</text><line style="stroke:#181818;stroke-width:0.5;" x1="578.75" x2="686.9121" y1="363" y2="363"/><line style="stroke:#181818;stroke-width:0.5;" x1="578.75" x2="686.9121" y1="371" y2="371"/></g><!--class Contexto--><g class="entity" data-qualified-name="Contexto" data-source-line="4" id="ent0005"><rect fill="#F1F1F1" height="48" rx="2.5" ry="2.5" style="stroke:#181818;stroke-width:0.5;" width="95.6563" x="7" y="223"/><ellipse cx="22" cy="239" fill="#ADD1B2" rx="11" ry="11" style="stroke:#181818;stroke-width:1;"/><path d="M24.9688,244.6406 Q24.3906,244.9375 23.75,245.0781 Q23.1094,245.2344 22.4063,245.2344 Q19.9063,245.2344 18.5781,243.5938 Q17.2656,241.9375 17.2656,238.8125 Q17.2656,235.6875 18.5781,234.0313 Q19.9063,232.375 22.4063,232.375 Q23.1094,232.375 23.75,232.5313 Q24.4063,232.6875 24.9688,232.9844 L24.9688,235.7031 Q24.3438,235.125 23.75,234.8594 Q23.1563,234.5781 22.5313,234.5781 Q21.1875,234.5781 20.5,235.6563 Q19.8125,236.7188 19.8125,238.8125 Q19.8125,240.9063 20.5,241.9844 Q21.1875,243.0469 22.5313,243.0469 Q23.1563,243.0469 23.75,242.7813 Q24.3438,242.5 24.9688,241.9219 L24.9688,244.6406 Z " fill="#000000"/><text fill="#000000" font-family="sans-serif" font-size="14" lengthAdjust="spacing" textLength="63.6563" x="36" y="243.8467">Contexto</text><line style="stroke:#181818;stroke-width:0.5;" x1="8" x2="101.6563" y1="255" y2="255"/><line style="stroke:#181818;stroke-width:0.5;" x1="8" x2="101.6563" y1="263" y2="263"/></g><!--class Tema--><g class="entity" data-qualified-name="Tema" data-source-line="5" id="ent0006"><rect fill="#F1F1F1" height="48" rx="2.5" ry="2.5" style="stroke:#181818;stroke-width:0.5;" width="71.3818" x="138.14" y="223"/><ellipse cx="153.14" cy="239" fill="#ADD1B2" rx="11" ry="11" style="stroke:#181818;stroke-width:1;"/><path d="M156.1088,244.6406 Q155.5306,244.9375 154.89,245.0781 Q154.2494,245.2344 153.5463,245.2344 Q151.0463,245.2344 149.7181,243.5938 Q148.4056,241.9375 148.4056,238.8125 Q148.4056,235.6875 149.7181,234.0313 Q151.0463,232.375 153.5463,232.375 Q154.2494,232.375 154.89,232.5313 Q155.5463,232.6875 156.1088,232.9844 L156.1088,235.7031 Q155.4838,235.125 154.89,234.8594 Q154.2963,234.5781 153.6713,234.5781 Q152.3275,234.5781 151.64,235.6563 Q150.9525,236.7188 150.9525,238.8125 Q150.9525,240.9063 151.64,241.9844 Q152.3275,243.0469 153.6713,243.0469 Q154.2963,243.0469 154.89,242.7813 Q155.4838,242.5 156.1088,241.9219 L156.1088,244.6406 Z " fill="#000000"/><text fill="#000000" font-family="sans-serif" font-size="14" lengthAdjust="spacing" textLength="39.3818" x="167.14" y="243.8467">Tema</text><line style="stroke:#181818;stroke-width:0.5;" x1="139.14" x2="208.5218" y1="255" y2="255"/><line style="stroke:#181818;stroke-width:0.5;" x1="139.14" x2="208.5218" y1="263" y2="263"/></g><!--class Silencio--><g class="entity" data-qualified-name="Silencio" data-source-line="6" id="ent0007"><rect fill="#F1F1F1" height="48" rx="2.5" ry="2.5" style="stroke:#181818;stroke-width:0.5;" width="86.3047" x="589.68" y="439"/><ellipse cx="604.68" cy="455" fill="#ADD1B2" rx="11" ry="11" style="stroke:#181818;stroke-width:1;"/><path d="M607.6488,460.6406 Q607.0706,460.9375 606.43,461.0781 Q605.7894,461.2344 605.0863,461.2344 Q602.5863,461.2344 601.2581,459.5938 Q599.9456,457.9375 599.9456,454.8125 Q599.9456,451.6875 601.2581,450.0313 Q602.5863,448.375 605.0863,448.375 Q605.7894,448.375 606.43,448.5313 Q607.0863,448.6875 607.6488,448.9844 L607.6488,451.7031 Q607.0238,451.125 606.43,450.8594 Q605.8363,450.5781 605.2113,450.5781 Q603.8675,450.5781 603.18,451.6563 Q602.4925,452.7188 602.4925,454.8125 Q602.4925,456.9063 603.18,457.9844 Q603.8675,459.0469 605.2113,459.0469 Q605.8363,459.0469 606.43,458.7813 Q607.0238,458.5 607.6488,457.9219 L607.6488,460.6406 Z " fill="#000000"/><text fill="#000000" font-family="sans-serif" font-size="14" lengthAdjust="spacing" textLength="54.3047" x="618.68" y="459.8467">Silencio</text><line style="stroke:#181818;stroke-width:0.5;" x1="590.68" x2="674.9847" y1="471" y2="471"/><line style="stroke:#181818;stroke-width:0.5;" x1="590.68" x2="674.9847" y1="479" y2="479"/></g><!--class Turno--><g class="entity" data-qualified-name="Turno" data-source-line="7" id="ent0008"><rect fill="#F1F1F1" height="48" rx="2.5" ry="2.5" style="stroke:#181818;stroke-width:0.5;" width="72.6191" x="490.52" y="223"/><ellipse cx="505.52" cy="239" fill="#ADD1B2" rx="11" ry="11" style="stroke:#181818;stroke-width:1;"/><path d="M508.4888,244.6406 Q507.9106,244.9375 507.27,245.0781 Q506.6294,245.2344 505.9263,245.2344 Q503.4263,245.2344 502.0981,243.5938 Q500.7856,241.9375 500.7856,238.8125 Q500.7856,235.6875 502.0981,234.0313 Q503.4263,232.375 505.9263,232.375 Q506.6294,232.375 507.27,232.5313 Q507.9263,232.6875 508.4888,232.9844 L508.4888,235.7031 Q507.8638,235.125 507.27,234.8594 Q506.6763,234.5781 506.0513,234.5781 Q504.7075,234.5781 504.02,235.6563 Q503.3325,236.7188 503.3325,238.8125 Q503.3325,240.9063 504.02,241.9844 Q504.7075,243.0469 506.0513,243.0469 Q506.6763,243.0469 507.27,242.7813 Q507.8638,242.5 508.4888,241.9219 L508.4888,244.6406 Z " fill="#000000"/><text fill="#000000" font-family="sans-serif" font-size="14" lengthAdjust="spacing" textLength="40.6191" x="519.52" y="243.8467">Turno</text><line style="stroke:#181818;stroke-width:0.5;" x1="491.52" x2="562.1391" y1="255" y2="255"/><line style="stroke:#181818;stroke-width:0.5;" x1="491.52" x2="562.1391" y1="263" y2="263"/></g><!--class Medio--><g class="entity" data-qualified-name="Medio" data-source-line="8" id="ent0009"><rect fill="#F1F1F1" height="48" rx="2.5" ry="2.5" style="stroke:#181818;stroke-width:0.5;" width="74.0342" x="244.81" y="223"/><ellipse cx="259.81" cy="239" fill="#ADD1B2" rx="11" ry="11" style="stroke:#181818;stroke-width:1;"/><path d="M262.7788,244.6406 Q262.2006,244.9375 261.56,245.0781 Q260.9194,245.2344 260.2163,245.2344 Q257.7163,245.2344 256.3881,243.5938 Q255.0756,241.9375 255.0756,238.8125 Q255.0756,235.6875 256.3881,234.0313 Q257.7163,232.375 260.2163,232.375 Q260.9194,232.375 261.56,232.5313 Q262.2163,232.6875 262.7788,232.9844 L262.7788,235.7031 Q262.1538,235.125 261.56,234.8594 Q260.9663,234.5781 260.3413,234.5781 Q258.9975,234.5781 258.31,235.6563 Q257.6225,236.7188 257.6225,238.8125 Q257.6225,240.9063 258.31,241.9844 Q258.9975,243.0469 260.3413,243.0469 Q260.9663,243.0469 261.56,242.7813 Q262.1538,242.5 262.7788,241.9219 L262.7788,244.6406 Z " fill="#000000"/><text fill="#000000" font-family="sans-serif" font-size="14" lengthAdjust="spacing" textLength="42.0342" x="273.81" y="243.8467">Medio</text><line style="stroke:#181818;stroke-width:0.5;" x1="245.81" x2="317.8442" y1="255" y2="255"/><line style="stroke:#181818;stroke-width:0.5;" x1="245.81" x2="317.8442" y1="263" y2="263"/></g><!--class Resultado--><g class="entity" data-qualified-name="Resultado" data-source-line="9" id="ent0010"><rect fill="#F1F1F1" height="48" rx="2.5" ry="2.5" style="stroke:#181818;stroke-width:0.5;" width="101.918" x="353.87" y="223"/><ellipse cx="368.87" cy="239" fill="#ADD1B2" rx="11" ry="11" style="stroke:#181818;stroke-width:1;"/><path d="M371.8388,244.6406 Q371.2606,244.9375 370.62,245.0781 Q369.9794,245.2344 369.2763,245.2344 Q366.7763,245.2344 365.4481,243.5938 Q364.1356,241.9375 364.1356,238.8125 Q364.1356,235.6875 365.4481,234.0313 Q366.7763,232.375 369.2763,232.375 Q369.9794,232.375 370.62,232.5313 Q371.2763,232.6875 371.8388,232.9844 L371.8388,235.7031 Q371.2138,235.125 370.62,234.8594 Q370.0263,234.5781 369.4013,234.5781 Q368.0575,234.5781 367.37,235.6563 Q366.6825,236.7188 366.6825,238.8125 Q366.6825,240.9063 367.37,241.9844 Q368.0575,243.0469 369.4013,243.0469 Q370.0263,243.0469 370.62,242.7813 Q371.2138,242.5 371.8388,241.9219 L371.8388,244.6406 Z " fill="#000000"/><text fill="#000000" font-family="sans-serif" font-size="14" lengthAdjust="spacing" textLength="69.918" x="382.87" y="243.8467">Resultado</text><line style="stroke:#181818;stroke-width:0.5;" x1="354.87" x2="454.788" y1="255" y2="255"/><line style="stroke:#181818;stroke-width:0.5;" x1="354.87" x2="454.788" y1="263" y2="263"/></g><!--reverse link Interaccion to Silencio--><g class="link" data-entity-1="ent0004" data-entity-2="ent0007" data-link-type="extension" data-source-line="11" id="lnk11"><path codeLine="11" d="M632.83,397.26 C632.83,414.94 632.83,421.13 632.83,438.79" fill="none" id="Interaccion-backto-Silencio" style="stroke:#181818;stroke-width:1;"/><polygon fill="none" points="632.83,379.26,626.83,397.26,638.83,397.26,632.83,379.26" style="stroke:#181818;stroke-width:1;"/></g><!--link Participante to Conversacion--><g class="link" data-entity-1="ent0002" data-entity-2="ent0003" data-link-type="association" data-source-line="12" id="lnk12"><path codeLine="12" d="M534.76,55.39 C494.03,73.01 438.45,97.06 397.76,114.67" fill="none" id="Participante-Conversacion" style="stroke:#181818;stroke-width:1;"/></g><!--link Conversacion to Contexto--><g class="link" data-entity-1="ent0003" data-entity-2="ent0005" data-link-type="association" data-source-line="13" id="lnk13"><path codeLine="13" d="M280.05,163.39 C226.52,183.03 151.24,210.64 102.74,228.43" fill="none" id="Conversacion-Contexto" style="stroke:#181818;stroke-width:1;"/></g><!--reverse link Conversacion to Tema--><g class="link" data-entity-1="ent0003" data-entity-2="ent0006" data-link-type="aggregation" data-source-line="14" id="lnk14"><path codeLine="14" d="M296.3383,169.6107 C267.6083,187.5307 238.3,205.8 209.88,223.52" fill="none" id="Conversacion-backto-Tema" style="stroke:#181818;stroke-width:1;"/><polygon fill="none" points="306.52,163.26,299.3122,163.0415,296.3383,169.6107,303.546,169.8293,306.52,163.26" style="stroke:#181818;stroke-width:1;"/></g><!--reverse link Conversacion to Turno--><g class="link" data-entity-1="ent0003" data-entity-2="ent0008" data-link-type="composition" data-source-line="15" id="lnk15"><path codeLine="15" d="M394.373,169.2761 C426.043,187.6261 459.46,206.98 490.18,224.77" fill="none" id="Conversacion-backto-Turno" style="stroke:#181818;stroke-width:1;"/><polygon fill="#181818" points="383.99,163.26,387.1762,169.729,394.373,169.2761,391.1869,162.807,383.99,163.26" style="stroke:#181818;stroke-width:1;"/></g><!--link Participante to Turno--><g class="link" data-entity-1="ent0002" data-entity-2="ent0008" data-link-type="dependency" data-source-line="16" id="lnk16"><path codeLine="16" d="M582.08,55.31 C570.15,96.47 547.1598,175.817 535.2398,216.957" fill="none" id="Participante-to-Turno" style="stroke:#181818;stroke-width:1;"/><polygon fill="#181818" points="533.57,222.72,539.9166,215.1887,534.9615,217.9175,532.2327,212.9624,533.57,222.72" style="stroke:#181818;stroke-width:1;"/></g><!--reverse link Turno to Interaccion--><g class="link" data-entity-1="ent0008" data-entity-2="ent0004" data-link-type="aggregation" data-source-line="17" id="lnk17"><path codeLine="17" d="M558.5729,279.7477 C576.2429,297.4277 591.96,313.13 609.62,330.79" fill="none" id="Turno-backto-Interaccion" style="stroke:#181818;stroke-width:1;"/><polygon fill="none" points="550.09,271.26,551.5022,278.3315,558.5729,279.7477,557.1607,272.6762,550.09,271.26" style="stroke:#181818;stroke-width:1;"/></g><!--link Participante to Interaccion--><g class="link" data-entity-1="ent0002" data-entity-2="ent0004" data-link-type="dependency" data-source-line="18" id="lnk18"><path codeLine="18" d="M585,55.42 C585.49,114.9 605.3317,265.4905 621.0817,324.8705" fill="none" id="Participante-to-Interaccion" style="stroke:#181818;stroke-width:1;"/><polygon fill="#181818" points="622.62,330.67,624.1789,320.9453,621.3381,325.8371,616.4463,322.9963,622.62,330.67" style="stroke:#181818;stroke-width:1;"/></g><!--link Interaccion to Participante--><g class="link" data-entity-1="ent0004" data-entity-2="ent0002" data-link-type="dependency" data-source-line="19" id="lnk19"><path codeLine="19" d="M637.07,330.67 C637.05,271.29 617.2576,120.6889 601.0476,61.2089" fill="none" id="Interaccion-to-Participante" style="stroke:#181818;stroke-width:1;"/><polygon fill="#181818" points="599.47,55.42,597.9772,65.1551,600.7847,60.2441,605.6957,63.0516,599.47,55.42" style="stroke:#181818;stroke-width:1;"/></g><!--link Conversacion to Medio--><g class="link" data-entity-1="ent0003" data-entity-2="ent0009" data-link-type="association" data-source-line="20" id="lnk20"><path codeLine="20" d="M330.22,163.26 C319.88,180.94 305.73,205.13 295.4,222.79" fill="none" id="Conversacion-Medio" style="stroke:#181818;stroke-width:1;"/></g><!--link Conversacion to Resultado--><g class="link" data-entity-1="ent0003" data-entity-2="ent0010" data-link-type="dependency" data-source-line="21" id="lnk21"><path codeLine="21" d="M357.21,163.26 C367.39,180.94 378.318,199.9293 388.478,217.5893" fill="none" id="Conversacion-to-Resultado" style="stroke:#181818;stroke-width:1;"/><polygon fill="#181818" points="391.47,222.79,390.4491,212.9942,388.9766,218.4561,383.5148,216.9836,391.47,222.79" style="stroke:#181818;stroke-width:1;"/></g><?plantuml-src PP0n3iCW34LtJi5SAJUeidJAKAbgUm6BU40YTWMawj33bn3I6B8WUC-OZus34FGDVBJ6le0YAfFHXUcDFe2nJ0KDoNemWgIYY9_8vVZ42ShsOHrIgjpCx6dRNt7yypk6sKKOMIdHNP-_NRUtaEbq4bKqUIXoZLG9JYQdg-XfeJbPyqHVS5xpPVdtGx6KyXkBgqRRXbr7qT1-dyeF?></g></svg>