<svg xmlns="http://www.w3.org/2000/svg" xmlns:xlink="http://www.w3.org/1999/xlink" contentStyleType="text/css" data-diagram-type="CLASS" height="139px" preserveAspectRatio="none" style="width:1624px;height:139px;background:#FFFFFF;" version="1.1" viewBox="0 0 1624 139" width="1624px" zoomAndPan="magnify"><defs/><g><!--class Persona--><g class="entity" data-entity="Persona" data-source-line="3" data-uid="ent0002" id="entity_Persona"><rect fill="#F1F1F1" height="32" rx="2.5" ry="2.5" style="stroke:#181818;stroke-width:0.5;" width="88.123" x="736" y="7"/><ellipse cx="751" cy="23" fill="#ADD1B2" rx="11" ry="11" style="stroke:#181818;stroke-width:1;"/><path d="M753.9688,28.6406 Q753.3906,28.9375 752.75,29.0781 Q752.1094,29.2344 751.4063,29.2344 Q748.9063,29.2344 747.5781,27.5938 Q746.2656,25.9375 746.2656,22.8125 Q746.2656,19.6875 747.5781,18.0313 Q748.9063,16.375 751.4063,16.375 Q752.1094,16.375 752.75,16.5313 Q753.4063,16.6875 753.9688,16.9844 L753.9688,19.7031 Q753.3438,19.125 752.75,18.8594 Q752.1563,18.5781 751.5313,18.5781 Q750.1875,18.5781 749.5,19.6563 Q748.8125,20.7188 748.8125,22.8125 Q748.8125,24.9063 749.5,25.9844 Q750.1875,27.0469 751.5313,27.0469 Q752.1563,27.0469 752.75,26.7813 Q753.3438,26.5 753.9688,25.9219 L753.9688,28.6406 Z " fill="#000000"/><text fill="#000000" font-family="sans-serif" font-size="14" lengthAdjust="spacing" textLength="56.123" x="765" y="27.8467">Persona</text></g><!--class Nombre--><g class="entity" data-entity="Nombre" data-source-line="6" data-uid="ent0003" id="entity_Nombre"><rect fill="#F1F1F1" height="32" rx="2.5" ry="2.5" style="stroke:#181818;stroke-width:0.5;" width="87.9316" x="7" y="100"/><ellipse cx="22" cy="116" fill="#ADD1B2" rx="11" ry="11" style="stroke:#181818;stroke-width:1;"/><path d="M24.9688,121.6406 Q24.3906,121.9375 23.75,122.0781 Q23.1094,122.2344 22.4063,122.2344 Q19.9063,122.2344 18.5781,120.5938 Q17.2656,118.9375 17.2656,115.8125 Q17.2656,112.6875 18.5781,111.0313 Q19.9063,109.375 22.4063,109.375 Q23.1094,109.375 23.75,109.5313 Q24.4063,109.6875 24.9688,109.9844 L24.9688,112.7031 Q24.3438,112.125 23.75,111.8594 Q23.1563,111.5781 22.5313,111.5781 Q21.1875,111.5781 20.5,112.6563 Q19.8125,113.7188 19.8125,115.8125 Q19.8125,117.9063 20.5,118.9844 Q21.1875,120.0469 22.5313,120.0469 Q23.1563,120.0469 23.75,119.7813 Q24.3438,119.5 24.9688,118.9219 L24.9688,121.6406 Z " fill="#000000"/><text fill="#000000" font-family="sans-serif" font-size="14" lengthAdjust="spacing" textLength="55.9316" x="36" y="120.8467">Nombre</text></g><!--class Apellido--><g class="entity" data-entity="Apellido" data-source-line="9" data-uid="ent0004" id="entity_Apellido"><rect fill="#F1F1F1" height="32" rx="2.5" ry="2.5" style="stroke:#181818;stroke-width:0.5;" width="88.1982" x="130" y="100"/><ellipse cx="145" cy="116" fill="#ADD1B2" rx="11" ry="11" style="stroke:#181818;stroke-width:1;"/><path d="M147.9688,121.6406 Q147.3906,121.9375 146.75,122.0781 Q146.1094,122.2344 145.4063,122.2344 Q142.9063,122.2344 141.5781,120.5938 Q140.2656,118.9375 140.2656,115.8125 Q140.2656,112.6875 141.5781,111.0313 Q142.9063,109.375 145.4063,109.375 Q146.1094,109.375 146.75,109.5313 Q147.4063,109.6875 147.9688,109.9844 L147.9688,112.7031 Q147.3438,112.125 146.75,111.8594 Q146.1563,111.5781 145.5313,111.5781 Q144.1875,111.5781 143.5,112.6563 Q142.8125,113.7188 142.8125,115.8125 Q142.8125,117.9063 143.5,118.9844 Q144.1875,120.0469 145.5313,120.0469 Q146.1563,120.0469 146.75,119.7813 Q147.3438,119.5 147.9688,118.9219 L147.9688,121.6406 Z " fill="#000000"/><text fill="#000000" font-family="sans-serif" font-size="14" lengthAdjust="spacing" textLength="56.1982" x="159" y="120.8467">Apellido</text></g><!--class Edad--><g class="entity" data-entity="Edad" data-source-line="12" data-uid="ent0005" id="entity_Edad"><rect fill="#F1F1F1" height="32" rx="2.5" ry="2.5" style="stroke:#181818;stroke-width:0.5;" width="67.1982" x="253.5" y="100"/><ellipse cx="268.5" cy="116" fill="#ADD1B2" rx="11" ry="11" style="stroke:#181818;stroke-width:1;"/><path d="M271.4688,121.6406 Q270.8906,121.9375 270.25,122.0781 Q269.6094,122.2344 268.9063,122.2344 Q266.4063,122.2344 265.0781,120.5938 Q263.7656,118.9375 263.7656,115.8125 Q263.7656,112.6875 265.0781,111.0313 Q266.4063,109.375 268.9063,109.375 Q269.6094,109.375 270.25,109.5313 Q270.9063,109.6875 271.4688,109.9844 L271.4688,112.7031 Q270.8438,112.125 270.25,111.8594 Q269.6563,111.5781 269.0313,111.5781 Q267.6875,111.5781 267,112.6563 Q266.3125,113.7188 266.3125,115.8125 Q266.3125,117.9063 267,118.9844 Q267.6875,120.0469 269.0313,120.0469 Q269.6563,120.0469 270.25,119.7813 Q270.8438,119.5 271.4688,118.9219 L271.4688,121.6406 Z " fill="#000000"/><text fill="#000000" font-family="sans-serif" font-size="14" lengthAdjust="spacing" textLength="35.1982" x="282.5" y="120.8467">Edad</text></g><!--class Genero--><g class="entity" data-entity="Genero" data-source-line="15" data-uid="ent0006" id="entity_Genero"><rect fill="#F1F1F1" height="32" rx="2.5" ry="2.5" style="stroke:#181818;stroke-width:0.5;" width="83.2695" x="355.5" y="100"/><ellipse cx="370.5" cy="116" fill="#ADD1B2" rx="11" ry="11" style="stroke:#181818;stroke-width:1;"/><path d="M373.4688,121.6406 Q372.8906,121.9375 372.25,122.0781 Q371.6094,122.2344 370.9063,122.2344 Q368.4063,122.2344 367.0781,120.5938 Q365.7656,118.9375 365.7656,115.8125 Q365.7656,112.6875 367.0781,111.0313 Q368.4063,109.375 370.9063,109.375 Q371.6094,109.375 372.25,109.5313 Q372.9063,109.6875 373.4688,109.9844 L373.4688,112.7031 Q372.8438,112.125 372.25,111.8594 Q371.6563,111.5781 371.0313,111.5781 Q369.6875,111.5781 369,112.6563 Q368.3125,113.7188 368.3125,115.8125 Q368.3125,117.9063 369,118.9844 Q369.6875,120.0469 371.0313,120.0469 Q371.6563,120.0469 372.25,119.7813 Q372.8438,119.5 373.4688,118.9219 L373.4688,121.6406 Z " fill="#000000"/><text fill="#000000" font-family="sans-serif" font-size="14" lengthAdjust="spacing" textLength="51.2695" x="384.5" y="120.8467">Genero</text></g><!--class DNI--><g class="entity" data-entity="DNI" data-source-line="18" data-uid="ent0007" id="entity_DNI"><rect fill="#F1F1F1" height="32" rx="2.5" ry="2.5" style="stroke:#181818;stroke-width:0.5;" width="57.3818" x="473.5" y="100"/><ellipse cx="488.5" cy="116" fill="#ADD1B2" rx="11" ry="11" style="stroke:#181818;stroke-width:1;"/><path d="M491.4688,121.6406 Q490.8906,121.9375 490.25,122.0781 Q489.6094,122.2344 488.9063,122.2344 Q486.4063,122.2344 485.0781,120.5938 Q483.7656,118.9375 483.7656,115.8125 Q483.7656,112.6875 485.0781,111.0313 Q486.4063,109.375 488.9063,109.375 Q489.6094,109.375 490.25,109.5313 Q490.9063,109.6875 491.4688,109.9844 L491.4688,112.7031 Q490.8438,112.125 490.25,111.8594 Q489.6563,111.5781 489.0313,111.5781 Q487.6875,111.5781 487,112.6563 Q486.3125,113.7188 486.3125,115.8125 Q486.3125,117.9063 487,118.9844 Q487.6875,120.0469 489.0313,120.0469 Q489.6563,120.0469 490.25,119.7813 Q490.8438,119.5 491.4688,118.9219 L491.4688,121.6406 Z " fill="#000000"/><text fill="#000000" font-family="sans-serif" font-size="14" lengthAdjust="spacing" textLength="25.3818" x="502.5" y="120.8467">DNI</text></g><!--class Religion--><g class="entity" data-entity="Religion" data-source-line="21" data-uid="ent0008" id="entity_Religion"><rect fill="#F1F1F1" height="32" rx="2.5" ry="2.5" style="stroke:#181818;stroke-width:0.5;" width="88.335" x="566" y="100"/><ellipse cx="581" cy="116" fill="#ADD1B2" rx="11" ry="11" style="stroke:#181818;stroke-width:1;"/><path d="M583.9688,121.6406 Q583.3906,121.9375 582.75,122.0781 Q582.1094,122.2344 581.4063,122.2344 Q578.9063,122.2344 577.5781,120.5938 Q576.2656,118.9375 576.2656,115.8125 Q576.2656,112.6875 577.5781,111.0313 Q578.9063,109.375 581.4063,109.375 Q582.1094,109.375 582.75,109.5313 Q583.4063,109.6875 583.9688,109.9844 L583.9688,112.7031 Q583.3438,112.125 582.75,111.8594 Q582.1563,111.5781 581.5313,111.5781 Q580.1875,111.5781 579.5,112.6563 Q578.8125,113.7188 578.8125,115.8125 Q578.8125,117.9063 579.5,118.9844 Q580.1875,120.0469 581.5313,120.0469 Q582.1563,120.0469 582.75,119.7813 Q583.3438,119.5 583.9688,118.9219 L583.9688,121.6406 Z " fill="#000000"/><text fill="#000000" font-family="sans-serif" font-size="14" lengthAdjust="spacing" textLength="56.335" x="595" y="120.8467">Religion</text></g><!--class EducacionAcademica--><g class="entity" data-entity="EducacionAcademica" data-source-line="24" data-uid="ent0009" id="entity_EducacionAcademica"><rect fill="#F1F1F1" height="32" rx="2.5" ry="2.5" style="stroke:#181818;stroke-width:0.5;" width="181.0645" x="689.5" y="100"/><ellipse cx="704.5" cy="116" fill="#ADD1B2" rx="11" ry="11" style="stroke:#181818;stroke-width:1;"/><path d="M707.4688,121.6406 Q706.8906,121.9375 706.25,122.0781 Q705.6094,122.2344 704.9063,122.2344 Q702.4063,122.2344 701.0781,120.5938 Q699.7656,118.9375 699.7656,115.8125 Q699.7656,112.6875 701.0781,111.0313 Q702.4063,109.375 704.9063,109.375 Q705.6094,109.375 706.25,109.5313 Q706.9063,109.6875 707.4688,109.9844 L707.4688,112.7031 Q706.8438,112.125 706.25,111.8594 Q705.6563,111.5781 705.0313,111.5781 Q703.6875,111.5781 703,112.6563 Q702.3125,113.7188 702.3125,115.8125 Q702.3125,117.9063 703,118.9844 Q703.6875,120.0469 705.0313,120.0469 Q705.6563,120.0469 706.25,119.7813 Q706.8438,119.5 707.4688,118.9219 L707.4688,121.6406 Z " fill="#000000"/><text fill="#000000" font-family="sans-serif" font-size="14" lengthAdjust="spacing" textLength="149.0645" x="718.5" y="120.8467">EducacionAcademica</text></g><!--class Gusto--><g class="entity" data-entity="Gusto" data-source-line="27" data-uid="ent0010" id="entity_Gusto"><rect fill="#F1F1F1" height="32" rx="2.5" ry="2.5" style="stroke:#181818;stroke-width:0.5;" width="73.0703" x="905.5" y="100"/><ellipse cx="920.5" cy="116" fill="#ADD1B2" rx="11" ry="11" style="stroke:#181818;stroke-width:1;"/><path d="M923.4688,121.6406 Q922.8906,121.9375 922.25,122.0781 Q921.6094,122.2344 920.9063,122.2344 Q918.4063,122.2344 917.0781,120.5938 Q915.7656,118.9375 915.7656,115.8125 Q915.7656,112.6875 917.0781,111.0313 Q918.4063,109.375 920.9063,109.375 Q921.6094,109.375 922.25,109.5313 Q922.9063,109.6875 923.4688,109.9844 L923.4688,112.7031 Q922.8438,112.125 922.25,111.8594 Q921.6563,111.5781 921.0313,111.5781 Q919.6875,111.5781 919,112.6563 Q918.3125,113.7188 918.3125,115.8125 Q918.3125,117.9063 919,118.9844 Q919.6875,120.0469 921.0313,120.0469 Q921.6563,120.0469 922.25,119.7813 Q922.8438,119.5 923.4688,118.9219 L923.4688,121.6406 Z " fill="#000000"/><text fill="#000000" font-family="sans-serif" font-size="14" lengthAdjust="spacing" textLength="41.0703" x="934.5" y="120.8467">Gusto</text></g><!--class Caracter--><g class="entity" data-entity="Caracter" data-source-line="30" data-uid="ent0011" id="entity_Caracter"><rect fill="#F1F1F1" height="32" rx="2.5" ry="2.5" style="stroke:#181818;stroke-width:0.5;" width="92.2451" x="1014" y="100"/><ellipse cx="1029" cy="116" fill="#ADD1B2" rx="11" ry="11" style="stroke:#181818;stroke-width:1;"/><path d="M1031.9688,121.6406 Q1031.3906,121.9375 1030.75,122.0781 Q1030.1094,122.2344 1029.4063,122.2344 Q1026.9063,122.2344 1025.5781,120.5938 Q1024.2656,118.9375 1024.2656,115.8125 Q1024.2656,112.6875 1025.5781,111.0313 Q1026.9063,109.375 1029.4063,109.375 Q1030.1094,109.375 1030.75,109.5313 Q1031.4063,109.6875 1031.9688,109.9844 L1031.9688,112.7031 Q1031.3438,112.125 1030.75,111.8594 Q1030.1563,111.5781 1029.5313,111.5781 Q1028.1875,111.5781 1027.5,112.6563 Q1026.8125,113.7188 1026.8125,115.8125 Q1026.8125,117.9063 1027.5,118.9844 Q1028.1875,120.0469 1029.5313,120.0469 Q1030.1563,120.0469 1030.75,119.7813 Q1031.3438,119.5 1031.9688,118.9219 L1031.9688,121.6406 Z " fill="#000000"/><text fill="#000000" font-family="sans-serif" font-size="14" lengthAdjust="spacing" textLength="60.2451" x="1043" y="120.8467">Caracter</text></g><!--class Nacion--><g class="entity" data-entity="Nacion" data-source-line="33" data-uid="ent0012" id="entity_Nacion"><rect fill="#F1F1F1" height="32" rx="2.5" ry="2.5" style="stroke:#181818;stroke-width:0.5;" width="80.0771" x="1141" y="100"/><ellipse cx="1156" cy="116" fill="#ADD1B2" rx="11" ry="11" style="stroke:#181818;stroke-width:1;"/><path d="M1158.9688,121.6406 Q1158.3906,121.9375 1157.75,122.0781 Q1157.1094,122.2344 1156.4063,122.2344 Q1153.9063,122.2344 1152.5781,120.5938 Q1151.2656,118.9375 1151.2656,115.8125 Q1151.2656,112.6875 1152.5781,111.0313 Q1153.9063,109.375 1156.4063,109.375 Q1157.1094,109.375 1157.75,109.5313 Q1158.4063,109.6875 1158.9688,109.9844 L1158.9688,112.7031 Q1158.3438,112.125 1157.75,111.8594 Q1157.1563,111.5781 1156.5313,111.5781 Q1155.1875,111.5781 1154.5,112.6563 Q1153.8125,113.7188 1153.8125,115.8125 Q1153.8125,117.9063 1154.5,118.9844 Q1155.1875,120.0469 1156.5313,120.0469 Q1157.1563,120.0469 1157.75,119.7813 Q1158.3438,119.5 1158.9688,118.9219 L1158.9688,121.6406 Z " fill="#000000"/><text fill="#000000" font-family="sans-serif" font-size="14" lengthAdjust="spacing" textLength="48.0771" x="1170" y="120.8467">Nacion</text></g><!--class RasgoFisico--><g class="entity" data-entity="RasgoFisico" data-source-line="36" data-uid="ent0013" id="entity_RasgoFisico"><rect fill="#F1F1F1" height="32" rx="2.5" ry="2.5" style="stroke:#181818;stroke-width:0.5;" width="114.4414" x="1256" y="100"/><ellipse cx="1271" cy="116" fill="#ADD1B2" rx="11" ry="11" style="stroke:#181818;stroke-width:1;"/><path d="M1273.9688,121.6406 Q1273.3906,121.9375 1272.75,122.0781 Q1272.1094,122.2344 1271.4063,122.2344 Q1268.9063,122.2344 1267.5781,120.5938 Q1266.2656,118.9375 1266.2656,115.8125 Q1266.2656,112.6875 1267.5781,111.0313 Q1268.9063,109.375 1271.4063,109.375 Q1272.1094,109.375 1272.75,109.5313 Q1273.4063,109.6875 1273.9688,109.9844 L1273.9688,112.7031 Q1273.3438,112.125 1272.75,111.8594 Q1272.1563,111.5781 1271.5313,111.5781 Q1270.1875,111.5781 1269.5,112.6563 Q1268.8125,113.7188 1268.8125,115.8125 Q1268.8125,117.9063 1269.5,118.9844 Q1270.1875,120.0469 1271.5313,120.0469 Q1272.1563,120.0469 1272.75,119.7813 Q1273.3438,119.5 1273.9688,118.9219 L1273.9688,121.6406 Z " fill="#000000"/><text fill="#000000" font-family="sans-serif" font-size="14" lengthAdjust="spacing" textLength="82.4414" x="1285" y="120.8467">RasgoFisico</text></g><!--class Idioma--><g class="entity" data-entity="Idioma" data-source-line="39" data-uid="ent0014" id="entity_Idioma"><rect fill="#F1F1F1" height="32" rx="2.5" ry="2.5" style="stroke:#181818;stroke-width:0.5;" width="79.6875" x="1405" y="100"/><ellipse cx="1420" cy="116" fill="#ADD1B2" rx="11" ry="11" style="stroke:#181818;stroke-width:1;"/><path d="M1422.9688,121.6406 Q1422.3906,121.9375 1421.75,122.0781 Q1421.1094,122.2344 1420.4063,122.2344 Q1417.9063,122.2344 1416.5781,120.5938 Q1415.2656,118.9375 1415.2656,115.8125 Q1415.2656,112.6875 1416.5781,111.0313 Q1417.9063,109.375 1420.4063,109.375 Q1421.1094,109.375 1421.75,109.5313 Q1422.4063,109.6875 1422.9688,109.9844 L1422.9688,112.7031 Q1422.3438,112.125 1421.75,111.8594 Q1421.1563,111.5781 1420.5313,111.5781 Q1419.1875,111.5781 1418.5,112.6563 Q1417.8125,113.7188 1417.8125,115.8125 Q1417.8125,117.9063 1418.5,118.9844 Q1419.1875,120.0469 1420.5313,120.0469 Q1421.1563,120.0469 1421.75,119.7813 Q1422.3438,119.5 1422.9688,118.9219 L1422.9688,121.6406 Z " fill="#000000"/><text fill="#000000" font-family="sans-serif" font-size="14" lengthAdjust="spacing" textLength="47.6875" x="1434" y="120.8467">Idioma</text></g><!--class Profesion--><g class="entity" data-entity="Profesion" data-source-line="42" data-uid="ent0015" id="entity_Profesion"><rect fill="#F1F1F1" height="32" rx="2.5" ry="2.5" style="stroke:#181818;stroke-width:0.5;" width="96.9277" x="1520.5" y="100"/><ellipse cx="1535.5" cy="116" fill="#ADD1B2" rx="11" ry="11" style="stroke:#181818;stroke-width:1;"/><path d="M1538.4688,121.6406 Q1537.8906,121.9375 1537.25,122.0781 Q1536.6094,122.2344 1535.9063,122.2344 Q1533.4063,122.2344 1532.0781,120.5938 Q1530.7656,118.9375 1530.7656,115.8125 Q1530.7656,112.6875 1532.0781,111.0313 Q1533.4063,109.375 1535.9063,109.375 Q1536.6094,109.375 1537.25,109.5313 Q1537.9063,109.6875 1538.4688,109.9844 L1538.4688,112.7031 Q1537.8438,112.125 1537.25,111.8594 Q1536.6563,111.5781 1536.0313,111.5781 Q1534.6875,111.5781 1534,112.6563 Q1533.3125,113.7188 1533.3125,115.8125 Q1533.3125,117.9063 1534,118.9844 Q1534.6875,120.0469 1536.0313,120.0469 Q1536.6563,120.0469 1537.25,119.7813 Q1537.8438,119.5 1538.4688,118.9219 L1538.4688,121.6406 Z " fill="#000000"/><text fill="#000000" font-family="sans-serif" font-size="14" lengthAdjust="spacing" textLength="64.9277" x="1549.5" y="120.8467">Profesion</text></g><!--reverse link Persona to Caracter--><g class="link" data-entity-1="Persona" data-entity-2="Caracter" data-source-line="45" data-uid="lnk16" id="link_Persona_Caracter"><path codeLine="45" d="M835.4721,42.0299 C887.2121,58.8499 961.25,82.9 1013.87,100.01" fill="none" id="Persona-backto-Caracter" style="stroke:#181818;stroke-width:1;"/><polygon fill="#181818" points="824.06,38.32,828.5294,43.979,835.4721,42.0299,831.0027,36.3709,824.06,38.32" style="stroke:#181818;stroke-width:1;"/></g><!--reverse link Persona to Edad--><g class="link" data-entity-1="Persona" data-entity-2="Edad" data-source-line="46" data-uid="lnk17" id="link_Persona_Edad"><path codeLine="46" d="M723.8619,31.5152 C643.8919,42.5152 482.1,66.54 338,100 C332.34,101.32 326.37,102.89 320.6,104.52" fill="none" id="Persona-backto-Edad" style="stroke:#181818;stroke-width:1;"/><polygon fill="#181818" points="735.75,29.88,729.2609,26.7349,723.8619,31.5152,730.351,34.6603,735.75,29.88" style="stroke:#181818;stroke-width:1;"/></g><!--reverse link Persona to RasgoFisico--><g class="link" data-entity-1="Persona" data-entity-2="RasgoFisico" data-source-line="47" data-uid="lnk18" id="link_Persona_RasgoFisico"><path codeLine="47" d="M836.1563,32.7012 C918.0063,45.4812 1086.56,72.3 1238,100 C1243.75,101.05 1249.73,102.18 1255.71,103.34" fill="none" id="Persona-backto-RasgoFisico" style="stroke:#181818;stroke-width:1;"/><polygon fill="none" points="824.3,30.85,829.6111,35.7277,836.1563,32.7012,830.8453,27.8235,824.3,30.85" style="stroke:#181818;stroke-width:1;"/></g><!--reverse link Persona to Genero--><g class="link" data-entity-1="Persona" data-entity-2="Genero" data-source-line="48" data-uid="lnk19" id="link_Persona_Genero"><path codeLine="48" d="M724.2236,36.7523 C661.8236,51.0623 555.9,75.59 456,100 C450.35,101.38 444.41,102.86 438.56,104.33" fill="none" id="Persona-backto-Genero" style="stroke:#181818;stroke-width:1;"/><polygon fill="none" points="735.92,34.07,729.1777,31.5124,724.2236,36.7523,730.9659,39.3099,735.92,34.07" style="stroke:#181818;stroke-width:1;"/></g><!--reverse link Persona to Nombre--><g class="link" data-entity-1="Persona" data-entity-2="Nombre" data-source-line="49" data-uid="lnk20" id="link_Persona_Nombre"><path codeLine="49" d="M723.9821,27.9275 C616.6421,35.7975 345.23,58.23 112,100 C106.53,100.98 100.81,102.17 95.17,103.43" fill="none" id="Persona-backto-Nombre" style="stroke:#181818;stroke-width:1;"/><polygon fill="none" points="735.95,27.05,729.6736,23.4994,723.9821,27.9275,730.2586,31.478,735.95,27.05" style="stroke:#181818;stroke-width:1;"/></g><!--reverse link Persona to Apellido--><g class="link" data-entity-1="Persona" data-entity-2="Apellido" data-source-line="50" data-uid="lnk21" id="link_Persona_Apellido"><path codeLine="50" d="M723.7612,29.9952 C630.7212,40.1752 420.31,64.92 236,100 C230.23,101.1 224.2,102.38 218.25,103.73" fill="none" id="Persona-backto-Apellido" style="stroke:#181818;stroke-width:1;"/><polygon fill="none" points="735.69,28.69,729.2905,25.3663,723.7612,29.9952,730.1607,33.3189,735.69,28.69" style="stroke:#181818;stroke-width:1;"/></g><!--reverse link Persona to Nacion--><g class="link" data-entity-1="Persona" data-entity-2="Nacion" data-source-line="51" data-uid="lnk22" id="link_Persona_Nacion"><path codeLine="51" d="M835.98,35.7743 C901.43,49.6243 1016.1,74.34 1123,100 C1128.76,101.38 1134.84,102.89 1140.8,104.41" fill="none" id="Persona-backto-Nacion" style="stroke:#181818;stroke-width:1;"/><polygon fill="none" points="824.24,33.29,829.2819,38.4455,835.98,35.7743,830.9381,30.6188,824.24,33.29" style="stroke:#181818;stroke-width:1;"/></g><!--reverse link Persona to Idioma--><g class="link" data-entity-1="Persona" data-entity-2="Idioma" data-source-line="52" data-uid="lnk23" id="link_Persona_Idioma"><path codeLine="52" d="M836.0568,28.5771 C936.5668,37.1271 1178.1,60.08 1387,100 C1392.82,101.11 1398.93,102.47 1404.9,103.92" fill="none" id="Persona-backto-Idioma" style="stroke:#181818;stroke-width:1;"/><polygon fill="none" points="824.1,27.56,829.7394,32.0542,836.0568,28.5771,830.4174,24.083,824.1,27.56" style="stroke:#181818;stroke-width:1;"/></g><!--reverse link Persona to EducacionAcademica--><g class="link" data-entity-1="Persona" data-entity-2="EducacionAcademica" data-source-line="53" data-uid="lnk24" id="link_Persona_EducacionAcademica"><path codeLine="53" d="M780,51.03 C780,67.89 780,83.08 780,99.95" fill="none" id="Persona-backto-EducacionAcademica" style="stroke:#181818;stroke-width:1;"/><polygon fill="none" points="780,39.03,776,45.03,780,51.03,784,45.03,780,39.03" style="stroke:#181818;stroke-width:1;"/></g><!--reverse link Persona to Persona--><g class="link" data-entity-1="Persona" data-entity-2="Persona" data-source-line="54" data-uid="lnk25" id="link_Persona_Persona"><path codeLine="54" d="M836.2683,18.5252 C855.0183,18.2052 859,19.83 859,23 C859,26.17 843.02,27.59 824.27,27.27" fill="none" id="Persona-backto-Persona" style="stroke:#181818;stroke-width:1;"/><polygon fill="none" points="824.27,18.73,830.3374,22.627,836.2683,18.5252,830.2009,14.6282,824.27,18.73" style="stroke:#181818;stroke-width:1;"/><text fill="#000000" font-family="sans-serif" font-size="13" lengthAdjust="spacing" textLength="44.0083" x="865" y="27.5669">familia</text></g><!--link Persona to Persona--><g class="link" data-entity-1="Persona" data-entity-2="Persona" data-source-line="56" data-uid="lnk27" id="link_Persona_Persona"><path codeLine="56" d="M824.32,15.88 C866.24,12.47 915,14.85 915,23 C915,31.15 872.2202,34.0165 830.3002,30.6065" fill="none" id="Persona-to-Persona" style="stroke:#181818;stroke-width:1;"/><polygon fill="#181818" points="824.32,30.12,832.9661,34.8365,829.3035,30.5254,833.6147,26.8629,824.32,30.12" style="stroke:#181818;stroke-width:1;"/><text fill="#000000" font-family="sans-serif" font-size="13" lengthAdjust="spacing" textLength="47.2202" x="921" y="27.5669">amigos</text></g><!--link Persona to Religion--><g class="link" data-entity-1="Persona" data-entity-2="Religion" data-source-line="55" data-uid="lnk26" id="link_Persona_Religion"><path codeLine="55" d="M751.93,39.03 C720.43,55.89 674.92,80.2487 643.4,97.1187" fill="none" id="Persona-to-Religion" style="stroke:#181818;stroke-width:1;"/><polygon fill="#181818" points="638.11,99.95,647.9325,99.2297,642.5183,97.5906,644.1574,92.1764,638.11,99.95" style="stroke:#181818;stroke-width:1;"/></g><!--link Persona to Profesion--><g class="link" data-entity-1="Persona" data-entity-2="Profesion" data-source-line="57" data-uid="lnk28" id="link_Persona_Profesion"><path codeLine="57" d="M824.21,26.76 C937.49,34.23 1247.18,57.24 1502,100 C1508,101.01 1508.3824,101.0041 1514.5724,102.2741" fill="none" id="Persona-to-Profesion" style="stroke:#181818;stroke-width:1;"/><polygon fill="#181818" points="1520.45,103.48,1512.4376,97.7528,1515.552,102.4751,1510.8297,105.5895,1520.45,103.48" style="stroke:#181818;stroke-width:1;"/></g><!--link Persona to Gusto--><g class="link" data-entity-1="Persona" data-entity-2="Gusto" data-source-line="58" data-uid="lnk29" id="link_Persona_Gusto"><path codeLine="58" d="M806.75,39.03 C836.77,55.89 879.9489,80.1413 909.9789,97.0113" fill="none" id="Persona-to-Gusto" style="stroke:#181818;stroke-width:1;stroke-dasharray:7,7;"/><polygon fill="#181818" points="915.21,99.95,909.3225,92.0546,910.8508,97.5011,905.4043,99.0294,915.21,99.95" style="stroke:#181818;stroke-width:1;"/></g><!--link Persona to DNI--><g class="link" data-entity-1="Persona" data-entity-2="DNI" data-source-line="59" data-uid="lnk30" id="link_Persona_DNI"><path codeLine="59" d="M735.95,38.42 C678.38,57.26 584.9022,87.8633 536.2722,103.7833" fill="none" id="Persona-to-DNI" style="stroke:#181818;stroke-width:1;"/><polygon fill="#181818" points="530.57,105.65,540.3678,106.6514,535.3218,104.0944,537.8788,99.0484,530.57,105.65" style="stroke:#181818;stroke-width:1;"/></g><!--SRC=[PP4x3i8m38RtdY8pKdi01YJ4Iom8SGEJc68fgL5I1eIuEw4bnHPRyjc_7x-lvD1WkFKF4p2SCQQgiXvICiVyvWwUrQkG0uTpH06MD_IU70kqSU34TuSTHXbV7_RYTq9FBN6d2jmjsCoM5Xm6idA2tJtrijeA8jWUenno4CiUa5hUKY8hbNj776JfO-GBfYBzBczcTJqrKV2pvmGu0z56yT41XKOV5IfEwhnX5ON6iHNwDqo5otjkBX38qozQrulf00h-95dHSjB1ujD4csOn7aRbvKE_0G00]--></g></svg>