<svg xmlns="http://www.w3.org/2000/svg" xmlns:xlink="http://www.w3.org/1999/xlink" contentStyleType="text/css" data-diagram-type="CLASS" height="230px" preserveAspectRatio="none" style="width:533px;height:230px;background:#FFFFFF;" version="1.1" viewBox="0 0 533 230" width="533px" zoomAndPan="magnify"><defs/><g><!--class Persona--><g class="entity" data-entity="Persona" data-source-line="3" data-uid="ent0002" id="entity_Persona"><rect fill="#F1F1F1" height="32" rx="2.5" ry="2.5" style="stroke:#181818;stroke-width:0.5;" width="88.123" x="24.5" y="7"/><ellipse cx="39.5" cy="23" fill="#ADD1B2" rx="11" ry="11" style="stroke:#181818;stroke-width:1;"/><path d="M42.4688,28.6406 Q41.8906,28.9375 41.25,29.0781 Q40.6094,29.2344 39.9063,29.2344 Q37.4063,29.2344 36.0781,27.5938 Q34.7656,25.9375 34.7656,22.8125 Q34.7656,19.6875 36.0781,18.0313 Q37.4063,16.375 39.9063,16.375 Q40.6094,16.375 41.25,16.5313 Q41.9063,16.6875 42.4688,16.9844 L42.4688,19.7031 Q41.8438,19.125 41.25,18.8594 Q40.6563,18.5781 40.0313,18.5781 Q38.6875,18.5781 38,19.6563 Q37.3125,20.7188 37.3125,22.8125 Q37.3125,24.9063 38,25.9844 Q38.6875,27.0469 40.0313,27.0469 Q40.6563,27.0469 41.25,26.7813 Q41.8438,26.5 42.4688,25.9219 L42.4688,28.6406 Z " fill="#000000"/><text fill="#000000" font-family="sans-serif" font-size="14" lengthAdjust="spacing" textLength="56.123" x="53.5" y="27.8467">Persona</text></g><!--class NombreYApellidos--><g class="entity" data-entity="NombreYApellidos" data-source-line="6" data-uid="ent0003" id="entity_NombreYApellidos"><rect fill="#F1F1F1" height="32" rx="2.5" ry="2.5" style="stroke:#181818;stroke-width:0.5;" width="159.9756" x="147.5" y="7"/><ellipse cx="162.5" cy="23" fill="#ADD1B2" rx="11" ry="11" style="stroke:#181818;stroke-width:1;"/><path d="M165.4688,28.6406 Q164.8906,28.9375 164.25,29.0781 Q163.6094,29.2344 162.9063,29.2344 Q160.4063,29.2344 159.0781,27.5938 Q157.7656,25.9375 157.7656,22.8125 Q157.7656,19.6875 159.0781,18.0313 Q160.4063,16.375 162.9063,16.375 Q163.6094,16.375 164.25,16.5313 Q164.9063,16.6875 165.4688,16.9844 L165.4688,19.7031 Q164.8438,19.125 164.25,18.8594 Q163.6563,18.5781 163.0313,18.5781 Q161.6875,18.5781 161,19.6563 Q160.3125,20.7188 160.3125,22.8125 Q160.3125,24.9063 161,25.9844 Q161.6875,27.0469 163.0313,27.0469 Q163.6563,27.0469 164.25,26.7813 Q164.8438,26.5 165.4688,25.9219 L165.4688,28.6406 Z " fill="#000000"/><text fill="#000000" font-family="sans-serif" font-size="14" lengthAdjust="spacing" textLength="127.9756" x="176.5" y="27.8467">NombreYApellidos</text></g><!--class Edad--><g class="entity" data-entity="Edad" data-source-line="9" data-uid="ent0004" id="entity_Edad"><rect fill="#F1F1F1" height="32" rx="2.5" ry="2.5" style="stroke:#181818;stroke-width:0.5;" width="67.1982" x="343" y="7"/><ellipse cx="358" cy="23" fill="#ADD1B2" rx="11" ry="11" style="stroke:#181818;stroke-width:1;"/><path d="M360.9688,28.6406 Q360.3906,28.9375 359.75,29.0781 Q359.1094,29.2344 358.4063,29.2344 Q355.9063,29.2344 354.5781,27.5938 Q353.2656,25.9375 353.2656,22.8125 Q353.2656,19.6875 354.5781,18.0313 Q355.9063,16.375 358.4063,16.375 Q359.1094,16.375 359.75,16.5313 Q360.4063,16.6875 360.9688,16.9844 L360.9688,19.7031 Q360.3438,19.125 359.75,18.8594 Q359.1563,18.5781 358.5313,18.5781 Q357.1875,18.5781 356.5,19.6563 Q355.8125,20.7188 355.8125,22.8125 Q355.8125,24.9063 356.5,25.9844 Q357.1875,27.0469 358.5313,27.0469 Q359.1563,27.0469 359.75,26.7813 Q360.3438,26.5 360.9688,25.9219 L360.9688,28.6406 Z " fill="#000000"/><text fill="#000000" font-family="sans-serif" font-size="14" lengthAdjust="spacing" textLength="35.1982" x="372" y="27.8467">Edad</text></g><!--class Sexo--><g class="entity" data-entity="Sexo" data-source-line="12" data-uid="ent0005" id="entity_Sexo"><rect fill="#F1F1F1" height="32" rx="2.5" ry="2.5" style="stroke:#181818;stroke-width:0.5;" width="66.3506" x="445.5" y="7"/><ellipse cx="460.5" cy="23" fill="#ADD1B2" rx="11" ry="11" style="stroke:#181818;stroke-width:1;"/><path d="M463.4688,28.6406 Q462.8906,28.9375 462.25,29.0781 Q461.6094,29.2344 460.9063,29.2344 Q458.4063,29.2344 457.0781,27.5938 Q455.7656,25.9375 455.7656,22.8125 Q455.7656,19.6875 457.0781,18.0313 Q458.4063,16.375 460.9063,16.375 Q461.6094,16.375 462.25,16.5313 Q462.9063,16.6875 463.4688,16.9844 L463.4688,19.7031 Q462.8438,19.125 462.25,18.8594 Q461.6563,18.5781 461.0313,18.5781 Q459.6875,18.5781 459,19.6563 Q458.3125,20.7188 458.3125,22.8125 Q458.3125,24.9063 459,25.9844 Q459.6875,27.0469 461.0313,27.0469 Q461.6563,27.0469 462.25,26.7813 Q462.8438,26.5 463.4688,25.9219 L463.4688,28.6406 Z " fill="#000000"/><text fill="#000000" font-family="sans-serif" font-size="14" lengthAdjust="spacing" textLength="34.3506" x="474.5" y="27.8467">Sexo</text></g><!--class Religion--><g class="entity" data-entity="Religion" data-source-line="15" data-uid="ent0006" id="entity_Religion"><rect fill="#F1F1F1" height="32" rx="2.5" ry="2.5" style="stroke:#181818;stroke-width:0.5;" width="88.335" x="24.5" y="99"/><ellipse cx="39.5" cy="115" fill="#ADD1B2" rx="11" ry="11" style="stroke:#181818;stroke-width:1;"/><path d="M42.4688,120.6406 Q41.8906,120.9375 41.25,121.0781 Q40.6094,121.2344 39.9063,121.2344 Q37.4063,121.2344 36.0781,119.5938 Q34.7656,117.9375 34.7656,114.8125 Q34.7656,111.6875 36.0781,110.0313 Q37.4063,108.375 39.9063,108.375 Q40.6094,108.375 41.25,108.5313 Q41.9063,108.6875 42.4688,108.9844 L42.4688,111.7031 Q41.8438,111.125 41.25,110.8594 Q40.6563,110.5781 40.0313,110.5781 Q38.6875,110.5781 38,111.6563 Q37.3125,112.7188 37.3125,114.8125 Q37.3125,116.9063 38,117.9844 Q38.6875,119.0469 40.0313,119.0469 Q40.6563,119.0469 41.25,118.7813 Q41.8438,118.5 42.4688,117.9219 L42.4688,120.6406 Z " fill="#000000"/><text fill="#000000" font-family="sans-serif" font-size="14" lengthAdjust="spacing" textLength="56.335" x="53.5" y="119.8467">Religion</text></g><!--class Educacion--><g class="entity" data-entity="Educacion" data-source-line="18" data-uid="ent0007" id="entity_Educacion"><rect fill="#F1F1F1" height="32" rx="2.5" ry="2.5" style="stroke:#181818;stroke-width:0.5;" width="103.9072" x="147.5" y="99"/><ellipse cx="162.5" cy="115" fill="#ADD1B2" rx="11" ry="11" style="stroke:#181818;stroke-width:1;"/><path d="M165.4688,120.6406 Q164.8906,120.9375 164.25,121.0781 Q163.6094,121.2344 162.9063,121.2344 Q160.4063,121.2344 159.0781,119.5938 Q157.7656,117.9375 157.7656,114.8125 Q157.7656,111.6875 159.0781,110.0313 Q160.4063,108.375 162.9063,108.375 Q163.6094,108.375 164.25,108.5313 Q164.9063,108.6875 165.4688,108.9844 L165.4688,111.7031 Q164.8438,111.125 164.25,110.8594 Q163.6563,110.5781 163.0313,110.5781 Q161.6875,110.5781 161,111.6563 Q160.3125,112.7188 160.3125,114.8125 Q160.3125,116.9063 161,117.9844 Q161.6875,119.0469 163.0313,119.0469 Q163.6563,119.0469 164.25,118.7813 Q164.8438,118.5 165.4688,117.9219 L165.4688,120.6406 Z " fill="#000000"/><text fill="#000000" font-family="sans-serif" font-size="14" lengthAdjust="spacing" textLength="71.9072" x="176.5" y="119.8467">Educacion</text></g><!--class Gusto--><g class="entity" data-entity="Gusto" data-source-line="21" data-uid="ent0008" id="entity_Gusto"><rect fill="#F1F1F1" height="32" rx="2.5" ry="2.5" style="stroke:#181818;stroke-width:0.5;" width="73.0703" x="287" y="99"/><ellipse cx="302" cy="115" fill="#ADD1B2" rx="11" ry="11" style="stroke:#181818;stroke-width:1;"/><path d="M304.9688,120.6406 Q304.3906,120.9375 303.75,121.0781 Q303.1094,121.2344 302.4063,121.2344 Q299.9063,121.2344 298.5781,119.5938 Q297.2656,117.9375 297.2656,114.8125 Q297.2656,111.6875 298.5781,110.0313 Q299.9063,108.375 302.4063,108.375 Q303.1094,108.375 303.75,108.5313 Q304.4063,108.6875 304.9688,108.9844 L304.9688,111.7031 Q304.3438,111.125 303.75,110.8594 Q303.1563,110.5781 302.5313,110.5781 Q301.1875,110.5781 300.5,111.6563 Q299.8125,112.7188 299.8125,114.8125 Q299.8125,116.9063 300.5,117.9844 Q301.1875,119.0469 302.5313,119.0469 Q303.1563,119.0469 303.75,118.7813 Q304.3438,118.5 304.9688,117.9219 L304.9688,120.6406 Z " fill="#000000"/><text fill="#000000" font-family="sans-serif" font-size="14" lengthAdjust="spacing" textLength="41.0703" x="316" y="119.8467">Gusto</text></g><!--class Caracter--><g class="entity" data-entity="Caracter" data-source-line="24" data-uid="ent0009" id="entity_Caracter"><rect fill="#F1F1F1" height="32" rx="2.5" ry="2.5" style="stroke:#181818;stroke-width:0.5;" width="92.2451" x="395.5" y="99"/><ellipse cx="410.5" cy="115" fill="#ADD1B2" rx="11" ry="11" style="stroke:#181818;stroke-width:1;"/><path d="M413.4688,120.6406 Q412.8906,120.9375 412.25,121.0781 Q411.6094,121.2344 410.9063,121.2344 Q408.4063,121.2344 407.0781,119.5938 Q405.7656,117.9375 405.7656,114.8125 Q405.7656,111.6875 407.0781,110.0313 Q408.4063,108.375 410.9063,108.375 Q411.6094,108.375 412.25,108.5313 Q412.9063,108.6875 413.4688,108.9844 L413.4688,111.7031 Q412.8438,111.125 412.25,110.8594 Q411.6563,110.5781 411.0313,110.5781 Q409.6875,110.5781 409,111.6563 Q408.3125,112.7188 408.3125,114.8125 Q408.3125,116.9063 409,117.9844 Q409.6875,119.0469 411.0313,119.0469 Q411.6563,119.0469 412.25,118.7813 Q412.8438,118.5 413.4688,117.9219 L413.4688,120.6406 Z " fill="#000000"/><text fill="#000000" font-family="sans-serif" font-size="14" lengthAdjust="spacing" textLength="60.2451" x="424.5" y="119.8467">Caracter</text></g><!--class Nacionalidad--><g class="entity" data-entity="Nacionalidad" data-source-line="27" data-uid="ent0010" id="entity_Nacionalidad"><rect fill="#F1F1F1" height="32" rx="2.5" ry="2.5" style="stroke:#181818;stroke-width:0.5;" width="122.7881" x="7" y="191"/><ellipse cx="22" cy="207" fill="#ADD1B2" rx="11" ry="11" style="stroke:#181818;stroke-width:1;"/><path d="M24.9688,212.6406 Q24.3906,212.9375 23.75,213.0781 Q23.1094,213.2344 22.4063,213.2344 Q19.9063,213.2344 18.5781,211.5938 Q17.2656,209.9375 17.2656,206.8125 Q17.2656,203.6875 18.5781,202.0313 Q19.9063,200.375 22.4063,200.375 Q23.1094,200.375 23.75,200.5313 Q24.4063,200.6875 24.9688,200.9844 L24.9688,203.7031 Q24.3438,203.125 23.75,202.8594 Q23.1563,202.5781 22.5313,202.5781 Q21.1875,202.5781 20.5,203.6563 Q19.8125,204.7188 19.8125,206.8125 Q19.8125,208.9063 20.5,209.9844 Q21.1875,211.0469 22.5313,211.0469 Q23.1563,211.0469 23.75,210.7813 Q24.3438,210.5 24.9688,209.9219 L24.9688,212.6406 Z " fill="#000000"/><text fill="#000000" font-family="sans-serif" font-size="14" lengthAdjust="spacing" textLength="90.7881" x="36" y="211.8467">Nacionalidad</text></g><!--class RasgoF?sico--><g class="entity" data-entity="RasgoF.sico" data-source-line="30" data-uid="ent0011" id="entity_RasgoF.sico"><rect fill="#F1F1F1" height="32" rx="2.5" ry="2.5" style="stroke:#181818;stroke-width:0.5;" width="114.4414" x="165.5" y="191"/><ellipse cx="180.5" cy="207" fill="#ADD1B2" rx="11" ry="11" style="stroke:#181818;stroke-width:1;"/><path d="M183.4688,212.6406 Q182.8906,212.9375 182.25,213.0781 Q181.6094,213.2344 180.9063,213.2344 Q178.4063,213.2344 177.0781,211.5938 Q175.7656,209.9375 175.7656,206.8125 Q175.7656,203.6875 177.0781,202.0313 Q178.4063,200.375 180.9063,200.375 Q181.6094,200.375 182.25,200.5313 Q182.9063,200.6875 183.4688,200.9844 L183.4688,203.7031 Q182.8438,203.125 182.25,202.8594 Q181.6563,202.5781 181.0313,202.5781 Q179.6875,202.5781 179,203.6563 Q178.3125,204.7188 178.3125,206.8125 Q178.3125,208.9063 179,209.9844 Q179.6875,211.0469 181.0313,211.0469 Q181.6563,211.0469 182.25,210.7813 Q182.8438,210.5 183.4688,209.9219 L183.4688,212.6406 Z " fill="#000000"/><text fill="#000000" font-family="sans-serif" font-size="14" lengthAdjust="spacing" textLength="82.4414" x="194.5" y="211.8467">RasgoF&#237;sico</text></g><!--class Idioma--><g class="entity" data-entity="Idioma" data-source-line="33" data-uid="ent0012" id="entity_Idioma"><rect fill="#F1F1F1" height="32" rx="2.5" ry="2.5" style="stroke:#181818;stroke-width:0.5;" width="79.6875" x="314.5" y="191"/><ellipse cx="329.5" cy="207" fill="#ADD1B2" rx="11" ry="11" style="stroke:#181818;stroke-width:1;"/><path d="M332.4688,212.6406 Q331.8906,212.9375 331.25,213.0781 Q330.6094,213.2344 329.9063,213.2344 Q327.4063,213.2344 326.0781,211.5938 Q324.7656,209.9375 324.7656,206.8125 Q324.7656,203.6875 326.0781,202.0313 Q327.4063,200.375 329.9063,200.375 Q330.6094,200.375 331.25,200.5313 Q331.9063,200.6875 332.4688,200.9844 L332.4688,203.7031 Q331.8438,203.125 331.25,202.8594 Q330.6563,202.5781 330.0313,202.5781 Q328.6875,202.5781 328,203.6563 Q327.3125,204.7188 327.3125,206.8125 Q327.3125,208.9063 328,209.9844 Q328.6875,211.0469 330.0313,211.0469 Q330.6563,211.0469 331.25,210.7813 Q331.8438,210.5 332.4688,209.9219 L332.4688,212.6406 Z " fill="#000000"/><text fill="#000000" font-family="sans-serif" font-size="14" lengthAdjust="spacing" textLength="47.6875" x="343.5" y="211.8467">Idioma</text></g><!--class Profesion--><g class="entity" data-entity="Profesion" data-source-line="36" data-uid="ent0013" id="entity_Profesion"><rect fill="#F1F1F1" height="32" rx="2.5" ry="2.5" style="stroke:#181818;stroke-width:0.5;" width="96.9277" x="430" y="191"/><ellipse cx="445" cy="207" fill="#ADD1B2" rx="11" ry="11" style="stroke:#181818;stroke-width:1;"/><path d="M447.9688,212.6406 Q447.3906,212.9375 446.75,213.0781 Q446.1094,213.2344 445.4063,213.2344 Q442.9063,213.2344 441.5781,211.5938 Q440.2656,209.9375 440.2656,206.8125 Q440.2656,203.6875 441.5781,202.0313 Q442.9063,200.375 445.4063,200.375 Q446.1094,200.375 446.75,200.5313 Q447.4063,200.6875 447.9688,200.9844 L447.9688,203.7031 Q447.3438,203.125 446.75,202.8594 Q446.1563,202.5781 445.5313,202.5781 Q444.1875,202.5781 443.5,203.6563 Q442.8125,204.7188 442.8125,206.8125 Q442.8125,208.9063 443.5,209.9844 Q444.1875,211.0469 445.5313,211.0469 Q446.1563,211.0469 446.75,210.7813 Q447.3438,210.5 447.9688,209.9219 L447.9688,212.6406 Z " fill="#000000"/><text fill="#000000" font-family="sans-serif" font-size="14" lengthAdjust="spacing" textLength="64.9277" x="459" y="211.8467">Profesion</text></g><!--SRC=[LOz12i9034NtSugvYeYA6obrvJATn1gOQSfa2XNnI9x2YrbQXCmk_uUN__DW94zfB4-VA7MKrRaGGTKtoom3lDpxxrmaTPbkkv5YP1GrgmC26dcbMOniANBFCbJ0523KtcdIOh4zP0Y5igsmCh34LtajQ2_7xqSvs0DdP4dsWoRBdNHB_G40]--></g></svg>