<?plantuml 1.2026.2beta3?><svg xmlns="http://www.w3.org/2000/svg" xmlns:xlink="http://www.w3.org/1999/xlink" contentStyleType="text/css" data-diagram-type="CLASS" height="423px" preserveAspectRatio="none" style="width:761px;height:423px;background:#FFFFFF;" version="1.1" viewBox="0 0 761 423" width="761px" zoomAndPan="magnify"><title>Ecosistema Musical - Relaciones</title><defs/><g><g class="title" data-source-line="1"><text fill="#000000" font-family="sans-serif" font-size="14" font-weight="bold" lengthAdjust="spacing" textLength="254.208" x="246.521" y="22.9951">Ecosistema Musical - Relaciones</text></g><!--class Cantante--><g class="entity" data-qualified-name="Cantante" data-source-line="3" id="ent0002"><rect fill="#F1F1F1" height="48" rx="2.5" ry="2.5" style="stroke:#181818;stroke-width:0.5;" width="96.2715" x="431.05" y="152.2969"/><ellipse cx="446.05" cy="168.2969" fill="#ADD1B2" rx="11" ry="11" style="stroke:#181818;stroke-width:1;"/><path d="M449.0188,173.9375 Q448.4406,174.2344 447.8,174.375 Q447.1594,174.5313 446.4563,174.5313 Q443.9563,174.5313 442.6281,172.8906 Q441.3156,171.2344 441.3156,168.1094 Q441.3156,164.9844 442.6281,163.3281 Q443.9563,161.6719 446.4563,161.6719 Q447.1594,161.6719 447.8,161.8281 Q448.4563,161.9844 449.0188,162.2813 L449.0188,165 Q448.3938,164.4219 447.8,164.1563 Q447.2063,163.875 446.5813,163.875 Q445.2375,163.875 444.55,164.9531 Q443.8625,166.0156 443.8625,168.1094 Q443.8625,170.2031 444.55,171.2813 Q445.2375,172.3438 446.5813,172.3438 Q447.2063,172.3438 447.8,172.0781 Q448.3938,171.7969 449.0188,171.2188 L449.0188,173.9375 Z " fill="#000000"/><text fill="#000000" font-family="sans-serif" font-size="14" lengthAdjust="spacing" textLength="64.2715" x="460.05" y="173.1436">Cantante</text><line style="stroke:#181818;stroke-width:0.5;" x1="432.05" x2="526.3215" y1="184.2969" y2="184.2969"/><line style="stroke:#181818;stroke-width:0.5;" x1="432.05" x2="526.3215" y1="192.2969" y2="192.2969"/></g><!--class Disco--><g class="entity" data-qualified-name="Disco" data-source-line="6" id="ent0003"><rect fill="#F1F1F1" height="48" rx="2.5" ry="2.5" style="stroke:#181818;stroke-width:0.5;" width="70.2266" x="239.07" y="260.2969"/><ellipse cx="254.07" cy="276.2969" fill="#ADD1B2" rx="11" ry="11" style="stroke:#181818;stroke-width:1;"/><path d="M257.0388,281.9375 Q256.4606,282.2344 255.82,282.375 Q255.1794,282.5313 254.4763,282.5313 Q251.9763,282.5313 250.6481,280.8906 Q249.3356,279.2344 249.3356,276.1094 Q249.3356,272.9844 250.6481,271.3281 Q251.9763,269.6719 254.4763,269.6719 Q255.1794,269.6719 255.82,269.8281 Q256.4763,269.9844 257.0388,270.2813 L257.0388,273 Q256.4138,272.4219 255.82,272.1563 Q255.2263,271.875 254.6013,271.875 Q253.2575,271.875 252.57,272.9531 Q251.8825,274.0156 251.8825,276.1094 Q251.8825,278.2031 252.57,279.2813 Q253.2575,280.3438 254.6013,280.3438 Q255.2263,280.3438 255.82,280.0781 Q256.4138,279.7969 257.0388,279.2188 L257.0388,281.9375 Z " fill="#000000"/><text fill="#000000" font-family="sans-serif" font-size="14" lengthAdjust="spacing" textLength="38.2266" x="268.07" y="281.1436">Disco</text><line style="stroke:#181818;stroke-width:0.5;" x1="240.07" x2="308.2966" y1="292.2969" y2="292.2969"/><line style="stroke:#181818;stroke-width:0.5;" x1="240.07" x2="308.2966" y1="300.2969" y2="300.2969"/></g><!--class Cancion--><g class="entity" data-qualified-name="Cancion" data-source-line="9" id="ent0004"><rect fill="#F1F1F1" height="48" rx="2.5" ry="2.5" style="stroke:#181818;stroke-width:0.5;" width="88.2529" x="285.06" y="368.2969"/><ellipse cx="300.06" cy="384.2969" fill="#ADD1B2" rx="11" ry="11" style="stroke:#181818;stroke-width:1;"/><path d="M303.0288,389.9375 Q302.4506,390.2344 301.81,390.375 Q301.1694,390.5313 300.4663,390.5313 Q297.9663,390.5313 296.6381,388.8906 Q295.3256,387.2344 295.3256,384.1094 Q295.3256,380.9844 296.6381,379.3281 Q297.9663,377.6719 300.4663,377.6719 Q301.1694,377.6719 301.81,377.8281 Q302.4663,377.9844 303.0288,378.2813 L303.0288,381 Q302.4038,380.4219 301.81,380.1563 Q301.2163,379.875 300.5913,379.875 Q299.2475,379.875 298.56,380.9531 Q297.8725,382.0156 297.8725,384.1094 Q297.8725,386.2031 298.56,387.2813 Q299.2475,388.3438 300.5913,388.3438 Q301.2163,388.3438 301.81,388.0781 Q302.4038,387.7969 303.0288,387.2188 L303.0288,389.9375 Z " fill="#000000"/><text fill="#000000" font-family="sans-serif" font-size="14" lengthAdjust="spacing" textLength="56.2529" x="314.06" y="389.1436">Cancion</text><line style="stroke:#181818;stroke-width:0.5;" x1="286.06" x2="372.3129" y1="400.2969" y2="400.2969"/><line style="stroke:#181818;stroke-width:0.5;" x1="286.06" x2="372.3129" y1="408.2969" y2="408.2969"/></g><!--class Playlist--><g class="entity" data-qualified-name="Playlist" data-source-line="12" id="ent0005"><rect fill="#F1F1F1" height="48" rx="2.5" ry="2.5" style="stroke:#181818;stroke-width:0.5;" width="81.7588" x="344.31" y="260.2969"/><ellipse cx="359.31" cy="276.2969" fill="#ADD1B2" rx="11" ry="11" style="stroke:#181818;stroke-width:1;"/><path d="M362.2788,281.9375 Q361.7006,282.2344 361.06,282.375 Q360.4194,282.5313 359.7163,282.5313 Q357.2163,282.5313 355.8881,280.8906 Q354.5756,279.2344 354.5756,276.1094 Q354.5756,272.9844 355.8881,271.3281 Q357.2163,269.6719 359.7163,269.6719 Q360.4194,269.6719 361.06,269.8281 Q361.7163,269.9844 362.2788,270.2813 L362.2788,273 Q361.6538,272.4219 361.06,272.1563 Q360.4663,271.875 359.8413,271.875 Q358.4975,271.875 357.81,272.9531 Q357.1225,274.0156 357.1225,276.1094 Q357.1225,278.2031 357.81,279.2813 Q358.4975,280.3438 359.8413,280.3438 Q360.4663,280.3438 361.06,280.0781 Q361.6538,279.7969 362.2788,279.2188 L362.2788,281.9375 Z " fill="#000000"/><text fill="#000000" font-family="sans-serif" font-size="14" lengthAdjust="spacing" textLength="49.7588" x="373.31" y="281.1436">Playlist</text><line style="stroke:#181818;stroke-width:0.5;" x1="345.31" x2="425.0688" y1="292.2969" y2="292.2969"/><line style="stroke:#181818;stroke-width:0.5;" x1="345.31" x2="425.0688" y1="300.2969" y2="300.2969"/></g><!--class Gira--><g class="entity" data-qualified-name="Gira" data-source-line="15" id="ent0006"><rect fill="#F1F1F1" height="48" rx="2.5" ry="2.5" style="stroke:#181818;stroke-width:0.5;" width="61.0732" x="448.65" y="44.2969"/><ellipse cx="463.65" cy="60.2969" fill="#ADD1B2" rx="11" ry="11" style="stroke:#181818;stroke-width:1;"/><path d="M466.6188,65.9375 Q466.0406,66.2344 465.4,66.375 Q464.7594,66.5313 464.0563,66.5313 Q461.5563,66.5313 460.2281,64.8906 Q458.9156,63.2344 458.9156,60.1094 Q458.9156,56.9844 460.2281,55.3281 Q461.5563,53.6719 464.0563,53.6719 Q464.7594,53.6719 465.4,53.8281 Q466.0563,53.9844 466.6188,54.2813 L466.6188,57 Q465.9938,56.4219 465.4,56.1563 Q464.8063,55.875 464.1813,55.875 Q462.8375,55.875 462.15,56.9531 Q461.4625,58.0156 461.4625,60.1094 Q461.4625,62.2031 462.15,63.2813 Q462.8375,64.3438 464.1813,64.3438 Q464.8063,64.3438 465.4,64.0781 Q465.9938,63.7969 466.6188,63.2188 L466.6188,65.9375 Z " fill="#000000"/><text fill="#000000" font-family="sans-serif" font-size="14" lengthAdjust="spacing" textLength="29.0732" x="477.65" y="65.1436">Gira</text><line style="stroke:#181818;stroke-width:0.5;" x1="449.65" x2="508.7232" y1="76.2969" y2="76.2969"/><line style="stroke:#181818;stroke-width:0.5;" x1="449.65" x2="508.7232" y1="84.2969" y2="84.2969"/></g><!--class SelloDiscografico--><g class="entity" data-qualified-name="SelloDiscografico" data-source-line="18" id="ent0007"><rect fill="#F1F1F1" height="48" rx="2.5" ry="2.5" style="stroke:#181818;stroke-width:0.5;" width="152.374" x="7" y="152.2969"/><ellipse cx="22" cy="168.2969" fill="#ADD1B2" rx="11" ry="11" style="stroke:#181818;stroke-width:1;"/><path d="M24.9688,173.9375 Q24.3906,174.2344 23.75,174.375 Q23.1094,174.5313 22.4063,174.5313 Q19.9063,174.5313 18.5781,172.8906 Q17.2656,171.2344 17.2656,168.1094 Q17.2656,164.9844 18.5781,163.3281 Q19.9063,161.6719 22.4063,161.6719 Q23.1094,161.6719 23.75,161.8281 Q24.4063,161.9844 24.9688,162.2813 L24.9688,165 Q24.3438,164.4219 23.75,164.1563 Q23.1563,163.875 22.5313,163.875 Q21.1875,163.875 20.5,164.9531 Q19.8125,166.0156 19.8125,168.1094 Q19.8125,170.2031 20.5,171.2813 Q21.1875,172.3438 22.5313,172.3438 Q23.1563,172.3438 23.75,172.0781 Q24.3438,171.7969 24.9688,171.2188 L24.9688,173.9375 Z " fill="#000000"/><text fill="#000000" font-family="sans-serif" font-size="14" lengthAdjust="spacing" textLength="120.374" x="36" y="173.1436">SelloDiscografico</text><line style="stroke:#181818;stroke-width:0.5;" x1="8" x2="158.374" y1="184.2969" y2="184.2969"/><line style="stroke:#181818;stroke-width:0.5;" x1="8" x2="158.374" y1="192.2969" y2="192.2969"/></g><!--class PlataformaStreaming--><g class="entity" data-qualified-name="PlataformaStreaming" data-source-line="21" id="ent0008"><rect fill="#F1F1F1" height="48" rx="2.5" ry="2.5" style="stroke:#181818;stroke-width:0.5;" width="181.0576" x="194.66" y="152.2969"/><ellipse cx="209.66" cy="168.2969" fill="#ADD1B2" rx="11" ry="11" style="stroke:#181818;stroke-width:1;"/><path d="M212.6288,173.9375 Q212.0506,174.2344 211.41,174.375 Q210.7694,174.5313 210.0663,174.5313 Q207.5663,174.5313 206.2381,172.8906 Q204.9256,171.2344 204.9256,168.1094 Q204.9256,164.9844 206.2381,163.3281 Q207.5663,161.6719 210.0663,161.6719 Q210.7694,161.6719 211.41,161.8281 Q212.0663,161.9844 212.6288,162.2813 L212.6288,165 Q212.0038,164.4219 211.41,164.1563 Q210.8163,163.875 210.1913,163.875 Q208.8475,163.875 208.16,164.9531 Q207.4725,166.0156 207.4725,168.1094 Q207.4725,170.2031 208.16,171.2813 Q208.8475,172.3438 210.1913,172.3438 Q210.8163,172.3438 211.41,172.0781 Q212.0038,171.7969 212.6288,171.2188 L212.6288,173.9375 Z " fill="#000000"/><text fill="#000000" font-family="sans-serif" font-size="14" lengthAdjust="spacing" textLength="149.0576" x="223.66" y="173.1436">PlataformaStreaming</text><line style="stroke:#181818;stroke-width:0.5;" x1="195.66" x2="374.7176" y1="184.2969" y2="184.2969"/><line style="stroke:#181818;stroke-width:0.5;" x1="195.66" x2="374.7176" y1="192.2969" y2="192.2969"/></g><!--class Estudio--><g class="entity" data-qualified-name="Estudio" data-source-line="24" id="ent0009"><rect fill="#F1F1F1" height="48" rx="2.5" ry="2.5" style="stroke:#181818;stroke-width:0.5;" width="83.8438" x="603.27" y="44.2969"/><ellipse cx="618.27" cy="60.2969" fill="#ADD1B2" rx="11" ry="11" style="stroke:#181818;stroke-width:1;"/><path d="M621.2388,65.9375 Q620.6606,66.2344 620.02,66.375 Q619.3794,66.5313 618.6763,66.5313 Q616.1763,66.5313 614.8481,64.8906 Q613.5356,63.2344 613.5356,60.1094 Q613.5356,56.9844 614.8481,55.3281 Q616.1763,53.6719 618.6763,53.6719 Q619.3794,53.6719 620.02,53.8281 Q620.6763,53.9844 621.2388,54.2813 L621.2388,57 Q620.6138,56.4219 620.02,56.1563 Q619.4263,55.875 618.8013,55.875 Q617.4575,55.875 616.77,56.9531 Q616.0825,58.0156 616.0825,60.1094 Q616.0825,62.2031 616.77,63.2813 Q617.4575,64.3438 618.8013,64.3438 Q619.4263,64.3438 620.02,64.0781 Q620.6138,63.7969 621.2388,63.2188 L621.2388,65.9375 Z " fill="#000000"/><text fill="#000000" font-family="sans-serif" font-size="14" lengthAdjust="spacing" textLength="51.8438" x="632.27" y="65.1436">Estudio</text><line style="stroke:#181818;stroke-width:0.5;" x1="604.27" x2="686.1138" y1="76.2969" y2="76.2969"/><line style="stroke:#181818;stroke-width:0.5;" x1="604.27" x2="686.1138" y1="84.2969" y2="84.2969"/></g><!--class IngenieroDeSonido--><g class="entity" data-qualified-name="IngenieroDeSonido" data-source-line="27" id="ent0010"><rect fill="#F1F1F1" height="48" rx="2.5" ry="2.5" style="stroke:#181818;stroke-width:0.5;" width="165.2598" x="562.56" y="152.2969"/><ellipse cx="577.56" cy="168.2969" fill="#ADD1B2" rx="11" ry="11" style="stroke:#181818;stroke-width:1;"/><path d="M580.5288,173.9375 Q579.9506,174.2344 579.31,174.375 Q578.6694,174.5313 577.9663,174.5313 Q575.4663,174.5313 574.1381,172.8906 Q572.8256,171.2344 572.8256,168.1094 Q572.8256,164.9844 574.1381,163.3281 Q575.4663,161.6719 577.9663,161.6719 Q578.6694,161.6719 579.31,161.8281 Q579.9663,161.9844 580.5288,162.2813 L580.5288,165 Q579.9038,164.4219 579.31,164.1563 Q578.7163,163.875 578.0913,163.875 Q576.7475,163.875 576.06,164.9531 Q575.3725,166.0156 575.3725,168.1094 Q575.3725,170.2031 576.06,171.2813 Q576.7475,172.3438 578.0913,172.3438 Q578.7163,172.3438 579.31,172.0781 Q579.9038,171.7969 580.5288,171.2188 L580.5288,173.9375 Z " fill="#000000"/><text fill="#000000" font-family="sans-serif" font-size="14" lengthAdjust="spacing" textLength="133.2598" x="591.56" y="173.1436">IngenieroDeSonido</text><line style="stroke:#181818;stroke-width:0.5;" x1="563.56" x2="726.8198" y1="184.2969" y2="184.2969"/><line style="stroke:#181818;stroke-width:0.5;" x1="563.56" x2="726.8198" y1="192.2969" y2="192.2969"/></g><!--class Instrumento--><g class="entity" data-qualified-name="Instrumento" data-source-line="30" id="ent0011"><rect fill="#F1F1F1" height="48" rx="2.5" ry="2.5" style="stroke:#181818;stroke-width:0.5;" width="117.5928" x="596.39" y="260.2969"/><ellipse cx="611.39" cy="276.2969" fill="#ADD1B2" rx="11" ry="11" style="stroke:#181818;stroke-width:1;"/><path d="M614.3588,281.9375 Q613.7806,282.2344 613.14,282.375 Q612.4994,282.5313 611.7963,282.5313 Q609.2963,282.5313 607.9681,280.8906 Q606.6556,279.2344 606.6556,276.1094 Q606.6556,272.9844 607.9681,271.3281 Q609.2963,269.6719 611.7963,269.6719 Q612.4994,269.6719 613.14,269.8281 Q613.7963,269.9844 614.3588,270.2813 L614.3588,273 Q613.7338,272.4219 613.14,272.1563 Q612.5463,271.875 611.9213,271.875 Q610.5775,271.875 609.89,272.9531 Q609.2025,274.0156 609.2025,276.1094 Q609.2025,278.2031 609.89,279.2813 Q610.5775,280.3438 611.9213,280.3438 Q612.5463,280.3438 613.14,280.0781 Q613.7338,279.7969 614.3588,279.2188 L614.3588,281.9375 Z " fill="#000000"/><text fill="#000000" font-family="sans-serif" font-size="14" lengthAdjust="spacing" textLength="85.5928" x="625.39" y="281.1436">Instrumento</text><line style="stroke:#181818;stroke-width:0.5;" x1="597.39" x2="712.9828" y1="292.2969" y2="292.2969"/><line style="stroke:#181818;stroke-width:0.5;" x1="597.39" x2="712.9828" y1="300.2969" y2="300.2969"/></g><!--class Microfono--><g class="entity" data-qualified-name="Microfono" data-source-line="33" id="ent0012"><rect fill="#F1F1F1" height="48" rx="2.5" ry="2.5" style="stroke:#181818;stroke-width:0.5;" width="100.9199" x="460.73" y="260.2969"/><ellipse cx="475.73" cy="276.2969" fill="#ADD1B2" rx="11" ry="11" style="stroke:#181818;stroke-width:1;"/><path d="M478.6988,281.9375 Q478.1206,282.2344 477.48,282.375 Q476.8394,282.5313 476.1363,282.5313 Q473.6363,282.5313 472.3081,280.8906 Q470.9956,279.2344 470.9956,276.1094 Q470.9956,272.9844 472.3081,271.3281 Q473.6363,269.6719 476.1363,269.6719 Q476.8394,269.6719 477.48,269.8281 Q478.1363,269.9844 478.6988,270.2813 L478.6988,273 Q478.0738,272.4219 477.48,272.1563 Q476.8863,271.875 476.2613,271.875 Q474.9175,271.875 474.23,272.9531 Q473.5425,274.0156 473.5425,276.1094 Q473.5425,278.2031 474.23,279.2813 Q474.9175,280.3438 476.2613,280.3438 Q476.8863,280.3438 477.48,280.0781 Q478.0738,279.7969 478.6988,279.2188 L478.6988,281.9375 Z " fill="#000000"/><text fill="#000000" font-family="sans-serif" font-size="14" lengthAdjust="spacing" textLength="68.9199" x="489.73" y="281.1436">Microfono</text><line style="stroke:#181818;stroke-width:0.5;" x1="461.73" x2="560.6499" y1="292.2969" y2="292.2969"/><line style="stroke:#181818;stroke-width:0.5;" x1="461.73" x2="560.6499" y1="300.2969" y2="300.2969"/></g><!--reverse link Disco to Cancion--><g class="link" data-entity-1="ent0003" data-entity-2="ent0004" data-link-type="composition" data-source-line="36" id="lnk13"><path codeLine="36" d="M291.785,319.2093 C300.955,336.8893 307.98,350.4269 317.15,368.0869" fill="none" id="Disco-backto-Cancion" style="stroke:#181818;stroke-width:1;"/><polygon fill="#181818" points="286.26,308.5569,285.4717,315.7248,291.785,319.2093,292.5733,312.0414,286.26,308.5569" style="stroke:#181818;stroke-width:1;"/></g><!--reverse link Playlist to Cancion--><g class="link" data-entity-1="ent0005" data-entity-2="ent0004" data-link-type="aggregation" data-source-line="38" id="lnk14"><path codeLine="38" d="M367.2947,319.1673 C357.9547,336.8473 350.78,350.4269 341.45,368.0869" fill="none" id="Playlist-backto-Cancion" style="stroke:#181818;stroke-width:1;"/><polygon fill="none" points="372.9,308.5569,366.5606,311.9937,367.2947,319.1673,373.6342,315.7305,372.9,308.5569" style="stroke:#181818;stroke-width:1;"/></g><!--reverse link Gira to Cantante--><g class="link" data-entity-1="ent0006" data-entity-2="ent0002" data-link-type="aggregation" data-source-line="39" id="lnk15"><path codeLine="39" d="M479.19,104.5569 C479.19,122.2369 479.19,134.4269 479.19,152.0869" fill="none" id="Gira-backto-Cantante" style="stroke:#181818;stroke-width:1;"/><polygon fill="none" points="479.19,92.5569,475.19,98.5569,479.19,104.5569,483.19,98.5569,479.19,92.5569" style="stroke:#181818;stroke-width:1;"/></g><!--reverse link SelloDiscografico to Disco--><g class="link" data-entity-1="ent0007" data-entity-2="ent0003" data-link-type="aggregation" data-source-line="40" id="lnk16"><path codeLine="40" d="M135.5926,206.3796 C169.6326,225.2696 206.62,245.7969 238.78,263.6469" fill="none" id="SelloDiscografico-backto-Disco" style="stroke:#181818;stroke-width:1;"/><polygon fill="none" points="125.1,200.5569,128.4054,206.9658,135.5926,206.3796,132.2872,199.9707,125.1,200.5569" style="stroke:#181818;stroke-width:1;"/></g><!--reverse link PlataformaStreaming to Disco--><g class="link" data-entity-1="ent0008" data-entity-2="ent0003" data-link-type="aggregation" data-source-line="41" id="lnk17"><path codeLine="41" d="M281.5345,212.4931 C279.7045,230.1731 278.43,242.4269 276.6,260.0869" fill="none" id="PlataformaStreaming-backto-Disco" style="stroke:#181818;stroke-width:1;"/><polygon fill="none" points="282.77,200.5569,278.1735,206.1132,281.5345,212.4931,286.131,206.9368,282.77,200.5569" style="stroke:#181818;stroke-width:1;"/></g><!--link Cantante to Disco--><g class="link" data-entity-1="ent0002" data-entity-2="ent0003" data-link-type="association" data-source-line="43" id="lnk18"><path codeLine="43" d="M433.95,200.6869 C396.57,220.0169 344.23,247.0769 309.79,264.8869" fill="none" id="Cantante-Disco" style="stroke:#181818;stroke-width:1;"/></g><!--link Cantante to Instrumento--><g class="link" data-entity-1="ent0002" data-entity-2="ent0011" data-link-type="dependency" data-source-line="45" id="lnk19"><path codeLine="45" d="M517.81,200.5569 C547.05,218.1669 581.9097,239.1722 611.2097,256.8122" fill="none" id="Cantante-to-Instrumento" style="stroke:#181818;stroke-width:1;stroke-dasharray:7,7;"/><polygon fill="#181818" points="616.35,259.9069,610.7027,251.8379,612.0664,257.3279,606.5764,258.6917,616.35,259.9069" style="stroke:#181818;stroke-width:1;"/></g><!--link Cantante to Microfono--><g class="link" data-entity-1="ent0002" data-entity-2="ent0012" data-link-type="dependency" data-source-line="46" id="lnk20"><path codeLine="46" d="M486.21,200.5569 C491.54,218.2369 497.1164,236.6828 502.4464,254.3428" fill="none" id="Cantante-to-Microfono" style="stroke:#181818;stroke-width:1;stroke-dasharray:7,7;"/><polygon fill="#181818" points="504.18,260.0869,505.4089,250.315,502.7353,255.3001,497.7502,252.6265,504.18,260.0869" style="stroke:#181818;stroke-width:1;"/></g><!--link Cantante to Playlist--><g class="link" data-entity-1="ent0002" data-entity-2="ent0005" data-link-type="dependency" data-source-line="47" id="lnk21"><path codeLine="47" d="M458.56,200.5569 C442.89,218.2369 425.4108,237.9377 409.7508,255.5977" fill="none" id="Cantante-to-Playlist" style="stroke:#181818;stroke-width:1;stroke-dasharray:7,7;"/><polygon fill="#181818" points="405.77,260.0869,414.734,256.0069,409.0873,256.3459,408.7484,250.6992,405.77,260.0869" style="stroke:#181818;stroke-width:1;"/></g><!--link Estudio to Cantante--><g class="link" data-entity-1="ent0009" data-entity-2="ent0002" data-link-type="dependency" data-source-line="48" id="lnk22"><path codeLine="48" d="M608.76,92.5569 C581.18,110.1669 548.5072,131.0382 520.8772,148.6782" fill="none" id="Estudio-to-Cantante" style="stroke:#181818;stroke-width:1;stroke-dasharray:7,7;"/><polygon fill="#181818" points="515.82,151.9069,525.5583,150.4353,520.0343,149.2163,521.2533,143.6923,515.82,151.9069" style="stroke:#181818;stroke-width:1;"/></g><!--link Estudio to Instrumento--><g class="link" data-entity-1="ent0009" data-entity-2="ent0011" data-link-type="dependency" data-source-line="49" id="lnk23"><path codeLine="49" d="M687.53,92.1969 C709.08,106.3769 733.2,126.7669 745.19,152.2969 C754.25,171.6069 753.75,180.7569 745.19,200.2969 C734.44,224.8269 717.2906,241.7446 697.7506,256.2246" fill="none" id="Estudio-to-Instrumento" style="stroke:#181818;stroke-width:1;stroke-dasharray:7,7;"/><polygon fill="#181818" points="692.93,259.7969,702.5425,257.6522,696.9472,256.82,697.7794,251.2246,692.93,259.7969" style="stroke:#181818;stroke-width:1;"/></g><!--link Estudio to IngenieroDeSonido--><g class="link" data-entity-1="ent0009" data-entity-2="ent0010" data-link-type="dependency" data-source-line="50" id="lnk24"><path codeLine="50" d="M645.19,92.5569 C645.19,110.2369 645.19,128.4269 645.19,146.0869" fill="none" id="Estudio-to-IngenieroDeSonido" style="stroke:#181818;stroke-width:1;stroke-dasharray:7,7;"/><polygon fill="#181818" points="645.19,152.0869,649.19,143.0869,645.19,147.0869,641.19,143.0869,645.19,152.0869" style="stroke:#181818;stroke-width:1;"/></g><!--link IngenieroDeSonido to Instrumento--><g class="link" data-entity-1="ent0010" data-entity-2="ent0011" data-link-type="dependency" data-source-line="51" id="lnk25"><path codeLine="51" d="M647.38,200.5569 C649.05,218.2369 650.7651,236.4535 652.4351,254.1135" fill="none" id="IngenieroDeSonido-to-Instrumento" style="stroke:#181818;stroke-width:1;stroke-dasharray:7,7;"/><polygon fill="#181818" points="653,260.0869,656.1349,250.7503,652.5293,255.1091,648.1705,251.5034,653,260.0869" style="stroke:#181818;stroke-width:1;"/></g><?plantuml-src RP31YiCm34Jl-WgV5z9FsCksb1uAI_C5mbM2mB70KWwbzDytoJQkdHPooHjhc1bZ2-GENfJLQ41t7fKz1jUu2mNqB94Km0TKTJyORVh8tU6niZshbn9CZ-Qh4lq6l8N9lsH7JbZ-jnI2B6Pzmevhpyd0i9CqO6k9SE3Ob_91RRnoTN6AFKMc97jg9V9r8wgbSQ1e5JwpJz99VCB_PbzDaoi1v2Romh1KUO9b7tWlCyiBW4zTNYhaZJ-WtUwxp5uBENsDryImZZJ37BI4fNFDDrF2-xYR-py0?></g></svg>