<?plantuml 1.2026.2beta3?><svg xmlns="http://www.w3.org/2000/svg" xmlns:xlink="http://www.w3.org/1999/xlink" contentStyleType="text/css" data-diagram-type="CLASS" height="423px" preserveAspectRatio="none" style="width:935px;height:423px;background:#FFFFFF;" version="1.1" viewBox="0 0 935 423" width="935px" zoomAndPan="magnify"><title>Ecosistema Musical - Relaciones</title><defs/><g><g class="title" data-source-line="1"><text fill="#000000" font-family="sans-serif" font-size="14" font-weight="bold" lengthAdjust="spacing" textLength="254.208" x="333.521" y="22.9951">Ecosistema Musical - Relaciones</text></g><!--class Cantante--><g class="entity" data-qualified-name="Cantante" data-source-line="3" id="ent0002"><rect fill="#F1F1F1" height="48" rx="2.5" ry="2.5" style="stroke:#181818;stroke-width:0.5;" width="96.2715" x="605.05" y="152.2969"/><ellipse cx="620.05" cy="168.2969" fill="#ADD1B2" rx="11" ry="11" style="stroke:#181818;stroke-width:1;"/><path d="M623.0188,173.9375 Q622.4406,174.2344 621.8,174.375 Q621.1594,174.5313 620.4563,174.5313 Q617.9563,174.5313 616.6281,172.8906 Q615.3156,171.2344 615.3156,168.1094 Q615.3156,164.9844 616.6281,163.3281 Q617.9563,161.6719 620.4563,161.6719 Q621.1594,161.6719 621.8,161.8281 Q622.4563,161.9844 623.0188,162.2813 L623.0188,165 Q622.3938,164.4219 621.8,164.1563 Q621.2063,163.875 620.5813,163.875 Q619.2375,163.875 618.55,164.9531 Q617.8625,166.0156 617.8625,168.1094 Q617.8625,170.2031 618.55,171.2813 Q619.2375,172.3438 620.5813,172.3438 Q621.2063,172.3438 621.8,172.0781 Q622.3938,171.7969 623.0188,171.2188 L623.0188,173.9375 Z " fill="#000000"/><text fill="#000000" font-family="sans-serif" font-size="14" lengthAdjust="spacing" textLength="64.2715" x="634.05" y="173.1436">Cantante</text><line style="stroke:#181818;stroke-width:0.5;" x1="606.05" x2="700.3215" y1="184.2969" y2="184.2969"/><line style="stroke:#181818;stroke-width:0.5;" x1="606.05" x2="700.3215" y1="192.2969" y2="192.2969"/></g><!--class Disco--><g class="entity" data-qualified-name="Disco" data-source-line="6" id="ent0003"><rect fill="#F1F1F1" height="48" rx="2.5" ry="2.5" style="stroke:#181818;stroke-width:0.5;" width="70.2266" x="387.07" y="260.2969"/><ellipse cx="402.07" cy="276.2969" fill="#ADD1B2" rx="11" ry="11" style="stroke:#181818;stroke-width:1;"/><path d="M405.0388,281.9375 Q404.4606,282.2344 403.82,282.375 Q403.1794,282.5313 402.4763,282.5313 Q399.9763,282.5313 398.6481,280.8906 Q397.3356,279.2344 397.3356,276.1094 Q397.3356,272.9844 398.6481,271.3281 Q399.9763,269.6719 402.4763,269.6719 Q403.1794,269.6719 403.82,269.8281 Q404.4763,269.9844 405.0388,270.2813 L405.0388,273 Q404.4138,272.4219 403.82,272.1563 Q403.2263,271.875 402.6013,271.875 Q401.2575,271.875 400.57,272.9531 Q399.8825,274.0156 399.8825,276.1094 Q399.8825,278.2031 400.57,279.2813 Q401.2575,280.3438 402.6013,280.3438 Q403.2263,280.3438 403.82,280.0781 Q404.4138,279.7969 405.0388,279.2188 L405.0388,281.9375 Z " fill="#000000"/><text fill="#000000" font-family="sans-serif" font-size="14" lengthAdjust="spacing" textLength="38.2266" x="416.07" y="281.1436">Disco</text><line style="stroke:#181818;stroke-width:0.5;" x1="388.07" x2="456.2966" y1="292.2969" y2="292.2969"/><line style="stroke:#181818;stroke-width:0.5;" x1="388.07" x2="456.2966" y1="300.2969" y2="300.2969"/></g><!--class Cancion--><g class="entity" data-qualified-name="Cancion" data-source-line="9" id="ent0004"><rect fill="#F1F1F1" height="48" rx="2.5" ry="2.5" style="stroke:#181818;stroke-width:0.5;" width="88.2529" x="433.06" y="368.2969"/><ellipse cx="448.06" cy="384.2969" fill="#ADD1B2" rx="11" ry="11" style="stroke:#181818;stroke-width:1;"/><path d="M451.0288,389.9375 Q450.4506,390.2344 449.81,390.375 Q449.1694,390.5313 448.4663,390.5313 Q445.9663,390.5313 444.6381,388.8906 Q443.3256,387.2344 443.3256,384.1094 Q443.3256,380.9844 444.6381,379.3281 Q445.9663,377.6719 448.4663,377.6719 Q449.1694,377.6719 449.81,377.8281 Q450.4663,377.9844 451.0288,378.2813 L451.0288,381 Q450.4038,380.4219 449.81,380.1563 Q449.2163,379.875 448.5913,379.875 Q447.2475,379.875 446.56,380.9531 Q445.8725,382.0156 445.8725,384.1094 Q445.8725,386.2031 446.56,387.2813 Q447.2475,388.3438 448.5913,388.3438 Q449.2163,388.3438 449.81,388.0781 Q450.4038,387.7969 451.0288,387.2188 L451.0288,389.9375 Z " fill="#000000"/><text fill="#000000" font-family="sans-serif" font-size="14" lengthAdjust="spacing" textLength="56.2529" x="462.06" y="389.1436">Cancion</text><line style="stroke:#181818;stroke-width:0.5;" x1="434.06" x2="520.3129" y1="400.2969" y2="400.2969"/><line style="stroke:#181818;stroke-width:0.5;" x1="434.06" x2="520.3129" y1="408.2969" y2="408.2969"/></g><!--class Playlist--><g class="entity" data-qualified-name="Playlist" data-source-line="12" id="ent0005"><rect fill="#F1F1F1" height="48" rx="2.5" ry="2.5" style="stroke:#181818;stroke-width:0.5;" width="81.7588" x="492.31" y="260.2969"/><ellipse cx="507.31" cy="276.2969" fill="#ADD1B2" rx="11" ry="11" style="stroke:#181818;stroke-width:1;"/><path d="M510.2788,281.9375 Q509.7006,282.2344 509.06,282.375 Q508.4194,282.5313 507.7163,282.5313 Q505.2163,282.5313 503.8881,280.8906 Q502.5756,279.2344 502.5756,276.1094 Q502.5756,272.9844 503.8881,271.3281 Q505.2163,269.6719 507.7163,269.6719 Q508.4194,269.6719 509.06,269.8281 Q509.7163,269.9844 510.2788,270.2813 L510.2788,273 Q509.6538,272.4219 509.06,272.1563 Q508.4663,271.875 507.8413,271.875 Q506.4975,271.875 505.81,272.9531 Q505.1225,274.0156 505.1225,276.1094 Q505.1225,278.2031 505.81,279.2813 Q506.4975,280.3438 507.8413,280.3438 Q508.4663,280.3438 509.06,280.0781 Q509.6538,279.7969 510.2788,279.2188 L510.2788,281.9375 Z " fill="#000000"/><text fill="#000000" font-family="sans-serif" font-size="14" lengthAdjust="spacing" textLength="49.7588" x="521.31" y="281.1436">Playlist</text><line style="stroke:#181818;stroke-width:0.5;" x1="493.31" x2="573.0688" y1="292.2969" y2="292.2969"/><line style="stroke:#181818;stroke-width:0.5;" x1="493.31" x2="573.0688" y1="300.2969" y2="300.2969"/></g><!--class Gira--><g class="entity" data-qualified-name="Gira" data-source-line="15" id="ent0006"><rect fill="#F1F1F1" height="48" rx="2.5" ry="2.5" style="stroke:#181818;stroke-width:0.5;" width="61.0732" x="542.65" y="44.2969"/><ellipse cx="557.65" cy="60.2969" fill="#ADD1B2" rx="11" ry="11" style="stroke:#181818;stroke-width:1;"/><path d="M560.6188,65.9375 Q560.0406,66.2344 559.4,66.375 Q558.7594,66.5313 558.0563,66.5313 Q555.5563,66.5313 554.2281,64.8906 Q552.9156,63.2344 552.9156,60.1094 Q552.9156,56.9844 554.2281,55.3281 Q555.5563,53.6719 558.0563,53.6719 Q558.7594,53.6719 559.4,53.8281 Q560.0563,53.9844 560.6188,54.2813 L560.6188,57 Q559.9938,56.4219 559.4,56.1563 Q558.8063,55.875 558.1813,55.875 Q556.8375,55.875 556.15,56.9531 Q555.4625,58.0156 555.4625,60.1094 Q555.4625,62.2031 556.15,63.2813 Q556.8375,64.3438 558.1813,64.3438 Q558.8063,64.3438 559.4,64.0781 Q559.9938,63.7969 560.6188,63.2188 L560.6188,65.9375 Z " fill="#000000"/><text fill="#000000" font-family="sans-serif" font-size="14" lengthAdjust="spacing" textLength="29.0732" x="571.65" y="65.1436">Gira</text><line style="stroke:#181818;stroke-width:0.5;" x1="543.65" x2="602.7232" y1="76.2969" y2="76.2969"/><line style="stroke:#181818;stroke-width:0.5;" x1="543.65" x2="602.7232" y1="84.2969" y2="84.2969"/></g><!--class Entrada--><g class="entity" data-qualified-name="Entrada" data-source-line="18" id="ent0007"><rect fill="#F1F1F1" height="48" rx="2.5" ry="2.5" style="stroke:#181818;stroke-width:0.5;" width="87.0088" x="482.68" y="152.2969"/><ellipse cx="497.68" cy="168.2969" fill="#ADD1B2" rx="11" ry="11" style="stroke:#181818;stroke-width:1;"/><path d="M500.6488,173.9375 Q500.0706,174.2344 499.43,174.375 Q498.7894,174.5313 498.0863,174.5313 Q495.5863,174.5313 494.2581,172.8906 Q492.9456,171.2344 492.9456,168.1094 Q492.9456,164.9844 494.2581,163.3281 Q495.5863,161.6719 498.0863,161.6719 Q498.7894,161.6719 499.43,161.8281 Q500.0863,161.9844 500.6488,162.2813 L500.6488,165 Q500.0238,164.4219 499.43,164.1563 Q498.8363,163.875 498.2113,163.875 Q496.8675,163.875 496.18,164.9531 Q495.4925,166.0156 495.4925,168.1094 Q495.4925,170.2031 496.18,171.2813 Q496.8675,172.3438 498.2113,172.3438 Q498.8363,172.3438 499.43,172.0781 Q500.0238,171.7969 500.6488,171.2188 L500.6488,173.9375 Z " fill="#000000"/><text fill="#000000" font-family="sans-serif" font-size="14" lengthAdjust="spacing" textLength="55.0088" x="511.68" y="173.1436">Entrada</text><line style="stroke:#181818;stroke-width:0.5;" x1="483.68" x2="568.6888" y1="184.2969" y2="184.2969"/><line style="stroke:#181818;stroke-width:0.5;" x1="483.68" x2="568.6888" y1="192.2969" y2="192.2969"/></g><!--class SelloDiscografico--><g class="entity" data-qualified-name="SelloDiscografico" data-source-line="21" id="ent0008"><rect fill="#F1F1F1" height="48" rx="2.5" ry="2.5" style="stroke:#181818;stroke-width:0.5;" width="152.374" x="7" y="152.2969"/><ellipse cx="22" cy="168.2969" fill="#ADD1B2" rx="11" ry="11" style="stroke:#181818;stroke-width:1;"/><path d="M24.9688,173.9375 Q24.3906,174.2344 23.75,174.375 Q23.1094,174.5313 22.4063,174.5313 Q19.9063,174.5313 18.5781,172.8906 Q17.2656,171.2344 17.2656,168.1094 Q17.2656,164.9844 18.5781,163.3281 Q19.9063,161.6719 22.4063,161.6719 Q23.1094,161.6719 23.75,161.8281 Q24.4063,161.9844 24.9688,162.2813 L24.9688,165 Q24.3438,164.4219 23.75,164.1563 Q23.1563,163.875 22.5313,163.875 Q21.1875,163.875 20.5,164.9531 Q19.8125,166.0156 19.8125,168.1094 Q19.8125,170.2031 20.5,171.2813 Q21.1875,172.3438 22.5313,172.3438 Q23.1563,172.3438 23.75,172.0781 Q24.3438,171.7969 24.9688,171.2188 L24.9688,173.9375 Z " fill="#000000"/><text fill="#000000" font-family="sans-serif" font-size="14" lengthAdjust="spacing" textLength="120.374" x="36" y="173.1436">SelloDiscografico</text><line style="stroke:#181818;stroke-width:0.5;" x1="8" x2="158.374" y1="184.2969" y2="184.2969"/><line style="stroke:#181818;stroke-width:0.5;" x1="8" x2="158.374" y1="192.2969" y2="192.2969"/></g><!--class PlataformaStreaming--><g class="entity" data-qualified-name="PlataformaStreaming" data-source-line="24" id="ent0009"><rect fill="#F1F1F1" height="48" rx="2.5" ry="2.5" style="stroke:#181818;stroke-width:0.5;" width="181.0576" x="194.66" y="152.2969"/><ellipse cx="209.66" cy="168.2969" fill="#ADD1B2" rx="11" ry="11" style="stroke:#181818;stroke-width:1;"/><path d="M212.6288,173.9375 Q212.0506,174.2344 211.41,174.375 Q210.7694,174.5313 210.0663,174.5313 Q207.5663,174.5313 206.2381,172.8906 Q204.9256,171.2344 204.9256,168.1094 Q204.9256,164.9844 206.2381,163.3281 Q207.5663,161.6719 210.0663,161.6719 Q210.7694,161.6719 211.41,161.8281 Q212.0663,161.9844 212.6288,162.2813 L212.6288,165 Q212.0038,164.4219 211.41,164.1563 Q210.8163,163.875 210.1913,163.875 Q208.8475,163.875 208.16,164.9531 Q207.4725,166.0156 207.4725,168.1094 Q207.4725,170.2031 208.16,171.2813 Q208.8475,172.3438 210.1913,172.3438 Q210.8163,172.3438 211.41,172.0781 Q212.0038,171.7969 212.6288,171.2188 L212.6288,173.9375 Z " fill="#000000"/><text fill="#000000" font-family="sans-serif" font-size="14" lengthAdjust="spacing" textLength="149.0576" x="223.66" y="173.1436">PlataformaStreaming</text><line style="stroke:#181818;stroke-width:0.5;" x1="195.66" x2="374.7176" y1="184.2969" y2="184.2969"/><line style="stroke:#181818;stroke-width:0.5;" x1="195.66" x2="374.7176" y1="192.2969" y2="192.2969"/></g><!--class Estudio--><g class="entity" data-qualified-name="Estudio" data-source-line="27" id="ent0010"><rect fill="#F1F1F1" height="48" rx="2.5" ry="2.5" style="stroke:#181818;stroke-width:0.5;" width="83.8438" x="777.27" y="44.2969"/><ellipse cx="792.27" cy="60.2969" fill="#ADD1B2" rx="11" ry="11" style="stroke:#181818;stroke-width:1;"/><path d="M795.2388,65.9375 Q794.6606,66.2344 794.02,66.375 Q793.3794,66.5313 792.6763,66.5313 Q790.1763,66.5313 788.8481,64.8906 Q787.5356,63.2344 787.5356,60.1094 Q787.5356,56.9844 788.8481,55.3281 Q790.1763,53.6719 792.6763,53.6719 Q793.3794,53.6719 794.02,53.8281 Q794.6763,53.9844 795.2388,54.2813 L795.2388,57 Q794.6138,56.4219 794.02,56.1563 Q793.4263,55.875 792.8013,55.875 Q791.4575,55.875 790.77,56.9531 Q790.0825,58.0156 790.0825,60.1094 Q790.0825,62.2031 790.77,63.2813 Q791.4575,64.3438 792.8013,64.3438 Q793.4263,64.3438 794.02,64.0781 Q794.6138,63.7969 795.2388,63.2188 L795.2388,65.9375 Z " fill="#000000"/><text fill="#000000" font-family="sans-serif" font-size="14" lengthAdjust="spacing" textLength="51.8438" x="806.27" y="65.1436">Estudio</text><line style="stroke:#181818;stroke-width:0.5;" x1="778.27" x2="860.1138" y1="76.2969" y2="76.2969"/><line style="stroke:#181818;stroke-width:0.5;" x1="778.27" x2="860.1138" y1="84.2969" y2="84.2969"/></g><!--class IngenieroDeSonido--><g class="entity" data-qualified-name="IngenieroDeSonido" data-source-line="30" id="ent0011"><rect fill="#F1F1F1" height="48" rx="2.5" ry="2.5" style="stroke:#181818;stroke-width:0.5;" width="165.2598" x="736.56" y="152.2969"/><ellipse cx="751.56" cy="168.2969" fill="#ADD1B2" rx="11" ry="11" style="stroke:#181818;stroke-width:1;"/><path d="M754.5288,173.9375 Q753.9506,174.2344 753.31,174.375 Q752.6694,174.5313 751.9663,174.5313 Q749.4663,174.5313 748.1381,172.8906 Q746.8256,171.2344 746.8256,168.1094 Q746.8256,164.9844 748.1381,163.3281 Q749.4663,161.6719 751.9663,161.6719 Q752.6694,161.6719 753.31,161.8281 Q753.9663,161.9844 754.5288,162.2813 L754.5288,165 Q753.9038,164.4219 753.31,164.1563 Q752.7163,163.875 752.0913,163.875 Q750.7475,163.875 750.06,164.9531 Q749.3725,166.0156 749.3725,168.1094 Q749.3725,170.2031 750.06,171.2813 Q750.7475,172.3438 752.0913,172.3438 Q752.7163,172.3438 753.31,172.0781 Q753.9038,171.7969 754.5288,171.2188 L754.5288,173.9375 Z " fill="#000000"/><text fill="#000000" font-family="sans-serif" font-size="14" lengthAdjust="spacing" textLength="133.2598" x="765.56" y="173.1436">IngenieroDeSonido</text><line style="stroke:#181818;stroke-width:0.5;" x1="737.56" x2="900.8198" y1="184.2969" y2="184.2969"/><line style="stroke:#181818;stroke-width:0.5;" x1="737.56" x2="900.8198" y1="192.2969" y2="192.2969"/></g><!--class Instrumento--><g class="entity" data-qualified-name="Instrumento" data-source-line="33" id="ent0012"><rect fill="#F1F1F1" height="48" rx="2.5" ry="2.5" style="stroke:#181818;stroke-width:0.5;" width="117.5928" x="760.39" y="260.2969"/><ellipse cx="775.39" cy="276.2969" fill="#ADD1B2" rx="11" ry="11" style="stroke:#181818;stroke-width:1;"/><path d="M778.3588,281.9375 Q777.7806,282.2344 777.14,282.375 Q776.4994,282.5313 775.7963,282.5313 Q773.2963,282.5313 771.9681,280.8906 Q770.6556,279.2344 770.6556,276.1094 Q770.6556,272.9844 771.9681,271.3281 Q773.2963,269.6719 775.7963,269.6719 Q776.4994,269.6719 777.14,269.8281 Q777.7963,269.9844 778.3588,270.2813 L778.3588,273 Q777.7338,272.4219 777.14,272.1563 Q776.5463,271.875 775.9213,271.875 Q774.5775,271.875 773.89,272.9531 Q773.2025,274.0156 773.2025,276.1094 Q773.2025,278.2031 773.89,279.2813 Q774.5775,280.3438 775.9213,280.3438 Q776.5463,280.3438 777.14,280.0781 Q777.7338,279.7969 778.3588,279.2188 L778.3588,281.9375 Z " fill="#000000"/><text fill="#000000" font-family="sans-serif" font-size="14" lengthAdjust="spacing" textLength="85.5928" x="789.39" y="281.1436">Instrumento</text><line style="stroke:#181818;stroke-width:0.5;" x1="761.39" x2="876.9828" y1="292.2969" y2="292.2969"/><line style="stroke:#181818;stroke-width:0.5;" x1="761.39" x2="876.9828" y1="300.2969" y2="300.2969"/></g><!--class Microfono--><g class="entity" data-qualified-name="Microfono" data-source-line="36" id="ent0013"><rect fill="#F1F1F1" height="48" rx="2.5" ry="2.5" style="stroke:#181818;stroke-width:0.5;" width="100.9199" x="608.73" y="260.2969"/><ellipse cx="623.73" cy="276.2969" fill="#ADD1B2" rx="11" ry="11" style="stroke:#181818;stroke-width:1;"/><path d="M626.6988,281.9375 Q626.1206,282.2344 625.48,282.375 Q624.8394,282.5313 624.1363,282.5313 Q621.6363,282.5313 620.3081,280.8906 Q618.9956,279.2344 618.9956,276.1094 Q618.9956,272.9844 620.3081,271.3281 Q621.6363,269.6719 624.1363,269.6719 Q624.8394,269.6719 625.48,269.8281 Q626.1363,269.9844 626.6988,270.2813 L626.6988,273 Q626.0738,272.4219 625.48,272.1563 Q624.8863,271.875 624.2613,271.875 Q622.9175,271.875 622.23,272.9531 Q621.5425,274.0156 621.5425,276.1094 Q621.5425,278.2031 622.23,279.2813 Q622.9175,280.3438 624.2613,280.3438 Q624.8863,280.3438 625.48,280.0781 Q626.0738,279.7969 626.6988,279.2188 L626.6988,281.9375 Z " fill="#000000"/><text fill="#000000" font-family="sans-serif" font-size="14" lengthAdjust="spacing" textLength="68.9199" x="637.73" y="281.1436">Microfono</text><line style="stroke:#181818;stroke-width:0.5;" x1="609.73" x2="708.6499" y1="292.2969" y2="292.2969"/><line style="stroke:#181818;stroke-width:0.5;" x1="609.73" x2="708.6499" y1="300.2969" y2="300.2969"/></g><!--class Fan--><g class="entity" data-qualified-name="Fan" data-source-line="39" id="ent0014"><rect fill="#F1F1F1" height="48" rx="2.5" ry="2.5" style="stroke:#181818;stroke-width:0.5;" width="57.5049" x="449.43" y="44.2969"/><ellipse cx="464.43" cy="60.2969" fill="#ADD1B2" rx="11" ry="11" style="stroke:#181818;stroke-width:1;"/><path d="M467.3988,65.9375 Q466.8206,66.2344 466.18,66.375 Q465.5394,66.5313 464.8363,66.5313 Q462.3363,66.5313 461.0081,64.8906 Q459.6956,63.2344 459.6956,60.1094 Q459.6956,56.9844 461.0081,55.3281 Q462.3363,53.6719 464.8363,53.6719 Q465.5394,53.6719 466.18,53.8281 Q466.8363,53.9844 467.3988,54.2813 L467.3988,57 Q466.7738,56.4219 466.18,56.1563 Q465.5863,55.875 464.9613,55.875 Q463.6175,55.875 462.93,56.9531 Q462.2425,58.0156 462.2425,60.1094 Q462.2425,62.2031 462.93,63.2813 Q463.6175,64.3438 464.9613,64.3438 Q465.5863,64.3438 466.18,64.0781 Q466.7738,63.7969 467.3988,63.2188 L467.3988,65.9375 Z " fill="#000000"/><text fill="#000000" font-family="sans-serif" font-size="14" lengthAdjust="spacing" textLength="25.5049" x="478.43" y="65.1436">Fan</text><line style="stroke:#181818;stroke-width:0.5;" x1="450.43" x2="505.9349" y1="76.2969" y2="76.2969"/><line style="stroke:#181818;stroke-width:0.5;" x1="450.43" x2="505.9349" y1="84.2969" y2="84.2969"/></g><!--reverse link Disco to Cancion--><g class="link" data-entity-1="ent0003" data-entity-2="ent0004" data-link-type="composition" data-source-line="42" id="lnk15"><path codeLine="42" d="M439.785,319.2093 C448.955,336.8893 455.98,350.4269 465.15,368.0869" fill="none" id="Disco-backto-Cancion" style="stroke:#181818;stroke-width:1;"/><polygon fill="#181818" points="434.26,308.5569,433.4717,315.7248,439.785,319.2093,440.5733,312.0414,434.26,308.5569" style="stroke:#181818;stroke-width:1;"/></g><!--reverse link Gira to Entrada--><g class="link" data-entity-1="ent0006" data-entity-2="ent0007" data-link-type="composition" data-source-line="43" id="lnk16"><path codeLine="43" d="M558.0107,103.529 C550.1807,121.209 544.31,134.4269 536.48,152.0869" fill="none" id="Gira-backto-Entrada" style="stroke:#181818;stroke-width:1;"/><polygon fill="#181818" points="562.87,92.5569,556.783,96.4232,558.0107,103.529,564.0977,99.6627,562.87,92.5569" style="stroke:#181818;stroke-width:1;"/></g><!--reverse link Playlist to Cancion--><g class="link" data-entity-1="ent0005" data-entity-2="ent0004" data-link-type="aggregation" data-source-line="45" id="lnk17"><path codeLine="45" d="M515.2947,319.1673 C505.9547,336.8473 498.78,350.4269 489.45,368.0869" fill="none" id="Playlist-backto-Cancion" style="stroke:#181818;stroke-width:1;"/><polygon fill="none" points="520.9,308.5569,514.5606,311.9937,515.2947,319.1673,521.6342,315.7305,520.9,308.5569" style="stroke:#181818;stroke-width:1;"/></g><!--reverse link Gira to Cantante--><g class="link" data-entity-1="ent0006" data-entity-2="ent0002" data-link-type="aggregation" data-source-line="46" id="lnk18"><path codeLine="46" d="M597.9677,102.136 C611.3077,119.816 622.34,134.4269 635.67,152.0869" fill="none" id="Gira-backto-Cantante" style="stroke:#181818;stroke-width:1;"/><polygon fill="none" points="590.74,92.5569,591.1608,99.7557,597.9677,102.136,597.5469,94.9372,590.74,92.5569" style="stroke:#181818;stroke-width:1;"/></g><!--reverse link SelloDiscografico to Disco--><g class="link" data-entity-1="ent0008" data-entity-2="ent0003" data-link-type="aggregation" data-source-line="47" id="lnk19"><path codeLine="47" d="M169.4529,204.269 C240.6229,226.529 333.13,255.4469 386.96,272.2869" fill="none" id="SelloDiscografico-backto-Disco" style="stroke:#181818;stroke-width:1;"/><polygon fill="none" points="158,200.6869,162.5324,206.2956,169.4529,204.269,164.9205,198.6603,158,200.6869" style="stroke:#181818;stroke-width:1;"/></g><!--reverse link PlataformaStreaming to Disco--><g class="link" data-entity-1="ent0009" data-entity-2="ent0003" data-link-type="aggregation" data-source-line="48" id="lnk20"><path codeLine="48" d="M324.7392,207.9023 C347.5792,225.5823 369.37,242.4269 392.19,260.0869" fill="none" id="PlataformaStreaming-backto-Disco" style="stroke:#181818;stroke-width:1;"/><polygon fill="none" points="315.25,200.5569,317.5461,207.3926,324.7392,207.9023,322.4431,201.0665,315.25,200.5569" style="stroke:#181818;stroke-width:1;"/></g><!--reverse link Fan to Disco--><g class="link" data-entity-1="ent0014" data-entity-2="ent0003" data-link-type="aggregation" data-source-line="49" id="lnk21"><path codeLine="49" d="M469.0523,104.216 C458.2823,145.376 439.05,218.8769 428.28,260.0169" fill="none" id="Fan-backto-Disco" style="stroke:#181818;stroke-width:1;"/><polygon fill="none" points="472.09,92.6069,466.7014,97.3989,469.0523,104.216,474.4409,99.424,472.09,92.6069" style="stroke:#181818;stroke-width:1;"/></g><!--link Cantante to Disco--><g class="link" data-entity-1="ent0002" data-entity-2="ent0003" data-link-type="association" data-source-line="51" id="lnk22"><path codeLine="51" d="M604.76,199.5169 C560.84,219.6769 497.11,248.9169 457.73,266.9869" fill="none" id="Cantante-Disco" style="stroke:#181818;stroke-width:1;"/></g><!--link Cantante to Instrumento--><g class="link" data-entity-1="ent0002" data-entity-2="ent0012" data-link-type="dependency" data-source-line="53" id="lnk23"><path codeLine="53" d="M689.62,200.5569 C717.2,218.1669 749.8623,239.039 777.5023,256.679" fill="none" id="Cantante-to-Instrumento" style="stroke:#181818;stroke-width:1;stroke-dasharray:7,7;"/><polygon fill="#181818" points="782.56,259.9069,777.1253,251.6932,778.3452,257.217,772.8215,258.4369,782.56,259.9069" style="stroke:#181818;stroke-width:1;"/></g><!--link Cantante to Microfono--><g class="link" data-entity-1="ent0002" data-entity-2="ent0013" data-link-type="dependency" data-source-line="54" id="lnk24"><path codeLine="54" d="M654.5,200.5569 C655.5,218.2369 656.5308,236.4365 657.5308,254.0965" fill="none" id="Cantante-to-Microfono" style="stroke:#181818;stroke-width:1;stroke-dasharray:7,7;"/><polygon fill="#181818" points="657.87,260.0869,661.3548,250.8751,657.5873,255.0949,653.3676,251.3274,657.87,260.0869" style="stroke:#181818;stroke-width:1;"/></g><!--link Cantante to Playlist--><g class="link" data-entity-1="ent0002" data-entity-2="ent0005" data-link-type="dependency" data-source-line="55" id="lnk25"><path codeLine="55" d="M626.85,200.5569 C606.84,218.2369 583.9466,238.4544 563.9566,256.1144" fill="none" id="Cantante-to-Playlist" style="stroke:#181818;stroke-width:1;stroke-dasharray:7,7;"/><polygon fill="#181818" points="559.46,260.0869,568.8532,257.1259,563.2072,256.7765,563.5566,251.1304,559.46,260.0869" style="stroke:#181818;stroke-width:1;"/></g><!--link Estudio to Cantante--><g class="link" data-entity-1="ent0010" data-entity-2="ent0002" data-link-type="dependency" data-source-line="56" id="lnk26"><path codeLine="56" d="M782.76,92.5569 C755.18,110.1669 722.5072,131.0382 694.8772,148.6782" fill="none" id="Estudio-to-Cantante" style="stroke:#181818;stroke-width:1;stroke-dasharray:7,7;"/><polygon fill="#181818" points="689.82,151.9069,699.5583,150.4353,694.0343,149.2163,695.2533,143.6923,689.82,151.9069" style="stroke:#181818;stroke-width:1;"/></g><!--link Estudio to Instrumento--><g class="link" data-entity-1="ent0010" data-entity-2="ent0012" data-link-type="dependency" data-source-line="57" id="lnk27"><path codeLine="57" d="M861.53,92.1969 C883.08,106.3769 907.2,126.7669 919.19,152.2969 C928.25,171.6069 928.25,180.9869 919.19,200.2969 C907.34,225.5169 888.6513,242.4122 867.3013,256.5622" fill="none" id="Estudio-to-Instrumento" style="stroke:#181818;stroke-width:1;stroke-dasharray:7,7;"/><polygon fill="#181818" points="862.3,259.8769,872.0117,258.2391,866.4677,257.1146,867.5922,251.5707,862.3,259.8769" style="stroke:#181818;stroke-width:1;"/></g><!--link Estudio to IngenieroDeSonido--><g class="link" data-entity-1="ent0010" data-entity-2="ent0011" data-link-type="dependency" data-source-line="58" id="lnk28"><path codeLine="58" d="M819.19,92.5569 C819.19,110.2369 819.19,128.4269 819.19,146.0869" fill="none" id="Estudio-to-IngenieroDeSonido" style="stroke:#181818;stroke-width:1;stroke-dasharray:7,7;"/><polygon fill="#181818" points="819.19,152.0869,823.19,143.0869,819.19,147.0869,815.19,143.0869,819.19,152.0869" style="stroke:#181818;stroke-width:1;"/></g><!--link IngenieroDeSonido to Instrumento--><g class="link" data-entity-1="ent0011" data-entity-2="ent0012" data-link-type="dependency" data-source-line="59" id="lnk29"><path codeLine="59" d="M819.19,200.5569 C819.19,218.2369 819.19,236.4269 819.19,254.0869" fill="none" id="IngenieroDeSonido-to-Instrumento" style="stroke:#181818;stroke-width:1;stroke-dasharray:7,7;"/><polygon fill="#181818" points="819.19,260.0869,823.19,251.0869,819.19,255.0869,815.19,251.0869,819.19,260.0869" style="stroke:#181818;stroke-width:1;"/></g><!--link Fan to Entrada--><g class="link" data-entity-1="ent0014" data-entity-2="ent0007" data-link-type="dependency" data-source-line="60" id="lnk30"><path codeLine="60" d="M488.72,92.5569 C496.72,110.2369 505.2042,128.9615 513.2042,146.6215" fill="none" id="Fan-to-Entrada" style="stroke:#181818;stroke-width:1;stroke-dasharray:7,7;"/><polygon fill="#181818" points="515.68,152.0869,515.6099,142.2383,513.6168,147.5324,508.3227,145.5394,515.68,152.0869" style="stroke:#181818;stroke-width:1;"/></g><?plantuml-src RP71QiCm38RlUWgV1-aZxB9sOuV2M9v0E4eGE1ROog6ClVlYB4cjj92BFrb_zCdA6iXTl6JEIYEwwvJPOt2D-wQ0dYLI1l01StPl67N-oFt0xyREdBtKOBvKkchq5V0MvloQVN32-do9ch0pgAKGPCaV4lPiVpDdAlQIHcmr4OuS1nENTUhOT7p6WI9JaZEr4hax5BEcQQIe1b_P9-ab6lYEgzs_-qlJRDAmM1MmwW3ixdAyje9be_3eMieBW6UgzsgPvdw2_OsUeDFfjHQrXLtLucr-s3PQu3vs3UjaomzxXyUNEFONgSBMDVu1?></g></svg>