<?plantuml 1.2026.2beta3?><svg xmlns="http://www.w3.org/2000/svg" xmlns:xlink="http://www.w3.org/1999/xlink" contentStyleType="text/css" data-diagram-type="CLASS" height="599px" preserveAspectRatio="none" style="width:588px;height:599px;background:#FFFFFF;" version="1.1" viewBox="0 0 588 599" width="588px" zoomAndPan="magnify"><title>Diagrama de clases de una decisi&#243;n</title><defs/><g><g class="title" data-source-line="1"><text fill="#000000" font-family="sans-serif" font-size="14" font-weight="bold" lengthAdjust="spacing" textLength="283.0967" x="145.6104" y="22.9951">Diagrama de clases de una decisi&#243;n</text></g><!--class Decisi?n--><g class="entity" data-qualified-name="Decisi.n" data-source-line="4" id="ent0002"><rect fill="#F1F1F1" height="48" rx="2.5" ry="2.5" style="stroke:#181818;stroke-width:0.5;" width="91.6025" x="274.12" y="169.2969"/><ellipse cx="289.12" cy="185.2969" fill="#ADD1B2" rx="11" ry="11" style="stroke:#181818;stroke-width:1;"/><path d="M292.0888,190.9375 Q291.5106,191.2344 290.87,191.375 Q290.2294,191.5313 289.5263,191.5313 Q287.0263,191.5313 285.6981,189.8906 Q284.3856,188.2344 284.3856,185.1094 Q284.3856,181.9844 285.6981,180.3281 Q287.0263,178.6719 289.5263,178.6719 Q290.2294,178.6719 290.87,178.8281 Q291.5263,178.9844 292.0888,179.2813 L292.0888,182 Q291.4638,181.4219 290.87,181.1563 Q290.2763,180.875 289.6513,180.875 Q288.3075,180.875 287.62,181.9531 Q286.9325,183.0156 286.9325,185.1094 Q286.9325,187.2031 287.62,188.2813 Q288.3075,189.3438 289.6513,189.3438 Q290.2763,189.3438 290.87,189.0781 Q291.4638,188.7969 292.0888,188.2188 L292.0888,190.9375 Z " fill="#000000"/><text fill="#000000" font-family="sans-serif" font-size="14" lengthAdjust="spacing" textLength="59.6025" x="303.12" y="190.1436">Decisi&#243;n</text><line style="stroke:#181818;stroke-width:0.5;" x1="275.12" x2="364.7225" y1="201.2969" y2="201.2969"/><line style="stroke:#181818;stroke-width:0.5;" x1="275.12" x2="364.7225" y1="209.2969" y2="209.2969"/></g><!--class Criterio--><g class="entity" data-qualified-name="Criterio" data-source-line="8" id="ent0003"><rect fill="#F1F1F1" height="48" rx="2.5" ry="2.5" style="stroke:#181818;stroke-width:0.5;" width="83.7344" x="82.05" y="544.2969"/><ellipse cx="97.05" cy="560.2969" fill="#ADD1B2" rx="11" ry="11" style="stroke:#181818;stroke-width:1;"/><path d="M100.0188,565.9375 Q99.4406,566.2344 98.8,566.375 Q98.1594,566.5313 97.4563,566.5313 Q94.9563,566.5313 93.6281,564.8906 Q92.3156,563.2344 92.3156,560.1094 Q92.3156,556.9844 93.6281,555.3281 Q94.9563,553.6719 97.4563,553.6719 Q98.1594,553.6719 98.8,553.8281 Q99.4563,553.9844 100.0188,554.2813 L100.0188,557 Q99.3938,556.4219 98.8,556.1563 Q98.2063,555.875 97.5813,555.875 Q96.2375,555.875 95.55,556.9531 Q94.8625,558.0156 94.8625,560.1094 Q94.8625,562.2031 95.55,563.2813 Q96.2375,564.3438 97.5813,564.3438 Q98.2063,564.3438 98.8,564.0781 Q99.3938,563.7969 100.0188,563.2188 L100.0188,565.9375 Z " fill="#000000"/><text fill="#000000" font-family="sans-serif" font-size="14" lengthAdjust="spacing" textLength="51.7344" x="111.05" y="565.1436">Criterio</text><line style="stroke:#181818;stroke-width:0.5;" x1="83.05" x2="164.7844" y1="576.2969" y2="576.2969"/><line style="stroke:#181818;stroke-width:0.5;" x1="83.05" x2="164.7844" y1="584.2969" y2="584.2969"/></g><!--class Opci?n--><g class="entity" data-qualified-name="Opci.n" data-source-line="12" id="ent0004"><rect fill="#F1F1F1" height="48" rx="2.5" ry="2.5" style="stroke:#181818;stroke-width:0.5;" width="80.9316" x="339.45" y="419.2969"/><ellipse cx="354.45" cy="435.2969" fill="#ADD1B2" rx="11" ry="11" style="stroke:#181818;stroke-width:1;"/><path d="M357.4188,440.9375 Q356.8406,441.2344 356.2,441.375 Q355.5594,441.5313 354.8563,441.5313 Q352.3563,441.5313 351.0281,439.8906 Q349.7156,438.2344 349.7156,435.1094 Q349.7156,431.9844 351.0281,430.3281 Q352.3563,428.6719 354.8563,428.6719 Q355.5594,428.6719 356.2,428.8281 Q356.8563,428.9844 357.4188,429.2813 L357.4188,432 Q356.7938,431.4219 356.2,431.1563 Q355.6063,430.875 354.9813,430.875 Q353.6375,430.875 352.95,431.9531 Q352.2625,433.0156 352.2625,435.1094 Q352.2625,437.2031 352.95,438.2813 Q353.6375,439.3438 354.9813,439.3438 Q355.6063,439.3438 356.2,439.0781 Q356.7938,438.7969 357.4188,438.2188 L357.4188,440.9375 Z " fill="#000000"/><text fill="#000000" font-family="sans-serif" font-size="14" lengthAdjust="spacing" textLength="48.9316" x="368.45" y="440.1436">Opci&#243;n</text><line style="stroke:#181818;stroke-width:0.5;" x1="340.45" x2="419.3816" y1="451.2969" y2="451.2969"/><line style="stroke:#181818;stroke-width:0.5;" x1="340.45" x2="419.3816" y1="459.2969" y2="459.2969"/></g><!--class Experiencia--><g class="entity" data-qualified-name="Experiencia" data-source-line="16" id="ent0005"><rect fill="#F1F1F1" height="48" rx="2.5" ry="2.5" style="stroke:#181818;stroke-width:0.5;" width="113.9287" x="66.96" y="419.2969"/><ellipse cx="81.96" cy="435.2969" fill="#ADD1B2" rx="11" ry="11" style="stroke:#181818;stroke-width:1;"/><path d="M84.9288,440.9375 Q84.3506,441.2344 83.71,441.375 Q83.0694,441.5313 82.3663,441.5313 Q79.8663,441.5313 78.5381,439.8906 Q77.2256,438.2344 77.2256,435.1094 Q77.2256,431.9844 78.5381,430.3281 Q79.8663,428.6719 82.3663,428.6719 Q83.0694,428.6719 83.71,428.8281 Q84.3663,428.9844 84.9288,429.2813 L84.9288,432 Q84.3038,431.4219 83.71,431.1563 Q83.1163,430.875 82.4913,430.875 Q81.1475,430.875 80.46,431.9531 Q79.7725,433.0156 79.7725,435.1094 Q79.7725,437.2031 80.46,438.2813 Q81.1475,439.3438 82.4913,439.3438 Q83.1163,439.3438 83.71,439.0781 Q84.3038,438.7969 84.9288,438.2188 L84.9288,440.9375 Z " fill="#000000"/><text fill="#000000" font-family="sans-serif" font-size="14" lengthAdjust="spacing" textLength="81.9287" x="95.96" y="440.1436">Experiencia</text><line style="stroke:#181818;stroke-width:0.5;" x1="67.96" x2="179.8887" y1="451.2969" y2="451.2969"/><line style="stroke:#181818;stroke-width:0.5;" x1="67.96" x2="179.8887" y1="459.2969" y2="459.2969"/></g><!--class Resultado--><g class="entity" data-qualified-name="Resultado" data-source-line="20" id="ent0006"><rect fill="#F1F1F1" height="48" rx="2.5" ry="2.5" style="stroke:#181818;stroke-width:0.5;" width="101.918" x="66.96" y="294.2969"/><ellipse cx="81.96" cy="310.2969" fill="#ADD1B2" rx="11" ry="11" style="stroke:#181818;stroke-width:1;"/><path d="M84.9288,315.9375 Q84.3506,316.2344 83.71,316.375 Q83.0694,316.5313 82.3663,316.5313 Q79.8663,316.5313 78.5381,314.8906 Q77.2256,313.2344 77.2256,310.1094 Q77.2256,306.9844 78.5381,305.3281 Q79.8663,303.6719 82.3663,303.6719 Q83.0694,303.6719 83.71,303.8281 Q84.3663,303.9844 84.9288,304.2813 L84.9288,307 Q84.3038,306.4219 83.71,306.1563 Q83.1163,305.875 82.4913,305.875 Q81.1475,305.875 80.46,306.9531 Q79.7725,308.0156 79.7725,310.1094 Q79.7725,312.2031 80.46,313.2813 Q81.1475,314.3438 82.4913,314.3438 Q83.1163,314.3438 83.71,314.0781 Q84.3038,313.7969 84.9288,313.2188 L84.9288,315.9375 Z " fill="#000000"/><text fill="#000000" font-family="sans-serif" font-size="14" lengthAdjust="spacing" textLength="69.918" x="95.96" y="315.1436">Resultado</text><line style="stroke:#181818;stroke-width:0.5;" x1="67.96" x2="167.878" y1="326.2969" y2="326.2969"/><line style="stroke:#181818;stroke-width:0.5;" x1="67.96" x2="167.878" y1="334.2969" y2="334.2969"/></g><!--class Evaluaci?n--><g class="entity" data-qualified-name="Evaluaci.n" data-source-line="24" id="ent0007"><rect fill="#F1F1F1" height="48" rx="2.5" ry="2.5" style="stroke:#181818;stroke-width:0.5;" width="108.0771" x="203.88" y="294.2969"/><ellipse cx="218.88" cy="310.2969" fill="#ADD1B2" rx="11" ry="11" style="stroke:#181818;stroke-width:1;"/><path d="M221.8488,315.9375 Q221.2706,316.2344 220.63,316.375 Q219.9894,316.5313 219.2863,316.5313 Q216.7863,316.5313 215.4581,314.8906 Q214.1456,313.2344 214.1456,310.1094 Q214.1456,306.9844 215.4581,305.3281 Q216.7863,303.6719 219.2863,303.6719 Q219.9894,303.6719 220.63,303.8281 Q221.2863,303.9844 221.8488,304.2813 L221.8488,307 Q221.2238,306.4219 220.63,306.1563 Q220.0363,305.875 219.4113,305.875 Q218.0675,305.875 217.38,306.9531 Q216.6925,308.0156 216.6925,310.1094 Q216.6925,312.2031 217.38,313.2813 Q218.0675,314.3438 219.4113,314.3438 Q220.0363,314.3438 220.63,314.0781 Q221.2238,313.7969 221.8488,313.2188 L221.8488,315.9375 Z " fill="#000000"/><text fill="#000000" font-family="sans-serif" font-size="14" lengthAdjust="spacing" textLength="76.0771" x="232.88" y="315.1436">Evaluaci&#243;n</text><line style="stroke:#181818;stroke-width:0.5;" x1="204.88" x2="310.9571" y1="326.2969" y2="326.2969"/><line style="stroke:#181818;stroke-width:0.5;" x1="204.88" x2="310.9571" y1="334.2969" y2="334.2969"/></g><!--class Contexto--><g class="entity" data-qualified-name="Contexto" data-source-line="28" id="ent0008"><rect fill="#F1F1F1" height="48" rx="2.5" ry="2.5" style="stroke:#181818;stroke-width:0.5;" width="95.6563" x="473.09" y="294.2969"/><ellipse cx="488.09" cy="310.2969" fill="#ADD1B2" rx="11" ry="11" style="stroke:#181818;stroke-width:1;"/><path d="M491.0588,315.9375 Q490.4806,316.2344 489.84,316.375 Q489.1994,316.5313 488.4963,316.5313 Q485.9963,316.5313 484.6681,314.8906 Q483.3556,313.2344 483.3556,310.1094 Q483.3556,306.9844 484.6681,305.3281 Q485.9963,303.6719 488.4963,303.6719 Q489.1994,303.6719 489.84,303.8281 Q490.4963,303.9844 491.0588,304.2813 L491.0588,307 Q490.4338,306.4219 489.84,306.1563 Q489.2463,305.875 488.6213,305.875 Q487.2775,305.875 486.59,306.9531 Q485.9025,308.0156 485.9025,310.1094 Q485.9025,312.2031 486.59,313.2813 Q487.2775,314.3438 488.6213,314.3438 Q489.2463,314.3438 489.84,314.0781 Q490.4338,313.7969 491.0588,313.2188 L491.0588,315.9375 Z " fill="#000000"/><text fill="#000000" font-family="sans-serif" font-size="14" lengthAdjust="spacing" textLength="63.6563" x="502.09" y="315.1436">Contexto</text><line style="stroke:#181818;stroke-width:0.5;" x1="474.09" x2="567.7462" y1="326.2969" y2="326.2969"/><line style="stroke:#181818;stroke-width:0.5;" x1="474.09" x2="567.7462" y1="334.2969" y2="334.2969"/></g><!--class Evento--><g class="entity" data-qualified-name="Evento" data-source-line="32" id="ent0009"><rect fill="#F1F1F1" height="48" rx="2.5" ry="2.5" style="stroke:#181818;stroke-width:0.5;" width="80.6719" x="421.58" y="44.2969"/><ellipse cx="436.58" cy="60.2969" fill="#ADD1B2" rx="11" ry="11" style="stroke:#181818;stroke-width:1;"/><path d="M439.5488,65.9375 Q438.9706,66.2344 438.33,66.375 Q437.6894,66.5313 436.9863,66.5313 Q434.4863,66.5313 433.1581,64.8906 Q431.8456,63.2344 431.8456,60.1094 Q431.8456,56.9844 433.1581,55.3281 Q434.4863,53.6719 436.9863,53.6719 Q437.6894,53.6719 438.33,53.8281 Q438.9863,53.9844 439.5488,54.2813 L439.5488,57 Q438.9238,56.4219 438.33,56.1563 Q437.7363,55.875 437.1113,55.875 Q435.7675,55.875 435.08,56.9531 Q434.3925,58.0156 434.3925,60.1094 Q434.3925,62.2031 435.08,63.2813 Q435.7675,64.3438 437.1113,64.3438 Q437.7363,64.3438 438.33,64.0781 Q438.9238,63.7969 439.5488,63.2188 L439.5488,65.9375 Z " fill="#000000"/><text fill="#000000" font-family="sans-serif" font-size="14" lengthAdjust="spacing" textLength="48.6719" x="450.58" y="65.1436">Evento</text><line style="stroke:#181818;stroke-width:0.5;" x1="422.58" x2="501.2519" y1="76.2969" y2="76.2969"/><line style="stroke:#181818;stroke-width:0.5;" x1="422.58" x2="501.2519" y1="84.2969" y2="84.2969"/></g><!--reverse link Decisi?n to Opci?n--><g class="link" data-entity-1="ent0002" data-entity-2="ent0004" data-link-type="composition" data-source-line="38" id="lnk10"><path codeLine="38" d="M328.3827,229.2902 C339.8227,276.5602 362.79,371.4769 374.25,418.8469" fill="none" id="Decisi&#243;n-backto-Opci&#243;n" style="stroke:#181818;stroke-width:1;"/><polygon fill="#181818" points="325.56,217.6269,323.0836,224.3994,328.3827,229.2902,330.8591,222.5176,325.56,217.6269" style="stroke:#181818;stroke-width:1;"/><text fill="#000000" font-family="sans-serif" font-size="13" lengthAdjust="spacing" textLength="32.9443" x="355.92" y="322.8638">tiene</text></g><!--reverse link Decisi?n to Criterio--><g class="link" data-entity-1="ent0002" data-entity-2="ent0003" data-link-type="aggregation" data-source-line="39" id="lnk11"><path codeLine="39" d="M261.6635,197.2172 C198.8535,202.5772 100.61,221.4769 49.92,294.2969 C6,357.4069 25.84,394.2769 49.92,467.2969 C59.73,497.0369 82.17,525.1669 99.78,543.9769" fill="none" id="Decisi&#243;n-backto-Criterio" style="stroke:#181818;stroke-width:1;"/><polygon fill="none" points="273.62,196.1969,267.3016,192.7215,261.6635,197.2172,267.9818,200.6926,273.62,196.1969" style="stroke:#181818;stroke-width:1;"/><text fill="#000000" font-family="sans-serif" font-size="13" lengthAdjust="spacing" textLength="22.9785" x="26.92" y="385.3638">usa</text></g><!--link Evaluaci?n to Opci?n--><g class="link" data-entity-1="ent0007" data-entity-2="ent0004" data-link-type="dependency" data-source-line="40" id="lnk12"><path codeLine="40" d="M273.2,342.6069 C283.09,356.8569 296.74,375.0169 310.92,389.2969 C321.46,399.9069 329.3516,406.6481 340.9816,415.3281" fill="none" id="Evaluaci&#243;n-to-Opci&#243;n" style="stroke:#181818;stroke-width:1;"/><polygon fill="#181818" points="345.79,418.9169,340.9699,410.3281,341.783,415.9263,336.1849,416.7394,345.79,418.9169" style="stroke:#181818;stroke-width:1;"/><text fill="#000000" font-family="sans-serif" font-size="13" lengthAdjust="spacing" textLength="43.4751" x="311.92" y="385.3638">eval&#250;a</text></g><!--link Evaluaci?n to Criterio--><g class="link" data-entity-1="ent0007" data-entity-2="ent0003" data-link-type="dependency" data-source-line="41" id="lnk13"><path codeLine="41" d="M251.25,342.4969 C239.54,380.7269 212.69,458.2969 172.92,514.2969 C165.59,524.6169 160.5582,530.7023 152.1382,539.5423" fill="none" id="Evaluaci&#243;n-to-Criterio" style="stroke:#181818;stroke-width:1;"/><polygon fill="#181818" points="148,543.8869,157.1037,540.1288,151.4485,540.2664,151.3109,534.6112,148,543.8869" style="stroke:#181818;stroke-width:1;"/><text fill="#000000" font-family="sans-serif" font-size="13" lengthAdjust="spacing" textLength="48.4897" x="224.92" y="447.8638">emplea</text></g><!--reverse link Decisi?n to Resultado--><g class="link" data-entity-1="ent0002" data-entity-2="ent0006" data-link-type="composition" data-source-line="42" id="lnk14"><path codeLine="42" d="M264.4705,223.4575 C247.9105,232.3975 239.67,237.1669 222.92,247.2969 C198.55,262.0369 171.85,279.8569 151.48,293.8269" fill="none" id="Decisi&#243;n-backto-Resultado" style="stroke:#181818;stroke-width:1;"/><polygon fill="#181818" points="275.03,217.7569,267.85,217.0873,264.4705,223.4575,271.6504,224.127,275.03,217.7569" style="stroke:#181818;stroke-width:1;"/><text fill="#000000" font-family="sans-serif" font-size="13" lengthAdjust="spacing" textLength="53.187" x="223.92" y="260.3638">produce</text></g><!--link Resultado to Experiencia--><g class="link" data-entity-1="ent0006" data-entity-2="ent0005" data-link-type="dependency" data-source-line="43" id="lnk15"><path codeLine="43" d="M119.06,342.7169 C120.13,364.6069 121.4294,391.1039 122.4894,412.9639" fill="none" id="Resultado-to-Experiencia" style="stroke:#181818;stroke-width:1;"/><polygon fill="#181818" points="122.78,418.9569,126.3394,409.7737,122.5378,413.9627,118.3488,410.1612,122.78,418.9569" style="stroke:#181818;stroke-width:1;"/><text fill="#000000" font-family="sans-serif" font-size="13" lengthAdjust="spacing" textLength="45.7983" x="122.92" y="385.3638">genera</text></g><!--link Decisi?n to Contexto--><g class="link" data-entity-1="ent0002" data-entity-2="ent0008" data-link-type="dependency" data-source-line="44" id="lnk16"><path codeLine="44" d="M358.2,217.7169 C393.97,239.6069 441.9423,268.9649 477.6623,290.8249" fill="none" id="Decisi&#243;n-to-Contexto" style="stroke:#181818;stroke-width:1;"/><polygon fill="#181818" points="482.78,293.9569,477.1914,285.8472,478.5152,291.3469,473.0155,292.6708,482.78,293.9569" style="stroke:#181818;stroke-width:1;"/><text fill="#000000" font-family="sans-serif" font-size="13" lengthAdjust="spacing" textLength="77.3716" x="432.92" y="260.3638">depende de</text></g><!--link Experiencia to Criterio--><g class="link" data-entity-1="ent0005" data-entity-2="ent0003" data-link-type="dependency" data-source-line="45" id="lnk17"><path codeLine="45" d="M123.92,467.7169 C123.92,489.6069 123.92,516.0969 123.92,537.9569" fill="none" id="Experiencia-to-Criterio" style="stroke:#181818;stroke-width:1;"/><polygon fill="#181818" points="123.92,543.9569,127.92,534.9569,123.92,538.9569,119.92,534.9569,123.92,543.9569" style="stroke:#181818;stroke-width:1;"/><text fill="#000000" font-family="sans-serif" font-size="13" lengthAdjust="spacing" textLength="39.6538" x="124.92" y="510.3638">ajusta</text></g><!--link Evento to Decisi?n--><g class="link" data-entity-1="ent0009" data-entity-2="ent0002" data-link-type="dependency" data-source-line="46" id="lnk18"><path codeLine="46" d="M434.88,92.7169 C409.61,114.6069 376.6354,143.1688 351.3954,165.0288" fill="none" id="Evento-to-Decisi&#243;n" style="stroke:#181818;stroke-width:1;stroke-dasharray:7,7;"/><polygon fill="#181818" points="346.86,168.9569,356.2819,166.0884,350.6395,165.6835,351.0444,160.0411,346.86,168.9569" style="stroke:#181818;stroke-width:1;"/><text fill="#000000" font-family="sans-serif" font-size="13" lengthAdjust="spacing" textLength="86.8296" x="400.92" y="135.3638">desencadena</text></g><!--reverse link Evento to Contexto--><g class="link" data-entity-1="ent0009" data-entity-2="ent0008" data-link-type="composition" data-source-line="47" id="lnk19"><path codeLine="47" d="M486.4683,102.7167 C492.4283,111.5567 491.86,112.0269 495.92,122.2969 C519.05,180.8669 521.83,256.2969 521.57,293.8669" fill="none" id="Evento-backto-Contexto" style="stroke:#181818;stroke-width:1;"/><polygon fill="#181818" points="479.76,92.7669,479.7975,99.9779,486.4683,102.7167,486.4307,95.5057,479.76,92.7669" style="stroke:#181818;stroke-width:1;"/><text fill="#000000" font-family="sans-serif" font-size="13" lengthAdjust="spacing" textLength="62.3975" x="517.92" y="197.8638">ocurre en</text></g><!--link Decisi?n to Evaluaci?n--><g class="link" data-entity-1="ent0002" data-entity-2="ent0007" data-link-type="dependency" data-source-line="48" id="lnk20"><path codeLine="48" d="M308.11,217.7169 C297.08,239.6069 283.4009,266.7392 272.3809,288.5992" fill="none" id="Decisi&#243;n-to-Evaluaci&#243;n" style="stroke:#181818;stroke-width:1;"/><polygon fill="#181818" points="269.68,293.9569,277.3032,287.7209,271.9308,289.4921,270.1596,284.1197,269.68,293.9569" style="stroke:#181818;stroke-width:1;"/><text fill="#000000" font-family="sans-serif" font-size="13" lengthAdjust="spacing" textLength="22.9785" x="293.92" y="260.3638">usa</text></g><?plantuml-src PL4xQWCn4Etd58FBmFe0AjpOhWEvmI0DHa6MX3x147AgT6bziKXBzDbD9zuylSzCqiam7YwQRe7kX8fH6eeSwolR2aWTzVFR7W2WZY9U6eIV05yDFGUTE6Yt0L-zx4HiuFNX2v6jrBGXlt7C9f7QIbm_o6IQPBhEsTd4ZxIdi-qGmCZwiYmjZi1Kx7aQkZ9i1GJcI33RBikfDn78PVBy-SyO__dk3TFEkxSJw8DJMJACmlN_j1Q1jv8lp1AhmrzXKQxYsPOBAOPvcziOz9vZgZdNZHoFft6vgX3B7r9iEwEc71PEvX0OsUv2JBNNJVq2?></g></svg>