<svg xmlns="http://www.w3.org/2000/svg" xmlns:xlink="http://www.w3.org/1999/xlink" contentStyleType="text/css" data-diagram-type="CLASS" height="386px" preserveAspectRatio="none" style="width:475px;height:386px;background:#FFFFFF;" version="1.1" viewBox="0 0 475 386" width="475px" zoomAndPan="magnify"><defs/><g><!--class Cancion--><g class="entity" data-entity="Cancion" data-source-line="1" data-uid="ent0002" id="entity_Cancion"><rect fill="#F1F1F1" height="48" rx="2.5" ry="2.5" style="stroke:#181818;stroke-width:0.5;" width="88.2529" x="174" y="223"/><ellipse cx="189" cy="239" fill="#ADD1B2" rx="11" ry="11" style="stroke:#181818;stroke-width:1;"/><path d="M191.9688,244.6406 Q191.3906,244.9375 190.75,245.0781 Q190.1094,245.2344 189.4063,245.2344 Q186.9063,245.2344 185.5781,243.5938 Q184.2656,241.9375 184.2656,238.8125 Q184.2656,235.6875 185.5781,234.0313 Q186.9063,232.375 189.4063,232.375 Q190.1094,232.375 190.75,232.5313 Q191.4063,232.6875 191.9688,232.9844 L191.9688,235.7031 Q191.3438,235.125 190.75,234.8594 Q190.1563,234.5781 189.5313,234.5781 Q188.1875,234.5781 187.5,235.6563 Q186.8125,236.7188 186.8125,238.8125 Q186.8125,240.9063 187.5,241.9844 Q188.1875,243.0469 189.5313,243.0469 Q190.1563,243.0469 190.75,242.7813 Q191.3438,242.5 191.9688,241.9219 L191.9688,244.6406 Z " fill="#000000"/><text fill="#000000" font-family="sans-serif" font-size="14" lengthAdjust="spacing" textLength="56.2529" x="203" y="243.8467">Cancion</text><line style="stroke:#181818;stroke-width:0.5;" x1="175" x2="261.2529" y1="255" y2="255"/><line style="stroke:#181818;stroke-width:0.5;" x1="175" x2="261.2529" y1="263" y2="263"/></g><!--class Audio--><g class="entity" data-entity="Audio" data-source-line="5" data-uid="ent0003" id="entity_Audio"><rect fill="#F1F1F1" height="48" rx="2.5" ry="2.5" style="stroke:#181818;stroke-width:0.5;" width="71.792" x="182" y="331"/><ellipse cx="197" cy="347" fill="#ADD1B2" rx="11" ry="11" style="stroke:#181818;stroke-width:1;"/><path d="M199.9688,352.6406 Q199.3906,352.9375 198.75,353.0781 Q198.1094,353.2344 197.4063,353.2344 Q194.9063,353.2344 193.5781,351.5938 Q192.2656,349.9375 192.2656,346.8125 Q192.2656,343.6875 193.5781,342.0313 Q194.9063,340.375 197.4063,340.375 Q198.1094,340.375 198.75,340.5313 Q199.4063,340.6875 199.9688,340.9844 L199.9688,343.7031 Q199.3438,343.125 198.75,342.8594 Q198.1563,342.5781 197.5313,342.5781 Q196.1875,342.5781 195.5,343.6563 Q194.8125,344.7188 194.8125,346.8125 Q194.8125,348.9063 195.5,349.9844 Q196.1875,351.0469 197.5313,351.0469 Q198.1563,351.0469 198.75,350.7813 Q199.3438,350.5 199.9688,349.9219 L199.9688,352.6406 Z " fill="#000000"/><text fill="#000000" font-family="sans-serif" font-size="14" lengthAdjust="spacing" textLength="39.792" x="211" y="351.8467">Audio</text><line style="stroke:#181818;stroke-width:0.5;" x1="183" x2="252.792" y1="363" y2="363"/><line style="stroke:#181818;stroke-width:0.5;" x1="183" x2="252.792" y1="371" y2="371"/></g><!--class Artista--><g class="entity" data-entity="Artista" data-source-line="9" data-uid="ent0004" id="entity_Artista"><rect fill="#F1F1F1" height="48" rx="2.5" ry="2.5" style="stroke:#181818;stroke-width:0.5;" width="78.0742" x="7" y="115"/><ellipse cx="22" cy="131" fill="#ADD1B2" rx="11" ry="11" style="stroke:#181818;stroke-width:1;"/><path d="M24.9688,136.6406 Q24.3906,136.9375 23.75,137.0781 Q23.1094,137.2344 22.4063,137.2344 Q19.9063,137.2344 18.5781,135.5938 Q17.2656,133.9375 17.2656,130.8125 Q17.2656,127.6875 18.5781,126.0313 Q19.9063,124.375 22.4063,124.375 Q23.1094,124.375 23.75,124.5313 Q24.4063,124.6875 24.9688,124.9844 L24.9688,127.7031 Q24.3438,127.125 23.75,126.8594 Q23.1563,126.5781 22.5313,126.5781 Q21.1875,126.5781 20.5,127.6563 Q19.8125,128.7188 19.8125,130.8125 Q19.8125,132.9063 20.5,133.9844 Q21.1875,135.0469 22.5313,135.0469 Q23.1563,135.0469 23.75,134.7813 Q24.3438,134.5 24.9688,133.9219 L24.9688,136.6406 Z " fill="#000000"/><text fill="#000000" font-family="sans-serif" font-size="14" lengthAdjust="spacing" textLength="46.0742" x="36" y="135.8467">Artista</text><line style="stroke:#181818;stroke-width:0.5;" x1="8" x2="84.0742" y1="147" y2="147"/><line style="stroke:#181818;stroke-width:0.5;" x1="8" x2="84.0742" y1="155" y2="155"/></g><!--class Playlist--><g class="entity" data-entity="Playlist" data-source-line="13" data-uid="ent0005" id="entity_Playlist"><rect fill="#F1F1F1" height="48" rx="2.5" ry="2.5" style="stroke:#181818;stroke-width:0.5;" width="81.7588" x="120" y="115"/><ellipse cx="135" cy="131" fill="#ADD1B2" rx="11" ry="11" style="stroke:#181818;stroke-width:1;"/><path d="M137.9688,136.6406 Q137.3906,136.9375 136.75,137.0781 Q136.1094,137.2344 135.4063,137.2344 Q132.9063,137.2344 131.5781,135.5938 Q130.2656,133.9375 130.2656,130.8125 Q130.2656,127.6875 131.5781,126.0313 Q132.9063,124.375 135.4063,124.375 Q136.1094,124.375 136.75,124.5313 Q137.4063,124.6875 137.9688,124.9844 L137.9688,127.7031 Q137.3438,127.125 136.75,126.8594 Q136.1563,126.5781 135.5313,126.5781 Q134.1875,126.5781 133.5,127.6563 Q132.8125,128.7188 132.8125,130.8125 Q132.8125,132.9063 133.5,133.9844 Q134.1875,135.0469 135.5313,135.0469 Q136.1563,135.0469 136.75,134.7813 Q137.3438,134.5 137.9688,133.9219 L137.9688,136.6406 Z " fill="#000000"/><text fill="#000000" font-family="sans-serif" font-size="14" lengthAdjust="spacing" textLength="49.7588" x="149" y="135.8467">Playlist</text><line style="stroke:#181818;stroke-width:0.5;" x1="121" x2="200.7588" y1="147" y2="147"/><line style="stroke:#181818;stroke-width:0.5;" x1="121" x2="200.7588" y1="155" y2="155"/></g><!--class Album--><g class="entity" data-entity="Album" data-source-line="17" data-uid="ent0006" id="entity_Album"><rect fill="#F1F1F1" height="48" rx="2.5" ry="2.5" style="stroke:#181818;stroke-width:0.5;" width="76.8643" x="237.5" y="115"/><ellipse cx="252.5" cy="131" fill="#ADD1B2" rx="11" ry="11" style="stroke:#181818;stroke-width:1;"/><path d="M255.4688,136.6406 Q254.8906,136.9375 254.25,137.0781 Q253.6094,137.2344 252.9063,137.2344 Q250.4063,137.2344 249.0781,135.5938 Q247.7656,133.9375 247.7656,130.8125 Q247.7656,127.6875 249.0781,126.0313 Q250.4063,124.375 252.9063,124.375 Q253.6094,124.375 254.25,124.5313 Q254.9063,124.6875 255.4688,124.9844 L255.4688,127.7031 Q254.8438,127.125 254.25,126.8594 Q253.6563,126.5781 253.0313,126.5781 Q251.6875,126.5781 251,127.6563 Q250.3125,128.7188 250.3125,130.8125 Q250.3125,132.9063 251,133.9844 Q251.6875,135.0469 253.0313,135.0469 Q253.6563,135.0469 254.25,134.7813 Q254.8438,134.5 255.4688,133.9219 L255.4688,136.6406 Z " fill="#000000"/><text fill="#000000" font-family="sans-serif" font-size="14" lengthAdjust="spacing" textLength="44.8643" x="266.5" y="135.8467">Album</text><line style="stroke:#181818;stroke-width:0.5;" x1="238.5" x2="313.3643" y1="147" y2="147"/><line style="stroke:#181818;stroke-width:0.5;" x1="238.5" x2="313.3643" y1="155" y2="155"/></g><!--class Usuario--><g class="entity" data-entity="Usuario" data-source-line="21" data-uid="ent0007" id="entity_Usuario"><rect fill="#F1F1F1" height="48" rx="2.5" ry="2.5" style="stroke:#181818;stroke-width:0.5;" width="85.2041" x="118.5" y="7"/><ellipse cx="133.5" cy="23" fill="#ADD1B2" rx="11" ry="11" style="stroke:#181818;stroke-width:1;"/><path d="M136.4688,28.6406 Q135.8906,28.9375 135.25,29.0781 Q134.6094,29.2344 133.9063,29.2344 Q131.4063,29.2344 130.0781,27.5938 Q128.7656,25.9375 128.7656,22.8125 Q128.7656,19.6875 130.0781,18.0313 Q131.4063,16.375 133.9063,16.375 Q134.6094,16.375 135.25,16.5313 Q135.9063,16.6875 136.4688,16.9844 L136.4688,19.7031 Q135.8438,19.125 135.25,18.8594 Q134.6563,18.5781 134.0313,18.5781 Q132.6875,18.5781 132,19.6563 Q131.3125,20.7188 131.3125,22.8125 Q131.3125,24.9063 132,25.9844 Q132.6875,27.0469 134.0313,27.0469 Q134.6563,27.0469 135.25,26.7813 Q135.8438,26.5 136.4688,25.9219 L136.4688,28.6406 Z " fill="#000000"/><text fill="#000000" font-family="sans-serif" font-size="14" lengthAdjust="spacing" textLength="53.2041" x="147.5" y="27.8467">Usuario</text><line style="stroke:#181818;stroke-width:0.5;" x1="119.5" x2="202.7041" y1="39" y2="39"/><line style="stroke:#181818;stroke-width:0.5;" x1="119.5" x2="202.7041" y1="47" y2="47"/></g><!--class Reproductor--><g class="entity" data-entity="Reproductor" data-source-line="25" data-uid="ent0008" id="entity_Reproductor"><rect fill="#F1F1F1" height="48" rx="2.5" ry="2.5" style="stroke:#181818;stroke-width:0.5;" width="118.8164" x="349.5" y="115"/><ellipse cx="364.5" cy="131" fill="#ADD1B2" rx="11" ry="11" style="stroke:#181818;stroke-width:1;"/><path d="M367.4688,136.6406 Q366.8906,136.9375 366.25,137.0781 Q365.6094,137.2344 364.9063,137.2344 Q362.4063,137.2344 361.0781,135.5938 Q359.7656,133.9375 359.7656,130.8125 Q359.7656,127.6875 361.0781,126.0313 Q362.4063,124.375 364.9063,124.375 Q365.6094,124.375 366.25,124.5313 Q366.9063,124.6875 367.4688,124.9844 L367.4688,127.7031 Q366.8438,127.125 366.25,126.8594 Q365.6563,126.5781 365.0313,126.5781 Q363.6875,126.5781 363,127.6563 Q362.3125,128.7188 362.3125,130.8125 Q362.3125,132.9063 363,133.9844 Q363.6875,135.0469 365.0313,135.0469 Q365.6563,135.0469 366.25,134.7813 Q366.8438,134.5 367.4688,133.9219 L367.4688,136.6406 Z " fill="#000000"/><text fill="#000000" font-family="sans-serif" font-size="14" lengthAdjust="spacing" textLength="86.8164" x="378.5" y="135.8467">Reproductor</text><line style="stroke:#181818;stroke-width:0.5;" x1="350.5" x2="467.3164" y1="147" y2="147"/><line style="stroke:#181818;stroke-width:0.5;" x1="350.5" x2="467.3164" y1="155" y2="155"/></g><!--reverse link Cancion to Audio--><g class="link" data-entity-1="Cancion" data-entity-2="Audio" data-source-line="28" data-uid="lnk9" id="link_Cancion_Audio"><path codeLine="28" d="M218,283 C218,300.66 218,312.94 218,330.68" fill="none" id="Cancion-backto-Audio" style="stroke:#181818;stroke-width:1;"/><polygon fill="#181818" points="218,271,214,277,218,283,222,277,218,271" style="stroke:#181818;stroke-width:1;"/></g><!--reverse link Playlist to Cancion--><g class="link" data-entity-1="Playlist" data-entity-2="Cancion" data-source-line="31" data-uid="lnk10" id="link_Playlist_Cancion"><path codeLine="31" d="M179.0503,173.5705 C188.5403,191.2305 195.92,204.94 205.46,222.68" fill="none" id="Playlist-backto-Cancion" style="stroke:#181818;stroke-width:1;"/><polygon fill="none" points="173.37,163,172.6867,170.1787,179.0503,173.5705,179.7336,166.3918,173.37,163" style="stroke:#181818;stroke-width:1;"/></g><!--reverse link Album to Cancion--><g class="link" data-entity-1="Album" data-entity-2="Cancion" data-source-line="32" data-uid="lnk11" id="link_Album_Cancion"><path codeLine="32" d="M257.6512,173.5279 C247.9912,191.1879 240.47,204.94 230.76,222.68" fill="none" id="Album-backto-Cancion" style="stroke:#181818;stroke-width:1;"/><polygon fill="none" points="263.41,163,257.0213,166.3444,257.6512,173.5279,264.0399,170.1835,263.41,163" style="stroke:#181818;stroke-width:1;"/></g><!--link Artista to Cancion--><g class="link" data-entity-1="Artista" data-entity-2="Cancion" data-source-line="35" data-uid="lnk12" id="link_Artista_Cancion"><path codeLine="35" d="M83.32,163 C112.07,180.72 146.5422,201.962 175.3422,219.712" fill="none" id="Artista-to-Cancion" style="stroke:#181818;stroke-width:1;"/><polygon fill="#181818" points="180.45,222.86,174.887,214.7327,176.1935,220.2366,170.6896,221.5431,180.45,222.86" style="stroke:#181818;stroke-width:1;"/></g><!--link Usuario to Playlist--><g class="link" data-entity-1="Usuario" data-entity-2="Playlist" data-source-line="36" data-uid="lnk13" id="link_Usuario_Playlist"><path codeLine="36" d="M161,55 C161,72.66 161,90.94 161,108.68" fill="none" id="Usuario-to-Playlist" style="stroke:#181818;stroke-width:1;"/><polygon fill="#181818" points="161,114.68,165,105.68,161,109.68,157,105.68,161,114.68" style="stroke:#181818;stroke-width:1;"/></g><!--link Reproductor to Cancion--><g class="link" data-entity-1="Reproductor" data-entity-2="Cancion" data-source-line="39" data-uid="lnk14" id="link_Reproductor_Cancion"><path codeLine="39" d="M367.56,163 C335.63,180.72 296.9265,202.1989 264.9365,219.9489" fill="none" id="Reproductor-to-Cancion" style="stroke:#181818;stroke-width:1;stroke-dasharray:7,7;"/><polygon fill="#181818" points="259.69,222.86,269.5004,221.9911,264.0621,220.4341,265.619,214.9957,259.69,222.86" style="stroke:#181818;stroke-width:1;"/></g><!--SRC=[NO_12SCm34NlciAtGi4PeH2oG2ba0DKnGU1OmOeFfNIgZD356ZUrYNjzlF_rPHoAg0wz8VRg2V02C5_Mne6u9c4XMR1YLuSFjz5QTFSuLQINYE6lxcRdm4Cq2mU0a-fucbd8q7lra0UTjTw79ACTWnqnSIjG3lEc_7JO3nz9YWaRoh7yWzQNukHnYUNQ5Eo5uJ1IDKt9V000]--></g></svg>