<svg xmlns="http://www.w3.org/2000/svg" xmlns:xlink="http://www.w3.org/1999/xlink" contentStyleType="text/css" data-diagram-type="CLASS" height="1049px" preserveAspectRatio="none" style="width:932px;height:1049px;background:#FFFFFF;" version="1.1" viewBox="0 0 932 1049" width="932px" zoomAndPan="magnify"><defs/><g><!--cluster com--><g class="cluster" data-entity="com" data-source-line="2" data-uid="ent0004" id="cluster_com"><path d="M8.5,6 L42.0049,6 A3.75,3.75 0 0 1 44.5049,8.5 L51.5049,28.2969 L922.5,28.2969 A2.5,2.5 0 0 1 925,30.7969 L925,1039.5 A2.5,2.5 0 0 1 922.5,1042 L8.5,1042 A2.5,2.5 0 0 1 6,1039.5 L6,8.5 A2.5,2.5 0 0 1 8.5,6" fill="none" style="stroke:#000000;stroke-width:1.5;"/><line style="stroke:#000000;stroke-width:1.5;" x1="6" x2="51.5049" y1="28.2969" y2="28.2969"/><text fill="#000000" font-family="sans-serif" font-size="14" font-weight="bold" lengthAdjust="spacing" textLength="32.5049" x="10" y="20.9951">com</text></g><!--cluster Main--><g class="cluster" data-entity="Main" data-source-line="1" data-uid="ent0002" id="cluster_Main"><rect fill="none" height="99" rx="2.5" ry="2.5" style="stroke:#181818;stroke-width:1;" width="104" x="501" y="49"/><text fill="#000000" font-family="sans-serif" font-size="14" font-weight="bold" lengthAdjust="spacing" textLength="38.1445" x="533.9277" y="63.9951">Main</text></g><!--cluster TicTacToe--><g class="cluster" data-entity="TicTacToe" data-source-line="6" data-uid="ent0007" id="cluster_TicTacToe"><path d="M32.5,197 L112.1064,197 A3.75,3.75 0 0 1 114.6064,199.5 L121.6064,219.2969 L898.5,219.2969 A2.5,2.5 0 0 1 901,221.7969 L901,1015.5 A2.5,2.5 0 0 1 898.5,1018 L32.5,1018 A2.5,2.5 0 0 1 30,1015.5 L30,199.5 A2.5,2.5 0 0 1 32.5,197" fill="none" style="stroke:#000000;stroke-width:1.5;"/><line style="stroke:#000000;stroke-width:1.5;" x1="30" x2="121.6064" y1="219.2969" y2="219.2969"/><text fill="#000000" font-family="sans-serif" font-size="14" font-weight="bold" lengthAdjust="spacing" textLength="78.6064" x="34" y="211.9951">TicTacToe</text></g><!--cluster aplicacion--><g class="cluster" data-entity="aplicacion" data-source-line="5" data-uid="ent0005" id="cluster_aplicacion"><rect fill="none" height="370" rx="2.5" ry="2.5" style="stroke:#181818;stroke-width:1;" width="331" x="102" y="240"/><text fill="#000000" font-family="sans-serif" font-size="14" font-weight="bold" lengthAdjust="spacing" textLength="79.4951" x="227.7524" y="254.9951">aplicacion</text></g><!--cluster presentacion--><g class="cluster" data-entity="presentacion" data-source-line="11" data-uid="ent0010" id="cluster_presentacion"><rect fill="none" height="231" rx="2.5" ry="2.5" style="stroke:#181818;stroke-width:1;" width="419" x="458" y="511"/><text fill="#000000" font-family="sans-serif" font-size="14" font-weight="bold" lengthAdjust="spacing" textLength="103.0381" x="615.981" y="525.9951">presentacion</text></g><!--cluster dominio--><g class="cluster" data-entity="dominio" data-source-line="18" data-uid="ent0015" id="cluster_dominio"><rect fill="none" height="351" rx="2.5" ry="2.5" style="stroke:#181818;stroke-width:1;" width="227" x="67" y="643"/><text fill="#000000" font-family="sans-serif" font-size="14" font-weight="bold" lengthAdjust="spacing" textLength="63.4102" x="148.7949" y="657.9951">dominio</text></g><!--class Juego--><g class="entity" data-entity="Juego" data-source-line="2" data-uid="ent0003" id="entity_Juego"><rect fill="#F1F1F1" height="48" rx="2.5" ry="2.5" style="stroke:#181818;stroke-width:0.5;" width="71.0674" x="517.5" y="84"/><ellipse cx="532.5" cy="100" fill="#ADD1B2" rx="11" ry="11" style="stroke:#181818;stroke-width:1;"/><path d="M535.4688,105.6406 Q534.8906,105.9375 534.25,106.0781 Q533.6094,106.2344 532.9063,106.2344 Q530.4063,106.2344 529.0781,104.5938 Q527.7656,102.9375 527.7656,99.8125 Q527.7656,96.6875 529.0781,95.0313 Q530.4063,93.375 532.9063,93.375 Q533.6094,93.375 534.25,93.5313 Q534.9063,93.6875 535.4688,93.9844 L535.4688,96.7031 Q534.8438,96.125 534.25,95.8594 Q533.6563,95.5781 533.0313,95.5781 Q531.6875,95.5781 531,96.6563 Q530.3125,97.7188 530.3125,99.8125 Q530.3125,101.9063 531,102.9844 Q531.6875,104.0469 533.0313,104.0469 Q533.6563,104.0469 534.25,103.7813 Q534.8438,103.5 535.4688,102.9219 L535.4688,105.6406 Z " fill="#000000"/><text fill="#000000" font-family="sans-serif" font-size="14" lengthAdjust="spacing" textLength="39.0674" x="546.5" y="104.8467">Juego</text><line style="stroke:#181818;stroke-width:0.5;" x1="518.5" x2="587.5674" y1="116" y2="116"/><line style="stroke:#181818;stroke-width:0.5;" x1="518.5" x2="587.5674" y1="124" y2="124"/></g><!--class PartidaBuilder--><g class="entity" data-entity="PartidaBuilder" data-source-line="6" data-uid="ent0006" id="entity_PartidaBuilder"><rect fill="#F1F1F1" height="48" rx="2.5" ry="2.5" style="stroke:#181818;stroke-width:0.5;" width="131.1348" x="281.5" y="275"/><ellipse cx="296.5" cy="291" fill="#ADD1B2" rx="11" ry="11" style="stroke:#181818;stroke-width:1;"/><path d="M299.4688,296.6406 Q298.8906,296.9375 298.25,297.0781 Q297.6094,297.2344 296.9063,297.2344 Q294.4063,297.2344 293.0781,295.5938 Q291.7656,293.9375 291.7656,290.8125 Q291.7656,287.6875 293.0781,286.0313 Q294.4063,284.375 296.9063,284.375 Q297.6094,284.375 298.25,284.5313 Q298.9063,284.6875 299.4688,284.9844 L299.4688,287.7031 Q298.8438,287.125 298.25,286.8594 Q297.6563,286.5781 297.0313,286.5781 Q295.6875,286.5781 295,287.6563 Q294.3125,288.7188 294.3125,290.8125 Q294.3125,292.9063 295,293.9844 Q295.6875,295.0469 297.0313,295.0469 Q297.6563,295.0469 298.25,294.7813 Q298.8438,294.5 299.4688,293.9219 L299.4688,296.6406 Z " fill="#000000"/><text fill="#000000" font-family="sans-serif" font-size="14" lengthAdjust="spacing" textLength="99.1348" x="310.5" y="295.8467">PartidaBuilder</text><line style="stroke:#181818;stroke-width:0.5;" x1="282.5" x2="411.6348" y1="307" y2="307"/><line style="stroke:#181818;stroke-width:0.5;" x1="282.5" x2="411.6348" y1="315" y2="315"/></g><!--class ControladorPartida--><g class="entity" data-entity="ControladorPartida" data-source-line="7" data-uid="ent0008" id="entity_ControladorPartida"><rect fill="#F1F1F1" height="48" rx="2.5" ry="2.5" style="stroke:#181818;stroke-width:0.5;" width="164.3232" x="253" y="400"/><ellipse cx="268" cy="416" fill="#ADD1B2" rx="11" ry="11" style="stroke:#181818;stroke-width:1;"/><path d="M270.9688,421.6406 Q270.3906,421.9375 269.75,422.0781 Q269.1094,422.2344 268.4063,422.2344 Q265.9063,422.2344 264.5781,420.5938 Q263.2656,418.9375 263.2656,415.8125 Q263.2656,412.6875 264.5781,411.0313 Q265.9063,409.375 268.4063,409.375 Q269.1094,409.375 269.75,409.5313 Q270.4063,409.6875 270.9688,409.9844 L270.9688,412.7031 Q270.3438,412.125 269.75,411.8594 Q269.1563,411.5781 268.5313,411.5781 Q267.1875,411.5781 266.5,412.6563 Q265.8125,413.7188 265.8125,415.8125 Q265.8125,417.9063 266.5,418.9844 Q267.1875,420.0469 268.5313,420.0469 Q269.1563,420.0469 269.75,419.7813 Q270.3438,419.5 270.9688,418.9219 L270.9688,421.6406 Z " fill="#000000"/><text fill="#000000" font-family="sans-serif" font-size="14" lengthAdjust="spacing" textLength="132.3232" x="282" y="420.8467">ControladorPartida</text><line style="stroke:#181818;stroke-width:0.5;" x1="254" x2="416.3232" y1="432" y2="432"/><line style="stroke:#181818;stroke-width:0.5;" x1="254" x2="416.3232" y1="440" y2="440"/></g><!--class ControladorJugador--><g class="entity" data-entity="ControladorJugador" data-source-line="8" data-uid="ent0009" id="entity_ControladorJugador"><rect fill="#F1F1F1" height="48" rx="2.5" ry="2.5" style="stroke:#181818;stroke-width:0.5;" width="168.377" x="160" y="546"/><ellipse cx="175" cy="562" fill="#ADD1B2" rx="11" ry="11" style="stroke:#181818;stroke-width:1;"/><path d="M177.9688,567.6406 Q177.3906,567.9375 176.75,568.0781 Q176.1094,568.2344 175.4063,568.2344 Q172.9063,568.2344 171.5781,566.5938 Q170.2656,564.9375 170.2656,561.8125 Q170.2656,558.6875 171.5781,557.0313 Q172.9063,555.375 175.4063,555.375 Q176.1094,555.375 176.75,555.5313 Q177.4063,555.6875 177.9688,555.9844 L177.9688,558.7031 Q177.3438,558.125 176.75,557.8594 Q176.1563,557.5781 175.5313,557.5781 Q174.1875,557.5781 173.5,558.6563 Q172.8125,559.7188 172.8125,561.8125 Q172.8125,563.9063 173.5,564.9844 Q174.1875,566.0469 175.5313,566.0469 Q176.1563,566.0469 176.75,565.7813 Q177.3438,565.5 177.9688,564.9219 L177.9688,567.6406 Z " fill="#000000"/><text fill="#000000" font-family="sans-serif" font-size="14" lengthAdjust="spacing" textLength="136.377" x="189" y="566.8467">ControladorJugador</text><line style="stroke:#181818;stroke-width:0.5;" x1="161" x2="327.377" y1="578" y2="578"/><line style="stroke:#181818;stroke-width:0.5;" x1="161" x2="327.377" y1="586" y2="586"/></g><!--class IVistaJugador--><g class="entity" data-entity="IVistaJugador" data-source-line="12" data-uid="ent0011" id="entity_IVistaJugador"><rect fill="#F1F1F1" height="48" rx="2.5" ry="2.5" style="stroke:#181818;stroke-width:0.5;" width="124.6338" x="636.5" y="678"/><ellipse cx="651.5" cy="694" fill="#B4A7E5" rx="11" ry="11" style="stroke:#181818;stroke-width:1;"/><path d="M647.4219,689.7656 L647.4219,687.6094 L654.8125,687.6094 L654.8125,689.7656 L652.3438,689.7656 L652.3438,697.8438 L654.8125,697.8438 L654.8125,700 L647.4219,700 L647.4219,697.8438 L649.8906,697.8438 L649.8906,689.7656 L647.4219,689.7656 Z " fill="#000000"/><text fill="#000000" font-family="sans-serif" font-size="14" font-style="italic" lengthAdjust="spacing" textLength="92.6338" x="665.5" y="698.8467">IVistaJugador</text><line style="stroke:#181818;stroke-width:0.5;" x1="637.5" x2="760.1338" y1="710" y2="710"/><line style="stroke:#181818;stroke-width:0.5;" x1="637.5" x2="760.1338" y1="718" y2="718"/></g><!--class IVistaTablero--><g class="entity" data-entity="IVistaTablero" data-source-line="13" data-uid="ent0012" id="entity_IVistaTablero"><rect fill="#F1F1F1" height="48" rx="2.5" ry="2.5" style="stroke:#181818;stroke-width:0.5;" width="123.7998" x="477" y="678"/><ellipse cx="492" cy="694" fill="#B4A7E5" rx="11" ry="11" style="stroke:#181818;stroke-width:1;"/><path d="M487.9219,689.7656 L487.9219,687.6094 L495.3125,687.6094 L495.3125,689.7656 L492.8438,689.7656 L492.8438,697.8438 L495.3125,697.8438 L495.3125,700 L487.9219,700 L487.9219,697.8438 L490.3906,697.8438 L490.3906,689.7656 L487.9219,689.7656 Z " fill="#000000"/><text fill="#000000" font-family="sans-serif" font-size="14" font-style="italic" lengthAdjust="spacing" textLength="91.7998" x="506" y="698.8467">IVistaTablero</text><line style="stroke:#181818;stroke-width:0.5;" x1="478" x2="599.7998" y1="710" y2="710"/><line style="stroke:#181818;stroke-width:0.5;" x1="478" x2="599.7998" y1="718" y2="718"/></g><!--class VistaConsolaJugador--><g class="entity" data-entity="VistaConsolaJugador" data-source-line="14" data-uid="ent0013" id="entity_VistaConsolaJugador"><rect fill="#F1F1F1" height="48" rx="2.5" ry="2.5" style="stroke:#181818;stroke-width:0.5;" width="176.0469" x="685" y="546"/><ellipse cx="700" cy="562" fill="#ADD1B2" rx="11" ry="11" style="stroke:#181818;stroke-width:1;"/><path d="M702.9688,567.6406 Q702.3906,567.9375 701.75,568.0781 Q701.1094,568.2344 700.4063,568.2344 Q697.9063,568.2344 696.5781,566.5938 Q695.2656,564.9375 695.2656,561.8125 Q695.2656,558.6875 696.5781,557.0313 Q697.9063,555.375 700.4063,555.375 Q701.1094,555.375 701.75,555.5313 Q702.4063,555.6875 702.9688,555.9844 L702.9688,558.7031 Q702.3438,558.125 701.75,557.8594 Q701.1563,557.5781 700.5313,557.5781 Q699.1875,557.5781 698.5,558.6563 Q697.8125,559.7188 697.8125,561.8125 Q697.8125,563.9063 698.5,564.9844 Q699.1875,566.0469 700.5313,566.0469 Q701.1563,566.0469 701.75,565.7813 Q702.3438,565.5 702.9688,564.9219 L702.9688,567.6406 Z " fill="#000000"/><text fill="#000000" font-family="sans-serif" font-size="14" lengthAdjust="spacing" textLength="144.0469" x="714" y="566.8467">VistaConsolaJugador</text><line style="stroke:#181818;stroke-width:0.5;" x1="686" x2="860.0469" y1="578" y2="578"/><line style="stroke:#181818;stroke-width:0.5;" x1="686" x2="860.0469" y1="586" y2="586"/></g><!--class VistaConsolaTablero--><g class="entity" data-entity="VistaConsolaTablero" data-source-line="15" data-uid="ent0014" id="entity_VistaConsolaTablero"><rect fill="#F1F1F1" height="48" rx="2.5" ry="2.5" style="stroke:#181818;stroke-width:0.5;" width="175.2129" x="474.5" y="546"/><ellipse cx="489.5" cy="562" fill="#ADD1B2" rx="11" ry="11" style="stroke:#181818;stroke-width:1;"/><path d="M492.4688,567.6406 Q491.8906,567.9375 491.25,568.0781 Q490.6094,568.2344 489.9063,568.2344 Q487.4063,568.2344 486.0781,566.5938 Q484.7656,564.9375 484.7656,561.8125 Q484.7656,558.6875 486.0781,557.0313 Q487.4063,555.375 489.9063,555.375 Q490.6094,555.375 491.25,555.5313 Q491.9063,555.6875 492.4688,555.9844 L492.4688,558.7031 Q491.8438,558.125 491.25,557.8594 Q490.6563,557.5781 490.0313,557.5781 Q488.6875,557.5781 488,558.6563 Q487.3125,559.7188 487.3125,561.8125 Q487.3125,563.9063 488,564.9844 Q488.6875,566.0469 490.0313,566.0469 Q490.6563,566.0469 491.25,565.7813 Q491.8438,565.5 492.4688,564.9219 L492.4688,567.6406 Z " fill="#000000"/><text fill="#000000" font-family="sans-serif" font-size="14" lengthAdjust="spacing" textLength="143.2129" x="503.5" y="566.8467">VistaConsolaTablero</text><line style="stroke:#181818;stroke-width:0.5;" x1="475.5" x2="648.7129" y1="578" y2="578"/><line style="stroke:#181818;stroke-width:0.5;" x1="475.5" x2="648.7129" y1="586" y2="586"/></g><!--class Tablero--><g class="entity" data-entity="Tablero" data-source-line="19" data-uid="ent0016" id="entity_Tablero"><rect fill="#F1F1F1" height="48" rx="2.5" ry="2.5" style="stroke:#181818;stroke-width:0.5;" width="84.8418" x="192.5" y="805"/><ellipse cx="207.5" cy="821" fill="#ADD1B2" rx="11" ry="11" style="stroke:#181818;stroke-width:1;"/><path d="M210.4688,826.6406 Q209.8906,826.9375 209.25,827.0781 Q208.6094,827.2344 207.9063,827.2344 Q205.4063,827.2344 204.0781,825.5938 Q202.7656,823.9375 202.7656,820.8125 Q202.7656,817.6875 204.0781,816.0313 Q205.4063,814.375 207.9063,814.375 Q208.6094,814.375 209.25,814.5313 Q209.9063,814.6875 210.4688,814.9844 L210.4688,817.7031 Q209.8438,817.125 209.25,816.8594 Q208.6563,816.5781 208.0313,816.5781 Q206.6875,816.5781 206,817.6563 Q205.3125,818.7188 205.3125,820.8125 Q205.3125,822.9063 206,823.9844 Q206.6875,825.0469 208.0313,825.0469 Q208.6563,825.0469 209.25,824.7813 Q209.8438,824.5 210.4688,823.9219 L210.4688,826.6406 Z " fill="#000000"/><text fill="#000000" font-family="sans-serif" font-size="14" lengthAdjust="spacing" textLength="52.8418" x="221.5" y="825.8467">Tablero</text><line style="stroke:#181818;stroke-width:0.5;" x1="193.5" x2="276.3418" y1="837" y2="837"/><line style="stroke:#181818;stroke-width:0.5;" x1="193.5" x2="276.3418" y1="845" y2="845"/></g><!--class Jugador--><g class="entity" data-entity="Jugador" data-source-line="20" data-uid="ent0017" id="entity_Jugador"><rect fill="#F1F1F1" height="48" rx="2.5" ry="2.5" style="stroke:#181818;stroke-width:0.5;" width="85.6758" x="192" y="678"/><ellipse cx="207" cy="694" fill="#ADD1B2" rx="11" ry="11" style="stroke:#181818;stroke-width:1;"/><path d="M209.9688,699.6406 Q209.3906,699.9375 208.75,700.0781 Q208.1094,700.2344 207.4063,700.2344 Q204.9063,700.2344 203.5781,698.5938 Q202.2656,696.9375 202.2656,693.8125 Q202.2656,690.6875 203.5781,689.0313 Q204.9063,687.375 207.4063,687.375 Q208.1094,687.375 208.75,687.5313 Q209.4063,687.6875 209.9688,687.9844 L209.9688,690.7031 Q209.3438,690.125 208.75,689.8594 Q208.1563,689.5781 207.5313,689.5781 Q206.1875,689.5781 205.5,690.6563 Q204.8125,691.7188 204.8125,693.8125 Q204.8125,695.9063 205.5,696.9844 Q206.1875,698.0469 207.5313,698.0469 Q208.1563,698.0469 208.75,697.7813 Q209.3438,697.5 209.9688,696.9219 L209.9688,699.6406 Z " fill="#000000"/><text fill="#000000" font-family="sans-serif" font-size="14" lengthAdjust="spacing" textLength="53.6758" x="221" y="698.8467">Jugador</text><line style="stroke:#181818;stroke-width:0.5;" x1="193" x2="276.6758" y1="710" y2="710"/><line style="stroke:#181818;stroke-width:0.5;" x1="193" x2="276.6758" y1="718" y2="718"/></g><!--class Turno--><g class="entity" data-entity="Turno" data-source-line="21" data-uid="ent0018" id="entity_Turno"><rect fill="#F1F1F1" height="48" rx="2.5" ry="2.5" style="stroke:#181818;stroke-width:0.5;" width="72.6191" x="83.5" y="678"/><ellipse cx="98.5" cy="694" fill="#ADD1B2" rx="11" ry="11" style="stroke:#181818;stroke-width:1;"/><path d="M101.4688,699.6406 Q100.8906,699.9375 100.25,700.0781 Q99.6094,700.2344 98.9063,700.2344 Q96.4063,700.2344 95.0781,698.5938 Q93.7656,696.9375 93.7656,693.8125 Q93.7656,690.6875 95.0781,689.0313 Q96.4063,687.375 98.9063,687.375 Q99.6094,687.375 100.25,687.5313 Q100.9063,687.6875 101.4688,687.9844 L101.4688,690.7031 Q100.8438,690.125 100.25,689.8594 Q99.6563,689.5781 99.0313,689.5781 Q97.6875,689.5781 97,690.6563 Q96.3125,691.7188 96.3125,693.8125 Q96.3125,695.9063 97,696.9844 Q97.6875,698.0469 99.0313,698.0469 Q99.6563,698.0469 100.25,697.7813 Q100.8438,697.5 101.4688,696.9219 L101.4688,699.6406 Z " fill="#000000"/><text fill="#000000" font-family="sans-serif" font-size="14" lengthAdjust="spacing" textLength="40.6191" x="112.5" y="698.8467">Turno</text><line style="stroke:#181818;stroke-width:0.5;" x1="84.5" x2="155.1191" y1="710" y2="710"/><line style="stroke:#181818;stroke-width:0.5;" x1="84.5" x2="155.1191" y1="718" y2="718"/></g><!--class Coordenada--><g class="entity" data-entity="Coordenada" data-source-line="22" data-uid="ent0019" id="entity_Coordenada"><rect fill="#F1F1F1" height="48" rx="2.5" ry="2.5" style="stroke:#181818;stroke-width:0.5;" width="117.0801" x="160.5" y="930"/><ellipse cx="175.5" cy="946" fill="#ADD1B2" rx="11" ry="11" style="stroke:#181818;stroke-width:1;"/><path d="M178.4688,951.6406 Q177.8906,951.9375 177.25,952.0781 Q176.6094,952.2344 175.9063,952.2344 Q173.4063,952.2344 172.0781,950.5938 Q170.7656,948.9375 170.7656,945.8125 Q170.7656,942.6875 172.0781,941.0313 Q173.4063,939.375 175.9063,939.375 Q176.6094,939.375 177.25,939.5313 Q177.9063,939.6875 178.4688,939.9844 L178.4688,942.7031 Q177.8438,942.125 177.25,941.8594 Q176.6563,941.5781 176.0313,941.5781 Q174.6875,941.5781 174,942.6563 Q173.3125,943.7188 173.3125,945.8125 Q173.3125,947.9063 174,948.9844 Q174.6875,950.0469 176.0313,950.0469 Q176.6563,950.0469 177.25,949.7813 Q177.8438,949.5 178.4688,948.9219 L178.4688,951.6406 Z " fill="#000000"/><text fill="#000000" font-family="sans-serif" font-size="14" lengthAdjust="spacing" textLength="85.0801" x="189.5" y="950.8467">Coordenada</text><line style="stroke:#181818;stroke-width:0.5;" x1="161.5" x2="276.5801" y1="962" y2="962"/><line style="stroke:#181818;stroke-width:0.5;" x1="161.5" x2="276.5801" y1="970" y2="970"/></g><!--link Juego to VistaConsolaTablero--><g class="link" data-entity-1="Juego" data-entity-2="VistaConsolaTablero" data-source-line="25" data-uid="lnk20" id="link_Juego_VistaConsolaTablero"><path codeLine="25" d="M563.48,132.25 C569.95,147.93 577.65,169.27 581,189 C603.69,322.5 578.9647,479.9726 567.7647,539.7626" fill="none" id="Juego-to-VistaConsolaTablero" style="stroke:#181818;stroke-width:1;stroke-dasharray:7,7;"/><polygon fill="#181818" points="566.66,545.66,572.2487,537.5503,567.5806,540.7455,564.3855,536.0774,566.66,545.66" style="stroke:#181818;stroke-width:1;"/><text fill="#000000" font-family="sans-serif" font-size="13" lengthAdjust="spacing" textLength="58.6523" x="589" y="366.0669">instancia</text></g><!--link Juego to VistaConsolaJugador--><g class="link" data-entity-1="Juego" data-entity-2="VistaConsolaJugador" data-source-line="26" data-uid="lnk21" id="link_Juego_VistaConsolaJugador"><path codeLine="26" d="M567.7,132.23 C573.63,141.92 580.38,153.37 586,164 C660.95,305.71 734.6351,477.5187 760.9851,540.2087" fill="none" id="Juego-to-VistaConsolaJugador" style="stroke:#181818;stroke-width:1;stroke-dasharray:7,7;"/><polygon fill="#181818" points="763.31,545.74,763.5101,535.8932,761.3726,541.1306,756.1351,538.9931,763.31,545.74" style="stroke:#181818;stroke-width:1;"/><text fill="#000000" font-family="sans-serif" font-size="13" lengthAdjust="spacing" textLength="58.6523" x="685" y="366.0669">instancia</text></g><!--link Juego to ControladorPartida--><g class="link" data-entity-1="Juego" data-entity-2="ControladorPartida" data-source-line="27" data-uid="lnk22" id="link_Juego_ControladorPartida"><path codeLine="27" d="M545.19,132.27 C527.97,180.95 482.79,295.16 415,370 C404.6,381.48 396.249,388.3784 383.399,396.6284" fill="none" id="Juego-to-ControladorPartida" style="stroke:#181818;stroke-width:1;stroke-dasharray:7,7;"/><polygon fill="#181818" points="378.35,399.87,388.0845,398.3736,382.5575,397.1687,383.7624,391.6417,378.35,399.87" style="stroke:#181818;stroke-width:1;"/><text fill="#000000" font-family="sans-serif" font-size="13" lengthAdjust="spacing" textLength="48.0581" x="524" y="303.5669">ejecuta</text></g><!--link Juego to PartidaBuilder--><g class="link" data-entity-1="Juego" data-entity-2="PartidaBuilder" data-source-line="28" data-uid="lnk23" id="link_Juego_PartidaBuilder"><path codeLine="28" d="M518.36,132.15 C505.04,141.54 489.93,152.81 477,164 C435.58,199.85 396.1909,242.2897 371.4809,270.0297" fill="none" id="Juego-to-PartidaBuilder" style="stroke:#181818;stroke-width:1;stroke-dasharray:7,7;"/><polygon fill="#181818" points="367.49,274.51,376.4632,270.4502,370.8157,270.7764,370.4895,265.129,367.49,274.51" style="stroke:#181818;stroke-width:1;"/><text fill="#000000" font-family="sans-serif" font-size="13" lengthAdjust="spacing" textLength="22.9785" x="478" y="177.0669">usa</text></g><!--link PartidaBuilder to IVistaTablero--><g class="link" data-entity-1="PartidaBuilder" data-entity-2="IVistaTablero" data-source-line="30" data-uid="lnk24" id="link_PartidaBuilder_IVistaTablero"><path codeLine="30" d="M383.57,323.15 C394.73,331.52 406.33,341.73 415,353 C428.84,371 430.46,377.76 435,400 C439.26,420.9 444.18,428.74 435,448 C425.89,467.11 407.11,458.89 398,478 C388.44,498.05 374.32,547.86 429,627 C443.92,648.59 462.1526,662.6395 483.5726,674.8995" fill="none" id="PartidaBuilder-to-IVistaTablero" style="stroke:#181818;stroke-width:1;"/><polygon fill="#181818" points="488.78,677.88,482.956,669.9377,484.4405,675.3963,478.982,676.8808,488.78,677.88" style="stroke:#181818;stroke-width:1;"/><text fill="#000000" font-family="sans-serif" font-size="13" lengthAdjust="spacing" textLength="60.2646" x="399" y="491.0669">recolecta</text></g><!--link PartidaBuilder to IVistaJugador--><g class="link" data-entity-1="PartidaBuilder" data-entity-2="IVistaJugador" data-source-line="31" data-uid="lnk25" id="link_PartidaBuilder_IVistaJugador"><path codeLine="31" d="M394.17,323.16 C406.83,331.19 419.61,341.19 429,353 C442.83,370.38 439.71,378.69 446,400 C456.07,434.12 459.97,442.65 464,478 C464.85,485.51 466.66,487.93 464,495 C462.34,499.42 458.66,498.58 457,503 C439.02,550.85 422.8,580.02 457,618 C481.22,644.9 585.62,621 619,635 C641.91,644.61 659.133,658.7917 674.043,673.7417" fill="none" id="PartidaBuilder-to-IVistaJugador" style="stroke:#181818;stroke-width:1;"/><polygon fill="#181818" points="678.28,677.99,674.7568,668.7929,674.7492,674.4497,669.0924,674.4422,678.28,677.99" style="stroke:#181818;stroke-width:1;"/><text fill="#000000" font-family="sans-serif" font-size="13" lengthAdjust="spacing" textLength="60.2646" x="466" y="491.0669">recolecta</text></g><!--link PartidaBuilder to Jugador--><g class="link" data-entity-1="PartidaBuilder" data-entity-2="Jugador" data-source-line="32" data-uid="lnk26" id="link_PartidaBuilder_Jugador"><path codeLine="32" d="M281.29,313.58 C250.95,321.84 215.43,334.46 187,353 C124.27,393.91 100.91,408.11 74,478 C52.76,533.17 62.48,538.25 143,618 C154.16,629.06 161.62,625.33 174,635 C189.98,647.49 201.6016,659.7152 212.9716,673.2552" fill="none" id="PartidaBuilder-to-Jugador" style="stroke:#181818;stroke-width:1;"/><polygon fill="#181818" points="216.83,677.85,214.1056,668.3855,213.6146,674.021,207.9791,673.53,216.83,677.85" style="stroke:#181818;stroke-width:1;"/><text fill="#000000" font-family="sans-serif" font-size="13" lengthAdjust="spacing" textLength="58.6523" x="75" y="491.0669">instancia</text></g><!--link PartidaBuilder to ControladorJugador--><g class="link" data-entity-1="PartidaBuilder" data-entity-2="ControladorJugador" data-source-line="33" data-uid="lnk27" id="link_PartidaBuilder_ControladorJugador"><path codeLine="33" d="M281.32,318.76 C241.8,333.81 194.69,359.3 171,400 C142.22,449.45 185.2991,507.9715 216.2691,541.3515" fill="none" id="PartidaBuilder-to-ControladorJugador" style="stroke:#181818;stroke-width:1;"/><polygon fill="#181818" points="220.35,545.75,217.161,536.4317,216.9493,542.0846,211.2964,541.8729,220.35,545.75" style="stroke:#181818;stroke-width:1;"/><text fill="#000000" font-family="sans-serif" font-size="13" lengthAdjust="spacing" textLength="63.4702" x="172" y="428.5669">ensambla</text></g><!--link PartidaBuilder to ControladorPartida--><g class="link" data-entity-1="PartidaBuilder" data-entity-2="ControladorPartida" data-source-line="34" data-uid="lnk28" id="link_PartidaBuilder_ControladorPartida"><path codeLine="34" d="M344.74,323.14 C342.6,345.13 339.9719,372.0383 337.8319,393.9983" fill="none" id="PartidaBuilder-to-ControladorPartida" style="stroke:#181818;stroke-width:1;stroke-dasharray:7,7;"/><polygon fill="#181818" points="337.25,399.97,342.1041,391.4004,337.735,394.9936,334.1418,390.6245,337.25,399.97" style="stroke:#181818;stroke-width:1;"/><text fill="#000000" font-family="sans-serif" font-size="13" lengthAdjust="spacing" textLength="64.4858" x="342" y="366.0669">construye</text></g><!--link VistaConsolaJugador to IVistaJugador--><g class="link" data-entity-1="VistaConsolaJugador" data-entity-2="IVistaJugador" data-source-line="36" data-uid="lnk29" id="link_VistaConsolaJugador_IVistaJugador"><path codeLine="36" d="M759.77,594.24 C746.3,617.9 734.4405,638.7245 721.0205,662.3145" fill="none" id="VistaConsolaJugador-to-IVistaJugador" style="stroke:#181818;stroke-width:1;stroke-dasharray:7,7;"/><polygon fill="none" points="712.12,677.96,726.2356,665.2813,715.8053,659.3477,712.12,677.96" style="stroke:#181818;stroke-width:1;"/></g><!--link VistaConsolaTablero to IVistaTablero--><g class="link" data-entity-1="VistaConsolaTablero" data-entity-2="IVistaTablero" data-source-line="37" data-uid="lnk30" id="link_VistaConsolaTablero_IVistaTablero"><path codeLine="37" d="M557.89,594.24 C553.7,617.9 550.3833,636.6448 546.2133,660.2348" fill="none" id="VistaConsolaTablero-to-IVistaTablero" style="stroke:#181818;stroke-width:1;stroke-dasharray:7,7;"/><polygon fill="none" points="543.08,677.96,552.1217,661.2792,540.3049,659.1904,543.08,677.96" style="stroke:#181818;stroke-width:1;"/></g><!--link ControladorPartida to Tablero--><g class="link" data-entity-1="ControladorPartida" data-entity-2="Tablero" data-source-line="39" data-uid="lnk31" id="link_ControladorPartida_Tablero"><path codeLine="39" d="M252.83,445.82 C208.27,457.63 160.55,471.35 152,478 C145.08,483.38 149.13,489.9 142,495 C127.61,505.29 115.95,490.94 103,503 C58.42,544.53 74.3,574.64 66,635 C59.04,685.63 38.45,706.95 66,750 C67.86,752.91 137.1642,784.2773 186.6142,806.4273" fill="none" id="ControladorPartida-to-Tablero" style="stroke:#181818;stroke-width:1;"/><polygon fill="#181818" points="192.09,808.88,185.5115,801.5504,187.5269,806.836,182.2412,808.8514,192.09,808.88" style="stroke:#181818;stroke-width:1;"/></g><!--link ControladorPartida to Turno--><g class="link" data-entity-1="ControladorPartida" data-entity-2="Turno" data-source-line="40" data-uid="lnk32" id="link_ControladorPartida_Turno"><path codeLine="40" d="M256.21,448.02 C209.9,463.19 157.65,483.74 143,503 C103.51,554.92 108.8084,631.7966 114.8284,671.8566" fill="none" id="ControladorPartida-to-Turno" style="stroke:#181818;stroke-width:1;"/><polygon fill="#181818" points="115.72,677.79,118.3381,668.2955,114.977,672.8455,110.427,669.4844,115.72,677.79" style="stroke:#181818;stroke-width:1;"/></g><!--link ControladorPartida to ControladorJugador--><g class="link" data-entity-1="ControladorPartida" data-entity-2="ControladorJugador" data-source-line="41" data-uid="lnk33" id="link_ControladorPartida_ControladorJugador"><path codeLine="41" d="M320.38,448.14 C303.4,475.01 278.7556,513.9981 261.7856,540.8481" fill="none" id="ControladorPartida-to-ControladorJugador" style="stroke:#181818;stroke-width:1;"/><polygon fill="#181818" points="258.58,545.92,266.7697,540.4492,261.2513,541.6934,260.0071,536.1751,258.58,545.92" style="stroke:#181818;stroke-width:1;"/><text fill="#000000" font-family="sans-serif" font-size="13" lengthAdjust="spacing" textLength="8.271" x="253.2775" y="534.9115">2</text></g><!--link ControladorPartida to IVistaTablero--><g class="link" data-entity-1="ControladorPartida" data-entity-2="IVistaTablero" data-source-line="42" data-uid="lnk34" id="link_ControladorPartida_IVistaTablero"><path codeLine="42" d="M338.32,448.12 C345.67,495.97 364.86,603.37 392,627 C411.62,644.09 425.91,625.17 450,635 C474.4,644.96 493.6604,659.2023 510.4904,673.9723" fill="none" id="ControladorPartida-to-IVistaTablero" style="stroke:#181818;stroke-width:1;"/><polygon fill="#181818" points="515,677.93,510.874,668.9871,511.242,674.6319,505.5971,674.9999,515,677.93" style="stroke:#181818;stroke-width:1;"/></g><!--link ControladorJugador to Jugador--><g class="link" data-entity-1="ControladorJugador" data-entity-2="Jugador" data-source-line="44" data-uid="lnk35" id="link_ControladorJugador_Jugador"><path codeLine="44" d="M242.39,594.24 C240.75,617.9 238.6436,648.3843 237.0136,671.9743" fill="none" id="ControladorJugador-to-Jugador" style="stroke:#181818;stroke-width:1;"/><polygon fill="#181818" points="236.6,677.96,241.2109,669.2571,236.9447,672.9719,233.2299,668.7057,236.6,677.96" style="stroke:#181818;stroke-width:1;"/></g><!--link ControladorJugador to IVistaJugador--><g class="link" data-entity-1="ControladorJugador" data-entity-2="IVistaJugador" data-source-line="45" data-uid="lnk36" id="link_ControladorJugador_IVistaJugador"><path codeLine="45" d="M306,594.04 C341.48,606.14 387.15,619.9 429,627 C470.66,634.07 579.54,619.88 619,635 C642.37,643.96 659.7613,658.3441 674.6013,673.5641" fill="none" id="ControladorJugador-to-IVistaJugador" style="stroke:#181818;stroke-width:1;"/><polygon fill="#181818" points="678.79,677.86,675.3709,668.6237,675.2994,674.2801,669.643,674.2086,678.79,677.86" style="stroke:#181818;stroke-width:1;"/></g><!--link ControladorJugador to Tablero--><g class="link" data-entity-1="ControladorJugador" data-entity-2="Tablero" data-source-line="46" data-uid="lnk37" id="link_ControladorJugador_Tablero"><path codeLine="46" d="M268.09,594.07 C278.41,605.39 289.56,619.85 296,635 C320.47,692.59 339.95,719.52 311,775 C303.71,788.98 295.9244,796.8025 282.8444,805.1125" fill="none" id="ControladorJugador-to-Tablero" style="stroke:#181818;stroke-width:1;stroke-dasharray:7,7;"/><polygon fill="#181818" points="277.78,808.33,287.5215,806.88,282.0003,805.6488,283.2315,800.1275,277.78,808.33" style="stroke:#181818;stroke-width:1;"/><text fill="#000000" font-family="sans-serif" font-size="13" lengthAdjust="spacing" textLength="55.7832" x="326" y="706.5669">modifica</text></g><!--link ControladorJugador to Coordenada--><g class="link" data-entity-1="ControladorJugador" data-entity-2="Coordenada" data-source-line="47" data-uid="lnk38" id="link_ControladorJugador_Coordenada"><path codeLine="47" d="M288.39,594.2 C304.45,602.2 322.85,610.92 340,618 C361.7,626.96 376.33,615.92 390,635 C419.76,676.55 405.9,701.43 390,750 C364.41,828.17 296.0325,892.2437 254.1525,926.1637" fill="none" id="ControladorJugador-to-Coordenada" style="stroke:#181818;stroke-width:1;stroke-dasharray:7,7;"/><polygon fill="#181818" points="249.49,929.94,259.0014,927.3838,253.3754,926.793,253.9662,921.1671,249.49,929.94" style="stroke:#181818;stroke-width:1;"/><text fill="#000000" font-family="sans-serif" font-size="13" lengthAdjust="spacing" textLength="40.3521" x="387" y="771.0669">recibe</text></g><!--link IVistaJugador to Coordenada--><g class="link" data-entity-1="IVistaJugador" data-entity-2="Coordenada" data-source-line="49" data-uid="lnk39" id="link_IVistaJugador_Coordenada"><path codeLine="49" d="M677.03,726.17 C636.33,767.66 544.67,854.57 450,900 C394.91,926.44 331.9518,939.206 283.7918,945.966" fill="none" id="IVistaJugador-to-Coordenada" style="stroke:#181818;stroke-width:1;stroke-dasharray:7,7;"/><polygon fill="#181818" points="277.85,946.8,287.3186,949.5101,282.8015,946.105,286.2066,941.5878,277.85,946.8" style="stroke:#181818;stroke-width:1;"/><text fill="#000000" font-family="sans-serif" font-size="13" lengthAdjust="spacing" textLength="59.4839" x="590" y="833.5669">devuelve</text></g><!--link IVistaTablero to Tablero--><g class="link" data-entity-1="IVistaTablero" data-entity-2="Tablero" data-source-line="50" data-uid="lnk40" id="link_IVistaTablero_Tablero"><path codeLine="50" d="M529.44,726.02 C521.52,742.22 508.69,763.07 491,775 C425.91,818.91 337.8788,827.5614 283.7488,828.6314" fill="none" id="IVistaTablero-to-Tablero" style="stroke:#181818;stroke-width:1;stroke-dasharray:7,7;"/><polygon fill="#181818" points="277.75,828.75,286.8273,832.5713,282.749,828.6512,286.6692,824.5729,277.75,828.75" style="stroke:#181818;stroke-width:1;"/><text fill="#000000" font-family="sans-serif" font-size="13" lengthAdjust="spacing" textLength="55.0278" x="509" y="771.0669">consulta</text></g><!--link Jugador to Tablero--><g class="link" data-entity-1="Jugador" data-entity-2="Tablero" data-source-line="52" data-uid="lnk41" id="link_Jugador_Tablero"><path codeLine="52" d="M235,726.22 C235,748.67 235,776.5 235,798.91" fill="none" id="Jugador-to-Tablero" style="stroke:#181818;stroke-width:1;stroke-dasharray:7,7;"/><polygon fill="#181818" points="235,804.91,239,795.91,235,799.91,231,795.91,235,804.91" style="stroke:#181818;stroke-width:1;"/><text fill="#000000" font-family="sans-serif" font-size="13" lengthAdjust="spacing" textLength="66.7075" x="236" y="771.0669">interact&#250;a</text></g><!--link Jugador to Coordenada--><g class="link" data-entity-1="Jugador" data-entity-2="Coordenada" data-source-line="53" data-uid="lnk42" id="link_Jugador_Coordenada"><path codeLine="53" d="M207.65,726.24 C187.69,745.13 162.23,773.69 151,805 C134.67,850.51 166.5054,896.783 192.0954,925.463" fill="none" id="Jugador-to-Coordenada" style="stroke:#181818;stroke-width:1;stroke-dasharray:7,7;"/><polygon fill="#181818" points="196.09,929.94,193.0827,920.5615,192.7612,926.2092,187.1135,925.8876,196.09,929.94" style="stroke:#181818;stroke-width:1;"/><text fill="#000000" font-family="sans-serif" font-size="13" lengthAdjust="spacing" textLength="22.9785" x="152" y="833.5669">usa</text></g><!--link Tablero to Coordenada--><g class="link" data-entity-1="Tablero" data-entity-2="Coordenada" data-source-line="54" data-uid="lnk43" id="link_Tablero_Coordenada"><path codeLine="54" d="M231.99,853.14 C229.13,875.13 225.6222,902.0599 222.7722,924.0199" fill="none" id="Tablero-to-Coordenada" style="stroke:#181818;stroke-width:1;stroke-dasharray:7,7;"/><polygon fill="#181818" points="222,929.97,227.1251,921.5597,222.6435,925.0116,219.1916,920.53,222,929.97" style="stroke:#181818;stroke-width:1;"/><text fill="#000000" font-family="sans-serif" font-size="13" lengthAdjust="spacing" textLength="43.4751" x="228" y="896.0669">eval&#250;a</text></g><!--SRC=[VLIxJiGm4Epz5LRwIq69JYcW0Wa9eOX-pzcB38uT-N4I0dwCbXzZ4ouw-s8dJIJFh7TsTf8Hn3lqo2jXXle9fAxuVl-2meFk5JOD_sIS7g70EVuOi3Vicx4nhcgbQ46q1ciObHGWfDcyvHcibntS1Qawj15mRxItHa5dx9cJ1nz3FxqsX8mM7Mg_8KLgZ_O80ld3gtGUbZjpM0i7XTP4OkPZKkH8K5ovHfVQijRE359Bi-NOMi2wQHkiDebVndQeWKoatlFcU5qtEN7ybaQcKoqa59ZdVWNcUd54n3SKmSUqTF542GuOkphTxPhKTk9P54PDtfJ95u6RvDmS6TewRDD0si5mKAk2eWE2lFCsV21ZEI_h-kjAFSij9w8jEM2PTfFi1I_1SqGAO7LJvRwn0hkiPvakShi4fxDdI9EpbnGCffD7-h-Kc9V4_wT07iZuD1qhMeUdWEg4B8rSsdZQOr0KA9ONDlylGFZV7s35JbFMu-iJ44-WgFeF]--></g></svg>