<?plantuml 1.2026.2beta3?><svg xmlns="http://www.w3.org/2000/svg" xmlns:xlink="http://www.w3.org/1999/xlink" contentStyleType="text/css" data-diagram-type="CLASS" height="386px" preserveAspectRatio="none" style="width:290px;height:386px;background:#FFFFFF;" version="1.1" viewBox="0 0 290 386" width="290px" zoomAndPan="magnify"><defs/><g><!--class Cuestionamiento--><g class="entity" data-qualified-name="Cuestionamiento" data-source-line="1" id="ent0002"><rect fill="#F1F1F1" height="48" rx="2.5" ry="2.5" style="stroke:#181818;stroke-width:0.5;" width="151.0205" x="7" y="115"/><ellipse cx="22" cy="131" fill="#ADD1B2" rx="11" ry="11" style="stroke:#181818;stroke-width:1;"/><path d="M24.9688,136.6406 Q24.3906,136.9375 23.75,137.0781 Q23.1094,137.2344 22.4063,137.2344 Q19.9063,137.2344 18.5781,135.5938 Q17.2656,133.9375 17.2656,130.8125 Q17.2656,127.6875 18.5781,126.0313 Q19.9063,124.375 22.4063,124.375 Q23.1094,124.375 23.75,124.5313 Q24.4063,124.6875 24.9688,124.9844 L24.9688,127.7031 Q24.3438,127.125 23.75,126.8594 Q23.1563,126.5781 22.5313,126.5781 Q21.1875,126.5781 20.5,127.6563 Q19.8125,128.7188 19.8125,130.8125 Q19.8125,132.9063 20.5,133.9844 Q21.1875,135.0469 22.5313,135.0469 Q23.1563,135.0469 23.75,134.7813 Q24.3438,134.5 24.9688,133.9219 L24.9688,136.6406 Z " fill="#000000"/><text fill="#000000" font-family="sans-serif" font-size="14" lengthAdjust="spacing" textLength="119.0205" x="36" y="135.8467">Cuestionamiento</text><line style="stroke:#181818;stroke-width:0.5;" x1="8" x2="157.0205" y1="147" y2="147"/><line style="stroke:#181818;stroke-width:0.5;" x1="8" x2="157.0205" y1="155" y2="155"/></g><!--class Alternativa--><g class="entity" data-qualified-name="Alternativa" data-source-line="3" id="ent0003"><rect fill="#F1F1F1" height="48" rx="2.5" ry="2.5" style="stroke:#181818;stroke-width:0.5;" width="109.0205" x="76" y="223"/><ellipse cx="91" cy="239" fill="#ADD1B2" rx="11" ry="11" style="stroke:#181818;stroke-width:1;"/><path d="M93.9688,244.6406 Q93.3906,244.9375 92.75,245.0781 Q92.1094,245.2344 91.4063,245.2344 Q88.9063,245.2344 87.5781,243.5938 Q86.2656,241.9375 86.2656,238.8125 Q86.2656,235.6875 87.5781,234.0313 Q88.9063,232.375 91.4063,232.375 Q92.1094,232.375 92.75,232.5313 Q93.4063,232.6875 93.9688,232.9844 L93.9688,235.7031 Q93.3438,235.125 92.75,234.8594 Q92.1563,234.5781 91.5313,234.5781 Q90.1875,234.5781 89.5,235.6563 Q88.8125,236.7188 88.8125,238.8125 Q88.8125,240.9063 89.5,241.9844 Q90.1875,243.0469 91.5313,243.0469 Q92.1563,243.0469 92.75,242.7813 Q93.3438,242.5 93.9688,241.9219 L93.9688,244.6406 Z " fill="#000000"/><text fill="#000000" font-family="sans-serif" font-size="14" lengthAdjust="spacing" textLength="77.0205" x="105" y="243.8467">Alternativa</text><line style="stroke:#181818;stroke-width:0.5;" x1="77" x2="184.0205" y1="255" y2="255"/><line style="stroke:#181818;stroke-width:0.5;" x1="77" x2="184.0205" y1="263" y2="263"/></g><!--class Eleccion--><g class="entity" data-qualified-name="Eleccion" data-source-line="5" id="ent0004"><rect fill="#F1F1F1" height="48" rx="2.5" ry="2.5" style="stroke:#181818;stroke-width:0.5;" width="90.0713" x="193.47" y="115"/><ellipse cx="208.47" cy="131" fill="#ADD1B2" rx="11" ry="11" style="stroke:#181818;stroke-width:1;"/><path d="M211.4388,136.6406 Q210.8606,136.9375 210.22,137.0781 Q209.5794,137.2344 208.8763,137.2344 Q206.3763,137.2344 205.0481,135.5938 Q203.7356,133.9375 203.7356,130.8125 Q203.7356,127.6875 205.0481,126.0313 Q206.3763,124.375 208.8763,124.375 Q209.5794,124.375 210.22,124.5313 Q210.8763,124.6875 211.4388,124.9844 L211.4388,127.7031 Q210.8138,127.125 210.22,126.8594 Q209.6263,126.5781 209.0013,126.5781 Q207.6575,126.5781 206.97,127.6563 Q206.2825,128.7188 206.2825,130.8125 Q206.2825,132.9063 206.97,133.9844 Q207.6575,135.0469 209.0013,135.0469 Q209.6263,135.0469 210.22,134.7813 Q210.8138,134.5 211.4388,133.9219 L211.4388,136.6406 Z " fill="#000000"/><text fill="#000000" font-family="sans-serif" font-size="14" lengthAdjust="spacing" textLength="58.0713" x="222.47" y="135.8467">Eleccion</text><line style="stroke:#181818;stroke-width:0.5;" x1="194.47" x2="282.5413" y1="147" y2="147"/><line style="stroke:#181818;stroke-width:0.5;" x1="194.47" x2="282.5413" y1="155" y2="155"/></g><!--class Consecuencia--><g class="entity" data-qualified-name="Consecuencia" data-source-line="7" id="ent0005"><rect fill="#F1F1F1" height="48" rx="2.5" ry="2.5" style="stroke:#181818;stroke-width:0.5;" width="129.3438" x="119.84" y="331"/><ellipse cx="134.84" cy="347" fill="#ADD1B2" rx="11" ry="11" style="stroke:#181818;stroke-width:1;"/><path d="M137.8088,352.6406 Q137.2306,352.9375 136.59,353.0781 Q135.9494,353.2344 135.2463,353.2344 Q132.7463,353.2344 131.4181,351.5938 Q130.1056,349.9375 130.1056,346.8125 Q130.1056,343.6875 131.4181,342.0313 Q132.7463,340.375 135.2463,340.375 Q135.9494,340.375 136.59,340.5313 Q137.2463,340.6875 137.8088,340.9844 L137.8088,343.7031 Q137.1838,343.125 136.59,342.8594 Q135.9963,342.5781 135.3713,342.5781 Q134.0275,342.5781 133.34,343.6563 Q132.6525,344.7188 132.6525,346.8125 Q132.6525,348.9063 133.34,349.9844 Q134.0275,351.0469 135.3713,351.0469 Q135.9963,351.0469 136.59,350.7813 Q137.1838,350.5 137.8088,349.9219 L137.8088,352.6406 Z " fill="#000000"/><text fill="#000000" font-family="sans-serif" font-size="14" lengthAdjust="spacing" textLength="97.3438" x="148.84" y="351.8467">Consecuencia</text><line style="stroke:#181818;stroke-width:0.5;" x1="120.84" x2="248.1838" y1="363" y2="363"/><line style="stroke:#181818;stroke-width:0.5;" x1="120.84" x2="248.1838" y1="371" y2="371"/></g><!--class Conciencia--><g class="entity" data-qualified-name="Conciencia" data-source-line="9" id="ent0006"><rect fill="#F1F1F1" height="48" rx="2.5" ry="2.5" style="stroke:#181818;stroke-width:0.5;" width="108.4531" x="106.28" y="7"/><ellipse cx="121.28" cy="23" fill="#ADD1B2" rx="11" ry="11" style="stroke:#181818;stroke-width:1;"/><path d="M124.2488,28.6406 Q123.6706,28.9375 123.03,29.0781 Q122.3894,29.2344 121.6863,29.2344 Q119.1863,29.2344 117.8581,27.5938 Q116.5456,25.9375 116.5456,22.8125 Q116.5456,19.6875 117.8581,18.0313 Q119.1863,16.375 121.6863,16.375 Q122.3894,16.375 123.03,16.5313 Q123.6863,16.6875 124.2488,16.9844 L124.2488,19.7031 Q123.6238,19.125 123.03,18.8594 Q122.4363,18.5781 121.8113,18.5781 Q120.4675,18.5781 119.78,19.6563 Q119.0925,20.7188 119.0925,22.8125 Q119.0925,24.9063 119.78,25.9844 Q120.4675,27.0469 121.8113,27.0469 Q122.4363,27.0469 123.03,26.7813 Q123.6238,26.5 124.2488,25.9219 L124.2488,28.6406 Z " fill="#000000"/><text fill="#000000" font-family="sans-serif" font-size="14" lengthAdjust="spacing" textLength="76.4531" x="135.28" y="27.8467">Conciencia</text><line style="stroke:#181818;stroke-width:0.5;" x1="107.28" x2="213.7331" y1="39" y2="39"/><line style="stroke:#181818;stroke-width:0.5;" x1="107.28" x2="213.7331" y1="47" y2="47"/></g><!--reverse link Cuestionamiento to Alternativa--><g class="link" data-entity-1="ent0002" data-entity-2="ent0003" data-link-type="aggregation" data-source-line="11" id="lnk7"><path codeLine="11" d="M97.9921,174.1905 C106.0021,191.8705 112,205.13 120,222.79" fill="none" id="Cuestionamiento-backto-Alternativa" style="stroke:#181818;stroke-width:1;"/><polygon fill="none" points="93.04,163.26,91.8726,170.376,97.9921,174.1905,99.1596,167.0746,93.04,163.26" style="stroke:#181818;stroke-width:1;"/></g><!--link Eleccion to Alternativa--><g class="link" data-entity-1="ent0004" data-entity-2="ent0003" data-link-type="dependency" data-source-line="12" id="lnk8"><path codeLine="12" d="M214.81,163.26 C196.8,180.94 176.4317,200.9268 158.4417,218.5868" fill="none" id="Eleccion-to-Alternativa" style="stroke:#181818;stroke-width:1;"/><polygon fill="#181818" points="154.16,222.79,163.3847,219.3397,157.7281,219.2873,157.7805,213.6307,154.16,222.79" style="stroke:#181818;stroke-width:1;"/></g><!--reverse link Eleccion to Consecuencia--><g class="link" data-entity-1="ent0004" data-entity-2="ent0005" data-link-type="aggregation" data-source-line="13" id="lnk9"><path codeLine="13" d="M229.693,174.945 C219.303,216.105 200.77,289.58 190.38,330.72" fill="none" id="Eleccion-backto-Consecuencia" style="stroke:#181818;stroke-width:1;"/><polygon fill="none" points="232.63,163.31,227.2831,168.1485,229.693,174.945,235.0398,170.1065,232.63,163.31" style="stroke:#181818;stroke-width:1;"/></g><!--link Alternativa to Consecuencia--><g class="link" data-entity-1="ent0003" data-entity-2="ent0005" data-link-type="dependency" data-source-line="14" id="lnk10"><path codeLine="14" d="M142.36,271.26 C151.36,288.94 160.9656,307.7842 169.9656,325.4442" fill="none" id="Alternativa-to-Consecuencia" style="stroke:#181818;stroke-width:1;"/><polygon fill="#181818" points="172.69,330.79,172.1673,320.955,170.4197,326.3351,165.0396,324.5875,172.69,330.79" style="stroke:#181818;stroke-width:1;"/></g><!--link Conciencia to Cuestionamiento--><g class="link" data-entity-1="ent0006" data-entity-2="ent0002" data-link-type="dependency" data-source-line="15" id="lnk11"><path codeLine="15" d="M143.39,55.26 C130.39,72.94 116.1352,92.2967 103.1452,109.9567" fill="none" id="Conciencia-to-Cuestionamiento" style="stroke:#181818;stroke-width:1;stroke-dasharray:7,7;"/><polygon fill="#181818" points="99.59,114.79,108.145,109.9102,102.5526,110.7623,101.7006,105.1699,99.59,114.79" style="stroke:#181818;stroke-width:1;"/></g><!--link Conciencia to Eleccion--><g class="link" data-entity-1="ent0006" data-entity-2="ent0004" data-link-type="dependency" data-source-line="16" id="lnk12"><path codeLine="16" d="M177.63,55.26 C190.63,72.94 204.8848,92.2967 217.8748,109.9567" fill="none" id="Conciencia-to-Eleccion" style="stroke:#181818;stroke-width:1;"/><polygon fill="#181818" points="221.43,114.79,219.3194,105.1699,218.4674,110.7623,212.875,109.9102,221.43,114.79" style="stroke:#181818;stroke-width:1;"/></g><?plantuml-src ROzV2e0W38VVFOKNq2C88HraZ3qCR49gvoybIQl7VRz_30Eaf7sXb3aAR4oIerBOy18oxGAP3-Xe3OHuEVljeoJ2Ge8C0qE-oQjPHsEcsjwdZN7_GarCAuEhfIRnsTRMkizZWroZVUG4?></g></svg>