<?plantuml 1.2026.2beta3?><svg xmlns="http://www.w3.org/2000/svg" xmlns:xlink="http://www.w3.org/1999/xlink" contentStyleType="text/css" data-diagram-type="CLASS" height="494px" preserveAspectRatio="none" style="width:338px;height:494px;background:#FFFFFF;" version="1.1" viewBox="0 0 338 494" width="338px" zoomAndPan="magnify"><defs/><g><!--class Cuestionamiento--><g class="entity" data-qualified-name="Cuestionamiento" data-source-line="1" id="ent0002"><rect fill="#F1F1F1" height="48" rx="2.5" ry="2.5" style="stroke:#181818;stroke-width:0.5;" width="151.0205" x="54.9" y="115"/><ellipse cx="69.9" cy="131" fill="#ADD1B2" rx="11" ry="11" style="stroke:#181818;stroke-width:1;"/><path d="M72.8688,136.6406 Q72.2906,136.9375 71.65,137.0781 Q71.0094,137.2344 70.3063,137.2344 Q67.8063,137.2344 66.4781,135.5938 Q65.1656,133.9375 65.1656,130.8125 Q65.1656,127.6875 66.4781,126.0313 Q67.8063,124.375 70.3063,124.375 Q71.0094,124.375 71.65,124.5313 Q72.3063,124.6875 72.8688,124.9844 L72.8688,127.7031 Q72.2438,127.125 71.65,126.8594 Q71.0563,126.5781 70.4313,126.5781 Q69.0875,126.5781 68.4,127.6563 Q67.7125,128.7188 67.7125,130.8125 Q67.7125,132.9063 68.4,133.9844 Q69.0875,135.0469 70.4313,135.0469 Q71.0563,135.0469 71.65,134.7813 Q72.2438,134.5 72.8688,133.9219 L72.8688,136.6406 Z " fill="#000000"/><text fill="#000000" font-family="sans-serif" font-size="14" lengthAdjust="spacing" textLength="119.0205" x="83.9" y="135.8467">Cuestionamiento</text><line style="stroke:#181818;stroke-width:0.5;" x1="55.9" x2="204.9205" y1="147" y2="147"/><line style="stroke:#181818;stroke-width:0.5;" x1="55.9" x2="204.9205" y1="155" y2="155"/></g><!--class Alternativa--><g class="entity" data-qualified-name="Alternativa" data-source-line="3" id="ent0003"><rect fill="#F1F1F1" height="48" rx="2.5" ry="2.5" style="stroke:#181818;stroke-width:0.5;" width="109.0205" x="87.9" y="223"/><ellipse cx="102.9" cy="239" fill="#ADD1B2" rx="11" ry="11" style="stroke:#181818;stroke-width:1;"/><path d="M105.8688,244.6406 Q105.2906,244.9375 104.65,245.0781 Q104.0094,245.2344 103.3063,245.2344 Q100.8063,245.2344 99.4781,243.5938 Q98.1656,241.9375 98.1656,238.8125 Q98.1656,235.6875 99.4781,234.0313 Q100.8063,232.375 103.3063,232.375 Q104.0094,232.375 104.65,232.5313 Q105.3063,232.6875 105.8688,232.9844 L105.8688,235.7031 Q105.2438,235.125 104.65,234.8594 Q104.0563,234.5781 103.4313,234.5781 Q102.0875,234.5781 101.4,235.6563 Q100.7125,236.7188 100.7125,238.8125 Q100.7125,240.9063 101.4,241.9844 Q102.0875,243.0469 103.4313,243.0469 Q104.0563,243.0469 104.65,242.7813 Q105.2438,242.5 105.8688,241.9219 L105.8688,244.6406 Z " fill="#000000"/><text fill="#000000" font-family="sans-serif" font-size="14" lengthAdjust="spacing" textLength="77.0205" x="116.9" y="243.8467">Alternativa</text><line style="stroke:#181818;stroke-width:0.5;" x1="88.9" x2="195.9205" y1="255" y2="255"/><line style="stroke:#181818;stroke-width:0.5;" x1="88.9" x2="195.9205" y1="263" y2="263"/></g><!--class Eleccion--><g class="entity" data-qualified-name="Eleccion" data-source-line="5" id="ent0004"><rect fill="#F1F1F1" height="48" rx="2.5" ry="2.5" style="stroke:#181818;stroke-width:0.5;" width="90.0713" x="241.37" y="115"/><ellipse cx="256.37" cy="131" fill="#ADD1B2" rx="11" ry="11" style="stroke:#181818;stroke-width:1;"/><path d="M259.3388,136.6406 Q258.7606,136.9375 258.12,137.0781 Q257.4794,137.2344 256.7763,137.2344 Q254.2763,137.2344 252.9481,135.5938 Q251.6356,133.9375 251.6356,130.8125 Q251.6356,127.6875 252.9481,126.0313 Q254.2763,124.375 256.7763,124.375 Q257.4794,124.375 258.12,124.5313 Q258.7763,124.6875 259.3388,124.9844 L259.3388,127.7031 Q258.7138,127.125 258.12,126.8594 Q257.5263,126.5781 256.9013,126.5781 Q255.5575,126.5781 254.87,127.6563 Q254.1825,128.7188 254.1825,130.8125 Q254.1825,132.9063 254.87,133.9844 Q255.5575,135.0469 256.9013,135.0469 Q257.5263,135.0469 258.12,134.7813 Q258.7138,134.5 259.3388,133.9219 L259.3388,136.6406 Z " fill="#000000"/><text fill="#000000" font-family="sans-serif" font-size="14" lengthAdjust="spacing" textLength="58.0713" x="270.37" y="135.8467">Eleccion</text><line style="stroke:#181818;stroke-width:0.5;" x1="242.37" x2="330.4413" y1="147" y2="147"/><line style="stroke:#181818;stroke-width:0.5;" x1="242.37" x2="330.4413" y1="155" y2="155"/></g><!--class Consecuencia--><g class="entity" data-qualified-name="Consecuencia" data-source-line="7" id="ent0005"><rect fill="#F1F1F1" height="48" rx="2.5" ry="2.5" style="stroke:#181818;stroke-width:0.5;" width="129.3438" x="77.74" y="331"/><ellipse cx="92.74" cy="347" fill="#ADD1B2" rx="11" ry="11" style="stroke:#181818;stroke-width:1;"/><path d="M95.7088,352.6406 Q95.1306,352.9375 94.49,353.0781 Q93.8494,353.2344 93.1463,353.2344 Q90.6463,353.2344 89.3181,351.5938 Q88.0056,349.9375 88.0056,346.8125 Q88.0056,343.6875 89.3181,342.0313 Q90.6463,340.375 93.1463,340.375 Q93.8494,340.375 94.49,340.5313 Q95.1463,340.6875 95.7088,340.9844 L95.7088,343.7031 Q95.0838,343.125 94.49,342.8594 Q93.8963,342.5781 93.2713,342.5781 Q91.9275,342.5781 91.24,343.6563 Q90.5525,344.7188 90.5525,346.8125 Q90.5525,348.9063 91.24,349.9844 Q91.9275,351.0469 93.2713,351.0469 Q93.8963,351.0469 94.49,350.7813 Q95.0838,350.5 95.7088,349.9219 L95.7088,352.6406 Z " fill="#000000"/><text fill="#000000" font-family="sans-serif" font-size="14" lengthAdjust="spacing" textLength="97.3438" x="106.74" y="351.8467">Consecuencia</text><line style="stroke:#181818;stroke-width:0.5;" x1="78.74" x2="206.0838" y1="363" y2="363"/><line style="stroke:#181818;stroke-width:0.5;" x1="78.74" x2="206.0838" y1="371" y2="371"/></g><!--class Conciencia--><g class="entity" data-qualified-name="Conciencia" data-source-line="9" id="ent0006"><rect fill="#F1F1F1" height="48" rx="2.5" ry="2.5" style="stroke:#181818;stroke-width:0.5;" width="108.4531" x="195.18" y="7"/><ellipse cx="210.18" cy="23" fill="#ADD1B2" rx="11" ry="11" style="stroke:#181818;stroke-width:1;"/><path d="M213.1488,28.6406 Q212.5706,28.9375 211.93,29.0781 Q211.2894,29.2344 210.5863,29.2344 Q208.0863,29.2344 206.7581,27.5938 Q205.4456,25.9375 205.4456,22.8125 Q205.4456,19.6875 206.7581,18.0313 Q208.0863,16.375 210.5863,16.375 Q211.2894,16.375 211.93,16.5313 Q212.5863,16.6875 213.1488,16.9844 L213.1488,19.7031 Q212.5238,19.125 211.93,18.8594 Q211.3363,18.5781 210.7113,18.5781 Q209.3675,18.5781 208.68,19.6563 Q207.9925,20.7188 207.9925,22.8125 Q207.9925,24.9063 208.68,25.9844 Q209.3675,27.0469 210.7113,27.0469 Q211.3363,27.0469 211.93,26.7813 Q212.5238,26.5 213.1488,25.9219 L213.1488,28.6406 Z " fill="#000000"/><text fill="#000000" font-family="sans-serif" font-size="14" lengthAdjust="spacing" textLength="76.4531" x="224.18" y="27.8467">Conciencia</text><line style="stroke:#181818;stroke-width:0.5;" x1="196.18" x2="302.6331" y1="39" y2="39"/><line style="stroke:#181818;stroke-width:0.5;" x1="196.18" x2="302.6331" y1="47" y2="47"/></g><!--class Sentimiento--><g class="entity" data-qualified-name="Sentimiento" data-source-line="11" id="ent0007"><rect fill="#F1F1F1" height="48" rx="2.5" ry="2.5" style="stroke:#181818;stroke-width:0.5;" width="116.8203" x="7" y="7"/><ellipse cx="22" cy="23" fill="#ADD1B2" rx="11" ry="11" style="stroke:#181818;stroke-width:1;"/><path d="M24.9688,28.6406 Q24.3906,28.9375 23.75,29.0781 Q23.1094,29.2344 22.4063,29.2344 Q19.9063,29.2344 18.5781,27.5938 Q17.2656,25.9375 17.2656,22.8125 Q17.2656,19.6875 18.5781,18.0313 Q19.9063,16.375 22.4063,16.375 Q23.1094,16.375 23.75,16.5313 Q24.4063,16.6875 24.9688,16.9844 L24.9688,19.7031 Q24.3438,19.125 23.75,18.8594 Q23.1563,18.5781 22.5313,18.5781 Q21.1875,18.5781 20.5,19.6563 Q19.8125,20.7188 19.8125,22.8125 Q19.8125,24.9063 20.5,25.9844 Q21.1875,27.0469 22.5313,27.0469 Q23.1563,27.0469 23.75,26.7813 Q24.3438,26.5 24.9688,25.9219 L24.9688,28.6406 Z " fill="#000000"/><text fill="#000000" font-family="sans-serif" font-size="14" lengthAdjust="spacing" textLength="84.8203" x="36" y="27.8467">Sentimiento</text><line style="stroke:#181818;stroke-width:0.5;" x1="8" x2="122.8203" y1="39" y2="39"/><line style="stroke:#181818;stroke-width:0.5;" x1="8" x2="122.8203" y1="47" y2="47"/></g><!--class Emocion--><g class="entity" data-qualified-name="Emocion" data-source-line="13" id="ent0008"><rect fill="#F1F1F1" height="48" rx="2.5" ry="2.5" style="stroke:#181818;stroke-width:0.5;" width="92.0742" x="19.37" y="439"/><ellipse cx="34.37" cy="455" fill="#ADD1B2" rx="11" ry="11" style="stroke:#181818;stroke-width:1;"/><path d="M37.3388,460.6406 Q36.7606,460.9375 36.12,461.0781 Q35.4794,461.2344 34.7763,461.2344 Q32.2763,461.2344 30.9481,459.5938 Q29.6356,457.9375 29.6356,454.8125 Q29.6356,451.6875 30.9481,450.0313 Q32.2763,448.375 34.7763,448.375 Q35.4794,448.375 36.12,448.5313 Q36.7763,448.6875 37.3388,448.9844 L37.3388,451.7031 Q36.7138,451.125 36.12,450.8594 Q35.5263,450.5781 34.9013,450.5781 Q33.5575,450.5781 32.87,451.6563 Q32.1825,452.7188 32.1825,454.8125 Q32.1825,456.9063 32.87,457.9844 Q33.5575,459.0469 34.9013,459.0469 Q35.5263,459.0469 36.12,458.7813 Q36.7138,458.5 37.3388,457.9219 L37.3388,460.6406 Z " fill="#000000"/><text fill="#000000" font-family="sans-serif" font-size="14" lengthAdjust="spacing" textLength="60.0742" x="48.37" y="459.8467">Emocion</text><line style="stroke:#181818;stroke-width:0.5;" x1="20.37" x2="110.4442" y1="471" y2="471"/><line style="stroke:#181818;stroke-width:0.5;" x1="20.37" x2="110.4442" y1="479" y2="479"/></g><!--reverse link Cuestionamiento to Alternativa--><g class="link" data-entity-1="ent0002" data-entity-2="ent0003" data-link-type="aggregation" data-source-line="15" id="lnk9"><path codeLine="15" d="M134.3889,175.1839 C136.3889,192.8639 137.78,205.13 139.78,222.79" fill="none" id="Cuestionamiento-backto-Alternativa" style="stroke:#181818;stroke-width:1;"/><polygon fill="none" points="133.04,163.26,129.7398,169.6716,134.3889,175.1839,137.6891,168.7724,133.04,163.26" style="stroke:#181818;stroke-width:1;"/></g><!--link Eleccion to Alternativa--><g class="link" data-entity-1="ent0004" data-entity-2="ent0003" data-link-type="dependency" data-source-line="16" id="lnk10"><path codeLine="16" d="M254.81,163.26 C230.8,180.94 202.762,201.573 178.772,219.233" fill="none" id="Eleccion-to-Alternativa" style="stroke:#181818;stroke-width:1;"/><polygon fill="#181818" points="173.94,222.79,183.5593,220.6758,177.9666,219.8258,178.8166,214.2332,173.94,222.79" style="stroke:#181818;stroke-width:1;"/></g><!--reverse link Eleccion to Consecuencia--><g class="link" data-entity-1="ent0004" data-entity-2="ent0005" data-link-type="aggregation" data-source-line="17" id="lnk11"><path codeLine="17" d="M270.3373,173.919 C257.3173,200.789 239.33,235.23 214.41,271 C199.47,292.44 179.9,314.71 164.93,330.77" fill="none" id="Eleccion-backto-Consecuencia" style="stroke:#181818;stroke-width:1;"/><polygon fill="none" points="275.57,163.12,269.354,166.7753,270.3373,173.919,276.5533,170.2637,275.57,163.12" style="stroke:#181818;stroke-width:1;"/></g><!--link Alternativa to Consecuencia--><g class="link" data-entity-1="ent0003" data-entity-2="ent0005" data-link-type="dependency" data-source-line="18" id="lnk12"><path codeLine="18" d="M142.41,271.26 C142.41,288.94 142.41,307.13 142.41,324.79" fill="none" id="Alternativa-to-Consecuencia" style="stroke:#181818;stroke-width:1;"/><polygon fill="#181818" points="142.41,330.79,146.41,321.79,142.41,325.79,138.41,321.79,142.41,330.79" style="stroke:#181818;stroke-width:1;"/></g><!--link Conciencia to Cuestionamiento--><g class="link" data-entity-1="ent0006" data-entity-2="ent0002" data-link-type="dependency" data-source-line="19" id="lnk13"><path codeLine="19" d="M223.3,55.26 C203.45,72.94 180.7707,93.1396 160.9407,110.7996" fill="none" id="Conciencia-to-Cuestionamiento" style="stroke:#181818;stroke-width:1;stroke-dasharray:7,7;"/><polygon fill="#181818" points="156.46,114.79,165.8413,111.7916,160.1939,111.4647,160.5208,105.8173,156.46,114.79" style="stroke:#181818;stroke-width:1;"/></g><!--link Conciencia to Eleccion--><g class="link" data-entity-1="ent0006" data-entity-2="ent0004" data-link-type="dependency" data-source-line="20" id="lnk14"><path codeLine="20" d="M257.53,55.26 C263.7,72.94 270.161,91.4658 276.331,109.1258" fill="none" id="Conciencia-to-Eleccion" style="stroke:#181818;stroke-width:1;"/><polygon fill="#181818" points="278.31,114.79,279.1177,104.9743,276.6609,110.0698,271.5654,107.6129,278.31,114.79" style="stroke:#181818;stroke-width:1;"/></g><!--reverse link Sentimiento to Cuestionamiento--><g class="link" data-entity-1="ent0007" data-entity-2="ent0002" data-link-type="aggregation" data-source-line="21" id="lnk15"><path codeLine="21" d="M85.9424,65.4902 C96.7824,83.1702 105.35,97.13 116.18,114.79" fill="none" id="Sentimiento-backto-Cuestionamiento" style="stroke:#181818;stroke-width:1;"/><polygon fill="none" points="79.67,55.26,79.3961,62.4659,85.9424,65.4902,86.2163,58.2843,79.67,55.26" style="stroke:#181818;stroke-width:1;"/></g><!--link Consecuencia to Emocion--><g class="link" data-entity-1="ent0005" data-entity-2="ent0008" data-link-type="dependency" data-source-line="22" id="lnk16"><path codeLine="22" d="M125.51,379.26 C112.67,396.94 98.6266,416.2758 85.7966,433.9358" fill="none" id="Consecuencia-to-Emocion" style="stroke:#181818;stroke-width:1;stroke-dasharray:7,7;"/><polygon fill="#181818" points="82.27,438.79,90.796,433.8598,85.2088,434.7448,84.3237,429.1576,82.27,438.79" style="stroke:#181818;stroke-width:1;"/></g><!--reverse link Sentimiento to Emocion--><g class="link" data-entity-1="ent0007" data-entity-2="ent0008" data-link-type="composition" data-source-line="23" id="lnk17"><path codeLine="23" d="M50.7568,66.5931 C44.2268,82.9331 40.81,94.29 37.41,115 C17.59,235.77 46.64,382.6 59.66,438.69" fill="none" id="Sentimiento-backto-Emocion" style="stroke:#181818;stroke-width:1;"/><polygon fill="#181818" points="55.21,55.45,49.269,59.5372,50.7568,66.5931,56.6978,62.506,55.21,55.45" style="stroke:#181818;stroke-width:1;"/></g><?plantuml-src ROz13iCm20JlUONFbPmdHAgYlA0lG8W3aWDIxVJzTPmwXQP75cQNnGGvXtcZN5W5LYOfEWpOv7igz1Ge_88kBOaGwsMVPvLCk94WWz6GdVAehkozbrKFdv_ie36wu9uOOfp-BtR2_M6k6kMMt-_2E4wNwcQzesTVK-48l79dHZFk1Irug-17VmC0?></g></svg>