<?plantuml 1.2026.2beta3?><svg xmlns="http://www.w3.org/2000/svg" xmlns:xlink="http://www.w3.org/1999/xlink" contentStyleType="text/css" data-diagram-type="CLASS" height="494px" preserveAspectRatio="none" style="width:374px;height:494px;background:#FFFFFF;" version="1.1" viewBox="0 0 374 494" width="374px" zoomAndPan="magnify"><defs/><g><!--class Cuestionamiento--><g class="entity" data-qualified-name="Cuestionamiento" data-source-line="1" id="ent0002"><rect fill="#F1F1F1" height="48" rx="2.5" ry="2.5" style="stroke:#181818;stroke-width:0.5;" width="151.0205" x="7" y="115"/><ellipse cx="22" cy="131" fill="#ADD1B2" rx="11" ry="11" style="stroke:#181818;stroke-width:1;"/><path d="M24.9688,136.6406 Q24.3906,136.9375 23.75,137.0781 Q23.1094,137.2344 22.4063,137.2344 Q19.9063,137.2344 18.5781,135.5938 Q17.2656,133.9375 17.2656,130.8125 Q17.2656,127.6875 18.5781,126.0313 Q19.9063,124.375 22.4063,124.375 Q23.1094,124.375 23.75,124.5313 Q24.4063,124.6875 24.9688,124.9844 L24.9688,127.7031 Q24.3438,127.125 23.75,126.8594 Q23.1563,126.5781 22.5313,126.5781 Q21.1875,126.5781 20.5,127.6563 Q19.8125,128.7188 19.8125,130.8125 Q19.8125,132.9063 20.5,133.9844 Q21.1875,135.0469 22.5313,135.0469 Q23.1563,135.0469 23.75,134.7813 Q24.3438,134.5 24.9688,133.9219 L24.9688,136.6406 Z " fill="#000000"/><text fill="#000000" font-family="sans-serif" font-size="14" lengthAdjust="spacing" textLength="119.0205" x="36" y="135.8467">Cuestionamiento</text><line style="stroke:#181818;stroke-width:0.5;" x1="8" x2="157.0205" y1="147" y2="147"/><line style="stroke:#181818;stroke-width:0.5;" x1="8" x2="157.0205" y1="155" y2="155"/></g><!--class Alternativa--><g class="entity" data-qualified-name="Alternativa" data-source-line="3" id="ent0003"><rect fill="#F1F1F1" height="48" rx="2.5" ry="2.5" style="stroke:#181818;stroke-width:0.5;" width="109.0205" x="80" y="223"/><ellipse cx="95" cy="239" fill="#ADD1B2" rx="11" ry="11" style="stroke:#181818;stroke-width:1;"/><path d="M97.9688,244.6406 Q97.3906,244.9375 96.75,245.0781 Q96.1094,245.2344 95.4063,245.2344 Q92.9063,245.2344 91.5781,243.5938 Q90.2656,241.9375 90.2656,238.8125 Q90.2656,235.6875 91.5781,234.0313 Q92.9063,232.375 95.4063,232.375 Q96.1094,232.375 96.75,232.5313 Q97.4063,232.6875 97.9688,232.9844 L97.9688,235.7031 Q97.3438,235.125 96.75,234.8594 Q96.1563,234.5781 95.5313,234.5781 Q94.1875,234.5781 93.5,235.6563 Q92.8125,236.7188 92.8125,238.8125 Q92.8125,240.9063 93.5,241.9844 Q94.1875,243.0469 95.5313,243.0469 Q96.1563,243.0469 96.75,242.7813 Q97.3438,242.5 97.9688,241.9219 L97.9688,244.6406 Z " fill="#000000"/><text fill="#000000" font-family="sans-serif" font-size="14" lengthAdjust="spacing" textLength="77.0205" x="109" y="243.8467">Alternativa</text><line style="stroke:#181818;stroke-width:0.5;" x1="81" x2="188.0205" y1="255" y2="255"/><line style="stroke:#181818;stroke-width:0.5;" x1="81" x2="188.0205" y1="263" y2="263"/></g><!--class Eleccion--><g class="entity" data-qualified-name="Eleccion" data-source-line="5" id="ent0004"><rect fill="#F1F1F1" height="48" rx="2.5" ry="2.5" style="stroke:#181818;stroke-width:0.5;" width="90.0713" x="193.47" y="115"/><ellipse cx="208.47" cy="131" fill="#ADD1B2" rx="11" ry="11" style="stroke:#181818;stroke-width:1;"/><path d="M211.4388,136.6406 Q210.8606,136.9375 210.22,137.0781 Q209.5794,137.2344 208.8763,137.2344 Q206.3763,137.2344 205.0481,135.5938 Q203.7356,133.9375 203.7356,130.8125 Q203.7356,127.6875 205.0481,126.0313 Q206.3763,124.375 208.8763,124.375 Q209.5794,124.375 210.22,124.5313 Q210.8763,124.6875 211.4388,124.9844 L211.4388,127.7031 Q210.8138,127.125 210.22,126.8594 Q209.6263,126.5781 209.0013,126.5781 Q207.6575,126.5781 206.97,127.6563 Q206.2825,128.7188 206.2825,130.8125 Q206.2825,132.9063 206.97,133.9844 Q207.6575,135.0469 209.0013,135.0469 Q209.6263,135.0469 210.22,134.7813 Q210.8138,134.5 211.4388,133.9219 L211.4388,136.6406 Z " fill="#000000"/><text fill="#000000" font-family="sans-serif" font-size="14" lengthAdjust="spacing" textLength="58.0713" x="222.47" y="135.8467">Eleccion</text><line style="stroke:#181818;stroke-width:0.5;" x1="194.47" x2="282.5413" y1="147" y2="147"/><line style="stroke:#181818;stroke-width:0.5;" x1="194.47" x2="282.5413" y1="155" y2="155"/></g><!--class Consecuencia--><g class="entity" data-qualified-name="Consecuencia" data-source-line="7" id="ent0005"><rect fill="#F1F1F1" height="48" rx="2.5" ry="2.5" style="stroke:#181818;stroke-width:0.5;" width="129.3438" x="153.84" y="331"/><ellipse cx="168.84" cy="347" fill="#ADD1B2" rx="11" ry="11" style="stroke:#181818;stroke-width:1;"/><path d="M171.8088,352.6406 Q171.2306,352.9375 170.59,353.0781 Q169.9494,353.2344 169.2463,353.2344 Q166.7463,353.2344 165.4181,351.5938 Q164.1056,349.9375 164.1056,346.8125 Q164.1056,343.6875 165.4181,342.0313 Q166.7463,340.375 169.2463,340.375 Q169.9494,340.375 170.59,340.5313 Q171.2463,340.6875 171.8088,340.9844 L171.8088,343.7031 Q171.1838,343.125 170.59,342.8594 Q169.9963,342.5781 169.3713,342.5781 Q168.0275,342.5781 167.34,343.6563 Q166.6525,344.7188 166.6525,346.8125 Q166.6525,348.9063 167.34,349.9844 Q168.0275,351.0469 169.3713,351.0469 Q169.9963,351.0469 170.59,350.7813 Q171.1838,350.5 171.8088,349.9219 L171.8088,352.6406 Z " fill="#000000"/><text fill="#000000" font-family="sans-serif" font-size="14" lengthAdjust="spacing" textLength="97.3438" x="182.84" y="351.8467">Consecuencia</text><line style="stroke:#181818;stroke-width:0.5;" x1="154.84" x2="282.1838" y1="363" y2="363"/><line style="stroke:#181818;stroke-width:0.5;" x1="154.84" x2="282.1838" y1="371" y2="371"/></g><!--class Conciencia--><g class="entity" data-qualified-name="Conciencia" data-source-line="9" id="ent0006"><rect fill="#F1F1F1" height="48" rx="2.5" ry="2.5" style="stroke:#181818;stroke-width:0.5;" width="108.4531" x="81.28" y="7"/><ellipse cx="96.28" cy="23" fill="#ADD1B2" rx="11" ry="11" style="stroke:#181818;stroke-width:1;"/><path d="M99.2488,28.6406 Q98.6706,28.9375 98.03,29.0781 Q97.3894,29.2344 96.6863,29.2344 Q94.1863,29.2344 92.8581,27.5938 Q91.5456,25.9375 91.5456,22.8125 Q91.5456,19.6875 92.8581,18.0313 Q94.1863,16.375 96.6863,16.375 Q97.3894,16.375 98.03,16.5313 Q98.6863,16.6875 99.2488,16.9844 L99.2488,19.7031 Q98.6238,19.125 98.03,18.8594 Q97.4363,18.5781 96.8113,18.5781 Q95.4675,18.5781 94.78,19.6563 Q94.0925,20.7188 94.0925,22.8125 Q94.0925,24.9063 94.78,25.9844 Q95.4675,27.0469 96.8113,27.0469 Q97.4363,27.0469 98.03,26.7813 Q98.6238,26.5 99.2488,25.9219 L99.2488,28.6406 Z " fill="#000000"/><text fill="#000000" font-family="sans-serif" font-size="14" lengthAdjust="spacing" textLength="76.4531" x="110.28" y="27.8467">Conciencia</text><line style="stroke:#181818;stroke-width:0.5;" x1="82.28" x2="188.7331" y1="39" y2="39"/><line style="stroke:#181818;stroke-width:0.5;" x1="82.28" x2="188.7331" y1="47" y2="47"/></g><!--class Sentimiento--><g class="entity" data-qualified-name="Sentimiento" data-source-line="11" id="ent0007"><rect fill="#F1F1F1" height="48" rx="2.5" ry="2.5" style="stroke:#181818;stroke-width:0.5;" width="116.8203" x="251.1" y="7"/><ellipse cx="266.1" cy="23" fill="#ADD1B2" rx="11" ry="11" style="stroke:#181818;stroke-width:1;"/><path d="M269.0688,28.6406 Q268.4906,28.9375 267.85,29.0781 Q267.2094,29.2344 266.5063,29.2344 Q264.0063,29.2344 262.6781,27.5938 Q261.3656,25.9375 261.3656,22.8125 Q261.3656,19.6875 262.6781,18.0313 Q264.0063,16.375 266.5063,16.375 Q267.2094,16.375 267.85,16.5313 Q268.5063,16.6875 269.0688,16.9844 L269.0688,19.7031 Q268.4438,19.125 267.85,18.8594 Q267.2563,18.5781 266.6313,18.5781 Q265.2875,18.5781 264.6,19.6563 Q263.9125,20.7188 263.9125,22.8125 Q263.9125,24.9063 264.6,25.9844 Q265.2875,27.0469 266.6313,27.0469 Q267.2563,27.0469 267.85,26.7813 Q268.4438,26.5 269.0688,25.9219 L269.0688,28.6406 Z " fill="#000000"/><text fill="#000000" font-family="sans-serif" font-size="14" lengthAdjust="spacing" textLength="84.8203" x="280.1" y="27.8467">Sentimiento</text><line style="stroke:#181818;stroke-width:0.5;" x1="252.1" x2="366.9203" y1="39" y2="39"/><line style="stroke:#181818;stroke-width:0.5;" x1="252.1" x2="366.9203" y1="47" y2="47"/></g><!--class Emocion--><g class="entity" data-qualified-name="Emocion" data-source-line="13" id="ent0008"><rect fill="#F1F1F1" height="48" rx="2.5" ry="2.5" style="stroke:#181818;stroke-width:0.5;" width="92.0742" x="234.47" y="439"/><ellipse cx="249.47" cy="455" fill="#ADD1B2" rx="11" ry="11" style="stroke:#181818;stroke-width:1;"/><path d="M252.4388,460.6406 Q251.8606,460.9375 251.22,461.0781 Q250.5794,461.2344 249.8763,461.2344 Q247.3763,461.2344 246.0481,459.5938 Q244.7356,457.9375 244.7356,454.8125 Q244.7356,451.6875 246.0481,450.0313 Q247.3763,448.375 249.8763,448.375 Q250.5794,448.375 251.22,448.5313 Q251.8763,448.6875 252.4388,448.9844 L252.4388,451.7031 Q251.8138,451.125 251.22,450.8594 Q250.6263,450.5781 250.0013,450.5781 Q248.6575,450.5781 247.97,451.6563 Q247.2825,452.7188 247.2825,454.8125 Q247.2825,456.9063 247.97,457.9844 Q248.6575,459.0469 250.0013,459.0469 Q250.6263,459.0469 251.22,458.7813 Q251.8138,458.5 252.4388,457.9219 L252.4388,460.6406 Z " fill="#000000"/><text fill="#000000" font-family="sans-serif" font-size="14" lengthAdjust="spacing" textLength="60.0742" x="263.47" y="459.8467">Emocion</text><line style="stroke:#181818;stroke-width:0.5;" x1="235.47" x2="325.5442" y1="471" y2="471"/><line style="stroke:#181818;stroke-width:0.5;" x1="235.47" x2="325.5442" y1="479" y2="479"/></g><!--class Entorno--><g class="entity" data-qualified-name="Entorno" data-source-line="15" id="ent0009"><rect fill="#F1F1F1" height="48" rx="2.5" ry="2.5" style="stroke:#181818;stroke-width:0.5;" width="86.9678" x="57.03" y="439"/><ellipse cx="72.03" cy="455" fill="#ADD1B2" rx="11" ry="11" style="stroke:#181818;stroke-width:1;"/><path d="M74.9988,460.6406 Q74.4206,460.9375 73.78,461.0781 Q73.1394,461.2344 72.4363,461.2344 Q69.9363,461.2344 68.6081,459.5938 Q67.2956,457.9375 67.2956,454.8125 Q67.2956,451.6875 68.6081,450.0313 Q69.9363,448.375 72.4363,448.375 Q73.1394,448.375 73.78,448.5313 Q74.4363,448.6875 74.9988,448.9844 L74.9988,451.7031 Q74.3738,451.125 73.78,450.8594 Q73.1863,450.5781 72.5613,450.5781 Q71.2175,450.5781 70.53,451.6563 Q69.8425,452.7188 69.8425,454.8125 Q69.8425,456.9063 70.53,457.9844 Q71.2175,459.0469 72.5613,459.0469 Q73.1863,459.0469 73.78,458.7813 Q74.3738,458.5 74.9988,457.9219 L74.9988,460.6406 Z " fill="#000000"/><text fill="#000000" font-family="sans-serif" font-size="14" lengthAdjust="spacing" textLength="54.9678" x="86.03" y="459.8467">Entorno</text><line style="stroke:#181818;stroke-width:0.5;" x1="58.03" x2="142.9978" y1="471" y2="471"/><line style="stroke:#181818;stroke-width:0.5;" x1="58.03" x2="142.9978" y1="479" y2="479"/></g><!--reverse link Cuestionamiento to Alternativa--><g class="link" data-entity-1="ent0002" data-entity-2="ent0003" data-link-type="aggregation" data-source-line="17" id="lnk10"><path codeLine="17" d="M99.2035,174.0342 C107.8735,191.7142 114.46,205.13 123.13,222.79" fill="none" id="Cuestionamiento-backto-Alternativa" style="stroke:#181818;stroke-width:1;"/><polygon fill="none" points="93.92,163.26,92.9703,170.4083,99.2035,174.0342,100.1532,166.8859,93.92,163.26" style="stroke:#181818;stroke-width:1;"/></g><!--link Eleccion to Alternativa--><g class="link" data-entity-1="ent0004" data-entity-2="ent0003" data-link-type="dependency" data-source-line="18" id="lnk11"><path codeLine="18" d="M215.69,163.26 C198.35,180.94 178.8124,200.8475 161.4824,218.5075" fill="none" id="Eleccion-to-Alternativa" style="stroke:#181818;stroke-width:1;"/><polygon fill="#181818" points="157.28,222.79,166.4386,219.1679,160.782,219.2213,160.7287,213.5647,157.28,222.79" style="stroke:#181818;stroke-width:1;"/></g><!--reverse link Eleccion to Consecuencia--><g class="link" data-entity-1="ent0004" data-entity-2="ent0005" data-link-type="aggregation" data-source-line="19" id="lnk12"><path codeLine="19" d="M235.2124,175.2578 C231.3624,216.4178 224.53,289.58 220.69,330.72" fill="none" id="Eleccion-backto-Consecuencia" style="stroke:#181818;stroke-width:1;"/><polygon fill="none" points="236.33,163.31,231.7886,168.9114,235.2124,175.2578,239.7538,169.6564,236.33,163.31" style="stroke:#181818;stroke-width:1;"/></g><!--link Alternativa to Consecuencia--><g class="link" data-entity-1="ent0003" data-entity-2="ent0005" data-link-type="dependency" data-source-line="20" id="lnk13"><path codeLine="20" d="M152.94,271.26 C166.95,288.94 182.3926,308.4282 196.3926,326.0882" fill="none" id="Alternativa-to-Consecuencia" style="stroke:#181818;stroke-width:1;"/><polygon fill="#181818" points="200.12,330.79,197.6635,321.2524,197.0139,326.8718,191.3944,326.2222,200.12,330.79" style="stroke:#181818;stroke-width:1;"/></g><!--link Conciencia to Cuestionamiento--><g class="link" data-entity-1="ent0006" data-entity-2="ent0002" data-link-type="dependency" data-source-line="21" id="lnk14"><path codeLine="21" d="M123.88,55.26 C115.04,72.94 105.6233,91.7634 96.7933,109.4234" fill="none" id="Conciencia-to-Cuestionamiento" style="stroke:#181818;stroke-width:1;stroke-dasharray:7,7;"/><polygon fill="#181818" points="94.11,114.79,101.7126,108.529,96.3461,110.3179,94.5572,104.9513,94.11,114.79" style="stroke:#181818;stroke-width:1;"/></g><!--link Conciencia to Eleccion--><g class="link" data-entity-1="ent0006" data-entity-2="ent0004" data-link-type="dependency" data-source-line="22" id="lnk15"><path codeLine="22" d="M158.11,55.26 C175.29,72.94 194.6187,92.8269 211.7787,110.4869" fill="none" id="Conciencia-to-Eleccion" style="stroke:#181818;stroke-width:1;"/><polygon fill="#181818" points="215.96,114.79,212.5568,105.5478,212.4756,111.2041,206.8193,111.1228,215.96,114.79" style="stroke:#181818;stroke-width:1;"/></g><!--reverse link Sentimiento to Cuestionamiento--><g class="link" data-entity-1="ent0007" data-entity-2="ent0002" data-link-type="aggregation" data-source-line="23" id="lnk16"><path codeLine="23" d="M248.5372,60.4676 C210.8072,78.0876 170.18,97.06 132.48,114.67" fill="none" id="Sentimiento-backto-Cuestionamiento" style="stroke:#181818;stroke-width:1;"/><polygon fill="none" points="259.41,55.39,252.2811,54.3045,248.5372,60.4676,255.6661,61.5531,259.41,55.39" style="stroke:#181818;stroke-width:1;"/></g><!--link Consecuencia to Emocion--><g class="link" data-entity-1="ent0005" data-entity-2="ent0008" data-link-type="dependency" data-source-line="24" id="lnk17"><path codeLine="24" d="M232.12,379.26 C242.45,396.94 253.5806,415.9509 263.9106,433.6109" fill="none" id="Consecuencia-to-Emocion" style="stroke:#181818;stroke-width:1;stroke-dasharray:7,7;"/><polygon fill="#181818" points="266.94,438.79,265.8486,429.0018,264.4155,434.4741,258.9432,433.041,266.94,438.79" style="stroke:#181818;stroke-width:1;"/></g><!--reverse link Sentimiento to Emocion--><g class="link" data-entity-1="ent0007" data-entity-2="ent0008" data-link-type="composition" data-source-line="25" id="lnk18"><path codeLine="25" d="M311.0651,67.2706 C313.2851,123.3006 316.47,258.02 300.51,379 C297.82,399.43 292.15,422.14 287.54,438.64" fill="none" id="Sentimiento-backto-Emocion" style="stroke:#181818;stroke-width:1;"/><polygon fill="#181818" points="310.59,55.28,306.8307,61.4337,311.0651,67.2706,314.8244,61.1169,310.59,55.28" style="stroke:#181818;stroke-width:1;"/></g><!--link Entorno to Cuestionamiento--><g class="link" data-entity-1="ent0009" data-entity-2="ent0002" data-link-type="dependency" data-source-line="26" id="lnk19"><path codeLine="26" d="M92.47,438.68 C78.72,396.02 53.07,302.48 62.51,223 C64.94,202.54 68.9886,185.6011 73.6786,169.1111" fill="none" id="Entorno-to-Cuestionamiento" style="stroke:#181818;stroke-width:1;stroke-dasharray:7,7;"/><polygon fill="#181818" points="75.32,163.34,69.0105,170.9024,73.9522,168.1493,76.7053,173.0909,75.32,163.34" style="stroke:#181818;stroke-width:1;"/></g><!--link Entorno to Alternativa--><g class="link" data-entity-1="ent0009" data-entity-2="ent0003" data-link-type="dependency" data-source-line="27" id="lnk20"><path codeLine="27" d="M104.21,438.72 C110.75,397.58 123.3285,318.3957 129.8685,277.2357" fill="none" id="Entorno-to-Alternativa" style="stroke:#181818;stroke-width:1;stroke-dasharray:7,7;"/><polygon fill="#181818" points="130.81,271.31,125.4472,279.5708,130.0254,276.2481,133.3481,280.8262,130.81,271.31" style="stroke:#181818;stroke-width:1;"/></g><!--link Consecuencia to Entorno--><g class="link" data-entity-1="ent0005" data-entity-2="ent0009" data-link-type="dependency" data-source-line="28" id="lnk21"><path codeLine="28" d="M192.61,379.26 C172.94,396.94 150.4626,417.1193 130.8126,434.7793" fill="none" id="Consecuencia-to-Entorno" style="stroke:#181818;stroke-width:1;"/><polygon fill="#181818" points="126.35,438.79,135.7176,435.7491,130.0688,435.4478,130.3701,429.799,126.35,438.79" style="stroke:#181818;stroke-width:1;"/></g><?plantuml-src RL112iCm3Blt5JaFqYSKHiaBze9WV32a3ZJfthyqdJjxxT6I9Kk654jnyuQbKkQu47BDmm0TVgQAAyTAxoXGI0ZGDcMUCnU43HaeAWp88A_cIjOxB5dxX4QjtDY_A2vxRt980EVzT4_i2XDBRNML8NzXtJXEbqyeUfUUzLMZu-1LTzxenj9N2nzDAFZt0RSXDAShcoCzth7u0G00?></g></svg>