<svg xmlns="http://www.w3.org/2000/svg" xmlns:xlink="http://www.w3.org/1999/xlink" contentStyleType="text/css" data-diagram-type="CLASS" height="437px" preserveAspectRatio="none" style="width:214px;height:437px;background:#FFFFFF;" version="1.1" viewBox="0 0 214 437" width="214px" zoomAndPan="magnify"><defs/><g><!--class Jugador--><g class="entity" data-entity="Jugador" data-source-line="1" data-uid="ent0002" id="entity_Jugador"><rect fill="#F1F1F1" height="48" rx="2.5" ry="2.5" style="stroke:#181818;stroke-width:0.5;" width="85.6758" x="67.5" y="132"/><ellipse cx="82.5" cy="148" fill="#ADD1B2" rx="11" ry="11" style="stroke:#181818;stroke-width:1;"/><path d="M85.4688,153.6406 Q84.8906,153.9375 84.25,154.0781 Q83.6094,154.2344 82.9063,154.2344 Q80.4063,154.2344 79.0781,152.5938 Q77.7656,150.9375 77.7656,147.8125 Q77.7656,144.6875 79.0781,143.0313 Q80.4063,141.375 82.9063,141.375 Q83.6094,141.375 84.25,141.5313 Q84.9063,141.6875 85.4688,141.9844 L85.4688,144.7031 Q84.8438,144.125 84.25,143.8594 Q83.6563,143.5781 83.0313,143.5781 Q81.6875,143.5781 81,144.6563 Q80.3125,145.7188 80.3125,147.8125 Q80.3125,149.9063 81,150.9844 Q81.6875,152.0469 83.0313,152.0469 Q83.6563,152.0469 84.25,151.7813 Q84.8438,151.5 85.4688,150.9219 L85.4688,153.6406 Z " fill="#000000"/><text fill="#000000" font-family="sans-serif" font-size="14" lengthAdjust="spacing" textLength="53.6758" x="96.5" y="152.8467">Jugador</text><line style="stroke:#181818;stroke-width:0.5;" x1="68.5" x2="152.1758" y1="164" y2="164"/><line style="stroke:#181818;stroke-width:0.5;" x1="68.5" x2="152.1758" y1="172" y2="172"/></g><!--class Tablero--><g class="entity" data-entity="Tablero" data-source-line="2" data-uid="ent0003" id="entity_Tablero"><rect fill="#F1F1F1" height="48" rx="2.5" ry="2.5" style="stroke:#181818;stroke-width:0.5;" width="84.8418" x="7" y="257"/><ellipse cx="22" cy="273" fill="#ADD1B2" rx="11" ry="11" style="stroke:#181818;stroke-width:1;"/><path d="M24.9688,278.6406 Q24.3906,278.9375 23.75,279.0781 Q23.1094,279.2344 22.4063,279.2344 Q19.9063,279.2344 18.5781,277.5938 Q17.2656,275.9375 17.2656,272.8125 Q17.2656,269.6875 18.5781,268.0313 Q19.9063,266.375 22.4063,266.375 Q23.1094,266.375 23.75,266.5313 Q24.4063,266.6875 24.9688,266.9844 L24.9688,269.7031 Q24.3438,269.125 23.75,268.8594 Q23.1563,268.5781 22.5313,268.5781 Q21.1875,268.5781 20.5,269.6563 Q19.8125,270.7188 19.8125,272.8125 Q19.8125,274.9063 20.5,275.9844 Q21.1875,277.0469 22.5313,277.0469 Q23.1563,277.0469 23.75,276.7813 Q24.3438,276.5 24.9688,275.9219 L24.9688,278.6406 Z " fill="#000000"/><text fill="#000000" font-family="sans-serif" font-size="14" lengthAdjust="spacing" textLength="52.8418" x="36" y="277.8467">Tablero</text><line style="stroke:#181818;stroke-width:0.5;" x1="8" x2="90.8418" y1="289" y2="289"/><line style="stroke:#181818;stroke-width:0.5;" x1="8" x2="90.8418" y1="297" y2="297"/></g><!--class Coordenada--><g class="entity" data-entity="Coordenada" data-source-line="3" data-uid="ent0004" id="entity_Coordenada"><rect fill="#F1F1F1" height="48" rx="2.5" ry="2.5" style="stroke:#181818;stroke-width:0.5;" width="117.0801" x="47" y="382"/><ellipse cx="62" cy="398" fill="#ADD1B2" rx="11" ry="11" style="stroke:#181818;stroke-width:1;"/><path d="M64.9688,403.6406 Q64.3906,403.9375 63.75,404.0781 Q63.1094,404.2344 62.4063,404.2344 Q59.9063,404.2344 58.5781,402.5938 Q57.2656,400.9375 57.2656,397.8125 Q57.2656,394.6875 58.5781,393.0313 Q59.9063,391.375 62.4063,391.375 Q63.1094,391.375 63.75,391.5313 Q64.4063,391.6875 64.9688,391.9844 L64.9688,394.7031 Q64.3438,394.125 63.75,393.8594 Q63.1563,393.5781 62.5313,393.5781 Q61.1875,393.5781 60.5,394.6563 Q59.8125,395.7188 59.8125,397.8125 Q59.8125,399.9063 60.5,400.9844 Q61.1875,402.0469 62.5313,402.0469 Q63.1563,402.0469 63.75,401.7813 Q64.3438,401.5 64.9688,400.9219 L64.9688,403.6406 Z " fill="#000000"/><text fill="#000000" font-family="sans-serif" font-size="14" lengthAdjust="spacing" textLength="85.0801" x="76" y="402.8467">Coordenada</text><line style="stroke:#181818;stroke-width:0.5;" x1="48" x2="163.0801" y1="414" y2="414"/><line style="stroke:#181818;stroke-width:0.5;" x1="48" x2="163.0801" y1="422" y2="422"/></g><!--class Turno--><g class="entity" data-entity="Turno" data-source-line="4" data-uid="ent0005" id="entity_Turno"><rect fill="#F1F1F1" height="48" rx="2.5" ry="2.5" style="stroke:#181818;stroke-width:0.5;" width="72.6191" x="74" y="7"/><ellipse cx="89" cy="23" fill="#ADD1B2" rx="11" ry="11" style="stroke:#181818;stroke-width:1;"/><path d="M91.9688,28.6406 Q91.3906,28.9375 90.75,29.0781 Q90.1094,29.2344 89.4063,29.2344 Q86.9063,29.2344 85.5781,27.5938 Q84.2656,25.9375 84.2656,22.8125 Q84.2656,19.6875 85.5781,18.0313 Q86.9063,16.375 89.4063,16.375 Q90.1094,16.375 90.75,16.5313 Q91.4063,16.6875 91.9688,16.9844 L91.9688,19.7031 Q91.3438,19.125 90.75,18.8594 Q90.1563,18.5781 89.5313,18.5781 Q88.1875,18.5781 87.5,19.6563 Q86.8125,20.7188 86.8125,22.8125 Q86.8125,24.9063 87.5,25.9844 Q88.1875,27.0469 89.5313,27.0469 Q90.1563,27.0469 90.75,26.7813 Q91.3438,26.5 91.9688,25.9219 L91.9688,28.6406 Z " fill="#000000"/><text fill="#000000" font-family="sans-serif" font-size="14" lengthAdjust="spacing" textLength="40.6191" x="103" y="27.8467">Turno</text><line style="stroke:#181818;stroke-width:0.5;" x1="75" x2="145.6191" y1="39" y2="39"/><line style="stroke:#181818;stroke-width:0.5;" x1="75" x2="145.6191" y1="47" y2="47"/></g><!--link Jugador to Tablero--><g class="link" data-entity-1="Jugador" data-entity-2="Tablero" data-source-line="6" data-uid="lnk6" id="link_Jugador_Tablero"><path codeLine="6" d="M84.39,180.19 C76.2,188.78 67.9,199.1 62.5,210 C55.26,224.62 52.6333,236.8104 51.2033,250.9604" fill="none" id="Jugador-to-Tablero" style="stroke:#181818;stroke-width:1;"/><polygon fill="#181818" points="50.6,256.93,55.4847,248.3778,51.1027,251.9553,47.5252,247.5734,50.6,256.93" style="stroke:#181818;stroke-width:1;"/><text fill="#000000" font-family="sans-serif" font-size="13" lengthAdjust="spacing" textLength="81.3325" x="63.5" y="223.0669">compiten en</text><text fill="#000000" font-family="sans-serif" font-size="13" lengthAdjust="spacing" textLength="8.271" x="69.1232" y="199.9975">2</text><text fill="#000000" font-family="sans-serif" font-size="13" lengthAdjust="spacing" textLength="8.271" x="41.9119" y="245.9241">1</text></g><!--link Jugador to Coordenada--><g class="link" data-entity-1="Jugador" data-entity-2="Coordenada" data-source-line="8" data-uid="lnk7" id="link_Jugador_Coordenada"><path codeLine="8" d="M132.53,180.23 C139.34,188.89 145.97,199.25 149.5,210 C169.18,269.96 170.93,292.64 149.5,352 C145.52,363.02 142.1154,368.876 134.5254,377.456" fill="none" id="Jugador-to-Coordenada" style="stroke:#181818;stroke-width:1;stroke-dasharray:7,7;"/><polygon fill="#181818" points="130.55,381.95,139.5092,377.8593,133.8629,378.205,133.5172,372.5587,130.55,381.95" style="stroke:#181818;stroke-width:1;"/><text fill="#000000" font-family="sans-serif" font-size="13" lengthAdjust="spacing" textLength="39.7109" x="166.5" y="285.5669">eligen</text></g><!--link Tablero to Coordenada--><g class="link" data-entity-1="Tablero" data-entity-2="Coordenada" data-source-line="9" data-uid="lnk8" id="link_Tablero_Coordenada"><path codeLine="9" d="M38.23,305.06 C32.97,319.21 29.29,337.36 36.5,352 C42.38,363.92 47.5798,370.297 58.1598,378.277" fill="none" id="Tablero-to-Coordenada" style="stroke:#181818;stroke-width:1;stroke-dasharray:7,7;"/><polygon fill="#181818" points="62.95,381.89,58.1734,373.277,58.9582,378.8791,53.356,379.6639,62.95,381.89" style="stroke:#181818;stroke-width:1;"/><text fill="#000000" font-family="sans-serif" font-size="13" lengthAdjust="spacing" textLength="107.6563" x="37.5" y="348.0669">valida estado de</text></g><!--link Turno to Jugador--><g class="link" data-entity-1="Turno" data-entity-2="Jugador" data-source-line="11" data-uid="lnk9" id="link_Turno_Jugador"><path codeLine="11" d="M110.5,55.14 C110.5,77.13 110.5,104.01 110.5,125.97" fill="none" id="Turno-to-Jugador" style="stroke:#181818;stroke-width:1;stroke-dasharray:7,7;"/><polygon fill="#181818" points="110.5,131.97,114.5,122.97,110.5,126.97,106.5,122.97,110.5,131.97" style="stroke:#181818;stroke-width:1;"/><text fill="#000000" font-family="sans-serif" font-size="13" lengthAdjust="spacing" textLength="85.0332" x="111.5" y="98.0669">alterna entre</text></g><!--SRC=[POqn2iCm34Ltdq9uJw0TCsJfrhaNK6qH3AfKPAVdhsfYMYXeq4VlFoN6Mk6wRvZLGkhfXdScqoDTL2sJOCPntaqqXAC3yHnXcbQ8fpYQi43InxCq4l3vilEy_lWS8oxRXnZ5F-25N7oXsbm0cLpM_tToQ1T0RcJYd3IZDm00]--></g></svg>