<?xml version="1.0" encoding="us-ascii" standalone="no"?><svg xmlns="http://www.w3.org/2000/svg" xmlns:xlink="http://www.w3.org/1999/xlink" contentStyleType="text/css" height="188px" preserveAspectRatio="none" style="width:610px;height:188px;background:#FFFFFF;" version="1.1" viewBox="0 0 610 188" width="610px" zoomAndPan="magnify"><defs/><g><!--class Persona--><g id="elem_Persona"><rect codeLine="2" fill="#F1F1F1" height="48" id="Persona" rx="2.5" ry="2.5" style="stroke:#181818;stroke-width:0.5;" width="85" x="252.5" y="7"/><ellipse cx="267.5" cy="23" fill="#ADD1B2" rx="11" ry="11" style="stroke:#181818;stroke-width:1.0;"/><path d="M270.2656,18.875 Q270.4219,18.6563 270.6094,18.5469 Q270.7969,18.4375 271.0156,18.4375 Q271.3906,18.4375 271.625,18.7031 Q271.8594,18.9531 271.8594,19.5625 L271.8594,21.0156 Q271.8594,21.625 271.625,21.8906 Q271.3906,22.1563 271.0156,22.1563 Q270.6719,22.1563 270.4688,21.9531 Q270.2656,21.7656 270.1563,21.25 Q270.1094,20.8906 269.9219,20.7031 Q269.5938,20.3281 268.9844,20.1094 Q268.375,19.8906 267.75,19.8906 Q266.9844,19.8906 266.3438,20.2188 Q265.7188,20.5469 265.2188,21.2969 Q264.7344,22.0469 264.7344,23.0781 L264.7344,24.1719 Q264.7344,25.4063 265.625,26.2344 Q266.5156,27.0469 268.1094,27.0469 Q269.0469,27.0469 269.7031,26.7969 Q270.0938,26.6406 270.5156,26.2031 Q270.7813,25.9375 270.9219,25.8594 Q271.0781,25.7813 271.2813,25.7813 Q271.6094,25.7813 271.8594,26.0469 Q272.125,26.2969 272.125,26.6406 Q272.125,26.9844 271.7813,27.3906 Q271.2813,27.9688 270.4844,28.2969 Q269.4063,28.75 268.1094,28.75 Q266.5938,28.75 265.3906,28.125 Q264.4063,27.625 263.7188,26.5625 Q263.0313,25.4844 263.0313,24.2031 L263.0313,23.0469 Q263.0313,21.7188 263.6406,20.5781 Q264.2656,19.4219 265.3594,18.8125 Q266.4531,18.1875 267.6875,18.1875 Q268.4219,18.1875 269.0625,18.3594 Q269.7188,18.5156 270.2656,18.875 Z " fill="#000000"/><text fill="#000000" font-family="sans-serif" font-size="14" lengthAdjust="spacing" textLength="53" x="281.5" y="28.7285">Persona</text><line style="stroke:#181818;stroke-width:0.5;" x1="253.5" x2="336.5" y1="39" y2="39"/><line style="stroke:#181818;stroke-width:0.5;" x1="253.5" x2="336.5" y1="47" y2="47"/></g><!--class Cultura--><g id="elem_Cultura"><rect codeLine="6" fill="#F1F1F1" height="48" id="Cultura" rx="2.5" ry="2.5" style="stroke:#181818;stroke-width:0.5;" width="78" x="7" y="133"/><ellipse cx="22" cy="149" fill="#ADD1B2" rx="11" ry="11" style="stroke:#181818;stroke-width:1.0;"/><path d="M24.7656,144.875 Q24.9219,144.6563 25.1094,144.5469 Q25.2969,144.4375 25.5156,144.4375 Q25.8906,144.4375 26.125,144.7031 Q26.3594,144.9531 26.3594,145.5625 L26.3594,147.0156 Q26.3594,147.625 26.125,147.8906 Q25.8906,148.1563 25.5156,148.1563 Q25.1719,148.1563 24.9688,147.9531 Q24.7656,147.7656 24.6563,147.25 Q24.6094,146.8906 24.4219,146.7031 Q24.0938,146.3281 23.4844,146.1094 Q22.875,145.8906 22.25,145.8906 Q21.4844,145.8906 20.8438,146.2188 Q20.2188,146.5469 19.7188,147.2969 Q19.2344,148.0469 19.2344,149.0781 L19.2344,150.1719 Q19.2344,151.4063 20.125,152.2344 Q21.0156,153.0469 22.6094,153.0469 Q23.5469,153.0469 24.2031,152.7969 Q24.5938,152.6406 25.0156,152.2031 Q25.2813,151.9375 25.4219,151.8594 Q25.5781,151.7813 25.7813,151.7813 Q26.1094,151.7813 26.3594,152.0469 Q26.625,152.2969 26.625,152.6406 Q26.625,152.9844 26.2813,153.3906 Q25.7813,153.9688 24.9844,154.2969 Q23.9063,154.75 22.6094,154.75 Q21.0938,154.75 19.8906,154.125 Q18.9063,153.625 18.2188,152.5625 Q17.5313,151.4844 17.5313,150.2031 L17.5313,149.0469 Q17.5313,147.7188 18.1406,146.5781 Q18.7656,145.4219 19.8594,144.8125 Q20.9531,144.1875 22.1875,144.1875 Q22.9219,144.1875 23.5625,144.3594 Q24.2188,144.5156 24.7656,144.875 Z " fill="#000000"/><text fill="#000000" font-family="sans-serif" font-size="14" lengthAdjust="spacing" textLength="46" x="36" y="154.7285">Cultura</text><line style="stroke:#181818;stroke-width:0.5;" x1="8" x2="84" y1="165" y2="165"/><line style="stroke:#181818;stroke-width:0.5;" x1="8" x2="84" y1="173" y2="173"/></g><!--class Familia--><g id="elem_Familia"><rect codeLine="10" fill="#F1F1F1" height="48" id="Familia" rx="2.5" ry="2.5" style="stroke:#181818;stroke-width:0.5;" width="77" x="120.5" y="133"/><ellipse cx="135.5" cy="149" fill="#ADD1B2" rx="11" ry="11" style="stroke:#181818;stroke-width:1.0;"/><path d="M138.2656,144.875 Q138.4219,144.6563 138.6094,144.5469 Q138.7969,144.4375 139.0156,144.4375 Q139.3906,144.4375 139.625,144.7031 Q139.8594,144.9531 139.8594,145.5625 L139.8594,147.0156 Q139.8594,147.625 139.625,147.8906 Q139.3906,148.1563 139.0156,148.1563 Q138.6719,148.1563 138.4688,147.9531 Q138.2656,147.7656 138.1563,147.25 Q138.1094,146.8906 137.9219,146.7031 Q137.5938,146.3281 136.9844,146.1094 Q136.375,145.8906 135.75,145.8906 Q134.9844,145.8906 134.3438,146.2188 Q133.7188,146.5469 133.2188,147.2969 Q132.7344,148.0469 132.7344,149.0781 L132.7344,150.1719 Q132.7344,151.4063 133.625,152.2344 Q134.5156,153.0469 136.1094,153.0469 Q137.0469,153.0469 137.7031,152.7969 Q138.0938,152.6406 138.5156,152.2031 Q138.7813,151.9375 138.9219,151.8594 Q139.0781,151.7813 139.2813,151.7813 Q139.6094,151.7813 139.8594,152.0469 Q140.125,152.2969 140.125,152.6406 Q140.125,152.9844 139.7813,153.3906 Q139.2813,153.9688 138.4844,154.2969 Q137.4063,154.75 136.1094,154.75 Q134.5938,154.75 133.3906,154.125 Q132.4063,153.625 131.7188,152.5625 Q131.0313,151.4844 131.0313,150.2031 L131.0313,149.0469 Q131.0313,147.7188 131.6406,146.5781 Q132.2656,145.4219 133.3594,144.8125 Q134.4531,144.1875 135.6875,144.1875 Q136.4219,144.1875 137.0625,144.3594 Q137.7188,144.5156 138.2656,144.875 Z " fill="#000000"/><text fill="#000000" font-family="sans-serif" font-size="14" lengthAdjust="spacing" textLength="45" x="149.5" y="154.7285">Familia</text><line style="stroke:#181818;stroke-width:0.5;" x1="121.5" x2="196.5" y1="165" y2="165"/><line style="stroke:#181818;stroke-width:0.5;" x1="121.5" x2="196.5" y1="173" y2="173"/></g><!--class RelacionSocial--><g id="elem_RelacionSocial"><rect codeLine="14" fill="#F1F1F1" height="48" id="RelacionSocial" rx="2.5" ry="2.5" style="stroke:#181818;stroke-width:0.5;" width="125" x="232.5" y="133"/><ellipse cx="247.5" cy="149" fill="#ADD1B2" rx="11" ry="11" style="stroke:#181818;stroke-width:1.0;"/><path d="M250.2656,144.875 Q250.4219,144.6563 250.6094,144.5469 Q250.7969,144.4375 251.0156,144.4375 Q251.3906,144.4375 251.625,144.7031 Q251.8594,144.9531 251.8594,145.5625 L251.8594,147.0156 Q251.8594,147.625 251.625,147.8906 Q251.3906,148.1563 251.0156,148.1563 Q250.6719,148.1563 250.4688,147.9531 Q250.2656,147.7656 250.1563,147.25 Q250.1094,146.8906 249.9219,146.7031 Q249.5938,146.3281 248.9844,146.1094 Q248.375,145.8906 247.75,145.8906 Q246.9844,145.8906 246.3438,146.2188 Q245.7188,146.5469 245.2188,147.2969 Q244.7344,148.0469 244.7344,149.0781 L244.7344,150.1719 Q244.7344,151.4063 245.625,152.2344 Q246.5156,153.0469 248.1094,153.0469 Q249.0469,153.0469 249.7031,152.7969 Q250.0938,152.6406 250.5156,152.2031 Q250.7813,151.9375 250.9219,151.8594 Q251.0781,151.7813 251.2813,151.7813 Q251.6094,151.7813 251.8594,152.0469 Q252.125,152.2969 252.125,152.6406 Q252.125,152.9844 251.7813,153.3906 Q251.2813,153.9688 250.4844,154.2969 Q249.4063,154.75 248.1094,154.75 Q246.5938,154.75 245.3906,154.125 Q244.4063,153.625 243.7188,152.5625 Q243.0313,151.4844 243.0313,150.2031 L243.0313,149.0469 Q243.0313,147.7188 243.6406,146.5781 Q244.2656,145.4219 245.3594,144.8125 Q246.4531,144.1875 247.6875,144.1875 Q248.4219,144.1875 249.0625,144.3594 Q249.7188,144.5156 250.2656,144.875 Z " fill="#000000"/><text fill="#000000" font-family="sans-serif" font-size="14" lengthAdjust="spacing" textLength="93" x="261.5" y="154.7285">RelacionSocial</text><line style="stroke:#181818;stroke-width:0.5;" x1="233.5" x2="356.5" y1="165" y2="165"/><line style="stroke:#181818;stroke-width:0.5;" x1="233.5" x2="356.5" y1="173" y2="173"/></g><!--class Emocion--><g id="elem_Emocion"><rect codeLine="18" fill="#F1F1F1" height="48" id="Emocion" rx="2.5" ry="2.5" style="stroke:#181818;stroke-width:0.5;" width="86" x="393" y="133"/><ellipse cx="408" cy="149" fill="#ADD1B2" rx="11" ry="11" style="stroke:#181818;stroke-width:1.0;"/><path d="M410.7656,144.875 Q410.9219,144.6563 411.1094,144.5469 Q411.2969,144.4375 411.5156,144.4375 Q411.8906,144.4375 412.125,144.7031 Q412.3594,144.9531 412.3594,145.5625 L412.3594,147.0156 Q412.3594,147.625 412.125,147.8906 Q411.8906,148.1563 411.5156,148.1563 Q411.1719,148.1563 410.9688,147.9531 Q410.7656,147.7656 410.6563,147.25 Q410.6094,146.8906 410.4219,146.7031 Q410.0938,146.3281 409.4844,146.1094 Q408.875,145.8906 408.25,145.8906 Q407.4844,145.8906 406.8438,146.2188 Q406.2188,146.5469 405.7188,147.2969 Q405.2344,148.0469 405.2344,149.0781 L405.2344,150.1719 Q405.2344,151.4063 406.125,152.2344 Q407.0156,153.0469 408.6094,153.0469 Q409.5469,153.0469 410.2031,152.7969 Q410.5938,152.6406 411.0156,152.2031 Q411.2813,151.9375 411.4219,151.8594 Q411.5781,151.7813 411.7813,151.7813 Q412.1094,151.7813 412.3594,152.0469 Q412.625,152.2969 412.625,152.6406 Q412.625,152.9844 412.2813,153.3906 Q411.7813,153.9688 410.9844,154.2969 Q409.9063,154.75 408.6094,154.75 Q407.0938,154.75 405.8906,154.125 Q404.9063,153.625 404.2188,152.5625 Q403.5313,151.4844 403.5313,150.2031 L403.5313,149.0469 Q403.5313,147.7188 404.1406,146.5781 Q404.7656,145.4219 405.8594,144.8125 Q406.9531,144.1875 408.1875,144.1875 Q408.9219,144.1875 409.5625,144.3594 Q410.2188,144.5156 410.7656,144.875 Z " fill="#000000"/><text fill="#000000" font-family="sans-serif" font-size="14" lengthAdjust="spacing" textLength="54" x="422" y="154.7285">Emocion</text><line style="stroke:#181818;stroke-width:0.5;" x1="394" x2="478" y1="165" y2="165"/><line style="stroke:#181818;stroke-width:0.5;" x1="394" x2="478" y1="173" y2="173"/></g><!--class Creencia--><g id="elem_Creencia"><rect codeLine="22" fill="#F1F1F1" height="48" id="Creencia" rx="2.5" ry="2.5" style="stroke:#181818;stroke-width:0.5;" width="89" x="514.5" y="133"/><ellipse cx="529.5" cy="149" fill="#ADD1B2" rx="11" ry="11" style="stroke:#181818;stroke-width:1.0;"/><path d="M532.2656,144.875 Q532.4219,144.6563 532.6094,144.5469 Q532.7969,144.4375 533.0156,144.4375 Q533.3906,144.4375 533.625,144.7031 Q533.8594,144.9531 533.8594,145.5625 L533.8594,147.0156 Q533.8594,147.625 533.625,147.8906 Q533.3906,148.1563 533.0156,148.1563 Q532.6719,148.1563 532.4688,147.9531 Q532.2656,147.7656 532.1563,147.25 Q532.1094,146.8906 531.9219,146.7031 Q531.5938,146.3281 530.9844,146.1094 Q530.375,145.8906 529.75,145.8906 Q528.9844,145.8906 528.3438,146.2188 Q527.7188,146.5469 527.2188,147.2969 Q526.7344,148.0469 526.7344,149.0781 L526.7344,150.1719 Q526.7344,151.4063 527.625,152.2344 Q528.5156,153.0469 530.1094,153.0469 Q531.0469,153.0469 531.7031,152.7969 Q532.0938,152.6406 532.5156,152.2031 Q532.7813,151.9375 532.9219,151.8594 Q533.0781,151.7813 533.2813,151.7813 Q533.6094,151.7813 533.8594,152.0469 Q534.125,152.2969 534.125,152.6406 Q534.125,152.9844 533.7813,153.3906 Q533.2813,153.9688 532.4844,154.2969 Q531.4063,154.75 530.1094,154.75 Q528.5938,154.75 527.3906,154.125 Q526.4063,153.625 525.7188,152.5625 Q525.0313,151.4844 525.0313,150.2031 L525.0313,149.0469 Q525.0313,147.7188 525.6406,146.5781 Q526.2656,145.4219 527.3594,144.8125 Q528.4531,144.1875 529.6875,144.1875 Q530.4219,144.1875 531.0625,144.3594 Q531.7188,144.5156 532.2656,144.875 Z " fill="#000000"/><text fill="#000000" font-family="sans-serif" font-size="14" lengthAdjust="spacing" textLength="57" x="543.5" y="154.7285">Creencia</text><line style="stroke:#181818;stroke-width:0.5;" x1="515.5" x2="602.5" y1="165" y2="165"/><line style="stroke:#181818;stroke-width:0.5;" x1="515.5" x2="602.5" y1="173" y2="173"/></g><!--reverse link Persona to Cultura--><g id="link_Persona_Cultura"><path codeLine="26" d="M241.7382,58.5292 C194.7882,81.9092 130.58,113.88 85.07,136.55 " fill="none" id="Persona-backto-Cultura" style="stroke:#181818;stroke-width:1.0;"/><polygon fill="none" points="252.48,53.18,245.326,52.274,241.7382,58.5292,248.8922,59.4352,252.48,53.18" style="stroke:#181818;stroke-width:1.0;"/></g><!--link Persona to Familia--><g id="link_Persona_Familia"><path codeLine="27" d="M269.74,55.03 C245.46,77.17 208.97,110.44 184.59,132.67 " fill="none" id="Persona-Familia" style="stroke:#181818;stroke-width:1.0;"/></g><!--link Persona to RelacionSocial--><g id="link_Persona_RelacionSocial"><path codeLine="28" d="M295,55.03 C295,77.17 295,110.44 295,132.67 " fill="none" id="Persona-RelacionSocial" style="stroke:#181818;stroke-width:1.0;"/></g><!--reverse link Persona to Creencia--><g id="link_Persona_Creencia"><path codeLine="29" d="M349.2831,45.8123 C382.2631,54.8523 416.97,66.18 455,85 C481.84,98.28 509.74,117.68 529.88,132.85 " fill="none" id="Persona-backto-Creencia" style="stroke:#181818;stroke-width:1.0;"/><polygon fill="none" points="337.71,42.64,342.4391,48.0838,349.2831,45.8123,344.554,40.3684,337.71,42.64" style="stroke:#181818;stroke-width:1.0;"/></g><!--link Persona to Emocion--><g id="link_Persona_Emocion"><path codeLine="30" d="M321.19,55.03 C346.36,77.17 379.6843,106.4779 404.9643,128.7079 " fill="none" id="Persona-to-Emocion" style="stroke:#181818;stroke-width:1.0;stroke-dasharray:7.0,7.0;"/><polygon fill="#181818" points="409.47,132.67,405.3528,123.723,405.7152,129.3682,400.07,129.7306,409.47,132.67" style="stroke:#181818;stroke-width:1.0;"/><text fill="#000000" font-family="sans-serif" font-size="13" lengthAdjust="spacing" textLength="71" x="375" y="99.4951">experimenta</text></g><!--SRC=[LOvB2eH030NtEKLVG0_WOZOohaLF448MWNH7kXK6Xhcx7xIPREj1rIF5KiB8kLZ2y0Nu0T35-atNBNisO1GLpoPM9B4q6mcgczxHpiLhCtEYwdZArZHFiR83tS5_v7jUSBihRDjNFT45_YoS9N9Q4NO0]--></g></svg>