<?xml version="1.0" encoding="us-ascii" standalone="no"?><svg xmlns="http://www.w3.org/2000/svg" xmlns:xlink="http://www.w3.org/1999/xlink" contentStyleType="text/css" height="423px" preserveAspectRatio="none" style="width:610px;height:423px;background:#FFFFFF;" version="1.1" viewBox="0 0 610 423" width="610px" zoomAndPan="magnify"><defs/><g><!--class Persona--><g id="elem_Persona"><rect codeLine="2" fill="#F1F1F1" height="48" id="Persona" rx="2.5" ry="2.5" style="stroke:#181818;stroke-width:0.5;" width="85" x="309.5" y="7"/><ellipse cx="324.5" cy="23" fill="#ADD1B2" rx="11" ry="11" style="stroke:#181818;stroke-width:1.0;"/><path d="M327.2656,18.875 Q327.4219,18.6563 327.6094,18.5469 Q327.7969,18.4375 328.0156,18.4375 Q328.3906,18.4375 328.625,18.7031 Q328.8594,18.9531 328.8594,19.5625 L328.8594,21.0156 Q328.8594,21.625 328.625,21.8906 Q328.3906,22.1563 328.0156,22.1563 Q327.6719,22.1563 327.4688,21.9531 Q327.2656,21.7656 327.1563,21.25 Q327.1094,20.8906 326.9219,20.7031 Q326.5938,20.3281 325.9844,20.1094 Q325.375,19.8906 324.75,19.8906 Q323.9844,19.8906 323.3438,20.2188 Q322.7188,20.5469 322.2188,21.2969 Q321.7344,22.0469 321.7344,23.0781 L321.7344,24.1719 Q321.7344,25.4063 322.625,26.2344 Q323.5156,27.0469 325.1094,27.0469 Q326.0469,27.0469 326.7031,26.7969 Q327.0938,26.6406 327.5156,26.2031 Q327.7813,25.9375 327.9219,25.8594 Q328.0781,25.7813 328.2813,25.7813 Q328.6094,25.7813 328.8594,26.0469 Q329.125,26.2969 329.125,26.6406 Q329.125,26.9844 328.7813,27.3906 Q328.2813,27.9688 327.4844,28.2969 Q326.4063,28.75 325.1094,28.75 Q323.5938,28.75 322.3906,28.125 Q321.4063,27.625 320.7188,26.5625 Q320.0313,25.4844 320.0313,24.2031 L320.0313,23.0469 Q320.0313,21.7188 320.6406,20.5781 Q321.2656,19.4219 322.3594,18.8125 Q323.4531,18.1875 324.6875,18.1875 Q325.4219,18.1875 326.0625,18.3594 Q326.7188,18.5156 327.2656,18.875 Z " fill="#000000"/><text fill="#000000" font-family="sans-serif" font-size="14" lengthAdjust="spacing" textLength="53" x="338.5" y="28.7285">Persona</text><line style="stroke:#181818;stroke-width:0.5;" x1="310.5" x2="393.5" y1="39" y2="39"/><line style="stroke:#181818;stroke-width:0.5;" x1="310.5" x2="393.5" y1="47" y2="47"/></g><!--class Identidad--><g id="elem_Identidad"><rect codeLine="5" fill="#F1F1F1" height="48" id="Identidad" rx="2.5" ry="2.5" style="stroke:#181818;stroke-width:0.5;" width="90" x="250" y="242"/><ellipse cx="265" cy="258" fill="#ADD1B2" rx="11" ry="11" style="stroke:#181818;stroke-width:1.0;"/><path d="M267.7656,253.875 Q267.9219,253.6563 268.1094,253.5469 Q268.2969,253.4375 268.5156,253.4375 Q268.8906,253.4375 269.125,253.7031 Q269.3594,253.9531 269.3594,254.5625 L269.3594,256.0156 Q269.3594,256.625 269.125,256.8906 Q268.8906,257.1563 268.5156,257.1563 Q268.1719,257.1563 267.9688,256.9531 Q267.7656,256.7656 267.6563,256.25 Q267.6094,255.8906 267.4219,255.7031 Q267.0938,255.3281 266.4844,255.1094 Q265.875,254.8906 265.25,254.8906 Q264.4844,254.8906 263.8438,255.2188 Q263.2188,255.5469 262.7188,256.2969 Q262.2344,257.0469 262.2344,258.0781 L262.2344,259.1719 Q262.2344,260.4063 263.125,261.2344 Q264.0156,262.0469 265.6094,262.0469 Q266.5469,262.0469 267.2031,261.7969 Q267.5938,261.6406 268.0156,261.2031 Q268.2813,260.9375 268.4219,260.8594 Q268.5781,260.7813 268.7813,260.7813 Q269.1094,260.7813 269.3594,261.0469 Q269.625,261.2969 269.625,261.6406 Q269.625,261.9844 269.2813,262.3906 Q268.7813,262.9688 267.9844,263.2969 Q266.9063,263.75 265.6094,263.75 Q264.0938,263.75 262.8906,263.125 Q261.9063,262.625 261.2188,261.5625 Q260.5313,260.4844 260.5313,259.2031 L260.5313,258.0469 Q260.5313,256.7188 261.1406,255.5781 Q261.7656,254.4219 262.8594,253.8125 Q263.9531,253.1875 265.1875,253.1875 Q265.9219,253.1875 266.5625,253.3594 Q267.2188,253.5156 267.7656,253.875 Z " fill="#000000"/><text fill="#000000" font-family="sans-serif" font-size="14" lengthAdjust="spacing" textLength="58" x="279" y="263.7285">Identidad</text><line style="stroke:#181818;stroke-width:0.5;" x1="251" x2="339" y1="274" y2="274"/><line style="stroke:#181818;stroke-width:0.5;" x1="251" x2="339" y1="282" y2="282"/></g><!--class Edad--><g id="elem_Edad"><rect codeLine="8" fill="#F1F1F1" height="48" id="Edad" rx="2.5" ry="2.5" style="stroke:#181818;stroke-width:0.5;" width="65" x="319.5" y="116"/><ellipse cx="334.5" cy="132" fill="#ADD1B2" rx="11" ry="11" style="stroke:#181818;stroke-width:1.0;"/><path d="M337.2656,127.875 Q337.4219,127.6563 337.6094,127.5469 Q337.7969,127.4375 338.0156,127.4375 Q338.3906,127.4375 338.625,127.7031 Q338.8594,127.9531 338.8594,128.5625 L338.8594,130.0156 Q338.8594,130.625 338.625,130.8906 Q338.3906,131.1563 338.0156,131.1563 Q337.6719,131.1563 337.4688,130.9531 Q337.2656,130.7656 337.1563,130.25 Q337.1094,129.8906 336.9219,129.7031 Q336.5938,129.3281 335.9844,129.1094 Q335.375,128.8906 334.75,128.8906 Q333.9844,128.8906 333.3438,129.2188 Q332.7188,129.5469 332.2188,130.2969 Q331.7344,131.0469 331.7344,132.0781 L331.7344,133.1719 Q331.7344,134.4063 332.625,135.2344 Q333.5156,136.0469 335.1094,136.0469 Q336.0469,136.0469 336.7031,135.7969 Q337.0938,135.6406 337.5156,135.2031 Q337.7813,134.9375 337.9219,134.8594 Q338.0781,134.7813 338.2813,134.7813 Q338.6094,134.7813 338.8594,135.0469 Q339.125,135.2969 339.125,135.6406 Q339.125,135.9844 338.7813,136.3906 Q338.2813,136.9688 337.4844,137.2969 Q336.4063,137.75 335.1094,137.75 Q333.5938,137.75 332.3906,137.125 Q331.4063,136.625 330.7188,135.5625 Q330.0313,134.4844 330.0313,133.2031 L330.0313,132.0469 Q330.0313,130.7188 330.6406,129.5781 Q331.2656,128.4219 332.3594,127.8125 Q333.4531,127.1875 334.6875,127.1875 Q335.4219,127.1875 336.0625,127.3594 Q336.7188,127.5156 337.2656,127.875 Z " fill="#000000"/><text fill="#000000" font-family="sans-serif" font-size="14" lengthAdjust="spacing" textLength="33" x="348.5" y="137.7285">Edad</text><line style="stroke:#181818;stroke-width:0.5;" x1="320.5" x2="383.5" y1="148" y2="148"/><line style="stroke:#181818;stroke-width:0.5;" x1="320.5" x2="383.5" y1="156" y2="156"/></g><!--class ExperienciaVivida--><g id="elem_ExperienciaVivida"><rect codeLine="11" fill="#F1F1F1" height="48" id="ExperienciaVivida" rx="2.5" ry="2.5" style="stroke:#181818;stroke-width:0.5;" width="143" x="419.5" y="116"/><ellipse cx="434.5" cy="132" fill="#ADD1B2" rx="11" ry="11" style="stroke:#181818;stroke-width:1.0;"/><path d="M437.2656,127.875 Q437.4219,127.6563 437.6094,127.5469 Q437.7969,127.4375 438.0156,127.4375 Q438.3906,127.4375 438.625,127.7031 Q438.8594,127.9531 438.8594,128.5625 L438.8594,130.0156 Q438.8594,130.625 438.625,130.8906 Q438.3906,131.1563 438.0156,131.1563 Q437.6719,131.1563 437.4688,130.9531 Q437.2656,130.7656 437.1563,130.25 Q437.1094,129.8906 436.9219,129.7031 Q436.5938,129.3281 435.9844,129.1094 Q435.375,128.8906 434.75,128.8906 Q433.9844,128.8906 433.3438,129.2188 Q432.7188,129.5469 432.2188,130.2969 Q431.7344,131.0469 431.7344,132.0781 L431.7344,133.1719 Q431.7344,134.4063 432.625,135.2344 Q433.5156,136.0469 435.1094,136.0469 Q436.0469,136.0469 436.7031,135.7969 Q437.0938,135.6406 437.5156,135.2031 Q437.7813,134.9375 437.9219,134.8594 Q438.0781,134.7813 438.2813,134.7813 Q438.6094,134.7813 438.8594,135.0469 Q439.125,135.2969 439.125,135.6406 Q439.125,135.9844 438.7813,136.3906 Q438.2813,136.9688 437.4844,137.2969 Q436.4063,137.75 435.1094,137.75 Q433.5938,137.75 432.3906,137.125 Q431.4063,136.625 430.7188,135.5625 Q430.0313,134.4844 430.0313,133.2031 L430.0313,132.0469 Q430.0313,130.7188 430.6406,129.5781 Q431.2656,128.4219 432.3594,127.8125 Q433.4531,127.1875 434.6875,127.1875 Q435.4219,127.1875 436.0625,127.3594 Q436.7188,127.5156 437.2656,127.875 Z " fill="#000000"/><text fill="#000000" font-family="sans-serif" font-size="14" lengthAdjust="spacing" textLength="111" x="448.5" y="137.7285">ExperienciaVivida</text><line style="stroke:#181818;stroke-width:0.5;" x1="420.5" x2="561.5" y1="148" y2="148"/><line style="stroke:#181818;stroke-width:0.5;" x1="420.5" x2="561.5" y1="156" y2="156"/></g><!--class Cultura--><g id="elem_Cultura"><rect codeLine="14" fill="#F1F1F1" height="48" id="Cultura" rx="2.5" ry="2.5" style="stroke:#181818;stroke-width:0.5;" width="78" x="7" y="368"/><ellipse cx="22" cy="384" fill="#ADD1B2" rx="11" ry="11" style="stroke:#181818;stroke-width:1.0;"/><path d="M24.7656,379.875 Q24.9219,379.6563 25.1094,379.5469 Q25.2969,379.4375 25.5156,379.4375 Q25.8906,379.4375 26.125,379.7031 Q26.3594,379.9531 26.3594,380.5625 L26.3594,382.0156 Q26.3594,382.625 26.125,382.8906 Q25.8906,383.1563 25.5156,383.1563 Q25.1719,383.1563 24.9688,382.9531 Q24.7656,382.7656 24.6563,382.25 Q24.6094,381.8906 24.4219,381.7031 Q24.0938,381.3281 23.4844,381.1094 Q22.875,380.8906 22.25,380.8906 Q21.4844,380.8906 20.8438,381.2188 Q20.2188,381.5469 19.7188,382.2969 Q19.2344,383.0469 19.2344,384.0781 L19.2344,385.1719 Q19.2344,386.4063 20.125,387.2344 Q21.0156,388.0469 22.6094,388.0469 Q23.5469,388.0469 24.2031,387.7969 Q24.5938,387.6406 25.0156,387.2031 Q25.2813,386.9375 25.4219,386.8594 Q25.5781,386.7813 25.7813,386.7813 Q26.1094,386.7813 26.3594,387.0469 Q26.625,387.2969 26.625,387.6406 Q26.625,387.9844 26.2813,388.3906 Q25.7813,388.9688 24.9844,389.2969 Q23.9063,389.75 22.6094,389.75 Q21.0938,389.75 19.8906,389.125 Q18.9063,388.625 18.2188,387.5625 Q17.5313,386.4844 17.5313,385.2031 L17.5313,384.0469 Q17.5313,382.7188 18.1406,381.5781 Q18.7656,380.4219 19.8594,379.8125 Q20.9531,379.1875 22.1875,379.1875 Q22.9219,379.1875 23.5625,379.3594 Q24.2188,379.5156 24.7656,379.875 Z " fill="#000000"/><text fill="#000000" font-family="sans-serif" font-size="14" lengthAdjust="spacing" textLength="46" x="36" y="389.7285">Cultura</text><line style="stroke:#181818;stroke-width:0.5;" x1="8" x2="84" y1="400" y2="400"/><line style="stroke:#181818;stroke-width:0.5;" x1="8" x2="84" y1="408" y2="408"/></g><!--class Familia--><g id="elem_Familia"><rect codeLine="17" fill="#F1F1F1" height="48" id="Familia" rx="2.5" ry="2.5" style="stroke:#181818;stroke-width:0.5;" width="77" x="120.5" y="368"/><ellipse cx="135.5" cy="384" fill="#ADD1B2" rx="11" ry="11" style="stroke:#181818;stroke-width:1.0;"/><path d="M138.2656,379.875 Q138.4219,379.6563 138.6094,379.5469 Q138.7969,379.4375 139.0156,379.4375 Q139.3906,379.4375 139.625,379.7031 Q139.8594,379.9531 139.8594,380.5625 L139.8594,382.0156 Q139.8594,382.625 139.625,382.8906 Q139.3906,383.1563 139.0156,383.1563 Q138.6719,383.1563 138.4688,382.9531 Q138.2656,382.7656 138.1563,382.25 Q138.1094,381.8906 137.9219,381.7031 Q137.5938,381.3281 136.9844,381.1094 Q136.375,380.8906 135.75,380.8906 Q134.9844,380.8906 134.3438,381.2188 Q133.7188,381.5469 133.2188,382.2969 Q132.7344,383.0469 132.7344,384.0781 L132.7344,385.1719 Q132.7344,386.4063 133.625,387.2344 Q134.5156,388.0469 136.1094,388.0469 Q137.0469,388.0469 137.7031,387.7969 Q138.0938,387.6406 138.5156,387.2031 Q138.7813,386.9375 138.9219,386.8594 Q139.0781,386.7813 139.2813,386.7813 Q139.6094,386.7813 139.8594,387.0469 Q140.125,387.2969 140.125,387.6406 Q140.125,387.9844 139.7813,388.3906 Q139.2813,388.9688 138.4844,389.2969 Q137.4063,389.75 136.1094,389.75 Q134.5938,389.75 133.3906,389.125 Q132.4063,388.625 131.7188,387.5625 Q131.0313,386.4844 131.0313,385.2031 L131.0313,384.0469 Q131.0313,382.7188 131.6406,381.5781 Q132.2656,380.4219 133.3594,379.8125 Q134.4531,379.1875 135.6875,379.1875 Q136.4219,379.1875 137.0625,379.3594 Q137.7188,379.5156 138.2656,379.875 Z " fill="#000000"/><text fill="#000000" font-family="sans-serif" font-size="14" lengthAdjust="spacing" textLength="45" x="149.5" y="389.7285">Familia</text><line style="stroke:#181818;stroke-width:0.5;" x1="121.5" x2="196.5" y1="400" y2="400"/><line style="stroke:#181818;stroke-width:0.5;" x1="121.5" x2="196.5" y1="408" y2="408"/></g><!--class RelacionSocial--><g id="elem_RelacionSocial"><rect codeLine="20" fill="#F1F1F1" height="48" id="RelacionSocial" rx="2.5" ry="2.5" style="stroke:#181818;stroke-width:0.5;" width="125" x="232.5" y="368"/><ellipse cx="247.5" cy="384" fill="#ADD1B2" rx="11" ry="11" style="stroke:#181818;stroke-width:1.0;"/><path d="M250.2656,379.875 Q250.4219,379.6563 250.6094,379.5469 Q250.7969,379.4375 251.0156,379.4375 Q251.3906,379.4375 251.625,379.7031 Q251.8594,379.9531 251.8594,380.5625 L251.8594,382.0156 Q251.8594,382.625 251.625,382.8906 Q251.3906,383.1563 251.0156,383.1563 Q250.6719,383.1563 250.4688,382.9531 Q250.2656,382.7656 250.1563,382.25 Q250.1094,381.8906 249.9219,381.7031 Q249.5938,381.3281 248.9844,381.1094 Q248.375,380.8906 247.75,380.8906 Q246.9844,380.8906 246.3438,381.2188 Q245.7188,381.5469 245.2188,382.2969 Q244.7344,383.0469 244.7344,384.0781 L244.7344,385.1719 Q244.7344,386.4063 245.625,387.2344 Q246.5156,388.0469 248.1094,388.0469 Q249.0469,388.0469 249.7031,387.7969 Q250.0938,387.6406 250.5156,387.2031 Q250.7813,386.9375 250.9219,386.8594 Q251.0781,386.7813 251.2813,386.7813 Q251.6094,386.7813 251.8594,387.0469 Q252.125,387.2969 252.125,387.6406 Q252.125,387.9844 251.7813,388.3906 Q251.2813,388.9688 250.4844,389.2969 Q249.4063,389.75 248.1094,389.75 Q246.5938,389.75 245.3906,389.125 Q244.4063,388.625 243.7188,387.5625 Q243.0313,386.4844 243.0313,385.2031 L243.0313,384.0469 Q243.0313,382.7188 243.6406,381.5781 Q244.2656,380.4219 245.3594,379.8125 Q246.4531,379.1875 247.6875,379.1875 Q248.4219,379.1875 249.0625,379.3594 Q249.7188,379.5156 250.2656,379.875 Z " fill="#000000"/><text fill="#000000" font-family="sans-serif" font-size="14" lengthAdjust="spacing" textLength="93" x="261.5" y="389.7285">RelacionSocial</text><line style="stroke:#181818;stroke-width:0.5;" x1="233.5" x2="356.5" y1="400" y2="400"/><line style="stroke:#181818;stroke-width:0.5;" x1="233.5" x2="356.5" y1="408" y2="408"/></g><!--class Emocion--><g id="elem_Emocion"><rect codeLine="23" fill="#F1F1F1" height="48" id="Emocion" rx="2.5" ry="2.5" style="stroke:#181818;stroke-width:0.5;" width="86" x="393" y="368"/><ellipse cx="408" cy="384" fill="#ADD1B2" rx="11" ry="11" style="stroke:#181818;stroke-width:1.0;"/><path d="M410.7656,379.875 Q410.9219,379.6563 411.1094,379.5469 Q411.2969,379.4375 411.5156,379.4375 Q411.8906,379.4375 412.125,379.7031 Q412.3594,379.9531 412.3594,380.5625 L412.3594,382.0156 Q412.3594,382.625 412.125,382.8906 Q411.8906,383.1563 411.5156,383.1563 Q411.1719,383.1563 410.9688,382.9531 Q410.7656,382.7656 410.6563,382.25 Q410.6094,381.8906 410.4219,381.7031 Q410.0938,381.3281 409.4844,381.1094 Q408.875,380.8906 408.25,380.8906 Q407.4844,380.8906 406.8438,381.2188 Q406.2188,381.5469 405.7188,382.2969 Q405.2344,383.0469 405.2344,384.0781 L405.2344,385.1719 Q405.2344,386.4063 406.125,387.2344 Q407.0156,388.0469 408.6094,388.0469 Q409.5469,388.0469 410.2031,387.7969 Q410.5938,387.6406 411.0156,387.2031 Q411.2813,386.9375 411.4219,386.8594 Q411.5781,386.7813 411.7813,386.7813 Q412.1094,386.7813 412.3594,387.0469 Q412.625,387.2969 412.625,387.6406 Q412.625,387.9844 412.2813,388.3906 Q411.7813,388.9688 410.9844,389.2969 Q409.9063,389.75 408.6094,389.75 Q407.0938,389.75 405.8906,389.125 Q404.9063,388.625 404.2188,387.5625 Q403.5313,386.4844 403.5313,385.2031 L403.5313,384.0469 Q403.5313,382.7188 404.1406,381.5781 Q404.7656,380.4219 405.8594,379.8125 Q406.9531,379.1875 408.1875,379.1875 Q408.9219,379.1875 409.5625,379.3594 Q410.2188,379.5156 410.7656,379.875 Z " fill="#000000"/><text fill="#000000" font-family="sans-serif" font-size="14" lengthAdjust="spacing" textLength="54" x="422" y="389.7285">Emocion</text><line style="stroke:#181818;stroke-width:0.5;" x1="394" x2="478" y1="400" y2="400"/><line style="stroke:#181818;stroke-width:0.5;" x1="394" x2="478" y1="408" y2="408"/></g><!--class Creencia--><g id="elem_Creencia"><rect codeLine="26" fill="#F1F1F1" height="48" id="Creencia" rx="2.5" ry="2.5" style="stroke:#181818;stroke-width:0.5;" width="89" x="514.5" y="368"/><ellipse cx="529.5" cy="384" fill="#ADD1B2" rx="11" ry="11" style="stroke:#181818;stroke-width:1.0;"/><path d="M532.2656,379.875 Q532.4219,379.6563 532.6094,379.5469 Q532.7969,379.4375 533.0156,379.4375 Q533.3906,379.4375 533.625,379.7031 Q533.8594,379.9531 533.8594,380.5625 L533.8594,382.0156 Q533.8594,382.625 533.625,382.8906 Q533.3906,383.1563 533.0156,383.1563 Q532.6719,383.1563 532.4688,382.9531 Q532.2656,382.7656 532.1563,382.25 Q532.1094,381.8906 531.9219,381.7031 Q531.5938,381.3281 530.9844,381.1094 Q530.375,380.8906 529.75,380.8906 Q528.9844,380.8906 528.3438,381.2188 Q527.7188,381.5469 527.2188,382.2969 Q526.7344,383.0469 526.7344,384.0781 L526.7344,385.1719 Q526.7344,386.4063 527.625,387.2344 Q528.5156,388.0469 530.1094,388.0469 Q531.0469,388.0469 531.7031,387.7969 Q532.0938,387.6406 532.5156,387.2031 Q532.7813,386.9375 532.9219,386.8594 Q533.0781,386.7813 533.2813,386.7813 Q533.6094,386.7813 533.8594,387.0469 Q534.125,387.2969 534.125,387.6406 Q534.125,387.9844 533.7813,388.3906 Q533.2813,388.9688 532.4844,389.2969 Q531.4063,389.75 530.1094,389.75 Q528.5938,389.75 527.3906,389.125 Q526.4063,388.625 525.7188,387.5625 Q525.0313,386.4844 525.0313,385.2031 L525.0313,384.0469 Q525.0313,382.7188 525.6406,381.5781 Q526.2656,380.4219 527.3594,379.8125 Q528.4531,379.1875 529.6875,379.1875 Q530.4219,379.1875 531.0625,379.3594 Q531.7188,379.5156 532.2656,379.875 Z " fill="#000000"/><text fill="#000000" font-family="sans-serif" font-size="14" lengthAdjust="spacing" textLength="57" x="543.5" y="389.7285">Creencia</text><line style="stroke:#181818;stroke-width:0.5;" x1="515.5" x2="602.5" y1="400" y2="400"/><line style="stroke:#181818;stroke-width:0.5;" x1="515.5" x2="602.5" y1="408" y2="408"/></g><!--reverse link Persona to Identidad--><g id="link_Persona_Identidad"><path codeLine="29" d="M327.0233,64.9249 C315.5933,81.0249 308.69,93.73 302,116 C289.07,159.03 290.45,212.17 292.68,241.96 " fill="none" id="Persona-backto-Identidad" style="stroke:#181818;stroke-width:1.0;"/><polygon fill="#181818" points="333.97,55.14,327.235,57.7169,327.0233,64.9249,333.7583,62.348,333.97,55.14" style="stroke:#181818;stroke-width:1.0;"/></g><!--reverse link Persona to Edad--><g id="link_Persona_Edad"><path codeLine="30" d="M352,67.22 C352,85.16 352,97.89 352,115.83 " fill="none" id="Persona-backto-Edad" style="stroke:#181818;stroke-width:1.0;"/><polygon fill="#181818" points="352,55.22,348,61.22,352,67.22,356,61.22,352,55.22" style="stroke:#181818;stroke-width:1.0;"/></g><!--reverse link Persona to ExperienciaVivida--><g id="link_Persona_ExperienciaVivida"><path codeLine="31" d="M391.6712,62.5369 C414.9912,80.4769 437.6,97.89 460.9,115.83 " fill="none" id="Persona-backto-ExperienciaVivida" style="stroke:#181818;stroke-width:1.0;"/><polygon fill="#181818" points="382.16,55.22,384.4766,62.0489,391.6712,62.5369,389.3546,55.7081,382.16,55.22" style="stroke:#181818;stroke-width:1.0;"/></g><!--reverse link Identidad to Cultura--><g id="link_Identidad_Cultura"><path codeLine="32" d="M239.1682,294.8092 C192.0782,318.2592 129.72,349.31 85.03,371.57 " fill="none" id="Identidad-backto-Cultura" style="stroke:#181818;stroke-width:1.0;"/><polygon fill="none" points="249.91,289.46,242.756,288.554,239.1682,294.8092,246.3222,295.7152,249.91,289.46" style="stroke:#181818;stroke-width:1.0;"/></g><!--link Identidad to Familia--><g id="link_Identidad_Familia"><path codeLine="33" d="M269.74,290.03 C245.46,312.17 208.97,345.44 184.59,367.67 " fill="none" id="Identidad-Familia" style="stroke:#181818;stroke-width:1.0;"/></g><!--link Identidad to RelacionSocial--><g id="link_Identidad_RelacionSocial"><path codeLine="34" d="M295,290.03 C295,312.17 295,345.44 295,367.67 " fill="none" id="Identidad-RelacionSocial" style="stroke:#181818;stroke-width:1.0;"/></g><!--reverse link Identidad to Creencia--><g id="link_Identidad_Creencia"><path codeLine="35" d="M351.685,281.5015 C384.485,290.5815 417.89,301.64 455,320 C481.84,333.28 509.74,352.68 529.88,367.85 " fill="none" id="Identidad-backto-Creencia" style="stroke:#181818;stroke-width:1.0;"/><polygon fill="none" points="340.12,278.3,344.8353,283.7558,351.685,281.5015,346.9697,276.0458,340.12,278.3" style="stroke:#181818;stroke-width:1.0;"/></g><!--link Identidad to Emocion--><g id="link_Identidad_Emocion"><path codeLine="36" d="M321.19,290.03 C346.36,312.17 379.6843,341.4779 404.9643,363.7079 " fill="none" id="Identidad-to-Emocion" style="stroke:#181818;stroke-width:1.0;stroke-dasharray:7.0,7.0;"/><polygon fill="#181818" points="409.47,367.67,405.3528,358.723,405.7152,364.3682,400.07,364.7306,409.47,367.67" style="stroke:#181818;stroke-width:1.0;"/><text fill="#000000" font-family="sans-serif" font-size="13" lengthAdjust="spacing" textLength="71" x="375" y="334.4951">experimenta</text></g><!--link ExperienciaVivida to Identidad--><g id="link_ExperienciaVivida_Identidad"><path codeLine="37" d="M454.59,164.03 C419.5,186.24 366.68,219.65 331.54,241.88 " fill="none" id="ExperienciaVivida-Identidad" style="stroke:#181818;stroke-width:1.0;"/><text fill="#000000" font-family="sans-serif" font-size="13" lengthAdjust="spacing" textLength="57" x="405" y="208.4951">construye</text></g><!--SRC=[PP2x3i8m34LtVqLcfFO365XGaTWGIEnMwi5I7YXf4HNYtmcXq3WTSwvrSsnjC4PreX2zG_M45u3EwDYJ6xZ7leHT_NxSA30vpNZbUvekm_reXZ48T43BXWKwaq7DtbryAZ6YtFfF82e3vS- -x6UzQPf5Lz1k1MfXMFRqAP-T2vhWR2sXzAvhPiy2j-tklz5MKVQmAKHO7x7S9mrhx-8GnedW3G00]--></g></svg>