<?xml version="1.0" encoding="us-ascii" standalone="no"?><svg xmlns="http://www.w3.org/2000/svg" xmlns:xlink="http://www.w3.org/1999/xlink" contentStyleType="text/css" height="423px" preserveAspectRatio="none" style="width:923px;height:423px;background:#FFFFFF;" version="1.1" viewBox="0 0 923 423" width="923px" zoomAndPan="magnify"><defs/><g><!--class Persona--><g id="elem_Persona"><rect codeLine="2" fill="#F1F1F1" height="48" id="Persona" rx="2.5" ry="2.5" style="stroke:#181818;stroke-width:0.5;" width="85" x="718" y="7"/><ellipse cx="733" cy="23" fill="#ADD1B2" rx="11" ry="11" style="stroke:#181818;stroke-width:1.0;"/><path d="M735.7656,18.875 Q735.9219,18.6563 736.1094,18.5469 Q736.2969,18.4375 736.5156,18.4375 Q736.8906,18.4375 737.125,18.7031 Q737.3594,18.9531 737.3594,19.5625 L737.3594,21.0156 Q737.3594,21.625 737.125,21.8906 Q736.8906,22.1563 736.5156,22.1563 Q736.1719,22.1563 735.9688,21.9531 Q735.7656,21.7656 735.6563,21.25 Q735.6094,20.8906 735.4219,20.7031 Q735.0938,20.3281 734.4844,20.1094 Q733.875,19.8906 733.25,19.8906 Q732.4844,19.8906 731.8438,20.2188 Q731.2188,20.5469 730.7188,21.2969 Q730.2344,22.0469 730.2344,23.0781 L730.2344,24.1719 Q730.2344,25.4063 731.125,26.2344 Q732.0156,27.0469 733.6094,27.0469 Q734.5469,27.0469 735.2031,26.7969 Q735.5938,26.6406 736.0156,26.2031 Q736.2813,25.9375 736.4219,25.8594 Q736.5781,25.7813 736.7813,25.7813 Q737.1094,25.7813 737.3594,26.0469 Q737.625,26.2969 737.625,26.6406 Q737.625,26.9844 737.2813,27.3906 Q736.7813,27.9688 735.9844,28.2969 Q734.9063,28.75 733.6094,28.75 Q732.0938,28.75 730.8906,28.125 Q729.9063,27.625 729.2188,26.5625 Q728.5313,25.4844 728.5313,24.2031 L728.5313,23.0469 Q728.5313,21.7188 729.1406,20.5781 Q729.7656,19.4219 730.8594,18.8125 Q731.9531,18.1875 733.1875,18.1875 Q733.9219,18.1875 734.5625,18.3594 Q735.2188,18.5156 735.7656,18.875 Z " fill="#000000"/><text fill="#000000" font-family="sans-serif" font-size="14" lengthAdjust="spacing" textLength="53" x="747" y="28.7285">Persona</text><line style="stroke:#181818;stroke-width:0.5;" x1="719" x2="802" y1="39" y2="39"/><line style="stroke:#181818;stroke-width:0.5;" x1="719" x2="802" y1="47" y2="47"/></g><!--class Identidad--><g id="elem_Identidad"><rect codeLine="6" fill="#F1F1F1" height="48" id="Identidad" rx="2.5" ry="2.5" style="stroke:#181818;stroke-width:0.5;" width="90" x="479.5" y="242"/><ellipse cx="494.5" cy="258" fill="#ADD1B2" rx="11" ry="11" style="stroke:#181818;stroke-width:1.0;"/><path d="M497.2656,253.875 Q497.4219,253.6563 497.6094,253.5469 Q497.7969,253.4375 498.0156,253.4375 Q498.3906,253.4375 498.625,253.7031 Q498.8594,253.9531 498.8594,254.5625 L498.8594,256.0156 Q498.8594,256.625 498.625,256.8906 Q498.3906,257.1563 498.0156,257.1563 Q497.6719,257.1563 497.4688,256.9531 Q497.2656,256.7656 497.1563,256.25 Q497.1094,255.8906 496.9219,255.7031 Q496.5938,255.3281 495.9844,255.1094 Q495.375,254.8906 494.75,254.8906 Q493.9844,254.8906 493.3438,255.2188 Q492.7188,255.5469 492.2188,256.2969 Q491.7344,257.0469 491.7344,258.0781 L491.7344,259.1719 Q491.7344,260.4063 492.625,261.2344 Q493.5156,262.0469 495.1094,262.0469 Q496.0469,262.0469 496.7031,261.7969 Q497.0938,261.6406 497.5156,261.2031 Q497.7813,260.9375 497.9219,260.8594 Q498.0781,260.7813 498.2813,260.7813 Q498.6094,260.7813 498.8594,261.0469 Q499.125,261.2969 499.125,261.6406 Q499.125,261.9844 498.7813,262.3906 Q498.2813,262.9688 497.4844,263.2969 Q496.4063,263.75 495.1094,263.75 Q493.5938,263.75 492.3906,263.125 Q491.4063,262.625 490.7188,261.5625 Q490.0313,260.4844 490.0313,259.2031 L490.0313,258.0469 Q490.0313,256.7188 490.6406,255.5781 Q491.2656,254.4219 492.3594,253.8125 Q493.4531,253.1875 494.6875,253.1875 Q495.4219,253.1875 496.0625,253.3594 Q496.7188,253.5156 497.2656,253.875 Z " fill="#000000"/><text fill="#000000" font-family="sans-serif" font-size="14" lengthAdjust="spacing" textLength="58" x="508.5" y="263.7285">Identidad</text><line style="stroke:#181818;stroke-width:0.5;" x1="480.5" x2="568.5" y1="274" y2="274"/><line style="stroke:#181818;stroke-width:0.5;" x1="480.5" x2="568.5" y1="282" y2="282"/></g><!--class Edad--><g id="elem_Edad"><rect codeLine="10" fill="#F1F1F1" height="48" id="Edad" rx="2.5" ry="2.5" style="stroke:#181818;stroke-width:0.5;" width="65" x="763" y="116"/><ellipse cx="778" cy="132" fill="#ADD1B2" rx="11" ry="11" style="stroke:#181818;stroke-width:1.0;"/><path d="M780.7656,127.875 Q780.9219,127.6563 781.1094,127.5469 Q781.2969,127.4375 781.5156,127.4375 Q781.8906,127.4375 782.125,127.7031 Q782.3594,127.9531 782.3594,128.5625 L782.3594,130.0156 Q782.3594,130.625 782.125,130.8906 Q781.8906,131.1563 781.5156,131.1563 Q781.1719,131.1563 780.9688,130.9531 Q780.7656,130.7656 780.6563,130.25 Q780.6094,129.8906 780.4219,129.7031 Q780.0938,129.3281 779.4844,129.1094 Q778.875,128.8906 778.25,128.8906 Q777.4844,128.8906 776.8438,129.2188 Q776.2188,129.5469 775.7188,130.2969 Q775.2344,131.0469 775.2344,132.0781 L775.2344,133.1719 Q775.2344,134.4063 776.125,135.2344 Q777.0156,136.0469 778.6094,136.0469 Q779.5469,136.0469 780.2031,135.7969 Q780.5938,135.6406 781.0156,135.2031 Q781.2813,134.9375 781.4219,134.8594 Q781.5781,134.7813 781.7813,134.7813 Q782.1094,134.7813 782.3594,135.0469 Q782.625,135.2969 782.625,135.6406 Q782.625,135.9844 782.2813,136.3906 Q781.7813,136.9688 780.9844,137.2969 Q779.9063,137.75 778.6094,137.75 Q777.0938,137.75 775.8906,137.125 Q774.9063,136.625 774.2188,135.5625 Q773.5313,134.4844 773.5313,133.2031 L773.5313,132.0469 Q773.5313,130.7188 774.1406,129.5781 Q774.7656,128.4219 775.8594,127.8125 Q776.9531,127.1875 778.1875,127.1875 Q778.9219,127.1875 779.5625,127.3594 Q780.2188,127.5156 780.7656,127.875 Z " fill="#000000"/><text fill="#000000" font-family="sans-serif" font-size="14" lengthAdjust="spacing" textLength="33" x="792" y="137.7285">Edad</text><line style="stroke:#181818;stroke-width:0.5;" x1="764" x2="827" y1="148" y2="148"/><line style="stroke:#181818;stroke-width:0.5;" x1="764" x2="827" y1="156" y2="156"/></g><!--class ExperienciaVivida--><g id="elem_ExperienciaVivida"><rect codeLine="14" fill="#F1F1F1" height="48" id="ExperienciaVivida" rx="2.5" ry="2.5" style="stroke:#181818;stroke-width:0.5;" width="143" x="585" y="116"/><ellipse cx="600" cy="132" fill="#ADD1B2" rx="11" ry="11" style="stroke:#181818;stroke-width:1.0;"/><path d="M602.7656,127.875 Q602.9219,127.6563 603.1094,127.5469 Q603.2969,127.4375 603.5156,127.4375 Q603.8906,127.4375 604.125,127.7031 Q604.3594,127.9531 604.3594,128.5625 L604.3594,130.0156 Q604.3594,130.625 604.125,130.8906 Q603.8906,131.1563 603.5156,131.1563 Q603.1719,131.1563 602.9688,130.9531 Q602.7656,130.7656 602.6563,130.25 Q602.6094,129.8906 602.4219,129.7031 Q602.0938,129.3281 601.4844,129.1094 Q600.875,128.8906 600.25,128.8906 Q599.4844,128.8906 598.8438,129.2188 Q598.2188,129.5469 597.7188,130.2969 Q597.2344,131.0469 597.2344,132.0781 L597.2344,133.1719 Q597.2344,134.4063 598.125,135.2344 Q599.0156,136.0469 600.6094,136.0469 Q601.5469,136.0469 602.2031,135.7969 Q602.5938,135.6406 603.0156,135.2031 Q603.2813,134.9375 603.4219,134.8594 Q603.5781,134.7813 603.7813,134.7813 Q604.1094,134.7813 604.3594,135.0469 Q604.625,135.2969 604.625,135.6406 Q604.625,135.9844 604.2813,136.3906 Q603.7813,136.9688 602.9844,137.2969 Q601.9063,137.75 600.6094,137.75 Q599.0938,137.75 597.8906,137.125 Q596.9063,136.625 596.2188,135.5625 Q595.5313,134.4844 595.5313,133.2031 L595.5313,132.0469 Q595.5313,130.7188 596.1406,129.5781 Q596.7656,128.4219 597.8594,127.8125 Q598.9531,127.1875 600.1875,127.1875 Q600.9219,127.1875 601.5625,127.3594 Q602.2188,127.5156 602.7656,127.875 Z " fill="#000000"/><text fill="#000000" font-family="sans-serif" font-size="14" lengthAdjust="spacing" textLength="111" x="614" y="137.7285">ExperienciaVivida</text><line style="stroke:#181818;stroke-width:0.5;" x1="586" x2="727" y1="148" y2="148"/><line style="stroke:#181818;stroke-width:0.5;" x1="586" x2="727" y1="156" y2="156"/></g><!--class Cultura--><g id="elem_Cultura"><rect codeLine="18" fill="#F1F1F1" height="48" id="Cultura" rx="2.5" ry="2.5" style="stroke:#181818;stroke-width:0.5;" width="78" x="716.5" y="368"/><ellipse cx="731.5" cy="384" fill="#ADD1B2" rx="11" ry="11" style="stroke:#181818;stroke-width:1.0;"/><path d="M734.2656,379.875 Q734.4219,379.6563 734.6094,379.5469 Q734.7969,379.4375 735.0156,379.4375 Q735.3906,379.4375 735.625,379.7031 Q735.8594,379.9531 735.8594,380.5625 L735.8594,382.0156 Q735.8594,382.625 735.625,382.8906 Q735.3906,383.1563 735.0156,383.1563 Q734.6719,383.1563 734.4688,382.9531 Q734.2656,382.7656 734.1563,382.25 Q734.1094,381.8906 733.9219,381.7031 Q733.5938,381.3281 732.9844,381.1094 Q732.375,380.8906 731.75,380.8906 Q730.9844,380.8906 730.3438,381.2188 Q729.7188,381.5469 729.2188,382.2969 Q728.7344,383.0469 728.7344,384.0781 L728.7344,385.1719 Q728.7344,386.4063 729.625,387.2344 Q730.5156,388.0469 732.1094,388.0469 Q733.0469,388.0469 733.7031,387.7969 Q734.0938,387.6406 734.5156,387.2031 Q734.7813,386.9375 734.9219,386.8594 Q735.0781,386.7813 735.2813,386.7813 Q735.6094,386.7813 735.8594,387.0469 Q736.125,387.2969 736.125,387.6406 Q736.125,387.9844 735.7813,388.3906 Q735.2813,388.9688 734.4844,389.2969 Q733.4063,389.75 732.1094,389.75 Q730.5938,389.75 729.3906,389.125 Q728.4063,388.625 727.7188,387.5625 Q727.0313,386.4844 727.0313,385.2031 L727.0313,384.0469 Q727.0313,382.7188 727.6406,381.5781 Q728.2656,380.4219 729.3594,379.8125 Q730.4531,379.1875 731.6875,379.1875 Q732.4219,379.1875 733.0625,379.3594 Q733.7188,379.5156 734.2656,379.875 Z " fill="#000000"/><text fill="#000000" font-family="sans-serif" font-size="14" lengthAdjust="spacing" textLength="46" x="745.5" y="389.7285">Cultura</text><line style="stroke:#181818;stroke-width:0.5;" x1="717.5" x2="793.5" y1="400" y2="400"/><line style="stroke:#181818;stroke-width:0.5;" x1="717.5" x2="793.5" y1="408" y2="408"/></g><!--class Familia--><g id="elem_Familia"><rect codeLine="22" fill="#F1F1F1" height="48" id="Familia" rx="2.5" ry="2.5" style="stroke:#181818;stroke-width:0.5;" width="77" x="7" y="368"/><ellipse cx="22" cy="384" fill="#ADD1B2" rx="11" ry="11" style="stroke:#181818;stroke-width:1.0;"/><path d="M24.7656,379.875 Q24.9219,379.6563 25.1094,379.5469 Q25.2969,379.4375 25.5156,379.4375 Q25.8906,379.4375 26.125,379.7031 Q26.3594,379.9531 26.3594,380.5625 L26.3594,382.0156 Q26.3594,382.625 26.125,382.8906 Q25.8906,383.1563 25.5156,383.1563 Q25.1719,383.1563 24.9688,382.9531 Q24.7656,382.7656 24.6563,382.25 Q24.6094,381.8906 24.4219,381.7031 Q24.0938,381.3281 23.4844,381.1094 Q22.875,380.8906 22.25,380.8906 Q21.4844,380.8906 20.8438,381.2188 Q20.2188,381.5469 19.7188,382.2969 Q19.2344,383.0469 19.2344,384.0781 L19.2344,385.1719 Q19.2344,386.4063 20.125,387.2344 Q21.0156,388.0469 22.6094,388.0469 Q23.5469,388.0469 24.2031,387.7969 Q24.5938,387.6406 25.0156,387.2031 Q25.2813,386.9375 25.4219,386.8594 Q25.5781,386.7813 25.7813,386.7813 Q26.1094,386.7813 26.3594,387.0469 Q26.625,387.2969 26.625,387.6406 Q26.625,387.9844 26.2813,388.3906 Q25.7813,388.9688 24.9844,389.2969 Q23.9063,389.75 22.6094,389.75 Q21.0938,389.75 19.8906,389.125 Q18.9063,388.625 18.2188,387.5625 Q17.5313,386.4844 17.5313,385.2031 L17.5313,384.0469 Q17.5313,382.7188 18.1406,381.5781 Q18.7656,380.4219 19.8594,379.8125 Q20.9531,379.1875 22.1875,379.1875 Q22.9219,379.1875 23.5625,379.3594 Q24.2188,379.5156 24.7656,379.875 Z " fill="#000000"/><text fill="#000000" font-family="sans-serif" font-size="14" lengthAdjust="spacing" textLength="45" x="36" y="389.7285">Familia</text><line style="stroke:#181818;stroke-width:0.5;" x1="8" x2="83" y1="400" y2="400"/><line style="stroke:#181818;stroke-width:0.5;" x1="8" x2="83" y1="408" y2="408"/></g><!--class RelacionSocial--><g id="elem_RelacionSocial"><rect codeLine="26" fill="#F1F1F1" height="48" id="RelacionSocial" rx="2.5" ry="2.5" style="stroke:#181818;stroke-width:0.5;" width="125" x="119" y="368"/><ellipse cx="134" cy="384" fill="#ADD1B2" rx="11" ry="11" style="stroke:#181818;stroke-width:1.0;"/><path d="M136.7656,379.875 Q136.9219,379.6563 137.1094,379.5469 Q137.2969,379.4375 137.5156,379.4375 Q137.8906,379.4375 138.125,379.7031 Q138.3594,379.9531 138.3594,380.5625 L138.3594,382.0156 Q138.3594,382.625 138.125,382.8906 Q137.8906,383.1563 137.5156,383.1563 Q137.1719,383.1563 136.9688,382.9531 Q136.7656,382.7656 136.6563,382.25 Q136.6094,381.8906 136.4219,381.7031 Q136.0938,381.3281 135.4844,381.1094 Q134.875,380.8906 134.25,380.8906 Q133.4844,380.8906 132.8438,381.2188 Q132.2188,381.5469 131.7188,382.2969 Q131.2344,383.0469 131.2344,384.0781 L131.2344,385.1719 Q131.2344,386.4063 132.125,387.2344 Q133.0156,388.0469 134.6094,388.0469 Q135.5469,388.0469 136.2031,387.7969 Q136.5938,387.6406 137.0156,387.2031 Q137.2813,386.9375 137.4219,386.8594 Q137.5781,386.7813 137.7813,386.7813 Q138.1094,386.7813 138.3594,387.0469 Q138.625,387.2969 138.625,387.6406 Q138.625,387.9844 138.2813,388.3906 Q137.7813,388.9688 136.9844,389.2969 Q135.9063,389.75 134.6094,389.75 Q133.0938,389.75 131.8906,389.125 Q130.9063,388.625 130.2188,387.5625 Q129.5313,386.4844 129.5313,385.2031 L129.5313,384.0469 Q129.5313,382.7188 130.1406,381.5781 Q130.7656,380.4219 131.8594,379.8125 Q132.9531,379.1875 134.1875,379.1875 Q134.9219,379.1875 135.5625,379.3594 Q136.2188,379.5156 136.7656,379.875 Z " fill="#000000"/><text fill="#000000" font-family="sans-serif" font-size="14" lengthAdjust="spacing" textLength="93" x="148" y="389.7285">RelacionSocial</text><line style="stroke:#181818;stroke-width:0.5;" x1="120" x2="243" y1="400" y2="400"/><line style="stroke:#181818;stroke-width:0.5;" x1="120" x2="243" y1="408" y2="408"/></g><!--class Emocion--><g id="elem_Emocion"><rect codeLine="30" fill="#F1F1F1" height="48" id="Emocion" rx="2.5" ry="2.5" style="stroke:#181818;stroke-width:0.5;" width="86" x="279.5" y="368"/><ellipse cx="294.5" cy="384" fill="#ADD1B2" rx="11" ry="11" style="stroke:#181818;stroke-width:1.0;"/><path d="M297.2656,379.875 Q297.4219,379.6563 297.6094,379.5469 Q297.7969,379.4375 298.0156,379.4375 Q298.3906,379.4375 298.625,379.7031 Q298.8594,379.9531 298.8594,380.5625 L298.8594,382.0156 Q298.8594,382.625 298.625,382.8906 Q298.3906,383.1563 298.0156,383.1563 Q297.6719,383.1563 297.4688,382.9531 Q297.2656,382.7656 297.1563,382.25 Q297.1094,381.8906 296.9219,381.7031 Q296.5938,381.3281 295.9844,381.1094 Q295.375,380.8906 294.75,380.8906 Q293.9844,380.8906 293.3438,381.2188 Q292.7188,381.5469 292.2188,382.2969 Q291.7344,383.0469 291.7344,384.0781 L291.7344,385.1719 Q291.7344,386.4063 292.625,387.2344 Q293.5156,388.0469 295.1094,388.0469 Q296.0469,388.0469 296.7031,387.7969 Q297.0938,387.6406 297.5156,387.2031 Q297.7813,386.9375 297.9219,386.8594 Q298.0781,386.7813 298.2813,386.7813 Q298.6094,386.7813 298.8594,387.0469 Q299.125,387.2969 299.125,387.6406 Q299.125,387.9844 298.7813,388.3906 Q298.2813,388.9688 297.4844,389.2969 Q296.4063,389.75 295.1094,389.75 Q293.5938,389.75 292.3906,389.125 Q291.4063,388.625 290.7188,387.5625 Q290.0313,386.4844 290.0313,385.2031 L290.0313,384.0469 Q290.0313,382.7188 290.6406,381.5781 Q291.2656,380.4219 292.3594,379.8125 Q293.4531,379.1875 294.6875,379.1875 Q295.4219,379.1875 296.0625,379.3594 Q296.7188,379.5156 297.2656,379.875 Z " fill="#000000"/><text fill="#000000" font-family="sans-serif" font-size="14" lengthAdjust="spacing" textLength="54" x="308.5" y="389.7285">Emocion</text><line style="stroke:#181818;stroke-width:0.5;" x1="280.5" x2="364.5" y1="400" y2="400"/><line style="stroke:#181818;stroke-width:0.5;" x1="280.5" x2="364.5" y1="408" y2="408"/></g><!--class Creencia--><g id="elem_Creencia"><rect codeLine="34" fill="#F1F1F1" height="48" id="Creencia" rx="2.5" ry="2.5" style="stroke:#181818;stroke-width:0.5;" width="89" x="401" y="368"/><ellipse cx="416" cy="384" fill="#ADD1B2" rx="11" ry="11" style="stroke:#181818;stroke-width:1.0;"/><path d="M418.7656,379.875 Q418.9219,379.6563 419.1094,379.5469 Q419.2969,379.4375 419.5156,379.4375 Q419.8906,379.4375 420.125,379.7031 Q420.3594,379.9531 420.3594,380.5625 L420.3594,382.0156 Q420.3594,382.625 420.125,382.8906 Q419.8906,383.1563 419.5156,383.1563 Q419.1719,383.1563 418.9688,382.9531 Q418.7656,382.7656 418.6563,382.25 Q418.6094,381.8906 418.4219,381.7031 Q418.0938,381.3281 417.4844,381.1094 Q416.875,380.8906 416.25,380.8906 Q415.4844,380.8906 414.8438,381.2188 Q414.2188,381.5469 413.7188,382.2969 Q413.2344,383.0469 413.2344,384.0781 L413.2344,385.1719 Q413.2344,386.4063 414.125,387.2344 Q415.0156,388.0469 416.6094,388.0469 Q417.5469,388.0469 418.2031,387.7969 Q418.5938,387.6406 419.0156,387.2031 Q419.2813,386.9375 419.4219,386.8594 Q419.5781,386.7813 419.7813,386.7813 Q420.1094,386.7813 420.3594,387.0469 Q420.625,387.2969 420.625,387.6406 Q420.625,387.9844 420.2813,388.3906 Q419.7813,388.9688 418.9844,389.2969 Q417.9063,389.75 416.6094,389.75 Q415.0938,389.75 413.8906,389.125 Q412.9063,388.625 412.2188,387.5625 Q411.5313,386.4844 411.5313,385.2031 L411.5313,384.0469 Q411.5313,382.7188 412.1406,381.5781 Q412.7656,380.4219 413.8594,379.8125 Q414.9531,379.1875 416.1875,379.1875 Q416.9219,379.1875 417.5625,379.3594 Q418.2188,379.5156 418.7656,379.875 Z " fill="#000000"/><text fill="#000000" font-family="sans-serif" font-size="14" lengthAdjust="spacing" textLength="57" x="430" y="389.7285">Creencia</text><line style="stroke:#181818;stroke-width:0.5;" x1="402" x2="489" y1="400" y2="400"/><line style="stroke:#181818;stroke-width:0.5;" x1="402" x2="489" y1="408" y2="408"/></g><!--class Tiempo--><g id="elem_Tiempo"><rect codeLine="38" fill="#F1F1F1" height="48" id="Tiempo" rx="2.5" ry="2.5" style="stroke:#181818;stroke-width:0.5;" width="79" x="830" y="368"/><ellipse cx="845" cy="384" fill="#ADD1B2" rx="11" ry="11" style="stroke:#181818;stroke-width:1.0;"/><path d="M847.7656,379.875 Q847.9219,379.6563 848.1094,379.5469 Q848.2969,379.4375 848.5156,379.4375 Q848.8906,379.4375 849.125,379.7031 Q849.3594,379.9531 849.3594,380.5625 L849.3594,382.0156 Q849.3594,382.625 849.125,382.8906 Q848.8906,383.1563 848.5156,383.1563 Q848.1719,383.1563 847.9688,382.9531 Q847.7656,382.7656 847.6563,382.25 Q847.6094,381.8906 847.4219,381.7031 Q847.0938,381.3281 846.4844,381.1094 Q845.875,380.8906 845.25,380.8906 Q844.4844,380.8906 843.8438,381.2188 Q843.2188,381.5469 842.7188,382.2969 Q842.2344,383.0469 842.2344,384.0781 L842.2344,385.1719 Q842.2344,386.4063 843.125,387.2344 Q844.0156,388.0469 845.6094,388.0469 Q846.5469,388.0469 847.2031,387.7969 Q847.5938,387.6406 848.0156,387.2031 Q848.2813,386.9375 848.4219,386.8594 Q848.5781,386.7813 848.7813,386.7813 Q849.1094,386.7813 849.3594,387.0469 Q849.625,387.2969 849.625,387.6406 Q849.625,387.9844 849.2813,388.3906 Q848.7813,388.9688 847.9844,389.2969 Q846.9063,389.75 845.6094,389.75 Q844.0938,389.75 842.8906,389.125 Q841.9063,388.625 841.2188,387.5625 Q840.5313,386.4844 840.5313,385.2031 L840.5313,384.0469 Q840.5313,382.7188 841.1406,381.5781 Q841.7656,380.4219 842.8594,379.8125 Q843.9531,379.1875 845.1875,379.1875 Q845.9219,379.1875 846.5625,379.3594 Q847.2188,379.5156 847.7656,379.875 Z " fill="#000000"/><text fill="#000000" font-family="sans-serif" font-size="14" lengthAdjust="spacing" textLength="47" x="859" y="389.7285">Tiempo</text><line style="stroke:#181818;stroke-width:0.5;" x1="831" x2="908" y1="400" y2="400"/><line style="stroke:#181818;stroke-width:0.5;" x1="831" x2="908" y1="408" y2="408"/></g><!--class RasgoPersonalidad--><g id="elem_RasgoPersonalidad"><rect codeLine="42" fill="#F1F1F1" height="48" id="RasgoPersonalidad" rx="2.5" ry="2.5" style="stroke:#181818;stroke-width:0.5;" width="156" x="525.5" y="368"/><ellipse cx="540.5" cy="384" fill="#ADD1B2" rx="11" ry="11" style="stroke:#181818;stroke-width:1.0;"/><path d="M543.2656,379.875 Q543.4219,379.6563 543.6094,379.5469 Q543.7969,379.4375 544.0156,379.4375 Q544.3906,379.4375 544.625,379.7031 Q544.8594,379.9531 544.8594,380.5625 L544.8594,382.0156 Q544.8594,382.625 544.625,382.8906 Q544.3906,383.1563 544.0156,383.1563 Q543.6719,383.1563 543.4688,382.9531 Q543.2656,382.7656 543.1563,382.25 Q543.1094,381.8906 542.9219,381.7031 Q542.5938,381.3281 541.9844,381.1094 Q541.375,380.8906 540.75,380.8906 Q539.9844,380.8906 539.3438,381.2188 Q538.7188,381.5469 538.2188,382.2969 Q537.7344,383.0469 537.7344,384.0781 L537.7344,385.1719 Q537.7344,386.4063 538.625,387.2344 Q539.5156,388.0469 541.1094,388.0469 Q542.0469,388.0469 542.7031,387.7969 Q543.0938,387.6406 543.5156,387.2031 Q543.7813,386.9375 543.9219,386.8594 Q544.0781,386.7813 544.2813,386.7813 Q544.6094,386.7813 544.8594,387.0469 Q545.125,387.2969 545.125,387.6406 Q545.125,387.9844 544.7813,388.3906 Q544.2813,388.9688 543.4844,389.2969 Q542.4063,389.75 541.1094,389.75 Q539.5938,389.75 538.3906,389.125 Q537.4063,388.625 536.7188,387.5625 Q536.0313,386.4844 536.0313,385.2031 L536.0313,384.0469 Q536.0313,382.7188 536.6406,381.5781 Q537.2656,380.4219 538.3594,379.8125 Q539.4531,379.1875 540.6875,379.1875 Q541.4219,379.1875 542.0625,379.3594 Q542.7188,379.5156 543.2656,379.875 Z " fill="#000000"/><text fill="#000000" font-family="sans-serif" font-size="14" lengthAdjust="spacing" textLength="124" x="554.5" y="389.7285">RasgoPersonalidad</text><line style="stroke:#181818;stroke-width:0.5;" x1="526.5" x2="680.5" y1="400" y2="400"/><line style="stroke:#181818;stroke-width:0.5;" x1="526.5" x2="680.5" y1="408" y2="408"/></g><!--class Rol--><g id="elem_Rol"><rect codeLine="46" fill="#F1F1F1" height="48" id="Rol" rx="2.5" ry="2.5" style="stroke:#181818;stroke-width:0.5;" width="53" x="863" y="116"/><ellipse cx="878" cy="132" fill="#ADD1B2" rx="11" ry="11" style="stroke:#181818;stroke-width:1.0;"/><path d="M880.7656,127.875 Q880.9219,127.6563 881.1094,127.5469 Q881.2969,127.4375 881.5156,127.4375 Q881.8906,127.4375 882.125,127.7031 Q882.3594,127.9531 882.3594,128.5625 L882.3594,130.0156 Q882.3594,130.625 882.125,130.8906 Q881.8906,131.1563 881.5156,131.1563 Q881.1719,131.1563 880.9688,130.9531 Q880.7656,130.7656 880.6563,130.25 Q880.6094,129.8906 880.4219,129.7031 Q880.0938,129.3281 879.4844,129.1094 Q878.875,128.8906 878.25,128.8906 Q877.4844,128.8906 876.8438,129.2188 Q876.2188,129.5469 875.7188,130.2969 Q875.2344,131.0469 875.2344,132.0781 L875.2344,133.1719 Q875.2344,134.4063 876.125,135.2344 Q877.0156,136.0469 878.6094,136.0469 Q879.5469,136.0469 880.2031,135.7969 Q880.5938,135.6406 881.0156,135.2031 Q881.2813,134.9375 881.4219,134.8594 Q881.5781,134.7813 881.7813,134.7813 Q882.1094,134.7813 882.3594,135.0469 Q882.625,135.2969 882.625,135.6406 Q882.625,135.9844 882.2813,136.3906 Q881.7813,136.9688 880.9844,137.2969 Q879.9063,137.75 878.6094,137.75 Q877.0938,137.75 875.8906,137.125 Q874.9063,136.625 874.2188,135.5625 Q873.5313,134.4844 873.5313,133.2031 L873.5313,132.0469 Q873.5313,130.7188 874.1406,129.5781 Q874.7656,128.4219 875.8594,127.8125 Q876.9531,127.1875 878.1875,127.1875 Q878.9219,127.1875 879.5625,127.3594 Q880.2188,127.5156 880.7656,127.875 Z " fill="#000000"/><text fill="#000000" font-family="sans-serif" font-size="14" lengthAdjust="spacing" textLength="21" x="892" y="137.7285">Rol</text><line style="stroke:#181818;stroke-width:0.5;" x1="864" x2="915" y1="148" y2="148"/><line style="stroke:#181818;stroke-width:0.5;" x1="864" x2="915" y1="156" y2="156"/></g><!--class Contexto--><g id="elem_Contexto"><rect codeLine="50" fill="#F1F1F1" height="48" id="Contexto" rx="2.5" ry="2.5" style="stroke:#181818;stroke-width:0.5;" width="88" x="620.5" y="242"/><ellipse cx="635.5" cy="258" fill="#ADD1B2" rx="11" ry="11" style="stroke:#181818;stroke-width:1.0;"/><path d="M638.2656,253.875 Q638.4219,253.6563 638.6094,253.5469 Q638.7969,253.4375 639.0156,253.4375 Q639.3906,253.4375 639.625,253.7031 Q639.8594,253.9531 639.8594,254.5625 L639.8594,256.0156 Q639.8594,256.625 639.625,256.8906 Q639.3906,257.1563 639.0156,257.1563 Q638.6719,257.1563 638.4688,256.9531 Q638.2656,256.7656 638.1563,256.25 Q638.1094,255.8906 637.9219,255.7031 Q637.5938,255.3281 636.9844,255.1094 Q636.375,254.8906 635.75,254.8906 Q634.9844,254.8906 634.3438,255.2188 Q633.7188,255.5469 633.2188,256.2969 Q632.7344,257.0469 632.7344,258.0781 L632.7344,259.1719 Q632.7344,260.4063 633.625,261.2344 Q634.5156,262.0469 636.1094,262.0469 Q637.0469,262.0469 637.7031,261.7969 Q638.0938,261.6406 638.5156,261.2031 Q638.7813,260.9375 638.9219,260.8594 Q639.0781,260.7813 639.2813,260.7813 Q639.6094,260.7813 639.8594,261.0469 Q640.125,261.2969 640.125,261.6406 Q640.125,261.9844 639.7813,262.3906 Q639.2813,262.9688 638.4844,263.2969 Q637.4063,263.75 636.1094,263.75 Q634.5938,263.75 633.3906,263.125 Q632.4063,262.625 631.7188,261.5625 Q631.0313,260.4844 631.0313,259.2031 L631.0313,258.0469 Q631.0313,256.7188 631.6406,255.5781 Q632.2656,254.4219 633.3594,253.8125 Q634.4531,253.1875 635.6875,253.1875 Q636.4219,253.1875 637.0625,253.3594 Q637.7188,253.5156 638.2656,253.875 Z " fill="#000000"/><text fill="#000000" font-family="sans-serif" font-size="14" lengthAdjust="spacing" textLength="56" x="649.5" y="263.7285">Contexto</text><line style="stroke:#181818;stroke-width:0.5;" x1="621.5" x2="707.5" y1="274" y2="274"/><line style="stroke:#181818;stroke-width:0.5;" x1="621.5" x2="707.5" y1="282" y2="282"/></g><!--reverse link Persona to Identidad--><g id="link_Persona_Identidad"><path codeLine="54" d="M706.0497,42.235 C662.1897,52.225 606.68,71.38 567.5,116 C535.88,152.01 527.44,209.98 525.24,241.96 " fill="none" id="Persona-backto-Identidad" style="stroke:#181818;stroke-width:1.0;"/><polygon fill="#181818" points="717.75,39.57,711.0115,37.0024,706.0497,42.235,712.7882,44.8026,717.75,39.57" style="stroke:#181818;stroke-width:1.0;"/></g><!--reverse link Persona to Edad--><g id="link_Persona_Edad"><path codeLine="55" d="M771.8275,66.6231 C777.7075,84.5631 782.05,97.89 787.92,115.83 " fill="none" id="Persona-backto-Edad" style="stroke:#181818;stroke-width:1.0;"/><polygon fill="#181818" points="768.09,55.22,766.1577,62.1674,771.8275,66.6231,773.7598,59.6757,768.09,55.22" style="stroke:#181818;stroke-width:1.0;"/></g><!--reverse link Persona to ExperienciaVivida--><g id="link_Persona_ExperienciaVivida"><path codeLine="56" d="M729.5655,63.8243 C712.1255,81.7643 696.46,97.89 679.02,115.83 " fill="none" id="Persona-backto-ExperienciaVivida" style="stroke:#181818;stroke-width:1.0;"/><polygon fill="#181818" points="737.93,55.22,730.8796,56.734,729.5655,63.8243,736.6158,62.3103,737.93,55.22" style="stroke:#181818;stroke-width:1.0;"/></g><!--link ExperienciaVivida to Identidad--><g id="link_ExperienciaVivida_Identidad"><path codeLine="57" d="M627.75,164.15 C616.82,173.23 604.38,183.87 593.5,194 C577.02,209.34 559.34,227.57 546,241.72 " fill="none" id="ExperienciaVivida-Identidad" style="stroke:#181818;stroke-width:1.0;"/><text fill="#000000" font-family="sans-serif" font-size="13" lengthAdjust="spacing" textLength="57" x="594.5" y="208.4951">construye</text></g><!--reverse link Identidad to Cultura--><g id="link_Identidad_Cultura"><path codeLine="58" d="M577.9819,295.7075 C620.6419,318.6175 674.96,347.77 716.29,369.95 " fill="none" id="Identidad-backto-Cultura" style="stroke:#181818;stroke-width:1.0;"/><polygon fill="none" points="567.41,290.03,570.8035,296.3927,577.9819,295.7075,574.5885,289.3448,567.41,290.03" style="stroke:#181818;stroke-width:1.0;"/></g><!--link Identidad to Familia--><g id="link_Identidad_Familia"><path codeLine="59" d="M479.41,275.37 C401.39,290.38 236.59,324.42 101.5,368 C95.8,369.84 89.86,372 84.07,374.25 " fill="none" id="Identidad-Familia" style="stroke:#181818;stroke-width:1.0;"/></g><!--link Identidad to RelacionSocial--><g id="link_Identidad_RelacionSocial"><path codeLine="60" d="M479.3,281.89 C448.07,292.29 405.64,306.64 368.5,320 C325.53,335.45 277.36,353.76 240.68,367.92 " fill="none" id="Identidad-RelacionSocial" style="stroke:#181818;stroke-width:1.0;"/></g><!--reverse link Identidad to Creencia--><g id="link_Identidad_Creencia"><path codeLine="61" d="M503.3839,300.1517 C489.2839,322.2917 474.53,345.44 460.36,367.67 " fill="none" id="Identidad-backto-Creencia" style="stroke:#181818;stroke-width:1.0;"/><polygon fill="none" points="509.83,290.03,503.2331,292.9422,503.3839,300.1517,509.9809,297.2395,509.83,290.03" style="stroke:#181818;stroke-width:1.0;"/></g><!--link Identidad to Emocion--><g id="link_Identidad_Emocion"><path codeLine="62" d="M479.25,281.88 C454.64,291.02 424.26,304.03 399.5,320 C378.57,333.5 362.1621,348.578 347.5521,363.678 " fill="none" id="Identidad-to-Emocion" style="stroke:#181818;stroke-width:1.0;stroke-dasharray:7.0,7.0;"/><polygon fill="#181818" points="343.38,367.99,352.5128,364.3034,346.8568,364.3966,346.7635,358.7406,343.38,367.99" style="stroke:#181818;stroke-width:1.0;"/><text fill="#000000" font-family="sans-serif" font-size="13" lengthAdjust="spacing" textLength="71" x="400.5" y="334.4951">experimenta</text></g><!--reverse link ExperienciaVivida to Tiempo--><g id="link_ExperienciaVivida_Tiempo"><path codeLine="63" d="M683.9412,173.2053 C724.5112,220.8353 809.35,320.41 849.89,367.98 " fill="none" id="ExperienciaVivida-backto-Tiempo" style="stroke:#181818;stroke-width:1.0;"/><polygon fill="#181818" points="676.16,164.07,677.0055,171.2314,683.9412,173.2053,683.0957,166.0439,676.16,164.07" style="stroke:#181818;stroke-width:1.0;"/></g><!--link Identidad to Tiempo--><g id="link_Identidad_Tiempo"><path codeLine="64" d="M569.93,282.37 C626.68,301.72 726.65,336.26 811.5,368 C817.49,370.24 823.79,372.67 829.96,375.08 " fill="none" id="Identidad-Tiempo" style="stroke:#181818;stroke-width:1.0;"/><text fill="#000000" font-family="sans-serif" font-size="13" lengthAdjust="spacing" textLength="60" x="726.5" y="334.4951">evoluciona</text></g><!--reverse link Identidad to RasgoPersonalidad--><g id="link_Identidad_RasgoPersonalidad"><path codeLine="65" d="M545.6161,300.1517 C559.7161,322.2917 574.47,345.44 588.64,367.67 " fill="none" id="Identidad-backto-RasgoPersonalidad" style="stroke:#181818;stroke-width:1.0;"/><polygon fill="none" points="539.17,290.03,539.0191,297.2395,545.6161,300.1517,545.7669,292.9422,539.17,290.03" style="stroke:#181818;stroke-width:1.0;"/></g><!--reverse link Persona to Rol--><g id="link_Persona_Rol"><path codeLine="66" d="M797.7271,62.88 C819.8071,81.19 841.17,98.91 862.89,116.92 " fill="none" id="Persona-backto-Rol" style="stroke:#181818;stroke-width:1.0;"/><polygon fill="none" points="788.49,55.22,790.5552,62.129,797.7271,62.88,795.6619,55.9709,788.49,55.22" style="stroke:#181818;stroke-width:1.0;"/></g><!--reverse link ExperienciaVivida to Contexto--><g id="link_ExperienciaVivida_Contexto"><path codeLine="67" d="M658.7581,176.0054 C660.1781,198.1454 661.56,219.44 662.99,241.67 " fill="none" id="ExperienciaVivida-backto-Contexto" style="stroke:#181818;stroke-width:1.0;"/><polygon fill="none" points="657.99,164.03,654.3822,170.2737,658.7581,176.0054,662.3658,169.7617,657.99,164.03" style="stroke:#181818;stroke-width:1.0;"/></g><!--SRC=[RP7B2i8m44Nt-OgiXVe1Bjn81NUYuZwaWmIIZEHH5F7VJMDQEutRC-czCwTI2-_v4Pn7A_YBiJTZChD31pQeJdI4jXLutC4fi5A9g-hJUpBTHHsYesmlZDAAiXDe8HNQCwOSJGiC3XCQwo0t4dXHOEv8OuM_OJbELxUSa3Rjq0PuX35YbB9gcfyCGjiAB6MmMiyyZM-uHEk3YqzWFuhfJJ4temaMTHHITykOOcg6r-lj97N38Izeql3ViiDHNw-qixXEd_Ueun0b5iML-abKdgB-qvONBZ-1VG00]--></g></svg>