<svg xmlns="http://www.w3.org/2000/svg" xmlns:xlink="http://www.w3.org/1999/xlink" contentStyleType="text/css" data-diagram-type="CLASS" height="394px" preserveAspectRatio="none" style="width:499px;height:394px;background:#FFFFFF;" version="1.1" viewBox="0 0 499 394" width="499px" zoomAndPan="magnify"><?plantuml 1.2026.3beta4?><defs/><g><!--class EstadoPedido--><g class="entity" data-qualified-name="EstadoPedido" data-source-line="1" id="ent0002"><rect fill="#F1F1F1" height="48" rx="2.5" ry="2.5" style="stroke:#181818;stroke-width:0.5;" width="126.9443" x="7" y="115"/><ellipse cx="22" cy="131" fill="#EB937F" rx="11" ry="11" style="stroke:#181818;stroke-width:1;"/><path d="M26.1094,137 L18.3906,137 L18.3906,124.6094 L26.1094,124.6094 L26.1094,126.7656 L20.8438,126.7656 L20.8438,129.4375 L25.6094,129.4375 L25.6094,131.5938 L20.8438,131.5938 L20.8438,134.8438 L26.1094,134.8438 L26.1094,137 Z " fill="#000000"/><text fill="#000000" font-family="sans-serif" font-size="14" lengthAdjust="spacing" textLength="94.9443" x="36" y="135.8467">EstadoPedido</text><line style="stroke:#181818;stroke-width:0.5;" x1="8" x2="132.9443" y1="147" y2="147"/><line style="stroke:#181818;stroke-width:0.5;" x1="8" x2="132.9443" y1="155" y2="155"/></g><!--class TipoCliente--><g class="entity" data-qualified-name="TipoCliente" data-source-line="3" id="ent0003"><rect fill="#F1F1F1" height="48" rx="2.5" ry="2.5" style="stroke:#181818;stroke-width:0.5;" width="111.0371" x="151.95" y="223"/><ellipse cx="166.95" cy="239" fill="#EB937F" rx="11" ry="11" style="stroke:#181818;stroke-width:1;"/><path d="M171.0594,245 L163.3406,245 L163.3406,232.6094 L171.0594,232.6094 L171.0594,234.7656 L165.7938,234.7656 L165.7938,237.4375 L170.5594,237.4375 L170.5594,239.5938 L165.7938,239.5938 L165.7938,242.8438 L171.0594,242.8438 L171.0594,245 Z " fill="#000000"/><text fill="#000000" font-family="sans-serif" font-size="14" lengthAdjust="spacing" textLength="79.0371" x="180.95" y="243.8467">TipoCliente</text><line style="stroke:#181818;stroke-width:0.5;" x1="152.95" x2="261.9871" y1="255" y2="255"/><line style="stroke:#181818;stroke-width:0.5;" x1="152.95" x2="261.9871" y1="263" y2="263"/></g><!--class CategoriaIVA--><g class="entity" data-qualified-name="CategoriaIVA" data-source-line="5" id="ent0004"><rect fill="#F1F1F1" height="48" rx="2.5" ry="2.5" style="stroke:#181818;stroke-width:0.5;" width="123.417" x="247.76" y="331"/><ellipse cx="262.76" cy="347" fill="#EB937F" rx="11" ry="11" style="stroke:#181818;stroke-width:1;"/><path d="M266.8694,353 L259.1506,353 L259.1506,340.6094 L266.8694,340.6094 L266.8694,342.7656 L261.6038,342.7656 L261.6038,345.4375 L266.3694,345.4375 L266.3694,347.5938 L261.6038,347.5938 L261.6038,350.8438 L266.8694,350.8438 L266.8694,353 Z " fill="#000000"/><text fill="#000000" font-family="sans-serif" font-size="14" lengthAdjust="spacing" textLength="91.417" x="276.76" y="351.8467">CategoriaIVA</text><line style="stroke:#181818;stroke-width:0.5;" x1="248.76" x2="370.177" y1="363" y2="363"/><line style="stroke:#181818;stroke-width:0.5;" x1="248.76" x2="370.177" y1="371" y2="371"/></g><!--class Pedido--><g class="entity" data-qualified-name="Pedido" data-source-line="7" id="ent0005"><rect fill="#F1F1F1" height="48" rx="2.5" ry="2.5" style="stroke:#181818;stroke-width:0.5;" width="79.2842" x="169.83" y="7"/><ellipse cx="184.83" cy="23" fill="#ADD1B2" rx="11" ry="11" style="stroke:#181818;stroke-width:1;"/><path d="M187.7988,28.6406 Q187.2206,28.9375 186.58,29.0781 Q185.9394,29.2344 185.2363,29.2344 Q182.7363,29.2344 181.4081,27.5938 Q180.0956,25.9375 180.0956,22.8125 Q180.0956,19.6875 181.4081,18.0313 Q182.7363,16.375 185.2363,16.375 Q185.9394,16.375 186.58,16.5313 Q187.2363,16.6875 187.7988,16.9844 L187.7988,19.7031 Q187.1738,19.125 186.58,18.8594 Q185.9863,18.5781 185.3613,18.5781 Q184.0175,18.5781 183.33,19.6563 Q182.6425,20.7188 182.6425,22.8125 Q182.6425,24.9063 183.33,25.9844 Q184.0175,27.0469 185.3613,27.0469 Q185.9863,27.0469 186.58,26.7813 Q187.1738,26.5 187.7988,25.9219 L187.7988,28.6406 Z " fill="#000000"/><text fill="#000000" font-family="sans-serif" font-size="14" lengthAdjust="spacing" textLength="47.2842" x="198.83" y="27.8467">Pedido</text><line style="stroke:#181818;stroke-width:0.5;" x1="170.83" x2="248.1142" y1="39" y2="39"/><line style="stroke:#181818;stroke-width:0.5;" x1="170.83" x2="248.1142" y1="47" y2="47"/></g><!--class Cliente--><g class="entity" data-qualified-name="Cliente" data-source-line="7" id="ent0006"><rect fill="#F1F1F1" height="48" rx="2.5" ry="2.5" style="stroke:#181818;stroke-width:0.5;" width="81.1436" x="168.9" y="115"/><ellipse cx="183.9" cy="131" fill="#ADD1B2" rx="11" ry="11" style="stroke:#181818;stroke-width:1;"/><path d="M186.8688,136.6406 Q186.2906,136.9375 185.65,137.0781 Q185.0094,137.2344 184.3063,137.2344 Q181.8063,137.2344 180.4781,135.5938 Q179.1656,133.9375 179.1656,130.8125 Q179.1656,127.6875 180.4781,126.0313 Q181.8063,124.375 184.3063,124.375 Q185.0094,124.375 185.65,124.5313 Q186.3063,124.6875 186.8688,124.9844 L186.8688,127.7031 Q186.2438,127.125 185.65,126.8594 Q185.0563,126.5781 184.4313,126.5781 Q183.0875,126.5781 182.4,127.6563 Q181.7125,128.7188 181.7125,130.8125 Q181.7125,132.9063 182.4,133.9844 Q183.0875,135.0469 184.4313,135.0469 Q185.0563,135.0469 185.65,134.7813 Q186.2438,134.5 186.8688,133.9219 L186.8688,136.6406 Z " fill="#000000"/><text fill="#000000" font-family="sans-serif" font-size="14" lengthAdjust="spacing" textLength="49.1436" x="197.9" y="135.8467">Cliente</text><line style="stroke:#181818;stroke-width:0.5;" x1="169.9" x2="249.0436" y1="147" y2="147"/><line style="stroke:#181818;stroke-width:0.5;" x1="169.9" x2="249.0436" y1="155" y2="155"/></g><!--class LineaPedido--><g class="entity" data-qualified-name="LineaPedido" data-source-line="8" id="ent0008"><rect fill="#F1F1F1" height="48" rx="2.5" ry="2.5" style="stroke:#181818;stroke-width:0.5;" width="117.0391" x="286.95" y="115"/><ellipse cx="301.95" cy="131" fill="#ADD1B2" rx="11" ry="11" style="stroke:#181818;stroke-width:1;"/><path d="M304.9188,136.6406 Q304.3406,136.9375 303.7,137.0781 Q303.0594,137.2344 302.3563,137.2344 Q299.8563,137.2344 298.5281,135.5938 Q297.2156,133.9375 297.2156,130.8125 Q297.2156,127.6875 298.5281,126.0313 Q299.8563,124.375 302.3563,124.375 Q303.0594,124.375 303.7,124.5313 Q304.3563,124.6875 304.9188,124.9844 L304.9188,127.7031 Q304.2938,127.125 303.7,126.8594 Q303.1063,126.5781 302.4813,126.5781 Q301.1375,126.5781 300.45,127.6563 Q299.7625,128.7188 299.7625,130.8125 Q299.7625,132.9063 300.45,133.9844 Q301.1375,135.0469 302.4813,135.0469 Q303.1063,135.0469 303.7,134.7813 Q304.2938,134.5 304.9188,133.9219 L304.9188,136.6406 Z " fill="#000000"/><text fill="#000000" font-family="sans-serif" font-size="14" lengthAdjust="spacing" textLength="85.0391" x="315.95" y="135.8467">LineaPedido</text><line style="stroke:#181818;stroke-width:0.5;" x1="287.95" x2="402.9891" y1="147" y2="147"/><line style="stroke:#181818;stroke-width:0.5;" x1="287.95" x2="402.9891" y1="155" y2="155"/></g><!--class Producto--><g class="entity" data-qualified-name="Producto" data-source-line="9" id="ent0010"><rect fill="#F1F1F1" height="48" rx="2.5" ry="2.5" style="stroke:#181818;stroke-width:0.5;" width="94.2754" x="298.33" y="223"/><ellipse cx="313.33" cy="239" fill="#ADD1B2" rx="11" ry="11" style="stroke:#181818;stroke-width:1;"/><path d="M316.2988,244.6406 Q315.7206,244.9375 315.08,245.0781 Q314.4394,245.2344 313.7363,245.2344 Q311.2363,245.2344 309.9081,243.5938 Q308.5956,241.9375 308.5956,238.8125 Q308.5956,235.6875 309.9081,234.0313 Q311.2363,232.375 313.7363,232.375 Q314.4394,232.375 315.08,232.5313 Q315.7363,232.6875 316.2988,232.9844 L316.2988,235.7031 Q315.6738,235.125 315.08,234.8594 Q314.4863,234.5781 313.8613,234.5781 Q312.5175,234.5781 311.83,235.6563 Q311.1425,236.7188 311.1425,238.8125 Q311.1425,240.9063 311.83,241.9844 Q312.5175,243.0469 313.8613,243.0469 Q314.4863,243.0469 315.08,242.7813 Q315.6738,242.5 316.2988,241.9219 L316.2988,244.6406 Z " fill="#000000"/><text fill="#000000" font-family="sans-serif" font-size="14" lengthAdjust="spacing" textLength="62.2754" x="327.33" y="243.8467">Producto</text><line style="stroke:#181818;stroke-width:0.5;" x1="299.33" x2="391.6054" y1="255" y2="255"/><line style="stroke:#181818;stroke-width:0.5;" x1="299.33" x2="391.6054" y1="263" y2="263"/></g><!--class Dinero--><g class="entity" data-qualified-name="Dinero" data-source-line="14" id="ent0015"><rect fill="#F1F1F1" height="48" rx="2.5" ry="2.5" style="stroke:#181818;stroke-width:0.5;" width="78.4775" x="406.23" y="331"/><ellipse cx="421.23" cy="347" fill="#ADD1B2" rx="11" ry="11" style="stroke:#181818;stroke-width:1;"/><path d="M424.1988,352.6406 Q423.6206,352.9375 422.98,353.0781 Q422.3394,353.2344 421.6363,353.2344 Q419.1363,353.2344 417.8081,351.5938 Q416.4956,349.9375 416.4956,346.8125 Q416.4956,343.6875 417.8081,342.0313 Q419.1363,340.375 421.6363,340.375 Q422.3394,340.375 422.98,340.5313 Q423.6363,340.6875 424.1988,340.9844 L424.1988,343.7031 Q423.5738,343.125 422.98,342.8594 Q422.3863,342.5781 421.7613,342.5781 Q420.4175,342.5781 419.73,343.6563 Q419.0425,344.7188 419.0425,346.8125 Q419.0425,348.9063 419.73,349.9844 Q420.4175,351.0469 421.7613,351.0469 Q422.3863,351.0469 422.98,350.7813 Q423.5738,350.5 424.1988,349.9219 L424.1988,352.6406 Z " fill="#000000"/><text fill="#000000" font-family="sans-serif" font-size="14" lengthAdjust="spacing" textLength="46.4775" x="435.23" y="351.8467">Dinero</text><line style="stroke:#181818;stroke-width:0.5;" x1="407.23" x2="483.7075" y1="363" y2="363"/><line style="stroke:#181818;stroke-width:0.5;" x1="407.23" x2="483.7075" y1="371" y2="371"/></g><!--link Pedido to Cliente--><g class="link" data-entity-1="ent0005" data-entity-2="ent0006" data-link-type="dependency" data-source-line="7" id="lnk7"><path codeLine="7" d="M209.47,55.26 C209.47,72.94 209.47,91.13 209.47,108.79" fill="none" id="Pedido-to-Cliente" style="stroke:#181818;stroke-width:1;"/><polygon fill="#181818" points="209.47,114.79,213.47,105.79,209.47,109.79,205.47,105.79,209.47,114.79" style="stroke:#181818;stroke-width:1;"/><text fill="#000000" font-family="sans-serif" font-size="13" lengthAdjust="spacing" textLength="8.271" x="200.5275" y="75.0846">1</text><text fill="#000000" font-family="sans-serif" font-size="13" lengthAdjust="spacing" textLength="8.271" x="200.4793" y="103.7482">1</text></g><!--reverse link Pedido to LineaPedido--><g class="link" data-entity-1="ent0005" data-entity-2="ent0008" data-link-type="composition" data-source-line="8" id="lnk9"><path codeLine="8" d="M248.7826,62.6397 C271.4526,80.3197 293.04,97.13 315.7,114.79" fill="none" id="Pedido-backto-LineaPedido" style="stroke:#181818;stroke-width:1;"/><polygon fill="#181818" points="239.32,55.26,241.5914,62.104,248.7826,62.6397,246.5112,55.7957,239.32,55.26" style="stroke:#181818;stroke-width:1;"/><text fill="#000000" font-family="sans-serif" font-size="13" lengthAdjust="spacing" textLength="8.271" x="237.6535" y="75.0846">1</text><text fill="#000000" font-family="sans-serif" font-size="13" lengthAdjust="spacing" textLength="23.0356" x="282.1292" y="103.7482">1..*</text></g><!--link LineaPedido to Producto--><g class="link" data-entity-1="ent0008" data-entity-2="ent0010" data-link-type="dependency" data-source-line="9" id="lnk11"><path codeLine="9" d="M345.47,163.26 C345.47,180.94 345.47,199.13 345.47,216.79" fill="none" id="LineaPedido-to-Producto" style="stroke:#181818;stroke-width:1;"/><polygon fill="#181818" points="345.47,222.79,349.47,213.79,345.47,217.79,341.47,213.79,345.47,222.79" style="stroke:#181818;stroke-width:1;"/><text fill="#000000" font-family="sans-serif" font-size="13" lengthAdjust="spacing" textLength="8.271" x="336.5281" y="183.0846">1</text><text fill="#000000" font-family="sans-serif" font-size="13" lengthAdjust="spacing" textLength="8.271" x="336.4803" y="211.7482">1</text></g><!--link Pedido to EstadoPedido--><g class="link" data-entity-1="ent0005" data-entity-2="ent0002" data-link-type="dependency" data-source-line="10" id="lnk12"><path codeLine="10" d="M178.97,55.26 C155.79,72.94 128.8304,93.4909 105.6804,111.1509" fill="none" id="Pedido-to-EstadoPedido" style="stroke:#181818;stroke-width:1;"/><polygon fill="#181818" points="100.91,114.79,110.4917,112.5116,104.8853,111.7574,105.6395,106.1511,100.91,114.79" style="stroke:#181818;stroke-width:1;"/></g><!--link Cliente to TipoCliente--><g class="link" data-entity-1="ent0006" data-entity-2="ent0003" data-link-type="dependency" data-source-line="11" id="lnk13"><path codeLine="11" d="M209.03,163.26 C208.7,180.94 208.3521,199.131 208.0221,216.791" fill="none" id="Cliente-to-TipoCliente" style="stroke:#181818;stroke-width:1;"/><polygon fill="#181818" points="207.91,222.79,212.0774,213.8663,208.0034,217.7909,204.0788,213.7168,207.91,222.79" style="stroke:#181818;stroke-width:1;"/></g><!--link Producto to CategoriaIVA--><g class="link" data-entity-1="ent0010" data-entity-2="ent0004" data-link-type="dependency" data-source-line="12" id="lnk14"><path codeLine="12" d="M337.57,271.26 C331.57,288.94 325.2801,307.4489 319.2801,325.1089" fill="none" id="Producto-to-CategoriaIVA" style="stroke:#181818;stroke-width:1;"/><polygon fill="#181818" points="317.35,330.79,324.0326,323.5552,318.9585,326.0558,316.4578,320.9816,317.35,330.79" style="stroke:#181818;stroke-width:1;"/></g><!--link LineaPedido to Dinero--><g class="link" data-entity-1="ent0008" data-entity-2="ent0015" data-link-type="dependency" data-source-line="14" id="lnk16"><path codeLine="14" d="M367.92,163.28 C381.97,179.02 399.44,200.89 410.47,223 C428.13,258.39 436.6957,297.8313 441.1857,324.8313" fill="none" id="LineaPedido-to-Dinero" style="stroke:#181818;stroke-width:1;"/><polygon fill="#181818" points="442.17,330.75,444.6394,321.2157,441.3498,325.8177,436.7478,322.5281,442.17,330.75" style="stroke:#181818;stroke-width:1;"/></g><!--link Producto to Dinero--><g class="link" data-entity-1="ent0010" data-entity-2="ent0015" data-link-type="dependency" data-source-line="15" id="lnk17"><path codeLine="15" d="M367.42,271.26 C384.09,288.94 402.8027,308.7656 419.4627,326.4256" fill="none" id="Producto-to-Dinero" style="stroke:#181818;stroke-width:1;"/><polygon fill="#181818" points="423.58,330.79,420.3137,321.4985,420.1489,327.153,414.4945,326.9882,423.58,330.79" style="stroke:#181818;stroke-width:1;"/></g><?plantuml-src IyqhpLLmBIv9JCaFI4t9JCbNuE9A1Oc5P1RaE-TafkQLfCA4d1DBKjFpYp8JFSCSkRYWofKCbHHqTUt0D5GzifIMhYwGrjFJKbBmoSnBJOH8SI6nKKm8ACfFAKqkoOSP0H97TXqNp4aW2IGdSi4qWYLG7Ofi5qZM1SWloaVL0H430000?></g></svg>