<svg xmlns="http://www.w3.org/2000/svg" xmlns:xlink="http://www.w3.org/1999/xlink" contentStyleType="text/css" data-diagram-type="CLASS" height="502px" preserveAspectRatio="none" style="width:205px;height:502px;background:#FFFFFF;" version="1.1" viewBox="0 0 205 502" width="205px" zoomAndPan="magnify"><?plantuml 1.2026.3beta4?><defs/><g><!--class Tienda--><g class="entity" data-qualified-name="Tienda" data-source-line="1" id="ent0002"><rect fill="#F1F1F1" height="48" rx="2.5" ry="2.5" style="stroke:#181818;stroke-width:0.5;" width="79.3936" x="101.88" y="7"/><ellipse cx="116.88" cy="23" fill="#ADD1B2" rx="11" ry="11" style="stroke:#181818;stroke-width:1;"/><path d="M119.8488,28.6406 Q119.2706,28.9375 118.63,29.0781 Q117.9894,29.2344 117.2863,29.2344 Q114.7863,29.2344 113.4581,27.5938 Q112.1456,25.9375 112.1456,22.8125 Q112.1456,19.6875 113.4581,18.0313 Q114.7863,16.375 117.2863,16.375 Q117.9894,16.375 118.63,16.5313 Q119.2863,16.6875 119.8488,16.9844 L119.8488,19.7031 Q119.2238,19.125 118.63,18.8594 Q118.0363,18.5781 117.4113,18.5781 Q116.0675,18.5781 115.38,19.6563 Q114.6925,20.7188 114.6925,22.8125 Q114.6925,24.9063 115.38,25.9844 Q116.0675,27.0469 117.4113,27.0469 Q118.0363,27.0469 118.63,26.7813 Q119.2238,26.5 119.8488,25.9219 L119.8488,28.6406 Z " fill="#000000"/><text fill="#000000" font-family="sans-serif" font-size="14" lengthAdjust="spacing" textLength="47.3936" x="130.88" y="27.8467">Tienda</text><line style="stroke:#181818;stroke-width:0.5;" x1="102.88" x2="180.2736" y1="39" y2="39"/><line style="stroke:#181818;stroke-width:0.5;" x1="102.88" x2="180.2736" y1="47" y2="47"/></g><!--class Cliente--><g class="entity" data-qualified-name="Cliente" data-source-line="1" id="ent0003"><rect fill="#F1F1F1" height="48" rx="2.5" ry="2.5" style="stroke:#181818;stroke-width:0.5;" width="81.1436" x="7" y="115"/><ellipse cx="22" cy="131" fill="#ADD1B2" rx="11" ry="11" style="stroke:#181818;stroke-width:1;"/><path d="M24.9688,136.6406 Q24.3906,136.9375 23.75,137.0781 Q23.1094,137.2344 22.4063,137.2344 Q19.9063,137.2344 18.5781,135.5938 Q17.2656,133.9375 17.2656,130.8125 Q17.2656,127.6875 18.5781,126.0313 Q19.9063,124.375 22.4063,124.375 Q23.1094,124.375 23.75,124.5313 Q24.4063,124.6875 24.9688,124.9844 L24.9688,127.7031 Q24.3438,127.125 23.75,126.8594 Q23.1563,126.5781 22.5313,126.5781 Q21.1875,126.5781 20.5,127.6563 Q19.8125,128.7188 19.8125,130.8125 Q19.8125,132.9063 20.5,133.9844 Q21.1875,135.0469 22.5313,135.0469 Q23.1563,135.0469 23.75,134.7813 Q24.3438,134.5 24.9688,133.9219 L24.9688,136.6406 Z " fill="#000000"/><text fill="#000000" font-family="sans-serif" font-size="14" lengthAdjust="spacing" textLength="49.1436" x="36" y="135.8467">Cliente</text><line style="stroke:#181818;stroke-width:0.5;" x1="8" x2="87.1436" y1="147" y2="147"/><line style="stroke:#181818;stroke-width:0.5;" x1="8" x2="87.1436" y1="155" y2="155"/></g><!--class Producto--><g class="entity" data-qualified-name="Producto" data-source-line="2" id="ent0005"><rect fill="#F1F1F1" height="48" rx="2.5" ry="2.5" style="stroke:#181818;stroke-width:0.5;" width="94.2754" x="96.43" y="439"/><ellipse cx="111.43" cy="455" fill="#ADD1B2" rx="11" ry="11" style="stroke:#181818;stroke-width:1;"/><path d="M114.3988,460.6406 Q113.8206,460.9375 113.18,461.0781 Q112.5394,461.2344 111.8363,461.2344 Q109.3363,461.2344 108.0081,459.5938 Q106.6956,457.9375 106.6956,454.8125 Q106.6956,451.6875 108.0081,450.0313 Q109.3363,448.375 111.8363,448.375 Q112.5394,448.375 113.18,448.5313 Q113.8363,448.6875 114.3988,448.9844 L114.3988,451.7031 Q113.7738,451.125 113.18,450.8594 Q112.5863,450.5781 111.9613,450.5781 Q110.6175,450.5781 109.93,451.6563 Q109.2425,452.7188 109.2425,454.8125 Q109.2425,456.9063 109.93,457.9844 Q110.6175,459.0469 111.9613,459.0469 Q112.5863,459.0469 113.18,458.7813 Q113.7738,458.5 114.3988,457.9219 L114.3988,460.6406 Z " fill="#000000"/><text fill="#000000" font-family="sans-serif" font-size="14" lengthAdjust="spacing" textLength="62.2754" x="125.43" y="459.8467">Producto</text><line style="stroke:#181818;stroke-width:0.5;" x1="97.43" x2="189.7054" y1="471" y2="471"/><line style="stroke:#181818;stroke-width:0.5;" x1="97.43" x2="189.7054" y1="479" y2="479"/></g><!--class Pedido--><g class="entity" data-qualified-name="Pedido" data-source-line="3" id="ent0007"><rect fill="#F1F1F1" height="48" rx="2.5" ry="2.5" style="stroke:#181818;stroke-width:0.5;" width="79.2842" x="21.93" y="223"/><ellipse cx="36.93" cy="239" fill="#ADD1B2" rx="11" ry="11" style="stroke:#181818;stroke-width:1;"/><path d="M39.8988,244.6406 Q39.3206,244.9375 38.68,245.0781 Q38.0394,245.2344 37.3363,245.2344 Q34.8363,245.2344 33.5081,243.5938 Q32.1956,241.9375 32.1956,238.8125 Q32.1956,235.6875 33.5081,234.0313 Q34.8363,232.375 37.3363,232.375 Q38.0394,232.375 38.68,232.5313 Q39.3363,232.6875 39.8988,232.9844 L39.8988,235.7031 Q39.2738,235.125 38.68,234.8594 Q38.0863,234.5781 37.4613,234.5781 Q36.1175,234.5781 35.43,235.6563 Q34.7425,236.7188 34.7425,238.8125 Q34.7425,240.9063 35.43,241.9844 Q36.1175,243.0469 37.4613,243.0469 Q38.0863,243.0469 38.68,242.7813 Q39.2738,242.5 39.8988,241.9219 L39.8988,244.6406 Z " fill="#000000"/><text fill="#000000" font-family="sans-serif" font-size="14" lengthAdjust="spacing" textLength="47.2842" x="50.93" y="243.8467">Pedido</text><line style="stroke:#181818;stroke-width:0.5;" x1="22.93" x2="100.2142" y1="255" y2="255"/><line style="stroke:#181818;stroke-width:0.5;" x1="22.93" x2="100.2142" y1="263" y2="263"/></g><!--class LineaPedido--><g class="entity" data-qualified-name="LineaPedido" data-source-line="5" id="ent0010"><rect fill="#F1F1F1" height="48" rx="2.5" ry="2.5" style="stroke:#181818;stroke-width:0.5;" width="117.0391" x="29.05" y="331"/><ellipse cx="44.05" cy="347" fill="#ADD1B2" rx="11" ry="11" style="stroke:#181818;stroke-width:1;"/><path d="M47.0188,352.6406 Q46.4406,352.9375 45.8,353.0781 Q45.1594,353.2344 44.4563,353.2344 Q41.9563,353.2344 40.6281,351.5938 Q39.3156,349.9375 39.3156,346.8125 Q39.3156,343.6875 40.6281,342.0313 Q41.9563,340.375 44.4563,340.375 Q45.1594,340.375 45.8,340.5313 Q46.4563,340.6875 47.0188,340.9844 L47.0188,343.7031 Q46.3938,343.125 45.8,342.8594 Q45.2063,342.5781 44.5813,342.5781 Q43.2375,342.5781 42.55,343.6563 Q41.8625,344.7188 41.8625,346.8125 Q41.8625,348.9063 42.55,349.9844 Q43.2375,351.0469 44.5813,351.0469 Q45.2063,351.0469 45.8,350.7813 Q46.3938,350.5 47.0188,349.9219 L47.0188,352.6406 Z " fill="#000000"/><text fill="#000000" font-family="sans-serif" font-size="14" lengthAdjust="spacing" textLength="85.0391" x="58.05" y="351.8467">LineaPedido</text><line style="stroke:#181818;stroke-width:0.5;" x1="30.05" x2="145.0891" y1="363" y2="363"/><line style="stroke:#181818;stroke-width:0.5;" x1="30.05" x2="145.0891" y1="371" y2="371"/></g><!--reverse link Tienda to Cliente--><g class="link" data-entity-1="ent0002" data-entity-2="ent0003" data-link-type="composition" data-source-line="1" id="lnk4"><path codeLine="1" d="M112.9806,64.2404 C97.3106,81.9204 83.81,97.13 68.15,114.79" fill="none" id="Tienda-backto-Cliente" style="stroke:#181818;stroke-width:1;"/><polygon fill="#181818" points="120.94,55.26,113.9668,57.0971,112.9806,64.2404,119.9537,62.4033,120.94,55.26" style="stroke:#181818;stroke-width:1;"/><text fill="#000000" font-family="sans-serif" font-size="13" lengthAdjust="spacing" textLength="8.271" x="106.9678" y="75.0846">1</text><text fill="#000000" font-family="sans-serif" font-size="13" lengthAdjust="spacing" textLength="23.0356" x="47.4809" y="103.7482">0..*</text></g><!--reverse link Tienda to Producto--><g class="link" data-entity-1="ent0002" data-entity-2="ent0005" data-link-type="composition" data-source-line="2" id="lnk6"><path codeLine="2" d="M148.0299,67.0466 C157.9199,122.9666 177.99,257.62 163.57,379 C161.14,399.46 155.45,422.17 150.76,438.66" fill="none" id="Tienda-backto-Producto" style="stroke:#181818;stroke-width:1;"/><polygon fill="#181818" points="145.94,55.23,143.0461,61.8349,148.0299,67.0466,150.9238,60.4417,145.94,55.23" style="stroke:#181818;stroke-width:1;"/><text fill="#000000" font-family="sans-serif" font-size="13" lengthAdjust="spacing" textLength="8.271" x="138.0616" y="75.0473">1</text><text fill="#000000" font-family="sans-serif" font-size="13" lengthAdjust="spacing" textLength="23.0356" x="126.7143" y="427.9821">0..*</text></g><!--reverse link Tienda to Pedido--><g class="link" data-entity-1="ent0002" data-entity-2="ent0007" data-link-type="composition" data-source-line="3" id="lnk8"><path codeLine="3" d="M134.2433,66.9423 C128.4233,93.5223 120.1,126.39 105.57,163 C97.27,183.92 85.13,206.4 75.71,222.69" fill="none" id="Tienda-backto-Pedido" style="stroke:#181818;stroke-width:1;"/><polygon fill="#181818" points="136.81,55.22,131.6192,60.2256,134.2433,66.9423,139.4341,61.9367,136.81,55.22" style="stroke:#181818;stroke-width:1;"/><text fill="#000000" font-family="sans-serif" font-size="13" lengthAdjust="spacing" textLength="8.271" x="126.7061" y="75.0348">1</text><text fill="#000000" font-family="sans-serif" font-size="13" lengthAdjust="spacing" textLength="23.0356" x="53.3573" y="212.0194">0..*</text></g><!--reverse link Pedido to Cliente--><g class="link" data-entity-1="ent0007" data-entity-2="ent0003" data-link-type="composition" data-source-line="4" id="lnk9"><path codeLine="4" d="M70.2193,210.7942 C70.6893,193.1342 67.18,180.94 62.04,163.26" fill="none" id="Pedido-backto-Cliente" style="stroke:#181818;stroke-width:1;"/><polygon fill="#181818" points="69.9,222.79,74.0582,216.8985,70.2193,210.7942,66.061,216.6857,69.9,222.79" style="stroke:#181818;stroke-width:1;"/><text fill="#000000" font-family="sans-serif" font-size="13" lengthAdjust="spacing" textLength="8.271" x="73.0937" y="211.7482">1</text><text fill="#000000" font-family="sans-serif" font-size="13" lengthAdjust="spacing" textLength="8.271" x="56.6247" y="183.0846">1</text></g><!--link Cliente to Pedido--><g class="link" data-entity-1="ent0003" data-entity-2="ent0007" data-link-type="dependency" data-source-line="7" id="lnk13"><path codeLine="7" d="M39.88,163.26 C39.56,180.94 41.1285,199.3561 46.1185,217.0161" fill="none" id="Cliente-to-Pedido" style="stroke:#181818;stroke-width:1;"/><polygon fill="#181818" points="47.75,222.79,49.1521,213.0415,46.3904,217.9784,41.4535,215.2168,47.75,222.79" style="stroke:#181818;stroke-width:1;"/><text fill="#000000" font-family="sans-serif" font-size="13" lengthAdjust="spacing" textLength="8.271" x="29.0632" y="183.0846">1</text><text fill="#000000" font-family="sans-serif" font-size="13" lengthAdjust="spacing" textLength="23.0356" x="18.2658" y="211.7482">0..*</text></g><!--reverse link Pedido to LineaPedido--><g class="link" data-entity-1="ent0007" data-entity-2="ent0010" data-link-type="composition" data-source-line="5" id="lnk11"><path codeLine="5" d="M70.1346,282.9155 C74.4646,300.5955 77.55,313.13 81.88,330.79" fill="none" id="Pedido-backto-LineaPedido" style="stroke:#181818;stroke-width:1;"/><polygon fill="#181818" points="67.28,271.26,64.8221,278.0393,70.1346,282.9155,72.5925,276.1363,67.28,271.26" style="stroke:#181818;stroke-width:1;"/><text fill="#000000" font-family="sans-serif" font-size="13" lengthAdjust="spacing" textLength="8.271" x="59.7293" y="291.0846">1</text><text fill="#000000" font-family="sans-serif" font-size="13" lengthAdjust="spacing" textLength="23.0356" x="54.4797" y="319.7482">1..*</text></g><!--link LineaPedido to Producto--><g class="link" data-entity-1="ent0010" data-entity-2="ent0005" data-link-type="dependency" data-source-line="6" id="lnk12"><path codeLine="6" d="M99.86,379.26 C109.2,396.94 119.1772,415.8249 128.5072,433.4849" fill="none" id="LineaPedido-to-Producto" style="stroke:#181818;stroke-width:1;"/><polygon fill="#181818" points="131.31,438.79,130.6426,428.9638,128.9744,434.3691,123.5691,432.7008,131.31,438.79" style="stroke:#181818;stroke-width:1;"/><text fill="#000000" font-family="sans-serif" font-size="13" lengthAdjust="spacing" textLength="8.271" x="93.9138" y="399.0846">1</text><text fill="#000000" font-family="sans-serif" font-size="13" lengthAdjust="spacing" textLength="8.271" x="119.1787" y="427.7482">1</text></g><?plantuml-src 2ybCpKj9L50oL5BGqjLLK3BGqzDIKd3E0GgNf7A5O9KDACfFAKqkoSSbdPgIcPBF1Q4GaeO8Op6amFfyClDI4w6QaTXWPRgwTc0QRZNKA8Gaijq0?></g></svg>