<svg xmlns="http://www.w3.org/2000/svg" xmlns:xlink="http://www.w3.org/1999/xlink" contentStyleType="text/css" data-diagram-type="CLASS" height="752px" preserveAspectRatio="none" style="width:1057px;height:752px;background:#FFFFFF;" version="1.1" viewBox="0 0 1057 752" width="1057px" zoomAndPan="magnify"><?plantuml 1.2026.3beta4?><defs/><g><!--class Pedido--><g class="entity" data-qualified-name="Pedido" data-source-line="1" id="ent0002"><rect fill="#F1F1F1" height="194.6719" rx="2.5" ry="2.5" style="stroke:#181818;stroke-width:0.5;" width="331.9424" x="466.9" y="7"/><ellipse cx="604.9791" cy="23" fill="#ADD1B2" rx="11" ry="11" style="stroke:#181818;stroke-width:1;"/><path d="M607.9479,28.6406 Q607.3697,28.9375 606.7291,29.0781 Q606.0885,29.2344 605.3854,29.2344 Q602.8854,29.2344 601.5572,27.5938 Q600.2447,25.9375 600.2447,22.8125 Q600.2447,19.6875 601.5572,18.0313 Q602.8854,16.375 605.3854,16.375 Q606.0885,16.375 606.7291,16.5313 Q607.3854,16.6875 607.9479,16.9844 L607.9479,19.7031 Q607.3229,19.125 606.7291,18.8594 Q606.1354,18.5781 605.5104,18.5781 Q604.1666,18.5781 603.4791,19.6563 Q602.7916,20.7188 602.7916,22.8125 Q602.7916,24.9063 603.4791,25.9844 Q604.1666,27.0469 605.5104,27.0469 Q606.1354,27.0469 606.7291,26.7813 Q607.3229,26.5 607.9479,25.9219 L607.9479,28.6406 Z " fill="#000000"/><text fill="#000000" font-family="sans-serif" font-size="14" lengthAdjust="spacing" textLength="47.2842" x="625.4791" y="27.8467">Pedido</text><line style="stroke:#181818;stroke-width:0.5;" x1="467.9" x2="797.8424" y1="39" y2="39"/><g data-visibility-modifier="PRIVATE_FIELD"><rect fill="none" height="6" style="stroke:#C82930;stroke-width:1;" width="6" x="474.9" y="49.6484"/></g><text fill="#000000" font-family="sans-serif" font-size="14" lengthAdjust="spacing" textLength="81.3203" x="486.9" y="55.9951">fecha: Date</text><g data-visibility-modifier="PRIVATE_FIELD"><rect fill="none" height="6" style="stroke:#C82930;stroke-width:1;" width="6" x="474.9" y="65.9453"/></g><text fill="#000000" font-family="sans-serif" font-size="14" lengthAdjust="spacing" textLength="151.5391" x="486.9" y="72.292">estado: EstadoPedido</text><g data-visibility-modifier="PRIVATE_FIELD"><rect fill="none" height="6" style="stroke:#C82930;stroke-width:1;" width="6" x="474.9" y="82.2422"/></g><text fill="#000000" font-family="sans-serif" font-size="14" lengthAdjust="spacing" textLength="105.376" x="486.9" y="88.5889">cliente: Cliente</text><line style="stroke:#181818;stroke-width:1;" x1="467.9" x2="797.8424" y1="95.8906" y2="95.8906"/><g data-visibility-modifier="PUBLIC_METHOD"><ellipse cx="477.9" cy="109.5391" fill="#84BE84" rx="3" ry="3" style="stroke:#038048;stroke-width:1;"/></g><text fill="#000000" font-family="sans-serif" font-size="14" lengthAdjust="spacing" textLength="163.584" x="486.9" y="112.8857">Pedido(cliente: Cliente)</text><g data-visibility-modifier="PUBLIC_METHOD"><ellipse cx="477.9" cy="125.8359" fill="#84BE84" rx="3" ry="3" style="stroke:#038048;stroke-width:1;"/></g><text fill="#000000" font-family="sans-serif" font-size="14" lengthAdjust="spacing" textLength="117.4004" x="486.9" y="129.1826">confirmar(): void</text><g data-visibility-modifier="PUBLIC_METHOD"><ellipse cx="477.9" cy="142.1328" fill="#84BE84" rx="3" ry="3" style="stroke:#038048;stroke-width:1;"/></g><text fill="#000000" font-family="sans-serif" font-size="14" lengthAdjust="spacing" textLength="305.9424" x="486.9" y="145.4795">cambiarEstado(estado: EstadoPedido): void</text><g data-visibility-modifier="PUBLIC_METHOD"><ellipse cx="477.9" cy="158.4297" fill="#84BE84" rx="3" ry="3" style="stroke:#038048;stroke-width:1;"/></g><text fill="#000000" font-family="sans-serif" font-size="14" lengthAdjust="spacing" textLength="156.6045" x="486.9" y="161.7764">calcularTotal(): Dinero</text><g data-visibility-modifier="PUBLIC_METHOD"><ellipse cx="477.9" cy="174.7266" fill="#84BE84" rx="3" ry="3" style="stroke:#038048;stroke-width:1;"/></g><text fill="#000000" font-family="sans-serif" font-size="14" lengthAdjust="spacing" textLength="107.3857" x="486.9" y="178.0732">notificar(): void</text><g data-visibility-modifier="PUBLIC_METHOD"><ellipse cx="477.9" cy="191.0234" fill="#84BE84" rx="3" ry="3" style="stroke:#038048;stroke-width:1;"/></g><text fill="#000000" font-family="sans-serif" font-size="14" lengthAdjust="spacing" textLength="174.8428" x="486.9" y="194.3701">generarFactura(): byte []</text></g><!--class Cliente--><g class="entity" data-qualified-name="Cliente" data-source-line="14" id="ent0003"><rect fill="#F1F1F1" height="113.1875" rx="2.5" ry="2.5" style="stroke:#181818;stroke-width:0.5;" width="413.7412" x="7" y="261.67"/><ellipse cx="185.0488" cy="277.67" fill="#ADD1B2" rx="11" ry="11" style="stroke:#181818;stroke-width:1;"/><path d="M188.0176,283.3106 Q187.4395,283.6075 186.7988,283.7481 Q186.1582,283.9044 185.4551,283.9044 Q182.9551,283.9044 181.627,282.2637 Q180.3145,280.6075 180.3145,277.4825 Q180.3145,274.3575 181.627,272.7012 Q182.9551,271.045 185.4551,271.045 Q186.1582,271.045 186.7988,271.2012 Q187.4551,271.3575 188.0176,271.6544 L188.0176,274.3731 Q187.3926,273.795 186.7988,273.5294 Q186.2051,273.2481 185.5801,273.2481 Q184.2363,273.2481 183.5488,274.3262 Q182.8613,275.3887 182.8613,277.4825 Q182.8613,279.5762 183.5488,280.6544 Q184.2363,281.7169 185.5801,281.7169 Q186.2051,281.7169 186.7988,281.4512 Q187.3926,281.17 188.0176,280.5919 L188.0176,283.3106 Z " fill="#000000"/><text fill="#000000" font-family="sans-serif" font-size="14" lengthAdjust="spacing" textLength="49.1436" x="205.5488" y="282.5167">Cliente</text><line style="stroke:#181818;stroke-width:0.5;" x1="8" x2="419.7412" y1="293.67" y2="293.67"/><g data-visibility-modifier="PRIVATE_FIELD"><rect fill="none" height="6" style="stroke:#C82930;stroke-width:1;" width="6" x="15" y="304.3184"/></g><text fill="#000000" font-family="sans-serif" font-size="14" lengthAdjust="spacing" textLength="105.2803" x="27" y="310.6651">nombre: String</text><g data-visibility-modifier="PRIVATE_FIELD"><rect fill="none" height="6" style="stroke:#C82930;stroke-width:1;" width="6" x="15" y="320.6153"/></g><text fill="#000000" font-family="sans-serif" font-size="14" lengthAdjust="spacing" textLength="89.5576" x="27" y="326.962">email: String</text><g data-visibility-modifier="PRIVATE_FIELD"><rect fill="none" height="6" style="stroke:#C82930;stroke-width:1;" width="6" x="15" y="336.9122"/></g><text fill="#000000" font-family="sans-serif" font-size="14" lengthAdjust="spacing" textLength="115.0352" x="27" y="343.2589">tipo: TipoCliente</text><line style="stroke:#181818;stroke-width:1;" x1="8" x2="419.7412" y1="350.5606" y2="350.5606"/><g data-visibility-modifier="PUBLIC_METHOD"><ellipse cx="18" cy="364.2091" fill="#84BE84" rx="3" ry="3" style="stroke:#038048;stroke-width:1;"/></g><text fill="#000000" font-family="sans-serif" font-size="14" lengthAdjust="spacing" textLength="387.7412" x="27" y="367.5557">Cliente(nombre: String, email: String, tipo: TipoCliente)</text></g><!--class LineaPedido--><g class="entity" data-qualified-name="LineaPedido" data-source-line="22" id="ent0004"><rect fill="#F1F1F1" height="113.1875" rx="2.5" ry="2.5" style="stroke:#181818;stroke-width:0.5;" width="353.3252" x="456.21" y="261.67"/><ellipse cx="586.1031" cy="277.67" fill="#ADD1B2" rx="11" ry="11" style="stroke:#181818;stroke-width:1;"/><path d="M589.0718,283.3106 Q588.4937,283.6075 587.8531,283.7481 Q587.2124,283.9044 586.5093,283.9044 Q584.0093,283.9044 582.6812,282.2637 Q581.3687,280.6075 581.3687,277.4825 Q581.3687,274.3575 582.6812,272.7012 Q584.0093,271.045 586.5093,271.045 Q587.2124,271.045 587.8531,271.2012 Q588.5093,271.3575 589.0718,271.6544 L589.0718,274.3731 Q588.4468,273.795 587.8531,273.5294 Q587.2593,273.2481 586.6343,273.2481 Q585.2906,273.2481 584.6031,274.3262 Q583.9156,275.3887 583.9156,277.4825 Q583.9156,279.5762 584.6031,280.6544 Q585.2906,281.7169 586.6343,281.7169 Q587.2593,281.7169 587.8531,281.4512 Q588.4468,281.17 589.0718,280.5919 L589.0718,283.3106 Z " fill="#000000"/><text fill="#000000" font-family="sans-serif" font-size="14" lengthAdjust="spacing" textLength="85.0391" x="606.6031" y="282.5167">LineaPedido</text><line style="stroke:#181818;stroke-width:0.5;" x1="457.21" x2="808.5352" y1="293.67" y2="293.67"/><g data-visibility-modifier="PRIVATE_FIELD"><rect fill="none" height="6" style="stroke:#C82930;stroke-width:1;" width="6" x="464.21" y="304.3184"/></g><text fill="#000000" font-family="sans-serif" font-size="14" lengthAdjust="spacing" textLength="88.2998" x="476.21" y="310.6651">cantidad: int</text><g data-visibility-modifier="PRIVATE_FIELD"><rect fill="none" height="6" style="stroke:#C82930;stroke-width:1;" width="6" x="464.21" y="320.6153"/></g><text fill="#000000" font-family="sans-serif" font-size="14" lengthAdjust="spacing" textLength="154.3418" x="476.21" y="326.962">precioUnitario: Dinero</text><line style="stroke:#181818;stroke-width:1;" x1="457.21" x2="808.5352" y1="334.2637" y2="334.2637"/><g data-visibility-modifier="PUBLIC_METHOD"><ellipse cx="467.21" cy="347.9122" fill="#84BE84" rx="3" ry="3" style="stroke:#038048;stroke-width:1;"/></g><text fill="#000000" font-family="sans-serif" font-size="14" lengthAdjust="spacing" textLength="327.3252" x="476.21" y="351.2589">LineaPedido(producto: Producto, cantidad: int)</text><g data-visibility-modifier="PUBLIC_METHOD"><ellipse cx="467.21" cy="364.2091" fill="#84BE84" rx="3" ry="3" style="stroke:#038048;stroke-width:1;"/></g><text fill="#000000" font-family="sans-serif" font-size="14" lengthAdjust="spacing" textLength="148.2168" x="476.21" y="367.5557">getSubtotal(): Dinero</text></g><!--class Producto--><g class="entity" data-qualified-name="Producto" data-source-line="30" id="ent0005"><rect fill="#F1F1F1" height="113.1875" rx="2.5" ry="2.5" style="stroke:#181818;stroke-width:0.5;" width="511.2559" x="531.24" y="434.86"/><ellipse cx="751.4802" cy="450.86" fill="#ADD1B2" rx="11" ry="11" style="stroke:#181818;stroke-width:1;"/><path d="M754.449,456.5006 Q753.8709,456.7975 753.2302,456.9381 Q752.5896,457.0944 751.8865,457.0944 Q749.3865,457.0944 748.0584,455.4537 Q746.7459,453.7975 746.7459,450.6725 Q746.7459,447.5475 748.0584,445.8912 Q749.3865,444.235 751.8865,444.235 Q752.5896,444.235 753.2302,444.3912 Q753.8865,444.5475 754.449,444.8444 L754.449,447.5631 Q753.824,446.985 753.2302,446.7194 Q752.6365,446.4381 752.0115,446.4381 Q750.6677,446.4381 749.9802,447.5162 Q749.2927,448.5787 749.2927,450.6725 Q749.2927,452.7662 749.9802,453.8444 Q750.6677,454.9069 752.0115,454.9069 Q752.6365,454.9069 753.2302,454.6412 Q753.824,454.36 754.449,453.7819 L754.449,456.5006 Z " fill="#000000"/><text fill="#000000" font-family="sans-serif" font-size="14" lengthAdjust="spacing" textLength="62.2754" x="771.9802" y="455.7067">Producto</text><line style="stroke:#181818;stroke-width:0.5;" x1="532.24" x2="1041.4959" y1="466.86" y2="466.86"/><g data-visibility-modifier="PRIVATE_FIELD"><rect fill="none" height="6" style="stroke:#C82930;stroke-width:1;" width="6" x="539.24" y="477.5084"/></g><text fill="#000000" font-family="sans-serif" font-size="14" lengthAdjust="spacing" textLength="105.2803" x="551.24" y="483.8551">nombre: String</text><g data-visibility-modifier="PRIVATE_FIELD"><rect fill="none" height="6" style="stroke:#C82930;stroke-width:1;" width="6" x="539.24" y="493.8053"/></g><text fill="#000000" font-family="sans-serif" font-size="14" lengthAdjust="spacing" textLength="99.0527" x="551.24" y="500.152">precio: Dinero</text><g data-visibility-modifier="PRIVATE_FIELD"><rect fill="none" height="6" style="stroke:#C82930;stroke-width:1;" width="6" x="539.24" y="510.1022"/></g><text fill="#000000" font-family="sans-serif" font-size="14" lengthAdjust="spacing" textLength="189.9229" x="551.24" y="516.4489">categoriaIVA: CategoriaIVA</text><line style="stroke:#181818;stroke-width:1;" x1="532.24" x2="1041.4959" y1="523.7506" y2="523.7506"/><g data-visibility-modifier="PUBLIC_METHOD"><ellipse cx="542.24" cy="537.3991" fill="#84BE84" rx="3" ry="3" style="stroke:#038048;stroke-width:1;"/></g><text fill="#000000" font-family="sans-serif" font-size="14" lengthAdjust="spacing" textLength="485.2559" x="551.24" y="540.7457">Producto(nombre: String, precio: Dinero, categoriaIVA: CategoriaIVA)</text></g><!--class Dinero--><g class="entity" data-qualified-name="Dinero" data-source-line="38" id="ent0006"><rect fill="#F1F1F1" height="129.4844" rx="2.5" ry="2.5" style="stroke:#181818;stroke-width:0.5;" width="346.209" x="321.77" y="608.05"/><ellipse cx="467.3857" cy="624.05" fill="#ADD1B2" rx="11" ry="11" style="stroke:#181818;stroke-width:1;"/><path d="M470.3545,629.6906 Q469.7763,629.9875 469.1357,630.1281 Q468.4951,630.2844 467.792,630.2844 Q465.292,630.2844 463.9638,628.6438 Q462.6513,626.9875 462.6513,623.8625 Q462.6513,620.7375 463.9638,619.0813 Q465.292,617.425 467.792,617.425 Q468.4951,617.425 469.1357,617.5813 Q469.792,617.7375 470.3545,618.0344 L470.3545,620.7531 Q469.7295,620.175 469.1357,619.9094 Q468.542,619.6281 467.917,619.6281 Q466.5732,619.6281 465.8857,620.7063 Q465.1982,621.7688 465.1982,623.8625 Q465.1982,625.9563 465.8857,627.0344 Q466.5732,628.0969 467.917,628.0969 Q468.542,628.0969 469.1357,627.8313 Q469.7295,627.55 470.3545,626.9719 L470.3545,629.6906 Z " fill="#000000"/><text fill="#000000" font-family="sans-serif" font-size="14" lengthAdjust="spacing" textLength="46.4775" x="487.8857" y="628.8967">Dinero</text><line style="stroke:#181818;stroke-width:0.5;" x1="322.77" x2="666.979" y1="640.05" y2="640.05"/><g data-visibility-modifier="PRIVATE_FIELD"><rect fill="none" height="6" style="stroke:#C82930;stroke-width:1;" width="6" x="329.77" y="650.6984"/></g><text fill="#000000" font-family="sans-serif" font-size="14" lengthAdjust="spacing" textLength="117.7627" x="341.77" y="657.0451">cantidad: double</text><g data-visibility-modifier="PRIVATE_FIELD"><rect fill="none" height="6" style="stroke:#C82930;stroke-width:1;" width="6" x="329.77" y="666.9953"/></g><text fill="#000000" font-family="sans-serif" font-size="14" lengthAdjust="spacing" textLength="108.1035" x="341.77" y="673.342">moneda: String</text><line style="stroke:#181818;stroke-width:1;" x1="322.77" x2="666.979" y1="680.6438" y2="680.6438"/><g data-visibility-modifier="PUBLIC_METHOD"><ellipse cx="332.77" cy="694.2922" fill="#84BE84" rx="3" ry="3" style="stroke:#038048;stroke-width:1;"/></g><text fill="#000000" font-family="sans-serif" font-size="14" lengthAdjust="spacing" textLength="292.168" x="341.77" y="697.6389">Dinero(cantidad: double, moneda: String)</text><g data-visibility-modifier="PUBLIC_METHOD"><ellipse cx="332.77" cy="710.5891" fill="#84BE84" rx="3" ry="3" style="stroke:#038048;stroke-width:1;"/></g><text fill="#000000" font-family="sans-serif" font-size="14" lengthAdjust="spacing" textLength="194.7285" x="341.77" y="713.9357">sumar(otro: Dinero): Dinero</text><g data-visibility-modifier="PUBLIC_METHOD"><ellipse cx="332.77" cy="726.8859" fill="#84BE84" rx="3" ry="3" style="stroke:#038048;stroke-width:1;"/></g><text fill="#000000" font-family="sans-serif" font-size="14" lengthAdjust="spacing" textLength="320.209" x="341.77" y="730.2326">aplicarPorcentaje(porcentaje: double): Dinero</text></g><!--class EstadoPedido--><g class="entity" data-qualified-name="EstadoPedido" data-source-line="47" id="ent0007"><rect fill="#F1F1F1" height="96.8906" rx="2.5" ry="2.5" style="stroke:#181818;stroke-width:0.5;" width="126.9443" x="844.4" y="269.82"/><ellipse cx="859.4" cy="285.82" fill="#EB937F" rx="11" ry="11" style="stroke:#181818;stroke-width:1;"/><path d="M863.5094,291.82 L855.7906,291.82 L855.7906,279.4294 L863.5094,279.4294 L863.5094,281.5856 L858.2438,281.5856 L858.2438,284.2575 L863.0094,284.2575 L863.0094,286.4138 L858.2438,286.4138 L858.2438,289.6638 L863.5094,289.6638 L863.5094,291.82 Z " fill="#000000"/><text fill="#000000" font-family="sans-serif" font-size="14" lengthAdjust="spacing" textLength="94.9443" x="873.4" y="290.6667">EstadoPedido</text><line style="stroke:#181818;stroke-width:0.5;" x1="845.4" x2="970.3443" y1="301.82" y2="301.82"/><text fill="#000000" font-family="sans-serif" font-size="14" lengthAdjust="spacing" textLength="79.3857" x="850.4" y="318.8151">PENDIENTE</text><text fill="#000000" font-family="sans-serif" font-size="14" lengthAdjust="spacing" textLength="96.6328" x="850.4" y="335.112">CONFIRMADO</text><text fill="#000000" font-family="sans-serif" font-size="14" lengthAdjust="spacing" textLength="64.4014" x="850.4" y="351.4089">ENVIADO</text><line style="stroke:#181818;stroke-width:0.5;" x1="845.4" x2="970.3443" y1="358.7106" y2="358.7106"/></g><!--class TipoCliente--><g class="entity" data-qualified-name="TipoCliente" data-source-line="53" id="ent0008"><rect fill="#F1F1F1" height="96.8906" rx="2.5" ry="2.5" style="stroke:#181818;stroke-width:0.5;" width="114.5664" x="156.59" y="443.01"/><ellipse cx="173.1782" cy="459.01" fill="#EB937F" rx="11" ry="11" style="stroke:#181818;stroke-width:1;"/><path d="M177.2876,465.01 L169.5688,465.01 L169.5688,452.6194 L177.2876,452.6194 L177.2876,454.7756 L172.0219,454.7756 L172.0219,457.4475 L176.7876,457.4475 L176.7876,459.6038 L172.0219,459.6038 L172.0219,462.8538 L177.2876,462.8538 L177.2876,465.01 Z " fill="#000000"/><text fill="#000000" font-family="sans-serif" font-size="14" lengthAdjust="spacing" textLength="79.0371" x="187.5311" y="463.8567">TipoCliente</text><line style="stroke:#181818;stroke-width:0.5;" x1="157.59" x2="270.1564" y1="475.01" y2="475.01"/><text fill="#000000" font-family="sans-serif" font-size="14" lengthAdjust="spacing" textLength="60.6758" x="162.59" y="492.0051">NORMAL</text><text fill="#000000" font-family="sans-serif" font-size="14" lengthAdjust="spacing" textLength="65.5498" x="162.59" y="508.302">PREMIUM</text><text fill="#000000" font-family="sans-serif" font-size="14" lengthAdjust="spacing" textLength="102.5664" x="162.59" y="524.5989">CORPORATIVO</text><line style="stroke:#181818;stroke-width:0.5;" x1="157.59" x2="270.1564" y1="531.9006" y2="531.9006"/></g><!--class CategoriaIVA--><g class="entity" data-qualified-name="CategoriaIVA" data-source-line="59" id="ent0009"><rect fill="#F1F1F1" height="96.8906" rx="2.5" ry="2.5" style="stroke:#181818;stroke-width:0.5;" width="133.4541" x="720.14" y="624.34"/><ellipse cx="739.6567" cy="640.34" fill="#EB937F" rx="11" ry="11" style="stroke:#181818;stroke-width:1;"/><path d="M743.7661,646.34 L736.0473,646.34 L736.0473,633.9494 L743.7661,633.9494 L743.7661,636.1056 L738.5004,636.1056 L738.5004,638.7775 L743.2661,638.7775 L743.2661,640.9337 L738.5004,640.9337 L738.5004,644.1837 L743.7661,644.1837 L743.7661,646.34 Z " fill="#000000"/><text fill="#000000" font-family="sans-serif" font-size="14" lengthAdjust="spacing" textLength="91.417" x="754.6604" y="645.1867">CategoriaIVA</text><line style="stroke:#181818;stroke-width:0.5;" x1="721.14" x2="852.5941" y1="656.34" y2="656.34"/><text fill="#000000" font-family="sans-serif" font-size="14" lengthAdjust="spacing" textLength="66.1172" x="726.14" y="673.3351">GENERAL</text><text fill="#000000" font-family="sans-serif" font-size="14" lengthAdjust="spacing" textLength="75.3047" x="726.14" y="689.632">REDUCIDO</text><text fill="#000000" font-family="sans-serif" font-size="14" lengthAdjust="spacing" textLength="121.4541" x="726.14" y="705.9289">SUPERREDUCIDO</text><line style="stroke:#181818;stroke-width:0.5;" x1="721.14" x2="852.5941" y1="713.2306" y2="713.2306"/></g><!--link Pedido to Cliente--><g class="link" data-entity-1="ent0002" data-entity-2="ent0003" data-link-type="dependency" data-source-line="65" id="lnk10"><path codeLine="65" d="M466.67,189.4 C418.92,213.55 373.384,236.5816 329.874,258.5916" fill="none" id="Pedido-to-Cliente" style="stroke:#181818;stroke-width:1;"/><polygon fill="#181818" points="324.52,261.3,334.3565,260.8068,328.9816,259.043,330.7454,253.6682,324.52,261.3" style="stroke:#181818;stroke-width:1;"/><text fill="#000000" font-family="sans-serif" font-size="13" lengthAdjust="spacing" textLength="8.271" x="450.4324" y="190.2271">1</text><text fill="#000000" font-family="sans-serif" font-size="13" lengthAdjust="spacing" textLength="8.271" x="329.5344" y="250.5185">1</text></g><!--reverse link Pedido to LineaPedido--><g class="link" data-entity-1="ent0002" data-entity-2="ent0004" data-link-type="composition" data-source-line="66" id="lnk11"><path codeLine="66" d="M632.87,214 C632.87,234.3 632.87,243.07 632.87,261.28" fill="none" id="Pedido-backto-LineaPedido" style="stroke:#181818;stroke-width:1;"/><polygon fill="#181818" points="632.87,202,628.87,208,632.87,214,636.87,208,632.87,202" style="stroke:#181818;stroke-width:1;"/><text fill="#000000" font-family="sans-serif" font-size="13" lengthAdjust="spacing" textLength="8.271" x="624.5861" y="221.7948">1</text><text fill="#000000" font-family="sans-serif" font-size="13" lengthAdjust="spacing" textLength="23.0356" x="608.4703" y="250.496">1..*</text></g><!--link LineaPedido to Producto--><g class="link" data-entity-1="ent0004" data-entity-2="ent0005" data-link-type="dependency" data-source-line="67" id="lnk12"><path codeLine="67" d="M683.3,375.32 C700.4,394.33 715.4874,411.0992 732.5874,430.1092" fill="none" id="LineaPedido-to-Producto" style="stroke:#181818;stroke-width:1;"/><polygon fill="#181818" points="736.6,434.57,733.5549,425.2037,733.2561,430.8527,727.6072,430.5539,736.6,434.57" style="stroke:#181818;stroke-width:1;"/><text fill="#000000" font-family="sans-serif" font-size="13" lengthAdjust="spacing" textLength="8.271" x="680.6838" y="394.8589">1</text><text fill="#000000" font-family="sans-serif" font-size="13" lengthAdjust="spacing" textLength="8.271" x="722.0026" y="423.7982">1</text></g><!--link Pedido to EstadoPedido--><g class="link" data-entity-1="ent0002" data-entity-2="ent0007" data-link-type="dependency" data-source-line="68" id="lnk13"><path codeLine="68" d="M758.3,202 C788.76,225.47 815.258,245.8869 841.268,265.9369" fill="none" id="Pedido-to-EstadoPedido" style="stroke:#181818;stroke-width:1;"/><polygon fill="#181818" points="846.02,269.6,841.3341,260.9373,842.06,266.5474,836.4499,267.2733,846.02,269.6" style="stroke:#181818;stroke-width:1;"/></g><!--link Cliente to TipoCliente--><g class="link" data-entity-1="ent0003" data-entity-2="ent0008" data-link-type="dependency" data-source-line="69" id="lnk14"><path codeLine="69" d="M213.87,375.32 C213.87,397.06 213.87,415.71 213.87,436.6" fill="none" id="Cliente-to-TipoCliente" style="stroke:#181818;stroke-width:1;"/><polygon fill="#181818" points="213.87,442.6,217.87,433.6,213.87,437.6,209.87,433.6,213.87,442.6" style="stroke:#181818;stroke-width:1;"/></g><!--link Producto to CategoriaIVA--><g class="link" data-entity-1="ent0005" data-entity-2="ent0009" data-link-type="dependency" data-source-line="70" id="lnk15"><path codeLine="70" d="M786.87,548.21 C786.87,572.48 786.87,594.63 786.87,617.93" fill="none" id="Producto-to-CategoriaIVA" style="stroke:#181818;stroke-width:1;"/><polygon fill="#181818" points="786.87,623.93,790.87,614.93,786.87,618.93,782.87,614.93,786.87,623.93" style="stroke:#181818;stroke-width:1;"/></g><!--link LineaPedido to Dinero--><g class="link" data-entity-1="ent0004" data-entity-2="ent0006" data-link-type="dependency" data-source-line="72" id="lnk16"><path codeLine="72" d="M558.78,375.14 C541.12,392.29 524.36,412.58 513.87,434.86 C488.34,489.09 485.3723,552.0574 487.8323,601.5774" fill="none" id="LineaPedido-to-Dinero" style="stroke:#181818;stroke-width:1;"/><polygon fill="#181818" points="488.13,607.57,491.6785,598.3826,487.8819,602.5762,483.6884,598.7795,488.13,607.57" style="stroke:#181818;stroke-width:1;"/></g><!--link Producto to Dinero--><g class="link" data-entity-1="ent0005" data-entity-2="ent0006" data-link-type="dependency" data-source-line="73" id="lnk17"><path codeLine="73" d="M695.68,548.46 C665.14,567.21 635.973,585.1304 604.493,604.4604" fill="none" id="Producto-to-Dinero" style="stroke:#181818;stroke-width:1;"/><polygon fill="#181818" points="599.38,607.6,609.1426,606.2993,603.6408,604.9837,604.9565,599.4819,599.38,607.6" style="stroke:#181818;stroke-width:1;"/></g><?plantuml-src VLHDRwCm4BtpAwoSI9TKwfN3Ib5mAwI68F9nMVKm62Tr1JPoJALgjVzz3TZK9b5pYEtvU3D-VWEfuNf5EQrO9T3V0EdV2fqfUOSO9Q2eiT2hWah420_h66vSf6QKAngZpRWPpQjX-MMGmtdGqhY9u6Sc6v3XCaQVWbNM3at9G8xbmdlLv_4rwMgG1w6Wxh4IngaKnik5OcT6RgfSg0u2-Gn4TH9wP_cbAFhp5lmB0Z8mO_gTgE6YAQM-nrv9nY-MdGPOFRCfrkgE3_h_BY_66FfuaGyLtQ8ilrjxrLU4sSiHu8fLKCM8SMLihQI4YIDd2YGJ7ZLJEmvMs4fHTKJfoDpi8XztET6dzbsfPfHF_TdidxaRk_ExqkKKlGZ983sjjMQSqqnTfiGDZJvgz0EWG-WOV8VBIdHbRKUX4PnMuD_2zZCYXFFCQ9Pa2RnslVA5abEdS-L2M_UwpOKa-lNXWuRjjBNe7lMKTuqt9-OwESwI56S7F9msk-mvBRRhP3SSSNPA-xtDT_HcqhETZduTaGgyJOzRWrFaks9zI4_VoIwv9li5PxWmwGLEZflK5DuVSrnC5erWUbuyBJIfluVLZe_ZUbYjzFhu-B1mXHku0-4YM9LOYDxkVSZiNNk7Ex6JWdk7fqAlLkyrB-1bZBR_?></g></svg>