<svg xmlns="http://www.w3.org/2000/svg" xmlns:xlink="http://www.w3.org/1999/xlink" contentStyleType="text/css" data-diagram-type="CLASS" height="866px" preserveAspectRatio="none" style="width:529px;height:866px;background:#FFFFFF;" version="1.1" viewBox="0 0 529 866" width="529px" zoomAndPan="magnify"><?plantuml 1.2026.3beta4?><defs/><g><!--class Tienda--><g class="entity" data-qualified-name="Tienda" data-source-line="1" id="ent0002"><rect fill="#F1F1F1" height="129.4844" rx="2.5" ry="2.5" style="stroke:#181818;stroke-width:0.5;" width="211.2334" x="164.09" y="7"/><ellipse cx="241.7599" cy="23" fill="#ADD1B2" rx="11" ry="11" style="stroke:#181818;stroke-width:1;"/><path d="M244.7287,28.6406 Q244.1505,28.9375 243.5099,29.0781 Q242.8693,29.2344 242.1662,29.2344 Q239.6662,29.2344 238.338,27.5938 Q237.0255,25.9375 237.0255,22.8125 Q237.0255,19.6875 238.338,18.0313 Q239.6662,16.375 242.1662,16.375 Q242.8693,16.375 243.5099,16.5313 Q244.1662,16.6875 244.7287,16.9844 L244.7287,19.7031 Q244.1037,19.125 243.5099,18.8594 Q242.9162,18.5781 242.2912,18.5781 Q240.9474,18.5781 240.2599,19.6563 Q239.5724,20.7188 239.5724,22.8125 Q239.5724,24.9063 240.2599,25.9844 Q240.9474,27.0469 242.2912,27.0469 Q242.9162,27.0469 243.5099,26.7813 Q244.1037,26.5 244.7287,25.9219 L244.7287,28.6406 Z " fill="#000000"/><text fill="#000000" font-family="sans-serif" font-size="14" lengthAdjust="spacing" textLength="47.3936" x="262.2599" y="27.8467">Tienda</text><line style="stroke:#181818;stroke-width:0.5;" x1="165.09" x2="374.3234" y1="39" y2="39"/><g data-visibility-modifier="PRIVATE_FIELD"><rect fill="none" height="6" style="stroke:#C82930;stroke-width:1;" width="6" x="172.09" y="49.6484"/></g><text fill="#000000" font-family="sans-serif" font-size="14" lengthAdjust="spacing" textLength="105.2803" x="184.09" y="55.9951">nombre: String</text><g data-visibility-modifier="PRIVATE_FIELD"><rect fill="none" height="6" style="stroke:#C82930;stroke-width:1;" width="6" x="172.09" y="65.9453"/></g><text fill="#000000" font-family="sans-serif" font-size="14" lengthAdjust="spacing" textLength="114.8164" x="184.09" y="72.292">direccion: String</text><line style="stroke:#181818;stroke-width:1;" x1="165.09" x2="374.3234" y1="79.5938" y2="79.5938"/><g data-visibility-modifier="PUBLIC_METHOD"><ellipse cx="175.09" cy="93.2422" fill="#84BE84" rx="3" ry="3" style="stroke:#038048;stroke-width:1;"/></g><text fill="#000000" font-family="sans-serif" font-size="14" lengthAdjust="spacing" textLength="170.2422" x="184.09" y="96.5889">gestionarPedidos(): void</text><g data-visibility-modifier="PUBLIC_METHOD"><ellipse cx="175.09" cy="109.5391" fill="#84BE84" rx="3" ry="3" style="stroke:#038048;stroke-width:1;"/></g><text fill="#000000" font-family="sans-serif" font-size="14" lengthAdjust="spacing" textLength="172.1016" x="184.09" y="112.8857">gestionarClientes(): void</text><g data-visibility-modifier="PUBLIC_METHOD"><ellipse cx="175.09" cy="125.8359" fill="#84BE84" rx="3" ry="3" style="stroke:#038048;stroke-width:1;"/></g><text fill="#000000" font-family="sans-serif" font-size="14" lengthAdjust="spacing" textLength="185.2334" x="184.09" y="129.1826">gestionarProductos(): void</text></g><!--class Pedido--><g class="entity" data-qualified-name="Pedido" data-source-line="10" id="ent0003"><rect fill="#F1F1F1" height="292.4531" rx="2.5" ry="2.5" style="stroke:#181818;stroke-width:0.5;" width="278.7793" x="130.31" y="196.48"/><ellipse cx="241.8076" cy="212.48" fill="#ADD1B2" rx="11" ry="11" style="stroke:#181818;stroke-width:1;"/><path d="M244.7763,218.1206 Q244.1982,218.4175 243.5576,218.5581 Q242.9169,218.7144 242.2138,218.7144 Q239.7138,218.7144 238.3857,217.0738 Q237.0732,215.4175 237.0732,212.2925 Q237.0732,209.1675 238.3857,207.5113 Q239.7138,205.855 242.2138,205.855 Q242.9169,205.855 243.5576,206.0113 Q244.2138,206.1675 244.7763,206.4644 L244.7763,209.1831 Q244.1513,208.605 243.5576,208.3394 Q242.9638,208.0581 242.3388,208.0581 Q240.9951,208.0581 240.3076,209.1363 Q239.6201,210.1988 239.6201,212.2925 Q239.6201,214.3863 240.3076,215.4644 Q240.9951,216.5269 242.3388,216.5269 Q242.9638,216.5269 243.5576,216.2613 Q244.1513,215.98 244.7763,215.4019 L244.7763,218.1206 Z " fill="#000000"/><text fill="#000000" font-family="sans-serif" font-size="14" lengthAdjust="spacing" textLength="47.2842" x="262.3076" y="217.3267">Pedido</text><line style="stroke:#181818;stroke-width:0.5;" x1="131.31" x2="408.0893" y1="228.48" y2="228.48"/><g data-visibility-modifier="PRIVATE_FIELD"><rect fill="none" height="6" style="stroke:#C82930;stroke-width:1;" width="6" x="138.31" y="239.1284"/></g><text fill="#000000" font-family="sans-serif" font-size="14" lengthAdjust="spacing" textLength="40.1953" x="150.31" y="245.4751">id: int</text><g data-visibility-modifier="PRIVATE_FIELD"><rect fill="none" height="6" style="stroke:#C82930;stroke-width:1;" width="6" x="138.31" y="255.4253"/></g><text fill="#000000" font-family="sans-serif" font-size="14" lengthAdjust="spacing" textLength="81.3203" x="150.31" y="261.772">fecha: Date</text><g data-visibility-modifier="PRIVATE_FIELD"><rect fill="none" height="6" style="stroke:#C82930;stroke-width:1;" width="6" x="138.31" y="271.7222"/></g><text fill="#000000" font-family="sans-serif" font-size="14" lengthAdjust="spacing" textLength="98.376" x="150.31" y="278.0689">estado: String</text><g data-visibility-modifier="PRIVATE_FIELD"><rect fill="none" height="6" style="stroke:#C82930;stroke-width:1;" width="6" x="138.31" y="288.0191"/></g><text fill="#000000" font-family="sans-serif" font-size="14" lengthAdjust="spacing" textLength="87.5" x="150.31" y="294.3657">clienteId: int</text><g data-visibility-modifier="PRIVATE_FIELD"><rect fill="none" height="6" style="stroke:#C82930;stroke-width:1;" width="6" x="138.31" y="304.3159"/></g><text fill="#000000" font-family="sans-serif" font-size="14" lengthAdjust="spacing" textLength="105.376" x="150.31" y="310.6626">cliente: Cliente</text><g data-visibility-modifier="PRIVATE_FIELD"><rect fill="none" height="6" style="stroke:#C82930;stroke-width:1;" width="6" x="138.31" y="320.6128"/></g><text fill="#000000" font-family="sans-serif" font-size="14" lengthAdjust="spacing" textLength="183.2783" x="150.31" y="326.9595">lineas: List&lt;LineaPedido&gt;</text><g data-visibility-modifier="PRIVATE_FIELD"><rect fill="none" height="6" style="stroke:#C82930;stroke-width:1;" width="6" x="138.31" y="336.9097"/></g><text fill="#000000" font-family="sans-serif" font-size="14" lengthAdjust="spacing" textLength="88.8945" x="150.31" y="343.2564">total: double</text><line style="stroke:#181818;stroke-width:1;" x1="131.31" x2="408.0893" y1="350.5581" y2="350.5581"/><g data-visibility-modifier="PUBLIC_METHOD"><ellipse cx="141.31" cy="364.2066" fill="#84BE84" rx="3" ry="3" style="stroke:#038048;stroke-width:1;"/></g><text fill="#000000" font-family="sans-serif" font-size="14" lengthAdjust="spacing" textLength="181.4258" x="150.31" y="367.5532">calcularSubtotal(): double</text><g data-visibility-modifier="PUBLIC_METHOD"><ellipse cx="141.31" cy="380.5034" fill="#84BE84" rx="3" ry="3" style="stroke:#038048;stroke-width:1;"/></g><text fill="#000000" font-family="sans-serif" font-size="14" lengthAdjust="spacing" textLength="146.0498" x="150.31" y="383.8501">calcularIVA(): double</text><g data-visibility-modifier="PUBLIC_METHOD"><ellipse cx="141.31" cy="396.8003" fill="#84BE84" rx="3" ry="3" style="stroke:#038048;stroke-width:1;"/></g><text fill="#000000" font-family="sans-serif" font-size="14" lengthAdjust="spacing" textLength="189.8818" x="150.31" y="400.147">aplicarDescuento(): double</text><g data-visibility-modifier="PUBLIC_METHOD"><ellipse cx="141.31" cy="413.0972" fill="#84BE84" rx="3" ry="3" style="stroke:#038048;stroke-width:1;"/></g><text fill="#000000" font-family="sans-serif" font-size="14" lengthAdjust="spacing" textLength="157.8418" x="150.31" y="416.4439">calcularTotal(): double</text><g data-visibility-modifier="PUBLIC_METHOD"><ellipse cx="141.31" cy="429.3941" fill="#84BE84" rx="3" ry="3" style="stroke:#038048;stroke-width:1;"/></g><text fill="#000000" font-family="sans-serif" font-size="14" lengthAdjust="spacing" textLength="117.4004" x="150.31" y="432.7407">confirmar(): void</text><g data-visibility-modifier="PUBLIC_METHOD"><ellipse cx="141.31" cy="445.6909" fill="#84BE84" rx="3" ry="3" style="stroke:#038048;stroke-width:1;"/></g><text fill="#000000" font-family="sans-serif" font-size="14" lengthAdjust="spacing" textLength="225.5859" x="150.31" y="449.0376">enviarEmailConfirmacion(): void</text><g data-visibility-modifier="PUBLIC_METHOD"><ellipse cx="141.31" cy="461.9878" fill="#84BE84" rx="3" ry="3" style="stroke:#038048;stroke-width:1;"/></g><text fill="#000000" font-family="sans-serif" font-size="14" lengthAdjust="spacing" textLength="197.668" x="150.31" y="465.3345">generarFacturaPDF(): byte[]</text><g data-visibility-modifier="PUBLIC_METHOD"><ellipse cx="141.31" cy="478.2847" fill="#84BE84" rx="3" ry="3" style="stroke:#038048;stroke-width:1;"/></g><text fill="#000000" font-family="sans-serif" font-size="14" lengthAdjust="spacing" textLength="252.7793" x="150.31" y="481.6314">cambiarEstado(estado: String): void</text></g><!--class Cliente--><g class="entity" data-qualified-name="Cliente" data-source-line="29" id="ent0004"><rect fill="#F1F1F1" height="129.4844" rx="2.5" ry="2.5" style="stroke:#181818;stroke-width:0.5;" width="185.4072" x="7" y="548.94"/><ellipse cx="70.8818" cy="564.94" fill="#ADD1B2" rx="11" ry="11" style="stroke:#181818;stroke-width:1;"/><path d="M73.8506,570.5806 Q73.2725,570.8775 72.6318,571.0181 Q71.9912,571.1744 71.2881,571.1744 Q68.7881,571.1744 67.46,569.5337 Q66.1475,567.8775 66.1475,564.7525 Q66.1475,561.6275 67.46,559.9712 Q68.7881,558.315 71.2881,558.315 Q71.9912,558.315 72.6318,558.4712 Q73.2881,558.6275 73.8506,558.9244 L73.8506,561.6431 Q73.2256,561.065 72.6318,560.7994 Q72.0381,560.5181 71.4131,560.5181 Q70.0693,560.5181 69.3818,561.5962 Q68.6943,562.6587 68.6943,564.7525 Q68.6943,566.8462 69.3818,567.9244 Q70.0693,568.9869 71.4131,568.9869 Q72.0381,568.9869 72.6318,568.7212 Q73.2256,568.44 73.8506,567.8619 L73.8506,570.5806 Z " fill="#000000"/><text fill="#000000" font-family="sans-serif" font-size="14" lengthAdjust="spacing" textLength="49.1436" x="91.3818" y="569.7867">Cliente</text><line style="stroke:#181818;stroke-width:0.5;" x1="8" x2="191.4072" y1="580.94" y2="580.94"/><g data-visibility-modifier="PRIVATE_FIELD"><rect fill="none" height="6" style="stroke:#C82930;stroke-width:1;" width="6" x="15" y="591.5884"/></g><text fill="#000000" font-family="sans-serif" font-size="14" lengthAdjust="spacing" textLength="40.1953" x="27" y="597.9351">id: int</text><g data-visibility-modifier="PRIVATE_FIELD"><rect fill="none" height="6" style="stroke:#C82930;stroke-width:1;" width="6" x="15" y="607.8853"/></g><text fill="#000000" font-family="sans-serif" font-size="14" lengthAdjust="spacing" textLength="105.2803" x="27" y="614.232">nombre: String</text><g data-visibility-modifier="PRIVATE_FIELD"><rect fill="none" height="6" style="stroke:#C82930;stroke-width:1;" width="6" x="15" y="624.1822"/></g><text fill="#000000" font-family="sans-serif" font-size="14" lengthAdjust="spacing" textLength="89.5576" x="27" y="630.5289">email: String</text><g data-visibility-modifier="PRIVATE_FIELD"><rect fill="none" height="6" style="stroke:#C82930;stroke-width:1;" width="6" x="15" y="640.4791"/></g><text fill="#000000" font-family="sans-serif" font-size="14" lengthAdjust="spacing" textLength="77.7793" x="27" y="646.8257">tipo: String</text><g data-visibility-modifier="PRIVATE_FIELD"><rect fill="none" height="6" style="stroke:#C82930;stroke-width:1;" width="6" x="15" y="656.7759"/></g><text fill="#000000" font-family="sans-serif" font-size="14" lengthAdjust="spacing" textLength="159.4072" x="27" y="663.1226">pedidos: List&lt;Pedido&gt;</text><line style="stroke:#181818;stroke-width:0.5;" x1="8" x2="191.4072" y1="670.4244" y2="670.4244"/></g><!--class LineaPedido--><g class="entity" data-qualified-name="LineaPedido" data-source-line="37" id="ent0005"><rect fill="#F1F1F1" height="129.4844" rx="2.5" ry="2.5" style="stroke:#181818;stroke-width:0.5;" width="181.5791" x="226.91" y="548.94"/><ellipse cx="270.953" cy="564.94" fill="#ADD1B2" rx="11" ry="11" style="stroke:#181818;stroke-width:1;"/><path d="M273.9218,570.5806 Q273.3436,570.8775 272.703,571.0181 Q272.0624,571.1744 271.3593,571.1744 Q268.8593,571.1744 267.5311,569.5337 Q266.2186,567.8775 266.2186,564.7525 Q266.2186,561.6275 267.5311,559.9712 Q268.8593,558.315 271.3593,558.315 Q272.0624,558.315 272.703,558.4712 Q273.3593,558.6275 273.9218,558.9244 L273.9218,561.6431 Q273.2968,561.065 272.703,560.7994 Q272.1093,560.5181 271.4843,560.5181 Q270.1405,560.5181 269.453,561.5962 Q268.7655,562.6587 268.7655,564.7525 Q268.7655,566.8462 269.453,567.9244 Q270.1405,568.9869 271.4843,568.9869 Q272.1093,568.9869 272.703,568.7212 Q273.2968,568.44 273.9218,567.8619 L273.9218,570.5806 Z " fill="#000000"/><text fill="#000000" font-family="sans-serif" font-size="14" lengthAdjust="spacing" textLength="85.0391" x="291.407" y="569.7867">LineaPedido</text><line style="stroke:#181818;stroke-width:0.5;" x1="227.91" x2="407.4891" y1="580.94" y2="580.94"/><g data-visibility-modifier="PRIVATE_FIELD"><rect fill="none" height="6" style="stroke:#C82930;stroke-width:1;" width="6" x="234.91" y="591.5884"/></g><text fill="#000000" font-family="sans-serif" font-size="14" lengthAdjust="spacing" textLength="40.1953" x="246.91" y="597.9351">id: int</text><g data-visibility-modifier="PRIVATE_FIELD"><rect fill="none" height="6" style="stroke:#C82930;stroke-width:1;" width="6" x="234.91" y="607.8853"/></g><text fill="#000000" font-family="sans-serif" font-size="14" lengthAdjust="spacing" textLength="134.1621" x="246.91" y="614.232">producto: Producto</text><g data-visibility-modifier="PRIVATE_FIELD"><rect fill="none" height="6" style="stroke:#C82930;stroke-width:1;" width="6" x="234.91" y="624.1822"/></g><text fill="#000000" font-family="sans-serif" font-size="14" lengthAdjust="spacing" textLength="88.2998" x="246.91" y="630.5289">cantidad: int</text><g data-visibility-modifier="PRIVATE_FIELD"><rect fill="none" height="6" style="stroke:#C82930;stroke-width:1;" width="6" x="234.91" y="640.4791"/></g><text fill="#000000" font-family="sans-serif" font-size="14" lengthAdjust="spacing" textLength="155.5791" x="246.91" y="646.8257">precioUnitario: double</text><g data-visibility-modifier="PRIVATE_FIELD"><rect fill="none" height="6" style="stroke:#C82930;stroke-width:1;" width="6" x="234.91" y="656.7759"/></g><text fill="#000000" font-family="sans-serif" font-size="14" lengthAdjust="spacing" textLength="113.9482" x="246.91" y="663.1226">subtotal: double</text><line style="stroke:#181818;stroke-width:0.5;" x1="227.91" x2="407.4891" y1="670.4244" y2="670.4244"/></g><!--class Producto--><g class="entity" data-qualified-name="Producto" data-source-line="45" id="ent0006"><rect fill="#F1F1F1" height="113.1875" rx="2.5" ry="2.5" style="stroke:#181818;stroke-width:0.5;" width="166.2871" x="306.56" y="738.42"/><ellipse cx="354.3159" cy="754.42" fill="#ADD1B2" rx="11" ry="11" style="stroke:#181818;stroke-width:1;"/><path d="M357.2846,760.0606 Q356.7065,760.3575 356.0659,760.4981 Q355.4252,760.6544 354.7221,760.6544 Q352.2221,760.6544 350.894,759.0138 Q349.5815,757.3575 349.5815,754.2325 Q349.5815,751.1075 350.894,749.4513 Q352.2221,747.795 354.7221,747.795 Q355.4252,747.795 356.0659,747.9513 Q356.7221,748.1075 357.2846,748.4044 L357.2846,751.1231 Q356.6596,750.545 356.0659,750.2794 Q355.4721,749.9981 354.8471,749.9981 Q353.5034,749.9981 352.8159,751.0763 Q352.1284,752.1388 352.1284,754.2325 Q352.1284,756.3263 352.8159,757.4044 Q353.5034,758.4669 354.8471,758.4669 Q355.4721,758.4669 356.0659,758.2013 Q356.6596,757.92 357.2846,757.3419 L357.2846,760.0606 Z " fill="#000000"/><text fill="#000000" font-family="sans-serif" font-size="14" lengthAdjust="spacing" textLength="62.2754" x="374.8159" y="759.2667">Producto</text><line style="stroke:#181818;stroke-width:0.5;" x1="307.56" x2="471.8471" y1="770.42" y2="770.42"/><g data-visibility-modifier="PRIVATE_FIELD"><rect fill="none" height="6" style="stroke:#C82930;stroke-width:1;" width="6" x="314.56" y="781.0684"/></g><text fill="#000000" font-family="sans-serif" font-size="14" lengthAdjust="spacing" textLength="40.1953" x="326.56" y="787.4151">id: int</text><g data-visibility-modifier="PRIVATE_FIELD"><rect fill="none" height="6" style="stroke:#C82930;stroke-width:1;" width="6" x="314.56" y="797.3653"/></g><text fill="#000000" font-family="sans-serif" font-size="14" lengthAdjust="spacing" textLength="105.2803" x="326.56" y="803.712">nombre: String</text><g data-visibility-modifier="PRIVATE_FIELD"><rect fill="none" height="6" style="stroke:#C82930;stroke-width:1;" width="6" x="314.56" y="813.6622"/></g><text fill="#000000" font-family="sans-serif" font-size="14" lengthAdjust="spacing" textLength="100.29" x="326.56" y="820.0089">precio: double</text><g data-visibility-modifier="PRIVATE_FIELD"><rect fill="none" height="6" style="stroke:#C82930;stroke-width:1;" width="6" x="314.56" y="829.9591"/></g><text fill="#000000" font-family="sans-serif" font-size="14" lengthAdjust="spacing" textLength="140.2871" x="326.56" y="836.3057">categoriaIVA: String</text><line style="stroke:#181818;stroke-width:0.5;" x1="307.56" x2="471.8471" y1="843.6075" y2="843.6075"/></g><!--reverse link Tienda to Cliente--><g class="link" data-entity-1="ent0002" data-entity-2="ent0004" data-link-type="composition" data-source-line="52" id="lnk7"><path codeLine="52" d="M154.438,143.046 C134.068,160.186 124.58,172.94 112.7,196.48 C55.55,309.76 70.65,463.32 85.8,548.7" fill="none" id="Tienda-backto-Cliente" style="stroke:#181818;stroke-width:1;"/><polygon fill="#181818" points="163.62,135.32,156.4537,136.1224,154.438,143.046,161.6044,142.2437,163.62,135.32" style="stroke:#181818;stroke-width:1;"/><text fill="#000000" font-family="sans-serif" font-size="13" lengthAdjust="spacing" textLength="8.271" x="147.8891" y="136.3345">1</text><text fill="#000000" font-family="sans-serif" font-size="13" lengthAdjust="spacing" textLength="23.0356" x="60.0234" y="537.8464">0..*</text></g><!--reverse link Tienda to Producto--><g class="link" data-entity-1="ent0002" data-entity-2="ent0006" data-link-type="composition" data-source-line="53" id="lnk8"><path codeLine="53" d="M384.7304,142.0741 C405.3904,159.3741 415.04,172.44 426.7,196.48 C514.82,378.14 447.91,628.15 410.5,738.2" fill="none" id="Tienda-backto-Producto" style="stroke:#181818;stroke-width:1;"/><polygon fill="#181818" points="375.53,134.37,377.5622,141.2888,384.7304,142.0741,382.6982,135.1553,375.53,134.37" style="stroke:#181818;stroke-width:1;"/><text fill="#000000" font-family="sans-serif" font-size="13" lengthAdjust="spacing" textLength="8.271" x="383.2615" y="135.3177">1</text><text fill="#000000" font-family="sans-serif" font-size="13" lengthAdjust="spacing" textLength="23.0356" x="388.6352" y="727.4367">0..*</text></g><!--reverse link Tienda to Pedido--><g class="link" data-entity-1="ent0002" data-entity-2="ent0003" data-link-type="composition" data-source-line="54" id="lnk9"><path codeLine="54" d="M269.7,148.83 C269.7,166.93 269.7,175.4 269.7,196.23" fill="none" id="Tienda-backto-Pedido" style="stroke:#181818;stroke-width:1;"/><polygon fill="#181818" points="269.7,136.83,265.7,142.83,269.7,148.83,273.7,142.83,269.7,136.83" style="stroke:#181818;stroke-width:1;"/><text fill="#000000" font-family="sans-serif" font-size="13" lengthAdjust="spacing" textLength="8.271" x="261.3008" y="156.3894">1</text><text fill="#000000" font-family="sans-serif" font-size="13" lengthAdjust="spacing" textLength="23.0356" x="246.108" y="185.3609">0..*</text></g><!--reverse link Pedido to Cliente--><g class="link" data-entity-1="ent0003" data-entity-2="ent0004" data-link-type="composition" data-source-line="55" id="lnk10"><path codeLine="55" d="M158.6678,499.3946 C145.6678,520.1846 139.66,530.45 129.19,548.53" fill="none" id="Pedido-backto-Cliente" style="stroke:#181818;stroke-width:1;"/><polygon fill="#181818" points="165.03,489.22,158.4574,492.1866,158.6678,499.3946,165.2404,496.428,165.03,489.22" style="stroke:#181818;stroke-width:1;"/><text fill="#000000" font-family="sans-serif" font-size="13" lengthAdjust="spacing" textLength="8.271" x="151.4337" y="509.2316">1</text><text fill="#000000" font-family="sans-serif" font-size="13" lengthAdjust="spacing" textLength="8.271" x="123.9924" y="537.6578">1</text></g><!--link Cliente to Pedido--><g class="link" data-entity-1="ent0004" data-entity-2="ent0003" data-link-type="dependency" data-source-line="58" id="lnk13"><path codeLine="58" d="M151.95,548.53 C164.4,530.45 174.6666,515.0642 187.9666,494.2742" fill="none" id="Cliente-to-Pedido" style="stroke:#181818;stroke-width:1;"/><polygon fill="#181818" points="191.2,489.22,182.9805,494.6458,188.5055,493.4319,189.7195,498.9569,191.2,489.22" style="stroke:#181818;stroke-width:1;"/><text fill="#000000" font-family="sans-serif" font-size="13" lengthAdjust="spacing" textLength="8.271" x="149.2418" y="537.6578">1</text><text fill="#000000" font-family="sans-serif" font-size="13" lengthAdjust="spacing" textLength="23.0356" x="163.5603" y="509.2316">0..*</text></g><!--reverse link Pedido to LineaPedido--><g class="link" data-entity-1="ent0003" data-entity-2="ent0005" data-link-type="composition" data-source-line="56" id="lnk11"><path codeLine="56" d="M297.7781,501.0334 C301.4881,521.8234 303.03,530.45 306.26,548.53" fill="none" id="Pedido-backto-LineaPedido" style="stroke:#181818;stroke-width:1;"/><polygon fill="#181818" points="295.67,489.22,292.7863,495.8294,297.7781,501.0334,300.6618,494.424,295.67,489.22" style="stroke:#181818;stroke-width:1;"/><text fill="#000000" font-family="sans-serif" font-size="13" lengthAdjust="spacing" textLength="8.271" x="288.8098" y="509.2316">1</text><text fill="#000000" font-family="sans-serif" font-size="13" lengthAdjust="spacing" textLength="23.0356" x="280.7529" y="537.6578">1..*</text></g><!--link LineaPedido to Producto--><g class="link" data-entity-1="ent0005" data-entity-2="ent0006" data-link-type="dependency" data-source-line="57" id="lnk12"><path codeLine="57" d="M343.49,678.92 C351.24,698.22 357.446,713.6614 364.956,732.3814" fill="none" id="LineaPedido-to-Producto" style="stroke:#181818;stroke-width:1;"/><polygon fill="#181818" points="367.19,737.95,367.5514,728.1078,365.3283,733.3095,360.1266,731.0864,367.19,737.95" style="stroke:#181818;stroke-width:1;"/><text fill="#000000" font-family="sans-serif" font-size="13" lengthAdjust="spacing" textLength="8.271" x="337.7511" y="698.4948">1</text><text fill="#000000" font-family="sans-serif" font-size="13" lengthAdjust="spacing" textLength="8.271" x="355.9752" y="727.1563">1</text></g><?plantuml-src bLFBQiCm4BpxAuHFQOf3SpKbK9860Za4alPIUbXBIheWIqQI0wNqtolRik97VAWlnZkhdTNCc0emXfoGImRa9oBkIOXKUQPvIevMexpu8aFDAKKb-_MaVZsI2pVMWQ0Fd25JPlQGagj2DeJNmd5PFeaVj68bjPq1lr54wosRoM5BP2b1QVtNcTClICa6BFSLDn6O6jo2DlIxtbbVJ8bVpfS5IWuc9NiqzdbVVJGRh3nkbGMH4gRAJF2-6XG4BGNeOvdLNTLbEdstXjtxomY3GY05lU66bcuTDNduT7-qacVKEUY1n5nU4VHh3YZMlgMoSsI4v1hq5gWjDHmssmhFlYt_-0piULODgkMTzLKUUUOLdJ3jRj1ujU6WPh4OEbaqEVFsjCu4uevV4-I5JrfAsiorSG1faS6WcJkntYHQqAZwfXFZNGxbMsJzvF_Slw4QK52NwulI22umeT_H-3ytNiPadYGaVbeivd78yNqqN7S2haMBl7O1NDx6Zg3wN4VngAj-rPOag_eTgDjS1B3B_GS0?></g></svg>