<?plantuml 1.2026.2beta3?><svg xmlns="http://www.w3.org/2000/svg" xmlns:xlink="http://www.w3.org/1999/xlink" contentStyleType="text/css" data-diagram-type="CLASS" height="230px" preserveAspectRatio="none" style="width:389px;height:230px;background:#FFFFFF;" version="1.1" viewBox="0 0 389 230" width="389px" zoomAndPan="magnify"><defs/><g><!--class Cancion--><g class="entity" data-qualified-name="Cancion" data-source-line="3" id="ent0002"><rect fill="#F1F1F1" height="32" rx="2.5" ry="2.5" style="stroke:#181818;stroke-width:0.5;" width="88.2529" x="7" y="7"/><ellipse cx="22" cy="23" fill="#ADD1B2" rx="11" ry="11" style="stroke:#181818;stroke-width:1;"/><path d="M24.9688,28.6406 Q24.3906,28.9375 23.75,29.0781 Q23.1094,29.2344 22.4063,29.2344 Q19.9063,29.2344 18.5781,27.5938 Q17.2656,25.9375 17.2656,22.8125 Q17.2656,19.6875 18.5781,18.0313 Q19.9063,16.375 22.4063,16.375 Q23.1094,16.375 23.75,16.5313 Q24.4063,16.6875 24.9688,16.9844 L24.9688,19.7031 Q24.3438,19.125 23.75,18.8594 Q23.1563,18.5781 22.5313,18.5781 Q21.1875,18.5781 20.5,19.6563 Q19.8125,20.7188 19.8125,22.8125 Q19.8125,24.9063 20.5,25.9844 Q21.1875,27.0469 22.5313,27.0469 Q23.1563,27.0469 23.75,26.7813 Q24.3438,26.5 24.9688,25.9219 L24.9688,28.6406 Z " fill="#000000"/><text fill="#000000" font-family="sans-serif" font-size="14" lengthAdjust="spacing" textLength="56.2529" x="36" y="27.8467">Cancion</text></g><!--class Artista--><g class="entity" data-qualified-name="Artista" data-source-line="6" id="ent0003"><rect fill="#F1F1F1" height="32" rx="2.5" ry="2.5" style="stroke:#181818;stroke-width:0.5;" width="78.0742" x="130.09" y="7"/><ellipse cx="145.09" cy="23" fill="#ADD1B2" rx="11" ry="11" style="stroke:#181818;stroke-width:1;"/><path d="M148.0588,28.6406 Q147.4806,28.9375 146.84,29.0781 Q146.1994,29.2344 145.4963,29.2344 Q142.9963,29.2344 141.6681,27.5938 Q140.3556,25.9375 140.3556,22.8125 Q140.3556,19.6875 141.6681,18.0313 Q142.9963,16.375 145.4963,16.375 Q146.1994,16.375 146.84,16.5313 Q147.4963,16.6875 148.0588,16.9844 L148.0588,19.7031 Q147.4338,19.125 146.84,18.8594 Q146.2463,18.5781 145.6213,18.5781 Q144.2775,18.5781 143.59,19.6563 Q142.9025,20.7188 142.9025,22.8125 Q142.9025,24.9063 143.59,25.9844 Q144.2775,27.0469 145.6213,27.0469 Q146.2463,27.0469 146.84,26.7813 Q147.4338,26.5 148.0588,25.9219 L148.0588,28.6406 Z " fill="#000000"/><text fill="#000000" font-family="sans-serif" font-size="14" lengthAdjust="spacing" textLength="46.0742" x="159.09" y="27.8467">Artista</text></g><!--class Album--><g class="entity" data-qualified-name="Album" data-source-line="9" id="ent0004"><rect fill="#F1F1F1" height="32" rx="2.5" ry="2.5" style="stroke:#181818;stroke-width:0.5;" width="76.8643" x="242.69" y="7"/><ellipse cx="257.69" cy="23" fill="#ADD1B2" rx="11" ry="11" style="stroke:#181818;stroke-width:1;"/><path d="M260.6588,28.6406 Q260.0806,28.9375 259.44,29.0781 Q258.7994,29.2344 258.0963,29.2344 Q255.5963,29.2344 254.2681,27.5938 Q252.9556,25.9375 252.9556,22.8125 Q252.9556,19.6875 254.2681,18.0313 Q255.5963,16.375 258.0963,16.375 Q258.7994,16.375 259.44,16.5313 Q260.0963,16.6875 260.6588,16.9844 L260.6588,19.7031 Q260.0338,19.125 259.44,18.8594 Q258.8463,18.5781 258.2213,18.5781 Q256.8775,18.5781 256.19,19.6563 Q255.5025,20.7188 255.5025,22.8125 Q255.5025,24.9063 256.19,25.9844 Q256.8775,27.0469 258.2213,27.0469 Q258.8463,27.0469 259.44,26.7813 Q260.0338,26.5 260.6588,25.9219 L260.6588,28.6406 Z " fill="#000000"/><text fill="#000000" font-family="sans-serif" font-size="14" lengthAdjust="spacing" textLength="44.8643" x="271.69" y="27.8467">Album</text></g><!--class Estilo--><g class="entity" data-qualified-name="Estilo" data-source-line="12" id="ent0005"><rect fill="#F1F1F1" height="32" rx="2.5" ry="2.5" style="stroke:#181818;stroke-width:0.5;" width="69.9736" x="16.14" y="99"/><ellipse cx="31.14" cy="115" fill="#ADD1B2" rx="11" ry="11" style="stroke:#181818;stroke-width:1;"/><path d="M34.1088,120.6406 Q33.5306,120.9375 32.89,121.0781 Q32.2494,121.2344 31.5463,121.2344 Q29.0463,121.2344 27.7181,119.5938 Q26.4056,117.9375 26.4056,114.8125 Q26.4056,111.6875 27.7181,110.0313 Q29.0463,108.375 31.5463,108.375 Q32.2494,108.375 32.89,108.5313 Q33.5463,108.6875 34.1088,108.9844 L34.1088,111.7031 Q33.4838,111.125 32.89,110.8594 Q32.2963,110.5781 31.6713,110.5781 Q30.3275,110.5781 29.64,111.6563 Q28.9525,112.7188 28.9525,114.8125 Q28.9525,116.9063 29.64,117.9844 Q30.3275,119.0469 31.6713,119.0469 Q32.2963,119.0469 32.89,118.7813 Q33.4838,118.5 34.1088,117.9219 L34.1088,120.6406 Z " fill="#000000"/><text fill="#000000" font-family="sans-serif" font-size="14" lengthAdjust="spacing" textLength="37.9736" x="45.14" y="119.8467">Estilo</text></g><!--class Instrumento--><g class="entity" data-qualified-name="Instrumento" data-source-line="15" id="ent0006"><rect fill="#F1F1F1" height="32" rx="2.5" ry="2.5" style="stroke:#181818;stroke-width:0.5;" width="117.5928" x="121.33" y="99"/><ellipse cx="136.33" cy="115" fill="#ADD1B2" rx="11" ry="11" style="stroke:#181818;stroke-width:1;"/><path d="M139.2987,120.6406 Q138.7206,120.9375 138.08,121.0781 Q137.4394,121.2344 136.7362,121.2344 Q134.2362,121.2344 132.9081,119.5938 Q131.5956,117.9375 131.5956,114.8125 Q131.5956,111.6875 132.9081,110.0313 Q134.2362,108.375 136.7362,108.375 Q137.4394,108.375 138.08,108.5313 Q138.7362,108.6875 139.2987,108.9844 L139.2987,111.7031 Q138.6737,111.125 138.08,110.8594 Q137.4862,110.5781 136.8612,110.5781 Q135.5175,110.5781 134.83,111.6563 Q134.1425,112.7188 134.1425,114.8125 Q134.1425,116.9063 134.83,117.9844 Q135.5175,119.0469 136.8612,119.0469 Q137.4862,119.0469 138.08,118.7813 Q138.6737,118.5 139.2987,117.9219 L139.2987,120.6406 Z " fill="#000000"/><text fill="#000000" font-family="sans-serif" font-size="14" lengthAdjust="spacing" textLength="85.5928" x="150.33" y="119.8467">Instrumento</text></g><!--class Plataforma--><g class="entity" data-qualified-name="Plataforma" data-source-line="18" id="ent0007"><rect fill="#F1F1F1" height="32" rx="2.5" ry="2.5" style="stroke:#181818;stroke-width:0.5;" width="108.4463" x="273.9" y="99"/><ellipse cx="288.9" cy="115" fill="#ADD1B2" rx="11" ry="11" style="stroke:#181818;stroke-width:1;"/><path d="M291.8688,120.6406 Q291.2906,120.9375 290.65,121.0781 Q290.0094,121.2344 289.3063,121.2344 Q286.8063,121.2344 285.4781,119.5938 Q284.1656,117.9375 284.1656,114.8125 Q284.1656,111.6875 285.4781,110.0313 Q286.8063,108.375 289.3063,108.375 Q290.0094,108.375 290.65,108.5313 Q291.3063,108.6875 291.8688,108.9844 L291.8688,111.7031 Q291.2438,111.125 290.65,110.8594 Q290.0563,110.5781 289.4313,110.5781 Q288.0875,110.5781 287.4,111.6563 Q286.7125,112.7188 286.7125,114.8125 Q286.7125,116.9063 287.4,117.9844 Q288.0875,119.0469 289.4313,119.0469 Q290.0563,119.0469 290.65,118.7813 Q291.2438,118.5 291.8688,117.9219 L291.8688,120.6406 Z " fill="#000000"/><text fill="#000000" font-family="sans-serif" font-size="14" lengthAdjust="spacing" textLength="76.4463" x="302.9" y="119.8467">Plataforma</text></g><!--class Usuario--><g class="entity" data-qualified-name="Usuario" data-source-line="21" id="ent0008"><rect fill="#F1F1F1" height="32" rx="2.5" ry="2.5" style="stroke:#181818;stroke-width:0.5;" width="85.2041" x="8.52" y="191"/><ellipse cx="23.52" cy="207" fill="#ADD1B2" rx="11" ry="11" style="stroke:#181818;stroke-width:1;"/><path d="M26.4888,212.6406 Q25.9106,212.9375 25.27,213.0781 Q24.6294,213.2344 23.9263,213.2344 Q21.4263,213.2344 20.0981,211.5938 Q18.7856,209.9375 18.7856,206.8125 Q18.7856,203.6875 20.0981,202.0313 Q21.4263,200.375 23.9263,200.375 Q24.6294,200.375 25.27,200.5313 Q25.9263,200.6875 26.4888,200.9844 L26.4888,203.7031 Q25.8638,203.125 25.27,202.8594 Q24.6763,202.5781 24.0513,202.5781 Q22.7075,202.5781 22.02,203.6563 Q21.3325,204.7188 21.3325,206.8125 Q21.3325,208.9063 22.02,209.9844 Q22.7075,211.0469 24.0513,211.0469 Q24.6763,211.0469 25.27,210.7813 Q25.8638,210.5 26.4888,209.9219 L26.4888,212.6406 Z " fill="#000000"/><text fill="#000000" font-family="sans-serif" font-size="14" lengthAdjust="spacing" textLength="53.2041" x="37.52" y="211.8467">Usuario</text></g><!--class ListaDeReproduccion--><g class="entity" data-qualified-name="ListaDeReproduccion" data-source-line="24" id="ent0009"><rect fill="#F1F1F1" height="32" rx="2.5" ry="2.5" style="stroke:#181818;stroke-width:0.5;" width="180.4766" x="128.89" y="191"/><ellipse cx="143.89" cy="207" fill="#ADD1B2" rx="11" ry="11" style="stroke:#181818;stroke-width:1;"/><path d="M146.8588,212.6406 Q146.2806,212.9375 145.64,213.0781 Q144.9994,213.2344 144.2963,213.2344 Q141.7963,213.2344 140.4681,211.5938 Q139.1556,209.9375 139.1556,206.8125 Q139.1556,203.6875 140.4681,202.0313 Q141.7963,200.375 144.2963,200.375 Q144.9994,200.375 145.64,200.5313 Q146.2963,200.6875 146.8588,200.9844 L146.8588,203.7031 Q146.2338,203.125 145.64,202.8594 Q145.0463,202.5781 144.4213,202.5781 Q143.0775,202.5781 142.39,203.6563 Q141.7025,204.7188 141.7025,206.8125 Q141.7025,208.9063 142.39,209.9844 Q143.0775,211.0469 144.4213,211.0469 Q145.0463,211.0469 145.64,210.7813 Q146.2338,210.5 146.8588,209.9219 L146.8588,212.6406 Z " fill="#000000"/><text fill="#000000" font-family="sans-serif" font-size="14" lengthAdjust="spacing" textLength="148.4766" x="157.89" y="211.8467">ListaDeReproduccion</text></g><?plantuml-src LSv12eKm30JGVK_HguYw45o8u05YpST0qqgIBaIyk_o5OBUFOMPssj0Z7tPwHbvHrBaGGTMta0Bbv2ztlzI8aHfK5DV2N-ZLAEQl34bD2cEoYgS81hyiNFKjMa2e2ex_pGvdF2Hl9Rod7W00?></g></svg>