<?plantuml 1.2026.2beta3?><svg xmlns="http://www.w3.org/2000/svg" xmlns:xlink="http://www.w3.org/1999/xlink" contentStyleType="text/css" data-diagram-type="CLASS" height="631px" preserveAspectRatio="none" style="width:666px;height:631px;background:#FFFFFF;" version="1.1" viewBox="0 0 666 631" width="666px" zoomAndPan="magnify"><defs/><g><!--class Album--><g class="entity" data-qualified-name="Album" data-source-line="1" id="ent0002"><rect fill="#F1F1F1" height="80.5938" rx="2.5" ry="2.5" style="stroke:#181818;stroke-width:0.5;" width="197.5684" x="268.9" y="180.89"/><ellipse cx="341.0021" cy="196.89" fill="#ADD1B2" rx="11" ry="11" style="stroke:#181818;stroke-width:1;"/><path d="M343.9708,202.5306 Q343.3927,202.8275 342.7521,202.9681 Q342.1114,203.1244 341.4083,203.1244 Q338.9083,203.1244 337.5802,201.4838 Q336.2677,199.8275 336.2677,196.7025 Q336.2677,193.5775 337.5802,191.9213 Q338.9083,190.265 341.4083,190.265 Q342.1114,190.265 342.7521,190.4213 Q343.4083,190.5775 343.9708,190.8744 L343.9708,193.5931 Q343.3458,193.015 342.7521,192.7494 Q342.1583,192.4681 341.5333,192.4681 Q340.1896,192.4681 339.5021,193.5463 Q338.8146,194.6088 338.8146,196.7025 Q338.8146,198.7963 339.5021,199.8744 Q340.1896,200.9369 341.5333,200.9369 Q342.1583,200.9369 342.7521,200.6713 Q343.3458,200.39 343.9708,199.8119 L343.9708,202.5306 Z " fill="#000000"/><text fill="#000000" font-family="sans-serif" font-size="14" lengthAdjust="spacing" textLength="44.8643" x="361.5021" y="201.7367">Album</text><line style="stroke:#181818;stroke-width:0.5;" x1="269.9" x2="465.4684" y1="212.89" y2="212.89"/><g data-visibility-modifier="PUBLIC_FIELD"><ellipse cx="279.9" cy="226.5384" fill="none" rx="3" ry="3" style="stroke:#038048;stroke-width:1;"/></g><text fill="#000000" font-family="sans-serif" font-size="14" lengthAdjust="spacing" textLength="87.1445" x="288.9" y="229.8851">titulo: String</text><g data-visibility-modifier="PUBLIC_FIELD"><ellipse cx="279.9" cy="242.8353" fill="none" rx="3" ry="3" style="stroke:#038048;stroke-width:1;"/></g><text fill="#000000" font-family="sans-serif" font-size="14" lengthAdjust="spacing" textLength="171.5684" x="288.9" y="246.182">fechaLanzamiento: Date</text><line style="stroke:#181818;stroke-width:0.5;" x1="269.9" x2="465.4684" y1="253.4838" y2="253.4838"/></g><!--class Cancion--><g class="entity" data-qualified-name="Cancion" data-source-line="6" id="ent0003"><rect fill="#F1F1F1" height="80.5938" rx="2.5" ry="2.5" style="stroke:#181818;stroke-width:0.5;" width="215.5264" x="175.92" y="402.08"/><ellipse cx="251.3067" cy="418.08" fill="#ADD1B2" rx="11" ry="11" style="stroke:#181818;stroke-width:1;"/><path d="M254.2755,423.7206 Q253.6973,424.0175 253.0567,424.1581 Q252.4161,424.3144 251.713,424.3144 Q249.213,424.3144 247.8848,422.6738 Q246.5723,421.0175 246.5723,417.8925 Q246.5723,414.7675 247.8848,413.1113 Q249.213,411.455 251.713,411.455 Q252.4161,411.455 253.0567,411.6113 Q253.713,411.7675 254.2755,412.0644 L254.2755,414.7831 Q253.6505,414.205 253.0567,413.9394 Q252.463,413.6581 251.838,413.6581 Q250.4942,413.6581 249.8067,414.7363 Q249.1192,415.7988 249.1192,417.8925 Q249.1192,419.9863 249.8067,421.0644 Q250.4942,422.1269 251.838,422.1269 Q252.463,422.1269 253.0567,421.8613 Q253.6505,421.58 254.2755,421.0019 L254.2755,423.7206 Z " fill="#000000"/><text fill="#000000" font-family="sans-serif" font-size="14" lengthAdjust="spacing" textLength="56.2529" x="271.8067" y="422.9267">Cancion</text><line style="stroke:#181818;stroke-width:0.5;" x1="176.92" x2="390.4464" y1="434.08" y2="434.08"/><g data-visibility-modifier="PUBLIC_FIELD"><ellipse cx="186.92" cy="447.7284" fill="none" rx="3" ry="3" style="stroke:#038048;stroke-width:1;"/></g><text fill="#000000" font-family="sans-serif" font-size="14" lengthAdjust="spacing" textLength="87.1445" x="195.92" y="451.0751">titulo: String</text><g data-visibility-modifier="PUBLIC_FIELD"><ellipse cx="186.92" cy="464.0253" fill="none" rx="3" ry="3" style="stroke:#038048;stroke-width:1;"/></g><text fill="#000000" font-family="sans-serif" font-size="14" lengthAdjust="spacing" textLength="189.5264" x="195.92" y="467.372">duracionSegundos: Integer</text><line style="stroke:#181818;stroke-width:0.5;" x1="176.92" x2="390.4464" y1="474.6738" y2="474.6738"/></g><!--class Playlist--><g class="entity" data-qualified-name="Playlist" data-source-line="11" id="ent0004"><rect fill="#F1F1F1" height="80.5938" rx="2.5" ry="2.5" style="stroke:#181818;stroke-width:0.5;" width="158.0225" x="501.67" y="180.89"/><ellipse cx="551.5518" cy="196.89" fill="#ADD1B2" rx="11" ry="11" style="stroke:#181818;stroke-width:1;"/><path d="M554.5206,202.5306 Q553.9425,202.8275 553.3018,202.9681 Q552.6612,203.1244 551.9581,203.1244 Q549.4581,203.1244 548.13,201.4838 Q546.8175,199.8275 546.8175,196.7025 Q546.8175,193.5775 548.13,191.9213 Q549.4581,190.265 551.9581,190.265 Q552.6612,190.265 553.3018,190.4213 Q553.9581,190.5775 554.5206,190.8744 L554.5206,193.5931 Q553.8956,193.015 553.3018,192.7494 Q552.7081,192.4681 552.0831,192.4681 Q550.7393,192.4681 550.0518,193.5463 Q549.3643,194.6088 549.3643,196.7025 Q549.3643,198.7963 550.0518,199.8744 Q550.7393,200.9369 552.0831,200.9369 Q552.7081,200.9369 553.3018,200.6713 Q553.8956,200.39 554.5206,199.8119 L554.5206,202.5306 Z " fill="#000000"/><text fill="#000000" font-family="sans-serif" font-size="14" lengthAdjust="spacing" textLength="49.7588" x="572.0518" y="201.7367">Playlist</text><line style="stroke:#181818;stroke-width:0.5;" x1="502.67" x2="658.6925" y1="212.89" y2="212.89"/><g data-visibility-modifier="PUBLIC_FIELD"><ellipse cx="512.67" cy="226.5384" fill="none" rx="3" ry="3" style="stroke:#038048;stroke-width:1;"/></g><text fill="#000000" font-family="sans-serif" font-size="14" lengthAdjust="spacing" textLength="105.2803" x="521.67" y="229.8851">nombre: String</text><g data-visibility-modifier="PUBLIC_FIELD"><ellipse cx="512.67" cy="242.8353" fill="none" rx="3" ry="3" style="stroke:#038048;stroke-width:1;"/></g><text fill="#000000" font-family="sans-serif" font-size="14" lengthAdjust="spacing" textLength="132.0225" x="521.67" y="246.182">esPublica: Boolean</text><line style="stroke:#181818;stroke-width:0.5;" x1="502.67" x2="658.6925" y1="253.4838" y2="253.4838"/></g><!--class Plataforma--><g class="entity" data-qualified-name="Plataforma" data-source-line="16" id="ent0005"><rect fill="#F1F1F1" height="80.5938" rx="2.5" ry="2.5" style="stroke:#181818;stroke-width:0.5;" width="131.2803" x="355.04" y="15.15"/><ellipse cx="380.3153" cy="31.15" fill="#ADD1B2" rx="11" ry="11" style="stroke:#181818;stroke-width:1;"/><path d="M383.284,36.7906 Q382.7059,37.0875 382.0653,37.2281 Q381.4247,37.3844 380.7215,37.3844 Q378.2215,37.3844 376.8934,35.7437 Q375.5809,34.0875 375.5809,30.9625 Q375.5809,27.8375 376.8934,26.1812 Q378.2215,24.525 380.7215,24.525 Q381.4247,24.525 382.0653,24.6812 Q382.7215,24.8375 383.284,25.1344 L383.284,27.8531 Q382.659,27.275 382.0653,27.0094 Q381.4715,26.7281 380.8465,26.7281 Q379.5028,26.7281 378.8153,27.8062 Q378.1278,28.8687 378.1278,30.9625 Q378.1278,33.0562 378.8153,34.1344 Q379.5028,35.1969 380.8465,35.1969 Q381.4715,35.1969 382.0653,34.9312 Q382.659,34.65 383.284,34.0719 L383.284,36.7906 Z " fill="#000000"/><text fill="#000000" font-family="sans-serif" font-size="14" lengthAdjust="spacing" textLength="76.4463" x="396.5987" y="35.9967">Plataforma</text><line style="stroke:#181818;stroke-width:0.5;" x1="356.04" x2="485.3203" y1="47.15" y2="47.15"/><g data-visibility-modifier="PUBLIC_FIELD"><ellipse cx="366.04" cy="60.7984" fill="none" rx="3" ry="3" style="stroke:#038048;stroke-width:1;"/></g><text fill="#000000" font-family="sans-serif" font-size="14" lengthAdjust="spacing" textLength="105.2803" x="375.04" y="64.1451">nombre: String</text><g data-visibility-modifier="PUBLIC_FIELD"><ellipse cx="366.04" cy="77.0953" fill="none" rx="3" ry="3" style="stroke:#038048;stroke-width:1;"/></g><text fill="#000000" font-family="sans-serif" font-size="14" lengthAdjust="spacing" textLength="102.2246" x="375.04" y="80.442">version: String</text><line style="stroke:#181818;stroke-width:0.5;" x1="356.04" x2="485.3203" y1="87.7437" y2="87.7437"/></g><!--class Usuario--><g class="entity" data-qualified-name="Usuario" data-source-line="21" id="ent0006"><rect fill="#F1F1F1" height="96.8906" rx="2.5" ry="2.5" style="stroke:#181818;stroke-width:0.5;" width="170.6143" x="15.38" y="7"/><ellipse cx="69.8351" cy="23" fill="#ADD1B2" rx="11" ry="11" style="stroke:#181818;stroke-width:1;"/><path d="M72.8038,28.6406 Q72.2257,28.9375 71.5851,29.0781 Q70.9445,29.2344 70.2413,29.2344 Q67.7413,29.2344 66.4132,27.5938 Q65.1007,25.9375 65.1007,22.8125 Q65.1007,19.6875 66.4132,18.0313 Q67.7413,16.375 70.2413,16.375 Q70.9445,16.375 71.5851,16.5313 Q72.2413,16.6875 72.8038,16.9844 L72.8038,19.7031 Q72.1788,19.125 71.5851,18.8594 Q70.9913,18.5781 70.3663,18.5781 Q69.0226,18.5781 68.3351,19.6563 Q67.6476,20.7188 67.6476,22.8125 Q67.6476,24.9063 68.3351,25.9844 Q69.0226,27.0469 70.3663,27.0469 Q70.9913,27.0469 71.5851,26.7813 Q72.1788,26.5 72.8038,25.9219 L72.8038,28.6406 Z " fill="#000000"/><text fill="#000000" font-family="sans-serif" font-size="14" lengthAdjust="spacing" textLength="53.2041" x="90.3351" y="27.8467">Usuario</text><line style="stroke:#181818;stroke-width:0.5;" x1="16.38" x2="184.9943" y1="39" y2="39"/><g data-visibility-modifier="PUBLIC_FIELD"><ellipse cx="26.38" cy="52.6484" fill="none" rx="3" ry="3" style="stroke:#038048;stroke-width:1;"/></g><text fill="#000000" font-family="sans-serif" font-size="14" lengthAdjust="spacing" textLength="119.2188" x="35.38" y="55.9951">nickname: String</text><g data-visibility-modifier="PUBLIC_FIELD"><ellipse cx="26.38" cy="68.9453" fill="none" rx="3" ry="3" style="stroke:#038048;stroke-width:1;"/></g><text fill="#000000" font-family="sans-serif" font-size="14" lengthAdjust="spacing" textLength="89.5576" x="35.38" y="72.292">email: String</text><g data-visibility-modifier="PUBLIC_FIELD"><ellipse cx="26.38" cy="85.2422" fill="none" rx="3" ry="3" style="stroke:#038048;stroke-width:1;"/></g><text fill="#000000" font-family="sans-serif" font-size="14" lengthAdjust="spacing" textLength="144.6143" x="35.38" y="88.5889">esPremium: Boolean</text><line style="stroke:#181818;stroke-width:0.5;" x1="16.38" x2="184.9943" y1="95.8906" y2="95.8906"/></g><!--class Artista--><g class="entity" data-qualified-name="Artista" data-source-line="27" id="ent0007"><rect fill="#F1F1F1" height="80.5938" rx="2.5" ry="2.5" style="stroke:#181818;stroke-width:0.5;" width="215.3691" x="7" y="291.49"/><ellipse cx="87.3975" cy="307.49" fill="#ADD1B2" rx="11" ry="11" style="stroke:#181818;stroke-width:1;"/><path d="M90.3662,313.1306 Q89.7881,313.4275 89.1475,313.5681 Q88.5068,313.7244 87.8037,313.7244 Q85.3037,313.7244 83.9756,312.0838 Q82.6631,310.4275 82.6631,307.3025 Q82.6631,304.1775 83.9756,302.5213 Q85.3037,300.865 87.8037,300.865 Q88.5068,300.865 89.1475,301.0213 Q89.8037,301.1775 90.3662,301.4744 L90.3662,304.1931 Q89.7412,303.615 89.1475,303.3494 Q88.5537,303.0681 87.9287,303.0681 Q86.585,303.0681 85.8975,304.1463 Q85.21,305.2088 85.21,307.3025 Q85.21,309.3963 85.8975,310.4744 Q86.585,311.5369 87.9287,311.5369 Q88.5537,311.5369 89.1475,311.2713 Q89.7412,310.99 90.3662,310.4119 L90.3662,313.1306 Z " fill="#000000"/><text fill="#000000" font-family="sans-serif" font-size="14" lengthAdjust="spacing" textLength="46.0742" x="107.8975" y="312.3367">Artista</text><line style="stroke:#181818;stroke-width:0.5;" x1="8" x2="221.3691" y1="323.49" y2="323.49"/><g data-visibility-modifier="PUBLIC_FIELD"><ellipse cx="18" cy="337.1384" fill="none" rx="3" ry="3" style="stroke:#038048;stroke-width:1;"/></g><text fill="#000000" font-family="sans-serif" font-size="14" lengthAdjust="spacing" textLength="162.9277" x="27" y="340.4851">nombreArtistico: String</text><g data-visibility-modifier="PUBLIC_FIELD"><ellipse cx="18" cy="353.4353" fill="none" rx="3" ry="3" style="stroke:#038048;stroke-width:1;"/></g><text fill="#000000" font-family="sans-serif" font-size="14" lengthAdjust="spacing" textLength="189.3691" x="27" y="356.782">oyentesMensuales: Integer</text><line style="stroke:#181818;stroke-width:0.5;" x1="8" x2="221.3691" y1="364.0838" y2="364.0838"/></g><!--class EstiloMusical--><g class="entity" data-qualified-name="EstiloMusical" data-source-line="32" id="ent0008"><rect fill="#F1F1F1" height="80.5938" rx="2.5" ry="2.5" style="stroke:#181818;stroke-width:0.5;" width="197.8623" x="40.75" y="543.68"/><ellipse cx="90.2935" cy="559.68" fill="#ADD1B2" rx="11" ry="11" style="stroke:#181818;stroke-width:1;"/><path d="M93.2622,565.3206 Q92.6841,565.6175 92.0435,565.7581 Q91.4028,565.9144 90.6997,565.9144 Q88.1997,565.9144 86.8716,564.2738 Q85.5591,562.6175 85.5591,559.4925 Q85.5591,556.3675 86.8716,554.7113 Q88.1997,553.055 90.6997,553.055 Q91.4028,553.055 92.0435,553.2113 Q92.6997,553.3675 93.2622,553.6644 L93.2622,556.3831 Q92.6372,555.805 92.0435,555.5394 Q91.4497,555.2581 90.8247,555.2581 Q89.481,555.2581 88.7935,556.3363 Q88.106,557.3988 88.106,559.4925 Q88.106,561.5863 88.7935,562.6644 Q89.481,563.7269 90.8247,563.7269 Q91.4497,563.7269 92.0435,563.4613 Q92.6372,563.18 93.2622,562.6019 L93.2622,565.3206 Z " fill="#000000"/><text fill="#000000" font-family="sans-serif" font-size="14" lengthAdjust="spacing" textLength="90.2754" x="110.7935" y="564.5267">EstiloMusical</text><line style="stroke:#181818;stroke-width:0.5;" x1="41.75" x2="237.6123" y1="575.68" y2="575.68"/><g data-visibility-modifier="PUBLIC_FIELD"><ellipse cx="51.75" cy="589.3284" fill="none" rx="3" ry="3" style="stroke:#038048;stroke-width:1;"/></g><text fill="#000000" font-family="sans-serif" font-size="14" lengthAdjust="spacing" textLength="105.2803" x="60.75" y="592.6751">nombre: String</text><g data-visibility-modifier="PUBLIC_FIELD"><ellipse cx="51.75" cy="605.6253" fill="none" rx="3" ry="3" style="stroke:#038048;stroke-width:1;"/></g><text fill="#000000" font-family="sans-serif" font-size="14" lengthAdjust="spacing" textLength="171.8623" x="60.75" y="608.972">origenGeografico: String</text><line style="stroke:#181818;stroke-width:0.5;" x1="41.75" x2="237.6123" y1="616.2738" y2="616.2738"/></g><!--class Reproductor--><g class="entity" data-qualified-name="Reproductor" data-source-line="37" id="ent0009"><rect fill="#F1F1F1" height="80.5938" rx="2.5" ry="2.5" style="stroke:#181818;stroke-width:0.5;" width="146.2646" x="87.55" y="180.89"/><ellipse cx="114.9017" cy="196.89" fill="#ADD1B2" rx="11" ry="11" style="stroke:#181818;stroke-width:1;"/><path d="M117.8705,202.5306 Q117.2923,202.8275 116.6517,202.9681 Q116.0111,203.1244 115.308,203.1244 Q112.808,203.1244 111.4798,201.4838 Q110.1673,199.8275 110.1673,196.7025 Q110.1673,193.5775 111.4798,191.9213 Q112.808,190.265 115.308,190.265 Q116.0111,190.265 116.6517,190.4213 Q117.308,190.5775 117.8705,190.8744 L117.8705,193.5931 Q117.2455,193.015 116.6517,192.7494 Q116.058,192.4681 115.433,192.4681 Q114.0892,192.4681 113.4017,193.5463 Q112.7142,194.6088 112.7142,196.7025 Q112.7142,198.7963 113.4017,199.8744 Q114.0892,200.9369 115.433,200.9369 Q116.058,200.9369 116.6517,200.6713 Q117.2455,200.39 117.8705,199.8119 L117.8705,202.5306 Z " fill="#000000"/><text fill="#000000" font-family="sans-serif" font-size="14" lengthAdjust="spacing" textLength="86.8164" x="131.6465" y="201.7367">Reproductor</text><line style="stroke:#181818;stroke-width:0.5;" x1="88.55" x2="232.8146" y1="212.89" y2="212.89"/><g data-visibility-modifier="PUBLIC_FIELD"><ellipse cx="98.55" cy="226.5384" fill="none" rx="3" ry="3" style="stroke:#038048;stroke-width:1;"/></g><text fill="#000000" font-family="sans-serif" font-size="14" lengthAdjust="spacing" textLength="120.2646" x="107.55" y="229.8851">volumen: Integer</text><g data-visibility-modifier="PUBLIC_FIELD"><ellipse cx="98.55" cy="242.8353" fill="none" rx="3" ry="3" style="stroke:#038048;stroke-width:1;"/></g><text fill="#000000" font-family="sans-serif" font-size="14" lengthAdjust="spacing" textLength="98.376" x="107.55" y="246.182">estado: String</text><line style="stroke:#181818;stroke-width:0.5;" x1="88.55" x2="232.8146" y1="253.4838" y2="253.4838"/></g><!--reverse link Album to Cancion--><g class="link" data-entity-1="ent0002" data-entity-2="ent0003" data-link-type="composition" data-source-line="42" id="lnk10"><path codeLine="42" d="M348.1782,273.0863 C333.0082,312.6963 314.11,361.98 298.92,401.61" fill="none" id="Album-backto-Cancion" style="stroke:#181818;stroke-width:1;"/><polygon fill="#181818" points="352.47,261.88,346.5887,266.0525,348.1782,273.0863,354.0595,268.9137,352.47,261.88" style="stroke:#181818;stroke-width:1;"/></g><!--reverse link Playlist to Cancion--><g class="link" data-entity-1="ent0004" data-entity-2="ent0003" data-link-type="aggregation" data-source-line="43" id="lnk11"><path codeLine="43" d="M517.2454,269.0067 C463.5854,308.6167 391.26,361.98 337.57,401.61" fill="none" id="Playlist-backto-Cancion" style="stroke:#181818;stroke-width:1;"/><polygon fill="none" points="526.9,261.88,519.6972,262.2251,517.2454,269.0067,524.4483,268.6615,526.9,261.88" style="stroke:#181818;stroke-width:1;"/></g><!--reverse link Plataforma to Album--><g class="link" data-entity-1="ent0005" data-entity-2="ent0002" data-link-type="aggregation" data-source-line="44" id="lnk12"><path codeLine="44" d="M404.1556,107.5071 C395.8556,133.1571 388.79,155 380.49,180.64" fill="none" id="Plataforma-backto-Album" style="stroke:#181818;stroke-width:1;"/><polygon fill="none" points="407.85,96.09,402.1971,100.5671,404.1556,107.5071,409.8085,103.03,407.85,96.09" style="stroke:#181818;stroke-width:1;"/></g><!--reverse link Plataforma to Playlist--><g class="link" data-entity-1="ent0005" data-entity-2="ent0004" data-link-type="aggregation" data-source-line="45" id="lnk13"><path codeLine="45" d="M467.806,104.6734 C492.866,130.3234 516.99,155 542.03,180.64" fill="none" id="Plataforma-backto-Playlist" style="stroke:#181818;stroke-width:1;"/><polygon fill="none" points="459.42,96.09,460.7519,103.177,467.806,104.6734,466.4741,97.5864,459.42,96.09" style="stroke:#181818;stroke-width:1;"/></g><!--link Usuario to Artista--><g class="link" data-entity-1="ent0006" data-entity-2="ent0007" data-link-type="dependency" data-source-line="46" id="lnk14"><path codeLine="46" d="M81.93,104.08 C68.08,146.16 54.09,208.85 69.68,261.49 C72.74,271.8 74.7266,276.9093 80.4466,286.2093" fill="none" id="Usuario-to-Artista" style="stroke:#181818;stroke-width:1;"/><polygon fill="#181818" points="83.59,291.32,82.2821,281.5584,80.9705,287.0611,75.4678,285.7495,83.59,291.32" style="stroke:#181818;stroke-width:1;"/><text fill="#000000" font-family="sans-serif" font-size="13" lengthAdjust="spacing" textLength="46.9727" x="73.68" y="146.9569">sigue a</text></g><!--link Usuario to Usuario--><g class="link" data-entity-1="ent0006" data-entity-2="ent0006" data-link-type="dependency" data-source-line="47" id="lnk15"><path codeLine="47" d="M186.38,39.49 C206.32,40.83 220.99,46.15 220.99,55.45 C220.99,64.75 212.3065,69.6677 192.3665,71.0077" fill="none" id="Usuario-to-Usuario" style="stroke:#181818;stroke-width:1;"/><polygon fill="#181818" points="186.38,71.41,195.6279,74.7975,191.3687,71.0747,195.0915,66.8155,186.38,71.41" style="stroke:#181818;stroke-width:1;"/><text fill="#000000" font-family="sans-serif" font-size="13" lengthAdjust="spacing" textLength="47.2202" x="226.99" y="60.0169">amigos</text></g><!--link Artista to EstiloMusical--><g class="link" data-entity-1="ent0007" data-entity-2="ent0008" data-link-type="dependency" data-source-line="48" id="lnk16"><path codeLine="48" d="M118.65,372.43 C123.33,419.28 130.4739,490.7797 135.1439,537.5497" fill="none" id="Artista-to-EstiloMusical" style="stroke:#181818;stroke-width:1;"/><polygon fill="#181818" points="135.74,543.52,138.826,534.1671,135.2432,538.5447,130.8656,534.962,135.74,543.52" style="stroke:#181818;stroke-width:1;"/></g><!--link Cancion to EstiloMusical--><g class="link" data-entity-1="ent0003" data-entity-2="ent0008" data-link-type="dependency" data-source-line="49" id="lnk17"><path codeLine="49" d="M242.81,483.01 C223.35,501.87 204.4474,520.1931 184.9774,539.0731" fill="none" id="Cancion-to-EstiloMusical" style="stroke:#181818;stroke-width:1;"/><polygon fill="#181818" points="180.67,543.25,189.9157,539.8563,184.2595,539.7693,184.3465,534.1131,180.67,543.25" style="stroke:#181818;stroke-width:1;"/></g><!--link Reproductor to Cancion--><g class="link" data-entity-1="ent0009" data-entity-2="ent0003" data-link-type="dependency" data-source-line="50" id="lnk18"><path codeLine="50" d="M214.31,261.73 C223.79,270.67 232.81,280.72 239.68,291.49 C261.21,325.21 271.475,363.9253 277.205,395.6953" fill="none" id="Reproductor-to-Cancion" style="stroke:#181818;stroke-width:1;stroke-dasharray:7,7;"/><polygon fill="#181818" points="278.27,401.6,280.609,392.0329,277.3825,396.6794,272.7361,393.4529,278.27,401.6" style="stroke:#181818;stroke-width:1;"/></g><!--link Usuario to Reproductor--><g class="link" data-entity-1="ent0006" data-entity-2="ent0009" data-link-type="dependency" data-source-line="51" id="lnk19"><path codeLine="51" d="M118.2,104.25 C127.09,128.51 135.6958,151.9963 144.1158,174.9763" fill="none" id="Usuario-to-Reproductor" style="stroke:#181818;stroke-width:1;stroke-dasharray:7,7;"/><polygon fill="#181818" points="146.18,180.61,146.8395,170.7832,144.4598,175.9152,139.3278,173.5356,146.18,180.61" style="stroke:#181818;stroke-width:1;"/></g><?plantuml-src TLBBQWCn3BpxAtnksNp07WBfWr9883Jq0xHUnJMrfU9782tzztetyIPEaviPQSQZaPI54EJ2Tid97o7blOmc9ikjt4HlI8_G5jK7B86-mHcac8jF457y2g56-YEGCaot1VhaOUZOe4xKSsZbAqNKw4yQQmjxQq8yYX2xpcCbWc6TEciKjFA1sI9GnOwmPU_WDd-7FcGF4pQHtqC2RxWmZVeaS1T_Ep3sqer7PvAxucRXOvwajdB0ZAg3uNtE4yCAANkmU2sOvyool4eXJsvlJyVUQAGNPErXU_xD9FI6Nvxxf2BxeyoERN98fqyFWqNeA_hXEkwQfYnQJClY6Ymx6E2HTGaMeYYPDyryYgkLmUY44gfgURSoNv_c84hxKAp24UKE_rVEPv_DvfFd8ZvWPpr_?></g></svg>