<?plantuml 1.2026.2beta3?><svg xmlns="http://www.w3.org/2000/svg" xmlns:xlink="http://www.w3.org/1999/xlink" contentStyleType="text/css" data-diagram-type="CLASS" height="583px" preserveAspectRatio="none" style="width:1152px;height:583px;background:#FFFFFF;" version="1.1" viewBox="0 0 1152 583" width="1152px" zoomAndPan="magnify"><defs/><g><!--class Usuario--><g class="entity" data-qualified-name="Usuario" data-source-line="3" id="ent0002"><rect fill="#F1F1F1" height="96.8906" rx="2.5" ry="2.5" style="stroke:#181818;stroke-width:0.5;" width="161.666" x="241.38" y="7"/><ellipse cx="291.361" cy="23" fill="#ADD1B2" rx="11" ry="11" style="stroke:#181818;stroke-width:1;"/><path d="M294.3297,28.6406 Q293.7516,28.9375 293.111,29.0781 Q292.4703,29.2344 291.7672,29.2344 Q289.2672,29.2344 287.9391,27.5938 Q286.6266,25.9375 286.6266,22.8125 Q286.6266,19.6875 287.9391,18.0313 Q289.2672,16.375 291.7672,16.375 Q292.4703,16.375 293.111,16.5313 Q293.7672,16.6875 294.3297,16.9844 L294.3297,19.7031 Q293.7047,19.125 293.111,18.8594 Q292.5172,18.5781 291.8922,18.5781 Q290.5485,18.5781 289.861,19.6563 Q289.1735,20.7188 289.1735,22.8125 Q289.1735,24.9063 289.861,25.9844 Q290.5485,27.0469 291.8922,27.0469 Q292.5172,27.0469 293.111,26.7813 Q293.7047,26.5 294.3297,25.9219 L294.3297,28.6406 Z " fill="#000000"/><text fill="#000000" font-family="sans-serif" font-size="14" lengthAdjust="spacing" textLength="53.2041" x="311.861" y="27.8467">Usuario</text><line style="stroke:#181818;stroke-width:0.5;" x1="242.38" x2="402.046" y1="39" y2="39"/><text fill="#000000" font-family="sans-serif" font-size="14" lengthAdjust="spacing" textLength="124.2705" x="247.38" y="55.9951">-nickname: String</text><text fill="#000000" font-family="sans-serif" font-size="14" lengthAdjust="spacing" textLength="94.6094" x="247.38" y="72.292">-email: String</text><text fill="#000000" font-family="sans-serif" font-size="14" lengthAdjust="spacing" textLength="149.666" x="247.38" y="88.5889">-esPremium: Boolean</text><line style="stroke:#181818;stroke-width:0.5;" x1="242.38" x2="402.046" y1="95.8906" y2="95.8906"/></g><!--class Suscripcion--><g class="entity" data-qualified-name="Suscripcion" data-source-line="9" id="ent0003"><rect fill="#F1F1F1" height="80.5938" rx="2.5" ry="2.5" style="stroke:#181818;stroke-width:0.5;" width="147.2217" x="248.6" y="180.89"/><ellipse cx="279.3109" cy="196.89" fill="#ADD1B2" rx="11" ry="11" style="stroke:#181818;stroke-width:1;"/><path d="M282.2796,202.5306 Q281.7015,202.8275 281.0609,202.9681 Q280.4203,203.1244 279.7171,203.1244 Q277.2171,203.1244 275.889,201.4838 Q274.5765,199.8275 274.5765,196.7025 Q274.5765,193.5775 275.889,191.9213 Q277.2171,190.265 279.7171,190.265 Q280.4203,190.265 281.0609,190.4213 Q281.7171,190.5775 282.2796,190.8744 L282.2796,193.5931 Q281.6546,193.015 281.0609,192.7494 Q280.4671,192.4681 279.8421,192.4681 Q278.4984,192.4681 277.8109,193.5463 Q277.1234,194.6088 277.1234,196.7025 Q277.1234,198.7963 277.8109,199.8744 Q278.4984,200.9369 279.8421,200.9369 Q280.4671,200.9369 281.0609,200.6713 Q281.6546,200.39 282.2796,199.8119 L282.2796,202.5306 Z " fill="#000000"/><text fill="#000000" font-family="sans-serif" font-size="14" lengthAdjust="spacing" textLength="80.3086" x="296.8022" y="201.7367">Suscripcion</text><line style="stroke:#181818;stroke-width:0.5;" x1="249.6" x2="394.8217" y1="212.89" y2="212.89"/><text fill="#000000" font-family="sans-serif" font-size="14" lengthAdjust="spacing" textLength="82.8311" x="254.6" y="229.8851">-tipo: String</text><text fill="#000000" font-family="sans-serif" font-size="14" lengthAdjust="spacing" textLength="135.2217" x="254.6" y="246.182">-precioMes: Double</text><line style="stroke:#181818;stroke-width:0.5;" x1="249.6" x2="394.8217" y1="253.4838" y2="253.4838"/></g><!--class Plataforma--><g class="entity" data-qualified-name="Plataforma" data-source-line="14" id="ent0004"><rect fill="#F1F1F1" height="80.5938" rx="2.5" ry="2.5" style="stroke:#181818;stroke-width:0.5;" width="122.332" x="669.04" y="15.15"/><ellipse cx="690.2886" cy="31.15" fill="#ADD1B2" rx="11" ry="11" style="stroke:#181818;stroke-width:1;"/><path d="M693.2573,36.7906 Q692.6792,37.0875 692.0386,37.2281 Q691.398,37.3844 690.6948,37.3844 Q688.1948,37.3844 686.8667,35.7437 Q685.5542,34.0875 685.5542,30.9625 Q685.5542,27.8375 686.8667,26.1812 Q688.1948,24.525 690.6948,24.525 Q691.398,24.525 692.0386,24.6812 Q692.6948,24.8375 693.2573,25.1344 L693.2573,27.8531 Q692.6323,27.275 692.0386,27.0094 Q691.4448,26.7281 690.8198,26.7281 Q689.4761,26.7281 688.7886,27.8062 Q688.1011,28.8687 688.1011,30.9625 Q688.1011,33.0562 688.7886,34.1344 Q689.4761,35.1969 690.8198,35.1969 Q691.4448,35.1969 692.0386,34.9312 Q692.6323,34.65 693.2573,34.0719 L693.2573,36.7906 Z " fill="#000000"/><text fill="#000000" font-family="sans-serif" font-size="14" lengthAdjust="spacing" textLength="76.4463" x="705.6772" y="35.9967">Plataforma</text><line style="stroke:#181818;stroke-width:0.5;" x1="670.04" x2="790.372" y1="47.15" y2="47.15"/><text fill="#000000" font-family="sans-serif" font-size="14" lengthAdjust="spacing" textLength="110.332" x="675.04" y="64.1451">-nombre: String</text><text fill="#000000" font-family="sans-serif" font-size="14" lengthAdjust="spacing" textLength="107.2764" x="675.04" y="80.442">-version: String</text><line style="stroke:#181818;stroke-width:0.5;" x1="670.04" x2="790.372" y1="87.7437" y2="87.7437"/></g><!--class Album--><g class="entity" data-qualified-name="Album" data-source-line="19" id="ent0005"><rect fill="#F1F1F1" height="80.5938" rx="2.5" ry="2.5" style="stroke:#181818;stroke-width:0.5;" width="188.6201" x="772.9" y="180.89"/><ellipse cx="840.5279" cy="196.89" fill="#ADD1B2" rx="11" ry="11" style="stroke:#181818;stroke-width:1;"/><path d="M843.4967,202.5306 Q842.9186,202.8275 842.2779,202.9681 Q841.6373,203.1244 840.9342,203.1244 Q838.4342,203.1244 837.1061,201.4838 Q835.7936,199.8275 835.7936,196.7025 Q835.7936,193.5775 837.1061,191.9213 Q838.4342,190.265 840.9342,190.265 Q841.6373,190.265 842.2779,190.4213 Q842.9342,190.5775 843.4967,190.8744 L843.4967,193.5931 Q842.8717,193.015 842.2779,192.7494 Q841.6842,192.4681 841.0592,192.4681 Q839.7154,192.4681 839.0279,193.5463 Q838.3404,194.6088 838.3404,196.7025 Q838.3404,198.7963 839.0279,199.8744 Q839.7154,200.9369 841.0592,200.9369 Q841.6842,200.9369 842.2779,200.6713 Q842.8717,200.39 843.4967,199.8119 L843.4967,202.5306 Z " fill="#000000"/><text fill="#000000" font-family="sans-serif" font-size="14" lengthAdjust="spacing" textLength="44.8643" x="861.0279" y="201.7367">Album</text><line style="stroke:#181818;stroke-width:0.5;" x1="773.9" x2="960.5201" y1="212.89" y2="212.89"/><text fill="#000000" font-family="sans-serif" font-size="14" lengthAdjust="spacing" textLength="92.1963" x="778.9" y="229.8851">-titulo: String</text><text fill="#000000" font-family="sans-serif" font-size="14" lengthAdjust="spacing" textLength="176.6201" x="778.9" y="246.182">-fechaLanzamiento: Date</text><line style="stroke:#181818;stroke-width:0.5;" x1="773.9" x2="960.5201" y1="253.4838" y2="253.4838"/></g><!--class Playlist--><g class="entity" data-qualified-name="Playlist" data-source-line="24" id="ent0006"><rect fill="#F1F1F1" height="80.5938" rx="2.5" ry="2.5" style="stroke:#181818;stroke-width:0.5;" width="149.0742" x="996.67" y="180.89"/><ellipse cx="1042.0777" cy="196.89" fill="#ADD1B2" rx="11" ry="11" style="stroke:#181818;stroke-width:1;"/><path d="M1045.0465,202.5306 Q1044.4683,202.8275 1043.8277,202.9681 Q1043.1871,203.1244 1042.484,203.1244 Q1039.984,203.1244 1038.6558,201.4838 Q1037.3433,199.8275 1037.3433,196.7025 Q1037.3433,193.5775 1038.6558,191.9213 Q1039.984,190.265 1042.484,190.265 Q1043.1871,190.265 1043.8277,190.4213 Q1044.484,190.5775 1045.0465,190.8744 L1045.0465,193.5931 Q1044.4215,193.015 1043.8277,192.7494 Q1043.234,192.4681 1042.609,192.4681 Q1041.2652,192.4681 1040.5777,193.5463 Q1039.8902,194.6088 1039.8902,196.7025 Q1039.8902,198.7963 1040.5777,199.8744 Q1041.2652,200.9369 1042.609,200.9369 Q1043.234,200.9369 1043.8277,200.6713 Q1044.4215,200.39 1045.0465,199.8119 L1045.0465,202.5306 Z " fill="#000000"/><text fill="#000000" font-family="sans-serif" font-size="14" lengthAdjust="spacing" textLength="49.7588" x="1062.5777" y="201.7367">Playlist</text><line style="stroke:#181818;stroke-width:0.5;" x1="997.67" x2="1144.7442" y1="212.89" y2="212.89"/><text fill="#000000" font-family="sans-serif" font-size="14" lengthAdjust="spacing" textLength="110.332" x="1002.67" y="229.8851">-nombre: String</text><text fill="#000000" font-family="sans-serif" font-size="14" lengthAdjust="spacing" textLength="137.0742" x="1002.67" y="246.182">-esPublica: Boolean</text><line style="stroke:#181818;stroke-width:0.5;" x1="997.67" x2="1144.7442" y1="253.4838" y2="253.4838"/></g><!--class Reproductor--><g class="entity" data-qualified-name="Reproductor" data-source-line="29" id="ent0007"><rect fill="#F1F1F1" height="80.5938" rx="2.5" ry="2.5" style="stroke:#181818;stroke-width:0.5;" width="137.3164" x="430.55" y="180.89"/><ellipse cx="453.875" cy="196.89" fill="#ADD1B2" rx="11" ry="11" style="stroke:#181818;stroke-width:1;"/><path d="M456.8438,202.5306 Q456.2656,202.8275 455.625,202.9681 Q454.9844,203.1244 454.2813,203.1244 Q451.7813,203.1244 450.4531,201.4838 Q449.1406,199.8275 449.1406,196.7025 Q449.1406,193.5775 450.4531,191.9213 Q451.7813,190.265 454.2813,190.265 Q454.9844,190.265 455.625,190.4213 Q456.2813,190.5775 456.8438,190.8744 L456.8438,193.5931 Q456.2188,193.015 455.625,192.7494 Q455.0313,192.4681 454.4063,192.4681 Q453.0625,192.4681 452.375,193.5463 Q451.6875,194.6088 451.6875,196.7025 Q451.6875,198.7963 452.375,199.8744 Q453.0625,200.9369 454.4063,200.9369 Q455.0313,200.9369 455.625,200.6713 Q456.2188,200.39 456.8438,199.8119 L456.8438,202.5306 Z " fill="#000000"/><text fill="#000000" font-family="sans-serif" font-size="14" lengthAdjust="spacing" textLength="86.8164" x="469.725" y="201.7367">Reproductor</text><line style="stroke:#181818;stroke-width:0.5;" x1="431.55" x2="566.8664" y1="212.89" y2="212.89"/><text fill="#000000" font-family="sans-serif" font-size="14" lengthAdjust="spacing" textLength="125.3164" x="436.55" y="229.8851">-volumen: Integer</text><text fill="#000000" font-family="sans-serif" font-size="14" lengthAdjust="spacing" textLength="103.4277" x="436.55" y="246.182">-estado: String</text><line style="stroke:#181818;stroke-width:0.5;" x1="431.55" x2="566.8664" y1="253.4838" y2="253.4838"/></g><!--class Artista--><g class="entity" data-qualified-name="Artista" data-source-line="34" id="ent0008"><rect fill="#F1F1F1" height="80.5938" rx="2.5" ry="2.5" style="stroke:#181818;stroke-width:0.5;" width="206.4209" x="7" y="180.89"/><ellipse cx="82.9233" cy="196.89" fill="#ADD1B2" rx="11" ry="11" style="stroke:#181818;stroke-width:1;"/><path d="M85.8921,202.5306 Q85.314,202.8275 84.6733,202.9681 Q84.0327,203.1244 83.3296,203.1244 Q80.8296,203.1244 79.5015,201.4838 Q78.189,199.8275 78.189,196.7025 Q78.189,193.5775 79.5015,191.9213 Q80.8296,190.265 83.3296,190.265 Q84.0327,190.265 84.6733,190.4213 Q85.3296,190.5775 85.8921,190.8744 L85.8921,193.5931 Q85.2671,193.015 84.6733,192.7494 Q84.0796,192.4681 83.4546,192.4681 Q82.1108,192.4681 81.4233,193.5463 Q80.7358,194.6088 80.7358,196.7025 Q80.7358,198.7963 81.4233,199.8744 Q82.1108,200.9369 83.4546,200.9369 Q84.0796,200.9369 84.6733,200.6713 Q85.2671,200.39 85.8921,199.8119 L85.8921,202.5306 Z " fill="#000000"/><text fill="#000000" font-family="sans-serif" font-size="14" lengthAdjust="spacing" textLength="46.0742" x="103.4233" y="201.7367">Artista</text><line style="stroke:#181818;stroke-width:0.5;" x1="8" x2="212.4209" y1="212.89" y2="212.89"/><text fill="#000000" font-family="sans-serif" font-size="14" lengthAdjust="spacing" textLength="167.9795" x="13" y="229.8851">-nombreArtistico: String</text><text fill="#000000" font-family="sans-serif" font-size="14" lengthAdjust="spacing" textLength="194.4209" x="13" y="246.182">-oyentesMensuales: Integer</text><line style="stroke:#181818;stroke-width:0.5;" x1="8" x2="212.4209" y1="253.4838" y2="253.4838"/></g><!--class Cancion--><g class="entity" data-qualified-name="Cancion" data-source-line="39" id="ent0009"><rect fill="#F1F1F1" height="80.5938" rx="2.5" ry="2.5" style="stroke:#181818;stroke-width:0.5;" width="206.5781" x="539.92" y="338.48"/><ellipse cx="610.8326" cy="354.48" fill="#ADD1B2" rx="11" ry="11" style="stroke:#181818;stroke-width:1;"/><path d="M613.8013,360.1206 Q613.2232,360.4175 612.5826,360.5581 Q611.942,360.7144 611.2388,360.7144 Q608.7388,360.7144 607.4107,359.0737 Q606.0982,357.4175 606.0982,354.2925 Q606.0982,351.1675 607.4107,349.5112 Q608.7388,347.855 611.2388,347.855 Q611.942,347.855 612.5826,348.0112 Q613.2388,348.1675 613.8013,348.4644 L613.8013,351.1831 Q613.1763,350.605 612.5826,350.3394 Q611.9888,350.0581 611.3638,350.0581 Q610.0201,350.0581 609.3326,351.1362 Q608.6451,352.1987 608.6451,354.2925 Q608.6451,356.3862 609.3326,357.4644 Q610.0201,358.5269 611.3638,358.5269 Q611.9888,358.5269 612.5826,358.2612 Q613.1763,357.98 613.8013,357.4019 L613.8013,360.1206 Z " fill="#000000"/><text fill="#000000" font-family="sans-serif" font-size="14" lengthAdjust="spacing" textLength="56.2529" x="631.3326" y="359.3267">Cancion</text><line style="stroke:#181818;stroke-width:0.5;" x1="540.92" x2="745.4981" y1="370.48" y2="370.48"/><text fill="#000000" font-family="sans-serif" font-size="14" lengthAdjust="spacing" textLength="92.1963" x="545.92" y="387.4751">-titulo: String</text><text fill="#000000" font-family="sans-serif" font-size="14" lengthAdjust="spacing" textLength="194.5781" x="545.92" y="403.772">-duracionSegundos: Integer</text><line style="stroke:#181818;stroke-width:0.5;" x1="540.92" x2="745.4981" y1="411.0737" y2="411.0737"/></g><!--class EstiloMusical--><g class="entity" data-qualified-name="EstiloMusical" data-source-line="44" id="ent0010"><rect fill="#F1F1F1" height="80.5938" rx="2.5" ry="2.5" style="stroke:#181818;stroke-width:0.5;" width="188.9141" x="44.75" y="496.08"/><ellipse cx="89.8193" cy="512.08" fill="#ADD1B2" rx="11" ry="11" style="stroke:#181818;stroke-width:1;"/><path d="M92.7881,517.7206 Q92.21,518.0175 91.5693,518.1581 Q90.9287,518.3144 90.2256,518.3144 Q87.7256,518.3144 86.3975,516.6737 Q85.085,515.0175 85.085,511.8925 Q85.085,508.7675 86.3975,507.1112 Q87.7256,505.455 90.2256,505.455 Q90.9287,505.455 91.5693,505.6112 Q92.2256,505.7675 92.7881,506.0644 L92.7881,508.7831 Q92.1631,508.205 91.5693,507.9394 Q90.9756,507.6581 90.3506,507.6581 Q89.0068,507.6581 88.3193,508.7362 Q87.6318,509.7987 87.6318,511.8925 Q87.6318,513.9862 88.3193,515.0644 Q89.0068,516.1269 90.3506,516.1269 Q90.9756,516.1269 91.5693,515.8612 Q92.1631,515.58 92.7881,515.0019 L92.7881,517.7206 Z " fill="#000000"/><text fill="#000000" font-family="sans-serif" font-size="14" lengthAdjust="spacing" textLength="90.2754" x="110.3193" y="516.9267">EstiloMusical</text><line style="stroke:#181818;stroke-width:0.5;" x1="45.75" x2="232.6641" y1="528.08" y2="528.08"/><text fill="#000000" font-family="sans-serif" font-size="14" lengthAdjust="spacing" textLength="110.332" x="50.75" y="545.0751">-nombre: String</text><text fill="#000000" font-family="sans-serif" font-size="14" lengthAdjust="spacing" textLength="176.9141" x="50.75" y="561.372">-origenGeografico: String</text><line style="stroke:#181818;stroke-width:0.5;" x1="45.75" x2="232.6641" y1="568.6737" y2="568.6737"/></g><!--class Instrumento--><g class="entity" data-qualified-name="Instrumento" data-source-line="49" id="ent0011"><rect fill="#F1F1F1" height="80.5938" rx="2.5" ry="2.5" style="stroke:#181818;stroke-width:0.5;" width="122.332" x="192.04" y="338.48"/><ellipse cx="209.1727" cy="354.48" fill="#ADD1B2" rx="11" ry="11" style="stroke:#181818;stroke-width:1;"/><path d="M212.1414,360.1206 Q211.5633,360.4175 210.9227,360.5581 Q210.282,360.7144 209.5789,360.7144 Q207.0789,360.7144 205.7508,359.0737 Q204.4383,357.4175 204.4383,354.2925 Q204.4383,351.1675 205.7508,349.5112 Q207.0789,347.855 209.5789,347.855 Q210.282,347.855 210.9227,348.0112 Q211.5789,348.1675 212.1414,348.4644 L212.1414,351.1831 Q211.5164,350.605 210.9227,350.3394 Q210.3289,350.0581 209.7039,350.0581 Q208.3602,350.0581 207.6727,351.1362 Q206.9852,352.1987 206.9852,354.2925 Q206.9852,356.3862 207.6727,357.4644 Q208.3602,358.5269 209.7039,358.5269 Q210.3289,358.5269 210.9227,358.2612 Q211.5164,357.98 212.1414,357.4019 L212.1414,360.1206 Z " fill="#000000"/><text fill="#000000" font-family="sans-serif" font-size="14" lengthAdjust="spacing" textLength="85.5928" x="223.6466" y="359.3267">Instrumento</text><line style="stroke:#181818;stroke-width:0.5;" x1="193.04" x2="313.372" y1="370.48" y2="370.48"/><text fill="#000000" font-family="sans-serif" font-size="14" lengthAdjust="spacing" textLength="110.332" x="198.04" y="387.4751">-nombre: String</text><text fill="#000000" font-family="sans-serif" font-size="14" lengthAdjust="spacing" textLength="103.3936" x="198.04" y="403.772">-familia: String</text><line style="stroke:#181818;stroke-width:0.5;" x1="193.04" x2="313.372" y1="411.0737" y2="411.0737"/></g><!--class Idioma--><g class="entity" data-qualified-name="Idioma" data-source-line="54" id="ent0012"><rect fill="#F1F1F1" height="80.5938" rx="2.5" ry="2.5" style="stroke:#181818;stroke-width:0.5;" width="134.4795" x="602.97" y="180.89"/><ellipse cx="642.6264" cy="196.89" fill="#ADD1B2" rx="11" ry="11" style="stroke:#181818;stroke-width:1;"/><path d="M645.5951,202.5306 Q645.017,202.8275 644.3764,202.9681 Q643.7358,203.1244 643.0326,203.1244 Q640.5326,203.1244 639.2045,201.4838 Q637.892,199.8275 637.892,196.7025 Q637.892,193.5775 639.2045,191.9213 Q640.5326,190.265 643.0326,190.265 Q643.7358,190.265 644.3764,190.4213 Q645.0326,190.5775 645.5951,190.8744 L645.5951,193.5931 Q644.9701,193.015 644.3764,192.7494 Q643.7826,192.4681 643.1576,192.4681 Q641.8139,192.4681 641.1264,193.5463 Q640.4389,194.6088 640.4389,196.7025 Q640.4389,198.7963 641.1264,199.8744 Q641.8139,200.9369 643.1576,200.9369 Q643.7826,200.9369 644.3764,200.6713 Q644.9701,200.39 645.5951,199.8119 L645.5951,202.5306 Z " fill="#000000"/><text fill="#000000" font-family="sans-serif" font-size="14" lengthAdjust="spacing" textLength="47.6875" x="662.1056" y="201.7367">Idioma</text><line style="stroke:#181818;stroke-width:0.5;" x1="603.97" x2="736.4495" y1="212.89" y2="212.89"/><text fill="#000000" font-family="sans-serif" font-size="14" lengthAdjust="spacing" textLength="122.4795" x="608.97" y="229.8851">-codigoIso: String</text><text fill="#000000" font-family="sans-serif" font-size="14" lengthAdjust="spacing" textLength="110.332" x="608.97" y="246.182">-nombre: String</text><line style="stroke:#181818;stroke-width:0.5;" x1="603.97" x2="736.4495" y1="253.4838" y2="253.4838"/></g><!--reverse link Usuario to Suscripcion--><g class="link" data-entity-1="ent0002" data-entity-2="ent0003" data-link-type="composition" data-source-line="60" id="lnk13"><path codeLine="60" d="M322.21,116.24 C322.21,140.5 322.21,157.62 322.21,180.61" fill="none" id="Usuario-backto-Suscripcion" style="stroke:#181818;stroke-width:1;"/><polygon fill="#181818" points="322.21,104.24,318.21,110.24,322.21,116.24,326.21,110.24,322.21,104.24" style="stroke:#181818;stroke-width:1;"/></g><!--reverse link Album to Cancion--><g class="link" data-entity-1="ent0005" data-entity-2="ent0009" data-link-type="composition" data-source-line="61" id="lnk14"><path codeLine="61" d="M800.2536,268.6948 C766.5436,292.1048 733.89,314.79 700.21,338.19" fill="none" id="Album-backto-Cancion" style="stroke:#181818;stroke-width:1;"/><polygon fill="#181818" points="810.11,261.85,802.9002,261.9869,800.2536,268.6948,807.4634,268.5579,810.11,261.85" style="stroke:#181818;stroke-width:1;"/></g><!--reverse link Plataforma to Album--><g class="link" data-entity-1="ent0004" data-entity-2="ent0005" data-link-type="aggregation" data-source-line="64" id="lnk15"><path codeLine="64" d="M771.0702,105.2836 C792.5302,130.9336 812.67,155 834.11,180.63" fill="none" id="Plataforma-backto-Album" style="stroke:#181818;stroke-width:1;"/><polygon fill="none" points="763.37,96.08,764.1522,103.2486,771.0702,105.2836,770.288,98.1151,763.37,96.08" style="stroke:#181818;stroke-width:1;"/></g><!--reverse link Playlist to Cancion--><g class="link" data-entity-1="ent0006" data-entity-2="ent0009" data-link-type="aggregation" data-source-line="65" id="lnk16"><path codeLine="65" d="M985.207,259.1931 C979.427,261.5331 984.8,259.32 979.21,261.48 C902.05,291.27 813.6,321.74 746.83,344.01" fill="none" id="Playlist-backto-Cancion" style="stroke:#181818;stroke-width:1;"/><polygon fill="none" points="996.33,254.69,989.2674,253.2339,985.207,259.1931,992.2695,260.6492,996.33,254.69" style="stroke:#181818;stroke-width:1;"/></g><!--reverse link Plataforma to Idioma--><g class="link" data-entity-1="ent0004" data-entity-2="ent0012" data-link-type="aggregation" data-source-line="66" id="lnk17"><path codeLine="66" d="M711.5609,107.3472 C702.1609,132.9972 694.1,155 684.7,180.63" fill="none" id="Plataforma-backto-Idioma" style="stroke:#181818;stroke-width:1;"/><polygon fill="none" points="715.69,96.08,709.8697,100.3372,711.5609,107.3472,717.3812,103.09,715.69,96.08" style="stroke:#181818;stroke-width:1;"/></g><!--link Usuario to Artista--><g class="link" data-entity-1="ent0002" data-entity-2="ent0008" data-link-type="dependency" data-source-line="69" id="lnk18"><path codeLine="69" d="M260.32,104.24 C228.91,128.5 195.9582,153.952 166.1982,176.942" fill="none" id="Usuario-to-Artista" style="stroke:#181818;stroke-width:1;"/><polygon fill="#181818" points="161.45,180.61,171.0177,178.2734,165.4068,177.5533,166.1269,171.9425,161.45,180.61" style="stroke:#181818;stroke-width:1;"/><text fill="#000000" font-family="sans-serif" font-size="13" lengthAdjust="spacing" textLength="46.9727" x="217.21" y="146.9569">sigue a</text></g><!--link Usuario to Usuario--><g class="link" data-entity-1="ent0002" data-entity-2="ent0002" data-link-type="dependency" data-source-line="70" id="lnk19"><path codeLine="70" d="M403.4,39.4 C423.26,40.58 438.04,45.93 438.04,55.44 C438.04,64.95 429.2493,69.9411 409.3893,71.1311" fill="none" id="Usuario-to-Usuario" style="stroke:#181818;stroke-width:1;"/><polygon fill="#181818" points="403.4,71.49,412.6231,74.9445,408.391,71.1909,412.1446,66.9589,403.4,71.49" style="stroke:#181818;stroke-width:1;"/><text fill="#000000" font-family="sans-serif" font-size="13" lengthAdjust="spacing" textLength="47.2202" x="444.04" y="60.0069">amigos</text></g><!--link Artista to EstiloMusical--><g class="link" data-entity-1="ent0008" data-entity-2="ent0010" data-link-type="dependency" data-source-line="71" id="lnk20"><path codeLine="71" d="M113.44,261.8 C116.72,301.57 122.05,364.6 127.21,419.08 C129.63,444.64 131.9615,467.363 134.3315,489.863" fill="none" id="Artista-to-EstiloMusical" style="stroke:#181818;stroke-width:1;"/><polygon fill="#181818" points="134.96,495.83,137.9952,486.4605,134.4362,490.8575,130.0392,487.2985,134.96,495.83" style="stroke:#181818;stroke-width:1;"/><text fill="#000000" font-family="sans-serif" font-size="13" lengthAdjust="spacing" textLength="45.7856" x="128.21" y="383.3469">g&#233;nero</text></g><!--link Artista to Instrumento--><g class="link" data-entity-1="ent0008" data-entity-2="ent0011" data-link-type="dependency" data-source-line="72" id="lnk21"><path codeLine="72" d="M146.67,261.85 C168.18,285.26 191.2605,310.3718 212.7605,333.7718" fill="none" id="Artista-to-Instrumento" style="stroke:#181818;stroke-width:1;"/><polygon fill="#181818" points="216.82,338.19,213.6763,328.8564,213.4371,334.5082,207.7853,334.269,216.82,338.19" style="stroke:#181818;stroke-width:1;"/><text fill="#000000" font-family="sans-serif" font-size="13" lengthAdjust="spacing" textLength="28.1646" x="187.21" y="304.5469">toca</text></g><!--link Cancion to EstiloMusical--><g class="link" data-entity-1="ent0009" data-entity-2="ent0010" data-link-type="dependency" data-source-line="73" id="lnk22"><path codeLine="73" d="M539.7,411.74 C449.96,439.44 326.9131,477.4303 239.8031,504.3203" fill="none" id="Cancion-to-EstiloMusical" style="stroke:#181818;stroke-width:1;"/><polygon fill="#181818" points="234.07,506.09,243.8494,507.2574,238.8476,504.6152,241.4898,499.6133,234.07,506.09" style="stroke:#181818;stroke-width:1;"/><text fill="#000000" font-family="sans-serif" font-size="13" lengthAdjust="spacing" textLength="78.1714" x="408.21" y="462.1469">pertenece a</text></g><!--link Reproductor to Cancion--><g class="link" data-entity-1="ent0007" data-entity-2="ent0009" data-link-type="dependency" data-source-line="76" id="lnk23"><path codeLine="76" d="M535.92,261.85 C557.59,285.26 580.8342,310.3868 602.4942,333.7868" fill="none" id="Reproductor-to-Cancion" style="stroke:#181818;stroke-width:1;stroke-dasharray:7,7;"/><polygon fill="#181818" points="606.57,338.19,603.3918,328.868,603.1735,334.5207,597.5209,334.3024,606.57,338.19" style="stroke:#181818;stroke-width:1;"/><text fill="#000000" font-family="sans-serif" font-size="13" lengthAdjust="spacing" textLength="22.9785" x="577.21" y="304.5469">usa</text></g><!--link Usuario to Reproductor--><g class="link" data-entity-1="ent0002" data-entity-2="ent0007" data-link-type="dependency" data-source-line="77" id="lnk24"><path codeLine="77" d="M373.88,104.24 C400.11,128.5 427.1757,153.5454 452.0257,176.5354" fill="none" id="Usuario-to-Reproductor" style="stroke:#181818;stroke-width:1;stroke-dasharray:7,7;"/><polygon fill="#181818" points="456.43,180.61,452.54,171.5619,452.7598,177.2145,447.1072,177.4343,456.43,180.61" style="stroke:#181818;stroke-width:1;"/><text fill="#000000" font-family="sans-serif" font-size="13" lengthAdjust="spacing" textLength="22.9785" x="423.21" y="146.9569">usa</text></g><?plantuml-src TLD9Rjj04Bpp5NsB7K1EpZmOK2H5860j4E47j8OjPk3XD36B03l8WtBmA_InD6MHqZZIZUYbkggcw5-qRT5X0ygWz-CGdDx6G8LYM-etWkzPTkp0iu_eDCFl3604LgiNYmtbKCg6hOz5Qb2RjEBNZXeTcnn-C1j2c_tf0SlebTEjqcnFe46tdAotZgIz89_3bEFMq7bxRJ3WZbs3FIDkjYxbioVd1Nse3SjZiutDS3H4avxTaVg5JsZViD5aWpId6DBRhqRxSFkow1QwMk4LtHjg7LTH1NOdW3sRs93mB6oWcjm98c35LxYx8ATJrHyrhL8P_2haoI_8ojEPpiGUVm2Re4ty_y-AAZhi9aggewtu6iPCBXjUH2zopMrBsEcQx9ouThYxf3e05TO7rnaH-3RCJjx4QBooNMaUmg2uqZKNFXNp2KvMly1ajLYloc9Ih9Qp4kusCiBWo1YoV9_reVyw6YLvpJuIr9Lx2pkmyNmpcuzJh3sgmxj0NGIMPUq381kYn9TGdsPFqeuNojMa62xyD5rIHPTCcZFRqUXnY4aENjUH09Dk_vs3s5cpp_hnhfa-Q0xruQybnydCvLlb45XXrhE_1j6I2sH9TJn4nNEvWcymdQrdo-biAOBWxkdmRWcXZH8lhF0-k_nD7XuU1tDoYFuifkjSJXwx_m00?></g></svg>