<?plantuml 1.2026.2beta3?><svg xmlns="http://www.w3.org/2000/svg" xmlns:xlink="http://www.w3.org/1999/xlink" contentStyleType="text/css" data-diagram-type="CLASS" height="320px" preserveAspectRatio="none" style="width:935px;height:320px;background:#FFFFFF;" version="1.1" viewBox="0 0 935 320" width="935px" zoomAndPan="magnify"><defs/><g><!--class Artista--><g class="entity" data-qualified-name="Artista" data-source-line="3" id="ent0002"><rect fill="#F1F1F1" height="56.2969" rx="2.5" ry="2.5" style="stroke:#181818;stroke-width:0.5;" width="131.2803" x="137.94" y="140.3"/><ellipse cx="176.8827" cy="156.3" fill="#A9DCDF" rx="11" ry="11" style="stroke:#181818;stroke-width:1;"/><path d="M176.9921,151.6437 L175.8358,156.7219 L178.164,156.7219 L176.9921,151.6437 Z M175.5077,149.4094 L178.4921,149.4094 L181.8515,161.8 L179.3983,161.8 L178.6327,158.7375 L175.3515,158.7375 L174.6015,161.8 L172.164,161.8 L175.5077,149.4094 Z " fill="#000000"/><text fill="#000000" font-family="sans-serif" font-size="14" font-style="italic" lengthAdjust="spacing" textLength="46.0742" x="196.2033" y="161.1467">Artista</text><line style="stroke:#181818;stroke-width:0.5;" x1="138.94" x2="268.2203" y1="172.3" y2="172.3"/><g data-visibility-modifier="PUBLIC_FIELD"><ellipse cx="148.94" cy="185.9484" fill="none" rx="3" ry="3" style="stroke:#038048;stroke-width:1;"/></g><text fill="#000000" font-family="sans-serif" font-size="14" lengthAdjust="spacing" textLength="105.2803" x="157.94" y="189.2951">nombre: String</text></g><!--class Banda--><g class="entity" data-qualified-name="Banda" data-source-line="6" id="ent0003"><rect fill="#F1F1F1" height="56.2969" rx="2.5" ry="2.5" style="stroke:#181818;stroke-width:0.5;" width="185.1611" x="7" y="257.59"/><ellipse cx="73.0693" cy="273.59" fill="#ADD1B2" rx="11" ry="11" style="stroke:#181818;stroke-width:1;"/><path d="M76.0381,279.2306 Q75.46,279.5275 74.8193,279.6681 Q74.1787,279.8244 73.4756,279.8244 Q70.9756,279.8244 69.6475,278.1838 Q68.335,276.5275 68.335,273.4025 Q68.335,270.2775 69.6475,268.6213 Q70.9756,266.965 73.4756,266.965 Q74.1787,266.965 74.8193,267.1213 Q75.4756,267.2775 76.0381,267.5744 L76.0381,270.2931 Q75.4131,269.715 74.8193,269.4494 Q74.2256,269.1681 73.6006,269.1681 Q72.2568,269.1681 71.5693,270.2463 Q70.8818,271.3088 70.8818,273.4025 Q70.8818,275.4963 71.5693,276.5744 Q72.2568,277.6369 73.6006,277.6369 Q74.2256,277.6369 74.8193,277.3713 Q75.4131,277.09 76.0381,276.5119 L76.0381,279.2306 Z " fill="#000000"/><text fill="#000000" font-family="sans-serif" font-size="14" lengthAdjust="spacing" textLength="44.5225" x="93.5693" y="278.4367">Banda</text><line style="stroke:#181818;stroke-width:0.5;" x1="8" x2="191.1611" y1="289.59" y2="289.59"/><g data-visibility-modifier="PUBLIC_FIELD"><ellipse cx="18" cy="303.2384" fill="none" rx="3" ry="3" style="stroke:#038048;stroke-width:1;"/></g><text fill="#000000" font-family="sans-serif" font-size="14" lengthAdjust="spacing" textLength="159.1611" x="27" y="306.5851">a&#241;oFormacion: Integer</text></g><!--class Solista--><g class="entity" data-qualified-name="Solista" data-source-line="9" id="ent0004"><rect fill="#F1F1F1" height="56.2969" rx="2.5" ry="2.5" style="stroke:#181818;stroke-width:0.5;" width="162.0898" x="227.54" y="257.59"/><ellipse cx="281.038" cy="273.59" fill="#ADD1B2" rx="11" ry="11" style="stroke:#181818;stroke-width:1;"/><path d="M284.0068,279.2306 Q283.4287,279.5275 282.788,279.6681 Q282.1474,279.8244 281.4443,279.8244 Q278.9443,279.8244 277.6162,278.1838 Q276.3037,276.5275 276.3037,273.4025 Q276.3037,270.2775 277.6162,268.6213 Q278.9443,266.965 281.4443,266.965 Q282.1474,266.965 282.788,267.1213 Q283.4443,267.2775 284.0068,267.5744 L284.0068,270.2931 Q283.3818,269.715 282.788,269.4494 Q282.1943,269.1681 281.5693,269.1681 Q280.2255,269.1681 279.538,270.2463 Q278.8505,271.3088 278.8505,273.4025 Q278.8505,275.4963 279.538,276.5744 Q280.2255,277.6369 281.5693,277.6369 Q282.1943,277.6369 282.788,277.3713 Q283.3818,277.09 284.0068,276.5119 L284.0068,279.2306 Z " fill="#000000"/><text fill="#000000" font-family="sans-serif" font-size="14" lengthAdjust="spacing" textLength="46.5938" x="301.538" y="278.4367">Solista</text><line style="stroke:#181818;stroke-width:0.5;" x1="228.54" x2="388.6298" y1="289.59" y2="289.59"/><g data-visibility-modifier="PUBLIC_FIELD"><ellipse cx="238.54" cy="303.2384" fill="none" rx="3" ry="3" style="stroke:#038048;stroke-width:1;"/></g><text fill="#000000" font-family="sans-serif" font-size="14" lengthAdjust="spacing" textLength="136.0898" x="247.54" y="306.5851">nombreReal: String</text></g><!--class Usuario--><g class="entity" data-qualified-name="Usuario" data-source-line="15" id="ent0007"><rect fill="#F1F1F1" height="56.2969" rx="2.5" ry="2.5" style="stroke:#181818;stroke-width:0.5;" width="89.7246" x="374.72" y="7"/><ellipse cx="391.7542" cy="23" fill="#ADD1B2" rx="11" ry="11" style="stroke:#181818;stroke-width:1;"/><path d="M394.723,28.6406 Q394.1449,28.9375 393.5042,29.0781 Q392.8636,29.2344 392.1605,29.2344 Q389.6605,29.2344 388.3324,27.5938 Q387.0199,25.9375 387.0199,22.8125 Q387.0199,19.6875 388.3324,18.0313 Q389.6605,16.375 392.1605,16.375 Q392.8636,16.375 393.5042,16.5313 Q394.1605,16.6875 394.723,16.9844 L394.723,19.7031 Q394.098,19.125 393.5042,18.8594 Q392.9105,18.5781 392.2855,18.5781 Q390.9417,18.5781 390.2542,19.6563 Q389.5667,20.7188 389.5667,22.8125 Q389.5667,24.9063 390.2542,25.9844 Q390.9417,27.0469 392.2855,27.0469 Q392.9105,27.0469 393.5042,26.7813 Q394.098,26.5 394.723,25.9219 L394.723,28.6406 Z " fill="#000000"/><text fill="#000000" font-family="sans-serif" font-size="14" lengthAdjust="spacing" textLength="53.2041" x="406.2063" y="27.8467">Usuario</text><line style="stroke:#181818;stroke-width:0.5;" x1="375.72" x2="463.4446" y1="39" y2="39"/><g data-visibility-modifier="PUBLIC_FIELD"><ellipse cx="385.72" cy="52.6484" fill="none" rx="3" ry="3" style="stroke:#038048;stroke-width:1;"/></g><text fill="#000000" font-family="sans-serif" font-size="14" lengthAdjust="spacing" textLength="63.7246" x="394.72" y="55.9951">id: String</text></g><!--class UsuarioGratuito--><g class="entity" data-qualified-name="UsuarioGratuito" data-source-line="18" id="ent0008"><rect fill="#F1F1F1" height="56.2969" rx="2.5" ry="2.5" style="stroke:#181818;stroke-width:0.5;" width="230.7773" x="304.19" y="140.3"/><ellipse cx="359.9815" cy="156.3" fill="#ADD1B2" rx="11" ry="11" style="stroke:#181818;stroke-width:1;"/><path d="M362.9503,161.9406 Q362.3721,162.2375 361.7315,162.3781 Q361.0909,162.5344 360.3878,162.5344 Q357.8878,162.5344 356.5596,160.8937 Q355.2471,159.2375 355.2471,156.1125 Q355.2471,152.9875 356.5596,151.3312 Q357.8878,149.675 360.3878,149.675 Q361.0909,149.675 361.7315,149.8312 Q362.3878,149.9875 362.9503,150.2844 L362.9503,153.0031 Q362.3253,152.425 361.7315,152.1594 Q361.1378,151.8781 360.5128,151.8781 Q359.169,151.8781 358.4815,152.9562 Q357.794,154.0187 357.794,156.1125 Q357.794,158.2062 358.4815,159.2844 Q359.169,160.3469 360.5128,160.3469 Q361.1378,160.3469 361.7315,160.0812 Q362.3253,159.8 362.9503,159.2219 L362.9503,161.9406 Z " fill="#000000"/><text fill="#000000" font-family="sans-serif" font-size="14" lengthAdjust="spacing" textLength="110.6943" x="380.4815" y="161.1467">UsuarioGratuito</text><line style="stroke:#181818;stroke-width:0.5;" x1="305.19" x2="533.9673" y1="172.3" y2="172.3"/><g data-visibility-modifier="PUBLIC_FIELD"><ellipse cx="315.19" cy="185.9484" fill="none" rx="3" ry="3" style="stroke:#038048;stroke-width:1;"/></g><text fill="#000000" font-family="sans-serif" font-size="14" lengthAdjust="spacing" textLength="204.7773" x="324.19" y="189.2951">anunciosEscuchados: Integer</text></g><!--class UsuarioPremium--><g class="entity" data-qualified-name="UsuarioPremium" data-source-line="21" id="ent0009"><rect fill="#F1F1F1" height="56.2969" rx="2.5" ry="2.5" style="stroke:#181818;stroke-width:0.5;" width="188.9893" x="570.09" y="140.3"/><ellipse cx="603.511" cy="156.3" fill="#ADD1B2" rx="11" ry="11" style="stroke:#181818;stroke-width:1;"/><path d="M606.4797,161.9406 Q605.9016,162.2375 605.261,162.3781 Q604.6204,162.5344 603.9172,162.5344 Q601.4172,162.5344 600.0891,160.8937 Q598.7766,159.2375 598.7766,156.1125 Q598.7766,152.9875 600.0891,151.3312 Q601.4172,149.675 603.9172,149.675 Q604.6204,149.675 605.261,149.8312 Q605.9172,149.9875 606.4797,150.2844 L606.4797,153.0031 Q605.8547,152.425 605.261,152.1594 Q604.6672,151.8781 604.0422,151.8781 Q602.6985,151.8781 602.011,152.9562 Q601.3235,154.0187 601.3235,156.1125 Q601.3235,158.2062 602.011,159.2844 Q602.6985,160.3469 604.0422,160.3469 Q604.6672,160.3469 605.261,160.0812 Q605.8547,159.8 606.4797,159.2219 L606.4797,161.9406 Z " fill="#000000"/><text fill="#000000" font-family="sans-serif" font-size="14" lengthAdjust="spacing" textLength="116.0537" x="621.6046" y="161.1467">UsuarioPremium</text><line style="stroke:#181818;stroke-width:0.5;" x1="571.09" x2="758.0793" y1="172.3" y2="172.3"/><g data-visibility-modifier="PUBLIC_FIELD"><ellipse cx="581.09" cy="185.9484" fill="none" rx="3" ry="3" style="stroke:#038048;stroke-width:1;"/></g><text fill="#000000" font-family="sans-serif" font-size="14" lengthAdjust="spacing" textLength="162.9893" x="590.09" y="189.2951">fechaRenovacion: Date</text></g><!--class Cancion--><g class="entity" data-qualified-name="Cancion" data-source-line="27" id="ent0012"><rect fill="#F1F1F1" height="56.2969" rx="2.5" ry="2.5" style="stroke:#181818;stroke-width:0.5;" width="113.1445" x="800.01" y="140.3"/><ellipse cx="826.2112" cy="156.3" fill="#ADD1B2" rx="11" ry="11" style="stroke:#181818;stroke-width:1;"/><path d="M829.18,161.9406 Q828.6018,162.2375 827.9612,162.3781 Q827.3206,162.5344 826.6175,162.5344 Q824.1175,162.5344 822.7893,160.8937 Q821.4768,159.2375 821.4768,156.1125 Q821.4768,152.9875 822.7893,151.3312 Q824.1175,149.675 826.6175,149.675 Q827.3206,149.675 827.9612,149.8312 Q828.6175,149.9875 829.18,150.2844 L829.18,153.0031 Q828.555,152.425 827.9612,152.1594 Q827.3675,151.8781 826.7425,151.8781 Q825.3987,151.8781 824.7112,152.9562 Q824.0237,154.0187 824.0237,156.1125 Q824.0237,158.2062 824.7112,159.2844 Q825.3987,160.3469 826.7425,160.3469 Q827.3675,160.3469 827.9612,160.0812 Q828.555,159.8 829.18,159.2219 L829.18,161.9406 Z " fill="#000000"/><text fill="#000000" font-family="sans-serif" font-size="14" lengthAdjust="spacing" textLength="56.2529" x="842.7004" y="161.1467">Cancion</text><line style="stroke:#181818;stroke-width:0.5;" x1="801.01" x2="912.1545" y1="172.3" y2="172.3"/><g data-visibility-modifier="PUBLIC_FIELD"><ellipse cx="811.01" cy="185.9484" fill="none" rx="3" ry="3" style="stroke:#038048;stroke-width:1;"/></g><text fill="#000000" font-family="sans-serif" font-size="14" lengthAdjust="spacing" textLength="87.1445" x="820.01" y="189.2951">titulo: String</text></g><!--class Album--><g class="entity" data-qualified-name="Album" data-source-line="30" id="ent0013"><rect fill="#F1F1F1" height="56.2969" rx="2.5" ry="2.5" style="stroke:#181818;stroke-width:0.5;" width="113.1445" x="649.01" y="7"/><ellipse cx="680.3361" cy="23" fill="#ADD1B2" rx="11" ry="11" style="stroke:#181818;stroke-width:1;"/><path d="M683.3049,28.6406 Q682.7267,28.9375 682.0861,29.0781 Q681.4455,29.2344 680.7424,29.2344 Q678.2424,29.2344 676.9142,27.5938 Q675.6017,25.9375 675.6017,22.8125 Q675.6017,19.6875 676.9142,18.0313 Q678.2424,16.375 680.7424,16.375 Q681.4455,16.375 682.0861,16.5313 Q682.7424,16.6875 683.3049,16.9844 L683.3049,19.7031 Q682.6799,19.125 682.0861,18.8594 Q681.4924,18.5781 680.8674,18.5781 Q679.5236,18.5781 678.8361,19.6563 Q678.1486,20.7188 678.1486,22.8125 Q678.1486,24.9063 678.8361,25.9844 Q679.5236,27.0469 680.8674,27.0469 Q681.4924,27.0469 682.0861,26.7813 Q682.6799,26.5 683.3049,25.9219 L683.3049,28.6406 Z " fill="#000000"/><text fill="#000000" font-family="sans-serif" font-size="14" lengthAdjust="spacing" textLength="44.8643" x="697.9642" y="27.8467">Album</text><line style="stroke:#181818;stroke-width:0.5;" x1="650.01" x2="761.1545" y1="39" y2="39"/><g data-visibility-modifier="PUBLIC_FIELD"><ellipse cx="660.01" cy="52.6484" fill="none" rx="3" ry="3" style="stroke:#038048;stroke-width:1;"/></g><text fill="#000000" font-family="sans-serif" font-size="14" lengthAdjust="spacing" textLength="87.1445" x="669.01" y="55.9951">titulo: String</text></g><!--class Playlist--><g class="entity" data-qualified-name="Playlist" data-source-line="33" id="ent0014"><rect fill="#F1F1F1" height="56.2969" rx="2.5" ry="2.5" style="stroke:#181818;stroke-width:0.5;" width="131.2803" x="796.94" y="7"/><ellipse cx="834.2247" cy="23" fill="#ADD1B2" rx="11" ry="11" style="stroke:#181818;stroke-width:1;"/><path d="M837.1934,28.6406 Q836.6153,28.9375 835.9747,29.0781 Q835.334,29.2344 834.6309,29.2344 Q832.1309,29.2344 830.8028,27.5938 Q829.4903,25.9375 829.4903,22.8125 Q829.4903,19.6875 830.8028,18.0313 Q832.1309,16.375 834.6309,16.375 Q835.334,16.375 835.9747,16.5313 Q836.6309,16.6875 837.1934,16.9844 L837.1934,19.7031 Q836.5684,19.125 835.9747,18.8594 Q835.3809,18.5781 834.7559,18.5781 Q833.4122,18.5781 832.7247,19.6563 Q832.0372,20.7188 832.0372,22.8125 Q832.0372,24.9063 832.7247,25.9844 Q833.4122,27.0469 834.7559,27.0469 Q835.3809,27.0469 835.9747,26.7813 Q836.5684,26.5 837.1934,25.9219 L837.1934,28.6406 Z " fill="#000000"/><text fill="#000000" font-family="sans-serif" font-size="14" lengthAdjust="spacing" textLength="49.7588" x="853.1768" y="27.8467">Playlist</text><line style="stroke:#181818;stroke-width:0.5;" x1="797.94" x2="927.2203" y1="39" y2="39"/><g data-visibility-modifier="PUBLIC_FIELD"><ellipse cx="807.94" cy="52.6484" fill="none" rx="3" ry="3" style="stroke:#038048;stroke-width:1;"/></g><text fill="#000000" font-family="sans-serif" font-size="14" lengthAdjust="spacing" textLength="105.2803" x="816.94" y="55.9951">nombre: String</text></g><!--reverse link Artista to Banda--><g class="link" data-entity-1="ent0002" data-entity-2="ent0003" data-link-type="extension" data-source-line="12" id="lnk5"><path codeLine="12" d="M166.6141,210.4262 C150.1441,228.6862 140.71,239.14 124.29,257.35" fill="none" id="Artista-backto-Banda" style="stroke:#181818;stroke-width:1;"/><polygon fill="none" points="178.67,197.06,162.1587,206.4075,171.0695,214.4448,178.67,197.06" style="stroke:#181818;stroke-width:1;"/></g><!--reverse link Artista to Solista--><g class="link" data-entity-1="ent0002" data-entity-2="ent0004" data-link-type="extension" data-source-line="13" id="lnk6"><path codeLine="13" d="M240.8461,210.3717 C257.4661,228.6317 267.05,239.14 283.64,257.35" fill="none" id="Artista-backto-Solista" style="stroke:#181818;stroke-width:1;"/><polygon fill="none" points="228.73,197.06,236.4089,214.4104,245.2833,206.333,228.73,197.06" style="stroke:#181818;stroke-width:1;"/></g><!--reverse link Usuario to UsuarioGratuito--><g class="link" data-entity-1="ent0007" data-entity-2="ent0008" data-link-type="extension" data-source-line="24" id="lnk10"><path codeLine="24" d="M419.58,81.67 C419.58,104.08 419.58,117.56 419.58,139.96" fill="none" id="Usuario-backto-UsuarioGratuito" style="stroke:#181818;stroke-width:1;"/><polygon fill="none" points="419.58,63.67,413.58,81.67,425.58,81.67,419.58,63.67" style="stroke:#181818;stroke-width:1;"/></g><!--reverse link Usuario to UsuarioPremium--><g class="link" data-entity-1="ent0007" data-entity-2="ent0009" data-link-type="extension" data-source-line="25" id="lnk11"><path codeLine="25" d="M480.6653,68.8825 C522.7053,91.4125 569.38,116.43 613.27,139.95" fill="none" id="Usuario-backto-UsuarioPremium" style="stroke:#181818;stroke-width:1;"/><polygon fill="none" points="464.8,60.38,477.8311,74.1709,483.4995,63.5941,464.8,60.38" style="stroke:#181818;stroke-width:1;"/></g><!--reverse link Album to Cancion--><g class="link" data-entity-1="ent0013" data-entity-2="ent0012" data-link-type="composition" data-source-line="37" id="lnk15"><path codeLine="37" d="M746.295,71.5444 C772.065,93.9544 799.21,117.56 824.97,139.96" fill="none" id="Album-backto-Cancion" style="stroke:#181818;stroke-width:1;"/><polygon fill="#181818" points="737.24,63.67,739.1427,70.6255,746.295,71.5444,744.3923,64.5889,737.24,63.67" style="stroke:#181818;stroke-width:1;"/></g><!--reverse link Playlist to Cancion--><g class="link" data-entity-1="ent0014" data-entity-2="ent0012" data-link-type="aggregation" data-source-line="38" id="lnk16"><path codeLine="38" d="M860.7744,75.6576 C859.7544,98.0676 858.86,117.56 857.84,139.96" fill="none" id="Playlist-backto-Cancion" style="stroke:#181818;stroke-width:1;"/><polygon fill="none" points="861.32,63.67,857.0513,69.4819,860.7744,75.6576,865.0431,69.8457,861.32,63.67" style="stroke:#181818;stroke-width:1;"/></g><!--link Usuario to Artista--><g class="link" data-entity-1="ent0007" data-entity-2="ent0002" data-link-type="dependency" data-source-line="39" id="lnk17"><path codeLine="39" d="M374.3,63.67 C337.44,86.08 290.7771,114.4434 253.9271,136.8434" fill="none" id="Usuario-to-Artista" style="stroke:#181818;stroke-width:1;"/><polygon fill="#181818" points="248.8,139.96,258.5683,138.7032,253.0726,137.3628,254.4129,131.8671,248.8,139.96" style="stroke:#181818;stroke-width:1;"/><text fill="#000000" font-family="sans-serif" font-size="13" lengthAdjust="spacing" textLength="46.9727" x="325.58" y="106.3669">sigue a</text></g><!--link Usuario to Usuario--><g class="link" data-entity-1="ent0007" data-entity-2="ent0007" data-link-type="dependency" data-source-line="40" id="lnk18"><path codeLine="40" d="M464.74,22.76 C483.52,21.91 499.44,26.04 499.44,35.15 C499.44,44.26 489.5137,48.6645 470.7337,47.8045" fill="none" id="Usuario-to-Usuario" style="stroke:#181818;stroke-width:1;"/><polygon fill="#181818" points="464.74,47.53,473.5476,51.9375,469.7348,47.7587,473.9136,43.9459,464.74,47.53" style="stroke:#181818;stroke-width:1;"/><text fill="#000000" font-family="sans-serif" font-size="13" lengthAdjust="spacing" textLength="47.2202" x="505.44" y="39.7169">amigos</text></g><?plantuml-src TP9DJWCn38NtEONNeBd0226LNx6hMd40JyPCBIKnIXoa2ZWKP-1YJ9bar39q5zdlFNzEikEUWFohxi6JxoWcOx1B6j4gM8SfmIeg9qLuDm2N4CHtaLhOQkGmc4ypYMumz5M2tr_o8D6ZPGajF0MbWU8itOfRv6q8tL5c7NdrqJHJz6cfH9YI-9moHfQIoFs2hWWU8sfchK8CEOo8wJxPR7VOIrh25kSwakViY_65Hlc6WhoL5UzGQRHKZb_6FpF_RPROkiSj7dX2cQAisSbYbvNhPf0pahN3_U62pZsPcJ8kHf0oqimMEIfMvAQvddz12uc7J80dtNfk0JqFadu0?></g></svg>