<?plantuml 1.2026.2beta3?><svg xmlns="http://www.w3.org/2000/svg" xmlns:xlink="http://www.w3.org/1999/xlink" contentStyleType="text/css" data-diagram-type="CLASS" height="388px" preserveAspectRatio="none" style="width:425px;height:388px;background:#FFFFFF;" version="1.1" viewBox="0 0 425 388" width="425px" zoomAndPan="magnify"><defs/><g><!--class Album--><g class="entity" data-qualified-name="Album" data-source-line="3" id="ent0002"><rect fill="#F1F1F1" height="32" rx="2.5" ry="2.5" style="stroke:#181818;stroke-width:0.5;" width="76.8643" x="225.6" y="116"/><ellipse cx="240.6" cy="132" fill="#ADD1B2" rx="11" ry="11" style="stroke:#181818;stroke-width:1;"/><path d="M243.5688,137.6406 Q242.9906,137.9375 242.35,138.0781 Q241.7094,138.2344 241.0063,138.2344 Q238.5063,138.2344 237.1781,136.5938 Q235.8656,134.9375 235.8656,131.8125 Q235.8656,128.6875 237.1781,127.0313 Q238.5063,125.375 241.0063,125.375 Q241.7094,125.375 242.35,125.5313 Q243.0063,125.6875 243.5688,125.9844 L243.5688,128.7031 Q242.9438,128.125 242.35,127.8594 Q241.7563,127.5781 241.1313,127.5781 Q239.7875,127.5781 239.1,128.6563 Q238.4125,129.7188 238.4125,131.8125 Q238.4125,133.9063 239.1,134.9844 Q239.7875,136.0469 241.1313,136.0469 Q241.7563,136.0469 242.35,135.7813 Q242.9438,135.5 243.5688,134.9219 L243.5688,137.6406 Z " fill="#000000"/><text fill="#000000" font-family="sans-serif" font-size="14" lengthAdjust="spacing" textLength="44.8643" x="254.6" y="136.8467">Album</text></g><!--class Cancion--><g class="entity" data-qualified-name="Cancion" data-source-line="4" id="ent0003"><rect fill="#F1F1F1" height="32" rx="2.5" ry="2.5" style="stroke:#181818;stroke-width:0.5;" width="88.2529" x="170.91" y="240"/><ellipse cx="185.91" cy="256" fill="#ADD1B2" rx="11" ry="11" style="stroke:#181818;stroke-width:1;"/><path d="M188.8788,261.6406 Q188.3006,261.9375 187.66,262.0781 Q187.0194,262.2344 186.3163,262.2344 Q183.8163,262.2344 182.4881,260.5938 Q181.1756,258.9375 181.1756,255.8125 Q181.1756,252.6875 182.4881,251.0313 Q183.8163,249.375 186.3163,249.375 Q187.0194,249.375 187.66,249.5313 Q188.3163,249.6875 188.8788,249.9844 L188.8788,252.7031 Q188.2538,252.125 187.66,251.8594 Q187.0663,251.5781 186.4413,251.5781 Q185.0975,251.5781 184.41,252.6563 Q183.7225,253.7188 183.7225,255.8125 Q183.7225,257.9063 184.41,258.9844 Q185.0975,260.0469 186.4413,260.0469 Q187.0663,260.0469 187.66,259.7813 Q188.2538,259.5 188.8788,258.9219 L188.8788,261.6406 Z " fill="#000000"/><text fill="#000000" font-family="sans-serif" font-size="14" lengthAdjust="spacing" textLength="56.2529" x="199.91" y="260.8467">Cancion</text></g><!--class Playlist--><g class="entity" data-qualified-name="Playlist" data-source-line="5" id="ent0004"><rect fill="#F1F1F1" height="32" rx="2.5" ry="2.5" style="stroke:#181818;stroke-width:0.5;" width="81.7588" x="337.16" y="116"/><ellipse cx="352.16" cy="132" fill="#ADD1B2" rx="11" ry="11" style="stroke:#181818;stroke-width:1;"/><path d="M355.1288,137.6406 Q354.5506,137.9375 353.91,138.0781 Q353.2694,138.2344 352.5663,138.2344 Q350.0663,138.2344 348.7381,136.5938 Q347.4256,134.9375 347.4256,131.8125 Q347.4256,128.6875 348.7381,127.0313 Q350.0663,125.375 352.5663,125.375 Q353.2694,125.375 353.91,125.5313 Q354.5663,125.6875 355.1288,125.9844 L355.1288,128.7031 Q354.5038,128.125 353.91,127.8594 Q353.3163,127.5781 352.6913,127.5781 Q351.3475,127.5781 350.66,128.6563 Q349.9725,129.7188 349.9725,131.8125 Q349.9725,133.9063 350.66,134.9844 Q351.3475,136.0469 352.6913,136.0469 Q353.3163,136.0469 353.91,135.7813 Q354.5038,135.5 355.1288,134.9219 L355.1288,137.6406 Z " fill="#000000"/><text fill="#000000" font-family="sans-serif" font-size="14" lengthAdjust="spacing" textLength="49.7588" x="366.16" y="136.8467">Playlist</text></g><!--class Plataforma--><g class="entity" data-qualified-name="Plataforma" data-source-line="6" id="ent0005"><rect fill="#F1F1F1" height="32" rx="2.5" ry="2.5" style="stroke:#181818;stroke-width:0.5;" width="108.4463" x="247.81" y="7"/><ellipse cx="262.81" cy="23" fill="#ADD1B2" rx="11" ry="11" style="stroke:#181818;stroke-width:1;"/><path d="M265.7788,28.6406 Q265.2006,28.9375 264.56,29.0781 Q263.9194,29.2344 263.2163,29.2344 Q260.7163,29.2344 259.3881,27.5938 Q258.0756,25.9375 258.0756,22.8125 Q258.0756,19.6875 259.3881,18.0313 Q260.7163,16.375 263.2163,16.375 Q263.9194,16.375 264.56,16.5313 Q265.2163,16.6875 265.7788,16.9844 L265.7788,19.7031 Q265.1538,19.125 264.56,18.8594 Q263.9663,18.5781 263.3413,18.5781 Q261.9975,18.5781 261.31,19.6563 Q260.6225,20.7188 260.6225,22.8125 Q260.6225,24.9063 261.31,25.9844 Q261.9975,27.0469 263.3413,27.0469 Q263.9663,27.0469 264.56,26.7813 Q265.1538,26.5 265.7788,25.9219 L265.7788,28.6406 Z " fill="#000000"/><text fill="#000000" font-family="sans-serif" font-size="14" lengthAdjust="spacing" textLength="76.4463" x="276.81" y="27.8467">Plataforma</text></g><!--class Usuario--><g class="entity" data-qualified-name="Usuario" data-source-line="7" id="ent0006"><rect fill="#F1F1F1" height="32" rx="2.5" ry="2.5" style="stroke:#181818;stroke-width:0.5;" width="85.2041" x="22.44" y="7"/><ellipse cx="37.44" cy="23" fill="#ADD1B2" rx="11" ry="11" style="stroke:#181818;stroke-width:1;"/><path d="M40.4088,28.6406 Q39.8306,28.9375 39.19,29.0781 Q38.5494,29.2344 37.8463,29.2344 Q35.3463,29.2344 34.0181,27.5938 Q32.7056,25.9375 32.7056,22.8125 Q32.7056,19.6875 34.0181,18.0313 Q35.3463,16.375 37.8463,16.375 Q38.5494,16.375 39.19,16.5313 Q39.8463,16.6875 40.4088,16.9844 L40.4088,19.7031 Q39.7838,19.125 39.19,18.8594 Q38.5963,18.5781 37.9713,18.5781 Q36.6275,18.5781 35.94,19.6563 Q35.2525,20.7188 35.2525,22.8125 Q35.2525,24.9063 35.94,25.9844 Q36.6275,27.0469 37.9713,27.0469 Q38.5963,27.0469 39.19,26.7813 Q39.7838,26.5 40.4088,25.9219 L40.4088,28.6406 Z " fill="#000000"/><text fill="#000000" font-family="sans-serif" font-size="14" lengthAdjust="spacing" textLength="53.2041" x="51.44" y="27.8467">Usuario</text></g><!--class Artista--><g class="entity" data-qualified-name="Artista" data-source-line="8" id="ent0007"><rect fill="#F1F1F1" height="32" rx="2.5" ry="2.5" style="stroke:#181818;stroke-width:0.5;" width="78.0742" x="7" y="178"/><ellipse cx="22" cy="194" fill="#ADD1B2" rx="11" ry="11" style="stroke:#181818;stroke-width:1;"/><path d="M24.9688,199.6406 Q24.3906,199.9375 23.75,200.0781 Q23.1094,200.2344 22.4063,200.2344 Q19.9063,200.2344 18.5781,198.5938 Q17.2656,196.9375 17.2656,193.8125 Q17.2656,190.6875 18.5781,189.0313 Q19.9063,187.375 22.4063,187.375 Q23.1094,187.375 23.75,187.5313 Q24.4063,187.6875 24.9688,187.9844 L24.9688,190.7031 Q24.3438,190.125 23.75,189.8594 Q23.1563,189.5781 22.5313,189.5781 Q21.1875,189.5781 20.5,190.6563 Q19.8125,191.7188 19.8125,193.8125 Q19.8125,195.9063 20.5,196.9844 Q21.1875,198.0469 22.5313,198.0469 Q23.1563,198.0469 23.75,197.7813 Q24.3438,197.5 24.9688,196.9219 L24.9688,199.6406 Z " fill="#000000"/><text fill="#000000" font-family="sans-serif" font-size="14" lengthAdjust="spacing" textLength="46.0742" x="36" y="198.8467">Artista</text></g><!--class EstiloMusical--><g class="entity" data-qualified-name="EstiloMusical" data-source-line="9" id="ent0008"><rect fill="#F1F1F1" height="32" rx="2.5" ry="2.5" style="stroke:#181818;stroke-width:0.5;" width="122.2754" x="15.9" y="349"/><ellipse cx="30.9" cy="365" fill="#ADD1B2" rx="11" ry="11" style="stroke:#181818;stroke-width:1;"/><path d="M33.8688,370.6406 Q33.2906,370.9375 32.65,371.0781 Q32.0094,371.2344 31.3063,371.2344 Q28.8063,371.2344 27.4781,369.5938 Q26.1656,367.9375 26.1656,364.8125 Q26.1656,361.6875 27.4781,360.0313 Q28.8063,358.375 31.3063,358.375 Q32.0094,358.375 32.65,358.5313 Q33.3063,358.6875 33.8688,358.9844 L33.8688,361.7031 Q33.2438,361.125 32.65,360.8594 Q32.0563,360.5781 31.4313,360.5781 Q30.0875,360.5781 29.4,361.6563 Q28.7125,362.7188 28.7125,364.8125 Q28.7125,366.9063 29.4,367.9844 Q30.0875,369.0469 31.4313,369.0469 Q32.0563,369.0469 32.65,368.7813 Q33.2438,368.5 33.8688,367.9219 L33.8688,370.6406 Z " fill="#000000"/><text fill="#000000" font-family="sans-serif" font-size="14" lengthAdjust="spacing" textLength="90.2754" x="44.9" y="369.8467">EstiloMusical</text></g><!--class Reproductor--><g class="entity" data-qualified-name="Reproductor" data-source-line="10" id="ent0009"><rect fill="#F1F1F1" height="32" rx="2.5" ry="2.5" style="stroke:#181818;stroke-width:0.5;" width="118.8164" x="71.63" y="116"/><ellipse cx="86.63" cy="132" fill="#ADD1B2" rx="11" ry="11" style="stroke:#181818;stroke-width:1;"/><path d="M89.5988,137.6406 Q89.0206,137.9375 88.38,138.0781 Q87.7394,138.2344 87.0363,138.2344 Q84.5363,138.2344 83.2081,136.5938 Q81.8956,134.9375 81.8956,131.8125 Q81.8956,128.6875 83.2081,127.0313 Q84.5363,125.375 87.0363,125.375 Q87.7394,125.375 88.38,125.5313 Q89.0363,125.6875 89.5988,125.9844 L89.5988,128.7031 Q88.9738,128.125 88.38,127.8594 Q87.7863,127.5781 87.1613,127.5781 Q85.8175,127.5781 85.13,128.6563 Q84.4425,129.7188 84.4425,131.8125 Q84.4425,133.9063 85.13,134.9844 Q85.8175,136.0469 87.1613,136.0469 Q87.7863,136.0469 88.38,135.7813 Q88.9738,135.5 89.5988,134.9219 L89.5988,137.6406 Z " fill="#000000"/><text fill="#000000" font-family="sans-serif" font-size="14" lengthAdjust="spacing" textLength="86.8164" x="100.63" y="136.8467">Reproductor</text></g><!--reverse link Album to Cancion--><g class="link" data-entity-1="ent0002" data-entity-2="ent0003" data-link-type="composition" data-source-line="13" id="lnk10"><path codeLine="13" d="M253.3602,159.5865 C243.9402,183.0565 230.59,216.28 221.19,239.67" fill="none" id="Album-backto-Cancion" style="stroke:#181818;stroke-width:1;"/><polygon fill="#181818" points="257.83,148.45,251.883,152.5283,253.3602,159.5865,259.3073,155.5082,257.83,148.45" style="stroke:#181818;stroke-width:1;"/></g><!--reverse link Playlist to Cancion--><g class="link" data-entity-1="ent0004" data-entity-2="ent0003" data-link-type="aggregation" data-source-line="14" id="lnk11"><path codeLine="14" d="M347.7838,155.6417 C316.4338,179.1117 266.77,216.28 235.51,239.67" fill="none" id="Playlist-backto-Cancion" style="stroke:#181818;stroke-width:1;"/><polygon fill="none" points="357.39,148.45,350.1897,148.8437,347.7838,155.6417,354.9841,155.2479,357.39,148.45" style="stroke:#181818;stroke-width:1;"/></g><!--reverse link Plataforma to Album--><g class="link" data-entity-1="ent0005" data-entity-2="ent0002" data-link-type="aggregation" data-source-line="15" id="lnk12"><path codeLine="15" d="M292.5758,50.6387 C285.3558,70.9787 276.69,95.37 269.47,115.7" fill="none" id="Plataforma-backto-Album" style="stroke:#181818;stroke-width:1;"/><polygon fill="none" points="296.59,39.33,290.8133,43.6463,292.5758,50.6387,298.3525,46.3224,296.59,39.33" style="stroke:#181818;stroke-width:1;"/></g><!--reverse link Plataforma to Playlist--><g class="link" data-entity-1="ent0005" data-entity-2="ent0004" data-link-type="aggregation" data-source-line="16" id="lnk13"><path codeLine="16" d="M319.8766,49.1149 C334.3166,69.4549 352.73,95.37 367.17,115.7" fill="none" id="Plataforma-backto-Playlist" style="stroke:#181818;stroke-width:1;"/><polygon fill="none" points="312.93,39.33,313.1417,46.538,319.8766,49.1149,319.6649,41.9069,312.93,39.33" style="stroke:#181818;stroke-width:1;"/></g><!--link Usuario to Artista--><g class="link" data-entity-1="ent0006" data-entity-2="ent0007" data-link-type="dependency" data-source-line="17" id="lnk14"><path codeLine="17" d="M53.47,39.34 C47.93,47.65 41.89,58.37 39.04,69 C28.82,107.11 35.4641,148.2483 40.8341,171.9483" fill="none" id="Usuario-to-Artista" style="stroke:#181818;stroke-width:1;"/><polygon fill="#181818" points="42.16,177.8,44.0723,168.1386,41.0551,172.9236,36.2701,169.9064,42.16,177.8" style="stroke:#181818;stroke-width:1;"/><text fill="#000000" font-family="sans-serif" font-size="13" lengthAdjust="spacing" textLength="46.9727" x="40.04" y="82.0669">sigue a</text></g><!--link Usuario to Usuario--><g class="link" data-entity-1="ent0006" data-entity-2="ent0006" data-link-type="dependency" data-source-line="18" id="lnk15"><path codeLine="18" d="M108.13,12.9 C126.72,12.08 142.64,15.44 142.64,23 C142.64,30.56 132.7142,34.1844 114.1242,33.3644" fill="none" id="Usuario-to-Usuario" style="stroke:#181818;stroke-width:1;"/><polygon fill="#181818" points="108.13,33.1,116.945,37.4927,113.1251,33.3203,117.2975,29.5005,108.13,33.1" style="stroke:#181818;stroke-width:1;"/><text fill="#000000" font-family="sans-serif" font-size="13" lengthAdjust="spacing" textLength="47.2202" x="148.64" y="27.5669">amigos</text></g><!--link Artista to EstiloMusical--><g class="link" data-entity-1="ent0007" data-entity-2="ent0008" data-link-type="dependency" data-source-line="19" id="lnk16"><path codeLine="19" d="M48.84,210.3 C54.74,242.47 67.297,310.9186 73.177,342.9586" fill="none" id="Artista-to-EstiloMusical" style="stroke:#181818;stroke-width:1;"/><polygon fill="#181818" points="74.26,348.86,76.5697,339.2858,73.3575,343.9421,68.7011,340.7299,74.26,348.86" style="stroke:#181818;stroke-width:1;"/><text fill="#000000" font-family="sans-serif" font-size="13" lengthAdjust="spacing" textLength="85.2617" x="61.04" y="260.5669">se define por</text></g><!--link Cancion to EstiloMusical--><g class="link" data-entity-1="ent0003" data-entity-2="ent0008" data-link-type="dependency" data-source-line="20" id="lnk17"><path codeLine="20" d="M195.27,272.33 C169.03,292.67 127.7317,324.6935 101.5117,345.0235" fill="none" id="Cancion-to-EstiloMusical" style="stroke:#181818;stroke-width:1;"/><polygon fill="#181818" points="96.77,348.7,106.3335,346.3464,100.7214,345.6362,101.4315,340.0241,96.77,348.7" style="stroke:#181818;stroke-width:1;"/><text fill="#000000" font-family="sans-serif" font-size="13" lengthAdjust="spacing" textLength="78.1714" x="156.04" y="315.0669">pertenece a</text></g><!--link Reproductor to Cancion--><g class="link" data-entity-1="ent0009" data-entity-2="ent0003" data-link-type="dependency" data-source-line="21" id="lnk18"><path codeLine="21" d="M133.76,148.36 C137.26,164.81 144.54,191.09 158.04,210 C166.39,221.7 173.6903,228.4511 184.6803,236.1711" fill="none" id="Reproductor-to-Cancion" style="stroke:#181818;stroke-width:1;stroke-dasharray:7,7;"/><polygon fill="#181818" points="189.59,239.62,184.5247,231.1736,185.4986,236.7459,179.9262,237.7198,189.59,239.62" style="stroke:#181818;stroke-width:1;"/><text fill="#000000" font-family="sans-serif" font-size="13" lengthAdjust="spacing" textLength="66.5298" x="159.04" y="198.5669">reproduce</text></g><!--link Usuario to Reproductor--><g class="link" data-entity-1="ent0006" data-entity-2="ent0009" data-link-type="dependency" data-source-line="22" id="lnk19"><path codeLine="22" d="M74.49,39.33 C87.04,59.67 105.9101,90.2633 118.4501,110.5933" fill="none" id="Usuario-to-Reproductor" style="stroke:#181818;stroke-width:1;stroke-dasharray:7,7;"/><polygon fill="#181818" points="121.6,115.7,120.2796,105.9401,118.9751,111.4444,113.4707,110.1399,121.6,115.7" style="stroke:#181818;stroke-width:1;"/><text fill="#000000" font-family="sans-serif" font-size="13" lengthAdjust="spacing" textLength="94.1802" x="103.04" y="82.0669">interact&#250;a con</text></g><?plantuml-src ROz1JiGm34NtEONNI9q3T34IGYoH4187yAIUmL8ILxQpcAknvMAqGrAcY9tz_vV_ymTF19HdlqAcV2Ar4692CtXCfvhR_8GbifIslIQy9ZR_NHtFeXcRy6uLbQNVKL-otNisvoGlrJXYQjeRpIfJZIuQGhZrmiCmRAsz3sGljjQR_4FxHzn06n4Cmx7pm0Z6bqg0ExVF8s3cYrZeyTNSmQy722OwSo6O5_H6zczo9dKg5DUwktVXS3ZsZvQKDeSsfDM_pu_0nKan-jSdGfJo3G00?></g></svg>