<?plantuml 1.2026.2beta3?><svg xmlns="http://www.w3.org/2000/svg" xmlns:xlink="http://www.w3.org/1999/xlink" contentStyleType="text/css" data-diagram-type="CLASS" height="278px" preserveAspectRatio="none" style="width:361px;height:278px;background:#FFFFFF;" version="1.1" viewBox="0 0 361 278" width="361px" zoomAndPan="magnify"><defs/><g><!--class Participante--><g class="entity" data-qualified-name="Participante" data-source-line="1" id="ent0002"><rect fill="#F1F1F1" height="48" rx="2.5" ry="2.5" style="stroke:#181818;stroke-width:0.5;" width="116.1846" x="72.99" y="7"/><ellipse cx="87.99" cy="23" fill="#ADD1B2" rx="11" ry="11" style="stroke:#181818;stroke-width:1;"/><path d="M90.9588,28.6406 Q90.3806,28.9375 89.74,29.0781 Q89.0994,29.2344 88.3963,29.2344 Q85.8963,29.2344 84.5681,27.5938 Q83.2556,25.9375 83.2556,22.8125 Q83.2556,19.6875 84.5681,18.0313 Q85.8963,16.375 88.3963,16.375 Q89.0994,16.375 89.74,16.5313 Q90.3963,16.6875 90.9588,16.9844 L90.9588,19.7031 Q90.3338,19.125 89.74,18.8594 Q89.1463,18.5781 88.5213,18.5781 Q87.1775,18.5781 86.49,19.6563 Q85.8025,20.7188 85.8025,22.8125 Q85.8025,24.9063 86.49,25.9844 Q87.1775,27.0469 88.5213,27.0469 Q89.1463,27.0469 89.74,26.7813 Q90.3338,26.5 90.9588,25.9219 L90.9588,28.6406 Z " fill="#000000"/><text fill="#000000" font-family="sans-serif" font-size="14" lengthAdjust="spacing" textLength="84.1846" x="101.99" y="27.8467">Participante</text><line style="stroke:#181818;stroke-width:0.5;" x1="73.99" x2="188.1746" y1="39" y2="39"/><line style="stroke:#181818;stroke-width:0.5;" x1="73.99" x2="188.1746" y1="47" y2="47"/></g><!--class Conversacion--><g class="entity" data-qualified-name="Conversacion" data-source-line="2" id="ent0003"><rect fill="#F1F1F1" height="48" rx="2.5" ry="2.5" style="stroke:#181818;stroke-width:0.5;" width="126.7666" x="130.7" y="115"/><ellipse cx="145.7" cy="131" fill="#ADD1B2" rx="11" ry="11" style="stroke:#181818;stroke-width:1;"/><path d="M148.6688,136.6406 Q148.0906,136.9375 147.45,137.0781 Q146.8094,137.2344 146.1063,137.2344 Q143.6063,137.2344 142.2781,135.5938 Q140.9656,133.9375 140.9656,130.8125 Q140.9656,127.6875 142.2781,126.0313 Q143.6063,124.375 146.1063,124.375 Q146.8094,124.375 147.45,124.5313 Q148.1063,124.6875 148.6688,124.9844 L148.6688,127.7031 Q148.0438,127.125 147.45,126.8594 Q146.8563,126.5781 146.2313,126.5781 Q144.8875,126.5781 144.2,127.6563 Q143.5125,128.7188 143.5125,130.8125 Q143.5125,132.9063 144.2,133.9844 Q144.8875,135.0469 146.2313,135.0469 Q146.8563,135.0469 147.45,134.7813 Q148.0438,134.5 148.6688,133.9219 L148.6688,136.6406 Z " fill="#000000"/><text fill="#000000" font-family="sans-serif" font-size="14" lengthAdjust="spacing" textLength="94.7666" x="159.7" y="135.8467">Conversacion</text><line style="stroke:#181818;stroke-width:0.5;" x1="131.7" x2="256.4666" y1="147" y2="147"/><line style="stroke:#181818;stroke-width:0.5;" x1="131.7" x2="256.4666" y1="155" y2="155"/></g><!--class Interaccion--><g class="entity" data-qualified-name="Interaccion" data-source-line="3" id="ent0004"><rect fill="#F1F1F1" height="48" rx="2.5" ry="2.5" style="stroke:#181818;stroke-width:0.5;" width="110.1621" x="7" y="223"/><ellipse cx="22" cy="239" fill="#ADD1B2" rx="11" ry="11" style="stroke:#181818;stroke-width:1;"/><path d="M24.9688,244.6406 Q24.3906,244.9375 23.75,245.0781 Q23.1094,245.2344 22.4063,245.2344 Q19.9063,245.2344 18.5781,243.5938 Q17.2656,241.9375 17.2656,238.8125 Q17.2656,235.6875 18.5781,234.0313 Q19.9063,232.375 22.4063,232.375 Q23.1094,232.375 23.75,232.5313 Q24.4063,232.6875 24.9688,232.9844 L24.9688,235.7031 Q24.3438,235.125 23.75,234.8594 Q23.1563,234.5781 22.5313,234.5781 Q21.1875,234.5781 20.5,235.6563 Q19.8125,236.7188 19.8125,238.8125 Q19.8125,240.9063 20.5,241.9844 Q21.1875,243.0469 22.5313,243.0469 Q23.1563,243.0469 23.75,242.7813 Q24.3438,242.5 24.9688,241.9219 L24.9688,244.6406 Z " fill="#000000"/><text fill="#000000" font-family="sans-serif" font-size="14" lengthAdjust="spacing" textLength="78.1621" x="36" y="243.8467">Interaccion</text><line style="stroke:#181818;stroke-width:0.5;" x1="8" x2="116.1621" y1="255" y2="255"/><line style="stroke:#181818;stroke-width:0.5;" x1="8" x2="116.1621" y1="263" y2="263"/></g><!--class Contexto--><g class="entity" data-qualified-name="Contexto" data-source-line="4" id="ent0005"><rect fill="#F1F1F1" height="48" rx="2.5" ry="2.5" style="stroke:#181818;stroke-width:0.5;" width="95.6563" x="152.25" y="223"/><ellipse cx="167.25" cy="239" fill="#ADD1B2" rx="11" ry="11" style="stroke:#181818;stroke-width:1;"/><path d="M170.2188,244.6406 Q169.6406,244.9375 169,245.0781 Q168.3594,245.2344 167.6563,245.2344 Q165.1563,245.2344 163.8281,243.5938 Q162.5156,241.9375 162.5156,238.8125 Q162.5156,235.6875 163.8281,234.0313 Q165.1563,232.375 167.6563,232.375 Q168.3594,232.375 169,232.5313 Q169.6563,232.6875 170.2188,232.9844 L170.2188,235.7031 Q169.5938,235.125 169,234.8594 Q168.4063,234.5781 167.7813,234.5781 Q166.4375,234.5781 165.75,235.6563 Q165.0625,236.7188 165.0625,238.8125 Q165.0625,240.9063 165.75,241.9844 Q166.4375,243.0469 167.7813,243.0469 Q168.4063,243.0469 169,242.7813 Q169.5938,242.5 170.2188,241.9219 L170.2188,244.6406 Z " fill="#000000"/><text fill="#000000" font-family="sans-serif" font-size="14" lengthAdjust="spacing" textLength="63.6563" x="181.25" y="243.8467">Contexto</text><line style="stroke:#181818;stroke-width:0.5;" x1="153.25" x2="246.9063" y1="255" y2="255"/><line style="stroke:#181818;stroke-width:0.5;" x1="153.25" x2="246.9063" y1="263" y2="263"/></g><!--class Tema--><g class="entity" data-qualified-name="Tema" data-source-line="5" id="ent0006"><rect fill="#F1F1F1" height="48" rx="2.5" ry="2.5" style="stroke:#181818;stroke-width:0.5;" width="71.3818" x="283.39" y="223"/><ellipse cx="298.39" cy="239" fill="#ADD1B2" rx="11" ry="11" style="stroke:#181818;stroke-width:1;"/><path d="M301.3588,244.6406 Q300.7806,244.9375 300.14,245.0781 Q299.4994,245.2344 298.7963,245.2344 Q296.2963,245.2344 294.9681,243.5938 Q293.6556,241.9375 293.6556,238.8125 Q293.6556,235.6875 294.9681,234.0313 Q296.2963,232.375 298.7963,232.375 Q299.4994,232.375 300.14,232.5313 Q300.7963,232.6875 301.3588,232.9844 L301.3588,235.7031 Q300.7338,235.125 300.14,234.8594 Q299.5463,234.5781 298.9213,234.5781 Q297.5775,234.5781 296.89,235.6563 Q296.2025,236.7188 296.2025,238.8125 Q296.2025,240.9063 296.89,241.9844 Q297.5775,243.0469 298.9213,243.0469 Q299.5463,243.0469 300.14,242.7813 Q300.7338,242.5 301.3588,241.9219 L301.3588,244.6406 Z " fill="#000000"/><text fill="#000000" font-family="sans-serif" font-size="14" lengthAdjust="spacing" textLength="39.3818" x="312.39" y="243.8467">Tema</text><line style="stroke:#181818;stroke-width:0.5;" x1="284.39" x2="353.7718" y1="255" y2="255"/><line style="stroke:#181818;stroke-width:0.5;" x1="284.39" x2="353.7718" y1="263" y2="263"/></g><!--link Participante to Conversacion--><g class="link" data-entity-1="ent0002" data-entity-2="ent0003" data-link-type="association" data-source-line="7" id="lnk7"><path codeLine="7" d="M144.91,55.26 C155.41,72.94 169.79,97.13 180.29,114.79" fill="none" id="Participante-Conversacion" style="stroke:#181818;stroke-width:1;"/></g><!--reverse link Conversacion to Interaccion--><g class="link" data-entity-1="ent0003" data-entity-2="ent0004" data-link-type="composition" data-source-line="8" id="lnk8"><path codeLine="8" d="M155.7545,170.775 C133.7445,188.455 112.97,205.13 90.98,222.79" fill="none" id="Conversacion-backto-Interaccion" style="stroke:#181818;stroke-width:1;"/><polygon fill="#181818" points="165.11,163.26,157.9273,163.899,155.7545,170.775,162.9373,170.136,165.11,163.26" style="stroke:#181818;stroke-width:1;"/></g><!--link Participante to Interaccion--><g class="link" data-entity-1="ent0002" data-entity-2="ent0004" data-link-type="dependency" data-source-line="9" id="lnk9"><path codeLine="9" d="M123.57,55.31 C110.29,96.47 84.6906,175.8693 71.4306,217.0093" fill="none" id="Participante-to-Interaccion" style="stroke:#181818;stroke-width:1;"/><polygon fill="#181818" points="69.59,222.72,76.1581,215.381,71.1239,217.9611,68.5438,212.9269,69.59,222.72" style="stroke:#181818;stroke-width:1;"/></g><!--link Conversacion to Contexto--><g class="link" data-entity-1="ent0003" data-entity-2="ent0005" data-link-type="association" data-source-line="10" id="lnk10"><path codeLine="10" d="M195.4,163.26 C196.4,180.94 197.77,205.13 198.77,222.79" fill="none" id="Conversacion-Contexto" style="stroke:#181818;stroke-width:1;"/></g><!--reverse link Conversacion to Tema--><g class="link" data-entity-1="ent0003" data-entity-2="ent0006" data-link-type="aggregation" data-source-line="11" id="lnk11"><path codeLine="11" d="M230.6606,171.0231 C251.5006,188.7031 270.89,205.13 291.71,222.79" fill="none" id="Conversacion-backto-Tema" style="stroke:#181818;stroke-width:1;"/><polygon fill="none" points="221.51,163.26,223.4976,170.1918,230.6606,171.0231,228.673,164.0913,221.51,163.26" style="stroke:#181818;stroke-width:1;"/></g><?plantuml-src Iyv9B2vM24WiAibCpYn8p2j9vKe62pddvvMb5XKd9cVcvq65F86oHOd9I290HIMf5INvK6v8QcuY5nUoOGgwkgWc8NCKj82oo8QYwRH3aKJH2J4MOZUAH3vG1kGC0000?></g></svg>