<?plantuml 1.2026.2beta3?><svg xmlns="http://www.w3.org/2000/svg" xmlns:xlink="http://www.w3.org/1999/xlink" contentStyleType="text/css" data-diagram-type="CLASS" height="474px" preserveAspectRatio="none" style="width:511px;height:474px;background:#FFFFFF;" version="1.1" viewBox="0 0 511 474" width="511px" zoomAndPan="magnify"><title>Diagrama de clases de una decisi&#243;n</title><defs/><g><g class="title" data-source-line="1"><text fill="#000000" font-family="sans-serif" font-size="14" font-weight="bold" lengthAdjust="spacing" textLength="283.0967" x="107.4502" y="22.9951">Diagrama de clases de una decisi&#243;n</text></g><!--class Decisi?n--><g class="entity" data-qualified-name="Decisi.n" data-source-line="4" id="ent0002"><rect fill="#F1F1F1" height="48" rx="2.5" ry="2.5" style="stroke:#181818;stroke-width:0.5;" width="91.6025" x="221.16" y="44.2969"/><ellipse cx="236.16" cy="60.2969" fill="#ADD1B2" rx="11" ry="11" style="stroke:#181818;stroke-width:1;"/><path d="M239.1288,65.9375 Q238.5506,66.2344 237.91,66.375 Q237.2694,66.5313 236.5663,66.5313 Q234.0663,66.5313 232.7381,64.8906 Q231.4256,63.2344 231.4256,60.1094 Q231.4256,56.9844 232.7381,55.3281 Q234.0663,53.6719 236.5663,53.6719 Q237.2694,53.6719 237.91,53.8281 Q238.5663,53.9844 239.1288,54.2813 L239.1288,57 Q238.5038,56.4219 237.91,56.1563 Q237.3163,55.875 236.6913,55.875 Q235.3475,55.875 234.66,56.9531 Q233.9725,58.0156 233.9725,60.1094 Q233.9725,62.2031 234.66,63.2813 Q235.3475,64.3438 236.6913,64.3438 Q237.3163,64.3438 237.91,64.0781 Q238.5038,63.7969 239.1288,63.2188 L239.1288,65.9375 Z " fill="#000000"/><text fill="#000000" font-family="sans-serif" font-size="14" lengthAdjust="spacing" textLength="59.6025" x="250.16" y="65.1436">Decisi&#243;n</text><line style="stroke:#181818;stroke-width:0.5;" x1="222.16" x2="311.7625" y1="76.2969" y2="76.2969"/><line style="stroke:#181818;stroke-width:0.5;" x1="222.16" x2="311.7625" y1="84.2969" y2="84.2969"/></g><!--class Criterio--><g class="entity" data-qualified-name="Criterio" data-source-line="8" id="ent0003"><rect fill="#F1F1F1" height="48" rx="2.5" ry="2.5" style="stroke:#181818;stroke-width:0.5;" width="83.7344" x="251.09" y="419.2969"/><ellipse cx="266.09" cy="435.2969" fill="#ADD1B2" rx="11" ry="11" style="stroke:#181818;stroke-width:1;"/><path d="M269.0588,440.9375 Q268.4806,441.2344 267.84,441.375 Q267.1994,441.5313 266.4963,441.5313 Q263.9963,441.5313 262.6681,439.8906 Q261.3556,438.2344 261.3556,435.1094 Q261.3556,431.9844 262.6681,430.3281 Q263.9963,428.6719 266.4963,428.6719 Q267.1994,428.6719 267.84,428.8281 Q268.4963,428.9844 269.0588,429.2813 L269.0588,432 Q268.4338,431.4219 267.84,431.1563 Q267.2463,430.875 266.6213,430.875 Q265.2775,430.875 264.59,431.9531 Q263.9025,433.0156 263.9025,435.1094 Q263.9025,437.2031 264.59,438.2813 Q265.2775,439.3438 266.6213,439.3438 Q267.2463,439.3438 267.84,439.0781 Q268.4338,438.7969 269.0588,438.2188 L269.0588,440.9375 Z " fill="#000000"/><text fill="#000000" font-family="sans-serif" font-size="14" lengthAdjust="spacing" textLength="51.7344" x="280.09" y="440.1436">Criterio</text><line style="stroke:#181818;stroke-width:0.5;" x1="252.09" x2="333.8244" y1="451.2969" y2="451.2969"/><line style="stroke:#181818;stroke-width:0.5;" x1="252.09" x2="333.8244" y1="459.2969" y2="459.2969"/></g><!--class Opci?n--><g class="entity" data-qualified-name="Opci.n" data-source-line="12" id="ent0004"><rect fill="#F1F1F1" height="48" rx="2.5" ry="2.5" style="stroke:#181818;stroke-width:0.5;" width="80.9316" x="352.49" y="169.2969"/><ellipse cx="367.49" cy="185.2969" fill="#ADD1B2" rx="11" ry="11" style="stroke:#181818;stroke-width:1;"/><path d="M370.4588,190.9375 Q369.8806,191.2344 369.24,191.375 Q368.5994,191.5313 367.8963,191.5313 Q365.3963,191.5313 364.0681,189.8906 Q362.7556,188.2344 362.7556,185.1094 Q362.7556,181.9844 364.0681,180.3281 Q365.3963,178.6719 367.8963,178.6719 Q368.5994,178.6719 369.24,178.8281 Q369.8963,178.9844 370.4588,179.2813 L370.4588,182 Q369.8338,181.4219 369.24,181.1563 Q368.6463,180.875 368.0213,180.875 Q366.6775,180.875 365.99,181.9531 Q365.3025,183.0156 365.3025,185.1094 Q365.3025,187.2031 365.99,188.2813 Q366.6775,189.3438 368.0213,189.3438 Q368.6463,189.3438 369.24,189.0781 Q369.8338,188.7969 370.4588,188.2188 L370.4588,190.9375 Z " fill="#000000"/><text fill="#000000" font-family="sans-serif" font-size="14" lengthAdjust="spacing" textLength="48.9316" x="381.49" y="190.1436">Opci&#243;n</text><line style="stroke:#181818;stroke-width:0.5;" x1="353.49" x2="432.4216" y1="201.2969" y2="201.2969"/><line style="stroke:#181818;stroke-width:0.5;" x1="353.49" x2="432.4216" y1="209.2969" y2="209.2969"/></g><!--class Experiencia--><g class="entity" data-qualified-name="Experiencia" data-source-line="16" id="ent0005"><rect fill="#F1F1F1" height="48" rx="2.5" ry="2.5" style="stroke:#181818;stroke-width:0.5;" width="113.9287" x="94.99" y="294.2969"/><ellipse cx="109.99" cy="310.2969" fill="#ADD1B2" rx="11" ry="11" style="stroke:#181818;stroke-width:1;"/><path d="M112.9588,315.9375 Q112.3806,316.2344 111.74,316.375 Q111.0994,316.5313 110.3963,316.5313 Q107.8963,316.5313 106.5681,314.8906 Q105.2556,313.2344 105.2556,310.1094 Q105.2556,306.9844 106.5681,305.3281 Q107.8963,303.6719 110.3963,303.6719 Q111.0994,303.6719 111.74,303.8281 Q112.3963,303.9844 112.9588,304.2813 L112.9588,307 Q112.3338,306.4219 111.74,306.1563 Q111.1463,305.875 110.5213,305.875 Q109.1775,305.875 108.49,306.9531 Q107.8025,308.0156 107.8025,310.1094 Q107.8025,312.2031 108.49,313.2813 Q109.1775,314.3438 110.5213,314.3438 Q111.1463,314.3438 111.74,314.0781 Q112.3338,313.7969 112.9588,313.2188 L112.9588,315.9375 Z " fill="#000000"/><text fill="#000000" font-family="sans-serif" font-size="14" lengthAdjust="spacing" textLength="81.9287" x="123.99" y="315.1436">Experiencia</text><line style="stroke:#181818;stroke-width:0.5;" x1="95.99" x2="207.9187" y1="326.2969" y2="326.2969"/><line style="stroke:#181818;stroke-width:0.5;" x1="95.99" x2="207.9187" y1="334.2969" y2="334.2969"/></g><!--class Resultado--><g class="entity" data-qualified-name="Resultado" data-source-line="20" id="ent0006"><rect fill="#F1F1F1" height="48" rx="2.5" ry="2.5" style="stroke:#181818;stroke-width:0.5;" width="101.918" x="7" y="169.2969"/><ellipse cx="22" cy="185.2969" fill="#ADD1B2" rx="11" ry="11" style="stroke:#181818;stroke-width:1;"/><path d="M24.9688,190.9375 Q24.3906,191.2344 23.75,191.375 Q23.1094,191.5313 22.4063,191.5313 Q19.9063,191.5313 18.5781,189.8906 Q17.2656,188.2344 17.2656,185.1094 Q17.2656,181.9844 18.5781,180.3281 Q19.9063,178.6719 22.4063,178.6719 Q23.1094,178.6719 23.75,178.8281 Q24.4063,178.9844 24.9688,179.2813 L24.9688,182 Q24.3438,181.4219 23.75,181.1563 Q23.1563,180.875 22.5313,180.875 Q21.1875,180.875 20.5,181.9531 Q19.8125,183.0156 19.8125,185.1094 Q19.8125,187.2031 20.5,188.2813 Q21.1875,189.3438 22.5313,189.3438 Q23.1563,189.3438 23.75,189.0781 Q24.3438,188.7969 24.9688,188.2188 L24.9688,190.9375 Z " fill="#000000"/><text fill="#000000" font-family="sans-serif" font-size="14" lengthAdjust="spacing" textLength="69.918" x="36" y="190.1436">Resultado</text><line style="stroke:#181818;stroke-width:0.5;" x1="8" x2="107.918" y1="201.2969" y2="201.2969"/><line style="stroke:#181818;stroke-width:0.5;" x1="8" x2="107.918" y1="209.2969" y2="209.2969"/></g><!--class Evaluaci?n--><g class="entity" data-qualified-name="Evaluaci.n" data-source-line="24" id="ent0007"><rect fill="#F1F1F1" height="48" rx="2.5" ry="2.5" style="stroke:#181818;stroke-width:0.5;" width="108.0771" x="396.92" y="44.2969"/><ellipse cx="411.92" cy="60.2969" fill="#ADD1B2" rx="11" ry="11" style="stroke:#181818;stroke-width:1;"/><path d="M414.8888,65.9375 Q414.3106,66.2344 413.67,66.375 Q413.0294,66.5313 412.3263,66.5313 Q409.8263,66.5313 408.4981,64.8906 Q407.1856,63.2344 407.1856,60.1094 Q407.1856,56.9844 408.4981,55.3281 Q409.8263,53.6719 412.3263,53.6719 Q413.0294,53.6719 413.67,53.8281 Q414.3263,53.9844 414.8888,54.2813 L414.8888,57 Q414.2638,56.4219 413.67,56.1563 Q413.0763,55.875 412.4513,55.875 Q411.1075,55.875 410.42,56.9531 Q409.7325,58.0156 409.7325,60.1094 Q409.7325,62.2031 410.42,63.2813 Q411.1075,64.3438 412.4513,64.3438 Q413.0763,64.3438 413.67,64.0781 Q414.2638,63.7969 414.8888,63.2188 L414.8888,65.9375 Z " fill="#000000"/><text fill="#000000" font-family="sans-serif" font-size="14" lengthAdjust="spacing" textLength="76.0771" x="425.92" y="65.1436">Evaluaci&#243;n</text><line style="stroke:#181818;stroke-width:0.5;" x1="397.92" x2="503.9971" y1="76.2969" y2="76.2969"/><line style="stroke:#181818;stroke-width:0.5;" x1="397.92" x2="503.9971" y1="84.2969" y2="84.2969"/></g><!--class Contexto--><g class="entity" data-qualified-name="Contexto" data-source-line="28" id="ent0008"><rect fill="#F1F1F1" height="48" rx="2.5" ry="2.5" style="stroke:#181818;stroke-width:0.5;" width="95.6563" x="144.13" y="169.2969"/><ellipse cx="159.13" cy="185.2969" fill="#ADD1B2" rx="11" ry="11" style="stroke:#181818;stroke-width:1;"/><path d="M162.0988,190.9375 Q161.5206,191.2344 160.88,191.375 Q160.2394,191.5313 159.5363,191.5313 Q157.0363,191.5313 155.7081,189.8906 Q154.3956,188.2344 154.3956,185.1094 Q154.3956,181.9844 155.7081,180.3281 Q157.0363,178.6719 159.5363,178.6719 Q160.2394,178.6719 160.88,178.8281 Q161.5363,178.9844 162.0988,179.2813 L162.0988,182 Q161.4738,181.4219 160.88,181.1563 Q160.2863,180.875 159.6613,180.875 Q158.3175,180.875 157.63,181.9531 Q156.9425,183.0156 156.9425,185.1094 Q156.9425,187.2031 157.63,188.2813 Q158.3175,189.3438 159.6613,189.3438 Q160.2863,189.3438 160.88,189.0781 Q161.4738,188.7969 162.0988,188.2188 L162.0988,190.9375 Z " fill="#000000"/><text fill="#000000" font-family="sans-serif" font-size="14" lengthAdjust="spacing" textLength="63.6563" x="173.13" y="190.1436">Contexto</text><line style="stroke:#181818;stroke-width:0.5;" x1="145.13" x2="238.7863" y1="201.2969" y2="201.2969"/><line style="stroke:#181818;stroke-width:0.5;" x1="145.13" x2="238.7863" y1="209.2969" y2="209.2969"/></g><!--reverse link Decisi?n to Opci?n--><g class="link" data-entity-1="ent0002" data-entity-2="ent0004" data-link-type="composition" data-source-line="36" id="lnk9"><path codeLine="36" d="M299.5462,101.1001 C321.9662,122.9901 346.66,147.0969 369.05,168.9569" fill="none" id="Decisi&#243;n-backto-Opci&#243;n" style="stroke:#181818;stroke-width:1;"/><polygon fill="#181818" points="290.96,92.7169,292.4587,99.7705,299.5462,101.1001,298.0475,94.0464,290.96,92.7169" style="stroke:#181818;stroke-width:1;"/><text fill="#000000" font-family="sans-serif" font-size="13" lengthAdjust="spacing" textLength="32.9443" x="338.96" y="135.3638">tiene</text></g><!--reverse link Decisi?n to Criterio--><g class="link" data-entity-1="ent0002" data-entity-2="ent0003" data-link-type="aggregation" data-source-line="37" id="lnk10"><path codeLine="37" d="M269.6704,104.7423 C270.3704,113.9423 270.26,112.6369 270.96,122.2969 C278.97,233.3769 287.89,366.2069 291.41,419.0069" fill="none" id="Decisi&#243;n-backto-Criterio" style="stroke:#181818;stroke-width:1;"/><polygon fill="none" points="268.76,92.7769,265.2267,99.0631,269.6704,104.7423,273.2037,98.4561,268.76,92.7769" style="stroke:#181818;stroke-width:1;"/><text fill="#000000" font-family="sans-serif" font-size="13" lengthAdjust="spacing" textLength="22.9785" x="281.96" y="260.3638">usa</text></g><!--link Evaluaci?n to Opci?n--><g class="link" data-entity-1="ent0007" data-entity-2="ent0004" data-link-type="dependency" data-source-line="38" id="lnk11"><path codeLine="38" d="M437.41,92.7569 C432.34,101.8669 426.67,112.4569 421.96,122.2969 C414.63,137.5969 409.5273,149.6777 404.0873,163.4277" fill="none" id="Evaluaci&#243;n-to-Opci&#243;n" style="stroke:#181818;stroke-width:1;"/><polygon fill="#181818" points="401.88,169.0069,408.9105,162.1096,403.7195,164.3575,401.4715,159.1665,401.88,169.0069" style="stroke:#181818;stroke-width:1;"/><text fill="#000000" font-family="sans-serif" font-size="13" lengthAdjust="spacing" textLength="43.4751" x="422.96" y="135.3638">eval&#250;a</text></g><!--link Evaluaci?n to Criterio--><g class="link" data-entity-1="ent0007" data-entity-2="ent0003" data-link-type="dependency" data-source-line="39" id="lnk12"><path codeLine="39" d="M461.9,92.7869 C465.55,101.8069 469.14,112.3269 470.96,122.2969 C477.24,156.7069 452.14,214.7269 450.96,217.2969 C413.92,297.7169 351.5202,375.1847 317.8002,414.2547" fill="none" id="Evaluaci&#243;n-to-Criterio" style="stroke:#181818;stroke-width:1;"/><polygon fill="#181818" points="313.88,418.7969,322.7885,414.597,317.1469,415.0117,316.7322,409.3701,313.88,418.7969" style="stroke:#181818;stroke-width:1;"/><text fill="#000000" font-family="sans-serif" font-size="13" lengthAdjust="spacing" textLength="48.4897" x="435.96" y="260.3638">emplea</text></g><!--reverse link Decisi?n to Resultado--><g class="link" data-entity-1="ent0002" data-entity-2="ent0006" data-link-type="composition" data-source-line="40" id="lnk13"><path codeLine="40" d="M209.2718,82.997 C179.1018,91.317 151.37,101.7969 120.96,122.2969 C102.39,134.8169 85.65,153.9869 74.1,169.0969" fill="none" id="Decisi&#243;n-backto-Resultado" style="stroke:#181818;stroke-width:1;"/><polygon fill="#181818" points="220.84,79.8069,213.9925,77.5459,209.2718,82.997,216.1193,85.258,220.84,79.8069" style="stroke:#181818;stroke-width:1;"/><text fill="#000000" font-family="sans-serif" font-size="13" lengthAdjust="spacing" textLength="53.187" x="121.96" y="135.3638">produce</text></g><!--link Resultado to Experiencia--><g class="link" data-entity-1="ent0006" data-entity-2="ent0005" data-link-type="dependency" data-source-line="41" id="lnk14"><path codeLine="41" d="M75.86,217.7169 C92.59,239.6069 113.7776,267.329 130.4776,289.189" fill="none" id="Resultado-to-Experiencia" style="stroke:#181818;stroke-width:1;"/><polygon fill="#181818" points="134.12,293.9569,131.8349,284.3768,131.0846,289.9836,125.4778,289.2333,134.12,293.9569" style="stroke:#181818;stroke-width:1;"/><text fill="#000000" font-family="sans-serif" font-size="13" lengthAdjust="spacing" textLength="45.7983" x="111.96" y="260.3638">genera</text></g><!--link Decisi?n to Contexto--><g class="link" data-entity-1="ent0002" data-entity-2="ent0008" data-link-type="dependency" data-source-line="42" id="lnk15"><path codeLine="42" d="M220.87,89.6469 C207.86,97.8169 195.26,108.5969 187.96,122.2969 C180.4,136.4769 180.4538,148.7777 183.4838,163.0477" fill="none" id="Decisi&#243;n-to-Contexto" style="stroke:#181818;stroke-width:1;"/><polygon fill="#181818" points="184.73,168.9169,186.7734,159.2823,183.6915,164.0259,178.9479,160.944,184.73,168.9169" style="stroke:#181818;stroke-width:1;"/><text fill="#000000" font-family="sans-serif" font-size="13" lengthAdjust="spacing" textLength="77.3716" x="188.96" y="135.3638">depende de</text></g><!--link Experiencia to Criterio--><g class="link" data-entity-1="ent0005" data-entity-2="ent0003" data-link-type="dependency" data-source-line="43" id="lnk16"><path codeLine="43" d="M175.46,342.5469 C189.77,356.4369 208.58,374.2469 225.96,389.2969 C237.51,399.2969 245.8827,406.1319 257.4227,415.1519" fill="none" id="Experiencia-to-Criterio" style="stroke:#181818;stroke-width:1;"/><polygon fill="#181818" points="262.15,418.8469,257.5224,410.1529,258.2106,415.7677,252.5958,416.4559,262.15,418.8469" style="stroke:#181818;stroke-width:1;"/><text fill="#000000" font-family="sans-serif" font-size="13" lengthAdjust="spacing" textLength="39.6538" x="226.96" y="385.3638">ajusta</text></g><?plantuml-src PL4x2iCm3Drz2j6na0juw99aBlG6mX71nN6CFoLGUgfkNNEnsgLsdDQJUUz9xqdoqYk2GoTnj3WX30H2eIENVa4dG4WdrwS-CCOIvQ3B4DmPUsIqjTAJbVCEF1jHX931VZ5HI5f8t8alv8BoEEnRz3TK0QisfKyxQq-Bp_BqjcZ7fidk77nqeugS8vdpSWWEMUtIDASId0D5PdtzAxPwcemY_F4kmt0mTXw28BRDb-ghBN0OOpvRj_WuVEVZyGY6T3p8GAnUtZu6NeFp-0O0?></g></svg>