<svg xmlns="http://www.w3.org/2000/svg" xmlns:xlink="http://www.w3.org/1999/xlink" contentStyleType="text/css" data-diagram-type="CLASS" height="722px" preserveAspectRatio="none" style="width:833px;height:722px;background:#FFFFFF;" version="1.1" viewBox="0 0 833 722" width="833px" zoomAndPan="magnify"><defs/><g><!--class TipoSuscripcion--><g class="entity" data-entity="TipoSuscripcion" data-source-line="4" data-uid="ent0002" id="entity_TipoSuscripcion"><rect fill="#F1F1F1" height="80.5938" rx="2.5" ry="2.5" style="stroke:#181818;stroke-width:0.5;" width="142.2021" x="7" y="329"/><ellipse cx="22" cy="345" fill="#EB937F" rx="11" ry="11" style="stroke:#181818;stroke-width:1;"/><path d="M26.1094,351 L18.3906,351 L18.3906,338.6094 L26.1094,338.6094 L26.1094,340.7656 L20.8438,340.7656 L20.8438,343.4375 L25.6094,343.4375 L25.6094,345.5938 L20.8438,345.5938 L20.8438,348.8438 L26.1094,348.8438 L26.1094,351 Z " fill="#000000"/><text fill="#000000" font-family="sans-serif" font-size="14" lengthAdjust="spacing" textLength="110.2021" x="36" y="349.8467">TipoSuscripcion</text><line style="stroke:#181818;stroke-width:0.5;" x1="8" x2="148.2021" y1="361" y2="361"/><text fill="#000000" font-family="sans-serif" font-size="14" lengthAdjust="spacing" textLength="71.21" x="13" y="377.9951">GRATUITA</text><text fill="#000000" font-family="sans-serif" font-size="14" lengthAdjust="spacing" textLength="65.5498" x="13" y="394.292">PREMIUM</text><line style="stroke:#181818;stroke-width:0.5;" x1="8" x2="148.2021" y1="401.5938" y2="401.5938"/></g><!--class EstadoSuscripcion--><g class="entity" data-entity="EstadoSuscripcion" data-source-line="9" data-uid="ent0003" id="entity_EstadoSuscripcion"><rect fill="#F1F1F1" height="80.5938" rx="2.5" ry="2.5" style="stroke:#181818;stroke-width:0.5;" width="159.9688" x="184" y="329"/><ellipse cx="199" cy="345" fill="#EB937F" rx="11" ry="11" style="stroke:#181818;stroke-width:1;"/><path d="M203.1094,351 L195.3906,351 L195.3906,338.6094 L203.1094,338.6094 L203.1094,340.7656 L197.8438,340.7656 L197.8438,343.4375 L202.6094,343.4375 L202.6094,345.5938 L197.8438,345.5938 L197.8438,348.8438 L203.1094,348.8438 L203.1094,351 Z " fill="#000000"/><text fill="#000000" font-family="sans-serif" font-size="14" lengthAdjust="spacing" textLength="127.9688" x="213" y="349.8467">EstadoSuscripcion</text><line style="stroke:#181818;stroke-width:0.5;" x1="185" x2="342.9688" y1="361" y2="361"/><text fill="#000000" font-family="sans-serif" font-size="14" lengthAdjust="spacing" textLength="51.1875" x="190" y="377.9951">ACTIVA</text><text fill="#000000" font-family="sans-serif" font-size="14" lengthAdjust="spacing" textLength="65.7891" x="190" y="394.292">INACTIVA</text><line style="stroke:#181818;stroke-width:0.5;" x1="185" x2="342.9688" y1="401.5938" y2="401.5938"/></g><!--class Usuario--><g class="entity" data-entity="Usuario" data-source-line="15" data-uid="ent0004" id="entity_Usuario"><rect fill="#F1F1F1" height="96.8906" rx="2.5" ry="2.5" style="stroke:#181818;stroke-width:0.5;" width="179.9863" x="353" y="7"/><ellipse cx="412.1411" cy="23" fill="#ADD1B2" rx="11" ry="11" style="stroke:#181818;stroke-width:1;"/><path d="M415.1099,28.6406 Q414.5317,28.9375 413.8911,29.0781 Q413.2505,29.2344 412.5474,29.2344 Q410.0474,29.2344 408.7192,27.5938 Q407.4067,25.9375 407.4067,22.8125 Q407.4067,19.6875 408.7192,18.0313 Q410.0474,16.375 412.5474,16.375 Q413.2505,16.375 413.8911,16.5313 Q414.5474,16.6875 415.1099,16.9844 L415.1099,19.7031 Q414.4849,19.125 413.8911,18.8594 Q413.2974,18.5781 412.6724,18.5781 Q411.3286,18.5781 410.6411,19.6563 Q409.9536,20.7188 409.9536,22.8125 Q409.9536,24.9063 410.6411,25.9844 Q411.3286,27.0469 412.6724,27.0469 Q413.2974,27.0469 413.8911,26.7813 Q414.4849,26.5 415.1099,25.9219 L415.1099,28.6406 Z " fill="#000000"/><text fill="#000000" font-family="sans-serif" font-size="14" lengthAdjust="spacing" textLength="53.2041" x="432.6411" y="27.8467">Usuario</text><line style="stroke:#181818;stroke-width:0.5;" x1="354" x2="531.9863" y1="39" y2="39"/><text fill="#000000" font-family="sans-serif" font-size="14" lengthAdjust="spacing" textLength="126.4307" x="359" y="55.9951">-idUsuario : String</text><text fill="#000000" font-family="sans-serif" font-size="14" lengthAdjust="spacing" textLength="167.9863" x="359" y="72.292">-nombreUsuario : String</text><text fill="#000000" font-family="sans-serif" font-size="14" lengthAdjust="spacing" textLength="99.0596" x="359" y="88.5889">-email : String</text><line style="stroke:#181818;stroke-width:0.5;" x1="354" x2="531.9863" y1="95.8906" y2="95.8906"/></g><!--class Suscripcion--><g class="entity" data-entity="Suscripcion" data-source-line="21" data-uid="ent0005" id="entity_Suscripcion"><rect fill="#F1F1F1" height="80.5938" rx="2.5" ry="2.5" style="stroke:#181818;stroke-width:0.5;" width="184.4912" x="148" y="172"/><ellipse cx="195.8413" cy="188" fill="#ADD1B2" rx="11" ry="11" style="stroke:#181818;stroke-width:1;"/><path d="M198.8101,193.6406 Q198.2319,193.9375 197.5913,194.0781 Q196.9507,194.2344 196.2476,194.2344 Q193.7476,194.2344 192.4194,192.5938 Q191.1069,190.9375 191.1069,187.8125 Q191.1069,184.6875 192.4194,183.0313 Q193.7476,181.375 196.2476,181.375 Q196.9507,181.375 197.5913,181.5313 Q198.2476,181.6875 198.8101,181.9844 L198.8101,184.7031 Q198.1851,184.125 197.5913,183.8594 Q196.9976,183.5781 196.3726,183.5781 Q195.0288,183.5781 194.3413,184.6563 Q193.6538,185.7188 193.6538,187.8125 Q193.6538,189.9063 194.3413,190.9844 Q195.0288,192.0469 196.3726,192.0469 Q196.9976,192.0469 197.5913,191.7813 Q198.1851,191.5 198.8101,190.9219 L198.8101,193.6406 Z " fill="#000000"/><text fill="#000000" font-family="sans-serif" font-size="14" lengthAdjust="spacing" textLength="80.3086" x="216.3413" y="192.8467">Suscripcion</text><line style="stroke:#181818;stroke-width:0.5;" x1="149" x2="331.4912" y1="204" y2="204"/><text fill="#000000" font-family="sans-serif" font-size="14" lengthAdjust="spacing" textLength="127.8662" x="154" y="220.9951">-fechaInicio : Date</text><text fill="#000000" font-family="sans-serif" font-size="14" lengthAdjust="spacing" textLength="172.4912" x="154" y="237.292">-fechaRenovacion : Date</text><line style="stroke:#181818;stroke-width:0.5;" x1="149" x2="331.4912" y1="244.5938" y2="244.5938"/></g><!--class Playlist--><g class="entity" data-entity="Playlist" data-source-line="26" data-uid="ent0006" id="entity_Playlist"><rect fill="#F1F1F1" height="96.8906" rx="2.5" ry="2.5" style="stroke:#181818;stroke-width:0.5;" width="152.499" x="367" y="164"/><ellipse cx="414.1201" cy="180" fill="#ADD1B2" rx="11" ry="11" style="stroke:#181818;stroke-width:1;"/><path d="M417.0889,185.6406 Q416.5107,185.9375 415.8701,186.0781 Q415.2295,186.2344 414.5264,186.2344 Q412.0264,186.2344 410.6982,184.5938 Q409.3857,182.9375 409.3857,179.8125 Q409.3857,176.6875 410.6982,175.0313 Q412.0264,173.375 414.5264,173.375 Q415.2295,173.375 415.8701,173.5313 Q416.5264,173.6875 417.0889,173.9844 L417.0889,176.7031 Q416.4639,176.125 415.8701,175.8594 Q415.2764,175.5781 414.6514,175.5781 Q413.3076,175.5781 412.6201,176.6563 Q411.9326,177.7188 411.9326,179.8125 Q411.9326,181.9063 412.6201,182.9844 Q413.3076,184.0469 414.6514,184.0469 Q415.2764,184.0469 415.8701,183.7813 Q416.4639,183.5 417.0889,182.9219 L417.0889,185.6406 Z " fill="#000000"/><text fill="#000000" font-family="sans-serif" font-size="14" lengthAdjust="spacing" textLength="49.7588" x="434.6201" y="184.8467">Playlist</text><line style="stroke:#181818;stroke-width:0.5;" x1="368" x2="518.499" y1="196" y2="196"/><text fill="#000000" font-family="sans-serif" font-size="14" lengthAdjust="spacing" textLength="122.9854" x="373" y="212.9951">-idPlaylist : String</text><text fill="#000000" font-family="sans-serif" font-size="14" lengthAdjust="spacing" textLength="114.7822" x="373" y="229.292">-nombre : String</text><text fill="#000000" font-family="sans-serif" font-size="14" lengthAdjust="spacing" textLength="140.499" x="373" y="245.5889">-descripcion : String</text><line style="stroke:#181818;stroke-width:0.5;" x1="368" x2="518.499" y1="252.8906" y2="252.8906"/></g><!--class Artista--><g class="entity" data-entity="Artista" data-source-line="32" data-uid="ent0007" id="entity_Artista"><rect fill="#F1F1F1" height="96.8906" rx="2.5" ry="2.5" style="stroke:#181818;stroke-width:0.5;" width="184.4297" x="554" y="164"/><ellipse cx="618.9277" cy="180" fill="#ADD1B2" rx="11" ry="11" style="stroke:#181818;stroke-width:1;"/><path d="M621.8965,185.6406 Q621.3184,185.9375 620.6777,186.0781 Q620.0371,186.2344 619.334,186.2344 Q616.834,186.2344 615.5059,184.5938 Q614.1934,182.9375 614.1934,179.8125 Q614.1934,176.6875 615.5059,175.0313 Q616.834,173.375 619.334,173.375 Q620.0371,173.375 620.6777,173.5313 Q621.334,173.6875 621.8965,173.9844 L621.8965,176.7031 Q621.2715,176.125 620.6777,175.8594 Q620.084,175.5781 619.459,175.5781 Q618.1152,175.5781 617.4277,176.6563 Q616.7402,177.7188 616.7402,179.8125 Q616.7402,181.9063 617.4277,182.9844 Q618.1152,184.0469 619.459,184.0469 Q620.084,184.0469 620.6777,183.7813 Q621.2715,183.5 621.8965,182.9219 L621.8965,185.6406 Z " fill="#000000"/><text fill="#000000" font-family="sans-serif" font-size="14" lengthAdjust="spacing" textLength="46.0742" x="639.4277" y="184.8467">Artista</text><line style="stroke:#181818;stroke-width:0.5;" x1="555" x2="737.4297" y1="196" y2="196"/><text fill="#000000" font-family="sans-serif" font-size="14" lengthAdjust="spacing" textLength="119.3008" x="560" y="212.9951">-idArtista : String</text><text fill="#000000" font-family="sans-serif" font-size="14" lengthAdjust="spacing" textLength="172.4297" x="560" y="229.292">-nombreArtistico : String</text><text fill="#000000" font-family="sans-serif" font-size="14" lengthAdjust="spacing" textLength="122.4111" x="560" y="245.5889">-biografia : String</text><line style="stroke:#181818;stroke-width:0.5;" x1="555" x2="737.4297" y1="252.8906" y2="252.8906"/></g><!--class Album--><g class="entity" data-entity="Album" data-source-line="38" data-uid="ent0008" id="entity_Album"><rect fill="#F1F1F1" height="96.8906" rx="2.5" ry="2.5" style="stroke:#181818;stroke-width:0.5;" width="193.0703" x="485.5" y="321"/><ellipse cx="555.353" cy="337" fill="#ADD1B2" rx="11" ry="11" style="stroke:#181818;stroke-width:1;"/><path d="M558.3218,342.6406 Q557.7437,342.9375 557.103,343.0781 Q556.4624,343.2344 555.7593,343.2344 Q553.2593,343.2344 551.9312,341.5938 Q550.6187,339.9375 550.6187,336.8125 Q550.6187,333.6875 551.9312,332.0313 Q553.2593,330.375 555.7593,330.375 Q556.4624,330.375 557.103,330.5313 Q557.7593,330.6875 558.3218,330.9844 L558.3218,333.7031 Q557.6968,333.125 557.103,332.8594 Q556.5093,332.5781 555.8843,332.5781 Q554.5405,332.5781 553.853,333.6563 Q553.1655,334.7188 553.1655,336.8125 Q553.1655,338.9063 553.853,339.9844 Q554.5405,341.0469 555.8843,341.0469 Q556.5093,341.0469 557.103,340.7813 Q557.6968,340.5 558.3218,339.9219 L558.3218,342.6406 Z " fill="#000000"/><text fill="#000000" font-family="sans-serif" font-size="14" lengthAdjust="spacing" textLength="44.8643" x="575.853" y="341.8467">Album</text><line style="stroke:#181818;stroke-width:0.5;" x1="486.5" x2="677.5703" y1="353" y2="353"/><text fill="#000000" font-family="sans-serif" font-size="14" lengthAdjust="spacing" textLength="118.0908" x="491.5" y="369.9951">-idAlbum : String</text><text fill="#000000" font-family="sans-serif" font-size="14" lengthAdjust="spacing" textLength="96.6465" x="491.5" y="386.292">-titulo : String</text><text fill="#000000" font-family="sans-serif" font-size="14" lengthAdjust="spacing" textLength="181.0703" x="491.5" y="402.5889">-fechaLanzamiento : Date</text><line style="stroke:#181818;stroke-width:0.5;" x1="486.5" x2="677.5703" y1="409.8906" y2="409.8906"/></g><!--class Cancion--><g class="entity" data-entity="Cancion" data-source-line="44" data-uid="ent0009" id="entity_Cancion"><rect fill="#F1F1F1" height="80.5938" rx="2.5" ry="2.5" style="stroke:#181818;stroke-width:0.5;" width="141.4795" x="586.5" y="478"/><ellipse cx="625.452" cy="494" fill="#ADD1B2" rx="11" ry="11" style="stroke:#181818;stroke-width:1;"/><path d="M628.4207,499.6406 Q627.8426,499.9375 627.202,500.0781 Q626.5613,500.2344 625.8582,500.2344 Q623.3582,500.2344 622.0301,498.5938 Q620.7176,496.9375 620.7176,493.8125 Q620.7176,490.6875 622.0301,489.0313 Q623.3582,487.375 625.8582,487.375 Q626.5613,487.375 627.202,487.5313 Q627.8582,487.6875 628.4207,487.9844 L628.4207,490.7031 Q627.7957,490.125 627.202,489.8594 Q626.6082,489.5781 625.9832,489.5781 Q624.6395,489.5781 623.952,490.6563 Q623.2645,491.7188 623.2645,493.8125 Q623.2645,495.9063 623.952,496.9844 Q624.6395,498.0469 625.9832,498.0469 Q626.6082,498.0469 627.202,497.7813 Q627.7957,497.5 628.4207,496.9219 L628.4207,499.6406 Z " fill="#000000"/><text fill="#000000" font-family="sans-serif" font-size="14" lengthAdjust="spacing" textLength="56.2529" x="644.7746" y="498.8467">Cancion</text><line style="stroke:#181818;stroke-width:0.5;" x1="587.5" x2="726.9795" y1="510" y2="510"/><text fill="#000000" font-family="sans-serif" font-size="14" lengthAdjust="spacing" textLength="129.4795" x="592.5" y="526.9951">-idCancion : String</text><text fill="#000000" font-family="sans-serif" font-size="14" lengthAdjust="spacing" textLength="96.6465" x="592.5" y="543.292">-titulo : String</text><line style="stroke:#181818;stroke-width:0.5;" x1="587.5" x2="726.9795" y1="550.5938" y2="550.5938"/></g><!--class PistaAudio--><g class="entity" data-entity="PistaAudio" data-source-line="49" data-uid="ent0010" id="entity_PistaAudio"><rect fill="#F1F1F1" height="96.8906" rx="2.5" ry="2.5" style="stroke:#181818;stroke-width:0.5;" width="178.9199" x="567.5" y="619"/><ellipse cx="615.9668" cy="635" fill="#ADD1B2" rx="11" ry="11" style="stroke:#181818;stroke-width:1;"/><path d="M618.9355,640.6406 Q618.3574,640.9375 617.7168,641.0781 Q617.0762,641.2344 616.373,641.2344 Q613.873,641.2344 612.5449,639.5938 Q611.2324,637.9375 611.2324,634.8125 Q611.2324,631.6875 612.5449,630.0313 Q613.873,628.375 616.373,628.375 Q617.0762,628.375 617.7168,628.5313 Q618.373,628.6875 618.9355,628.9844 L618.9355,631.7031 Q618.3105,631.125 617.7168,630.8594 Q617.123,630.5781 616.498,630.5781 Q615.1543,630.5781 614.4668,631.6563 Q613.7793,632.7188 613.7793,634.8125 Q613.7793,636.9063 614.4668,637.9844 Q615.1543,639.0469 616.498,639.0469 Q617.123,639.0469 617.7168,638.7813 Q618.3105,638.5 618.9355,637.9219 L618.9355,640.6406 Z " fill="#000000"/><text fill="#000000" font-family="sans-serif" font-size="14" lengthAdjust="spacing" textLength="73.4863" x="636.4668" y="639.8467">PistaAudio</text><line style="stroke:#181818;stroke-width:0.5;" x1="568.5" x2="745.4199" y1="651" y2="651"/><text fill="#000000" font-family="sans-serif" font-size="14" lengthAdjust="spacing" textLength="115.9717" x="573.5" y="667.9951">-formato : String</text><text fill="#000000" font-family="sans-serif" font-size="14" lengthAdjust="spacing" textLength="117.8721" x="573.5" y="684.292">-bitrateKbps : int</text><text fill="#000000" font-family="sans-serif" font-size="14" lengthAdjust="spacing" textLength="166.9199" x="573.5" y="700.5889">-duracionSegundos : int</text><line style="stroke:#181818;stroke-width:0.5;" x1="568.5" x2="745.4199" y1="707.8906" y2="707.8906"/></g><!--reverse link Usuario to Suscripcion--><g class="link" data-entity-1="Usuario" data-entity-2="Suscripcion" data-source-line="57" data-uid="lnk11" id="link_Usuario_Suscripcion"><path codeLine="57" d="M371.1728,111.3429 C342.7428,133.0529 318.99,151.19 291.93,171.85" fill="none" id="Usuario-backto-Suscripcion" style="stroke:#181818;stroke-width:1;"/><polygon fill="#181818" points="380.71,104.06,373.5137,104.5224,371.1728,111.3429,378.369,110.8805,380.71,104.06" style="stroke:#181818;stroke-width:1;"/></g><!--link Suscripcion to TipoSuscripcion--><g class="link" data-entity-1="Suscripcion" data-entity-2="TipoSuscripcion" data-source-line="58" data-uid="lnk12" id="link_Suscripcion_TipoSuscripcion"><path codeLine="58" d="M198.7,253.01 C174.42,276.24 148.1552,301.372 123.8352,324.642" fill="none" id="Suscripcion-to-TipoSuscripcion" style="stroke:#181818;stroke-width:1;"/><polygon fill="#181818" points="119.5,328.79,128.7681,325.4581,123.1127,325.3333,123.2374,319.6778,119.5,328.79" style="stroke:#181818;stroke-width:1;"/></g><!--link Suscripcion to EstadoSuscripcion--><g class="link" data-entity-1="Suscripcion" data-entity-2="EstadoSuscripcion" data-source-line="59" data-uid="lnk13" id="link_Suscripcion_EstadoSuscripcion"><path codeLine="59" d="M246.12,253.01 C249.72,276.24 253.3327,299.5905 256.9327,322.8605" fill="none" id="Suscripcion-to-EstadoSuscripcion" style="stroke:#181818;stroke-width:1;"/><polygon fill="#181818" points="257.85,328.79,260.427,319.2843,257.0856,323.8488,252.521,320.5074,257.85,328.79" style="stroke:#181818;stroke-width:1;"/></g><!--reverse link Usuario to Playlist--><g class="link" data-entity-1="Usuario" data-entity-2="Playlist" data-source-line="61" data-uid="lnk14" id="link_Usuario_Playlist"><path codeLine="61" d="M430.3868,116.2476 C429.2268,135.1976 429.96,144.96 431.13,163.89" fill="none" id="Usuario-backto-Playlist" style="stroke:#181818;stroke-width:1;"/><polygon fill="#181818" points="431.12,104.27,426.7609,110.0144,430.3868,116.2476,434.7459,110.5032,431.12,104.27" style="stroke:#181818;stroke-width:1;"/></g><!--link Usuario to Playlist--><g class="link" data-entity-1="Usuario" data-entity-2="Playlist" data-source-line="62" data-uid="lnk15" id="link_Usuario_Playlist"><path codeLine="62" d="M455.58,104.27 C456.81,123.22 457.2053,138.973 455.9553,157.903" fill="none" id="Usuario-to-Playlist" style="stroke:#181818;stroke-width:1;"/><polygon fill="#181818" points="455.56,163.89,460.1443,155.1731,455.8894,158.9009,452.1617,154.646,455.56,163.89" style="stroke:#181818;stroke-width:1;"/></g><!--link Usuario to Artista--><g class="link" data-entity-1="Usuario" data-entity-2="Artista" data-source-line="63" data-uid="lnk16" id="link_Usuario_Artista"><path codeLine="63" d="M505.29,104.06 C530.11,123.01 553.8608,141.1493 578.7108,160.1193" fill="none" id="Usuario-to-Artista" style="stroke:#181818;stroke-width:1;"/><polygon fill="#181818" points="583.48,163.76,578.7533,155.1195,579.5057,160.7261,573.8991,161.4784,583.48,163.76" style="stroke:#181818;stroke-width:1;"/></g><!--link Usuario to Cancion--><g class="link" data-entity-1="Usuario" data-entity-2="Cancion" data-source-line="64" data-uid="lnk17" id="link_Usuario_Cancion"><path codeLine="64" d="M533.06,60.37 C606.41,68.84 705.76,93.62 756,164 C826.08,262.17 741.9625,403.5228 691.5025,473.1028" fill="none" id="Usuario-to-Cancion" style="stroke:#181818;stroke-width:1;"/><polygon fill="#181818" points="687.98,477.96,696.5018,473.0225,690.9154,473.9123,690.0256,468.3259,687.98,477.96" style="stroke:#181818;stroke-width:1;"/></g><!--link Artista to Album--><g class="link" data-entity-1="Artista" data-entity-2="Album" data-source-line="66" data-uid="lnk18" id="link_Artista_Album"><path codeLine="66" d="M626.28,261.27 C618.45,280.22 611.7708,296.4145 603.9508,315.3445" fill="none" id="Artista-to-Album" style="stroke:#181818;stroke-width:1;"/><polygon fill="#181818" points="601.66,320.89,608.7932,314.099,603.569,316.2688,601.3993,311.0446,601.66,320.89" style="stroke:#181818;stroke-width:1;"/></g><!--link Artista to Cancion--><g class="link" data-entity-1="Artista" data-entity-2="Cancion" data-source-line="67" data-uid="lnk19" id="link_Artista_Cancion"><path codeLine="67" d="M673.59,261.15 C682.61,279.27 691.47,300.5 696,321 C705.31,363.09 704.01,375.64 696,418 C692.14,438.42 686.574,454.514 678.854,472.344" fill="none" id="Artista-to-Cancion" style="stroke:#181818;stroke-width:1;"/><polygon fill="#181818" points="676.47,477.85,683.7167,471.1803,678.4567,473.2616,676.3753,468.0016,676.47,477.85" style="stroke:#181818;stroke-width:1;"/></g><!--reverse link Album to Cancion--><g class="link" data-entity-1="Album" data-entity-2="Cancion" data-source-line="69" data-uid="lnk20" id="link_Album_Cancion"><path codeLine="69" d="M611.8051,428.9184 C621.6451,448.1984 627.41,459.5 636.78,477.88" fill="none" id="Album-backto-Cancion" style="stroke:#181818;stroke-width:1;"/><polygon fill="none" points="606.35,418.23,605.5147,425.3926,611.8051,428.9184,612.6403,421.7558,606.35,418.23" style="stroke:#181818;stroke-width:1;"/></g><!--reverse link Playlist to Cancion--><g class="link" data-entity-1="Playlist" data-entity-2="Cancion" data-source-line="70" data-uid="lnk21" id="link_Playlist_Cancion"><path codeLine="70" d="M436.1718,273.2521 C433.1318,317.7321 436.21,371.93 468,418 C495.8,458.29 545.18,483.48 586.49,498.44" fill="none" id="Playlist-backto-Cancion" style="stroke:#181818;stroke-width:1;"/><polygon fill="none" points="436.99,261.28,432.5902,266.9933,436.1718,273.2521,440.5716,267.5388,436.99,261.28" style="stroke:#181818;stroke-width:1;"/></g><!--reverse link Cancion to PistaAudio--><g class="link" data-entity-1="Cancion" data-entity-2="PistaAudio" data-source-line="72" data-uid="lnk22" id="link_Cancion_PistaAudio"><path codeLine="72" d="M657,571.28 C657,589.65 657,599.6 657,618.84" fill="none" id="Cancion-backto-PistaAudio" style="stroke:#181818;stroke-width:1;"/><polygon fill="#181818" points="657,559.28,653,565.28,657,571.28,661,565.28,657,559.28" style="stroke:#181818;stroke-width:1;"/></g><!--SRC=[XLFBReCm4BpxAtohL0cfvnug8Oegr2IDUFI-W9Ek2ZRoer9JvTyB1lC8LEM4PzZPONUiFf4t8A6cHGLA-LfBp8rcKI5uWXT67mYvevxdqV2GxPFkZJ1kQffY8nAZ2ebDWOBJ7qBRvoNsqonAVNiunk4-olRaIlgIK6aeDuhy88tU-vBeC1okhcsmyvEmxsiTqamPa2Y6MezYwP17chJk-NaWkAXpoVuWMGrOJM3RhbTVk_FeYHKV474ihCmpQ3OdOiR55zY2WHp5ZXLyLwZqpEi8RPgzHKiskLbxzQLkbM2cxf1DyPx4OZMB7CLPmWbXgqULjvkRTR3d6m6DsbGhMJkT7V0BrCYu5gln1C0NSyRI8V_eJmFk_jOtvImE9o5hq1l_g6NR_3LlL4iXrsx2HjhT9UniU2aSESOl3dT-4BqTXWWI5wVxbfjbXSnputbFjzTZnQ_kmb9wZCc8TaNRwB3q1JOCaX2N2FjXjxi5Cdrcrogw-pP0OwyvIDo2hCTn-By0]--></g></svg>