<svg xmlns="http://www.w3.org/2000/svg" xmlns:xlink="http://www.w3.org/1999/xlink" contentStyleType="text/css" data-diagram-type="CLASS" height="494px" preserveAspectRatio="none" style="width:620px;height:494px;background:#FFFFFF;" version="1.1" viewBox="0 0 620 494" width="620px" zoomAndPan="magnify"><defs/><g><!--class TipoSuscripcion--><g class="entity" data-entity="TipoSuscripcion" data-source-line="4" data-uid="ent0002" id="entity_TipoSuscripcion"><rect fill="#F1F1F1" height="48" rx="2.5" ry="2.5" style="stroke:#181818;stroke-width:0.5;" width="142.2021" x="7" y="223"/><ellipse cx="22" cy="239" fill="#EB937F" rx="11" ry="11" style="stroke:#181818;stroke-width:1;"/><path d="M26.1094,245 L18.3906,245 L18.3906,232.6094 L26.1094,232.6094 L26.1094,234.7656 L20.8438,234.7656 L20.8438,237.4375 L25.6094,237.4375 L25.6094,239.5938 L20.8438,239.5938 L20.8438,242.8438 L26.1094,242.8438 L26.1094,245 Z " fill="#000000"/><text fill="#000000" font-family="sans-serif" font-size="14" lengthAdjust="spacing" textLength="110.2021" x="36" y="243.8467">TipoSuscripcion</text><line style="stroke:#181818;stroke-width:0.5;" x1="8" x2="148.2021" y1="255" y2="255"/><line style="stroke:#181818;stroke-width:0.5;" x1="8" x2="148.2021" y1="263" y2="263"/></g><!--class EstadoSuscripcion--><g class="entity" data-entity="EstadoSuscripcion" data-source-line="7" data-uid="ent0003" id="entity_EstadoSuscripcion"><rect fill="#F1F1F1" height="48" rx="2.5" ry="2.5" style="stroke:#181818;stroke-width:0.5;" width="159.9688" x="184" y="223"/><ellipse cx="199" cy="239" fill="#EB937F" rx="11" ry="11" style="stroke:#181818;stroke-width:1;"/><path d="M203.1094,245 L195.3906,245 L195.3906,232.6094 L203.1094,232.6094 L203.1094,234.7656 L197.8438,234.7656 L197.8438,237.4375 L202.6094,237.4375 L202.6094,239.5938 L197.8438,239.5938 L197.8438,242.8438 L203.1094,242.8438 L203.1094,245 Z " fill="#000000"/><text fill="#000000" font-family="sans-serif" font-size="14" lengthAdjust="spacing" textLength="127.9688" x="213" y="243.8467">EstadoSuscripcion</text><line style="stroke:#181818;stroke-width:0.5;" x1="185" x2="342.9688" y1="255" y2="255"/><line style="stroke:#181818;stroke-width:0.5;" x1="185" x2="342.9688" y1="263" y2="263"/></g><!--class Usuario--><g class="entity" data-entity="Usuario" data-source-line="11" data-uid="ent0004" id="entity_Usuario"><rect fill="#F1F1F1" height="48" rx="2.5" ry="2.5" style="stroke:#181818;stroke-width:0.5;" width="85.2041" x="354.5" y="7"/><ellipse cx="369.5" cy="23" fill="#ADD1B2" rx="11" ry="11" style="stroke:#181818;stroke-width:1;"/><path d="M372.4688,28.6406 Q371.8906,28.9375 371.25,29.0781 Q370.6094,29.2344 369.9063,29.2344 Q367.4063,29.2344 366.0781,27.5938 Q364.7656,25.9375 364.7656,22.8125 Q364.7656,19.6875 366.0781,18.0313 Q367.4063,16.375 369.9063,16.375 Q370.6094,16.375 371.25,16.5313 Q371.9063,16.6875 372.4688,16.9844 L372.4688,19.7031 Q371.8438,19.125 371.25,18.8594 Q370.6563,18.5781 370.0313,18.5781 Q368.6875,18.5781 368,19.6563 Q367.3125,20.7188 367.3125,22.8125 Q367.3125,24.9063 368,25.9844 Q368.6875,27.0469 370.0313,27.0469 Q370.6563,27.0469 371.25,26.7813 Q371.8438,26.5 372.4688,25.9219 L372.4688,28.6406 Z " fill="#000000"/><text fill="#000000" font-family="sans-serif" font-size="14" lengthAdjust="spacing" textLength="53.2041" x="383.5" y="27.8467">Usuario</text><line style="stroke:#181818;stroke-width:0.5;" x1="355.5" x2="438.7041" y1="39" y2="39"/><line style="stroke:#181818;stroke-width:0.5;" x1="355.5" x2="438.7041" y1="47" y2="47"/></g><!--class Suscripcion--><g class="entity" data-entity="Suscripcion" data-source-line="14" data-uid="ent0005" id="entity_Suscripcion"><rect fill="#F1F1F1" height="48" rx="2.5" ry="2.5" style="stroke:#181818;stroke-width:0.5;" width="112.3086" x="208" y="115"/><ellipse cx="223" cy="131" fill="#ADD1B2" rx="11" ry="11" style="stroke:#181818;stroke-width:1;"/><path d="M225.9688,136.6406 Q225.3906,136.9375 224.75,137.0781 Q224.1094,137.2344 223.4063,137.2344 Q220.9063,137.2344 219.5781,135.5938 Q218.2656,133.9375 218.2656,130.8125 Q218.2656,127.6875 219.5781,126.0313 Q220.9063,124.375 223.4063,124.375 Q224.1094,124.375 224.75,124.5313 Q225.4063,124.6875 225.9688,124.9844 L225.9688,127.7031 Q225.3438,127.125 224.75,126.8594 Q224.1563,126.5781 223.5313,126.5781 Q222.1875,126.5781 221.5,127.6563 Q220.8125,128.7188 220.8125,130.8125 Q220.8125,132.9063 221.5,133.9844 Q222.1875,135.0469 223.5313,135.0469 Q224.1563,135.0469 224.75,134.7813 Q225.3438,134.5 225.9688,133.9219 L225.9688,136.6406 Z " fill="#000000"/><text fill="#000000" font-family="sans-serif" font-size="14" lengthAdjust="spacing" textLength="80.3086" x="237" y="135.8467">Suscripcion</text><line style="stroke:#181818;stroke-width:0.5;" x1="209" x2="319.3086" y1="147" y2="147"/><line style="stroke:#181818;stroke-width:0.5;" x1="209" x2="319.3086" y1="155" y2="155"/></g><!--class Playlist--><g class="entity" data-entity="Playlist" data-source-line="17" data-uid="ent0006" id="entity_Playlist"><rect fill="#F1F1F1" height="48" rx="2.5" ry="2.5" style="stroke:#181818;stroke-width:0.5;" width="81.7588" x="356" y="115"/><ellipse cx="371" cy="131" fill="#ADD1B2" rx="11" ry="11" style="stroke:#181818;stroke-width:1;"/><path d="M373.9688,136.6406 Q373.3906,136.9375 372.75,137.0781 Q372.1094,137.2344 371.4063,137.2344 Q368.9063,137.2344 367.5781,135.5938 Q366.2656,133.9375 366.2656,130.8125 Q366.2656,127.6875 367.5781,126.0313 Q368.9063,124.375 371.4063,124.375 Q372.1094,124.375 372.75,124.5313 Q373.4063,124.6875 373.9688,124.9844 L373.9688,127.7031 Q373.3438,127.125 372.75,126.8594 Q372.1563,126.5781 371.5313,126.5781 Q370.1875,126.5781 369.5,127.6563 Q368.8125,128.7188 368.8125,130.8125 Q368.8125,132.9063 369.5,133.9844 Q370.1875,135.0469 371.5313,135.0469 Q372.1563,135.0469 372.75,134.7813 Q373.3438,134.5 373.9688,133.9219 L373.9688,136.6406 Z " fill="#000000"/><text fill="#000000" font-family="sans-serif" font-size="14" lengthAdjust="spacing" textLength="49.7588" x="385" y="135.8467">Playlist</text><line style="stroke:#181818;stroke-width:0.5;" x1="357" x2="436.7588" y1="147" y2="147"/><line style="stroke:#181818;stroke-width:0.5;" x1="357" x2="436.7588" y1="155" y2="155"/></g><!--class Artista--><g class="entity" data-entity="Artista" data-source-line="20" data-uid="ent0007" id="entity_Artista"><rect fill="#F1F1F1" height="48" rx="2.5" ry="2.5" style="stroke:#181818;stroke-width:0.5;" width="78.0742" x="473" y="115"/><ellipse cx="488" cy="131" fill="#ADD1B2" rx="11" ry="11" style="stroke:#181818;stroke-width:1;"/><path d="M490.9688,136.6406 Q490.3906,136.9375 489.75,137.0781 Q489.1094,137.2344 488.4063,137.2344 Q485.9063,137.2344 484.5781,135.5938 Q483.2656,133.9375 483.2656,130.8125 Q483.2656,127.6875 484.5781,126.0313 Q485.9063,124.375 488.4063,124.375 Q489.1094,124.375 489.75,124.5313 Q490.4063,124.6875 490.9688,124.9844 L490.9688,127.7031 Q490.3438,127.125 489.75,126.8594 Q489.1563,126.5781 488.5313,126.5781 Q487.1875,126.5781 486.5,127.6563 Q485.8125,128.7188 485.8125,130.8125 Q485.8125,132.9063 486.5,133.9844 Q487.1875,135.0469 488.5313,135.0469 Q489.1563,135.0469 489.75,134.7813 Q490.3438,134.5 490.9688,133.9219 L490.9688,136.6406 Z " fill="#000000"/><text fill="#000000" font-family="sans-serif" font-size="14" lengthAdjust="spacing" textLength="46.0742" x="502" y="135.8467">Artista</text><line style="stroke:#181818;stroke-width:0.5;" x1="474" x2="550.0742" y1="147" y2="147"/><line style="stroke:#181818;stroke-width:0.5;" x1="474" x2="550.0742" y1="155" y2="155"/></g><!--class Album--><g class="entity" data-entity="Album" data-source-line="23" data-uid="ent0008" id="entity_Album"><rect fill="#F1F1F1" height="48" rx="2.5" ry="2.5" style="stroke:#181818;stroke-width:0.5;" width="76.8643" x="450.5" y="223"/><ellipse cx="465.5" cy="239" fill="#ADD1B2" rx="11" ry="11" style="stroke:#181818;stroke-width:1;"/><path d="M468.4688,244.6406 Q467.8906,244.9375 467.25,245.0781 Q466.6094,245.2344 465.9063,245.2344 Q463.4063,245.2344 462.0781,243.5938 Q460.7656,241.9375 460.7656,238.8125 Q460.7656,235.6875 462.0781,234.0313 Q463.4063,232.375 465.9063,232.375 Q466.6094,232.375 467.25,232.5313 Q467.9063,232.6875 468.4688,232.9844 L468.4688,235.7031 Q467.8438,235.125 467.25,234.8594 Q466.6563,234.5781 466.0313,234.5781 Q464.6875,234.5781 464,235.6563 Q463.3125,236.7188 463.3125,238.8125 Q463.3125,240.9063 464,241.9844 Q464.6875,243.0469 466.0313,243.0469 Q466.6563,243.0469 467.25,242.7813 Q467.8438,242.5 468.4688,241.9219 L468.4688,244.6406 Z " fill="#000000"/><text fill="#000000" font-family="sans-serif" font-size="14" lengthAdjust="spacing" textLength="44.8643" x="479.5" y="243.8467">Album</text><line style="stroke:#181818;stroke-width:0.5;" x1="451.5" x2="526.3643" y1="255" y2="255"/><line style="stroke:#181818;stroke-width:0.5;" x1="451.5" x2="526.3643" y1="263" y2="263"/></g><!--class Cancion--><g class="entity" data-entity="Cancion" data-source-line="26" data-uid="ent0009" id="entity_Cancion"><rect fill="#F1F1F1" height="48" rx="2.5" ry="2.5" style="stroke:#181818;stroke-width:0.5;" width="88.2529" x="491" y="331"/><ellipse cx="506" cy="347" fill="#ADD1B2" rx="11" ry="11" style="stroke:#181818;stroke-width:1;"/><path d="M508.9688,352.6406 Q508.3906,352.9375 507.75,353.0781 Q507.1094,353.2344 506.4063,353.2344 Q503.9063,353.2344 502.5781,351.5938 Q501.2656,349.9375 501.2656,346.8125 Q501.2656,343.6875 502.5781,342.0313 Q503.9063,340.375 506.4063,340.375 Q507.1094,340.375 507.75,340.5313 Q508.4063,340.6875 508.9688,340.9844 L508.9688,343.7031 Q508.3438,343.125 507.75,342.8594 Q507.1563,342.5781 506.5313,342.5781 Q505.1875,342.5781 504.5,343.6563 Q503.8125,344.7188 503.8125,346.8125 Q503.8125,348.9063 504.5,349.9844 Q505.1875,351.0469 506.5313,351.0469 Q507.1563,351.0469 507.75,350.7813 Q508.3438,350.5 508.9688,349.9219 L508.9688,352.6406 Z " fill="#000000"/><text fill="#000000" font-family="sans-serif" font-size="14" lengthAdjust="spacing" textLength="56.2529" x="520" y="351.8467">Cancion</text><line style="stroke:#181818;stroke-width:0.5;" x1="492" x2="578.2529" y1="363" y2="363"/><line style="stroke:#181818;stroke-width:0.5;" x1="492" x2="578.2529" y1="371" y2="371"/></g><!--class PistaAudio--><g class="entity" data-entity="PistaAudio" data-source-line="29" data-uid="ent0010" id="entity_PistaAudio"><rect fill="#F1F1F1" height="48" rx="2.5" ry="2.5" style="stroke:#181818;stroke-width:0.5;" width="105.4863" x="482.5" y="439"/><ellipse cx="497.5" cy="455" fill="#ADD1B2" rx="11" ry="11" style="stroke:#181818;stroke-width:1;"/><path d="M500.4688,460.6406 Q499.8906,460.9375 499.25,461.0781 Q498.6094,461.2344 497.9063,461.2344 Q495.4063,461.2344 494.0781,459.5938 Q492.7656,457.9375 492.7656,454.8125 Q492.7656,451.6875 494.0781,450.0313 Q495.4063,448.375 497.9063,448.375 Q498.6094,448.375 499.25,448.5313 Q499.9063,448.6875 500.4688,448.9844 L500.4688,451.7031 Q499.8438,451.125 499.25,450.8594 Q498.6563,450.5781 498.0313,450.5781 Q496.6875,450.5781 496,451.6563 Q495.3125,452.7188 495.3125,454.8125 Q495.3125,456.9063 496,457.9844 Q496.6875,459.0469 498.0313,459.0469 Q498.6563,459.0469 499.25,458.7813 Q499.8438,458.5 500.4688,457.9219 L500.4688,460.6406 Z " fill="#000000"/><text fill="#000000" font-family="sans-serif" font-size="14" lengthAdjust="spacing" textLength="73.4863" x="511.5" y="459.8467">PistaAudio</text><line style="stroke:#181818;stroke-width:0.5;" x1="483.5" x2="586.9863" y1="471" y2="471"/><line style="stroke:#181818;stroke-width:0.5;" x1="483.5" x2="586.9863" y1="479" y2="479"/></g><!--reverse link Usuario to Suscripcion--><g class="link" data-entity-1="Usuario" data-entity-2="Suscripcion" data-source-line="34" data-uid="lnk11" id="link_Usuario_Suscripcion"><path codeLine="34" d="M358.7572,62.4808 C336.6072,80.1408 315.52,96.94 293.26,114.68" fill="none" id="Usuario-backto-Suscripcion" style="stroke:#181818;stroke-width:1;"/><polygon fill="#181818" points="368.14,55,360.955,55.6128,358.7572,62.4808,365.9422,61.868,368.14,55" style="stroke:#181818;stroke-width:1;"/></g><!--link Suscripcion to TipoSuscripcion--><g class="link" data-entity-1="Suscripcion" data-entity-2="TipoSuscripcion" data-source-line="35" data-uid="lnk12" id="link_Suscripcion_TipoSuscripcion"><path codeLine="35" d="M223.64,163 C192.55,180.72 154.9631,202.1395 123.8131,219.8895" fill="none" id="Suscripcion-to-TipoSuscripcion" style="stroke:#181818;stroke-width:1;"/><polygon fill="#181818" points="118.6,222.86,128.3999,221.8796,122.9442,220.3846,124.4392,214.9288,118.6,222.86" style="stroke:#181818;stroke-width:1;"/></g><!--link Suscripcion to EstadoSuscripcion--><g class="link" data-entity-1="Suscripcion" data-entity-2="EstadoSuscripcion" data-source-line="36" data-uid="lnk13" id="link_Suscripcion_EstadoSuscripcion"><path codeLine="36" d="M264,163 C264,180.66 264,198.94 264,216.68" fill="none" id="Suscripcion-to-EstadoSuscripcion" style="stroke:#181818;stroke-width:1;"/><polygon fill="#181818" points="264,222.68,268,213.68,264,217.68,260,213.68,264,222.68" style="stroke:#181818;stroke-width:1;"/></g><!--reverse link Usuario to Playlist--><g class="link" data-entity-1="Usuario" data-entity-2="Playlist" data-source-line="38" data-uid="lnk14" id="link_Usuario_Playlist"><path codeLine="38" d="M384.4695,66.8642 C381.7895,84.5242 383.58,96.94 386.23,114.68" fill="none" id="Usuario-backto-Playlist" style="stroke:#181818;stroke-width:1;"/><polygon fill="#181818" points="386.27,55,381.4151,60.3319,384.4695,66.8642,389.3245,61.5322,386.27,55" style="stroke:#181818;stroke-width:1;"/></g><!--link Usuario to Playlist--><g class="link" data-entity-1="Usuario" data-entity-2="Playlist" data-source-line="39" data-uid="lnk15" id="link_Usuario_Playlist"><path codeLine="39" d="M408.36,55 C411.2,72.66 412.1454,91.0134 409.3454,108.7534" fill="none" id="Usuario-to-Playlist" style="stroke:#181818;stroke-width:1;"/><polygon fill="#181818" points="408.41,114.68,413.7642,106.4137,409.1895,109.7411,405.8621,105.1664,408.41,114.68" style="stroke:#181818;stroke-width:1;"/></g><!--link Usuario to Artista--><g class="link" data-entity-1="Usuario" data-entity-2="Artista" data-source-line="40" data-uid="lnk16" id="link_Usuario_Artista"><path codeLine="40" d="M421.95,55 C441.11,72.66 463.0378,92.8739 482.2878,110.6139" fill="none" id="Usuario-to-Artista" style="stroke:#181818;stroke-width:1;"/><polygon fill="#181818" points="486.7,114.68,482.7925,105.6395,483.0232,111.2916,477.3711,111.5223,486.7,114.68" style="stroke:#181818;stroke-width:1;"/></g><!--link Usuario to Cancion--><g class="link" data-entity-1="Usuario" data-entity-2="Cancion" data-source-line="41" data-uid="lnk17" id="link_Usuario_Cancion"><path codeLine="41" d="M439.64,39.57 C480.57,49.31 540.26,70.61 569,115 C613.18,183.25 573.5981,279.961 550.5081,325.401" fill="none" id="Usuario-to-Cancion" style="stroke:#181818;stroke-width:1;"/><polygon fill="#181818" points="547.79,330.75,555.4331,324.5385,550.0551,326.2925,548.3011,320.9144,547.79,330.75" style="stroke:#181818;stroke-width:1;"/></g><!--link Artista to Album--><g class="link" data-entity-1="Artista" data-entity-2="Album" data-source-line="43" data-uid="lnk18" id="link_Artista_Album"><path codeLine="43" d="M507.01,163 C503.18,180.66 499.1825,199.0765 495.3325,216.8165" fill="none" id="Artista-to-Album" style="stroke:#181818;stroke-width:1;"/><polygon fill="#181818" points="494.06,222.68,499.8778,214.7331,495.1204,217.7937,492.0598,213.0364,494.06,222.68" style="stroke:#181818;stroke-width:1;"/></g><!--link Artista to Cancion--><g class="link" data-entity-1="Artista" data-entity-2="Cancion" data-source-line="44" data-uid="lnk19" id="link_Artista_Cancion"><path codeLine="44" d="M524,163.25 C531.7,179.51 540.98,201.98 545,223 C552.12,260.19 546.9866,298.3485 541.6666,324.7185" fill="none" id="Artista-to-Cancion" style="stroke:#181818;stroke-width:1;"/><polygon fill="#181818" points="540.48,330.6,546.1808,322.5688,541.4688,325.6987,538.3388,320.9867,540.48,330.6" style="stroke:#181818;stroke-width:1;"/></g><!--reverse link Album to Cancion--><g class="link" data-entity-1="Album" data-entity-2="Cancion" data-source-line="46" data-uid="lnk20" id="link_Album_Cancion"><path codeLine="46" d="M503.7551,282.009 C511.4151,299.669 517.18,312.94 524.88,330.68" fill="none" id="Album-backto-Cancion" style="stroke:#181818;stroke-width:1;"/><polygon fill="none" points="498.98,271,497.6979,278.0962,503.7551,282.009,505.0372,274.9128,498.98,271" style="stroke:#181818;stroke-width:1;"/></g><!--reverse link Playlist to Cancion--><g class="link" data-entity-1="Playlist" data-entity-2="Cancion" data-source-line="47" data-uid="lnk21" id="link_Playlist_Cancion"><path codeLine="47" d="M400.4934,174.9617 C403.8634,202.5817 411.09,237.42 433,271 C448.97,295.48 474.47,316.23 495.97,330.86" fill="none" id="Playlist-backto-Cancion" style="stroke:#181818;stroke-width:1;"/><polygon fill="none" points="399.04,163.05,395.7961,169.4903,400.4934,174.9617,403.7372,168.5214,399.04,163.05" style="stroke:#181818;stroke-width:1;"/></g><!--reverse link Cancion to PistaAudio--><g class="link" data-entity-1="Cancion" data-entity-2="PistaAudio" data-source-line="49" data-uid="lnk22" id="link_Cancion_PistaAudio"><path codeLine="49" d="M535,391 C535,408.66 535,420.94 535,438.68" fill="none" id="Cancion-backto-PistaAudio" style="stroke:#181818;stroke-width:1;"/><polygon fill="#181818" points="535,379,531,385,535,391,539,385,535,379" style="stroke:#181818;stroke-width:1;"/></g><!--SRC=[RP5D2i8m48NtSuhi127W2OHGkYZKAjOU8FrP1Dkav6UXujrjcgQcnbtuPkRDcnTrPtoaaWwewQbIH6l9QgExh16yPCyE7G1s26ECqg8wbVO57JS3kh5Hb4OraeqD4nozu0skaYfDsxZcL9ASbAcJcHUYIXagcN0z3aMZ3bzw-kYPqY4ZKa-4Rb1VJoO2a50UITaXObg_rtcxfZb9idEn-0DlRJ_L0ayG-iFu-1j5L8y2sKhxkrPeP_x2vTeDMwu3y57CZJQ33VcspV48-nKBMdCD8VZKPeThN1y0]--></g></svg>