<svg xmlns="http://www.w3.org/2000/svg" xmlns:xlink="http://www.w3.org/1999/xlink" contentStyleType="text/css" data-diagram-type="CLASS" height="494px" preserveAspectRatio="none" style="width:390px;height:494px;background:#FFFFFF;" version="1.1" viewBox="0 0 390 494" width="390px" zoomAndPan="magnify"><defs/><g><!--class EstatusSuscripcion--><g class="entity" data-entity="EstatusSuscripcion" data-source-line="4" data-uid="ent0002" id="entity_EstatusSuscripcion"><rect fill="#F1F1F1" height="48" rx="2.5" ry="2.5" style="stroke:#181818;stroke-width:0.5;" width="164.1729" x="7" y="223"/><ellipse cx="22" cy="239" fill="#EB937F" rx="11" ry="11" style="stroke:#181818;stroke-width:1;"/><path d="M26.1094,245 L18.3906,245 L18.3906,232.6094 L26.1094,232.6094 L26.1094,234.7656 L20.8438,234.7656 L20.8438,237.4375 L25.6094,237.4375 L25.6094,239.5938 L20.8438,239.5938 L20.8438,242.8438 L26.1094,242.8438 L26.1094,245 Z " fill="#000000"/><text fill="#000000" font-family="sans-serif" font-size="14" lengthAdjust="spacing" textLength="132.1729" x="36" y="243.8467">EstatusSuscripcion</text><line style="stroke:#181818;stroke-width:0.5;" x1="8" x2="170.1729" y1="255" y2="255"/><line style="stroke:#181818;stroke-width:0.5;" x1="8" x2="170.1729" y1="263" y2="263"/></g><!--class Usuario--><g class="entity" data-entity="Usuario" data-source-line="8" data-uid="ent0003" id="entity_Usuario"><rect fill="#F1F1F1" height="48" rx="2.5" ry="2.5" style="stroke:#181818;stroke-width:0.5;" width="85.2041" x="180.5" y="7"/><ellipse cx="195.5" cy="23" fill="#ADD1B2" rx="11" ry="11" style="stroke:#181818;stroke-width:1;"/><path d="M198.4688,28.6406 Q197.8906,28.9375 197.25,29.0781 Q196.6094,29.2344 195.9063,29.2344 Q193.4063,29.2344 192.0781,27.5938 Q190.7656,25.9375 190.7656,22.8125 Q190.7656,19.6875 192.0781,18.0313 Q193.4063,16.375 195.9063,16.375 Q196.6094,16.375 197.25,16.5313 Q197.9063,16.6875 198.4688,16.9844 L198.4688,19.7031 Q197.8438,19.125 197.25,18.8594 Q196.6563,18.5781 196.0313,18.5781 Q194.6875,18.5781 194,19.6563 Q193.3125,20.7188 193.3125,22.8125 Q193.3125,24.9063 194,25.9844 Q194.6875,27.0469 196.0313,27.0469 Q196.6563,27.0469 197.25,26.7813 Q197.8438,26.5 198.4688,25.9219 L198.4688,28.6406 Z " fill="#000000"/><text fill="#000000" font-family="sans-serif" font-size="14" lengthAdjust="spacing" textLength="53.2041" x="209.5" y="27.8467">Usuario</text><line style="stroke:#181818;stroke-width:0.5;" x1="181.5" x2="264.7041" y1="39" y2="39"/><line style="stroke:#181818;stroke-width:0.5;" x1="181.5" x2="264.7041" y1="47" y2="47"/></g><!--class Suscripcion--><g class="entity" data-entity="Suscripcion" data-source-line="10" data-uid="ent0004" id="entity_Suscripcion"><rect fill="#F1F1F1" height="48" rx="2.5" ry="2.5" style="stroke:#181818;stroke-width:0.5;" width="112.3086" x="34" y="115"/><ellipse cx="49" cy="131" fill="#ADD1B2" rx="11" ry="11" style="stroke:#181818;stroke-width:1;"/><path d="M51.9688,136.6406 Q51.3906,136.9375 50.75,137.0781 Q50.1094,137.2344 49.4063,137.2344 Q46.9063,137.2344 45.5781,135.5938 Q44.2656,133.9375 44.2656,130.8125 Q44.2656,127.6875 45.5781,126.0313 Q46.9063,124.375 49.4063,124.375 Q50.1094,124.375 50.75,124.5313 Q51.4063,124.6875 51.9688,124.9844 L51.9688,127.7031 Q51.3438,127.125 50.75,126.8594 Q50.1563,126.5781 49.5313,126.5781 Q48.1875,126.5781 47.5,127.6563 Q46.8125,128.7188 46.8125,130.8125 Q46.8125,132.9063 47.5,133.9844 Q48.1875,135.0469 49.5313,135.0469 Q50.1563,135.0469 50.75,134.7813 Q51.3438,134.5 51.9688,133.9219 L51.9688,136.6406 Z " fill="#000000"/><text fill="#000000" font-family="sans-serif" font-size="14" lengthAdjust="spacing" textLength="80.3086" x="63" y="135.8467">Suscripcion</text><line style="stroke:#181818;stroke-width:0.5;" x1="35" x2="145.3086" y1="147" y2="147"/><line style="stroke:#181818;stroke-width:0.5;" x1="35" x2="145.3086" y1="155" y2="155"/></g><!--class Playlist--><g class="entity" data-entity="Playlist" data-source-line="12" data-uid="ent0005" id="entity_Playlist"><rect fill="#F1F1F1" height="48" rx="2.5" ry="2.5" style="stroke:#181818;stroke-width:0.5;" width="81.7588" x="182" y="115"/><ellipse cx="197" cy="131" fill="#ADD1B2" rx="11" ry="11" style="stroke:#181818;stroke-width:1;"/><path d="M199.9688,136.6406 Q199.3906,136.9375 198.75,137.0781 Q198.1094,137.2344 197.4063,137.2344 Q194.9063,137.2344 193.5781,135.5938 Q192.2656,133.9375 192.2656,130.8125 Q192.2656,127.6875 193.5781,126.0313 Q194.9063,124.375 197.4063,124.375 Q198.1094,124.375 198.75,124.5313 Q199.4063,124.6875 199.9688,124.9844 L199.9688,127.7031 Q199.3438,127.125 198.75,126.8594 Q198.1563,126.5781 197.5313,126.5781 Q196.1875,126.5781 195.5,127.6563 Q194.8125,128.7188 194.8125,130.8125 Q194.8125,132.9063 195.5,133.9844 Q196.1875,135.0469 197.5313,135.0469 Q198.1563,135.0469 198.75,134.7813 Q199.3438,134.5 199.9688,133.9219 L199.9688,136.6406 Z " fill="#000000"/><text fill="#000000" font-family="sans-serif" font-size="14" lengthAdjust="spacing" textLength="49.7588" x="211" y="135.8467">Playlist</text><line style="stroke:#181818;stroke-width:0.5;" x1="183" x2="262.7588" y1="147" y2="147"/><line style="stroke:#181818;stroke-width:0.5;" x1="183" x2="262.7588" y1="155" y2="155"/></g><!--class Artista--><g class="entity" data-entity="Artista" data-source-line="16" data-uid="ent0006" id="entity_Artista"><rect fill="#F1F1F1" height="48" rx="2.5" ry="2.5" style="stroke:#181818;stroke-width:0.5;" width="78.0742" x="299" y="115"/><ellipse cx="314" cy="131" fill="#ADD1B2" rx="11" ry="11" style="stroke:#181818;stroke-width:1;"/><path d="M316.9688,136.6406 Q316.3906,136.9375 315.75,137.0781 Q315.1094,137.2344 314.4063,137.2344 Q311.9063,137.2344 310.5781,135.5938 Q309.2656,133.9375 309.2656,130.8125 Q309.2656,127.6875 310.5781,126.0313 Q311.9063,124.375 314.4063,124.375 Q315.1094,124.375 315.75,124.5313 Q316.4063,124.6875 316.9688,124.9844 L316.9688,127.7031 Q316.3438,127.125 315.75,126.8594 Q315.1563,126.5781 314.5313,126.5781 Q313.1875,126.5781 312.5,127.6563 Q311.8125,128.7188 311.8125,130.8125 Q311.8125,132.9063 312.5,133.9844 Q313.1875,135.0469 314.5313,135.0469 Q315.1563,135.0469 315.75,134.7813 Q316.3438,134.5 316.9688,133.9219 L316.9688,136.6406 Z " fill="#000000"/><text fill="#000000" font-family="sans-serif" font-size="14" lengthAdjust="spacing" textLength="46.0742" x="328" y="135.8467">Artista</text><line style="stroke:#181818;stroke-width:0.5;" x1="300" x2="376.0742" y1="147" y2="147"/><line style="stroke:#181818;stroke-width:0.5;" x1="300" x2="376.0742" y1="155" y2="155"/></g><!--class Album--><g class="entity" data-entity="Album" data-source-line="18" data-uid="ent0007" id="entity_Album"><rect fill="#F1F1F1" height="48" rx="2.5" ry="2.5" style="stroke:#181818;stroke-width:0.5;" width="76.8643" x="277.5" y="223"/><ellipse cx="292.5" cy="239" fill="#ADD1B2" rx="11" ry="11" style="stroke:#181818;stroke-width:1;"/><path d="M295.4688,244.6406 Q294.8906,244.9375 294.25,245.0781 Q293.6094,245.2344 292.9063,245.2344 Q290.4063,245.2344 289.0781,243.5938 Q287.7656,241.9375 287.7656,238.8125 Q287.7656,235.6875 289.0781,234.0313 Q290.4063,232.375 292.9063,232.375 Q293.6094,232.375 294.25,232.5313 Q294.9063,232.6875 295.4688,232.9844 L295.4688,235.7031 Q294.8438,235.125 294.25,234.8594 Q293.6563,234.5781 293.0313,234.5781 Q291.6875,234.5781 291,235.6563 Q290.3125,236.7188 290.3125,238.8125 Q290.3125,240.9063 291,241.9844 Q291.6875,243.0469 293.0313,243.0469 Q293.6563,243.0469 294.25,242.7813 Q294.8438,242.5 295.4688,241.9219 L295.4688,244.6406 Z " fill="#000000"/><text fill="#000000" font-family="sans-serif" font-size="14" lengthAdjust="spacing" textLength="44.8643" x="306.5" y="243.8467">Album</text><line style="stroke:#181818;stroke-width:0.5;" x1="278.5" x2="353.3643" y1="255" y2="255"/><line style="stroke:#181818;stroke-width:0.5;" x1="278.5" x2="353.3643" y1="263" y2="263"/></g><!--class Cancion--><g class="entity" data-entity="Cancion" data-source-line="20" data-uid="ent0008" id="entity_Cancion"><rect fill="#F1F1F1" height="48" rx="2.5" ry="2.5" style="stroke:#181818;stroke-width:0.5;" width="88.2529" x="272" y="331"/><ellipse cx="287" cy="347" fill="#ADD1B2" rx="11" ry="11" style="stroke:#181818;stroke-width:1;"/><path d="M289.9688,352.6406 Q289.3906,352.9375 288.75,353.0781 Q288.1094,353.2344 287.4063,353.2344 Q284.9063,353.2344 283.5781,351.5938 Q282.2656,349.9375 282.2656,346.8125 Q282.2656,343.6875 283.5781,342.0313 Q284.9063,340.375 287.4063,340.375 Q288.1094,340.375 288.75,340.5313 Q289.4063,340.6875 289.9688,340.9844 L289.9688,343.7031 Q289.3438,343.125 288.75,342.8594 Q288.1563,342.5781 287.5313,342.5781 Q286.1875,342.5781 285.5,343.6563 Q284.8125,344.7188 284.8125,346.8125 Q284.8125,348.9063 285.5,349.9844 Q286.1875,351.0469 287.5313,351.0469 Q288.1563,351.0469 288.75,350.7813 Q289.3438,350.5 289.9688,349.9219 L289.9688,352.6406 Z " fill="#000000"/><text fill="#000000" font-family="sans-serif" font-size="14" lengthAdjust="spacing" textLength="56.2529" x="301" y="351.8467">Cancion</text><line style="stroke:#181818;stroke-width:0.5;" x1="273" x2="359.2529" y1="363" y2="363"/><line style="stroke:#181818;stroke-width:0.5;" x1="273" x2="359.2529" y1="371" y2="371"/></g><!--class PistaAudio--><g class="entity" data-entity="PistaAudio" data-source-line="22" data-uid="ent0009" id="entity_PistaAudio"><rect fill="#F1F1F1" height="48" rx="2.5" ry="2.5" style="stroke:#181818;stroke-width:0.5;" width="105.4863" x="263.5" y="439"/><ellipse cx="278.5" cy="455" fill="#ADD1B2" rx="11" ry="11" style="stroke:#181818;stroke-width:1;"/><path d="M281.4688,460.6406 Q280.8906,460.9375 280.25,461.0781 Q279.6094,461.2344 278.9063,461.2344 Q276.4063,461.2344 275.0781,459.5938 Q273.7656,457.9375 273.7656,454.8125 Q273.7656,451.6875 275.0781,450.0313 Q276.4063,448.375 278.9063,448.375 Q279.6094,448.375 280.25,448.5313 Q280.9063,448.6875 281.4688,448.9844 L281.4688,451.7031 Q280.8438,451.125 280.25,450.8594 Q279.6563,450.5781 279.0313,450.5781 Q277.6875,450.5781 277,451.6563 Q276.3125,452.7188 276.3125,454.8125 Q276.3125,456.9063 277,457.9844 Q277.6875,459.0469 279.0313,459.0469 Q279.6563,459.0469 280.25,458.7813 Q280.8438,458.5 281.4688,457.9219 L281.4688,460.6406 Z " fill="#000000"/><text fill="#000000" font-family="sans-serif" font-size="14" lengthAdjust="spacing" textLength="73.4863" x="292.5" y="459.8467">PistaAudio</text><line style="stroke:#181818;stroke-width:0.5;" x1="264.5" x2="367.9863" y1="471" y2="471"/><line style="stroke:#181818;stroke-width:0.5;" x1="264.5" x2="367.9863" y1="479" y2="479"/></g><!--reverse link Usuario to Suscripcion--><g class="link" data-entity-1="Usuario" data-entity-2="Suscripcion" data-source-line="27" data-uid="lnk10" id="link_Usuario_Suscripcion"><path codeLine="27" d="M184.7572,62.4808 C162.6072,80.1408 141.52,96.94 119.26,114.68" fill="none" id="Usuario-backto-Suscripcion" style="stroke:#181818;stroke-width:1;"/><polygon fill="#181818" points="194.14,55,186.955,55.6128,184.7572,62.4808,191.9422,61.868,194.14,55" style="stroke:#181818;stroke-width:1;"/></g><!--link Suscripcion to EstatusSuscripcion--><g class="link" data-entity-1="Suscripcion" data-entity-2="EstatusSuscripcion" data-source-line="28" data-uid="lnk11" id="link_Suscripcion_EstatusSuscripcion"><path codeLine="28" d="M89.78,163 C89.62,180.66 89.4475,198.9403 89.2775,216.6803" fill="none" id="Suscripcion-to-EstatusSuscripcion" style="stroke:#181818;stroke-width:1;"/><polygon fill="#181818" points="89.22,222.68,93.3061,213.7187,89.2679,217.6802,85.3064,213.6421,89.22,222.68" style="stroke:#181818;stroke-width:1;"/></g><!--link Artista to Album--><g class="link" data-entity-1="Artista" data-entity-2="Album" data-source-line="30" data-uid="lnk12" id="link_Artista_Album"><path codeLine="30" d="M333.23,163 C329.56,180.66 325.7387,199.0651 322.0587,216.8051" fill="none" id="Artista-to-Album" style="stroke:#181818;stroke-width:1;"/><polygon fill="#181818" points="320.84,222.68,326.5847,214.6801,321.8556,217.7842,318.7514,213.0551,320.84,222.68" style="stroke:#181818;stroke-width:1;"/></g><!--link Artista to Cancion--><g class="link" data-entity-1="Artista" data-entity-2="Cancion" data-source-line="31" data-uid="lnk13" id="link_Artista_Cancion"><path codeLine="31" d="M351.88,163.36 C365.72,189.69 383.41,233.7 372,271 C365.14,293.44 353.7454,310.6611 340.9154,326.3011" fill="none" id="Artista-to-Cancion" style="stroke:#181818;stroke-width:1;"/><polygon fill="#181818" points="337.11,330.94,345.9107,326.5187,340.2812,327.0743,339.7255,321.4448,337.11,330.94" style="stroke:#181818;stroke-width:1;"/></g><!--reverse link Album to Cancion--><g class="link" data-entity-1="Album" data-entity-2="Cancion" data-source-line="32" data-uid="lnk14" id="link_Album_Cancion"><path codeLine="32" d="M316,283 C316,300.66 316,312.94 316,330.68" fill="none" id="Album-backto-Cancion" style="stroke:#181818;stroke-width:1;"/><polygon fill="none" points="316,271,312,277,316,283,320,277,316,271" style="stroke:#181818;stroke-width:1;"/></g><!--reverse link Cancion to PistaAudio--><g class="link" data-entity-1="Cancion" data-entity-2="PistaAudio" data-source-line="33" data-uid="lnk15" id="link_Cancion_PistaAudio"><path codeLine="33" d="M316,391 C316,408.66 316,420.94 316,438.68" fill="none" id="Cancion-backto-PistaAudio" style="stroke:#181818;stroke-width:1;"/><polygon fill="#181818" points="316,379,312,385,316,391,320,385,316,379" style="stroke:#181818;stroke-width:1;"/></g><!--reverse link Usuario to Playlist--><g class="link" data-entity-1="Usuario" data-entity-2="Playlist" data-source-line="36" data-uid="lnk16" id="link_Usuario_Playlist"><path codeLine="36" d="M210.4695,66.8642 C207.7895,84.5242 209.58,96.94 212.23,114.68" fill="none" id="Usuario-backto-Playlist" style="stroke:#181818;stroke-width:1;"/><polygon fill="#181818" points="212.27,55,207.4151,60.3319,210.4695,66.8642,215.3245,61.5322,212.27,55" style="stroke:#181818;stroke-width:1;"/></g><!--link Usuario to Playlist--><g class="link" data-entity-1="Usuario" data-entity-2="Playlist" data-source-line="37" data-uid="lnk17" id="link_Usuario_Playlist"><path codeLine="37" d="M234.36,55 C237.2,72.66 238.1454,91.0134 235.3454,108.7534" fill="none" id="Usuario-to-Playlist" style="stroke:#181818;stroke-width:1;"/><polygon fill="#181818" points="234.41,114.68,239.7642,106.4137,235.1895,109.7411,231.8621,105.1664,234.41,114.68" style="stroke:#181818;stroke-width:1;"/></g><!--reverse link Playlist to Cancion--><g class="link" data-entity-1="Playlist" data-entity-2="Cancion" data-source-line="39" data-uid="lnk18" id="link_Playlist_Cancion"><path codeLine="39" d="M229.5569,174.7943 C234.9469,201.5843 243.29,234.98 260,271 C270.02,292.6 285.36,314.85 297.45,330.87" fill="none" id="Playlist-backto-Cancion" style="stroke:#181818;stroke-width:1;"/><polygon fill="none" points="227.19,163.03,224.452,169.7011,229.5569,174.7943,232.2949,168.1232,227.19,163.03" style="stroke:#181818;stroke-width:1;"/></g><!--link Usuario to Artista--><g class="link" data-entity-1="Usuario" data-entity-2="Artista" data-source-line="40" data-uid="lnk19" id="link_Usuario_Artista"><path codeLine="40" d="M247.95,55 C267.11,72.66 289.0378,92.8739 308.2878,110.6139" fill="none" id="Usuario-to-Artista" style="stroke:#181818;stroke-width:1;"/><polygon fill="#181818" points="312.7,114.68,308.7925,105.6395,309.0232,111.2916,303.3711,111.5223,312.7,114.68" style="stroke:#181818;stroke-width:1;"/></g><!--SRC=[RP1DRiCW48Ntd69sbIeXzGILY8CgIyIa8Iow9AuNg8uT6LYqLHSzGu-KYnKCE2JA3jxyl6-U-T33IKtg26slZ27MJlhWR5Utuo3qLmTF23q0nXXe8pSYl50tk2DGOvLrHZZJJlhKwd60R_IJcrUClqeAQmfIIBAhUPoSFK0QfoOzplrHkTqIrMslFdjjxFt55TcVVnb_uR2Hegu8Anp8PFsSAdQH_k2XB_zA3RTkOOAuzmIM_7QKaQhc3Oq7eCp-w6i5DIelmFZvJZm8PQfGdtckb4I48kdezsSbimRF2sKWP0JMVCLemZp_DJuPbZE7YZUXPSl86wl5_We-Xxk8WM4HqP9z2LAs9lH_]--></g></svg>