<?plantuml 1.2026.2beta3?><svg xmlns="http://www.w3.org/2000/svg" xmlns:xlink="http://www.w3.org/1999/xlink" contentStyleType="text/css" data-diagram-type="CLASS" height="494px" preserveAspectRatio="none" style="width:386px;height:494px;background:#FFFFFF;" version="1.1" viewBox="0 0 386 494" width="386px" zoomAndPan="magnify"><defs/><g><!--class Participante--><g class="entity" data-qualified-name="Participante" data-source-line="1" id="ent0002"><rect fill="#F1F1F1" height="48" rx="2.5" ry="2.5" style="stroke:#181818;stroke-width:0.5;" width="116.1846" x="231.74" y="7"/><ellipse cx="246.74" cy="23" fill="#ADD1B2" rx="11" ry="11" style="stroke:#181818;stroke-width:1;"/><path d="M249.7088,28.6406 Q249.1306,28.9375 248.49,29.0781 Q247.8494,29.2344 247.1463,29.2344 Q244.6463,29.2344 243.3181,27.5938 Q242.0056,25.9375 242.0056,22.8125 Q242.0056,19.6875 243.3181,18.0313 Q244.6463,16.375 247.1463,16.375 Q247.8494,16.375 248.49,16.5313 Q249.1463,16.6875 249.7088,16.9844 L249.7088,19.7031 Q249.0838,19.125 248.49,18.8594 Q247.8963,18.5781 247.2713,18.5781 Q245.9275,18.5781 245.24,19.6563 Q244.5525,20.7188 244.5525,22.8125 Q244.5525,24.9063 245.24,25.9844 Q245.9275,27.0469 247.2713,27.0469 Q247.8963,27.0469 248.49,26.7813 Q249.0838,26.5 249.7088,25.9219 L249.7088,28.6406 Z " fill="#000000"/><text fill="#000000" font-family="sans-serif" font-size="14" lengthAdjust="spacing" textLength="84.1846" x="260.74" y="27.8467">Participante</text><line style="stroke:#181818;stroke-width:0.5;" x1="232.74" x2="346.9246" y1="39" y2="39"/><line style="stroke:#181818;stroke-width:0.5;" x1="232.74" x2="346.9246" y1="47" y2="47"/></g><!--class Conversacion--><g class="entity" data-qualified-name="Conversacion" data-source-line="2" id="ent0003"><rect fill="#F1F1F1" height="48" rx="2.5" ry="2.5" style="stroke:#181818;stroke-width:0.5;" width="126.7666" x="110.44" y="115"/><ellipse cx="125.44" cy="131" fill="#ADD1B2" rx="11" ry="11" style="stroke:#181818;stroke-width:1;"/><path d="M128.4088,136.6406 Q127.8306,136.9375 127.19,137.0781 Q126.5494,137.2344 125.8463,137.2344 Q123.3463,137.2344 122.0181,135.5938 Q120.7056,133.9375 120.7056,130.8125 Q120.7056,127.6875 122.0181,126.0313 Q123.3463,124.375 125.8463,124.375 Q126.5494,124.375 127.19,124.5313 Q127.8463,124.6875 128.4088,124.9844 L128.4088,127.7031 Q127.7838,127.125 127.19,126.8594 Q126.5963,126.5781 125.9713,126.5781 Q124.6275,126.5781 123.94,127.6563 Q123.2525,128.7188 123.2525,130.8125 Q123.2525,132.9063 123.94,133.9844 Q124.6275,135.0469 125.9713,135.0469 Q126.5963,135.0469 127.19,134.7813 Q127.7838,134.5 128.4088,133.9219 L128.4088,136.6406 Z " fill="#000000"/><text fill="#000000" font-family="sans-serif" font-size="14" lengthAdjust="spacing" textLength="94.7666" x="139.44" y="135.8467">Conversacion</text><line style="stroke:#181818;stroke-width:0.5;" x1="111.44" x2="236.2066" y1="147" y2="147"/><line style="stroke:#181818;stroke-width:0.5;" x1="111.44" x2="236.2066" y1="155" y2="155"/></g><!--class Interaccion--><g class="entity" data-qualified-name="Interaccion" data-source-line="3" id="ent0004"><rect fill="#F1F1F1" height="48" rx="2.5" ry="2.5" style="stroke:#181818;stroke-width:0.5;" width="110.1621" x="269.75" y="331"/><ellipse cx="284.75" cy="347" fill="#ADD1B2" rx="11" ry="11" style="stroke:#181818;stroke-width:1;"/><path d="M287.7188,352.6406 Q287.1406,352.9375 286.5,353.0781 Q285.8594,353.2344 285.1563,353.2344 Q282.6563,353.2344 281.3281,351.5938 Q280.0156,349.9375 280.0156,346.8125 Q280.0156,343.6875 281.3281,342.0313 Q282.6563,340.375 285.1563,340.375 Q285.8594,340.375 286.5,340.5313 Q287.1563,340.6875 287.7188,340.9844 L287.7188,343.7031 Q287.0938,343.125 286.5,342.8594 Q285.9063,342.5781 285.2813,342.5781 Q283.9375,342.5781 283.25,343.6563 Q282.5625,344.7188 282.5625,346.8125 Q282.5625,348.9063 283.25,349.9844 Q283.9375,351.0469 285.2813,351.0469 Q285.9063,351.0469 286.5,350.7813 Q287.0938,350.5 287.7188,349.9219 L287.7188,352.6406 Z " fill="#000000"/><text fill="#000000" font-family="sans-serif" font-size="14" lengthAdjust="spacing" textLength="78.1621" x="298.75" y="351.8467">Interaccion</text><line style="stroke:#181818;stroke-width:0.5;" x1="270.75" x2="378.9121" y1="363" y2="363"/><line style="stroke:#181818;stroke-width:0.5;" x1="270.75" x2="378.9121" y1="371" y2="371"/></g><!--class Contexto--><g class="entity" data-qualified-name="Contexto" data-source-line="4" id="ent0005"><rect fill="#F1F1F1" height="48" rx="2.5" ry="2.5" style="stroke:#181818;stroke-width:0.5;" width="95.6563" x="7" y="223"/><ellipse cx="22" cy="239" fill="#ADD1B2" rx="11" ry="11" style="stroke:#181818;stroke-width:1;"/><path d="M24.9688,244.6406 Q24.3906,244.9375 23.75,245.0781 Q23.1094,245.2344 22.4063,245.2344 Q19.9063,245.2344 18.5781,243.5938 Q17.2656,241.9375 17.2656,238.8125 Q17.2656,235.6875 18.5781,234.0313 Q19.9063,232.375 22.4063,232.375 Q23.1094,232.375 23.75,232.5313 Q24.4063,232.6875 24.9688,232.9844 L24.9688,235.7031 Q24.3438,235.125 23.75,234.8594 Q23.1563,234.5781 22.5313,234.5781 Q21.1875,234.5781 20.5,235.6563 Q19.8125,236.7188 19.8125,238.8125 Q19.8125,240.9063 20.5,241.9844 Q21.1875,243.0469 22.5313,243.0469 Q23.1563,243.0469 23.75,242.7813 Q24.3438,242.5 24.9688,241.9219 L24.9688,244.6406 Z " fill="#000000"/><text fill="#000000" font-family="sans-serif" font-size="14" lengthAdjust="spacing" textLength="63.6563" x="36" y="243.8467">Contexto</text><line style="stroke:#181818;stroke-width:0.5;" x1="8" x2="101.6563" y1="255" y2="255"/><line style="stroke:#181818;stroke-width:0.5;" x1="8" x2="101.6563" y1="263" y2="263"/></g><!--class Tema--><g class="entity" data-qualified-name="Tema" data-source-line="5" id="ent0006"><rect fill="#F1F1F1" height="48" rx="2.5" ry="2.5" style="stroke:#181818;stroke-width:0.5;" width="71.3818" x="138.14" y="223"/><ellipse cx="153.14" cy="239" fill="#ADD1B2" rx="11" ry="11" style="stroke:#181818;stroke-width:1;"/><path d="M156.1088,244.6406 Q155.5306,244.9375 154.89,245.0781 Q154.2494,245.2344 153.5463,245.2344 Q151.0463,245.2344 149.7181,243.5938 Q148.4056,241.9375 148.4056,238.8125 Q148.4056,235.6875 149.7181,234.0313 Q151.0463,232.375 153.5463,232.375 Q154.2494,232.375 154.89,232.5313 Q155.5463,232.6875 156.1088,232.9844 L156.1088,235.7031 Q155.4838,235.125 154.89,234.8594 Q154.2963,234.5781 153.6713,234.5781 Q152.3275,234.5781 151.64,235.6563 Q150.9525,236.7188 150.9525,238.8125 Q150.9525,240.9063 151.64,241.9844 Q152.3275,243.0469 153.6713,243.0469 Q154.2963,243.0469 154.89,242.7813 Q155.4838,242.5 156.1088,241.9219 L156.1088,244.6406 Z " fill="#000000"/><text fill="#000000" font-family="sans-serif" font-size="14" lengthAdjust="spacing" textLength="39.3818" x="167.14" y="243.8467">Tema</text><line style="stroke:#181818;stroke-width:0.5;" x1="139.14" x2="208.5218" y1="255" y2="255"/><line style="stroke:#181818;stroke-width:0.5;" x1="139.14" x2="208.5218" y1="263" y2="263"/></g><!--class Silencio--><g class="entity" data-qualified-name="Silencio" data-source-line="6" id="ent0007"><rect fill="#F1F1F1" height="48" rx="2.5" ry="2.5" style="stroke:#181818;stroke-width:0.5;" width="86.3047" x="281.68" y="439"/><ellipse cx="296.68" cy="455" fill="#ADD1B2" rx="11" ry="11" style="stroke:#181818;stroke-width:1;"/><path d="M299.6488,460.6406 Q299.0706,460.9375 298.43,461.0781 Q297.7894,461.2344 297.0863,461.2344 Q294.5863,461.2344 293.2581,459.5938 Q291.9456,457.9375 291.9456,454.8125 Q291.9456,451.6875 293.2581,450.0313 Q294.5863,448.375 297.0863,448.375 Q297.7894,448.375 298.43,448.5313 Q299.0863,448.6875 299.6488,448.9844 L299.6488,451.7031 Q299.0238,451.125 298.43,450.8594 Q297.8363,450.5781 297.2113,450.5781 Q295.8675,450.5781 295.18,451.6563 Q294.4925,452.7188 294.4925,454.8125 Q294.4925,456.9063 295.18,457.9844 Q295.8675,459.0469 297.2113,459.0469 Q297.8363,459.0469 298.43,458.7813 Q299.0238,458.5 299.6488,457.9219 L299.6488,460.6406 Z " fill="#000000"/><text fill="#000000" font-family="sans-serif" font-size="14" lengthAdjust="spacing" textLength="54.3047" x="310.68" y="459.8467">Silencio</text><line style="stroke:#181818;stroke-width:0.5;" x1="282.68" x2="366.9847" y1="471" y2="471"/><line style="stroke:#181818;stroke-width:0.5;" x1="282.68" x2="366.9847" y1="479" y2="479"/></g><!--class Turno--><g class="entity" data-qualified-name="Turno" data-source-line="7" id="ent0008"><rect fill="#F1F1F1" height="48" rx="2.5" ry="2.5" style="stroke:#181818;stroke-width:0.5;" width="72.6191" x="244.52" y="223"/><ellipse cx="259.52" cy="239" fill="#ADD1B2" rx="11" ry="11" style="stroke:#181818;stroke-width:1;"/><path d="M262.4888,244.6406 Q261.9106,244.9375 261.27,245.0781 Q260.6294,245.2344 259.9263,245.2344 Q257.4263,245.2344 256.0981,243.5938 Q254.7856,241.9375 254.7856,238.8125 Q254.7856,235.6875 256.0981,234.0313 Q257.4263,232.375 259.9263,232.375 Q260.6294,232.375 261.27,232.5313 Q261.9263,232.6875 262.4888,232.9844 L262.4888,235.7031 Q261.8638,235.125 261.27,234.8594 Q260.6763,234.5781 260.0513,234.5781 Q258.7075,234.5781 258.02,235.6563 Q257.3325,236.7188 257.3325,238.8125 Q257.3325,240.9063 258.02,241.9844 Q258.7075,243.0469 260.0513,243.0469 Q260.6763,243.0469 261.27,242.7813 Q261.8638,242.5 262.4888,241.9219 L262.4888,244.6406 Z " fill="#000000"/><text fill="#000000" font-family="sans-serif" font-size="14" lengthAdjust="spacing" textLength="40.6191" x="273.52" y="243.8467">Turno</text><line style="stroke:#181818;stroke-width:0.5;" x1="245.52" x2="316.1391" y1="255" y2="255"/><line style="stroke:#181818;stroke-width:0.5;" x1="245.52" x2="316.1391" y1="263" y2="263"/></g><!--reverse link Interaccion to Silencio--><g class="link" data-entity-1="ent0004" data-entity-2="ent0007" data-link-type="extension" data-source-line="9" id="lnk9"><path codeLine="9" d="M324.83,397.26 C324.83,414.94 324.83,421.13 324.83,438.79" fill="none" id="Interaccion-backto-Silencio" style="stroke:#181818;stroke-width:1;"/><polygon fill="none" points="324.83,379.26,318.83,397.26,330.83,397.26,324.83,379.26" style="stroke:#181818;stroke-width:1;"/></g><!--link Participante to Conversacion--><g class="link" data-entity-1="ent0002" data-entity-2="ent0003" data-link-type="association" data-source-line="10" id="lnk10"><path codeLine="10" d="M264.37,55.26 C245.03,72.94 218.55,97.13 199.23,114.79" fill="none" id="Participante-Conversacion" style="stroke:#181818;stroke-width:1;"/></g><!--link Conversacion to Contexto--><g class="link" data-entity-1="ent0003" data-entity-2="ent0005" data-link-type="association" data-source-line="11" id="lnk11"><path codeLine="11" d="M147.71,163.26 C127.87,180.94 100.71,205.13 80.88,222.79" fill="none" id="Conversacion-Contexto" style="stroke:#181818;stroke-width:1;"/></g><!--reverse link Conversacion to Tema--><g class="link" data-entity-1="ent0003" data-entity-2="ent0006" data-link-type="aggregation" data-source-line="12" id="lnk12"><path codeLine="12" d="M173.83,175.26 C173.83,192.94 173.83,205.13 173.83,222.79" fill="none" id="Conversacion-backto-Tema" style="stroke:#181818;stroke-width:1;"/><polygon fill="none" points="173.83,163.26,169.83,169.26,173.83,175.26,177.83,169.26,173.83,163.26" style="stroke:#181818;stroke-width:1;"/></g><!--reverse link Conversacion to Turno--><g class="link" data-entity-1="ent0003" data-entity-2="ent0008" data-link-type="composition" data-source-line="13" id="lnk13"><path codeLine="13" d="M205.8334,171.707 C223.6734,189.387 239.57,205.13 257.4,222.79" fill="none" id="Conversacion-backto-Turno" style="stroke:#181818;stroke-width:1;"/><polygon fill="#181818" points="197.31,163.26,198.7561,170.3246,205.8334,171.707,204.3874,164.6423,197.31,163.26" style="stroke:#181818;stroke-width:1;"/></g><!--link Participante to Turno--><g class="link" data-entity-1="ent0002" data-entity-2="ent0008" data-link-type="dependency" data-source-line="14" id="lnk14"><path codeLine="14" d="M288.85,55.31 C287.12,96.47 283.7921,175.5853 282.0621,216.7253" fill="none" id="Participante-to-Turno" style="stroke:#181818;stroke-width:1;"/><polygon fill="#181818" points="281.81,222.72,286.1846,213.896,282.0201,217.7244,278.1917,213.5599,281.81,222.72" style="stroke:#181818;stroke-width:1;"/></g><!--reverse link Turno to Interaccion--><g class="link" data-entity-1="ent0008" data-entity-2="ent0004" data-link-type="aggregation" data-source-line="15" id="lnk15"><path codeLine="15" d="M295.0811,282.3428 C302.4211,300.0228 307.86,313.13 315.19,330.79" fill="none" id="Turno-backto-Interaccion" style="stroke:#181818;stroke-width:1;"/><polygon fill="none" points="290.48,271.26,289.0863,278.3351,295.0811,282.3428,296.4749,275.2677,290.48,271.26" style="stroke:#181818;stroke-width:1;"/></g><!--link Participante to Interaccion--><g class="link" data-entity-1="ent0002" data-entity-2="ent0004" data-link-type="dependency" data-source-line="16" id="lnk16"><path codeLine="16" d="M296.3,55.18 C300.85,71.78 306.98,94.7 311.83,115 C328.11,183.17 339.03,201.04 334.83,271 C333.61,291.28 331.5705,308.2592 329.2205,324.8692" fill="none" id="Participante-to-Interaccion" style="stroke:#181818;stroke-width:1;"/><polygon fill="#181818" points="328.38,330.81,333.6013,322.4591,329.0804,325.8593,325.6802,321.3384,328.38,330.81" style="stroke:#181818;stroke-width:1;"/></g><?plantuml-src Iyv9B2vM24WiAibCpYn8p2j9vKe62pddvvMb5XKd9cVcvq65F86oHOd9I290HIMf5INvK6v8QcuYb1cScPEQ1rG9aoajoildua8oGS6cHbSNeGpP1Gf02HJhaJbGIOYrA1BvG1cm2r14jK2YODlHhB232eD9i6Pa_s4eHf840000?></g></svg>