<svg xmlns="http://www.w3.org/2000/svg" xmlns:xlink="http://www.w3.org/1999/xlink" contentStyleType="text/css" data-diagram-type="CLASS" height="386px" preserveAspectRatio="none" style="width:617px;height:386px;background:#FFFFFF;" version="1.1" viewBox="0 0 617 386" width="617px" zoomAndPan="magnify"><defs/><g><!--class Usuario--><g class="entity" data-entity="Usuario" data-source-line="2" data-uid="ent0002" id="entity_Usuario"><rect fill="#F1F1F1" height="48" rx="2.5" ry="2.5" style="stroke:#181818;stroke-width:0.5;" width="80.2412" x="51" y="7"/><ellipse cx="66" cy="23" fill="#ADD1B2" rx="11" ry="11" style="stroke:#181818;stroke-width:1;"/><path d="M68.7656,18.875 Q68.9219,18.6563 69.1094,18.5469 Q69.2969,18.4375 69.5156,18.4375 Q69.8906,18.4375 70.125,18.6953 Q70.3594,18.9531 70.3594,19.5625 L70.3594,21.0156 Q70.3594,21.625 70.125,21.8906 Q69.8906,22.1563 69.5156,22.1563 Q69.1719,22.1563 68.9688,21.9531 Q68.7656,21.7656 68.6563,21.25 Q68.6094,20.8906 68.4219,20.7031 Q68.0938,20.3281 67.4844,20.1094 Q66.875,19.8906 66.25,19.8906 Q65.4844,19.8906 64.8516,20.2188 Q64.2188,20.5469 63.7266,21.2969 Q63.2344,22.0469 63.2344,23.0781 L63.2344,24.1719 Q63.2344,25.4063 64.125,26.2266 Q65.0156,27.0469 66.6094,27.0469 Q67.5469,27.0469 68.2031,26.7969 Q68.5938,26.6406 69.0156,26.2031 Q69.2813,25.9375 69.4297,25.8594 Q69.5781,25.7813 69.7813,25.7813 Q70.1094,25.7813 70.3672,26.0391 Q70.625,26.2969 70.625,26.6406 Q70.625,26.9844 70.2813,27.3906 Q69.7813,27.9688 68.9844,28.2969 Q67.9063,28.75 66.6094,28.75 Q65.0938,28.75 63.8906,28.125 Q62.9063,27.625 62.2188,26.5547 Q61.5313,25.4844 61.5313,24.2031 L61.5313,23.0469 Q61.5313,21.7188 62.1484,20.5703 Q62.7656,19.4219 63.8594,18.8047 Q64.9531,18.1875 66.1875,18.1875 Q66.9219,18.1875 67.5703,18.3516 Q68.2188,18.5156 68.7656,18.875 Z " fill="#000000"/><text fill="#000000" font-family="sans-serif" font-size="14" lengthAdjust="spacing" textLength="48.2412" x="80" y="28.7285">Usuario</text><line style="stroke:#181818;stroke-width:0.5;" x1="52" x2="130.2412" y1="39" y2="39"/><line style="stroke:#181818;stroke-width:0.5;" x1="52" x2="130.2412" y1="47" y2="47"/></g><!--class Aplicacion--><g class="entity" data-entity="Aplicacion" data-source-line="5" data-uid="ent0003" id="entity_Aplicacion"><rect fill="#F1F1F1" height="48" rx="2.5" ry="2.5" style="stroke:#181818;stroke-width:0.5;" width="95.8135" x="43" y="115"/><ellipse cx="58" cy="131" fill="#ADD1B2" rx="11" ry="11" style="stroke:#181818;stroke-width:1;"/><path d="M60.7656,126.875 Q60.9219,126.6563 61.1094,126.5469 Q61.2969,126.4375 61.5156,126.4375 Q61.8906,126.4375 62.125,126.6953 Q62.3594,126.9531 62.3594,127.5625 L62.3594,129.0156 Q62.3594,129.625 62.125,129.8906 Q61.8906,130.1563 61.5156,130.1563 Q61.1719,130.1563 60.9688,129.9531 Q60.7656,129.7656 60.6563,129.25 Q60.6094,128.8906 60.4219,128.7031 Q60.0938,128.3281 59.4844,128.1094 Q58.875,127.8906 58.25,127.8906 Q57.4844,127.8906 56.8516,128.2188 Q56.2188,128.5469 55.7266,129.2969 Q55.2344,130.0469 55.2344,131.0781 L55.2344,132.1719 Q55.2344,133.4063 56.125,134.2266 Q57.0156,135.0469 58.6094,135.0469 Q59.5469,135.0469 60.2031,134.7969 Q60.5938,134.6406 61.0156,134.2031 Q61.2813,133.9375 61.4297,133.8594 Q61.5781,133.7813 61.7813,133.7813 Q62.1094,133.7813 62.3672,134.0391 Q62.625,134.2969 62.625,134.6406 Q62.625,134.9844 62.2813,135.3906 Q61.7813,135.9688 60.9844,136.2969 Q59.9063,136.75 58.6094,136.75 Q57.0938,136.75 55.8906,136.125 Q54.9063,135.625 54.2188,134.5547 Q53.5313,133.4844 53.5313,132.2031 L53.5313,131.0469 Q53.5313,129.7188 54.1484,128.5703 Q54.7656,127.4219 55.8594,126.8047 Q56.9531,126.1875 58.1875,126.1875 Q58.9219,126.1875 59.5703,126.3516 Q60.2188,126.5156 60.7656,126.875 Z " fill="#000000"/><text fill="#000000" font-family="sans-serif" font-size="14" lengthAdjust="spacing" textLength="63.8135" x="72" y="136.7285">Aplicacion</text><line style="stroke:#181818;stroke-width:0.5;" x1="44" x2="137.8135" y1="147" y2="147"/><line style="stroke:#181818;stroke-width:0.5;" x1="44" x2="137.8135" y1="155" y2="155"/></g><!--class Playlist--><g class="entity" data-entity="Playlist" data-source-line="8" data-uid="ent0004" id="entity_Playlist"><rect fill="#F1F1F1" height="48" rx="2.5" ry="2.5" style="stroke:#181818;stroke-width:0.5;" width="76.3447" x="7" y="223"/><ellipse cx="22" cy="239" fill="#ADD1B2" rx="11" ry="11" style="stroke:#181818;stroke-width:1;"/><path d="M24.7656,234.875 Q24.9219,234.6563 25.1094,234.5469 Q25.2969,234.4375 25.5156,234.4375 Q25.8906,234.4375 26.125,234.6953 Q26.3594,234.9531 26.3594,235.5625 L26.3594,237.0156 Q26.3594,237.625 26.125,237.8906 Q25.8906,238.1563 25.5156,238.1563 Q25.1719,238.1563 24.9688,237.9531 Q24.7656,237.7656 24.6563,237.25 Q24.6094,236.8906 24.4219,236.7031 Q24.0938,236.3281 23.4844,236.1094 Q22.875,235.8906 22.25,235.8906 Q21.4844,235.8906 20.8516,236.2188 Q20.2188,236.5469 19.7266,237.2969 Q19.2344,238.0469 19.2344,239.0781 L19.2344,240.1719 Q19.2344,241.4063 20.125,242.2266 Q21.0156,243.0469 22.6094,243.0469 Q23.5469,243.0469 24.2031,242.7969 Q24.5938,242.6406 25.0156,242.2031 Q25.2813,241.9375 25.4297,241.8594 Q25.5781,241.7813 25.7813,241.7813 Q26.1094,241.7813 26.3672,242.0391 Q26.625,242.2969 26.625,242.6406 Q26.625,242.9844 26.2813,243.3906 Q25.7813,243.9688 24.9844,244.2969 Q23.9063,244.75 22.6094,244.75 Q21.0938,244.75 19.8906,244.125 Q18.9063,243.625 18.2188,242.5547 Q17.5313,241.4844 17.5313,240.2031 L17.5313,239.0469 Q17.5313,237.7188 18.1484,236.5703 Q18.7656,235.4219 19.8594,234.8047 Q20.9531,234.1875 22.1875,234.1875 Q22.9219,234.1875 23.5703,234.3516 Q24.2188,234.5156 24.7656,234.875 Z " fill="#000000"/><text fill="#000000" font-family="sans-serif" font-size="14" lengthAdjust="spacing" textLength="44.3447" x="36" y="244.7285">Playlist</text><line style="stroke:#181818;stroke-width:0.5;" x1="8" x2="82.3447" y1="255" y2="255"/><line style="stroke:#181818;stroke-width:0.5;" x1="8" x2="82.3447" y1="263" y2="263"/></g><!--class Artista--><g class="entity" data-entity="Artista" data-source-line="11" data-uid="ent0005" id="entity_Artista"><rect fill="#F1F1F1" height="48" rx="2.5" ry="2.5" style="stroke:#181818;stroke-width:0.5;" width="71.6758" x="356" y="115"/><ellipse cx="371" cy="131" fill="#ADD1B2" rx="11" ry="11" style="stroke:#181818;stroke-width:1;"/><path d="M373.7656,126.875 Q373.9219,126.6563 374.1094,126.5469 Q374.2969,126.4375 374.5156,126.4375 Q374.8906,126.4375 375.125,126.6953 Q375.3594,126.9531 375.3594,127.5625 L375.3594,129.0156 Q375.3594,129.625 375.125,129.8906 Q374.8906,130.1563 374.5156,130.1563 Q374.1719,130.1563 373.9688,129.9531 Q373.7656,129.7656 373.6563,129.25 Q373.6094,128.8906 373.4219,128.7031 Q373.0938,128.3281 372.4844,128.1094 Q371.875,127.8906 371.25,127.8906 Q370.4844,127.8906 369.8516,128.2188 Q369.2188,128.5469 368.7266,129.2969 Q368.2344,130.0469 368.2344,131.0781 L368.2344,132.1719 Q368.2344,133.4063 369.125,134.2266 Q370.0156,135.0469 371.6094,135.0469 Q372.5469,135.0469 373.2031,134.7969 Q373.5938,134.6406 374.0156,134.2031 Q374.2813,133.9375 374.4297,133.8594 Q374.5781,133.7813 374.7813,133.7813 Q375.1094,133.7813 375.3672,134.0391 Q375.625,134.2969 375.625,134.6406 Q375.625,134.9844 375.2813,135.3906 Q374.7813,135.9688 373.9844,136.2969 Q372.9063,136.75 371.6094,136.75 Q370.0938,136.75 368.8906,136.125 Q367.9063,135.625 367.2188,134.5547 Q366.5313,133.4844 366.5313,132.2031 L366.5313,131.0469 Q366.5313,129.7188 367.1484,128.5703 Q367.7656,127.4219 368.8594,126.8047 Q369.9531,126.1875 371.1875,126.1875 Q371.9219,126.1875 372.5703,126.3516 Q373.2188,126.5156 373.7656,126.875 Z " fill="#000000"/><text fill="#000000" font-family="sans-serif" font-size="14" lengthAdjust="spacing" textLength="39.6758" x="385" y="136.7285">Artista</text><line style="stroke:#181818;stroke-width:0.5;" x1="357" x2="426.6758" y1="147" y2="147"/><line style="stroke:#181818;stroke-width:0.5;" x1="357" x2="426.6758" y1="155" y2="155"/></g><!--class Instrumento--><g class="entity" data-entity="Instrumento" data-source-line="14" data-uid="ent0006" id="entity_Instrumento"><rect fill="#F1F1F1" height="48" rx="2.5" ry="2.5" style="stroke:#181818;stroke-width:0.5;" width="105.9238" x="189" y="223"/><ellipse cx="204" cy="239" fill="#ADD1B2" rx="11" ry="11" style="stroke:#181818;stroke-width:1;"/><path d="M206.7656,234.875 Q206.9219,234.6563 207.1094,234.5469 Q207.2969,234.4375 207.5156,234.4375 Q207.8906,234.4375 208.125,234.6953 Q208.3594,234.9531 208.3594,235.5625 L208.3594,237.0156 Q208.3594,237.625 208.125,237.8906 Q207.8906,238.1563 207.5156,238.1563 Q207.1719,238.1563 206.9688,237.9531 Q206.7656,237.7656 206.6563,237.25 Q206.6094,236.8906 206.4219,236.7031 Q206.0938,236.3281 205.4844,236.1094 Q204.875,235.8906 204.25,235.8906 Q203.4844,235.8906 202.8516,236.2188 Q202.2188,236.5469 201.7266,237.2969 Q201.2344,238.0469 201.2344,239.0781 L201.2344,240.1719 Q201.2344,241.4063 202.125,242.2266 Q203.0156,243.0469 204.6094,243.0469 Q205.5469,243.0469 206.2031,242.7969 Q206.5938,242.6406 207.0156,242.2031 Q207.2813,241.9375 207.4297,241.8594 Q207.5781,241.7813 207.7813,241.7813 Q208.1094,241.7813 208.3672,242.0391 Q208.625,242.2969 208.625,242.6406 Q208.625,242.9844 208.2813,243.3906 Q207.7813,243.9688 206.9844,244.2969 Q205.9063,244.75 204.6094,244.75 Q203.0938,244.75 201.8906,244.125 Q200.9063,243.625 200.2188,242.5547 Q199.5313,241.4844 199.5313,240.2031 L199.5313,239.0469 Q199.5313,237.7188 200.1484,236.5703 Q200.7656,235.4219 201.8594,234.8047 Q202.9531,234.1875 204.1875,234.1875 Q204.9219,234.1875 205.5703,234.3516 Q206.2188,234.5156 206.7656,234.875 Z " fill="#000000"/><text fill="#000000" font-family="sans-serif" font-size="14" lengthAdjust="spacing" textLength="73.9238" x="218" y="244.7285">Instrumento</text><line style="stroke:#181818;stroke-width:0.5;" x1="190" x2="293.9238" y1="255" y2="255"/><line style="stroke:#181818;stroke-width:0.5;" x1="190" x2="293.9238" y1="263" y2="263"/></g><!--class Cancion--><g class="entity" data-entity="Cancion" data-source-line="17" data-uid="ent0007" id="entity_Cancion"><rect fill="#F1F1F1" height="48" rx="2.5" ry="2.5" style="stroke:#181818;stroke-width:0.5;" width="83.3652" x="178.5" y="331"/><ellipse cx="193.5" cy="347" fill="#ADD1B2" rx="11" ry="11" style="stroke:#181818;stroke-width:1;"/><path d="M196.2656,342.875 Q196.4219,342.6563 196.6094,342.5469 Q196.7969,342.4375 197.0156,342.4375 Q197.3906,342.4375 197.625,342.6953 Q197.8594,342.9531 197.8594,343.5625 L197.8594,345.0156 Q197.8594,345.625 197.625,345.8906 Q197.3906,346.1563 197.0156,346.1563 Q196.6719,346.1563 196.4688,345.9531 Q196.2656,345.7656 196.1563,345.25 Q196.1094,344.8906 195.9219,344.7031 Q195.5938,344.3281 194.9844,344.1094 Q194.375,343.8906 193.75,343.8906 Q192.9844,343.8906 192.3516,344.2188 Q191.7188,344.5469 191.2266,345.2969 Q190.7344,346.0469 190.7344,347.0781 L190.7344,348.1719 Q190.7344,349.4063 191.625,350.2266 Q192.5156,351.0469 194.1094,351.0469 Q195.0469,351.0469 195.7031,350.7969 Q196.0938,350.6406 196.5156,350.2031 Q196.7813,349.9375 196.9297,349.8594 Q197.0781,349.7813 197.2813,349.7813 Q197.6094,349.7813 197.8672,350.0391 Q198.125,350.2969 198.125,350.6406 Q198.125,350.9844 197.7813,351.3906 Q197.2813,351.9688 196.4844,352.2969 Q195.4063,352.75 194.1094,352.75 Q192.5938,352.75 191.3906,352.125 Q190.4063,351.625 189.7188,350.5547 Q189.0313,349.4844 189.0313,348.2031 L189.0313,347.0469 Q189.0313,345.7188 189.6484,344.5703 Q190.2656,343.4219 191.3594,342.8047 Q192.4531,342.1875 193.6875,342.1875 Q194.4219,342.1875 195.0703,342.3516 Q195.7188,342.5156 196.2656,342.875 Z " fill="#000000"/><text fill="#000000" font-family="sans-serif" font-size="14" lengthAdjust="spacing" textLength="51.3652" x="207.5" y="352.7285">Cancion</text><line style="stroke:#181818;stroke-width:0.5;" x1="179.5" x2="260.8652" y1="363" y2="363"/><line style="stroke:#181818;stroke-width:0.5;" x1="179.5" x2="260.8652" y1="371" y2="371"/></g><!--class Album--><g class="entity" data-entity="Album" data-source-line="20" data-uid="ent0008" id="entity_Album"><rect fill="#F1F1F1" height="48" rx="2.5" ry="2.5" style="stroke:#181818;stroke-width:0.5;" width="71.6826" x="401" y="223"/><ellipse cx="416" cy="239" fill="#ADD1B2" rx="11" ry="11" style="stroke:#181818;stroke-width:1;"/><path d="M418.7656,234.875 Q418.9219,234.6563 419.1094,234.5469 Q419.2969,234.4375 419.5156,234.4375 Q419.8906,234.4375 420.125,234.6953 Q420.3594,234.9531 420.3594,235.5625 L420.3594,237.0156 Q420.3594,237.625 420.125,237.8906 Q419.8906,238.1563 419.5156,238.1563 Q419.1719,238.1563 418.9688,237.9531 Q418.7656,237.7656 418.6563,237.25 Q418.6094,236.8906 418.4219,236.7031 Q418.0938,236.3281 417.4844,236.1094 Q416.875,235.8906 416.25,235.8906 Q415.4844,235.8906 414.8516,236.2188 Q414.2188,236.5469 413.7266,237.2969 Q413.2344,238.0469 413.2344,239.0781 L413.2344,240.1719 Q413.2344,241.4063 414.125,242.2266 Q415.0156,243.0469 416.6094,243.0469 Q417.5469,243.0469 418.2031,242.7969 Q418.5938,242.6406 419.0156,242.2031 Q419.2813,241.9375 419.4297,241.8594 Q419.5781,241.7813 419.7813,241.7813 Q420.1094,241.7813 420.3672,242.0391 Q420.625,242.2969 420.625,242.6406 Q420.625,242.9844 420.2813,243.3906 Q419.7813,243.9688 418.9844,244.2969 Q417.9063,244.75 416.6094,244.75 Q415.0938,244.75 413.8906,244.125 Q412.9063,243.625 412.2188,242.5547 Q411.5313,241.4844 411.5313,240.2031 L411.5313,239.0469 Q411.5313,237.7188 412.1484,236.5703 Q412.7656,235.4219 413.8594,234.8047 Q414.9531,234.1875 416.1875,234.1875 Q416.9219,234.1875 417.5703,234.3516 Q418.2188,234.5156 418.7656,234.875 Z " fill="#000000"/><text fill="#000000" font-family="sans-serif" font-size="14" lengthAdjust="spacing" textLength="39.6826" x="430" y="244.7285">Album</text><line style="stroke:#181818;stroke-width:0.5;" x1="402" x2="471.6826" y1="255" y2="255"/><line style="stroke:#181818;stroke-width:0.5;" x1="402" x2="471.6826" y1="263" y2="263"/></g><!--class EdicionDisco--><g class="entity" data-entity="EdicionDisco" data-source-line="23" data-uid="ent0009" id="entity_EdicionDisco"><rect fill="#F1F1F1" height="48" rx="2.5" ry="2.5" style="stroke:#181818;stroke-width:0.5;" width="112.9238" x="370.5" y="331"/><ellipse cx="385.5" cy="347" fill="#ADD1B2" rx="11" ry="11" style="stroke:#181818;stroke-width:1;"/><path d="M388.2656,342.875 Q388.4219,342.6563 388.6094,342.5469 Q388.7969,342.4375 389.0156,342.4375 Q389.3906,342.4375 389.625,342.6953 Q389.8594,342.9531 389.8594,343.5625 L389.8594,345.0156 Q389.8594,345.625 389.625,345.8906 Q389.3906,346.1563 389.0156,346.1563 Q388.6719,346.1563 388.4688,345.9531 Q388.2656,345.7656 388.1563,345.25 Q388.1094,344.8906 387.9219,344.7031 Q387.5938,344.3281 386.9844,344.1094 Q386.375,343.8906 385.75,343.8906 Q384.9844,343.8906 384.3516,344.2188 Q383.7188,344.5469 383.2266,345.2969 Q382.7344,346.0469 382.7344,347.0781 L382.7344,348.1719 Q382.7344,349.4063 383.625,350.2266 Q384.5156,351.0469 386.1094,351.0469 Q387.0469,351.0469 387.7031,350.7969 Q388.0938,350.6406 388.5156,350.2031 Q388.7813,349.9375 388.9297,349.8594 Q389.0781,349.7813 389.2813,349.7813 Q389.6094,349.7813 389.8672,350.0391 Q390.125,350.2969 390.125,350.6406 Q390.125,350.9844 389.7813,351.3906 Q389.2813,351.9688 388.4844,352.2969 Q387.4063,352.75 386.1094,352.75 Q384.5938,352.75 383.3906,352.125 Q382.4063,351.625 381.7188,350.5547 Q381.0313,349.4844 381.0313,348.2031 L381.0313,347.0469 Q381.0313,345.7188 381.6484,344.5703 Q382.2656,343.4219 383.3594,342.8047 Q384.4531,342.1875 385.6875,342.1875 Q386.4219,342.1875 387.0703,342.3516 Q387.7188,342.5156 388.2656,342.875 Z " fill="#000000"/><text fill="#000000" font-family="sans-serif" font-size="14" lengthAdjust="spacing" textLength="80.9238" x="399.5" y="352.7285">EdicionDisco</text><line style="stroke:#181818;stroke-width:0.5;" x1="371.5" x2="482.4238" y1="363" y2="363"/><line style="stroke:#181818;stroke-width:0.5;" x1="371.5" x2="482.4238" y1="371" y2="371"/></g><!--class Gira--><g class="entity" data-entity="Gira" data-source-line="26" data-uid="ent0010" id="entity_Gira"><rect fill="#F1F1F1" height="48" rx="2.5" ry="2.5" style="stroke:#181818;stroke-width:0.5;" width="58.4482" x="527" y="223"/><ellipse cx="542" cy="239" fill="#ADD1B2" rx="11" ry="11" style="stroke:#181818;stroke-width:1;"/><path d="M544.7656,234.875 Q544.9219,234.6563 545.1094,234.5469 Q545.2969,234.4375 545.5156,234.4375 Q545.8906,234.4375 546.125,234.6953 Q546.3594,234.9531 546.3594,235.5625 L546.3594,237.0156 Q546.3594,237.625 546.125,237.8906 Q545.8906,238.1563 545.5156,238.1563 Q545.1719,238.1563 544.9688,237.9531 Q544.7656,237.7656 544.6563,237.25 Q544.6094,236.8906 544.4219,236.7031 Q544.0938,236.3281 543.4844,236.1094 Q542.875,235.8906 542.25,235.8906 Q541.4844,235.8906 540.8516,236.2188 Q540.2188,236.5469 539.7266,237.2969 Q539.2344,238.0469 539.2344,239.0781 L539.2344,240.1719 Q539.2344,241.4063 540.125,242.2266 Q541.0156,243.0469 542.6094,243.0469 Q543.5469,243.0469 544.2031,242.7969 Q544.5938,242.6406 545.0156,242.2031 Q545.2813,241.9375 545.4297,241.8594 Q545.5781,241.7813 545.7813,241.7813 Q546.1094,241.7813 546.3672,242.0391 Q546.625,242.2969 546.625,242.6406 Q546.625,242.9844 546.2813,243.3906 Q545.7813,243.9688 544.9844,244.2969 Q543.9063,244.75 542.6094,244.75 Q541.0938,244.75 539.8906,244.125 Q538.9063,243.625 538.2188,242.5547 Q537.5313,241.4844 537.5313,240.2031 L537.5313,239.0469 Q537.5313,237.7188 538.1484,236.5703 Q538.7656,235.4219 539.8594,234.8047 Q540.9531,234.1875 542.1875,234.1875 Q542.9219,234.1875 543.5703,234.3516 Q544.2188,234.5156 544.7656,234.875 Z " fill="#000000"/><text fill="#000000" font-family="sans-serif" font-size="14" lengthAdjust="spacing" textLength="26.4482" x="556" y="244.7285">Gira</text><line style="stroke:#181818;stroke-width:0.5;" x1="528" x2="584.4482" y1="255" y2="255"/><line style="stroke:#181818;stroke-width:0.5;" x1="528" x2="584.4482" y1="263" y2="263"/></g><!--class Concierto--><g class="entity" data-entity="Concierto" data-source-line="29" data-uid="ent0011" id="entity_Concierto"><rect fill="#F1F1F1" height="48" rx="2.5" ry="2.5" style="stroke:#181818;stroke-width:0.5;" width="91.917" x="519" y="331"/><ellipse cx="534" cy="347" fill="#ADD1B2" rx="11" ry="11" style="stroke:#181818;stroke-width:1;"/><path d="M536.7656,342.875 Q536.9219,342.6563 537.1094,342.5469 Q537.2969,342.4375 537.5156,342.4375 Q537.8906,342.4375 538.125,342.6953 Q538.3594,342.9531 538.3594,343.5625 L538.3594,345.0156 Q538.3594,345.625 538.125,345.8906 Q537.8906,346.1563 537.5156,346.1563 Q537.1719,346.1563 536.9688,345.9531 Q536.7656,345.7656 536.6563,345.25 Q536.6094,344.8906 536.4219,344.7031 Q536.0938,344.3281 535.4844,344.1094 Q534.875,343.8906 534.25,343.8906 Q533.4844,343.8906 532.8516,344.2188 Q532.2188,344.5469 531.7266,345.2969 Q531.2344,346.0469 531.2344,347.0781 L531.2344,348.1719 Q531.2344,349.4063 532.125,350.2266 Q533.0156,351.0469 534.6094,351.0469 Q535.5469,351.0469 536.2031,350.7969 Q536.5938,350.6406 537.0156,350.2031 Q537.2813,349.9375 537.4297,349.8594 Q537.5781,349.7813 537.7813,349.7813 Q538.1094,349.7813 538.3672,350.0391 Q538.625,350.2969 538.625,350.6406 Q538.625,350.9844 538.2813,351.3906 Q537.7813,351.9688 536.9844,352.2969 Q535.9063,352.75 534.6094,352.75 Q533.0938,352.75 531.8906,352.125 Q530.9063,351.625 530.2188,350.5547 Q529.5313,349.4844 529.5313,348.2031 L529.5313,347.0469 Q529.5313,345.7188 530.1484,344.5703 Q530.7656,343.4219 531.8594,342.8047 Q532.9531,342.1875 534.1875,342.1875 Q534.9219,342.1875 535.5703,342.3516 Q536.2188,342.5156 536.7656,342.875 Z " fill="#000000"/><text fill="#000000" font-family="sans-serif" font-size="14" lengthAdjust="spacing" textLength="59.917" x="548" y="352.7285">Concierto</text><line style="stroke:#181818;stroke-width:0.5;" x1="520" x2="609.917" y1="363" y2="363"/><line style="stroke:#181818;stroke-width:0.5;" x1="520" x2="609.917" y1="371" y2="371"/></g><!--reverse link Album to EdicionDisco--><g class="link" data-entity-1="Album" data-entity-2="EdicionDisco" data-source-line="32" data-uid="lnk12" id="link_Album_EdicionDisco"><path codeLine="32" d="M433.1354,288.9201 C431.4654,306.5801 430.87,312.94 429.2,330.68" fill="none" id="Album-backto-EdicionDisco" style="stroke:#181818;stroke-width:1;"/><polygon fill="none" points="434.83,271,427.1621,288.3552,439.1088,289.4849,434.83,271" style="stroke:#181818;stroke-width:1;"/></g><!--reverse link Gira to Concierto--><g class="link" data-entity-1="Gira" data-entity-2="Concierto" data-source-line="34" data-uid="lnk13" id="link_Gira_Concierto"><path codeLine="34" d="M558.9656,282.9569 C560.4656,300.6169 561.51,312.94 563.02,330.68" fill="none" id="Gira-backto-Concierto" style="stroke:#181818;stroke-width:1;"/><polygon fill="#181818" points="557.95,271,554.4721,277.317,558.9656,282.9569,562.4434,276.6399,557.95,271" style="stroke:#181818;stroke-width:1;"/></g><!--reverse link Artista to Cancion--><g class="link" data-entity-1="Artista" data-entity-2="Cancion" data-source-line="36" data-uid="lnk14" id="link_Artista_Cancion"><path codeLine="36" d="M375.0022,173.7562 C360.8922,201.0062 340.75,236.34 312,271 C293.46,293.35 268.89,315.21 249.8,330.88" fill="none" id="Artista-backto-Cancion" style="stroke:#181818;stroke-width:1;"/><polygon fill="none" points="380.52,163.1,374.2091,166.5888,375.0022,173.7562,381.3132,170.2673,380.52,163.1" style="stroke:#181818;stroke-width:1;"/></g><!--reverse link Artista to Album--><g class="link" data-entity-1="Artista" data-entity-2="Album" data-source-line="37" data-uid="lnk15" id="link_Artista_Album"><path codeLine="37" d="M406.4508,174.0452 C413.9508,191.7052 419.57,204.94 427.1,222.68" fill="none" id="Artista-backto-Album" style="stroke:#181818;stroke-width:1;"/><polygon fill="none" points="401.76,163,400.4237,170.0862,406.4508,174.0452,407.7871,166.959,401.76,163" style="stroke:#181818;stroke-width:1;"/></g><!--reverse link Album to Cancion--><g class="link" data-entity-1="Album" data-entity-2="Cancion" data-source-line="38" data-uid="lnk16" id="link_Album_Cancion"><path codeLine="38" d="M389.8973,271.0063 C351.5273,289.7463 301.91,313.99 261.64,333.66" fill="none" id="Album-backto-Cancion" style="stroke:#181818;stroke-width:1;"/><polygon fill="none" points="400.68,265.74,393.5332,264.7789,389.8973,271.0063,397.0441,271.9674,400.68,265.74" style="stroke:#181818;stroke-width:1;"/></g><!--reverse link Aplicacion to Cancion--><g class="link" data-entity-1="Aplicacion" data-entity-2="Cancion" data-source-line="40" data-uid="lnk17" id="link_Aplicacion_Cancion"><path codeLine="40" d="M111.2467,173.5862 C136.0667,214.7462 181.16,289.58 205.97,330.72" fill="none" id="Aplicacion-backto-Cancion" style="stroke:#181818;stroke-width:1;"/><polygon fill="none" points="105.05,163.31,104.7229,170.5137,111.2467,173.5862,111.5738,166.3826,105.05,163.31" style="stroke:#181818;stroke-width:1;"/></g><!--reverse link Aplicacion to Playlist--><g class="link" data-entity-1="Aplicacion" data-entity-2="Playlist" data-source-line="41" data-uid="lnk18" id="link_Aplicacion_Playlist"><path codeLine="41" d="M76.2449,174.009 C68.5849,191.669 62.82,204.94 55.12,222.68" fill="none" id="Aplicacion-backto-Playlist" style="stroke:#181818;stroke-width:1;"/><polygon fill="none" points="81.02,163,74.9628,166.9128,76.2449,174.009,82.3021,170.0962,81.02,163" style="stroke:#181818;stroke-width:1;"/></g><!--reverse link Playlist to Cancion--><g class="link" data-entity-1="Playlist" data-entity-2="Cancion" data-source-line="42" data-uid="lnk19" id="link_Playlist_Cancion"><path codeLine="42" d="M93.2344,277.2162 C122.4944,294.9362 152.49,313.11 181.8,330.86" fill="none" id="Playlist-backto-Cancion" style="stroke:#181818;stroke-width:1;"/><polygon fill="none" points="82.97,271,86.0302,277.5296,93.2344,277.2162,90.1743,270.6866,82.97,271" style="stroke:#181818;stroke-width:1;"/></g><!--reverse link Artista to Gira--><g class="link" data-entity-1="Artista" data-entity-2="Gira" data-source-line="44" data-uid="lnk20" id="link_Artista_Gira"><path codeLine="44" d="M437.6677,169.5146 C467.3377,188.6946 499.03,209.18 526.78,227.11" fill="none" id="Artista-backto-Gira" style="stroke:#181818;stroke-width:1;"/><polygon fill="none" points="427.59,163,430.4573,169.6165,437.6677,169.5146,434.8004,162.8981,427.59,163" style="stroke:#181818;stroke-width:1;"/></g><!--link Usuario to Aplicacion--><g class="link" data-entity-1="Usuario" data-entity-2="Aplicacion" data-source-line="46" data-uid="lnk21" id="link_Usuario_Aplicacion"><path codeLine="46" d="M91,55 C91,72.66 91,90.94 91,108.68" fill="none" id="Usuario-to-Aplicacion" style="stroke:#181818;stroke-width:1;"/><polygon fill="#181818" points="91,114.68,95,105.68,91,109.68,87,105.68,91,114.68" style="stroke:#181818;stroke-width:1;"/></g><!--link Artista to Instrumento--><g class="link" data-entity-1="Artista" data-entity-2="Instrumento" data-source-line="48" data-uid="lnk22" id="link_Artista_Instrumento"><path codeLine="48" d="M359.45,163 C334.38,180.72 304.7708,201.6484 279.6408,219.3984" fill="none" id="Artista-to-Instrumento" style="stroke:#181818;stroke-width:1;stroke-dasharray:7.0,7.0;"/><polygon fill="#181818" points="274.74,222.86,284.3989,220.9349,278.824,219.9754,279.7835,214.4005,274.74,222.86" style="stroke:#181818;stroke-width:1;"/></g><!--SRC=[TP9B3i8W48RtFSMiJUW9J9Ec6kFEZGT0x68I2eR7mbJlBeMqfMNSG38Vy__p0010I6ujtAtd1ZMCLGZ1jufNGkrBek02jQBeJVAtHEl8JEC2uHIwAkkC7thbIC-Egt-6hNpuWGBd9quv9xI2rBoW8KlfTF3gpRwGv7FyCBPHZYmUKUyGy2AmihbpFU7KIn6F1fdL_cr2w_0BhIsQ5n7PiXLQDAjYwc8bypTWhCdqoyowRl8LLZy0]--></g></svg>