<svg xmlns="http://www.w3.org/2000/svg" xmlns:xlink="http://www.w3.org/1999/xlink" contentStyleType="text/css" data-diagram-type="CLASS" height="494px" preserveAspectRatio="none" style="width:496px;height:494px;background:#FFFFFF;" version="1.1" viewBox="0 0 496 494" width="496px" zoomAndPan="magnify"><defs/><g><!--class Usuario--><g class="entity" data-entity="Usuario" data-source-line="2" data-uid="ent0002" id="entity_Usuario"><rect fill="#F1F1F1" height="48" rx="2.5" ry="2.5" style="stroke:#181818;stroke-width:0.5;" width="80.2412" x="90.5" y="7"/><ellipse cx="105.5" cy="23" fill="#ADD1B2" rx="11" ry="11" style="stroke:#181818;stroke-width:1;"/><path d="M108.2656,18.875 Q108.4219,18.6563 108.6094,18.5469 Q108.7969,18.4375 109.0156,18.4375 Q109.3906,18.4375 109.625,18.6953 Q109.8594,18.9531 109.8594,19.5625 L109.8594,21.0156 Q109.8594,21.625 109.625,21.8906 Q109.3906,22.1563 109.0156,22.1563 Q108.6719,22.1563 108.4688,21.9531 Q108.2656,21.7656 108.1563,21.25 Q108.1094,20.8906 107.9219,20.7031 Q107.5938,20.3281 106.9844,20.1094 Q106.375,19.8906 105.75,19.8906 Q104.9844,19.8906 104.3516,20.2188 Q103.7188,20.5469 103.2266,21.2969 Q102.7344,22.0469 102.7344,23.0781 L102.7344,24.1719 Q102.7344,25.4063 103.625,26.2266 Q104.5156,27.0469 106.1094,27.0469 Q107.0469,27.0469 107.7031,26.7969 Q108.0938,26.6406 108.5156,26.2031 Q108.7813,25.9375 108.9297,25.8594 Q109.0781,25.7813 109.2813,25.7813 Q109.6094,25.7813 109.8672,26.0391 Q110.125,26.2969 110.125,26.6406 Q110.125,26.9844 109.7813,27.3906 Q109.2813,27.9688 108.4844,28.2969 Q107.4063,28.75 106.1094,28.75 Q104.5938,28.75 103.3906,28.125 Q102.4063,27.625 101.7188,26.5547 Q101.0313,25.4844 101.0313,24.2031 L101.0313,23.0469 Q101.0313,21.7188 101.6484,20.5703 Q102.2656,19.4219 103.3594,18.8047 Q104.4531,18.1875 105.6875,18.1875 Q106.4219,18.1875 107.0703,18.3516 Q107.7188,18.5156 108.2656,18.875 Z " fill="#000000"/><text fill="#000000" font-family="sans-serif" font-size="14" lengthAdjust="spacing" textLength="48.2412" x="119.5" y="28.7285">Usuario</text><line style="stroke:#181818;stroke-width:0.5;" x1="91.5" x2="169.7412" y1="39" y2="39"/><line style="stroke:#181818;stroke-width:0.5;" x1="91.5" x2="169.7412" y1="47" y2="47"/></g><!--class Aplicaci?n--><g class="entity" data-entity="Aplicaci&#243;n" data-source-line="5" data-uid="ent0003" id="entity_Aplicaci&#243;n"><rect fill="#F1F1F1" height="48" rx="2.5" ry="2.5" style="stroke:#181818;stroke-width:0.5;" width="95.8135" x="82.5" y="115"/><ellipse cx="97.5" cy="131" fill="#ADD1B2" rx="11" ry="11" style="stroke:#181818;stroke-width:1;"/><path d="M100.2656,126.875 Q100.4219,126.6563 100.6094,126.5469 Q100.7969,126.4375 101.0156,126.4375 Q101.3906,126.4375 101.625,126.6953 Q101.8594,126.9531 101.8594,127.5625 L101.8594,129.0156 Q101.8594,129.625 101.625,129.8906 Q101.3906,130.1563 101.0156,130.1563 Q100.6719,130.1563 100.4688,129.9531 Q100.2656,129.7656 100.1563,129.25 Q100.1094,128.8906 99.9219,128.7031 Q99.5938,128.3281 98.9844,128.1094 Q98.375,127.8906 97.75,127.8906 Q96.9844,127.8906 96.3516,128.2188 Q95.7188,128.5469 95.2266,129.2969 Q94.7344,130.0469 94.7344,131.0781 L94.7344,132.1719 Q94.7344,133.4063 95.625,134.2266 Q96.5156,135.0469 98.1094,135.0469 Q99.0469,135.0469 99.7031,134.7969 Q100.0938,134.6406 100.5156,134.2031 Q100.7813,133.9375 100.9297,133.8594 Q101.0781,133.7813 101.2813,133.7813 Q101.6094,133.7813 101.8672,134.0391 Q102.125,134.2969 102.125,134.6406 Q102.125,134.9844 101.7813,135.3906 Q101.2813,135.9688 100.4844,136.2969 Q99.4063,136.75 98.1094,136.75 Q96.5938,136.75 95.3906,136.125 Q94.4063,135.625 93.7188,134.5547 Q93.0313,133.4844 93.0313,132.2031 L93.0313,131.0469 Q93.0313,129.7188 93.6484,128.5703 Q94.2656,127.4219 95.3594,126.8047 Q96.4531,126.1875 97.6875,126.1875 Q98.4219,126.1875 99.0703,126.3516 Q99.7188,126.5156 100.2656,126.875 Z " fill="#000000"/><text fill="#000000" font-family="sans-serif" font-size="14" lengthAdjust="spacing" textLength="63.8135" x="111.5" y="136.7285">Aplicaci&#243;n</text><line style="stroke:#181818;stroke-width:0.5;" x1="83.5" x2="177.3135" y1="147" y2="147"/><line style="stroke:#181818;stroke-width:0.5;" x1="83.5" x2="177.3135" y1="155" y2="155"/></g><!--class Artista--><g class="entity" data-entity="Artista" data-source-line="8" data-uid="ent0004" id="entity_Artista"><rect fill="#F1F1F1" height="48" rx="2.5" ry="2.5" style="stroke:#181818;stroke-width:0.5;" width="71.6758" x="290.5" y="223"/><ellipse cx="305.5" cy="239" fill="#ADD1B2" rx="11" ry="11" style="stroke:#181818;stroke-width:1;"/><path d="M308.2656,234.875 Q308.4219,234.6563 308.6094,234.5469 Q308.7969,234.4375 309.0156,234.4375 Q309.3906,234.4375 309.625,234.6953 Q309.8594,234.9531 309.8594,235.5625 L309.8594,237.0156 Q309.8594,237.625 309.625,237.8906 Q309.3906,238.1563 309.0156,238.1563 Q308.6719,238.1563 308.4688,237.9531 Q308.2656,237.7656 308.1563,237.25 Q308.1094,236.8906 307.9219,236.7031 Q307.5938,236.3281 306.9844,236.1094 Q306.375,235.8906 305.75,235.8906 Q304.9844,235.8906 304.3516,236.2188 Q303.7188,236.5469 303.2266,237.2969 Q302.7344,238.0469 302.7344,239.0781 L302.7344,240.1719 Q302.7344,241.4063 303.625,242.2266 Q304.5156,243.0469 306.1094,243.0469 Q307.0469,243.0469 307.7031,242.7969 Q308.0938,242.6406 308.5156,242.2031 Q308.7813,241.9375 308.9297,241.8594 Q309.0781,241.7813 309.2813,241.7813 Q309.6094,241.7813 309.8672,242.0391 Q310.125,242.2969 310.125,242.6406 Q310.125,242.9844 309.7813,243.3906 Q309.2813,243.9688 308.4844,244.2969 Q307.4063,244.75 306.1094,244.75 Q304.5938,244.75 303.3906,244.125 Q302.4063,243.625 301.7188,242.5547 Q301.0313,241.4844 301.0313,240.2031 L301.0313,239.0469 Q301.0313,237.7188 301.6484,236.5703 Q302.2656,235.4219 303.3594,234.8047 Q304.4531,234.1875 305.6875,234.1875 Q306.4219,234.1875 307.0703,234.3516 Q307.7188,234.5156 308.2656,234.875 Z " fill="#000000"/><text fill="#000000" font-family="sans-serif" font-size="14" lengthAdjust="spacing" textLength="39.6758" x="319.5" y="244.7285">Artista</text><line style="stroke:#181818;stroke-width:0.5;" x1="291.5" x2="361.1758" y1="255" y2="255"/><line style="stroke:#181818;stroke-width:0.5;" x1="291.5" x2="361.1758" y1="263" y2="263"/></g><!--class Instrumento--><g class="entity" data-entity="Instrumento" data-source-line="11" data-uid="ent0005" id="entity_Instrumento"><rect fill="#F1F1F1" height="48" rx="2.5" ry="2.5" style="stroke:#181818;stroke-width:0.5;" width="105.9238" x="273.5" y="331"/><ellipse cx="288.5" cy="347" fill="#ADD1B2" rx="11" ry="11" style="stroke:#181818;stroke-width:1;"/><path d="M291.2656,342.875 Q291.4219,342.6563 291.6094,342.5469 Q291.7969,342.4375 292.0156,342.4375 Q292.3906,342.4375 292.625,342.6953 Q292.8594,342.9531 292.8594,343.5625 L292.8594,345.0156 Q292.8594,345.625 292.625,345.8906 Q292.3906,346.1563 292.0156,346.1563 Q291.6719,346.1563 291.4688,345.9531 Q291.2656,345.7656 291.1563,345.25 Q291.1094,344.8906 290.9219,344.7031 Q290.5938,344.3281 289.9844,344.1094 Q289.375,343.8906 288.75,343.8906 Q287.9844,343.8906 287.3516,344.2188 Q286.7188,344.5469 286.2266,345.2969 Q285.7344,346.0469 285.7344,347.0781 L285.7344,348.1719 Q285.7344,349.4063 286.625,350.2266 Q287.5156,351.0469 289.1094,351.0469 Q290.0469,351.0469 290.7031,350.7969 Q291.0938,350.6406 291.5156,350.2031 Q291.7813,349.9375 291.9297,349.8594 Q292.0781,349.7813 292.2813,349.7813 Q292.6094,349.7813 292.8672,350.0391 Q293.125,350.2969 293.125,350.6406 Q293.125,350.9844 292.7813,351.3906 Q292.2813,351.9688 291.4844,352.2969 Q290.4063,352.75 289.1094,352.75 Q287.5938,352.75 286.3906,352.125 Q285.4063,351.625 284.7188,350.5547 Q284.0313,349.4844 284.0313,348.2031 L284.0313,347.0469 Q284.0313,345.7188 284.6484,344.5703 Q285.2656,343.4219 286.3594,342.8047 Q287.4531,342.1875 288.6875,342.1875 Q289.4219,342.1875 290.0703,342.3516 Q290.7188,342.5156 291.2656,342.875 Z " fill="#000000"/><text fill="#000000" font-family="sans-serif" font-size="14" lengthAdjust="spacing" textLength="73.9238" x="302.5" y="352.7285">Instrumento</text><line style="stroke:#181818;stroke-width:0.5;" x1="274.5" x2="378.4238" y1="363" y2="363"/><line style="stroke:#181818;stroke-width:0.5;" x1="274.5" x2="378.4238" y1="371" y2="371"/></g><!--class Cancion--><g class="entity" data-entity="Cancion" data-source-line="14" data-uid="ent0006" id="entity_Cancion"><rect fill="#F1F1F1" height="48" rx="2.5" ry="2.5" style="stroke:#181818;stroke-width:0.5;" width="83.3652" x="155" y="331"/><ellipse cx="170" cy="347" fill="#ADD1B2" rx="11" ry="11" style="stroke:#181818;stroke-width:1;"/><path d="M172.7656,342.875 Q172.9219,342.6563 173.1094,342.5469 Q173.2969,342.4375 173.5156,342.4375 Q173.8906,342.4375 174.125,342.6953 Q174.3594,342.9531 174.3594,343.5625 L174.3594,345.0156 Q174.3594,345.625 174.125,345.8906 Q173.8906,346.1563 173.5156,346.1563 Q173.1719,346.1563 172.9688,345.9531 Q172.7656,345.7656 172.6563,345.25 Q172.6094,344.8906 172.4219,344.7031 Q172.0938,344.3281 171.4844,344.1094 Q170.875,343.8906 170.25,343.8906 Q169.4844,343.8906 168.8516,344.2188 Q168.2188,344.5469 167.7266,345.2969 Q167.2344,346.0469 167.2344,347.0781 L167.2344,348.1719 Q167.2344,349.4063 168.125,350.2266 Q169.0156,351.0469 170.6094,351.0469 Q171.5469,351.0469 172.2031,350.7969 Q172.5938,350.6406 173.0156,350.2031 Q173.2813,349.9375 173.4297,349.8594 Q173.5781,349.7813 173.7813,349.7813 Q174.1094,349.7813 174.3672,350.0391 Q174.625,350.2969 174.625,350.6406 Q174.625,350.9844 174.2813,351.3906 Q173.7813,351.9688 172.9844,352.2969 Q171.9063,352.75 170.6094,352.75 Q169.0938,352.75 167.8906,352.125 Q166.9063,351.625 166.2188,350.5547 Q165.5313,349.4844 165.5313,348.2031 L165.5313,347.0469 Q165.5313,345.7188 166.1484,344.5703 Q166.7656,343.4219 167.8594,342.8047 Q168.9531,342.1875 170.1875,342.1875 Q170.9219,342.1875 171.5703,342.3516 Q172.2188,342.5156 172.7656,342.875 Z " fill="#000000"/><text fill="#000000" font-family="sans-serif" font-size="14" lengthAdjust="spacing" textLength="51.3652" x="184" y="352.7285">Cancion</text><line style="stroke:#181818;stroke-width:0.5;" x1="156" x2="237.3652" y1="363" y2="363"/><line style="stroke:#181818;stroke-width:0.5;" x1="156" x2="237.3652" y1="371" y2="371"/></g><!--class Album--><g class="entity" data-entity="Album" data-source-line="17" data-uid="ent0007" id="entity_Album"><rect fill="#F1F1F1" height="48" rx="2.5" ry="2.5" style="stroke:#181818;stroke-width:0.5;" width="71.6826" x="94.5" y="223"/><ellipse cx="109.5" cy="239" fill="#ADD1B2" rx="11" ry="11" style="stroke:#181818;stroke-width:1;"/><path d="M112.2656,234.875 Q112.4219,234.6563 112.6094,234.5469 Q112.7969,234.4375 113.0156,234.4375 Q113.3906,234.4375 113.625,234.6953 Q113.8594,234.9531 113.8594,235.5625 L113.8594,237.0156 Q113.8594,237.625 113.625,237.8906 Q113.3906,238.1563 113.0156,238.1563 Q112.6719,238.1563 112.4688,237.9531 Q112.2656,237.7656 112.1563,237.25 Q112.1094,236.8906 111.9219,236.7031 Q111.5938,236.3281 110.9844,236.1094 Q110.375,235.8906 109.75,235.8906 Q108.9844,235.8906 108.3516,236.2188 Q107.7188,236.5469 107.2266,237.2969 Q106.7344,238.0469 106.7344,239.0781 L106.7344,240.1719 Q106.7344,241.4063 107.625,242.2266 Q108.5156,243.0469 110.1094,243.0469 Q111.0469,243.0469 111.7031,242.7969 Q112.0938,242.6406 112.5156,242.2031 Q112.7813,241.9375 112.9297,241.8594 Q113.0781,241.7813 113.2813,241.7813 Q113.6094,241.7813 113.8672,242.0391 Q114.125,242.2969 114.125,242.6406 Q114.125,242.9844 113.7813,243.3906 Q113.2813,243.9688 112.4844,244.2969 Q111.4063,244.75 110.1094,244.75 Q108.5938,244.75 107.3906,244.125 Q106.4063,243.625 105.7188,242.5547 Q105.0313,241.4844 105.0313,240.2031 L105.0313,239.0469 Q105.0313,237.7188 105.6484,236.5703 Q106.2656,235.4219 107.3594,234.8047 Q108.4531,234.1875 109.6875,234.1875 Q110.4219,234.1875 111.0703,234.3516 Q111.7188,234.5156 112.2656,234.875 Z " fill="#000000"/><text fill="#000000" font-family="sans-serif" font-size="14" lengthAdjust="spacing" textLength="39.6826" x="123.5" y="244.7285">Album</text><line style="stroke:#181818;stroke-width:0.5;" x1="95.5" x2="165.1826" y1="255" y2="255"/><line style="stroke:#181818;stroke-width:0.5;" x1="95.5" x2="165.1826" y1="263" y2="263"/></g><!--class EdicionDisco--><g class="entity" data-entity="EdicionDisco" data-source-line="20" data-uid="ent0008" id="entity_EdicionDisco"><rect fill="#F1F1F1" height="48" rx="2.5" ry="2.5" style="stroke:#181818;stroke-width:0.5;" width="112.9238" x="7" y="331"/><ellipse cx="22" cy="347" fill="#ADD1B2" rx="11" ry="11" style="stroke:#181818;stroke-width:1;"/><path d="M24.7656,342.875 Q24.9219,342.6563 25.1094,342.5469 Q25.2969,342.4375 25.5156,342.4375 Q25.8906,342.4375 26.125,342.6953 Q26.3594,342.9531 26.3594,343.5625 L26.3594,345.0156 Q26.3594,345.625 26.125,345.8906 Q25.8906,346.1563 25.5156,346.1563 Q25.1719,346.1563 24.9688,345.9531 Q24.7656,345.7656 24.6563,345.25 Q24.6094,344.8906 24.4219,344.7031 Q24.0938,344.3281 23.4844,344.1094 Q22.875,343.8906 22.25,343.8906 Q21.4844,343.8906 20.8516,344.2188 Q20.2188,344.5469 19.7266,345.2969 Q19.2344,346.0469 19.2344,347.0781 L19.2344,348.1719 Q19.2344,349.4063 20.125,350.2266 Q21.0156,351.0469 22.6094,351.0469 Q23.5469,351.0469 24.2031,350.7969 Q24.5938,350.6406 25.0156,350.2031 Q25.2813,349.9375 25.4297,349.8594 Q25.5781,349.7813 25.7813,349.7813 Q26.1094,349.7813 26.3672,350.0391 Q26.625,350.2969 26.625,350.6406 Q26.625,350.9844 26.2813,351.3906 Q25.7813,351.9688 24.9844,352.2969 Q23.9063,352.75 22.6094,352.75 Q21.0938,352.75 19.8906,352.125 Q18.9063,351.625 18.2188,350.5547 Q17.5313,349.4844 17.5313,348.2031 L17.5313,347.0469 Q17.5313,345.7188 18.1484,344.5703 Q18.7656,343.4219 19.8594,342.8047 Q20.9531,342.1875 22.1875,342.1875 Q22.9219,342.1875 23.5703,342.3516 Q24.2188,342.5156 24.7656,342.875 Z " fill="#000000"/><text fill="#000000" font-family="sans-serif" font-size="14" lengthAdjust="spacing" textLength="80.9238" x="36" y="352.7285">EdicionDisco</text><line style="stroke:#181818;stroke-width:0.5;" x1="8" x2="118.9238" y1="363" y2="363"/><line style="stroke:#181818;stroke-width:0.5;" x1="8" x2="118.9238" y1="371" y2="371"/></g><!--class Gira--><g class="entity" data-entity="Gira" data-source-line="23" data-uid="ent0009" id="entity_Gira"><rect fill="#F1F1F1" height="48" rx="2.5" ry="2.5" style="stroke:#181818;stroke-width:0.5;" width="58.4482" x="414.5" y="331"/><ellipse cx="429.5" cy="347" fill="#ADD1B2" rx="11" ry="11" style="stroke:#181818;stroke-width:1;"/><path d="M432.2656,342.875 Q432.4219,342.6563 432.6094,342.5469 Q432.7969,342.4375 433.0156,342.4375 Q433.3906,342.4375 433.625,342.6953 Q433.8594,342.9531 433.8594,343.5625 L433.8594,345.0156 Q433.8594,345.625 433.625,345.8906 Q433.3906,346.1563 433.0156,346.1563 Q432.6719,346.1563 432.4688,345.9531 Q432.2656,345.7656 432.1563,345.25 Q432.1094,344.8906 431.9219,344.7031 Q431.5938,344.3281 430.9844,344.1094 Q430.375,343.8906 429.75,343.8906 Q428.9844,343.8906 428.3516,344.2188 Q427.7188,344.5469 427.2266,345.2969 Q426.7344,346.0469 426.7344,347.0781 L426.7344,348.1719 Q426.7344,349.4063 427.625,350.2266 Q428.5156,351.0469 430.1094,351.0469 Q431.0469,351.0469 431.7031,350.7969 Q432.0938,350.6406 432.5156,350.2031 Q432.7813,349.9375 432.9297,349.8594 Q433.0781,349.7813 433.2813,349.7813 Q433.6094,349.7813 433.8672,350.0391 Q434.125,350.2969 434.125,350.6406 Q434.125,350.9844 433.7813,351.3906 Q433.2813,351.9688 432.4844,352.2969 Q431.4063,352.75 430.1094,352.75 Q428.5938,352.75 427.3906,352.125 Q426.4063,351.625 425.7188,350.5547 Q425.0313,349.4844 425.0313,348.2031 L425.0313,347.0469 Q425.0313,345.7188 425.6484,344.5703 Q426.2656,343.4219 427.3594,342.8047 Q428.4531,342.1875 429.6875,342.1875 Q430.4219,342.1875 431.0703,342.3516 Q431.7188,342.5156 432.2656,342.875 Z " fill="#000000"/><text fill="#000000" font-family="sans-serif" font-size="14" lengthAdjust="spacing" textLength="26.4482" x="443.5" y="352.7285">Gira</text><line style="stroke:#181818;stroke-width:0.5;" x1="415.5" x2="471.9482" y1="363" y2="363"/><line style="stroke:#181818;stroke-width:0.5;" x1="415.5" x2="471.9482" y1="371" y2="371"/></g><!--class Concierto--><g class="entity" data-entity="Concierto" data-source-line="26" data-uid="ent0010" id="entity_Concierto"><rect fill="#F1F1F1" height="48" rx="2.5" ry="2.5" style="stroke:#181818;stroke-width:0.5;" width="91.917" x="397.5" y="439"/><ellipse cx="412.5" cy="455" fill="#ADD1B2" rx="11" ry="11" style="stroke:#181818;stroke-width:1;"/><path d="M415.2656,450.875 Q415.4219,450.6563 415.6094,450.5469 Q415.7969,450.4375 416.0156,450.4375 Q416.3906,450.4375 416.625,450.6953 Q416.8594,450.9531 416.8594,451.5625 L416.8594,453.0156 Q416.8594,453.625 416.625,453.8906 Q416.3906,454.1563 416.0156,454.1563 Q415.6719,454.1563 415.4688,453.9531 Q415.2656,453.7656 415.1563,453.25 Q415.1094,452.8906 414.9219,452.7031 Q414.5938,452.3281 413.9844,452.1094 Q413.375,451.8906 412.75,451.8906 Q411.9844,451.8906 411.3516,452.2188 Q410.7188,452.5469 410.2266,453.2969 Q409.7344,454.0469 409.7344,455.0781 L409.7344,456.1719 Q409.7344,457.4063 410.625,458.2266 Q411.5156,459.0469 413.1094,459.0469 Q414.0469,459.0469 414.7031,458.7969 Q415.0938,458.6406 415.5156,458.2031 Q415.7813,457.9375 415.9297,457.8594 Q416.0781,457.7813 416.2813,457.7813 Q416.6094,457.7813 416.8672,458.0391 Q417.125,458.2969 417.125,458.6406 Q417.125,458.9844 416.7813,459.3906 Q416.2813,459.9688 415.4844,460.2969 Q414.4063,460.75 413.1094,460.75 Q411.5938,460.75 410.3906,460.125 Q409.4063,459.625 408.7188,458.5547 Q408.0313,457.4844 408.0313,456.2031 L408.0313,455.0469 Q408.0313,453.7188 408.6484,452.5703 Q409.2656,451.4219 410.3594,450.8047 Q411.4531,450.1875 412.6875,450.1875 Q413.4219,450.1875 414.0703,450.3516 Q414.7188,450.5156 415.2656,450.875 Z " fill="#000000"/><text fill="#000000" font-family="sans-serif" font-size="14" lengthAdjust="spacing" textLength="59.917" x="426.5" y="460.7285">Concierto</text><line style="stroke:#181818;stroke-width:0.5;" x1="398.5" x2="488.417" y1="471" y2="471"/><line style="stroke:#181818;stroke-width:0.5;" x1="398.5" x2="488.417" y1="479" y2="479"/></g><!--reverse link Album to EdicionDisco--><g class="link" data-entity-1="Album" data-entity-2="EdicionDisco" data-source-line="29" data-uid="lnk11" id="link_Album_EdicionDisco"><path codeLine="29" d="M106.3442,286.2163 C95.1842,303.8763 89.45,312.94 78.24,330.68" fill="none" id="Album-backto-EdicionDisco" style="stroke:#181818;stroke-width:1;"/><polygon fill="none" points="115.96,271,101.2721,283.0111,111.4164,289.4216,115.96,271" style="stroke:#181818;stroke-width:1;"/></g><!--reverse link Gira to Concierto--><g class="link" data-entity-1="Gira" data-entity-2="Concierto" data-source-line="31" data-uid="lnk12" id="link_Gira_Concierto"><path codeLine="31" d="M443.5,391 C443.5,408.66 443.5,420.94 443.5,438.68" fill="none" id="Gira-backto-Concierto" style="stroke:#181818;stroke-width:1;"/><polygon fill="#181818" points="443.5,379,439.5,385,443.5,391,447.5,385,443.5,379" style="stroke:#181818;stroke-width:1;"/></g><!--reverse link Artista to Cancion--><g class="link" data-entity-1="Artista" data-entity-2="Cancion" data-source-line="33" data-uid="lnk13" id="link_Artista_Cancion"><path codeLine="33" d="M288.9912,278.585 C267.3412,296.245 246.86,312.94 225.1,330.68" fill="none" id="Artista-backto-Cancion" style="stroke:#181818;stroke-width:1;"/><polygon fill="none" points="298.29,271,291.1123,271.6929,288.9912,278.585,296.169,277.8921,298.29,271" style="stroke:#181818;stroke-width:1;"/></g><!--reverse link Artista to Gira--><g class="link" data-entity-1="Artista" data-entity-2="Gira" data-source-line="34" data-uid="lnk14" id="link_Artista_Gira"><path codeLine="34" d="M360.7825,279.0575 C380.2725,296.7175 398.18,312.94 417.76,330.68" fill="none" id="Artista-backto-Gira" style="stroke:#181818;stroke-width:1;"/><polygon fill="none" points="351.89,271,353.6504,277.9929,360.7825,279.0575,359.0221,272.0646,351.89,271" style="stroke:#181818;stroke-width:1;"/></g><!--reverse link Album to Cancion--><g class="link" data-entity-1="Album" data-entity-2="Cancion" data-source-line="35" data-uid="lnk15" id="link_Album_Cancion"><path codeLine="35" d="M151.1644,281.1857 C162.1644,298.8457 170.93,312.94 181.98,330.68" fill="none" id="Album-backto-Cancion" style="stroke:#181818;stroke-width:1;"/><polygon fill="none" points="144.82,271,144.597,278.2077,151.1644,281.1857,151.3874,273.978,144.82,271" style="stroke:#181818;stroke-width:1;"/></g><!--reverse link Aplicaci?n to Album--><g class="link" data-entity-1="Aplicaci&#243;n" data-entity-2="Album" data-source-line="36" data-uid="lnk16" id="link_Aplicaci&#243;n_Album"><path codeLine="36" d="M130.5,175 C130.5,192.66 130.5,204.94 130.5,222.68" fill="none" id="Aplicaci&#243;n-backto-Album" style="stroke:#181818;stroke-width:1;"/><polygon fill="none" points="130.5,163,126.5,169,130.5,175,134.5,169,130.5,163" style="stroke:#181818;stroke-width:1;"/></g><!--link Usuario to Aplicaci?n--><g class="link" data-entity-1="Usuario" data-entity-2="Aplicaci&#243;n" data-source-line="38" data-uid="lnk17" id="link_Usuario_Aplicaci&#243;n"><path codeLine="38" d="M130.5,55 C130.5,72.66 130.5,90.94 130.5,108.68" fill="none" id="Usuario-to-Aplicaci&#243;n" style="stroke:#181818;stroke-width:1;"/><polygon fill="#181818" points="130.5,114.68,134.5,105.68,130.5,109.68,126.5,105.68,130.5,114.68" style="stroke:#181818;stroke-width:1;"/></g><!--link Artista to Instrumento--><g class="link" data-entity-1="Artista" data-entity-2="Instrumento" data-source-line="39" data-uid="lnk18" id="link_Artista_Instrumento"><path codeLine="39" d="M326.5,271 C326.5,288.66 326.5,306.94 326.5,324.68" fill="none" id="Artista-to-Instrumento" style="stroke:#181818;stroke-width:1;stroke-dasharray:7.0,7.0;"/><polygon fill="#181818" points="326.5,330.68,330.5,321.68,326.5,325.68,322.5,321.68,326.5,330.68" style="stroke:#181818;stroke-width:1;"/></g><!--SRC=[Kr1GK4ZEIImkLWWjBaqioinNgEO22YdKSe4fY9HZGKvcSc9ovk7DULYbYqeoYqiIiKbvvXMN59NcfkQLO3NOEJ4lEJCVkw4vIQMvs2HSKp91UbmoYvEnckcUMOJLASxvGBjIYz0T0h77faPN5yLai1oO09kd1PI66u2GW_ay7oGDyGk6E4W_aaqOIf725YG7LeMm0HOhkhfso4fHRD7JiqCEQ2u0]--></g></svg>