<svg xmlns="http://www.w3.org/2000/svg" xmlns:xlink="http://www.w3.org/1999/xlink" contentStyleType="text/css" data-diagram-type="CLASS" height="715px" preserveAspectRatio="none" style="width:713px;height:715px;background:#FFFFFF;" version="1.1" viewBox="0 0 713 715" width="713px" zoomAndPan="magnify"><defs/><g><!--class TipoSuscripcion--><g class="entity" data-qualified-name="TipoSuscripcion" data-source-line="13" id="ent0002"><rect fill="#FFFFFF" height="32" rx="2.5" ry="2.5" style="stroke:#000000;stroke-width:0.5;" width="142.2021" x="37.76" y="225"/><ellipse cx="52.76" cy="241" fill="#EB937F" rx="11" ry="11" style="stroke:#181818;stroke-width:1;"/><path d="M56.8694,247 L49.1506,247 L49.1506,234.6094 L56.8694,234.6094 L56.8694,236.7656 L51.6038,236.7656 L51.6038,239.4375 L56.3694,239.4375 L56.3694,241.5938 L51.6038,241.5938 L51.6038,244.8438 L56.8694,244.8438 L56.8694,247 Z " fill="#000000"/><text fill="#000000" font-family="sans-serif" font-size="14" lengthAdjust="spacing" textLength="110.2021" x="66.76" y="245.8467">TipoSuscripcion</text></g><!--class TipoAlbum--><g class="entity" data-qualified-name="TipoAlbum" data-source-line="14" id="ent0003"><rect fill="#FFFFFF" height="32" rx="2.5" ry="2.5" style="stroke:#000000;stroke-width:0.5;" width="106.7578" x="599.48" y="458"/><ellipse cx="614.48" cy="474" fill="#EB937F" rx="11" ry="11" style="stroke:#181818;stroke-width:1;"/><path d="M618.5894,480 L610.8706,480 L610.8706,467.6094 L618.5894,467.6094 L618.5894,469.7656 L613.3238,469.7656 L613.3238,472.4375 L618.0894,472.4375 L618.0894,474.5938 L613.3238,474.5938 L613.3238,477.8438 L618.5894,477.8438 L618.5894,480 Z " fill="#000000"/><text fill="#000000" font-family="sans-serif" font-size="14" lengthAdjust="spacing" textLength="74.7578" x="628.48" y="478.8467">TipoAlbum</text></g><!--class FamiliaInstrumento--><g class="entity" data-qualified-name="FamiliaInstrumento" data-source-line="15" id="ent0004"><rect fill="#FFFFFF" height="32" rx="2.5" ry="2.5" style="stroke:#000000;stroke-width:0.5;" width="168.1104" x="244.8" y="676"/><ellipse cx="259.8" cy="692" fill="#EB937F" rx="11" ry="11" style="stroke:#181818;stroke-width:1;"/><path d="M263.9094,698 L256.1906,698 L256.1906,685.6094 L263.9094,685.6094 L263.9094,687.7656 L258.6438,687.7656 L258.6438,690.4375 L263.4094,690.4375 L263.4094,692.5938 L258.6438,692.5938 L258.6438,695.8438 L263.9094,695.8438 L263.9094,698 Z " fill="#000000"/><text fill="#000000" font-family="sans-serif" font-size="14" lengthAdjust="spacing" textLength="136.1104" x="273.8" y="696.8467">FamiliaInstrumento</text></g><!--class Plataforma--><g class="entity" data-qualified-name="Plataforma" data-source-line="20" id="ent0005"><rect fill="#FFFFFF" height="32" rx="2.5" ry="2.5" style="stroke:#000000;stroke-width:0.5;" width="108.4463" x="341.63" y="7"/><ellipse cx="356.63" cy="23" fill="#ADD1B2" rx="11" ry="11" style="stroke:#181818;stroke-width:1;"/><path d="M359.5988,28.6406 Q359.0206,28.9375 358.38,29.0781 Q357.7394,29.2344 357.0363,29.2344 Q354.5363,29.2344 353.2081,27.5938 Q351.8956,25.9375 351.8956,22.8125 Q351.8956,19.6875 353.2081,18.0313 Q354.5363,16.375 357.0363,16.375 Q357.7394,16.375 358.38,16.5313 Q359.0363,16.6875 359.5988,16.9844 L359.5988,19.7031 Q358.9738,19.125 358.38,18.8594 Q357.7863,18.5781 357.1613,18.5781 Q355.8175,18.5781 355.13,19.6563 Q354.4425,20.7188 354.4425,22.8125 Q354.4425,24.9063 355.13,25.9844 Q355.8175,27.0469 357.1613,27.0469 Q357.7863,27.0469 358.38,26.7813 Q358.9738,26.5 359.5988,25.9219 L359.5988,28.6406 Z " fill="#000000"/><text fill="#000000" font-family="sans-serif" font-size="14" lengthAdjust="spacing" textLength="76.4463" x="370.63" y="27.8467">Plataforma</text></g><!--class Usuario--><g class="entity" data-qualified-name="Usuario" data-source-line="21" id="ent0006"><rect fill="#FFFFFF" height="32" rx="2.5" ry="2.5" style="stroke:#000000;stroke-width:0.5;" width="85.2041" x="106.25" y="116"/><ellipse cx="121.25" cy="132" fill="#ADD1B2" rx="11" ry="11" style="stroke:#181818;stroke-width:1;"/><path d="M124.2188,137.6406 Q123.6406,137.9375 123,138.0781 Q122.3594,138.2344 121.6563,138.2344 Q119.1563,138.2344 117.8281,136.5938 Q116.5156,134.9375 116.5156,131.8125 Q116.5156,128.6875 117.8281,127.0313 Q119.1563,125.375 121.6563,125.375 Q122.3594,125.375 123,125.5313 Q123.6563,125.6875 124.2188,125.9844 L124.2188,128.7031 Q123.5938,128.125 123,127.8594 Q122.4063,127.5781 121.7813,127.5781 Q120.4375,127.5781 119.75,128.6563 Q119.0625,129.7188 119.0625,131.8125 Q119.0625,133.9063 119.75,134.9844 Q120.4375,136.0469 121.7813,136.0469 Q122.4063,136.0469 123,135.7813 Q123.5938,135.5 124.2188,134.9219 L124.2188,137.6406 Z " fill="#000000"/><text fill="#000000" font-family="sans-serif" font-size="14" lengthAdjust="spacing" textLength="53.2041" x="135.25" y="136.8467">Usuario</text></g><!--class Artista--><g class="entity" data-qualified-name="Artista" data-source-line="22" id="ent0007"><rect fill="#FFFFFF" height="32" rx="2.5" ry="2.5" style="stroke:#000000;stroke-width:0.5;" width="78.0742" x="472.82" y="225"/><ellipse cx="487.82" cy="241" fill="#ADD1B2" rx="11" ry="11" style="stroke:#181818;stroke-width:1;"/><path d="M490.7888,246.6406 Q490.2106,246.9375 489.57,247.0781 Q488.9294,247.2344 488.2263,247.2344 Q485.7263,247.2344 484.3981,245.5938 Q483.0856,243.9375 483.0856,240.8125 Q483.0856,237.6875 484.3981,236.0313 Q485.7263,234.375 488.2263,234.375 Q488.9294,234.375 489.57,234.5313 Q490.2263,234.6875 490.7888,234.9844 L490.7888,237.7031 Q490.1638,237.125 489.57,236.8594 Q488.9763,236.5781 488.3513,236.5781 Q487.0075,236.5781 486.32,237.6563 Q485.6325,238.7188 485.6325,240.8125 Q485.6325,242.9063 486.32,243.9844 Q487.0075,245.0469 488.3513,245.0469 Q488.9763,245.0469 489.57,244.7813 Q490.1638,244.5 490.7888,243.9219 L490.7888,246.6406 Z " fill="#000000"/><text fill="#000000" font-family="sans-serif" font-size="14" lengthAdjust="spacing" textLength="46.0742" x="501.82" y="245.8467">Artista</text></g><!--class Album--><g class="entity" data-qualified-name="Album" data-source-line="23" id="ent0008"><rect fill="#FFFFFF" height="32" rx="2.5" ry="2.5" style="stroke:#000000;stroke-width:0.5;" width="76.8643" x="597.42" y="349"/><ellipse cx="612.42" cy="365" fill="#ADD1B2" rx="11" ry="11" style="stroke:#181818;stroke-width:1;"/><path d="M615.3888,370.6406 Q614.8106,370.9375 614.17,371.0781 Q613.5294,371.2344 612.8263,371.2344 Q610.3263,371.2344 608.9981,369.5938 Q607.6856,367.9375 607.6856,364.8125 Q607.6856,361.6875 608.9981,360.0313 Q610.3263,358.375 612.8263,358.375 Q613.5294,358.375 614.17,358.5313 Q614.8263,358.6875 615.3888,358.9844 L615.3888,361.7031 Q614.7638,361.125 614.17,360.8594 Q613.5763,360.5781 612.9513,360.5781 Q611.6075,360.5781 610.92,361.6563 Q610.2325,362.7188 610.2325,364.8125 Q610.2325,366.9063 610.92,367.9844 Q611.6075,369.0469 612.9513,369.0469 Q613.5763,369.0469 614.17,368.7813 Q614.7638,368.5 615.3888,367.9219 L615.3888,370.6406 Z " fill="#000000"/><text fill="#000000" font-family="sans-serif" font-size="14" lengthAdjust="spacing" textLength="44.8643" x="626.42" y="369.8467">Album</text></g><!--class Cancion--><g class="entity" data-qualified-name="Cancion" data-source-line="24" id="ent0009"><rect fill="#FFFFFF" height="32" rx="2.5" ry="2.5" style="stroke:#000000;stroke-width:0.5;" width="88.2529" x="351.73" y="458"/><ellipse cx="366.73" cy="474" fill="#ADD1B2" rx="11" ry="11" style="stroke:#181818;stroke-width:1;"/><path d="M369.6988,479.6406 Q369.1206,479.9375 368.48,480.0781 Q367.8394,480.2344 367.1363,480.2344 Q364.6363,480.2344 363.3081,478.5938 Q361.9956,476.9375 361.9956,473.8125 Q361.9956,470.6875 363.3081,469.0313 Q364.6363,467.375 367.1363,467.375 Q367.8394,467.375 368.48,467.5313 Q369.1363,467.6875 369.6988,467.9844 L369.6988,470.7031 Q369.0738,470.125 368.48,469.8594 Q367.8863,469.5781 367.2613,469.5781 Q365.9175,469.5781 365.23,470.6563 Q364.5425,471.7188 364.5425,473.8125 Q364.5425,475.9063 365.23,476.9844 Q365.9175,478.0469 367.2613,478.0469 Q367.8863,478.0469 368.48,477.7813 Q369.0738,477.5 369.6988,476.9219 L369.6988,479.6406 Z " fill="#000000"/><text fill="#000000" font-family="sans-serif" font-size="14" lengthAdjust="spacing" textLength="56.2529" x="380.73" y="478.8467">Cancion</text></g><!--class Playlist--><g class="entity" data-qualified-name="Playlist" data-source-line="25" id="ent0010"><rect fill="#FFFFFF" height="32" rx="2.5" ry="2.5" style="stroke:#000000;stroke-width:0.5;" width="81.7588" x="22.98" y="287"/><ellipse cx="37.98" cy="303" fill="#ADD1B2" rx="11" ry="11" style="stroke:#181818;stroke-width:1;"/><path d="M40.9488,308.6406 Q40.3706,308.9375 39.73,309.0781 Q39.0894,309.2344 38.3863,309.2344 Q35.8863,309.2344 34.5581,307.5938 Q33.2456,305.9375 33.2456,302.8125 Q33.2456,299.6875 34.5581,298.0313 Q35.8863,296.375 38.3863,296.375 Q39.0894,296.375 39.73,296.5313 Q40.3863,296.6875 40.9488,296.9844 L40.9488,299.7031 Q40.3238,299.125 39.73,298.8594 Q39.1363,298.5781 38.5113,298.5781 Q37.1675,298.5781 36.48,299.6563 Q35.7925,300.7188 35.7925,302.8125 Q35.7925,304.9063 36.48,305.9844 Q37.1675,307.0469 38.5113,307.0469 Q39.1363,307.0469 39.73,306.7813 Q40.3238,306.5 40.9488,305.9219 L40.9488,308.6406 Z " fill="#000000"/><text fill="#000000" font-family="sans-serif" font-size="14" lengthAdjust="spacing" textLength="49.7588" x="51.98" y="307.8467">Playlist</text></g><!--class Instrumento--><g class="entity" data-qualified-name="Instrumento" data-source-line="26" id="ent0011"><rect fill="#FFFFFF" height="32" rx="2.5" ry="2.5" style="stroke:#000000;stroke-width:0.5;" width="117.5928" x="270.06" y="567"/><ellipse cx="285.06" cy="583" fill="#ADD1B2" rx="11" ry="11" style="stroke:#181818;stroke-width:1;"/><path d="M288.0288,588.6406 Q287.4506,588.9375 286.81,589.0781 Q286.1694,589.2344 285.4663,589.2344 Q282.9663,589.2344 281.6381,587.5938 Q280.3256,585.9375 280.3256,582.8125 Q280.3256,579.6875 281.6381,578.0313 Q282.9663,576.375 285.4663,576.375 Q286.1694,576.375 286.81,576.5313 Q287.4663,576.6875 288.0288,576.9844 L288.0288,579.7031 Q287.4038,579.125 286.81,578.8594 Q286.2163,578.5781 285.5913,578.5781 Q284.2475,578.5781 283.56,579.6563 Q282.8725,580.7188 282.8725,582.8125 Q282.8725,584.9063 283.56,585.9844 Q284.2475,587.0469 285.5913,587.0469 Q286.2163,587.0469 286.81,586.7813 Q287.4038,586.5 288.0288,585.9219 L288.0288,588.6406 Z " fill="#000000"/><text fill="#000000" font-family="sans-serif" font-size="14" lengthAdjust="spacing" textLength="85.5928" x="299.06" y="587.8467">Instrumento</text></g><!--class Genero--><g class="entity" data-qualified-name="Genero" data-source-line="27" id="ent0012"><rect fill="#FFFFFF" height="32" rx="2.5" ry="2.5" style="stroke:#000000;stroke-width:0.5;" width="83.2695" x="422.22" y="567"/><ellipse cx="437.22" cy="583" fill="#ADD1B2" rx="11" ry="11" style="stroke:#181818;stroke-width:1;"/><path d="M440.1888,588.6406 Q439.6106,588.9375 438.97,589.0781 Q438.3294,589.2344 437.6263,589.2344 Q435.1263,589.2344 433.7981,587.5938 Q432.4856,585.9375 432.4856,582.8125 Q432.4856,579.6875 433.7981,578.0313 Q435.1263,576.375 437.6263,576.375 Q438.3294,576.375 438.97,576.5313 Q439.6263,576.6875 440.1888,576.9844 L440.1888,579.7031 Q439.5638,579.125 438.97,578.8594 Q438.3763,578.5781 437.7513,578.5781 Q436.4075,578.5781 435.72,579.6563 Q435.0325,580.7188 435.0325,582.8125 Q435.0325,584.9063 435.72,585.9844 Q436.4075,587.0469 437.7513,587.0469 Q438.3763,587.0469 438.97,586.7813 Q439.5638,586.5 440.1888,585.9219 L440.1888,588.6406 Z " fill="#000000"/><text fill="#000000" font-family="sans-serif" font-size="14" lengthAdjust="spacing" textLength="51.2695" x="451.22" y="587.8467">Genero</text></g><!--class Reproduccion--><g class="entity" data-qualified-name="Reproduccion" data-source-line="30" id="ent0013"><rect fill="#FFFFFF" height="32" rx="2.5" ry="2.5" style="stroke:#000000;stroke-width:0.5;" width="128.0313" x="214.84" y="225"/><ellipse cx="229.84" cy="241" fill="#ADD1B2" rx="11" ry="11" style="stroke:#181818;stroke-width:1;"/><path d="M232.8088,246.6406 Q232.2306,246.9375 231.59,247.0781 Q230.9494,247.2344 230.2463,247.2344 Q227.7463,247.2344 226.4181,245.5938 Q225.1056,243.9375 225.1056,240.8125 Q225.1056,237.6875 226.4181,236.0313 Q227.7463,234.375 230.2463,234.375 Q230.9494,234.375 231.59,234.5313 Q232.2463,234.6875 232.8088,234.9844 L232.8088,237.7031 Q232.1838,237.125 231.59,236.8594 Q230.9963,236.5781 230.3713,236.5781 Q229.0275,236.5781 228.34,237.6563 Q227.6525,238.7188 227.6525,240.8125 Q227.6525,242.9063 228.34,243.9844 Q229.0275,245.0469 230.3713,245.0469 Q230.9963,245.0469 231.59,244.7813 Q232.1838,244.5 232.8088,243.9219 L232.8088,246.6406 Z " fill="#000000"/><text fill="#000000" font-family="sans-serif" font-size="14" lengthAdjust="spacing" textLength="96.0313" x="243.84" y="245.8467">Reproduccion</text></g><!--class Estadistica--><g class="entity" data-qualified-name="Estadistica" data-source-line="31" id="ent0014"><rect fill="#FFFFFF" height="32" rx="2.5" ry="2.5" style="stroke:#000000;stroke-width:0.5;" width="107.9336" x="341.89" y="116"/><ellipse cx="356.89" cy="132" fill="#ADD1B2" rx="11" ry="11" style="stroke:#181818;stroke-width:1;"/><path d="M359.8588,137.6406 Q359.2806,137.9375 358.64,138.0781 Q357.9994,138.2344 357.2963,138.2344 Q354.7963,138.2344 353.4681,136.5938 Q352.1556,134.9375 352.1556,131.8125 Q352.1556,128.6875 353.4681,127.0313 Q354.7963,125.375 357.2963,125.375 Q357.9994,125.375 358.64,125.5313 Q359.2963,125.6875 359.8588,125.9844 L359.8588,128.7031 Q359.2338,128.125 358.64,127.8594 Q358.0463,127.5781 357.4213,127.5781 Q356.0775,127.5781 355.39,128.6563 Q354.7025,129.7188 354.7025,131.8125 Q354.7025,133.9063 355.39,134.9844 Q356.0775,136.0469 357.4213,136.0469 Q358.0463,136.0469 358.64,135.7813 Q359.2338,135.5 359.8588,134.9219 L359.8588,137.6406 Z " fill="#000000"/><text fill="#000000" font-family="sans-serif" font-size="14" lengthAdjust="spacing" textLength="75.9336" x="370.89" y="136.8467">Estadistica</text></g><!--link Usuario to TipoSuscripcion--><g class="link" data-entity-1="ent0006" data-entity-2="ent0002" data-link-type="dependency" data-source-line="36" id="lnk15"><path codeLine="36" d="M129.92,148.49 C121.78,156.36 113.17,166.67 108.86,178 C103.12,193.09 103.2808,205.8376 105.0808,218.7376" fill="none" id="Usuario-to-TipoSuscripcion" style="stroke:#000000;stroke-width:1;stroke-dasharray:7,7;"/><polygon fill="#000000" points="105.91,224.68,108.6279,215.2136,105.219,219.728,100.7046,216.3191,105.91,224.68" style="stroke:#000000;stroke-width:1;"/><polygon fill="#000000" points="112.1932,191.2804,117.9793,183.7325,112.4377,181.773,112.1932,191.2804" style="stroke:#000000;stroke-width:1;"/><text fill="#000000" font-family="sans-serif" font-size="13" lengthAdjust="spacing" textLength="22.9785" x="122.86" y="191.0669">usa</text></g><!--link Album to TipoAlbum--><g class="link" data-entity-1="ent0008" data-entity-2="ent0003" data-link-type="dependency" data-source-line="37" id="lnk16"><path codeLine="37" d="M638.29,381.33 C641.52,401.67 646.2585,431.4443 649.4885,451.7743" fill="none" id="Album-to-TipoAlbum" style="stroke:#000000;stroke-width:1;stroke-dasharray:7,7;"/><polygon fill="#000000" points="650.43,457.7,652.9683,448.1838,649.6454,452.7619,645.0674,449.4391,650.43,457.7" style="stroke:#000000;stroke-width:1;"/><polygon fill="#000000" points="650.645,424.5044,652.1274,415.1101,646.3224,416.0329,650.645,424.5044" style="stroke:#000000;stroke-width:1;"/><text fill="#000000" font-family="sans-serif" font-size="13" lengthAdjust="spacing" textLength="22.9785" x="658.86" y="424.0669">usa</text></g><!--link Instrumento to FamiliaInstrumento--><g class="link" data-entity-1="ent0011" data-entity-2="ent0004" data-link-type="dependency" data-source-line="38" id="lnk17"><path codeLine="38" d="M328.86,599.33 C328.86,619.67 328.86,649.37 328.86,669.7" fill="none" id="Instrumento-to-FamiliaInstrumento" style="stroke:#000000;stroke-width:1;stroke-dasharray:7,7;"/><polygon fill="#000000" points="328.86,675.7,332.86,666.7,328.86,670.7,324.86,666.7,328.86,675.7" style="stroke:#000000;stroke-width:1;"/><polygon fill="#000000" points="333.86,642.5664,336.7989,633.5213,330.9211,633.5213,333.86,642.5664" style="stroke:#000000;stroke-width:1;"/><text fill="#000000" font-family="sans-serif" font-size="13" lengthAdjust="spacing" textLength="78.1714" x="342.86" y="642.0669">pertenece a</text></g><!--reverse link Plataforma to Usuario--><g class="link" data-entity-1="ent0005" data-entity-2="ent0006" data-link-type="aggregation" data-source-line="45" id="lnk18"><path codeLine="45" d="M349.1894,44.2115 C302.2994,64.5315 231.39,95.25 184.5,115.56" fill="none" id="Plataforma-backto-Usuario" style="stroke:#000000;stroke-width:1;"/><polygon fill="none" points="360.2,39.44,353.1042,38.1555,349.1894,44.2115,356.2852,45.4959,360.2,39.44" style="stroke:#000000;stroke-width:1;"/><polygon fill="#000000" points="287.2721,79.554,296.74,78.6551,294.4034,73.2616,287.2721,79.554" style="stroke:#000000;stroke-width:1;"/><text fill="#000000" font-family="sans-serif" font-size="13" lengthAdjust="spacing" textLength="31.1099" x="300.86" y="82.0669">aloja</text></g><!--reverse link Plataforma to Artista--><g class="link" data-entity-1="ent0005" data-entity-2="ent0007" data-link-type="aggregation" data-source-line="46" id="lnk19"><path codeLine="46" d="M437.0734,45.5879 C449.8134,53.1379 453.64,57.06 463.86,69 C498.52,109.48 502.48,125.93 513.86,178 C517.26,193.57 516.06,211.86 514.44,224.52" fill="none" id="Plataforma-backto-Artista" style="stroke:#000000;stroke-width:1;"/><polygon fill="none" points="426.75,39.47,429.8724,45.97,437.0734,45.5879,433.951,39.0878,426.75,39.47" style="stroke:#000000;stroke-width:1;"/><polygon fill="#000000" points="513.8444,136.6558,512.9522,127.1872,507.5571,129.5199,513.8444,136.6558" style="stroke:#000000;stroke-width:1;"/><text fill="#000000" font-family="sans-serif" font-size="13" lengthAdjust="spacing" textLength="64.873" x="520.86" y="136.5669">distribuye</text></g><!--reverse link Usuario to Playlist--><g class="link" data-entity-1="ent0006" data-entity-2="ent0010" data-link-type="composition" data-source-line="49" id="lnk20"><path codeLine="49" d="M94.5324,147.7741 C73.8324,154.7741 61.17,161.81 43.86,178 C17.05,203.06 6,223.02 19.86,257 C24.64,268.74 34.12,279.08 43.06,286.88" fill="none" id="Usuario-backto-Playlist" style="stroke:#000000;stroke-width:1;"/><polygon fill="#000000" points="105.9,143.93,98.9348,142.0629,94.5324,147.7741,101.4976,149.6413,105.9,143.93" style="stroke:#000000;stroke-width:1;"/><polygon fill="#000000" points="47.1249,191.2557,53.02,183.7926,47.5075,181.7528,47.1249,191.2557" style="stroke:#000000;stroke-width:1;"/><text fill="#000000" font-family="sans-serif" font-size="13" lengthAdjust="spacing" textLength="38.9746" x="57.86" y="191.0669">posee</text></g><!--reverse link Playlist to Cancion--><g class="link" data-entity-1="ent0010" data-entity-2="ent0009" data-link-type="aggregation" data-source-line="52" id="lnk21"><path codeLine="52" d="M93.6276,326.4499 C114.8876,342.3599 139.91,360.59 170.86,381 C204.64,403.28 211.9,411.51 248.86,428 C282.13,442.84 321.71,454.65 351.42,462.44" fill="none" id="Playlist-backto-Cancion" style="stroke:#000000;stroke-width:1;"/><polygon fill="none" points="84.02,319.26,86.4272,326.0575,93.6276,326.4499,91.2204,319.6524,84.02,319.26" style="stroke:#000000;stroke-width:1;"/><polygon fill="#000000" points="180.2824,367.3993,173.6534,360.5796,170.911,365.7785,180.2824,367.3993" style="stroke:#000000;stroke-width:1;"/><text fill="#000000" font-family="sans-serif" font-size="13" lengthAdjust="spacing" textLength="46.0205" x="184.86" y="369.5669">agrupa</text></g><!--reverse link Album to Cancion--><g class="link" data-entity-1="ent0008" data-entity-2="ent0009" data-link-type="composition" data-source-line="55" id="lnk22"><path codeLine="55" d="M592.9224,386.5323 C566.0824,399.2923 537.56,412.62 502.86,428 C480.01,438.12 454.19,449 433.64,457.52" fill="none" id="Album-backto-Cancion" style="stroke:#000000;stroke-width:1;"/><polygon fill="#000000" points="603.76,381.38,596.6238,380.3436,592.9224,386.5323,600.0586,387.5687,603.76,381.38" style="stroke:#000000;stroke-width:1;"/><polygon fill="#000000" points="539.293,421.6018,548.7511,420.6042,546.3584,415.2354,539.293,421.6018" style="stroke:#000000;stroke-width:1;"/><text fill="#000000" font-family="sans-serif" font-size="13" lengthAdjust="spacing" textLength="56.2847" x="552.86" y="424.0669">contiene</text></g><!--link Artista to Album--><g class="link" data-entity-1="ent0007" data-entity-2="ent0008" data-link-type="dependency" data-source-line="58" id="lnk23"><path codeLine="58" d="M527.56,257.45 C551.41,280.92 592.2224,321.0726 616.0024,344.4626" fill="none" id="Artista-to-Album" style="stroke:#000000;stroke-width:1;stroke-dasharray:7,7;"/><polygon fill="#000000" points="620.28,348.67,616.6686,339.5072,616.7154,345.1638,611.0587,345.2106,620.28,348.67" style="stroke:#000000;stroke-width:1;"/><polygon fill="#000000" points="596.4242,306.573,592.0376,298.1345,587.9153,302.3245,596.4242,306.573" style="stroke:#000000;stroke-width:1;"/><text fill="#000000" font-family="sans-serif" font-size="13" lengthAdjust="spacing" textLength="34.6074" x="601.86" y="307.5669">lanza</text></g><!--link Artista to Cancion--><g class="link" data-entity-1="ent0007" data-entity-2="ent0009" data-link-type="dependency" data-source-line="59" id="lnk24"><path codeLine="59" d="M504.99,257.13 C490.41,289.07 454.95,365.56 421.86,428 C416.53,438.05 413.2044,443.9356 408.0944,452.5756" fill="none" id="Artista-to-Cancion" style="stroke:#000000;stroke-width:1;stroke-dasharray:7,7;"/><polygon fill="#000000" points="405.04,457.74,413.0645,452.0297,407.5853,453.4364,406.1787,447.9572,405.04,457.74" style="stroke:#000000;stroke-width:1;"/><polygon fill="#000000" points="463.6391,369.5461,470.2898,362.7477,465.0236,360.1369,463.6391,369.5461" style="stroke:#000000;stroke-width:1;"/><text fill="#000000" font-family="sans-serif" font-size="13" lengthAdjust="spacing" textLength="64.9492" x="474.86" y="369.5669">interpreta</text></g><!--link Cancion to Genero--><g class="link" data-entity-1="ent0009" data-entity-2="ent0012" data-link-type="dependency" data-source-line="62" id="lnk25"><path codeLine="62" d="M405.83,490.39 C411.44,499.07 418.57,510.12 424.86,520 C434.96,535.88 443.2342,549.0357 451.1042,561.5957" fill="none" id="Cancion-to-Genero" style="stroke:#000000;stroke-width:1;stroke-dasharray:7,7;"/><polygon fill="#000000" points="454.29,566.68,452.9008,556.9296,451.6352,562.443,446.1217,561.1774,454.29,566.68" style="stroke:#000000;stroke-width:1;"/><polygon fill="#000000" points="442.5428,532.7857,440.1697,523.576,435.2095,526.7298,442.5428,532.7857" style="stroke:#000000;stroke-width:1;"/><text fill="#000000" font-family="sans-serif" font-size="13" lengthAdjust="spacing" textLength="89.0005" x="448.86" y="533.0669">clasificada en</text></g><!--link Cancion to Instrumento--><g class="link" data-entity-1="ent0009" data-entity-2="ent0011" data-link-type="dependency" data-source-line="63" id="lnk26"><path codeLine="63" d="M369.1,490.49 C358.38,498.05 346.91,508.09 339.86,520 C331.39,534.3 329.3085,547.4736 328.8485,560.7036" fill="none" id="Cancion-to-Instrumento" style="stroke:#000000;stroke-width:1;stroke-dasharray:7,7;"/><polygon fill="#000000" points="328.64,566.7,332.9503,557.8444,328.8137,561.703,324.9552,557.5664,328.64,566.7" style="stroke:#000000;stroke-width:1;"/><polygon fill="#000000" points="342.3733,532.9042,349.4215,526.5187,344.3221,523.5954,342.3733,532.9042" style="stroke:#000000;stroke-width:1;"/><text fill="#000000" font-family="sans-serif" font-size="13" lengthAdjust="spacing" textLength="66.6885" x="353.86" y="533.0669">suena con</text></g><!--reverse link Usuario to Reproduccion--><g class="link" data-entity-1="ent0006" data-entity-2="ent0013" data-link-type="composition" data-source-line="70" id="lnk27"><path codeLine="70" d="M172.9211,156.7378 C186.1911,169.6478 197.42,179.99 215.86,195 C228.68,205.44 243.72,216.24 255.89,224.64" fill="none" id="Usuario-backto-Reproduccion" style="stroke:#000000;stroke-width:1;"/><polygon fill="#000000" points="164.32,148.37,165.8313,155.421,172.9211,156.7378,171.4098,149.6869,164.32,148.37" style="stroke:#000000;stroke-width:1;"/><polygon fill="#000000" points="224.7294,189.7331,219.591,181.7301,215.8683,186.2788,224.7294,189.7331" style="stroke:#000000;stroke-width:1;"/><text fill="#000000" font-family="sans-serif" font-size="13" lengthAdjust="spacing" textLength="45.7983" x="229.86" y="191.0669">genera</text></g><!--link Reproduccion to Cancion--><g class="link" data-entity-1="ent0013" data-entity-2="ent0009" data-link-type="dependency" data-source-line="73" id="lnk28"><path codeLine="73" d="M278.37,257.15 C278.14,283.77 280.51,340 301.86,381 C318.73,413.41 346.4111,437.6653 368.4111,453.9853" fill="none" id="Reproduccion-to-Cancion" style="stroke:#000000;stroke-width:1;stroke-dasharray:7,7;"/><polygon fill="#000000" points="373.23,457.56,368.3849,448.9854,369.2143,454.5811,363.6186,455.4105,373.23,457.56" style="stroke:#000000;stroke-width:1;"/><polygon fill="#000000" points="308.9399,369.6133,307.8499,360.1654,302.5047,362.6105,308.9399,369.6133" style="stroke:#000000;stroke-width:1;"/><text fill="#000000" font-family="sans-serif" font-size="13" lengthAdjust="spacing" textLength="53.5107" x="315.86" y="369.5669">escucha</text></g><!--reverse link Plataforma to Estadistica--><g class="link" data-entity-1="ent0005" data-entity-2="ent0014" data-link-type="composition" data-source-line="76" id="lnk29"><path codeLine="76" d="M395.86,51.33 C395.86,71.67 395.86,95.37 395.86,115.7" fill="none" id="Plataforma-backto-Estadistica" style="stroke:#000000;stroke-width:1;"/><polygon fill="#000000" points="395.86,39.33,391.86,45.33,395.86,51.33,399.86,45.33,395.86,39.33" style="stroke:#000000;stroke-width:1;"/><polygon fill="#000000" points="400.86,82.5664,403.7989,73.5213,397.9211,73.5213,400.86,82.5664" style="stroke:#000000;stroke-width:1;"/><text fill="#000000" font-family="sans-serif" font-size="13" lengthAdjust="spacing" textLength="45.6904" x="409.86" y="82.0669">calcula</text></g><!--link Estadistica to Reproduccion--><g class="link" data-entity-1="ent0014" data-entity-2="ent0013" data-link-type="dependency" data-source-line="80" id="lnk30"><path codeLine="80" d="M341.42,146.53 C324,153.34 306.09,163.37 293.86,178 C282.92,191.08 280.0687,204.8707 279.2487,218.5607" fill="none" id="Estadistica-to-Reproduccion" style="stroke:#000000;stroke-width:1;stroke-dasharray:7,7;"/><polygon fill="#000000" points="278.89,224.55,283.421,215.8053,279.189,219.5589,275.4353,215.3269,278.89,224.55" style="stroke:#000000;stroke-width:1;"/><polygon fill="#000000" points="295.593,190.3515,303.7279,185.4245,299.2782,181.5839,295.593,190.3515" style="stroke:#000000;stroke-width:1;"/><text fill="#000000" font-family="sans-serif" font-size="13" lengthAdjust="spacing" textLength="61.5088" x="307.86" y="191.0669">consolida</text></g><!--link Estadistica to Artista--><g class="link" data-entity-1="ent0014" data-entity-2="ent0007" data-link-type="dependency" data-source-line="81" id="lnk31"><path codeLine="81" d="M407.93,148.34 C418.56,161.41 434.82,180.34 450.86,195 C462.61,205.74 471.9634,212.9409 483.7434,221.1809" fill="none" id="Estadistica-to-Artista" style="stroke:#000000;stroke-width:1;stroke-dasharray:7,7;"/><polygon fill="#000000" points="488.66,224.62,483.5779,216.1836,484.5629,221.7541,478.9924,222.7391,488.66,224.62" style="stroke:#000000;stroke-width:1;"/><polygon fill="#000000" points="459.4655,190.0306,454.9793,181.6446,450.9069,185.8831,459.4655,190.0306" style="stroke:#000000;stroke-width:1;"/><text fill="#000000" font-family="sans-serif" font-size="13" lengthAdjust="spacing" textLength="44.624" x="464.86" y="191.0669">mide a</text></g><!--link Estadistica to Cancion--><g class="link" data-entity-1="ent0014" data-entity-2="ent0009" data-link-type="dependency" data-source-line="82" id="lnk32"><path codeLine="82" d="M395.86,148.49 C395.86,205.26 395.86,395.52 395.86,451.81" fill="none" id="Estadistica-to-Cancion" style="stroke:#000000;stroke-width:1;stroke-dasharray:7,7;"/><polygon fill="#000000" points="395.86,457.81,399.86,448.81,395.86,452.81,391.86,448.81,395.86,457.81" style="stroke:#000000;stroke-width:1;"/><polygon fill="#000000" points="400.86,308.0664,403.7989,299.0213,397.9211,299.0213,400.86,308.0664" style="stroke:#000000;stroke-width:1;"/><text fill="#000000" font-family="sans-serif" font-size="13" lengthAdjust="spacing" textLength="44.624" x="409.86" y="307.5669">mide a</text></g><?plantuml-src fLPDZnCv4BtthoXnuKCGJdiPQP6QdjvLf24P9HcjEDQuYup1RVVwWzM0-0cS-1KSE21kU-q_HjdkJZh3Z4GWqcZIzkjolLUlAhuFIn6KnzOuKFo7tihBuFdRDRJzPsyQ_jgXHMZeDLfmHfa4l2VG2RH6axjNNCc6WDhEyqlKNf9rXNiZTNol1Mk2ReIncYpyCLaN2fs3zmNmvpcADzi4hFW02_zSIKzffxJM_9SNdoj6PRYn3TdfweUYk0z__lI7mUkwgkRzfmMSrb0lBbwiZmj0EhImaPrP1oUix8GqUhzOgilGviU_i9LAubmxRqDBsflVIhKwAzVr6ivNyqKrFo_FwYFppggVA_JuojWMXuKB5z1ACpoLraldnxrC9d-lK2Uckp3NYf73uvHZNlcRkEg9y2BGMtIfw3GuYXIqndC9sJoeKVLVl1G8RN3yJmqHLjHPqmGnERNcr1e-bL57IxcgpyfglbomXDLoaGiF3owSWQTmIXtfXfWWFZmkxg0Up6RFRde2JY0uX6T5Kd67o4_ZtaIuXFZHCmpjo7gMKx1O_Cfl4AyNczNEICV5ONIvjRH58Vjl-WJE4BgTbG2tDdJ8d98QSOHWDfAR5Nl7WNdoPFGRqq9bNaT2Dm231HaGIns7qZLbsfLfEyCMcMQGN0YAfYAfCP4Px0hqY2EFfesI6aT3r5jePTH0IcJZitSVI3P9T8hamf1xcBXbR4nyw938BBzvQz9k4b2Z81sR86XGgDznyMF9PuDb7Xq45KPxtXwoPkC-dTZs14gHZk1eQXIVP_Qb9OxC0_t_s5eSUDY9NXkTc4wEFftixO-LJDLsbZpUSN25dhR6odTPmranlXlZv34Gi-S6bgyuXuRRNtEeAUhGxYwGnaZt5yp-OhbPhkAqNDNdg-NfHJKu_oNKwqrvsdzSR-PLkJxQ-uTLh1LSiLHCchqMVm2T2EAAItkN3mziE1riJ7SR9TgBcwBJswG5XxOxS2okassdA0h5uRkWkIW8_uR-SpPLWXZTVviL1uSSLdJ8zkwU6hkH7Te4wh_6Am1NvRQPVTZVaTraHiUoe-9RnfHTx02AcFvB0ZdmfiNeVpSXczg3ZS0N5FSuxR4V-0eY6uPoABvkyCr3nryI6nioDqxARHWy3DarsgoOPXNLk563NN1Ez2PqFu_YaN0RPA_j2FaE?></g><script xmlns=""/></svg>