<svg xmlns="http://www.w3.org/2000/svg" xmlns:xlink="http://www.w3.org/1999/xlink" contentStyleType="text/css" data-diagram-type="CLASS" height="591px" preserveAspectRatio="none" style="width:565px;height:591px;background:#FFFFFF;" version="1.1" viewBox="0 0 565 591" width="565px" zoomAndPan="magnify"><defs/><g><!--class TipoSuscripcion--><g class="entity" data-qualified-name="TipoSuscripcion" data-source-line="13" id="ent0002"><rect fill="#FFFFFF" height="32" rx="2.5" ry="2.5" style="stroke:#000000;stroke-width:0.5;" width="142.2021" x="7" y="225"/><ellipse cx="22" cy="241" fill="#EB937F" rx="11" ry="11" style="stroke:#181818;stroke-width:1;"/><path d="M26.1094,247 L18.3906,247 L18.3906,234.6094 L26.1094,234.6094 L26.1094,236.7656 L20.8438,236.7656 L20.8438,239.4375 L25.6094,239.4375 L25.6094,241.5938 L20.8438,241.5938 L20.8438,244.8438 L26.1094,244.8438 L26.1094,247 Z " fill="#000000"/><text fill="#000000" font-family="sans-serif" font-size="14" lengthAdjust="spacing" textLength="110.2021" x="36" y="245.8467">TipoSuscripcion</text></g><!--class TipoAlbum--><g class="entity" data-qualified-name="TipoAlbum" data-source-line="14" id="ent0003"><rect fill="#FFFFFF" height="32" rx="2.5" ry="2.5" style="stroke:#000000;stroke-width:0.5;" width="106.7578" x="451.72" y="334"/><ellipse cx="466.72" cy="350" fill="#EB937F" rx="11" ry="11" style="stroke:#181818;stroke-width:1;"/><path d="M470.8294,356 L463.1106,356 L463.1106,343.6094 L470.8294,343.6094 L470.8294,345.7656 L465.5638,345.7656 L465.5638,348.4375 L470.3294,348.4375 L470.3294,350.5938 L465.5638,350.5938 L465.5638,353.8438 L470.8294,353.8438 L470.8294,356 Z " fill="#000000"/><text fill="#000000" font-family="sans-serif" font-size="14" lengthAdjust="spacing" textLength="74.7578" x="480.72" y="354.8467">TipoAlbum</text></g><!--class FamiliaInstrumento--><g class="entity" data-qualified-name="FamiliaInstrumento" data-source-line="15" id="ent0004"><rect fill="#FFFFFF" height="32" rx="2.5" ry="2.5" style="stroke:#000000;stroke-width:0.5;" width="168.1104" x="185.05" y="552"/><ellipse cx="200.05" cy="568" fill="#EB937F" rx="11" ry="11" style="stroke:#181818;stroke-width:1;"/><path d="M204.1594,574 L196.4406,574 L196.4406,561.6094 L204.1594,561.6094 L204.1594,563.7656 L198.8938,563.7656 L198.8938,566.4375 L203.6594,566.4375 L203.6594,568.5938 L198.8938,568.5938 L198.8938,571.8438 L204.1594,571.8438 L204.1594,574 Z " fill="#000000"/><text fill="#000000" font-family="sans-serif" font-size="14" lengthAdjust="spacing" textLength="136.1104" x="214.05" y="572.8467">FamiliaInstrumento</text></g><!--class Plataforma--><g class="entity" data-qualified-name="Plataforma" data-source-line="20" id="ent0005"><rect fill="#FFFFFF" height="32" rx="2.5" ry="2.5" style="stroke:#000000;stroke-width:0.5;" width="108.4463" x="223.88" y="7"/><ellipse cx="238.88" cy="23" fill="#ADD1B2" rx="11" ry="11" style="stroke:#181818;stroke-width:1;"/><path d="M241.8488,28.6406 Q241.2706,28.9375 240.63,29.0781 Q239.9894,29.2344 239.2863,29.2344 Q236.7863,29.2344 235.4581,27.5938 Q234.1456,25.9375 234.1456,22.8125 Q234.1456,19.6875 235.4581,18.0313 Q236.7863,16.375 239.2863,16.375 Q239.9894,16.375 240.63,16.5313 Q241.2863,16.6875 241.8488,16.9844 L241.8488,19.7031 Q241.2238,19.125 240.63,18.8594 Q240.0363,18.5781 239.4113,18.5781 Q238.0675,18.5781 237.38,19.6563 Q236.6925,20.7188 236.6925,22.8125 Q236.6925,24.9063 237.38,25.9844 Q238.0675,27.0469 239.4113,27.0469 Q240.0363,27.0469 240.63,26.7813 Q241.2238,26.5 241.8488,25.9219 L241.8488,28.6406 Z " fill="#000000"/><text fill="#000000" font-family="sans-serif" font-size="14" lengthAdjust="spacing" textLength="76.4463" x="252.88" y="27.8467">Plataforma</text></g><!--class Usuario--><g class="entity" data-qualified-name="Usuario" data-source-line="21" id="ent0006"><rect fill="#FFFFFF" height="32" rx="2.5" ry="2.5" style="stroke:#000000;stroke-width:0.5;" width="85.2041" x="177.5" y="116"/><ellipse cx="192.5" cy="132" fill="#ADD1B2" rx="11" ry="11" style="stroke:#181818;stroke-width:1;"/><path d="M195.4688,137.6406 Q194.8906,137.9375 194.25,138.0781 Q193.6094,138.2344 192.9063,138.2344 Q190.4063,138.2344 189.0781,136.5938 Q187.7656,134.9375 187.7656,131.8125 Q187.7656,128.6875 189.0781,127.0313 Q190.4063,125.375 192.9063,125.375 Q193.6094,125.375 194.25,125.5313 Q194.9063,125.6875 195.4688,125.9844 L195.4688,128.7031 Q194.8438,128.125 194.25,127.8594 Q193.6563,127.5781 193.0313,127.5781 Q191.6875,127.5781 191,128.6563 Q190.3125,129.7188 190.3125,131.8125 Q190.3125,133.9063 191,134.9844 Q191.6875,136.0469 193.0313,136.0469 Q193.6563,136.0469 194.25,135.7813 Q194.8438,135.5 195.4688,134.9219 L195.4688,137.6406 Z " fill="#000000"/><text fill="#000000" font-family="sans-serif" font-size="14" lengthAdjust="spacing" textLength="53.2041" x="206.5" y="136.8467">Usuario</text></g><!--class Artista--><g class="entity" data-qualified-name="Artista" data-source-line="22" id="ent0007"><rect fill="#FFFFFF" height="32" rx="2.5" ry="2.5" style="stroke:#000000;stroke-width:0.5;" width="78.0742" x="298.06" y="116"/><ellipse cx="313.06" cy="132" fill="#ADD1B2" rx="11" ry="11" style="stroke:#181818;stroke-width:1;"/><path d="M316.0288,137.6406 Q315.4506,137.9375 314.81,138.0781 Q314.1694,138.2344 313.4663,138.2344 Q310.9663,138.2344 309.6381,136.5938 Q308.3256,134.9375 308.3256,131.8125 Q308.3256,128.6875 309.6381,127.0313 Q310.9663,125.375 313.4663,125.375 Q314.1694,125.375 314.81,125.5313 Q315.4663,125.6875 316.0288,125.9844 L316.0288,128.7031 Q315.4038,128.125 314.81,127.8594 Q314.2163,127.5781 313.5913,127.5781 Q312.2475,127.5781 311.56,128.6563 Q310.8725,129.7188 310.8725,131.8125 Q310.8725,133.9063 311.56,134.9844 Q312.2475,136.0469 313.5913,136.0469 Q314.2163,136.0469 314.81,135.7813 Q315.4038,135.5 316.0288,134.9219 L316.0288,137.6406 Z " fill="#000000"/><text fill="#000000" font-family="sans-serif" font-size="14" lengthAdjust="spacing" textLength="46.0742" x="327.06" y="136.8467">Artista</text></g><!--class Album--><g class="entity" data-qualified-name="Album" data-source-line="23" id="ent0008"><rect fill="#FFFFFF" height="32" rx="2.5" ry="2.5" style="stroke:#000000;stroke-width:0.5;" width="76.8643" x="449.67" y="225"/><ellipse cx="464.67" cy="241" fill="#ADD1B2" rx="11" ry="11" style="stroke:#181818;stroke-width:1;"/><path d="M467.6388,246.6406 Q467.0606,246.9375 466.42,247.0781 Q465.7794,247.2344 465.0763,247.2344 Q462.5763,247.2344 461.2481,245.5938 Q459.9356,243.9375 459.9356,240.8125 Q459.9356,237.6875 461.2481,236.0313 Q462.5763,234.375 465.0763,234.375 Q465.7794,234.375 466.42,234.5313 Q467.0763,234.6875 467.6388,234.9844 L467.6388,237.7031 Q467.0138,237.125 466.42,236.8594 Q465.8263,236.5781 465.2013,236.5781 Q463.8575,236.5781 463.17,237.6563 Q462.4825,238.7188 462.4825,240.8125 Q462.4825,242.9063 463.17,243.9844 Q463.8575,245.0469 465.2013,245.0469 Q465.8263,245.0469 466.42,244.7813 Q467.0138,244.5 467.6388,243.9219 L467.6388,246.6406 Z " fill="#000000"/><text fill="#000000" font-family="sans-serif" font-size="14" lengthAdjust="spacing" textLength="44.8643" x="478.67" y="245.8467">Album</text></g><!--class Cancion--><g class="entity" data-qualified-name="Cancion" data-source-line="24" id="ent0009"><rect fill="#FFFFFF" height="32" rx="2.5" ry="2.5" style="stroke:#000000;stroke-width:0.5;" width="88.2529" x="291.97" y="334"/><ellipse cx="306.97" cy="350" fill="#ADD1B2" rx="11" ry="11" style="stroke:#181818;stroke-width:1;"/><path d="M309.9388,355.6406 Q309.3606,355.9375 308.72,356.0781 Q308.0794,356.2344 307.3763,356.2344 Q304.8763,356.2344 303.5481,354.5938 Q302.2356,352.9375 302.2356,349.8125 Q302.2356,346.6875 303.5481,345.0313 Q304.8763,343.375 307.3763,343.375 Q308.0794,343.375 308.72,343.5313 Q309.3763,343.6875 309.9388,343.9844 L309.9388,346.7031 Q309.3138,346.125 308.72,345.8594 Q308.1263,345.5781 307.5013,345.5781 Q306.1575,345.5781 305.47,346.6563 Q304.7825,347.7188 304.7825,349.8125 Q304.7825,351.9063 305.47,352.9844 Q306.1575,354.0469 307.5013,354.0469 Q308.1263,354.0469 308.72,353.7813 Q309.3138,353.5 309.9388,352.9219 L309.9388,355.6406 Z " fill="#000000"/><text fill="#000000" font-family="sans-serif" font-size="14" lengthAdjust="spacing" textLength="56.2529" x="320.97" y="354.8467">Cancion</text></g><!--class Playlist--><g class="entity" data-qualified-name="Playlist" data-source-line="25" id="ent0010"><rect fill="#FFFFFF" height="32" rx="2.5" ry="2.5" style="stroke:#000000;stroke-width:0.5;" width="81.7588" x="184.22" y="225"/><ellipse cx="199.22" cy="241" fill="#ADD1B2" rx="11" ry="11" style="stroke:#181818;stroke-width:1;"/><path d="M202.1888,246.6406 Q201.6106,246.9375 200.97,247.0781 Q200.3294,247.2344 199.6263,247.2344 Q197.1263,247.2344 195.7981,245.5938 Q194.4856,243.9375 194.4856,240.8125 Q194.4856,237.6875 195.7981,236.0313 Q197.1263,234.375 199.6263,234.375 Q200.3294,234.375 200.97,234.5313 Q201.6263,234.6875 202.1888,234.9844 L202.1888,237.7031 Q201.5638,237.125 200.97,236.8594 Q200.3763,236.5781 199.7513,236.5781 Q198.4075,236.5781 197.72,237.6563 Q197.0325,238.7188 197.0325,240.8125 Q197.0325,242.9063 197.72,243.9844 Q198.4075,245.0469 199.7513,245.0469 Q200.3763,245.0469 200.97,244.7813 Q201.5638,244.5 202.1888,243.9219 L202.1888,246.6406 Z " fill="#000000"/><text fill="#000000" font-family="sans-serif" font-size="14" lengthAdjust="spacing" textLength="49.7588" x="213.22" y="245.8467">Playlist</text></g><!--class Instrumento--><g class="entity" data-qualified-name="Instrumento" data-source-line="26" id="ent0011"><rect fill="#FFFFFF" height="32" rx="2.5" ry="2.5" style="stroke:#000000;stroke-width:0.5;" width="117.5928" x="210.3" y="443"/><ellipse cx="225.3" cy="459" fill="#ADD1B2" rx="11" ry="11" style="stroke:#181818;stroke-width:1;"/><path d="M228.2688,464.6406 Q227.6906,464.9375 227.05,465.0781 Q226.4094,465.2344 225.7063,465.2344 Q223.2063,465.2344 221.8781,463.5938 Q220.5656,461.9375 220.5656,458.8125 Q220.5656,455.6875 221.8781,454.0313 Q223.2063,452.375 225.7063,452.375 Q226.4094,452.375 227.05,452.5313 Q227.7063,452.6875 228.2688,452.9844 L228.2688,455.7031 Q227.6438,455.125 227.05,454.8594 Q226.4563,454.5781 225.8313,454.5781 Q224.4875,454.5781 223.8,455.6563 Q223.1125,456.7188 223.1125,458.8125 Q223.1125,460.9063 223.8,461.9844 Q224.4875,463.0469 225.8313,463.0469 Q226.4563,463.0469 227.05,462.7813 Q227.6438,462.5 228.2688,461.9219 L228.2688,464.6406 Z " fill="#000000"/><text fill="#000000" font-family="sans-serif" font-size="14" lengthAdjust="spacing" textLength="85.5928" x="239.3" y="463.8467">Instrumento</text></g><!--class Genero--><g class="entity" data-qualified-name="Genero" data-source-line="27" id="ent0012"><rect fill="#FFFFFF" height="32" rx="2.5" ry="2.5" style="stroke:#000000;stroke-width:0.5;" width="83.2695" x="362.47" y="443"/><ellipse cx="377.47" cy="459" fill="#ADD1B2" rx="11" ry="11" style="stroke:#181818;stroke-width:1;"/><path d="M380.4388,464.6406 Q379.8606,464.9375 379.22,465.0781 Q378.5794,465.2344 377.8763,465.2344 Q375.3763,465.2344 374.0481,463.5938 Q372.7356,461.9375 372.7356,458.8125 Q372.7356,455.6875 374.0481,454.0313 Q375.3763,452.375 377.8763,452.375 Q378.5794,452.375 379.22,452.5313 Q379.8763,452.6875 380.4388,452.9844 L380.4388,455.7031 Q379.8138,455.125 379.22,454.8594 Q378.6263,454.5781 378.0013,454.5781 Q376.6575,454.5781 375.97,455.6563 Q375.2825,456.7188 375.2825,458.8125 Q375.2825,460.9063 375.97,461.9844 Q376.6575,463.0469 378.0013,463.0469 Q378.6263,463.0469 379.22,462.7813 Q379.8138,462.5 380.4388,461.9219 L380.4388,464.6406 Z " fill="#000000"/><text fill="#000000" font-family="sans-serif" font-size="14" lengthAdjust="spacing" textLength="51.2695" x="391.47" y="463.8467">Genero</text></g><!--link Usuario to TipoSuscripcion--><g class="link" data-entity-1="ent0006" data-entity-2="ent0002" data-link-type="dependency" data-source-line="32" id="lnk13"><path codeLine="32" d="M199.76,148.33 C172.76,168.67 130.1712,200.7584 103.2012,221.0884" fill="none" id="Usuario-to-TipoSuscripcion" style="stroke:#000000;stroke-width:1;stroke-dasharray:7,7;"/><polygon fill="#000000" points="98.41,224.7,108.0046,222.4767,102.4027,221.6903,103.1891,216.0884,98.41,224.7" style="stroke:#000000;stroke-width:1;"/><polygon fill="#000000" points="159.1067,189.5754,168.0992,186.4793,164.562,181.7849,159.1067,189.5754" style="stroke:#000000;stroke-width:1;"/><text fill="#000000" font-family="sans-serif" font-size="13" lengthAdjust="spacing" textLength="22.9785" x="172.1" y="191.0669">usa</text></g><!--link Album to TipoAlbum--><g class="link" data-entity-1="ent0008" data-entity-2="ent0003" data-link-type="dependency" data-source-line="33" id="lnk14"><path codeLine="33" d="M490.54,257.33 C493.77,277.67 498.4985,307.4443 501.7285,327.7743" fill="none" id="Album-to-TipoAlbum" style="stroke:#000000;stroke-width:1;stroke-dasharray:7,7;"/><polygon fill="#000000" points="502.67,333.7,505.2083,324.1838,501.8854,328.7619,497.3074,325.4391,502.67,333.7" style="stroke:#000000;stroke-width:1;"/><polygon fill="#000000" points="502.8843,300.5045,504.368,291.1104,498.5629,292.0324,502.8843,300.5045" style="stroke:#000000;stroke-width:1;"/><text fill="#000000" font-family="sans-serif" font-size="13" lengthAdjust="spacing" textLength="22.9785" x="511.1" y="300.0669">usa</text></g><!--link Instrumento to FamiliaInstrumento--><g class="link" data-entity-1="ent0011" data-entity-2="ent0004" data-link-type="dependency" data-source-line="34" id="lnk15"><path codeLine="34" d="M269.1,475.33 C269.1,495.67 269.1,525.37 269.1,545.7" fill="none" id="Instrumento-to-FamiliaInstrumento" style="stroke:#000000;stroke-width:1;stroke-dasharray:7,7;"/><polygon fill="#000000" points="269.1,551.7,273.1,542.7,269.1,546.7,265.1,542.7,269.1,551.7" style="stroke:#000000;stroke-width:1;"/><polygon fill="#000000" points="274.1,518.5664,277.0389,509.5213,271.1611,509.5213,274.1,518.5664" style="stroke:#000000;stroke-width:1;"/><text fill="#000000" font-family="sans-serif" font-size="13" lengthAdjust="spacing" textLength="78.1714" x="283.1" y="518.0669">pertenece a</text></g><!--reverse link Plataforma to Usuario--><g class="link" data-entity-1="ent0005" data-entity-2="ent0006" data-link-type="aggregation" data-source-line="42" id="lnk16"><path codeLine="42" d="M254.564,47.9036 C246.894,56.1436 246.15,58.09 240.1,69 C231.87,83.83 226.42,102.57 223.31,115.54" fill="none" id="Plataforma-backto-Usuario" style="stroke:#000000;stroke-width:1;"/><polygon fill="none" points="262.74,39.12,255.7241,40.7865,254.564,47.9036,261.5799,46.2372,262.74,39.12" style="stroke:#000000;stroke-width:1;"/><polygon fill="#000000" points="243.0027,82.1053,249.4647,75.1272,244.1289,72.6616,243.0027,82.1053" style="stroke:#000000;stroke-width:1;"/><text fill="#000000" font-family="sans-serif" font-size="13" lengthAdjust="spacing" textLength="31.1099" x="254.1" y="82.0669">aloja</text></g><!--reverse link Plataforma to Artista--><g class="link" data-entity-1="ent0005" data-entity-2="ent0007" data-link-type="aggregation" data-source-line="43" id="lnk17"><path codeLine="43" d="M292.3461,49.8374 C303.5661,70.1774 317.46,95.37 328.66,115.7" fill="none" id="Plataforma-backto-Artista" style="stroke:#000000;stroke-width:1;"/><polygon fill="none" points="286.55,39.33,285.9456,46.5157,292.3461,49.8374,292.9505,42.6517,286.55,39.33" style="stroke:#000000;stroke-width:1;"/><polygon fill="#000000" points="318.5142,81.945,316.7206,72.6051,311.5732,75.4431,318.5142,81.945" style="stroke:#000000;stroke-width:1;"/><text fill="#000000" font-family="sans-serif" font-size="13" lengthAdjust="spacing" textLength="64.873" x="325.1" y="82.0669">distribuye</text></g><!--reverse link Usuario to Playlist--><g class="link" data-entity-1="ent0006" data-entity-2="ent0010" data-link-type="composition" data-source-line="47" id="lnk18"><path codeLine="47" d="M221.3799,160.3169 C222.3299,180.6569 223.44,204.37 224.39,224.7" fill="none" id="Usuario-backto-Playlist" style="stroke:#000000;stroke-width:1;"/><polygon fill="#000000" points="220.82,148.33,217.1043,154.5101,221.3799,160.3169,225.0956,154.1368,220.82,148.33" style="stroke:#000000;stroke-width:1;"/><polygon fill="#000000" points="228.3335,191.561,230.8468,182.3885,224.9754,182.663,228.3335,191.561" style="stroke:#000000;stroke-width:1;"/><text fill="#000000" font-family="sans-serif" font-size="13" lengthAdjust="spacing" textLength="38.9746" x="237.1" y="191.0669">posee</text></g><!--reverse link Playlist to Cancion--><g class="link" data-entity-1="ent0010" data-entity-2="ent0009" data-link-type="aggregation" data-source-line="51" id="lnk19"><path codeLine="51" d="M230.5158,269.0779 C233.6358,282.7179 237.23,290.77 249.1,304 C260.57,316.78 276.53,326.48 291.66,333.54" fill="none" id="Playlist-backto-Cancion" style="stroke:#000000;stroke-width:1;"/><polygon fill="none" points="227.84,257.38,225.2786,264.1209,230.5158,269.0779,233.0772,262.337,227.84,257.38" style="stroke:#000000;stroke-width:1;"/><polygon fill="#000000" points="257.5409,299.1941,253.4485,290.609,249.1839,294.6541,257.5409,299.1941" style="stroke:#000000;stroke-width:1;"/><text fill="#000000" font-family="sans-serif" font-size="13" lengthAdjust="spacing" textLength="46.0205" x="263.1" y="300.0669">agrupa</text></g><!--reverse link Album to Cancion--><g class="link" data-entity-1="ent0008" data-entity-2="ent0009" data-link-type="composition" data-source-line="55" id="lnk20"><path codeLine="55" d="M451.7842,263.6504 C437.9242,272.0704 430.97,276.63 416.1,287 C394.48,302.08 370.73,320.77 354.77,333.67" fill="none" id="Album-backto-Cancion" style="stroke:#000000;stroke-width:1;"/><polygon fill="#000000" points="462.04,257.42,454.8353,257.1166,451.7842,263.6504,458.9889,263.9538,462.04,257.42" style="stroke:#000000;stroke-width:1;"/><polygon fill="#000000" points="417.0457,298.4926,426.1,295.5821,422.66,290.816,417.0457,298.4926" style="stroke:#000000;stroke-width:1;"/><text fill="#000000" font-family="sans-serif" font-size="13" lengthAdjust="spacing" textLength="56.2847" x="430.1" y="300.0669">contiene</text></g><!--link Artista to Album--><g class="link" data-entity-1="ent0007" data-entity-2="ent0008" data-link-type="dependency" data-source-line="58" id="lnk21"><path codeLine="58" d="M358.74,148.33 C387.44,168.67 432.9245,200.901 461.6145,221.231" fill="none" id="Artista-to-Album" style="stroke:#000000;stroke-width:1;stroke-dasharray:7,7;"/><polygon fill="#000000" points="466.51,224.7,461.4794,216.2328,462.4304,221.8092,456.8541,222.7602,466.51,224.7" style="stroke:#000000;stroke-width:1;"/><polygon fill="#000000" points="430.1795,189.4573,424.4988,181.8297,421.1003,186.6255,430.1795,189.4573" style="stroke:#000000;stroke-width:1;"/><text fill="#000000" font-family="sans-serif" font-size="13" lengthAdjust="spacing" textLength="34.6074" x="435.1" y="191.0669">lanza</text></g><!--link Artista to Cancion--><g class="link" data-entity-1="ent0007" data-entity-2="ent0009" data-link-type="dependency" data-source-line="59" id="lnk22"><path codeLine="59" d="M337.03,148.19 C336.85,187.75 336.3886,287.6701 336.1986,327.5401" fill="none" id="Artista-to-Cancion" style="stroke:#000000;stroke-width:1;stroke-dasharray:7,7;"/><polygon fill="#000000" points="336.17,333.54,340.2128,324.5592,336.1938,328.5401,332.2129,324.521,336.17,333.54" style="stroke:#000000;stroke-width:1;"/><polygon fill="#000000" points="341.0768,246.0664,344.0576,237.035,338.1799,237.0077,341.0768,246.0664" style="stroke:#000000;stroke-width:1;"/><text fill="#000000" font-family="sans-serif" font-size="13" lengthAdjust="spacing" textLength="64.9492" x="350.1" y="245.5669">interpreta</text></g><!--link Cancion to Genero--><g class="link" data-entity-1="ent0009" data-entity-2="ent0012" data-link-type="dependency" data-source-line="62" id="lnk23"><path codeLine="62" d="M346.08,366.39 C351.69,375.07 358.81,386.12 365.1,396 C375.21,411.88 383.4742,425.0357 391.3442,437.5957" fill="none" id="Cancion-to-Genero" style="stroke:#000000;stroke-width:1;stroke-dasharray:7,7;"/><polygon fill="#000000" points="394.53,442.68,393.1408,432.9296,391.8752,438.443,386.3617,437.1774,394.53,442.68" style="stroke:#000000;stroke-width:1;"/><polygon fill="#000000" points="382.7823,408.786,380.4102,399.576,375.4497,402.7293,382.7823,408.786" style="stroke:#000000;stroke-width:1;"/><text fill="#000000" font-family="sans-serif" font-size="13" lengthAdjust="spacing" textLength="89.0005" x="389.1" y="409.0669">clasificada en</text></g><!--link Cancion to Instrumento--><g class="link" data-entity-1="ent0009" data-entity-2="ent0011" data-link-type="dependency" data-source-line="63" id="lnk24"><path codeLine="63" d="M309.35,366.49 C298.62,374.05 287.16,384.09 280.1,396 C271.63,410.3 269.5485,423.4736 269.0885,436.7036" fill="none" id="Cancion-to-Instrumento" style="stroke:#000000;stroke-width:1;stroke-dasharray:7,7;"/><polygon fill="#000000" points="268.88,442.7,273.1903,433.8444,269.0537,437.703,265.1952,433.5664,268.88,442.7" style="stroke:#000000;stroke-width:1;"/><polygon fill="#000000" points="282.6128,408.9039,289.6617,402.5192,284.5627,399.5954,282.6128,408.9039" style="stroke:#000000;stroke-width:1;"/><text fill="#000000" font-family="sans-serif" font-size="13" lengthAdjust="spacing" textLength="66.6885" x="294.1" y="409.0669">suena con</text></g><?plantuml-src fLNDJXin4BxlKuouyACGJhqWDL9OqYfI6X01zJpn3i7WjLVskWMgFaMVe4VEVOIyM6VMk_cX71eHAOez_ZpppJSppZvSg6XgB5q0mr-ilPx7cbTFK2vVQbVmiaAFKD0zUWZEk0Qufp0ezCvIsClkT450PLNp9Ihdv4CM7hILUoLu5ssXdBVauSE6NHaC0Nvam9ypL0-B1fXp00zVxtHDpSdGU_Sz6SyCenBS-OByflLdbkt3n__-C7WsolFnyjSKpaSmcjvycUtcW6miuLfNRXQ3yhfIsjcrSMZciKpRJrXget5iG-rZIRPsxwAQJuQpqGmkhyRJV7mvd8nsv9rKlpHOuwtp9RQ6cn3HQzVkXhxMeUxEKZ9fdQDjCbsvUJACRBUREIRBP-AgxvxmrMWopCSNKquqlvYcyi31JN1m0kTKaIs8QU3XRdxR7A7V7xok79n230Y3hCbrXKYxxcmZlGRnRsKPMf6lEMb585VUaVXeUdsrAlTkVXWzN7XQeDBBF_OK9WZLgk202nyhv9mQDMJGCPKxz8Izas3AMKLL7T58NWHSJ3aBplA27XbD5cuZDUy2a37OpzOz1UxukEiebWIDknSnNW7Q9cD0mR_ox3nHaYntPUM2tcBVz1aOsX2O7fM9GN_3n15DbrDVKfXfPWqgyXb2oLIf9uQLAtxpvdhvOlkhlZXYKbr7IoLTe9RG6secLAkbIbD1eIzXvyvxbcaZM4y8cHR7JY3eHQGafEPkTi1oac4p2ricBLC04QgTEL4oXNj3f94L_zeMKQJ4NgfOKrMf4CQ24pnOyJmKGXOLX-NJA9VjCxTpqyG7oz_IzoT1XimOTzXln-9eYmptY91l9UBXFDaOJMPakhvApYLASWp4H6lobQTQp6jTE51xHUQhcxvqVR1rjgQnuUfj8ZdMj71UFwS2oXyRWmlkHSbTT5gNB-lyIepqU4cc3DAtMl4bATHW2xKz_e7x3KKQ6Fm5?></g><script xmlns=""/></svg>