<?plantuml 1.2026.2beta3?><svg xmlns="http://www.w3.org/2000/svg" xmlns:xlink="http://www.w3.org/1999/xlink" contentStyleType="text/css" data-diagram-type="CLASS" height="272px" preserveAspectRatio="none" style="width:768px;height:272px;background:#FFFFFF;" version="1.1" viewBox="0 0 768 272" width="768px" zoomAndPan="magnify"><title>Bloque de Agregaci&#243;n</title><defs/><g><g class="title" data-source-line="1"><text fill="#000000" font-family="sans-serif" font-size="14" font-weight="bold" lengthAdjust="spacing" textLength="173.2432" x="290.7934" y="22.9951">Bloque de Agregaci&#243;n</text></g><!--class Persona--><g class="entity" data-qualified-name="Persona" data-source-line="3" id="ent0002"><rect fill="#F1F1F1" height="48" rx="2.5" ry="2.5" style="stroke:#181818;stroke-width:0.5;" width="88.123" x="210.77" y="44.2969"/><ellipse cx="225.77" cy="60.2969" fill="#ADD1B2" rx="11" ry="11" style="stroke:#181818;stroke-width:1;"/><path d="M228.7388,65.9375 Q228.1606,66.2344 227.52,66.375 Q226.8794,66.5313 226.1763,66.5313 Q223.6763,66.5313 222.3481,64.8906 Q221.0356,63.2344 221.0356,60.1094 Q221.0356,56.9844 222.3481,55.3281 Q223.6763,53.6719 226.1763,53.6719 Q226.8794,53.6719 227.52,53.8281 Q228.1763,53.9844 228.7388,54.2813 L228.7388,57 Q228.1138,56.4219 227.52,56.1563 Q226.9263,55.875 226.3013,55.875 Q224.9575,55.875 224.27,56.9531 Q223.5825,58.0156 223.5825,60.1094 Q223.5825,62.2031 224.27,63.2813 Q224.9575,64.3438 226.3013,64.3438 Q226.9263,64.3438 227.52,64.0781 Q228.1138,63.7969 228.7388,63.2188 L228.7388,65.9375 Z " fill="#000000"/><text fill="#000000" font-family="sans-serif" font-size="14" lengthAdjust="spacing" textLength="56.123" x="239.77" y="65.1436">Persona</text><line style="stroke:#181818;stroke-width:0.5;" x1="211.77" x2="297.893" y1="76.2969" y2="76.2969"/><line style="stroke:#181818;stroke-width:0.5;" x1="211.77" x2="297.893" y1="84.2969" y2="84.2969"/></g><!--class Capacidades--><g class="entity" data-qualified-name="Capacidades" data-source-line="4" id="ent0003"><rect fill="#F1F1F1" height="48" rx="2.5" ry="2.5" style="stroke:#181818;stroke-width:0.5;" width="121.667" x="7" y="217.2969"/><ellipse cx="22" cy="233.2969" fill="#ADD1B2" rx="11" ry="11" style="stroke:#181818;stroke-width:1;"/><path d="M24.9688,238.9375 Q24.3906,239.2344 23.75,239.375 Q23.1094,239.5313 22.4063,239.5313 Q19.9063,239.5313 18.5781,237.8906 Q17.2656,236.2344 17.2656,233.1094 Q17.2656,229.9844 18.5781,228.3281 Q19.9063,226.6719 22.4063,226.6719 Q23.1094,226.6719 23.75,226.8281 Q24.4063,226.9844 24.9688,227.2813 L24.9688,230 Q24.3438,229.4219 23.75,229.1563 Q23.1563,228.875 22.5313,228.875 Q21.1875,228.875 20.5,229.9531 Q19.8125,231.0156 19.8125,233.1094 Q19.8125,235.2031 20.5,236.2813 Q21.1875,237.3438 22.5313,237.3438 Q23.1563,237.3438 23.75,237.0781 Q24.3438,236.7969 24.9688,236.2188 L24.9688,238.9375 Z " fill="#000000"/><text fill="#000000" font-family="sans-serif" font-size="14" lengthAdjust="spacing" textLength="89.667" x="36" y="238.1436">Capacidades</text><line style="stroke:#181818;stroke-width:0.5;" x1="8" x2="127.667" y1="249.2969" y2="249.2969"/><line style="stroke:#181818;stroke-width:0.5;" x1="8" x2="127.667" y1="257.2969" y2="257.2969"/></g><!--class Contexto--><g class="entity" data-qualified-name="Contexto" data-source-line="5" id="ent0004"><rect fill="#F1F1F1" height="48" rx="2.5" ry="2.5" style="stroke:#181818;stroke-width:0.5;" width="95.6563" x="395.01" y="217.2969"/><ellipse cx="410.01" cy="233.2969" fill="#ADD1B2" rx="11" ry="11" style="stroke:#181818;stroke-width:1;"/><path d="M412.9788,238.9375 Q412.4006,239.2344 411.76,239.375 Q411.1194,239.5313 410.4163,239.5313 Q407.9163,239.5313 406.5881,237.8906 Q405.2756,236.2344 405.2756,233.1094 Q405.2756,229.9844 406.5881,228.3281 Q407.9163,226.6719 410.4163,226.6719 Q411.1194,226.6719 411.76,226.8281 Q412.4163,226.9844 412.9788,227.2813 L412.9788,230 Q412.3538,229.4219 411.76,229.1563 Q411.1663,228.875 410.5413,228.875 Q409.1975,228.875 408.51,229.9531 Q407.8225,231.0156 407.8225,233.1094 Q407.8225,235.2031 408.51,236.2813 Q409.1975,237.3438 410.5413,237.3438 Q411.1663,237.3438 411.76,237.0781 Q412.3538,236.7969 412.9788,236.2188 L412.9788,238.9375 Z " fill="#000000"/><text fill="#000000" font-family="sans-serif" font-size="14" lengthAdjust="spacing" textLength="63.6563" x="424.01" y="238.1436">Contexto</text><line style="stroke:#181818;stroke-width:0.5;" x1="396.01" x2="489.6663" y1="249.2969" y2="249.2969"/><line style="stroke:#181818;stroke-width:0.5;" x1="396.01" x2="489.6663" y1="257.2969" y2="257.2969"/></g><!--reverse link Persona to Capacidades--><g class="link" data-entity-1="ent0002" data-entity-2="ent0003" data-link-type="aggregation" data-source-line="7" id="lnk5"><path codeLine="7" d="M198.5778,77.3243 C148.1378,85.3143 82.38,99.1769 64.83,122.2969 C44.26,149.3869 51.63,190.9669 59.35,216.8469" fill="none" id="Persona-backto-Capacidades" style="stroke:#181818;stroke-width:1;"/><polygon fill="none" points="210.43,75.4469,203.8781,72.4349,198.5778,77.3243,205.1297,80.3363,210.43,75.4469" style="stroke:#181818;stroke-width:1;"/><path d="M69.83,127.2969 L69.83,182.2969 L394.83,182.2969 L394.83,137.2969 L384.83,127.2969 L69.83,127.2969" fill="#FEFFDD" style="stroke:#181818;stroke-width:0.5;"/><path d="M384.83,127.2969 L384.83,137.2969 L394.83,137.2969 L384.83,127.2969" fill="#FEFFDD" style="stroke:#181818;stroke-width:0.5;"/><text fill="#000000" font-family="sans-serif" font-size="13" font-weight="bold" lengthAdjust="spacing" textLength="83.021" x="75.83" y="144.3638">Agregaci&#243;n</text><text fill="#000000" font-family="sans-serif" font-size="13" lengthAdjust="spacing" textLength="213.0845" x="158.851" y="144.3638">: La persona posee capacidades,</text><text fill="#000000" font-family="sans-serif" font-size="13" lengthAdjust="spacing" textLength="276.0596" x="75.83" y="159.4966">pero estas pueden cambiar o ser externas</text><text fill="#000000" font-family="sans-serif" font-size="13" lengthAdjust="spacing" textLength="304.3892" x="75.83" y="174.6294">(ej. herramientas o conocimientos adquiridos).</text></g><!--reverse link Persona to Contexto--><g class="link" data-entity-1="ent0002" data-entity-2="ent0004" data-link-type="aggregation" data-source-line="10" id="lnk6"><path codeLine="10" d="M311.0173,76.7532 C343.9973,82.8932 376.1,93.9269 403.83,122.2969 C429.17,148.2169 438.05,190.9369 441.16,217.2369" fill="none" id="Persona-backto-Contexto" style="stroke:#181818;stroke-width:1;"/><polygon fill="none" points="299.22,74.5569,304.3865,79.5875,311.0173,76.7532,305.8508,71.7226,299.22,74.5569" style="stroke:#181818;stroke-width:1;"/><path d="M439.83,127.2969 L439.83,182.2969 L761.83,182.2969 L761.83,137.2969 L751.83,127.2969 L439.83,127.2969" fill="#FEFFDD" style="stroke:#181818;stroke-width:0.5;"/><path d="M751.83,127.2969 L751.83,137.2969 L761.83,137.2969 L751.83,127.2969" fill="#FEFFDD" style="stroke:#181818;stroke-width:0.5;"/><text fill="#000000" font-family="sans-serif" font-size="13" font-weight="bold" lengthAdjust="spacing" textLength="83.021" x="445.83" y="144.3638">Agregaci&#243;n</text><text fill="#000000" font-family="sans-serif" font-size="13" lengthAdjust="spacing" textLength="218.772" x="528.851" y="144.3638">: La persona est&#225; en un contexto,</text><text fill="#000000" font-family="sans-serif" font-size="13" lengthAdjust="spacing" textLength="250.7769" x="445.83" y="159.4966">pero el contexto preexiste y sobrevive</text><text fill="#000000" font-family="sans-serif" font-size="13" lengthAdjust="spacing" textLength="151.6899" x="445.83" y="174.6294">a la persona individual.</text></g><?plantuml-src ZOyxKWD134JpEOL2sC9ROAe87F592JY04tcdomXcfVLercMEmnauWY_6sEKF415AhUv-Ab8Iw37PQWH5qCCoOycTRByqX2wnExqWkoaVfYSUgXmvmeyRqu9DiH0EbsIJoQyxjG8ofIJwFgEc-L7ID3DwPXeEpi4SeExilPfhrOpWXPs64H5QzNuXdCd8aQbs8olxN2_mrj8hSkPUe3k3KMTgdUndS-Au6YLBDBzi__0Ul_W_R6NQVbBb6NLNixUVUDDfHKC6Dk8rzeFS5XbhMMDU0z8vIpJAMkB8gGttq3Zs8Toqq-lfNJjTeF3jDm00?></g></svg>