<?plantuml 1.2026.2beta3?><svg xmlns="http://www.w3.org/2000/svg" xmlns:xlink="http://www.w3.org/1999/xlink" contentStyleType="text/css" data-diagram-type="CLASS" height="274px" preserveAspectRatio="none" style="width:1105px;height:274px;background:#FFFFFF;" version="1.1" viewBox="0 0 1105 274" width="1105px" zoomAndPan="magnify"><title>Bloque de Asociaci&#243;n</title><defs/><g><g class="title" data-source-line="1"><text fill="#000000" font-family="sans-serif" font-size="14" font-weight="bold" lengthAdjust="spacing" textLength="167.8496" x="462.0552" y="22.9951">Bloque de Asociaci&#243;n</text></g><!--class Decision--><g class="entity" data-qualified-name="Decision" data-source-line="3" id="ent0002"><rect fill="#F1F1F1" height="48" rx="2.5" ry="2.5" style="stroke:#181818;stroke-width:0.5;" width="91.6025" x="371.16" y="44.2969"/><ellipse cx="386.16" cy="60.2969" fill="#ADD1B2" rx="11" ry="11" style="stroke:#181818;stroke-width:1;"/><path d="M389.1288,65.9375 Q388.5506,66.2344 387.91,66.375 Q387.2694,66.5313 386.5663,66.5313 Q384.0663,66.5313 382.7381,64.8906 Q381.4256,63.2344 381.4256,60.1094 Q381.4256,56.9844 382.7381,55.3281 Q384.0663,53.6719 386.5663,53.6719 Q387.2694,53.6719 387.91,53.8281 Q388.5663,53.9844 389.1288,54.2813 L389.1288,57 Q388.5038,56.4219 387.91,56.1563 Q387.3163,55.875 386.6913,55.875 Q385.3475,55.875 384.66,56.9531 Q383.9725,58.0156 383.9725,60.1094 Q383.9725,62.2031 384.66,63.2813 Q385.3475,64.3438 386.6913,64.3438 Q387.3163,64.3438 387.91,64.0781 Q388.5038,63.7969 389.1288,63.2188 L389.1288,65.9375 Z " fill="#000000"/><text fill="#000000" font-family="sans-serif" font-size="14" lengthAdjust="spacing" textLength="59.6025" x="400.16" y="65.1436">Decision</text><line style="stroke:#181818;stroke-width:0.5;" x1="372.16" x2="461.7625" y1="76.2969" y2="76.2969"/><line style="stroke:#181818;stroke-width:0.5;" x1="372.16" x2="461.7625" y1="84.2969" y2="84.2969"/></g><!--class Motivacion--><g class="entity" data-qualified-name="Motivacion" data-source-line="4" id="ent0003"><rect fill="#F1F1F1" height="48" rx="2.5" ry="2.5" style="stroke:#181818;stroke-width:0.5;" width="107.9131" x="7" y="219.2969"/><ellipse cx="22" cy="235.2969" fill="#ADD1B2" rx="11" ry="11" style="stroke:#181818;stroke-width:1;"/><path d="M24.9688,240.9375 Q24.3906,241.2344 23.75,241.375 Q23.1094,241.5313 22.4063,241.5313 Q19.9063,241.5313 18.5781,239.8906 Q17.2656,238.2344 17.2656,235.1094 Q17.2656,231.9844 18.5781,230.3281 Q19.9063,228.6719 22.4063,228.6719 Q23.1094,228.6719 23.75,228.8281 Q24.4063,228.9844 24.9688,229.2813 L24.9688,232 Q24.3438,231.4219 23.75,231.1563 Q23.1563,230.875 22.5313,230.875 Q21.1875,230.875 20.5,231.9531 Q19.8125,233.0156 19.8125,235.1094 Q19.8125,237.2031 20.5,238.2813 Q21.1875,239.3438 22.5313,239.3438 Q23.1563,239.3438 23.75,239.0781 Q24.3438,238.7969 24.9688,238.2188 L24.9688,240.9375 Z " fill="#000000"/><text fill="#000000" font-family="sans-serif" font-size="14" lengthAdjust="spacing" textLength="75.9131" x="36" y="240.1436">Motivacion</text><line style="stroke:#181818;stroke-width:0.5;" x1="8" x2="113.9131" y1="251.2969" y2="251.2969"/><line style="stroke:#181818;stroke-width:0.5;" x1="8" x2="113.9131" y1="259.2969" y2="259.2969"/></g><!--class Consecuencia--><g class="entity" data-qualified-name="Consecuencia" data-source-line="5" id="ent0004"><rect fill="#F1F1F1" height="48" rx="2.5" ry="2.5" style="stroke:#181818;stroke-width:0.5;" width="129.3438" x="352.28" y="219.2969"/><ellipse cx="367.28" cy="235.2969" fill="#ADD1B2" rx="11" ry="11" style="stroke:#181818;stroke-width:1;"/><path d="M370.2488,240.9375 Q369.6706,241.2344 369.03,241.375 Q368.3894,241.5313 367.6863,241.5313 Q365.1863,241.5313 363.8581,239.8906 Q362.5456,238.2344 362.5456,235.1094 Q362.5456,231.9844 363.8581,230.3281 Q365.1863,228.6719 367.6863,228.6719 Q368.3894,228.6719 369.03,228.8281 Q369.6863,228.9844 370.2488,229.2813 L370.2488,232 Q369.6238,231.4219 369.03,231.1563 Q368.4363,230.875 367.8113,230.875 Q366.4675,230.875 365.78,231.9531 Q365.0925,233.0156 365.0925,235.1094 Q365.0925,237.2031 365.78,238.2813 Q366.4675,239.3438 367.8113,239.3438 Q368.4363,239.3438 369.03,239.0781 Q369.6238,238.7969 370.2488,238.2188 L370.2488,240.9375 Z " fill="#000000"/><text fill="#000000" font-family="sans-serif" font-size="14" lengthAdjust="spacing" textLength="97.3438" x="381.28" y="240.1436">Consecuencia</text><line style="stroke:#181818;stroke-width:0.5;" x1="353.28" x2="480.6238" y1="251.2969" y2="251.2969"/><line style="stroke:#181818;stroke-width:0.5;" x1="353.28" x2="480.6238" y1="259.2969" y2="259.2969"/></g><!--class Opcion--><g class="entity" data-qualified-name="Opcion" data-source-line="6" id="ent0005"><rect fill="#F1F1F1" height="48" rx="2.5" ry="2.5" style="stroke:#181818;stroke-width:0.5;" width="80.9316" x="757.49" y="219.2969"/><ellipse cx="772.49" cy="235.2969" fill="#ADD1B2" rx="11" ry="11" style="stroke:#181818;stroke-width:1;"/><path d="M775.4588,240.9375 Q774.8806,241.2344 774.24,241.375 Q773.5994,241.5313 772.8963,241.5313 Q770.3963,241.5313 769.0681,239.8906 Q767.7556,238.2344 767.7556,235.1094 Q767.7556,231.9844 769.0681,230.3281 Q770.3963,228.6719 772.8963,228.6719 Q773.5994,228.6719 774.24,228.8281 Q774.8963,228.9844 775.4588,229.2813 L775.4588,232 Q774.8338,231.4219 774.24,231.1563 Q773.6463,230.875 773.0213,230.875 Q771.6775,230.875 770.99,231.9531 Q770.3025,233.0156 770.3025,235.1094 Q770.3025,237.2031 770.99,238.2813 Q771.6775,239.3438 773.0213,239.3438 Q773.6463,239.3438 774.24,239.0781 Q774.8338,238.7969 775.4588,238.2188 L775.4588,240.9375 Z " fill="#000000"/><text fill="#000000" font-family="sans-serif" font-size="14" lengthAdjust="spacing" textLength="48.9316" x="786.49" y="240.1436">Opcion</text><line style="stroke:#181818;stroke-width:0.5;" x1="758.49" x2="837.4216" y1="251.2969" y2="251.2969"/><line style="stroke:#181818;stroke-width:0.5;" x1="758.49" x2="837.4216" y1="259.2969" y2="259.2969"/></g><!--link Decision to Motivacion--><g class="link" data-entity-1="ent0002" data-entity-2="ent0003" data-link-type="dependency" data-source-line="8" id="lnk6"><path codeLine="8" d="M370.95,70.6469 C290.75,73.9569 130.04,85.1669 89.96,122.2969 C63.23,147.0569 59.1397,185.8473 59.4597,213.1473" fill="none" id="Decision-to-Motivacion" style="stroke:#181818;stroke-width:1;"/><polygon fill="#181818" points="59.53,219.1469,63.4242,210.1006,59.4714,214.1472,55.4248,210.1944,59.53,219.1469" style="stroke:#181818;stroke-width:1;"/><text fill="#000000" font-family="sans-serif" font-size="13" lengthAdjust="spacing" textLength="67.5454" x="214.189" y="135.3638">basada en</text><path d="M94.96,144.4297 L94.96,184.4297 L400.96,184.4297 L400.96,154.4297 L390.96,144.4297 L94.96,144.4297" fill="#FEFFDD" style="stroke:#181818;stroke-width:0.5;"/><path d="M390.96,144.4297 L390.96,154.4297 L400.96,154.4297 L390.96,144.4297" fill="#FEFFDD" style="stroke:#181818;stroke-width:0.5;"/><text fill="#000000" font-family="sans-serif" font-size="13" font-weight="bold" lengthAdjust="spacing" textLength="78.0127" x="100.96" y="161.4966">Asociaci&#243;n</text><text fill="#000000" font-family="sans-serif" font-size="13" lengthAdjust="spacing" textLength="143.4316" x="178.9727" y="161.4966">: La decisi&#243;n apunta a</text><text fill="#000000" font-family="sans-serif" font-size="13" lengthAdjust="spacing" textLength="285.0034" x="100.96" y="176.6294">una motivaci&#243;n como su causa justificativa.</text></g><!--link Decision to Consecuencia--><g class="link" data-entity-1="ent0002" data-entity-2="ent0004" data-link-type="dependency" data-source-line="11" id="lnk7"><path codeLine="11" d="M415.34,92.7669 C414.78,101.9669 414.23,112.6269 413.96,122.2969 C413.11,152.0669 413.11,159.5269 413.96,189.2969 C414.23,198.9669 414.4155,203.638 414.9755,212.838" fill="none" id="Decision-to-Consecuencia" style="stroke:#181818;stroke-width:1;"/><polygon fill="#181818" points="415.34,218.8269,418.7858,209.6005,415.0362,213.8361,410.8006,210.0865,415.34,218.8269" style="stroke:#181818;stroke-width:1;"/><text fill="#000000" font-family="sans-serif" font-size="13" lengthAdjust="spacing" textLength="52.311" x="558.6856" y="135.3638">provoca</text><path d="M418.96,144.4297 L418.96,184.4297 L749.96,184.4297 L749.96,154.4297 L739.96,144.4297 L418.96,144.4297" fill="#FEFFDD" style="stroke:#181818;stroke-width:0.5;"/><path d="M739.96,144.4297 L739.96,154.4297 L749.96,154.4297 L739.96,144.4297" fill="#FEFFDD" style="stroke:#181818;stroke-width:0.5;"/><text fill="#000000" font-family="sans-serif" font-size="13" font-weight="bold" lengthAdjust="spacing" textLength="78.0127" x="424.96" y="161.4966">Asociaci&#243;n</text><text fill="#000000" font-family="sans-serif" font-size="13" lengthAdjust="spacing" textLength="159.8276" x="502.9727" y="161.4966">: Existe una conexi&#243;n de</text><text fill="#000000" font-family="sans-serif" font-size="13" lengthAdjust="spacing" textLength="310.7622" x="424.96" y="176.6294">flujo; la decisi&#243;n desencadena un nuevo objeto.</text></g><!--link Decision to Opcion--><g class="link" data-entity-1="ent0002" data-entity-2="ent0005" data-link-type="dependency" data-source-line="14" id="lnk8"><path codeLine="14" d="M463.13,70.6069 C545.95,73.8769 715.2,85.0569 758.96,122.2969 C787.32,146.4369 794.7533,185.4443 796.8533,212.9543" fill="none" id="Decision-to-Opcion" style="stroke:#181818;stroke-width:1;"/><polygon fill="#181818" points="797.31,218.9369,800.6134,209.6585,796.9294,213.9514,792.6366,210.2674,797.31,218.9369" style="stroke:#181818;stroke-width:1;"/><text fill="#000000" font-family="sans-serif" font-size="13" lengthAdjust="spacing" textLength="31.4717" x="932.42" y="135.3638">elige</text><path d="M796.96,144.4297 L796.96,184.4297 L1098.96,184.4297 L1098.96,154.4297 L1088.96,144.4297 L796.96,144.4297" fill="#FEFFDD" style="stroke:#181818;stroke-width:0.5;"/><path d="M1088.96,144.4297 L1088.96,154.4297 L1098.96,154.4297 L1088.96,144.4297" fill="#FEFFDD" style="stroke:#181818;stroke-width:0.5;"/><text fill="#000000" font-family="sans-serif" font-size="13" font-weight="bold" lengthAdjust="spacing" textLength="78.0127" x="802.96" y="161.4966">Asociaci&#243;n</text><text fill="#000000" font-family="sans-serif" font-size="13" lengthAdjust="spacing" textLength="203.3789" x="880.9727" y="161.4966">: La decisi&#243;n vincula el proceso</text><text fill="#000000" font-family="sans-serif" font-size="13" lengthAdjust="spacing" textLength="254.5093" x="802.96" y="176.6294">mental con una de las opciones reales.</text></g><?plantuml-src bP4zJiH038NxEONhI1j1a2Y2XFZjG5mWZJFneWaJEwndehqNH-1YE26WQ1j4QVlPxxETGee4Tr7UCq57SAlY0_hm-S7E-OYgy40-Q11UmsT9OJB5R-9UMCbdOcjSKo_ZKdS_hR3RNMyQeOOM5Ji4OiUI22mN0x_LK1GRWgAeuGaDQvvYCU2OEI5WmvaHXdNWNF4o26W6ZraH-gmfx8F7ML2US6nvZMGyo2GU_-9uF0OrmUphXUcuk7RKy3xcNguWRZaxKXkF7PawCt2cIK3QdfASqdoVoZWeXbVwrpMcm3wRByLv2Kyg3Gza1uepue9g7xM7W2mcf70WZAIbko7kyk3SULcTLPTbrLB2Yoy0?></g></svg>