<?plantuml 1.2026.2beta3?><svg xmlns="http://www.w3.org/2000/svg" xmlns:xlink="http://www.w3.org/1999/xlink" contentStyleType="text/css" data-diagram-type="CLASS" height="272px" preserveAspectRatio="none" style="width:741px;height:272px;background:#FFFFFF;" version="1.1" viewBox="0 0 741 272" width="741px" zoomAndPan="magnify"><title>Bloque de Composici&#243;n</title><defs/><g><g class="title" data-source-line="1"><text fill="#000000" font-family="sans-serif" font-size="14" font-weight="bold" lengthAdjust="spacing" textLength="183.7705" x="271.7297" y="22.9951">Bloque de Composici&#243;n</text></g><!--class Persona--><g class="entity" data-qualified-name="Persona" data-source-line="3" id="ent0002"><rect fill="#F1F1F1" height="48" rx="2.5" ry="2.5" style="stroke:#181818;stroke-width:0.5;" width="88.123" x="17.17" y="44.2969"/><ellipse cx="32.17" cy="60.2969" fill="#ADD1B2" rx="11" ry="11" style="stroke:#181818;stroke-width:1;"/><path d="M35.1388,65.9375 Q34.5606,66.2344 33.92,66.375 Q33.2794,66.5313 32.5763,66.5313 Q30.0763,66.5313 28.7481,64.8906 Q27.4356,63.2344 27.4356,60.1094 Q27.4356,56.9844 28.7481,55.3281 Q30.0763,53.6719 32.5763,53.6719 Q33.2794,53.6719 33.92,53.8281 Q34.5763,53.9844 35.1388,54.2813 L35.1388,57 Q34.5138,56.4219 33.92,56.1563 Q33.3263,55.875 32.7013,55.875 Q31.3575,55.875 30.67,56.9531 Q29.9825,58.0156 29.9825,60.1094 Q29.9825,62.2031 30.67,63.2813 Q31.3575,64.3438 32.7013,64.3438 Q33.3263,64.3438 33.92,64.0781 Q34.5138,63.7969 35.1388,63.2188 L35.1388,65.9375 Z " fill="#000000"/><text fill="#000000" font-family="sans-serif" font-size="14" lengthAdjust="spacing" textLength="56.123" x="46.17" y="65.1436">Persona</text><line style="stroke:#181818;stroke-width:0.5;" x1="18.17" x2="104.293" y1="76.2969" y2="76.2969"/><line style="stroke:#181818;stroke-width:0.5;" x1="18.17" x2="104.293" y1="84.2969" y2="84.2969"/></g><!--class Conciencia--><g class="entity" data-qualified-name="Conciencia" data-source-line="4" id="ent0003"><rect fill="#F1F1F1" height="48" rx="2.5" ry="2.5" style="stroke:#181818;stroke-width:0.5;" width="108.4531" x="7" y="217.2969"/><ellipse cx="22" cy="233.2969" fill="#ADD1B2" rx="11" ry="11" style="stroke:#181818;stroke-width:1;"/><path d="M24.9688,238.9375 Q24.3906,239.2344 23.75,239.375 Q23.1094,239.5313 22.4063,239.5313 Q19.9063,239.5313 18.5781,237.8906 Q17.2656,236.2344 17.2656,233.1094 Q17.2656,229.9844 18.5781,228.3281 Q19.9063,226.6719 22.4063,226.6719 Q23.1094,226.6719 23.75,226.8281 Q24.4063,226.9844 24.9688,227.2813 L24.9688,230 Q24.3438,229.4219 23.75,229.1563 Q23.1563,228.875 22.5313,228.875 Q21.1875,228.875 20.5,229.9531 Q19.8125,231.0156 19.8125,233.1094 Q19.8125,235.2031 20.5,236.2813 Q21.1875,237.3438 22.5313,237.3438 Q23.1563,237.3438 23.75,237.0781 Q24.3438,236.7969 24.9688,236.2188 L24.9688,238.9375 Z " fill="#000000"/><text fill="#000000" font-family="sans-serif" font-size="14" lengthAdjust="spacing" textLength="76.4531" x="36" y="238.1436">Conciencia</text><line style="stroke:#181818;stroke-width:0.5;" x1="8" x2="114.4531" y1="249.2969" y2="249.2969"/><line style="stroke:#181818;stroke-width:0.5;" x1="8" x2="114.4531" y1="257.2969" y2="257.2969"/></g><!--class Situacion--><g class="entity" data-qualified-name="Situacion" data-source-line="5" id="ent0004"><rect fill="#F1F1F1" height="48" rx="2.5" ry="2.5" style="stroke:#181818;stroke-width:0.5;" width="96.7432" x="374.85" y="44.2969"/><ellipse cx="389.85" cy="60.2969" fill="#ADD1B2" rx="11" ry="11" style="stroke:#181818;stroke-width:1;"/><path d="M392.8188,65.9375 Q392.2406,66.2344 391.6,66.375 Q390.9594,66.5313 390.2563,66.5313 Q387.7563,66.5313 386.4281,64.8906 Q385.1156,63.2344 385.1156,60.1094 Q385.1156,56.9844 386.4281,55.3281 Q387.7563,53.6719 390.2563,53.6719 Q390.9594,53.6719 391.6,53.8281 Q392.2563,53.9844 392.8188,54.2813 L392.8188,57 Q392.1938,56.4219 391.6,56.1563 Q391.0063,55.875 390.3813,55.875 Q389.0375,55.875 388.35,56.9531 Q387.6625,58.0156 387.6625,60.1094 Q387.6625,62.2031 388.35,63.2813 Q389.0375,64.3438 390.3813,64.3438 Q391.0063,64.3438 391.6,64.0781 Q392.1938,63.7969 392.8188,63.2188 L392.8188,65.9375 Z " fill="#000000"/><text fill="#000000" font-family="sans-serif" font-size="14" lengthAdjust="spacing" textLength="64.7432" x="403.85" y="65.1436">Situacion</text><line style="stroke:#181818;stroke-width:0.5;" x1="375.85" x2="470.5932" y1="76.2969" y2="76.2969"/><line style="stroke:#181818;stroke-width:0.5;" x1="375.85" x2="470.5932" y1="84.2969" y2="84.2969"/></g><!--class Opcion--><g class="entity" data-qualified-name="Opcion" data-source-line="6" id="ent0005"><rect fill="#F1F1F1" height="48" rx="2.5" ry="2.5" style="stroke:#181818;stroke-width:0.5;" width="80.9316" x="382.76" y="217.2969"/><ellipse cx="397.76" cy="233.2969" fill="#ADD1B2" rx="11" ry="11" style="stroke:#181818;stroke-width:1;"/><path d="M400.7288,238.9375 Q400.1506,239.2344 399.51,239.375 Q398.8694,239.5313 398.1663,239.5313 Q395.6663,239.5313 394.3381,237.8906 Q393.0256,236.2344 393.0256,233.1094 Q393.0256,229.9844 394.3381,228.3281 Q395.6663,226.6719 398.1663,226.6719 Q398.8694,226.6719 399.51,226.8281 Q400.1663,226.9844 400.7288,227.2813 L400.7288,230 Q400.1038,229.4219 399.51,229.1563 Q398.9163,228.875 398.2913,228.875 Q396.9475,228.875 396.26,229.9531 Q395.5725,231.0156 395.5725,233.1094 Q395.5725,235.2031 396.26,236.2813 Q396.9475,237.3438 398.2913,237.3438 Q398.9163,237.3438 399.51,237.0781 Q400.1038,236.7969 400.7288,236.2188 L400.7288,238.9375 Z " fill="#000000"/><text fill="#000000" font-family="sans-serif" font-size="14" lengthAdjust="spacing" textLength="48.9316" x="411.76" y="238.1436">Opcion</text><line style="stroke:#181818;stroke-width:0.5;" x1="383.76" x2="462.6916" y1="249.2969" y2="249.2969"/><line style="stroke:#181818;stroke-width:0.5;" x1="383.76" x2="462.6916" y1="257.2969" y2="257.2969"/></g><!--reverse link Persona to Conciencia--><g class="link" data-entity-1="ent0002" data-entity-2="ent0003" data-link-type="composition" data-source-line="8" id="lnk6"><path codeLine="8" d="M58.8809,104.7447 C58.3209,113.9447 58.5,112.6269 58.23,122.2969 C57.41,151.1769 57.41,158.4169 58.23,187.2969 C58.5,196.9669 59.05,207.6269 59.61,216.8269" fill="none" id="Persona-backto-Conciencia" style="stroke:#181818;stroke-width:1;"/><polygon fill="#181818" points="59.61,92.7669,55.2528,98.5128,58.8809,104.7447,63.2381,98.9988,59.61,92.7669" style="stroke:#181818;stroke-width:1;"/><path d="M63.23,127.2969 L63.23,182.2969 L375.23,182.2969 L375.23,137.2969 L365.23,127.2969 L63.23,127.2969" fill="#FEFFDD" style="stroke:#181818;stroke-width:0.5;"/><path d="M365.23,127.2969 L365.23,137.2969 L375.23,137.2969 L365.23,127.2969" fill="#FEFFDD" style="stroke:#181818;stroke-width:0.5;"/><text fill="#000000" font-family="sans-serif" font-size="13" font-weight="bold" lengthAdjust="spacing" textLength="92.7964" x="69.23" y="144.3638">Composici&#243;n</text><text fill="#000000" font-family="sans-serif" font-size="13" lengthAdjust="spacing" textLength="188.1128" x="162.0264" y="144.3638">: La conciencia es intr&#237;nseca.</text><text fill="#000000" font-family="sans-serif" font-size="13" lengthAdjust="spacing" textLength="291.3765" x="69.23" y="159.4966">No se concibe una persona (en este modelo)</text><text fill="#000000" font-family="sans-serif" font-size="13" lengthAdjust="spacing" textLength="231.5625" x="69.23" y="174.6294">sin su capacidad de ser consciente.</text></g><!--reverse link Situacion to Opcion--><g class="link" data-entity-1="ent0004" data-entity-2="ent0005" data-link-type="composition" data-source-line="11" id="lnk7"><path codeLine="11" d="M423.23,104.7169 C423.23,137.3669 423.23,184.2369 423.23,216.8869" fill="none" id="Situacion-backto-Opcion" style="stroke:#181818;stroke-width:1;"/><polygon fill="#181818" points="423.23,92.7169,419.23,98.7169,423.23,104.7169,427.23,98.7169,423.23,92.7169" style="stroke:#181818;stroke-width:1;"/><path d="M428.23,127.2969 L428.23,182.2969 L734.23,182.2969 L734.23,137.2969 L724.23,127.2969 L428.23,127.2969" fill="#FEFFDD" style="stroke:#181818;stroke-width:0.5;"/><path d="M724.23,127.2969 L724.23,137.2969 L734.23,137.2969 L724.23,127.2969" fill="#FEFFDD" style="stroke:#181818;stroke-width:0.5;"/><text fill="#000000" font-family="sans-serif" font-size="13" font-weight="bold" lengthAdjust="spacing" textLength="92.7964" x="434.23" y="144.3638">Composici&#243;n</text><text fill="#000000" font-family="sans-serif" font-size="13" lengthAdjust="spacing" textLength="175.1064" x="527.0264" y="144.3638">: Una situaci&#243;n de decisi&#243;n</text><text fill="#000000" font-family="sans-serif" font-size="13" lengthAdjust="spacing" textLength="237.5039" x="434.23" y="159.4966">existe solo porque existen opciones.</text><text fill="#000000" font-family="sans-serif" font-size="13" lengthAdjust="spacing" textLength="285.8413" x="434.23" y="174.6294">Sin opciones, no hay situaci&#243;n que analizar.</text></g><?plantuml-src XL0xJiGm4ErzYYaXOYC84iLMY6qH8AteqipQ8p72cGaPHmBkHCKHzcBOILZIKRXuJ-ytJfmYmLtKjv4W4EoqwzNOy_5RdFCHpU291bF11UrKF5D-lyIUquYULHRys4_0BJQeDfkrIJGHg41aUTr2LQqRgseBzmZ-f0OoO4d3yKkCFDQjF2WOpOe3mPZp-wNdZ2JBStYdWQAUjs8iO2DuxFE-WA4SQ3GKjvM2HBLpf_dJq6NyVoEVSv_DnioKt42UhO1Mw9tB3DEeqEjGVdQc17IA9yk7xFaFNe0elE37EhFOK33o9mwrkoK9O-VSLTrSDZTrSw24rpy0?></g></svg>