<?plantuml 1.2026.2beta3?><svg xmlns="http://www.w3.org/2000/svg" xmlns:xlink="http://www.w3.org/1999/xlink" contentStyleType="text/css" data-diagram-type="CLASS" height="349px" preserveAspectRatio="none" style="width:832px;height:349px;background:#FFFFFF;" version="1.1" viewBox="0 0 832 349" width="832px" zoomAndPan="magnify"><title>Modelo de Dominio:  Decisi&#243;n</title><defs/><g><g class="title" data-source-line="1"><text fill="#000000" font-family="sans-serif" font-size="14" font-weight="bold" lengthAdjust="spacing" textLength="234.0352" x="292.4293" y="22.9951">Modelo de Dominio:  Decisi&#243;n</text></g><!--class Persona--><g class="entity" data-qualified-name="Persona" data-source-line="4" id="ent0002"><rect fill="#F1F1F1" height="48" rx="2.5" ry="2.5" style="stroke:#181818;stroke-width:0.5;" width="88.123" x="226.17" y="169.2969"/><ellipse cx="241.17" cy="185.2969" fill="#ADD1B2" rx="11" ry="11" style="stroke:#181818;stroke-width:1;"/><path d="M244.1388,190.9375 Q243.5606,191.2344 242.92,191.375 Q242.2794,191.5313 241.5763,191.5313 Q239.0763,191.5313 237.7481,189.8906 Q236.4356,188.2344 236.4356,185.1094 Q236.4356,181.9844 237.7481,180.3281 Q239.0763,178.6719 241.5763,178.6719 Q242.2794,178.6719 242.92,178.8281 Q243.5763,178.9844 244.1388,179.2813 L244.1388,182 Q243.5138,181.4219 242.92,181.1563 Q242.3263,180.875 241.7013,180.875 Q240.3575,180.875 239.67,181.9531 Q238.9825,183.0156 238.9825,185.1094 Q238.9825,187.2031 239.67,188.2813 Q240.3575,189.3438 241.7013,189.3438 Q242.3263,189.3438 242.92,189.0781 Q243.5138,188.7969 244.1388,188.2188 L244.1388,190.9375 Z " fill="#000000"/><text fill="#000000" font-family="sans-serif" font-size="14" lengthAdjust="spacing" textLength="56.123" x="255.17" y="190.1436">Persona</text><line style="stroke:#181818;stroke-width:0.5;" x1="227.17" x2="313.293" y1="201.2969" y2="201.2969"/><line style="stroke:#181818;stroke-width:0.5;" x1="227.17" x2="313.293" y1="209.2969" y2="209.2969"/></g><!--class Conciencia--><g class="entity" data-qualified-name="Conciencia" data-source-line="5" id="ent0003"><rect fill="#F1F1F1" height="48" rx="2.5" ry="2.5" style="stroke:#181818;stroke-width:0.5;" width="108.4531" x="7" y="294.2969"/><ellipse cx="22" cy="310.2969" fill="#ADD1B2" rx="11" ry="11" style="stroke:#181818;stroke-width:1;"/><path d="M24.9688,315.9375 Q24.3906,316.2344 23.75,316.375 Q23.1094,316.5313 22.4063,316.5313 Q19.9063,316.5313 18.5781,314.8906 Q17.2656,313.2344 17.2656,310.1094 Q17.2656,306.9844 18.5781,305.3281 Q19.9063,303.6719 22.4063,303.6719 Q23.1094,303.6719 23.75,303.8281 Q24.4063,303.9844 24.9688,304.2813 L24.9688,307 Q24.3438,306.4219 23.75,306.1563 Q23.1563,305.875 22.5313,305.875 Q21.1875,305.875 20.5,306.9531 Q19.8125,308.0156 19.8125,310.1094 Q19.8125,312.2031 20.5,313.2813 Q21.1875,314.3438 22.5313,314.3438 Q23.1563,314.3438 23.75,314.0781 Q24.3438,313.7969 24.9688,313.2188 L24.9688,315.9375 Z " fill="#000000"/><text fill="#000000" font-family="sans-serif" font-size="14" lengthAdjust="spacing" textLength="76.4531" x="36" y="315.1436">Conciencia</text><line style="stroke:#181818;stroke-width:0.5;" x1="8" x2="114.4531" y1="326.2969" y2="326.2969"/><line style="stroke:#181818;stroke-width:0.5;" x1="8" x2="114.4531" y1="334.2969" y2="334.2969"/></g><!--class Contexto--><g class="entity" data-qualified-name="Contexto" data-source-line="6" id="ent0004"><rect fill="#F1F1F1" height="48" rx="2.5" ry="2.5" style="stroke:#181818;stroke-width:0.5;" width="95.6563" x="150.4" y="294.2969"/><ellipse cx="165.4" cy="310.2969" fill="#ADD1B2" rx="11" ry="11" style="stroke:#181818;stroke-width:1;"/><path d="M168.3688,315.9375 Q167.7906,316.2344 167.15,316.375 Q166.5094,316.5313 165.8063,316.5313 Q163.3063,316.5313 161.9781,314.8906 Q160.6656,313.2344 160.6656,310.1094 Q160.6656,306.9844 161.9781,305.3281 Q163.3063,303.6719 165.8063,303.6719 Q166.5094,303.6719 167.15,303.8281 Q167.8063,303.9844 168.3688,304.2813 L168.3688,307 Q167.7438,306.4219 167.15,306.1563 Q166.5563,305.875 165.9313,305.875 Q164.5875,305.875 163.9,306.9531 Q163.2125,308.0156 163.2125,310.1094 Q163.2125,312.2031 163.9,313.2813 Q164.5875,314.3438 165.9313,314.3438 Q166.5563,314.3438 167.15,314.0781 Q167.7438,313.7969 168.3688,313.2188 L168.3688,315.9375 Z " fill="#000000"/><text fill="#000000" font-family="sans-serif" font-size="14" lengthAdjust="spacing" textLength="63.6563" x="179.4" y="315.1436">Contexto</text><line style="stroke:#181818;stroke-width:0.5;" x1="151.4" x2="245.0563" y1="326.2969" y2="326.2969"/><line style="stroke:#181818;stroke-width:0.5;" x1="151.4" x2="245.0563" y1="334.2969" y2="334.2969"/></g><!--class Capacidades--><g class="entity" data-qualified-name="Capacidades" data-source-line="7" id="ent0005"><rect fill="#F1F1F1" height="48" rx="2.5" ry="2.5" style="stroke:#181818;stroke-width:0.5;" width="121.667" x="281.39" y="294.2969"/><ellipse cx="296.39" cy="310.2969" fill="#ADD1B2" rx="11" ry="11" style="stroke:#181818;stroke-width:1;"/><path d="M299.3588,315.9375 Q298.7806,316.2344 298.14,316.375 Q297.4994,316.5313 296.7963,316.5313 Q294.2963,316.5313 292.9681,314.8906 Q291.6556,313.2344 291.6556,310.1094 Q291.6556,306.9844 292.9681,305.3281 Q294.2963,303.6719 296.7963,303.6719 Q297.4994,303.6719 298.14,303.8281 Q298.7963,303.9844 299.3588,304.2813 L299.3588,307 Q298.7338,306.4219 298.14,306.1563 Q297.5463,305.875 296.9213,305.875 Q295.5775,305.875 294.89,306.9531 Q294.2025,308.0156 294.2025,310.1094 Q294.2025,312.2031 294.89,313.2813 Q295.5775,314.3438 296.9213,314.3438 Q297.5463,314.3438 298.14,314.0781 Q298.7338,313.7969 299.3588,313.2188 L299.3588,315.9375 Z " fill="#000000"/><text fill="#000000" font-family="sans-serif" font-size="14" lengthAdjust="spacing" textLength="89.667" x="310.39" y="315.1436">Capacidades</text><line style="stroke:#181818;stroke-width:0.5;" x1="282.39" x2="402.057" y1="326.2969" y2="326.2969"/><line style="stroke:#181818;stroke-width:0.5;" x1="282.39" x2="402.057" y1="334.2969" y2="334.2969"/></g><!--class Situacion--><g class="entity" data-qualified-name="Situacion" data-source-line="8" id="ent0006"><rect fill="#F1F1F1" height="48" rx="2.5" ry="2.5" style="stroke:#181818;stroke-width:0.5;" width="96.7432" x="427.85" y="169.2969"/><ellipse cx="442.85" cy="185.2969" fill="#ADD1B2" rx="11" ry="11" style="stroke:#181818;stroke-width:1;"/><path d="M445.8188,190.9375 Q445.2406,191.2344 444.6,191.375 Q443.9594,191.5313 443.2563,191.5313 Q440.7563,191.5313 439.4281,189.8906 Q438.1156,188.2344 438.1156,185.1094 Q438.1156,181.9844 439.4281,180.3281 Q440.7563,178.6719 443.2563,178.6719 Q443.9594,178.6719 444.6,178.8281 Q445.2563,178.9844 445.8188,179.2813 L445.8188,182 Q445.1938,181.4219 444.6,181.1563 Q444.0063,180.875 443.3813,180.875 Q442.0375,180.875 441.35,181.9531 Q440.6625,183.0156 440.6625,185.1094 Q440.6625,187.2031 441.35,188.2813 Q442.0375,189.3438 443.3813,189.3438 Q444.0063,189.3438 444.6,189.0781 Q445.1938,188.7969 445.8188,188.2188 L445.8188,190.9375 Z " fill="#000000"/><text fill="#000000" font-family="sans-serif" font-size="14" lengthAdjust="spacing" textLength="64.7432" x="456.85" y="190.1436">Situacion</text><line style="stroke:#181818;stroke-width:0.5;" x1="428.85" x2="523.5932" y1="201.2969" y2="201.2969"/><line style="stroke:#181818;stroke-width:0.5;" x1="428.85" x2="523.5932" y1="209.2969" y2="209.2969"/></g><!--class Opcion--><g class="entity" data-qualified-name="Opcion" data-source-line="9" id="ent0007"><rect fill="#F1F1F1" height="48" rx="2.5" ry="2.5" style="stroke:#181818;stroke-width:0.5;" width="80.9316" x="437.76" y="294.2969"/><ellipse cx="452.76" cy="310.2969" fill="#ADD1B2" rx="11" ry="11" style="stroke:#181818;stroke-width:1;"/><path d="M455.7288,315.9375 Q455.1506,316.2344 454.51,316.375 Q453.8694,316.5313 453.1663,316.5313 Q450.6663,316.5313 449.3381,314.8906 Q448.0256,313.2344 448.0256,310.1094 Q448.0256,306.9844 449.3381,305.3281 Q450.6663,303.6719 453.1663,303.6719 Q453.8694,303.6719 454.51,303.8281 Q455.1663,303.9844 455.7288,304.2813 L455.7288,307 Q455.1038,306.4219 454.51,306.1563 Q453.9163,305.875 453.2913,305.875 Q451.9475,305.875 451.26,306.9531 Q450.5725,308.0156 450.5725,310.1094 Q450.5725,312.2031 451.26,313.2813 Q451.9475,314.3438 453.2913,314.3438 Q453.9163,314.3438 454.51,314.0781 Q455.1038,313.7969 455.7288,313.2188 L455.7288,315.9375 Z " fill="#000000"/><text fill="#000000" font-family="sans-serif" font-size="14" lengthAdjust="spacing" textLength="48.9316" x="466.76" y="315.1436">Opcion</text><line style="stroke:#181818;stroke-width:0.5;" x1="438.76" x2="517.6916" y1="326.2969" y2="326.2969"/><line style="stroke:#181818;stroke-width:0.5;" x1="438.76" x2="517.6916" y1="334.2969" y2="334.2969"/></g><!--class Analisis--><g class="entity" data-qualified-name="Analisis" data-source-line="10" id="ent0008"><rect fill="#F1F1F1" height="48" rx="2.5" ry="2.5" style="stroke:#181818;stroke-width:0.5;" width="85.2861" x="433.58" y="44.2969"/><ellipse cx="448.58" cy="60.2969" fill="#ADD1B2" rx="11" ry="11" style="stroke:#181818;stroke-width:1;"/><path d="M451.5488,65.9375 Q450.9706,66.2344 450.33,66.375 Q449.6894,66.5313 448.9863,66.5313 Q446.4863,66.5313 445.1581,64.8906 Q443.8456,63.2344 443.8456,60.1094 Q443.8456,56.9844 445.1581,55.3281 Q446.4863,53.6719 448.9863,53.6719 Q449.6894,53.6719 450.33,53.8281 Q450.9863,53.9844 451.5488,54.2813 L451.5488,57 Q450.9238,56.4219 450.33,56.1563 Q449.7363,55.875 449.1113,55.875 Q447.7675,55.875 447.08,56.9531 Q446.3925,58.0156 446.3925,60.1094 Q446.3925,62.2031 447.08,63.2813 Q447.7675,64.3438 449.1113,64.3438 Q449.7363,64.3438 450.33,64.0781 Q450.9238,63.7969 451.5488,63.2188 L451.5488,65.9375 Z " fill="#000000"/><text fill="#000000" font-family="sans-serif" font-size="14" lengthAdjust="spacing" textLength="53.2861" x="462.58" y="65.1436">Analisis</text><line style="stroke:#181818;stroke-width:0.5;" x1="434.58" x2="517.8661" y1="76.2969" y2="76.2969"/><line style="stroke:#181818;stroke-width:0.5;" x1="434.58" x2="517.8661" y1="84.2969" y2="84.2969"/></g><!--class Motivacion--><g class="entity" data-qualified-name="Motivacion" data-source-line="11" id="ent0009"><rect fill="#F1F1F1" height="48" rx="2.5" ry="2.5" style="stroke:#181818;stroke-width:0.5;" width="107.9131" x="553.27" y="294.2969"/><ellipse cx="568.27" cy="310.2969" fill="#ADD1B2" rx="11" ry="11" style="stroke:#181818;stroke-width:1;"/><path d="M571.2388,315.9375 Q570.6606,316.2344 570.02,316.375 Q569.3794,316.5313 568.6763,316.5313 Q566.1763,316.5313 564.8481,314.8906 Q563.5356,313.2344 563.5356,310.1094 Q563.5356,306.9844 564.8481,305.3281 Q566.1763,303.6719 568.6763,303.6719 Q569.3794,303.6719 570.02,303.8281 Q570.6763,303.9844 571.2388,304.2813 L571.2388,307 Q570.6138,306.4219 570.02,306.1563 Q569.4263,305.875 568.8013,305.875 Q567.4575,305.875 566.77,306.9531 Q566.0825,308.0156 566.0825,310.1094 Q566.0825,312.2031 566.77,313.2813 Q567.4575,314.3438 568.8013,314.3438 Q569.4263,314.3438 570.02,314.0781 Q570.6138,313.7969 571.2388,313.2188 L571.2388,315.9375 Z " fill="#000000"/><text fill="#000000" font-family="sans-serif" font-size="14" lengthAdjust="spacing" textLength="75.9131" x="582.27" y="315.1436">Motivacion</text><line style="stroke:#181818;stroke-width:0.5;" x1="554.27" x2="660.1831" y1="326.2969" y2="326.2969"/><line style="stroke:#181818;stroke-width:0.5;" x1="554.27" x2="660.1831" y1="334.2969" y2="334.2969"/></g><!--class Decision--><g class="entity" data-qualified-name="Decision" data-source-line="12" id="ent0010"><rect fill="#F1F1F1" height="48" rx="2.5" ry="2.5" style="stroke:#181818;stroke-width:0.5;" width="91.6025" x="560.43" y="169.2969"/><ellipse cx="575.43" cy="185.2969" fill="#ADD1B2" rx="11" ry="11" style="stroke:#181818;stroke-width:1;"/><path d="M578.3988,190.9375 Q577.8206,191.2344 577.18,191.375 Q576.5394,191.5313 575.8363,191.5313 Q573.3363,191.5313 572.0081,189.8906 Q570.6956,188.2344 570.6956,185.1094 Q570.6956,181.9844 572.0081,180.3281 Q573.3363,178.6719 575.8363,178.6719 Q576.5394,178.6719 577.18,178.8281 Q577.8363,178.9844 578.3988,179.2813 L578.3988,182 Q577.7738,181.4219 577.18,181.1563 Q576.5863,180.875 575.9613,180.875 Q574.6175,180.875 573.93,181.9531 Q573.2425,183.0156 573.2425,185.1094 Q573.2425,187.2031 573.93,188.2813 Q574.6175,189.3438 575.9613,189.3438 Q576.5863,189.3438 577.18,189.0781 Q577.7738,188.7969 578.3988,188.2188 L578.3988,190.9375 Z " fill="#000000"/><text fill="#000000" font-family="sans-serif" font-size="14" lengthAdjust="spacing" textLength="59.6025" x="589.43" y="190.1436">Decision</text><line style="stroke:#181818;stroke-width:0.5;" x1="561.43" x2="651.0325" y1="201.2969" y2="201.2969"/><line style="stroke:#181818;stroke-width:0.5;" x1="561.43" x2="651.0325" y1="209.2969" y2="209.2969"/></g><!--class Consecuencia--><g class="entity" data-qualified-name="Consecuencia" data-source-line="13" id="ent0011"><rect fill="#F1F1F1" height="48" rx="2.5" ry="2.5" style="stroke:#181818;stroke-width:0.5;" width="129.3438" x="696.55" y="294.2969"/><ellipse cx="711.55" cy="310.2969" fill="#ADD1B2" rx="11" ry="11" style="stroke:#181818;stroke-width:1;"/><path d="M714.5188,315.9375 Q713.9406,316.2344 713.3,316.375 Q712.6594,316.5313 711.9563,316.5313 Q709.4563,316.5313 708.1281,314.8906 Q706.8156,313.2344 706.8156,310.1094 Q706.8156,306.9844 708.1281,305.3281 Q709.4563,303.6719 711.9563,303.6719 Q712.6594,303.6719 713.3,303.8281 Q713.9563,303.9844 714.5188,304.2813 L714.5188,307 Q713.8938,306.4219 713.3,306.1563 Q712.7063,305.875 712.0813,305.875 Q710.7375,305.875 710.05,306.9531 Q709.3625,308.0156 709.3625,310.1094 Q709.3625,312.2031 710.05,313.2813 Q710.7375,314.3438 712.0813,314.3438 Q712.7063,314.3438 713.3,314.0781 Q713.8938,313.7969 714.5188,313.2188 L714.5188,315.9375 Z " fill="#000000"/><text fill="#000000" font-family="sans-serif" font-size="14" lengthAdjust="spacing" textLength="97.3438" x="725.55" y="315.1436">Consecuencia</text><line style="stroke:#181818;stroke-width:0.5;" x1="697.55" x2="824.8938" y1="326.2969" y2="326.2969"/><line style="stroke:#181818;stroke-width:0.5;" x1="697.55" x2="824.8938" y1="334.2969" y2="334.2969"/></g><!--reverse link Persona to Conciencia--><g class="link" data-entity-1="ent0002" data-entity-2="ent0003" data-link-type="composition" data-source-line="18" id="lnk12"><path codeLine="18" d="M220.0784,223.8039 C182.8884,245.6939 138.02,272.0969 100.88,293.9569" fill="none" id="Persona-backto-Conciencia" style="stroke:#181818;stroke-width:1;"/><polygon fill="#181818" points="230.42,217.7169,223.2202,217.3132,220.0784,223.8039,227.2782,224.2076,230.42,217.7169" style="stroke:#181818;stroke-width:1;"/></g><!--reverse link Persona to Capacidades--><g class="link" data-entity-1="ent0002" data-entity-2="ent0005" data-link-type="aggregation" data-source-line="21" id="lnk13"><path codeLine="21" d="M290.0009,228.0738 C302.8109,249.9638 315.77,272.0969 328.57,293.9569" fill="none" id="Persona-backto-Capacidades" style="stroke:#181818;stroke-width:1;"/><polygon fill="none" points="283.94,217.7169,283.5181,224.9156,290.0009,228.0738,290.4227,220.8751,283.94,217.7169" style="stroke:#181818;stroke-width:1;"/></g><!--reverse link Persona to Contexto--><g class="link" data-entity-1="ent0002" data-entity-2="ent0004" data-link-type="aggregation" data-source-line="22" id="lnk14"><path codeLine="22" d="M250.4491,228.0738 C237.6391,249.9638 224.68,272.0969 211.89,293.9569" fill="none" id="Persona-backto-Contexto" style="stroke:#181818;stroke-width:1;"/><polygon fill="none" points="256.51,217.7169,250.0273,220.8751,250.4491,228.0738,256.9319,224.9156,256.51,217.7169" style="stroke:#181818;stroke-width:1;"/></g><!--reverse link Situacion to Opcion--><g class="link" data-entity-1="ent0006" data-entity-2="ent0007" data-link-type="composition" data-source-line="25" id="lnk15"><path codeLine="25" d="M476.8018,229.7153 C477.1518,251.6053 477.49,272.0969 477.85,293.9569" fill="none" id="Situacion-backto-Opcion" style="stroke:#181818;stroke-width:1;"/><polygon fill="#181818" points="476.61,217.7169,472.7064,223.7801,476.8018,229.7153,480.7054,223.6522,476.61,217.7169" style="stroke:#181818;stroke-width:1;"/></g><!--link Analisis to Persona--><g class="link" data-entity-1="ent0008" data-entity-2="ent0002" data-link-type="dependency" data-source-line="28" id="lnk16"><path codeLine="28" d="M436.99,92.7169 C400.34,114.6069 351.0715,144.0209 314.4615,165.8809" fill="none" id="Analisis-to-Persona" style="stroke:#181818;stroke-width:1;stroke-dasharray:7,7;"/><polygon fill="#181818" points="309.31,168.9569,319.088,167.7772,313.6029,166.3935,314.9866,160.9085,309.31,168.9569" style="stroke:#181818;stroke-width:1;"/><text fill="#000000" font-family="sans-serif" font-size="13" lengthAdjust="spacing" textLength="55.0278" x="387.23" y="135.3638">consulta</text></g><!--link Analisis to Situacion--><g class="link" data-entity-1="ent0008" data-entity-2="ent0006" data-link-type="dependency" data-source-line="29" id="lnk17"><path codeLine="29" d="M476.23,92.7169 C476.23,114.6069 476.23,141.0969 476.23,162.9569" fill="none" id="Analisis-to-Situacion" style="stroke:#181818;stroke-width:1;stroke-dasharray:7,7;"/><polygon fill="#181818" points="476.23,168.9569,480.23,159.9569,476.23,163.9569,472.23,159.9569,476.23,168.9569" style="stroke:#181818;stroke-width:1;"/><text fill="#000000" font-family="sans-serif" font-size="13" lengthAdjust="spacing" textLength="43.4751" x="477.23" y="135.3638">eval&#250;a</text></g><!--link Analisis to Decision--><g class="link" data-entity-1="ent0008" data-entity-2="ent0010" data-link-type="dependency" data-source-line="30" id="lnk18"><path codeLine="30" d="M500.98,92.7169 C524.12,114.6069 554.102,142.9728 577.202,164.8328" fill="none" id="Analisis-to-Decision" style="stroke:#181818;stroke-width:1;stroke-dasharray:7,7;"/><polygon fill="#181818" points="581.56,168.9569,577.7724,159.8655,577.9283,165.5202,572.2736,165.6761,581.56,168.9569" style="stroke:#181818;stroke-width:1;"/><text fill="#000000" font-family="sans-serif" font-size="13" lengthAdjust="spacing" textLength="45.7983" x="550.23" y="135.3638">genera</text></g><!--link Decision to Motivacion--><g class="link" data-entity-1="ent0010" data-entity-2="ent0009" data-link-type="dependency" data-source-line="33" id="lnk19"><path codeLine="33" d="M606.42,217.7169 C606.59,239.6069 606.8106,266.0971 606.9906,287.9571" fill="none" id="Decision-to-Motivacion" style="stroke:#181818;stroke-width:1;"/><polygon fill="#181818" points="607.04,293.9569,610.9658,284.9242,606.9988,288.957,602.966,284.9901,607.04,293.9569" style="stroke:#181818;stroke-width:1;"/><text fill="#000000" font-family="sans-serif" font-size="13" lengthAdjust="spacing" textLength="67.5454" x="608.23" y="260.3638">basada en</text></g><!--link Decision to Consecuencia--><g class="link" data-entity-1="ent0010" data-entity-2="ent0011" data-link-type="dependency" data-source-line="34" id="lnk20"><path codeLine="34" d="M642.71,217.5369 C656.06,226.4469 671.11,236.9569 684.23,247.2969 C702.82,261.9469 718.1874,275.7972 733.0274,289.8772" fill="none" id="Decision-to-Consecuencia" style="stroke:#181818;stroke-width:1;"/><polygon fill="#181818" points="737.38,294.0069,733.6042,284.9105,733.7528,290.5654,728.0979,290.714,737.38,294.0069" style="stroke:#181818;stroke-width:1;"/><text fill="#000000" font-family="sans-serif" font-size="13" lengthAdjust="spacing" textLength="52.311" x="705.23" y="260.3638">provoca</text></g><!--link Decision to Opcion--><g class="link" data-entity-1="ent0010" data-entity-2="ent0007" data-link-type="dependency" data-source-line="35" id="lnk21"><path codeLine="35" d="M581.85,217.7169 C559.07,239.6069 529.5864,267.9397 506.8364,289.7997" fill="none" id="Decision-to-Opcion" style="stroke:#181818;stroke-width:1;"/><polygon fill="#181818" points="502.51,293.9569,511.7711,290.6054,506.1154,290.4926,506.2282,284.8368,502.51,293.9569" style="stroke:#181818;stroke-width:1;"/><text fill="#000000" font-family="sans-serif" font-size="13" lengthAdjust="spacing" textLength="31.4717" x="551.23" y="260.3638">elige</text></g><?plantuml-src PLAxRiCm3Dpz5KIMFW0Rw6l94218CXJe2mtQdPLPLu0ikfOSz7Vw0PswTVMFbPPbrqa73QIEnxkJlFQ6u9PpCWmvmPfBRJNF0TQajDFjjqsI8qZJ53RMwnnpSbsLA8FEmGFLZYt6QiLMQP8pQNZwy3oKMA7gEM9dgtqZBRQnlgycnTAY4Ga3zfQztat1lSAnb6MELDFlZveVDpVBrVNztMORH4ltB1DWMR7JgZCtXni4DUe6SLTXxGcqVQEQH7uIFSAfy4qS2jTv1ikYfW8ZrSPGAIFiuBqXC0XL79LrHC105aoy9UVRJzbI2WJ77TpjcAIqrn_2bCqN_rquu12UE92Hw28FCboVSlUMO-31JenR22ypU78CnskgoER1uKbd24hsN8DflmkjE2YlQbRaC3Z9KTmcmqD1bYs6Bm5pc4ckhZ4UP_k8Fms2eHsQzkSGCZnjXoZ8KYq0KNabWJiMRT7rS_jbLHE41ADaI8KhUDL2bumqQRgO_9-EzGKTvZ9XP_kewI_gSE9snmeFK7rmGR_H1Sr-0G00?></g></svg>