<?plantuml 1.2026.2beta3?><svg xmlns="http://www.w3.org/2000/svg" xmlns:xlink="http://www.w3.org/1999/xlink" contentStyleType="text/css" data-diagram-type="CLASS" height="289px" preserveAspectRatio="none" style="width:968px;height:289px;background:#FFFFFF;" version="1.1" viewBox="0 0 968 289" width="968px" zoomAndPan="magnify"><title>Bloque de Uso</title><defs/><g><g class="title" data-source-line="1"><text fill="#000000" font-family="sans-serif" font-size="14" font-weight="bold" lengthAdjust="spacing" textLength="113.1553" x="420.4524" y="22.9951">Bloque de Uso</text></g><!--class Analisis--><g class="entity" data-qualified-name="Analisis" data-source-line="3" id="ent0002"><rect fill="#F1F1F1" height="48" rx="2.5" ry="2.5" style="stroke:#181818;stroke-width:0.5;" width="85.2861" x="352.42" y="44.2969"/><ellipse cx="367.42" cy="60.2969" fill="#ADD1B2" rx="11" ry="11" style="stroke:#181818;stroke-width:1;"/><path d="M370.3888,65.9375 Q369.8106,66.2344 369.17,66.375 Q368.5294,66.5313 367.8263,66.5313 Q365.3263,66.5313 363.9981,64.8906 Q362.6856,63.2344 362.6856,60.1094 Q362.6856,56.9844 363.9981,55.3281 Q365.3263,53.6719 367.8263,53.6719 Q368.5294,53.6719 369.17,53.8281 Q369.8263,53.9844 370.3888,54.2813 L370.3888,57 Q369.7638,56.4219 369.17,56.1563 Q368.5763,55.875 367.9513,55.875 Q366.6075,55.875 365.92,56.9531 Q365.2325,58.0156 365.2325,60.1094 Q365.2325,62.2031 365.92,63.2813 Q366.6075,64.3438 367.9513,64.3438 Q368.5763,64.3438 369.17,64.0781 Q369.7638,63.7969 370.3888,63.2188 L370.3888,65.9375 Z " fill="#000000"/><text fill="#000000" font-family="sans-serif" font-size="14" lengthAdjust="spacing" textLength="53.2861" x="381.42" y="65.1436">Analisis</text><line style="stroke:#181818;stroke-width:0.5;" x1="353.42" x2="436.7061" y1="76.2969" y2="76.2969"/><line style="stroke:#181818;stroke-width:0.5;" x1="353.42" x2="436.7061" y1="84.2969" y2="84.2969"/></g><!--class Persona--><g class="entity" data-qualified-name="Persona" data-source-line="4" id="ent0003"><rect fill="#F1F1F1" height="48" rx="2.5" ry="2.5" style="stroke:#181818;stroke-width:0.5;" width="88.123" x="7" y="234.2969"/><ellipse cx="22" cy="250.2969" fill="#ADD1B2" rx="11" ry="11" style="stroke:#181818;stroke-width:1;"/><path d="M24.9688,255.9375 Q24.3906,256.2344 23.75,256.375 Q23.1094,256.5313 22.4063,256.5313 Q19.9063,256.5313 18.5781,254.8906 Q17.2656,253.2344 17.2656,250.1094 Q17.2656,246.9844 18.5781,245.3281 Q19.9063,243.6719 22.4063,243.6719 Q23.1094,243.6719 23.75,243.8281 Q24.4063,243.9844 24.9688,244.2813 L24.9688,247 Q24.3438,246.4219 23.75,246.1563 Q23.1563,245.875 22.5313,245.875 Q21.1875,245.875 20.5,246.9531 Q19.8125,248.0156 19.8125,250.1094 Q19.8125,252.2031 20.5,253.2813 Q21.1875,254.3438 22.5313,254.3438 Q23.1563,254.3438 23.75,254.0781 Q24.3438,253.7969 24.9688,253.2188 L24.9688,255.9375 Z " fill="#000000"/><text fill="#000000" font-family="sans-serif" font-size="14" lengthAdjust="spacing" textLength="56.123" x="36" y="255.1436">Persona</text><line style="stroke:#181818;stroke-width:0.5;" x1="8" x2="94.123" y1="266.2969" y2="266.2969"/><line style="stroke:#181818;stroke-width:0.5;" x1="8" x2="94.123" y1="274.2969" y2="274.2969"/></g><!--class Situacion--><g class="entity" data-qualified-name="Situacion" data-source-line="5" id="ent0004"><rect fill="#F1F1F1" height="48" rx="2.5" ry="2.5" style="stroke:#181818;stroke-width:0.5;" width="96.7432" x="346.69" y="234.2969"/><ellipse cx="361.69" cy="250.2969" fill="#ADD1B2" rx="11" ry="11" style="stroke:#181818;stroke-width:1;"/><path d="M364.6588,255.9375 Q364.0806,256.2344 363.44,256.375 Q362.7994,256.5313 362.0963,256.5313 Q359.5963,256.5313 358.2681,254.8906 Q356.9556,253.2344 356.9556,250.1094 Q356.9556,246.9844 358.2681,245.3281 Q359.5963,243.6719 362.0963,243.6719 Q362.7994,243.6719 363.44,243.8281 Q364.0963,243.9844 364.6588,244.2813 L364.6588,247 Q364.0338,246.4219 363.44,246.1563 Q362.8463,245.875 362.2213,245.875 Q360.8775,245.875 360.19,246.9531 Q359.5025,248.0156 359.5025,250.1094 Q359.5025,252.2031 360.19,253.2813 Q360.8775,254.3438 362.2213,254.3438 Q362.8463,254.3438 363.44,254.0781 Q364.0338,253.7969 364.6588,253.2188 L364.6588,255.9375 Z " fill="#000000"/><text fill="#000000" font-family="sans-serif" font-size="14" lengthAdjust="spacing" textLength="64.7432" x="375.69" y="255.1436">Situacion</text><line style="stroke:#181818;stroke-width:0.5;" x1="347.69" x2="442.4332" y1="266.2969" y2="266.2969"/><line style="stroke:#181818;stroke-width:0.5;" x1="347.69" x2="442.4332" y1="274.2969" y2="274.2969"/></g><!--class Decision--><g class="entity" data-qualified-name="Decision" data-source-line="6" id="ent0005"><rect fill="#F1F1F1" height="48" rx="2.5" ry="2.5" style="stroke:#181818;stroke-width:0.5;" width="91.6025" x="665.26" y="234.2969"/><ellipse cx="680.26" cy="250.2969" fill="#ADD1B2" rx="11" ry="11" style="stroke:#181818;stroke-width:1;"/><path d="M683.2288,255.9375 Q682.6506,256.2344 682.01,256.375 Q681.3694,256.5313 680.6663,256.5313 Q678.1663,256.5313 676.8381,254.8906 Q675.5256,253.2344 675.5256,250.1094 Q675.5256,246.9844 676.8381,245.3281 Q678.1663,243.6719 680.6663,243.6719 Q681.3694,243.6719 682.01,243.8281 Q682.6663,243.9844 683.2288,244.2813 L683.2288,247 Q682.6038,246.4219 682.01,246.1563 Q681.4163,245.875 680.7913,245.875 Q679.4475,245.875 678.76,246.9531 Q678.0725,248.0156 678.0725,250.1094 Q678.0725,252.2031 678.76,253.2813 Q679.4475,254.3438 680.7913,254.3438 Q681.4163,254.3438 682.01,254.0781 Q682.6038,253.7969 683.2288,253.2188 L683.2288,255.9375 Z " fill="#000000"/><text fill="#000000" font-family="sans-serif" font-size="14" lengthAdjust="spacing" textLength="59.6025" x="694.26" y="255.1436">Decision</text><line style="stroke:#181818;stroke-width:0.5;" x1="666.26" x2="755.8625" y1="266.2969" y2="266.2969"/><line style="stroke:#181818;stroke-width:0.5;" x1="666.26" x2="755.8625" y1="274.2969" y2="274.2969"/></g><!--link Analisis to Persona--><g class="link" data-entity-1="ent0002" data-entity-2="ent0003" data-link-type="dependency" data-source-line="8" id="lnk6"><path codeLine="8" d="M352.16,70.7169 C275.26,74.1769 118.39,85.6469 80.06,122.2969 C49.74,151.2869 47.0212,197.7343 48.5312,228.0143" fill="none" id="Analisis-to-Persona" style="stroke:#181818;stroke-width:1;stroke-dasharray:7,7;"/><polygon fill="#181818" points="48.83,234.0069,52.3768,224.8188,48.581,229.0131,44.3867,225.2173,48.83,234.0069" style="stroke:#181818;stroke-width:1;"/><text fill="#000000" font-family="sans-serif" font-size="13" lengthAdjust="spacing" textLength="55.0278" x="204.9238" y="135.3638">consulta</text><path d="M85.06,144.4297 L85.06,199.4297 L379.06,199.4297 L379.06,154.4297 L369.06,144.4297 L85.06,144.4297" fill="#FEFFDD" style="stroke:#181818;stroke-width:0.5;"/><path d="M369.06,144.4297 L369.06,154.4297 L379.06,154.4297 L369.06,144.4297" fill="#FEFFDD" style="stroke:#181818;stroke-width:0.5;"/><text fill="#000000" font-family="sans-serif" font-size="13" font-weight="bold" lengthAdjust="spacing" textLength="27.2251" x="91.06" y="161.4966">Uso</text><text fill="#000000" font-family="sans-serif" font-size="13" lengthAdjust="spacing" textLength="131.9868" x="118.2851" y="161.4966">: El an&#225;lisis necesita</text><text fill="#000000" font-family="sans-serif" font-size="13" lengthAdjust="spacing" textLength="273.7554" x="91.06" y="176.6294">"consultar" a la persona, pero no la posee</text><text fill="#000000" font-family="sans-serif" font-size="13" lengthAdjust="spacing" textLength="202.4268" x="91.06" y="191.7622">ni la define permanentemente.</text></g><!--link Analisis to Situacion--><g class="link" data-entity-1="ent0002" data-entity-2="ent0004" data-link-type="dependency" data-source-line="11" id="lnk7"><path codeLine="11" d="M393.45,92.7669 C392.89,101.9669 392.34,112.6269 392.06,122.2969 C391.03,158.7269 391.03,167.8669 392.06,204.2969 C392.34,213.9669 392.5255,218.638 393.0855,227.838" fill="none" id="Analisis-to-Situacion" style="stroke:#181818;stroke-width:1;stroke-dasharray:7,7;"/><polygon fill="#181818" points="393.45,233.8269,396.8958,224.6005,393.1462,228.8361,388.9106,225.0865,393.45,233.8269" style="stroke:#181818;stroke-width:1;"/><text fill="#000000" font-family="sans-serif" font-size="13" lengthAdjust="spacing" textLength="43.4751" x="508.7258" y="142.8638">eval&#250;a</text><path d="M397.06,151.9297 L397.06,191.9297 L663.06,191.9297 L663.06,161.9297 L653.06,151.9297 L397.06,151.9297" fill="#FEFFDD" style="stroke:#181818;stroke-width:0.5;"/><path d="M653.06,151.9297 L653.06,161.9297 L663.06,161.9297 L653.06,151.9297" fill="#FEFFDD" style="stroke:#181818;stroke-width:0.5;"/><text fill="#000000" font-family="sans-serif" font-size="13" font-weight="bold" lengthAdjust="spacing" textLength="27.2251" x="403.06" y="168.9966">Uso</text><text fill="#000000" font-family="sans-serif" font-size="13" lengthAdjust="spacing" textLength="218.5815" x="430.2851" y="168.9966">: Es una relaci&#243;n de uso temporal</text><text fill="#000000" font-family="sans-serif" font-size="13" lengthAdjust="spacing" textLength="236.1709" x="403.06" y="184.1294">para procesar los datos del entorno.</text></g><!--link Analisis to Decision--><g class="link" data-entity-1="ent0002" data-entity-2="ent0005" data-link-type="dependency" data-source-line="14" id="lnk8"><path codeLine="14" d="M438.04,72.1169 C507.08,77.5069 638.37,91.5769 672.06,122.2969 C703.61,151.0669 710.0446,197.5904 711.0846,227.9504" fill="none" id="Analisis-to-Decision" style="stroke:#181818;stroke-width:1;stroke-dasharray:7,7;"/><polygon fill="#181818" points="711.29,233.9469,714.9795,224.8152,711.1188,228.9498,706.9842,225.0891,711.29,233.9469" style="stroke:#181818;stroke-width:1;"/><text fill="#000000" font-family="sans-serif" font-size="13" lengthAdjust="spacing" textLength="45.7983" x="814.4997" y="142.8638">genera</text><path d="M713.06,151.9297 L713.06,191.9297 L961.06,191.9297 L961.06,161.9297 L951.06,151.9297 L713.06,151.9297" fill="#FEFFDD" style="stroke:#181818;stroke-width:0.5;"/><path d="M951.06,151.9297 L951.06,161.9297 L961.06,161.9297 L951.06,151.9297" fill="#FEFFDD" style="stroke:#181818;stroke-width:0.5;"/><text fill="#000000" font-family="sans-serif" font-size="13" font-weight="bold" lengthAdjust="spacing" textLength="27.2251" x="719.06" y="168.9966">Uso</text><text fill="#000000" font-family="sans-serif" font-size="13" lengthAdjust="spacing" textLength="199.9956" x="746.2851" y="168.9966">: El an&#225;lisis es el origen l&#243;gico,</text><text fill="#000000" font-family="sans-serif" font-size="13" lengthAdjust="spacing" textLength="227.6777" x="719.06" y="184.1294">instancia o crea el objeto Decisi&#243;n.</text></g><?plantuml-src ZP2nJiGm38RtF8LrOtMge4WCDo10i2CXjYw-r9m2Fhl4AU_3Czp6sXV3lMiPJa92YgpyINx_NrnIOO9xre-1e2DuCGqXCfh1dI0dIpRB9ygcWhDwJcN0c5Hc_K3HtxeCYmtg-cOnmGQYYWrSC8WM0XNW9EyRg2fFhAeDF3AWZ5ydgr0aImLRMIs-l084HkXF7TVJHa7qUAP6r8gaINJqceIcwpqAIQ7zLEepi5z-HwDFvF7xRpA3mR-GYTqm7cGQqs0AthdNZDnAZzaXiZeqPc0rwB1CbHWyNBFeUVuoBu_VaL3-trp85uFcv1xWyR1BKTUj9B624XE2Gio4nqVRDoewvpXr7Mv9kc4VmcNTN3JNTREbWbS_?></g></svg>