<svg xmlns="http://www.w3.org/2000/svg" xmlns:xlink="http://www.w3.org/1999/xlink" contentStyleType="text/css" data-diagram-type="CLASS" height="562px" preserveAspectRatio="none" style="width:551px;height:562px;background:#FFFFFF;" version="1.1" viewBox="0 0 551 562" width="551px" zoomAndPan="magnify"><defs/><g><!--class Artista--><g class="entity" data-entity="Artista" data-source-line="1" data-uid="ent0002" id="entity_Artista"><rect fill="#F1F1F1" height="48" rx="2.5" ry="2.5" style="stroke:#181818;stroke-width:0.5;" width="78.0742" x="45.5" y="132"/><ellipse cx="60.5" cy="148" fill="#ADD1B2" rx="11" ry="11" style="stroke:#181818;stroke-width:1;"/><path d="M63.4688,153.6406 Q62.8906,153.9375 62.25,154.0781 Q61.6094,154.2344 60.9063,154.2344 Q58.4063,154.2344 57.0781,152.5938 Q55.7656,150.9375 55.7656,147.8125 Q55.7656,144.6875 57.0781,143.0313 Q58.4063,141.375 60.9063,141.375 Q61.6094,141.375 62.25,141.5313 Q62.9063,141.6875 63.4688,141.9844 L63.4688,144.7031 Q62.8438,144.125 62.25,143.8594 Q61.6563,143.5781 61.0313,143.5781 Q59.6875,143.5781 59,144.6563 Q58.3125,145.7188 58.3125,147.8125 Q58.3125,149.9063 59,150.9844 Q59.6875,152.0469 61.0313,152.0469 Q61.6563,152.0469 62.25,151.7813 Q62.8438,151.5 63.4688,150.9219 L63.4688,153.6406 Z " fill="#000000"/><text fill="#000000" font-family="sans-serif" font-size="14" lengthAdjust="spacing" textLength="46.0742" x="74.5" y="152.8467">Artista</text><line style="stroke:#181818;stroke-width:0.5;" x1="46.5" x2="122.5742" y1="164" y2="164"/><line style="stroke:#181818;stroke-width:0.5;" x1="46.5" x2="122.5742" y1="172" y2="172"/></g><!--class Album--><g class="entity" data-entity="Album" data-source-line="2" data-uid="ent0003" id="entity_Album"><rect fill="#F1F1F1" height="48" rx="2.5" ry="2.5" style="stroke:#181818;stroke-width:0.5;" width="76.8643" x="7" y="257"/><ellipse cx="22" cy="273" fill="#ADD1B2" rx="11" ry="11" style="stroke:#181818;stroke-width:1;"/><path d="M24.9688,278.6406 Q24.3906,278.9375 23.75,279.0781 Q23.1094,279.2344 22.4063,279.2344 Q19.9063,279.2344 18.5781,277.5938 Q17.2656,275.9375 17.2656,272.8125 Q17.2656,269.6875 18.5781,268.0313 Q19.9063,266.375 22.4063,266.375 Q23.1094,266.375 23.75,266.5313 Q24.4063,266.6875 24.9688,266.9844 L24.9688,269.7031 Q24.3438,269.125 23.75,268.8594 Q23.1563,268.5781 22.5313,268.5781 Q21.1875,268.5781 20.5,269.6563 Q19.8125,270.7188 19.8125,272.8125 Q19.8125,274.9063 20.5,275.9844 Q21.1875,277.0469 22.5313,277.0469 Q23.1563,277.0469 23.75,276.7813 Q24.3438,276.5 24.9688,275.9219 L24.9688,278.6406 Z " fill="#000000"/><text fill="#000000" font-family="sans-serif" font-size="14" lengthAdjust="spacing" textLength="44.8643" x="36" y="277.8467">Album</text><line style="stroke:#181818;stroke-width:0.5;" x1="8" x2="82.8643" y1="289" y2="289"/><line style="stroke:#181818;stroke-width:0.5;" x1="8" x2="82.8643" y1="297" y2="297"/></g><!--class Cancion--><g class="entity" data-entity="Cancion" data-source-line="3" data-uid="ent0004" id="entity_Cancion"><rect fill="#F1F1F1" height="48" rx="2.5" ry="2.5" style="stroke:#181818;stroke-width:0.5;" width="88.2529" x="156.5" y="382"/><ellipse cx="171.5" cy="398" fill="#ADD1B2" rx="11" ry="11" style="stroke:#181818;stroke-width:1;"/><path d="M174.4688,403.6406 Q173.8906,403.9375 173.25,404.0781 Q172.6094,404.2344 171.9063,404.2344 Q169.4063,404.2344 168.0781,402.5938 Q166.7656,400.9375 166.7656,397.8125 Q166.7656,394.6875 168.0781,393.0313 Q169.4063,391.375 171.9063,391.375 Q172.6094,391.375 173.25,391.5313 Q173.9063,391.6875 174.4688,391.9844 L174.4688,394.7031 Q173.8438,394.125 173.25,393.8594 Q172.6563,393.5781 172.0313,393.5781 Q170.6875,393.5781 170,394.6563 Q169.3125,395.7188 169.3125,397.8125 Q169.3125,399.9063 170,400.9844 Q170.6875,402.0469 172.0313,402.0469 Q172.6563,402.0469 173.25,401.7813 Q173.8438,401.5 174.4688,400.9219 L174.4688,403.6406 Z " fill="#000000"/><text fill="#000000" font-family="sans-serif" font-size="14" lengthAdjust="spacing" textLength="56.2529" x="185.5" y="402.8467">Cancion</text><line style="stroke:#181818;stroke-width:0.5;" x1="157.5" x2="243.7529" y1="414" y2="414"/><line style="stroke:#181818;stroke-width:0.5;" x1="157.5" x2="243.7529" y1="422" y2="422"/></g><!--class Letra--><g class="entity" data-entity="Letra" data-source-line="4" data-uid="ent0005" id="entity_Letra"><rect fill="#F1F1F1" height="48" rx="2.5" ry="2.5" style="stroke:#181818;stroke-width:0.5;" width="68.2373" x="111.5" y="507"/><ellipse cx="126.5" cy="523" fill="#ADD1B2" rx="11" ry="11" style="stroke:#181818;stroke-width:1;"/><path d="M129.4688,528.6406 Q128.8906,528.9375 128.25,529.0781 Q127.6094,529.2344 126.9063,529.2344 Q124.4063,529.2344 123.0781,527.5938 Q121.7656,525.9375 121.7656,522.8125 Q121.7656,519.6875 123.0781,518.0313 Q124.4063,516.375 126.9063,516.375 Q127.6094,516.375 128.25,516.5313 Q128.9063,516.6875 129.4688,516.9844 L129.4688,519.7031 Q128.8438,519.125 128.25,518.8594 Q127.6563,518.5781 127.0313,518.5781 Q125.6875,518.5781 125,519.6563 Q124.3125,520.7188 124.3125,522.8125 Q124.3125,524.9063 125,525.9844 Q125.6875,527.0469 127.0313,527.0469 Q127.6563,527.0469 128.25,526.7813 Q128.8438,526.5 129.4688,525.9219 L129.4688,528.6406 Z " fill="#000000"/><text fill="#000000" font-family="sans-serif" font-size="14" lengthAdjust="spacing" textLength="36.2373" x="140.5" y="527.8467">Letra</text><line style="stroke:#181818;stroke-width:0.5;" x1="112.5" x2="178.7373" y1="539" y2="539"/><line style="stroke:#181818;stroke-width:0.5;" x1="112.5" x2="178.7373" y1="547" y2="547"/></g><!--class Genero--><g class="entity" data-entity="Genero" data-source-line="5" data-uid="ent0006" id="entity_Genero"><rect fill="#F1F1F1" height="48" rx="2.5" ry="2.5" style="stroke:#181818;stroke-width:0.5;" width="83.2695" x="215" y="507"/><ellipse cx="230" cy="523" fill="#ADD1B2" rx="11" ry="11" style="stroke:#181818;stroke-width:1;"/><path d="M232.9688,528.6406 Q232.3906,528.9375 231.75,529.0781 Q231.1094,529.2344 230.4063,529.2344 Q227.9063,529.2344 226.5781,527.5938 Q225.2656,525.9375 225.2656,522.8125 Q225.2656,519.6875 226.5781,518.0313 Q227.9063,516.375 230.4063,516.375 Q231.1094,516.375 231.75,516.5313 Q232.4063,516.6875 232.9688,516.9844 L232.9688,519.7031 Q232.3438,519.125 231.75,518.8594 Q231.1563,518.5781 230.5313,518.5781 Q229.1875,518.5781 228.5,519.6563 Q227.8125,520.7188 227.8125,522.8125 Q227.8125,524.9063 228.5,525.9844 Q229.1875,527.0469 230.5313,527.0469 Q231.1563,527.0469 231.75,526.7813 Q232.3438,526.5 232.9688,525.9219 L232.9688,528.6406 Z " fill="#000000"/><text fill="#000000" font-family="sans-serif" font-size="14" lengthAdjust="spacing" textLength="51.2695" x="244" y="527.8467">Genero</text><line style="stroke:#181818;stroke-width:0.5;" x1="216" x2="297.2695" y1="539" y2="539"/><line style="stroke:#181818;stroke-width:0.5;" x1="216" x2="297.2695" y1="547" y2="547"/></g><!--class Playlist--><g class="entity" data-entity="Playlist" data-source-line="6" data-uid="ent0007" id="entity_Playlist"><rect fill="#F1F1F1" height="48" rx="2.5" ry="2.5" style="stroke:#181818;stroke-width:0.5;" width="81.7588" x="238.5" y="257"/><ellipse cx="253.5" cy="273" fill="#ADD1B2" rx="11" ry="11" style="stroke:#181818;stroke-width:1;"/><path d="M256.4688,278.6406 Q255.8906,278.9375 255.25,279.0781 Q254.6094,279.2344 253.9063,279.2344 Q251.4063,279.2344 250.0781,277.5938 Q248.7656,275.9375 248.7656,272.8125 Q248.7656,269.6875 250.0781,268.0313 Q251.4063,266.375 253.9063,266.375 Q254.6094,266.375 255.25,266.5313 Q255.9063,266.6875 256.4688,266.9844 L256.4688,269.7031 Q255.8438,269.125 255.25,268.8594 Q254.6563,268.5781 254.0313,268.5781 Q252.6875,268.5781 252,269.6563 Q251.3125,270.7188 251.3125,272.8125 Q251.3125,274.9063 252,275.9844 Q252.6875,277.0469 254.0313,277.0469 Q254.6563,277.0469 255.25,276.7813 Q255.8438,276.5 256.4688,275.9219 L256.4688,278.6406 Z " fill="#000000"/><text fill="#000000" font-family="sans-serif" font-size="14" lengthAdjust="spacing" textLength="49.7588" x="267.5" y="277.8467">Playlist</text><line style="stroke:#181818;stroke-width:0.5;" x1="239.5" x2="319.2588" y1="289" y2="289"/><line style="stroke:#181818;stroke-width:0.5;" x1="239.5" x2="319.2588" y1="297" y2="297"/></g><!--class Usuario--><g class="entity" data-entity="Usuario" data-source-line="7" data-uid="ent0008" id="entity_Usuario"><rect fill="#F1F1F1" height="48" rx="2.5" ry="2.5" style="stroke:#181818;stroke-width:0.5;" width="85.2041" x="292" y="7"/><ellipse cx="307" cy="23" fill="#ADD1B2" rx="11" ry="11" style="stroke:#181818;stroke-width:1;"/><path d="M309.9688,28.6406 Q309.3906,28.9375 308.75,29.0781 Q308.1094,29.2344 307.4063,29.2344 Q304.9063,29.2344 303.5781,27.5938 Q302.2656,25.9375 302.2656,22.8125 Q302.2656,19.6875 303.5781,18.0313 Q304.9063,16.375 307.4063,16.375 Q308.1094,16.375 308.75,16.5313 Q309.4063,16.6875 309.9688,16.9844 L309.9688,19.7031 Q309.3438,19.125 308.75,18.8594 Q308.1563,18.5781 307.5313,18.5781 Q306.1875,18.5781 305.5,19.6563 Q304.8125,20.7188 304.8125,22.8125 Q304.8125,24.9063 305.5,25.9844 Q306.1875,27.0469 307.5313,27.0469 Q308.1563,27.0469 308.75,26.7813 Q309.3438,26.5 309.9688,25.9219 L309.9688,28.6406 Z " fill="#000000"/><text fill="#000000" font-family="sans-serif" font-size="14" lengthAdjust="spacing" textLength="53.2041" x="321" y="27.8467">Usuario</text><line style="stroke:#181818;stroke-width:0.5;" x1="293" x2="376.2041" y1="39" y2="39"/><line style="stroke:#181818;stroke-width:0.5;" x1="293" x2="376.2041" y1="47" y2="47"/></g><!--class Suscripcion--><g class="entity" data-entity="Suscripcion" data-source-line="8" data-uid="ent0009" id="entity_Suscripcion"><rect fill="#F1F1F1" height="48" rx="2.5" ry="2.5" style="stroke:#181818;stroke-width:0.5;" width="112.3086" x="278.5" y="132"/><ellipse cx="293.5" cy="148" fill="#ADD1B2" rx="11" ry="11" style="stroke:#181818;stroke-width:1;"/><path d="M296.4688,153.6406 Q295.8906,153.9375 295.25,154.0781 Q294.6094,154.2344 293.9063,154.2344 Q291.4063,154.2344 290.0781,152.5938 Q288.7656,150.9375 288.7656,147.8125 Q288.7656,144.6875 290.0781,143.0313 Q291.4063,141.375 293.9063,141.375 Q294.6094,141.375 295.25,141.5313 Q295.9063,141.6875 296.4688,141.9844 L296.4688,144.7031 Q295.8438,144.125 295.25,143.8594 Q294.6563,143.5781 294.0313,143.5781 Q292.6875,143.5781 292,144.6563 Q291.3125,145.7188 291.3125,147.8125 Q291.3125,149.9063 292,150.9844 Q292.6875,152.0469 294.0313,152.0469 Q294.6563,152.0469 295.25,151.7813 Q295.8438,151.5 296.4688,150.9219 L296.4688,153.6406 Z " fill="#000000"/><text fill="#000000" font-family="sans-serif" font-size="14" lengthAdjust="spacing" textLength="80.3086" x="307.5" y="152.8467">Suscripcion</text><line style="stroke:#181818;stroke-width:0.5;" x1="279.5" x2="389.8086" y1="164" y2="164"/><line style="stroke:#181818;stroke-width:0.5;" x1="279.5" x2="389.8086" y1="172" y2="172"/></g><!--class Reproductor--><g class="entity" data-entity="Reproductor" data-source-line="9" data-uid="ent0010" id="entity_Reproductor"><rect fill="#F1F1F1" height="48" rx="2.5" ry="2.5" style="stroke:#181818;stroke-width:0.5;" width="118.8164" x="426" y="132"/><ellipse cx="441" cy="148" fill="#ADD1B2" rx="11" ry="11" style="stroke:#181818;stroke-width:1;"/><path d="M443.9688,153.6406 Q443.3906,153.9375 442.75,154.0781 Q442.1094,154.2344 441.4063,154.2344 Q438.9063,154.2344 437.5781,152.5938 Q436.2656,150.9375 436.2656,147.8125 Q436.2656,144.6875 437.5781,143.0313 Q438.9063,141.375 441.4063,141.375 Q442.1094,141.375 442.75,141.5313 Q443.4063,141.6875 443.9688,141.9844 L443.9688,144.7031 Q443.3438,144.125 442.75,143.8594 Q442.1563,143.5781 441.5313,143.5781 Q440.1875,143.5781 439.5,144.6563 Q438.8125,145.7188 438.8125,147.8125 Q438.8125,149.9063 439.5,150.9844 Q440.1875,152.0469 441.5313,152.0469 Q442.1563,152.0469 442.75,151.7813 Q443.3438,151.5 443.9688,150.9219 L443.9688,153.6406 Z " fill="#000000"/><text fill="#000000" font-family="sans-serif" font-size="14" lengthAdjust="spacing" textLength="86.8164" x="455" y="152.8467">Reproductor</text><line style="stroke:#181818;stroke-width:0.5;" x1="427" x2="543.8164" y1="164" y2="164"/><line style="stroke:#181818;stroke-width:0.5;" x1="427" x2="543.8164" y1="172" y2="172"/></g><!--reverse link Usuario to Suscripcion--><g class="link" data-entity-1="Usuario" data-entity-2="Suscripcion" data-source-line="11" data-uid="lnk11" id="link_Usuario_Suscripcion"><path codeLine="11" d="M334.5,67.14 C334.5,89.13 334.5,110.01 334.5,131.97" fill="none" id="Usuario-backto-Suscripcion" style="stroke:#181818;stroke-width:1;"/><polygon fill="#181818" points="334.5,55.14,330.5,61.14,334.5,67.14,338.5,61.14,334.5,55.14" style="stroke:#181818;stroke-width:1;"/><text fill="#000000" font-family="sans-serif" font-size="13" lengthAdjust="spacing" textLength="32.9443" x="335.5" y="98.0669">tiene</text></g><!--reverse link Cancion to Letra--><g class="link" data-entity-1="Cancion" data-entity-2="Letra" data-source-line="12" data-uid="lnk12" id="link_Cancion_Letra"><path codeLine="12" d="M185.2528,441.0952 C175.4228,463.0852 165.62,485.01 155.8,506.97" fill="none" id="Cancion-backto-Letra" style="stroke:#181818;stroke-width:1;"/><polygon fill="#181818" points="190.15,430.14,184.0496,433.9852,185.2528,441.0952,191.3531,437.25,190.15,430.14" style="stroke:#181818;stroke-width:1;"/><text fill="#000000" font-family="sans-serif" font-size="13" lengthAdjust="spacing" textLength="32.9443" x="176.5" y="473.0669">tiene</text></g><!--reverse link Album to Cancion--><g class="link" data-entity-1="Album" data-entity-2="Cancion" data-source-line="14" data-uid="lnk13" id="link_Album_Cancion"><path codeLine="14" d="M51.2706,316.7644 C54.4906,331.8144 58.28,339.23 70.5,352 C93.33,375.86 128.41,389.31 156.38,396.69" fill="none" id="Album-backto-Cancion" style="stroke:#181818;stroke-width:1;"/><polygon fill="none" points="48.76,305.03,46.1038,311.7341,51.2706,316.7644,53.9268,310.0603,48.76,305.03" style="stroke:#181818;stroke-width:1;"/><text fill="#000000" font-family="sans-serif" font-size="13" lengthAdjust="spacing" textLength="56.2847" x="71.5" y="348.0669">contiene</text></g><!--reverse link Playlist to Cancion--><g class="link" data-entity-1="Playlist" data-entity-2="Cancion" data-source-line="15" data-uid="lnk14" id="link_Playlist_Cancion"><path codeLine="15" d="M258.1562,315.2376 C244.0362,337.2276 229.39,360.01 215.29,381.97" fill="none" id="Playlist-backto-Cancion" style="stroke:#181818;stroke-width:1;"/><polygon fill="none" points="264.64,305.14,258.0323,308.0275,258.1562,315.2376,264.764,312.35,264.64,305.14" style="stroke:#181818;stroke-width:1;"/><text fill="#000000" font-family="sans-serif" font-size="13" lengthAdjust="spacing" textLength="56.2847" x="245.5" y="348.0669">contiene</text></g><!--reverse link Usuario to Playlist--><g class="link" data-entity-1="Usuario" data-entity-2="Playlist" data-source-line="16" data-uid="lnk15" id="link_Usuario_Playlist"><path codeLine="16" d="M281.6518,60.3493 C253.6818,77.4493 229.64,97.73 213.5,132 C192.89,175.78 229.77,227.54 256.19,256.79" fill="none" id="Usuario-backto-Playlist" style="stroke:#181818;stroke-width:1;"/><polygon fill="none" points="291.89,54.09,284.6845,53.8069,281.6518,60.3493,288.8573,60.6324,291.89,54.09" style="stroke:#181818;stroke-width:1;"/><text fill="#000000" font-family="sans-serif" font-size="13" lengthAdjust="spacing" textLength="46.5093" x="214.5" y="160.5669">accede</text></g><!--link Artista to Album--><g class="link" data-entity-1="Artista" data-entity-2="Album" data-source-line="18" data-uid="lnk16" id="link_Artista_Album"><path codeLine="18" d="M77.16,180.14 C70.19,202.13 61.5728,229.2904 54.6128,251.2504" fill="none" id="Artista-to-Album" style="stroke:#181818;stroke-width:1;"/><polygon fill="#181818" points="52.8,256.97,59.3322,249.5991,54.3106,252.2037,51.7061,247.1821,52.8,256.97" style="stroke:#181818;stroke-width:1;"/><text fill="#000000" font-family="sans-serif" font-size="13" lengthAdjust="spacing" textLength="47.0806" x="68.5" y="223.0669">publica</text></g><!--link Artista to Cancion--><g class="link" data-entity-1="Artista" data-entity-2="Cancion" data-source-line="19" data-uid="lnk17" id="link_Artista_Cancion"><path codeLine="19" d="M104.08,180.05 C111.11,189.03 118.71,199.63 124.5,210 C157.26,268.7 180.614,338.6497 192.014,376.1297" fill="none" id="Artista-to-Cancion" style="stroke:#181818;stroke-width:1;"/><polygon fill="#181818" points="193.76,381.87,194.9679,372.0955,192.305,377.0864,187.3141,374.4235,193.76,381.87" style="stroke:#181818;stroke-width:1;"/><text fill="#000000" font-family="sans-serif" font-size="13" lengthAdjust="spacing" textLength="47.0806" x="167.5" y="285.5669">publica</text></g><!--link Cancion to Genero--><g class="link" data-entity-1="Cancion" data-entity-2="Genero" data-source-line="20" data-uid="lnk18" id="link_Cancion_Genero"><path codeLine="20" d="M211.03,430.14 C221.05,452.13 233.5355,479.5486 243.5255,501.5086" fill="none" id="Cancion-to-Genero" style="stroke:#181818;stroke-width:1;"/><polygon fill="#181818" points="246.01,506.97,245.9242,497.1215,243.9396,502.4188,238.6423,500.4342,246.01,506.97" style="stroke:#181818;stroke-width:1;"/><text fill="#000000" font-family="sans-serif" font-size="13" lengthAdjust="spacing" textLength="66.0728" x="232.5" y="473.0669">pertenece</text></g><!--link Usuario to Reproductor--><g class="link" data-entity-1="Usuario" data-entity-2="Reproductor" data-source-line="22" data-uid="lnk19" id="link_Usuario_Reproductor"><path codeLine="22" d="M362.9,55.14 C389.9,77.13 425.618,106.2207 452.578,128.1807" fill="none" id="Usuario-to-Reproductor" style="stroke:#181818;stroke-width:1;stroke-dasharray:7,7;"/><polygon fill="#181818" points="457.23,131.97,452.7781,123.1847,453.3533,128.8123,447.7258,129.3875,457.23,131.97" style="stroke:#181818;stroke-width:1;"/><text fill="#000000" font-family="sans-serif" font-size="13" lengthAdjust="spacing" textLength="38.9619" x="419.5" y="98.0669">utiliza</text></g><!--link Reproductor to Playlist--><g class="link" data-entity-1="Reproductor" data-entity-2="Playlist" data-source-line="23" data-uid="lnk20" id="link_Reproductor_Playlist"><path codeLine="23" d="M429.76,180.02 C410.81,188.6 389.82,198.95 371.5,210 C348.47,223.89 328.9877,238.6254 311.2277,253.1254" fill="none" id="Reproductor-to-Playlist" style="stroke:#181818;stroke-width:1;stroke-dasharray:7,7;"/><polygon fill="#181818" points="306.58,256.92,316.0813,254.3266,310.4531,253.7579,311.0218,248.1297,306.58,256.92" style="stroke:#181818;stroke-width:1;"/><text fill="#000000" font-family="sans-serif" font-size="13" lengthAdjust="spacing" textLength="38.9619" x="372.5" y="223.0669">utiliza</text></g><!--link Reproductor to Cancion--><g class="link" data-entity-1="Reproductor" data-entity-2="Cancion" data-source-line="24" data-uid="lnk21" id="link_Reproductor_Cancion"><path codeLine="24" d="M469.49,180.1 C441.2,219.55 378.88,300.64 310.5,352 C290.58,366.96 271.2928,376.9817 250.2728,386.0117" fill="none" id="Reproductor-to-Cancion" style="stroke:#181818;stroke-width:1;stroke-dasharray:7,7;"/><polygon fill="#181818" points="244.76,388.38,254.6081,388.5028,249.354,386.4064,251.4504,381.1524,244.76,388.38" style="stroke:#181818;stroke-width:1;"/><text fill="#000000" font-family="sans-serif" font-size="13" lengthAdjust="spacing" textLength="38.9619" x="407.5" y="285.5669">utiliza</text></g><!--SRC=[TP0n3iCW34LtJk6v4Zb0XaXLXouTgbOz074OBD4G6HZQqnS295HLDvltP7-CHZa7H_Ral1AOEpE6PwbFQaQoS-aksdErpdhMR4jpDUfbueZIFbnGJ1NUWqEcfPbpqmlRAQ2tB4IHuI1bgq8Fdk8EKIAiV0sm4R4c1Hj1bNf0EsTQC_tZTM_2czk3GjHJcfrl0b8E-IAHBM4qXEgBxPChhI-9vYibgDd76lN-uQuRsaj4ANWoz5OWskUaDVcAywFiEOhn0G00]--></g></svg>