<svg xmlns="http://www.w3.org/2000/svg" xmlns:xlink="http://www.w3.org/1999/xlink" contentStyleType="text/css" data-diagram-type="CLASS" height="437px" preserveAspectRatio="none" style="width:509px;height:437px;background:#FFFFFF;" version="1.1" viewBox="0 0 509 437" width="509px" zoomAndPan="magnify"><defs/><g><!--class Usuario--><g class="entity" data-entity="Usuario" data-source-line="1" data-uid="ent0002" id="entity_Usuario"><rect fill="#F1F1F1" height="48" rx="2.5" ry="2.5" style="stroke:#181818;stroke-width:0.5;" width="85.2041" x="85.5" y="7"/><ellipse cx="100.5" cy="23" fill="#ADD1B2" rx="11" ry="11" style="stroke:#181818;stroke-width:1;"/><path d="M103.4688,28.6406 Q102.8906,28.9375 102.25,29.0781 Q101.6094,29.2344 100.9063,29.2344 Q98.4063,29.2344 97.0781,27.5938 Q95.7656,25.9375 95.7656,22.8125 Q95.7656,19.6875 97.0781,18.0313 Q98.4063,16.375 100.9063,16.375 Q101.6094,16.375 102.25,16.5313 Q102.9063,16.6875 103.4688,16.9844 L103.4688,19.7031 Q102.8438,19.125 102.25,18.8594 Q101.6563,18.5781 101.0313,18.5781 Q99.6875,18.5781 99,19.6563 Q98.3125,20.7188 98.3125,22.8125 Q98.3125,24.9063 99,25.9844 Q99.6875,27.0469 101.0313,27.0469 Q101.6563,27.0469 102.25,26.7813 Q102.8438,26.5 103.4688,25.9219 L103.4688,28.6406 Z " fill="#000000"/><text fill="#000000" font-family="sans-serif" font-size="14" lengthAdjust="spacing" textLength="53.2041" x="114.5" y="27.8467">Usuario</text><line style="stroke:#181818;stroke-width:0.5;" x1="86.5" x2="169.7041" y1="39" y2="39"/><line style="stroke:#181818;stroke-width:0.5;" x1="86.5" x2="169.7041" y1="47" y2="47"/></g><!--class Suscripcion--><g class="entity" data-entity="Suscripcion" data-source-line="5" data-uid="ent0003" id="entity_Suscripcion"><rect fill="#F1F1F1" height="48" rx="2.5" ry="2.5" style="stroke:#181818;stroke-width:0.5;" width="112.3086" x="7" y="132"/><ellipse cx="22" cy="148" fill="#ADD1B2" rx="11" ry="11" style="stroke:#181818;stroke-width:1;"/><path d="M24.9688,153.6406 Q24.3906,153.9375 23.75,154.0781 Q23.1094,154.2344 22.4063,154.2344 Q19.9063,154.2344 18.5781,152.5938 Q17.2656,150.9375 17.2656,147.8125 Q17.2656,144.6875 18.5781,143.0313 Q19.9063,141.375 22.4063,141.375 Q23.1094,141.375 23.75,141.5313 Q24.4063,141.6875 24.9688,141.9844 L24.9688,144.7031 Q24.3438,144.125 23.75,143.8594 Q23.1563,143.5781 22.5313,143.5781 Q21.1875,143.5781 20.5,144.6563 Q19.8125,145.7188 19.8125,147.8125 Q19.8125,149.9063 20.5,150.9844 Q21.1875,152.0469 22.5313,152.0469 Q23.1563,152.0469 23.75,151.7813 Q24.3438,151.5 24.9688,150.9219 L24.9688,153.6406 Z " fill="#000000"/><text fill="#000000" font-family="sans-serif" font-size="14" lengthAdjust="spacing" textLength="80.3086" x="36" y="152.8467">Suscripcion</text><line style="stroke:#181818;stroke-width:0.5;" x1="8" x2="118.3086" y1="164" y2="164"/><line style="stroke:#181818;stroke-width:0.5;" x1="8" x2="118.3086" y1="172" y2="172"/></g><!--class Artista--><g class="entity" data-entity="Artista" data-source-line="9" data-uid="ent0004" id="entity_Artista"><rect fill="#F1F1F1" height="48" rx="2.5" ry="2.5" style="stroke:#181818;stroke-width:0.5;" width="78.0742" x="271" y="7"/><ellipse cx="286" cy="23" fill="#ADD1B2" rx="11" ry="11" style="stroke:#181818;stroke-width:1;"/><path d="M288.9688,28.6406 Q288.3906,28.9375 287.75,29.0781 Q287.1094,29.2344 286.4063,29.2344 Q283.9063,29.2344 282.5781,27.5938 Q281.2656,25.9375 281.2656,22.8125 Q281.2656,19.6875 282.5781,18.0313 Q283.9063,16.375 286.4063,16.375 Q287.1094,16.375 287.75,16.5313 Q288.4063,16.6875 288.9688,16.9844 L288.9688,19.7031 Q288.3438,19.125 287.75,18.8594 Q287.1563,18.5781 286.5313,18.5781 Q285.1875,18.5781 284.5,19.6563 Q283.8125,20.7188 283.8125,22.8125 Q283.8125,24.9063 284.5,25.9844 Q285.1875,27.0469 286.5313,27.0469 Q287.1563,27.0469 287.75,26.7813 Q288.3438,26.5 288.9688,25.9219 L288.9688,28.6406 Z " fill="#000000"/><text fill="#000000" font-family="sans-serif" font-size="14" lengthAdjust="spacing" textLength="46.0742" x="300" y="27.8467">Artista</text><line style="stroke:#181818;stroke-width:0.5;" x1="272" x2="348.0742" y1="39" y2="39"/><line style="stroke:#181818;stroke-width:0.5;" x1="272" x2="348.0742" y1="47" y2="47"/></g><!--class Album--><g class="entity" data-entity="Album" data-source-line="13" data-uid="ent0005" id="entity_Album"><rect fill="#F1F1F1" height="48" rx="2.5" ry="2.5" style="stroke:#181818;stroke-width:0.5;" width="76.8643" x="271.5" y="132"/><ellipse cx="286.5" cy="148" fill="#ADD1B2" rx="11" ry="11" style="stroke:#181818;stroke-width:1;"/><path d="M289.4688,153.6406 Q288.8906,153.9375 288.25,154.0781 Q287.6094,154.2344 286.9063,154.2344 Q284.4063,154.2344 283.0781,152.5938 Q281.7656,150.9375 281.7656,147.8125 Q281.7656,144.6875 283.0781,143.0313 Q284.4063,141.375 286.9063,141.375 Q287.6094,141.375 288.25,141.5313 Q288.9063,141.6875 289.4688,141.9844 L289.4688,144.7031 Q288.8438,144.125 288.25,143.8594 Q287.6563,143.5781 287.0313,143.5781 Q285.6875,143.5781 285,144.6563 Q284.3125,145.7188 284.3125,147.8125 Q284.3125,149.9063 285,150.9844 Q285.6875,152.0469 287.0313,152.0469 Q287.6563,152.0469 288.25,151.7813 Q288.8438,151.5 289.4688,150.9219 L289.4688,153.6406 Z " fill="#000000"/><text fill="#000000" font-family="sans-serif" font-size="14" lengthAdjust="spacing" textLength="44.8643" x="300.5" y="152.8467">Album</text><line style="stroke:#181818;stroke-width:0.5;" x1="272.5" x2="347.3643" y1="164" y2="164"/><line style="stroke:#181818;stroke-width:0.5;" x1="272.5" x2="347.3643" y1="172" y2="172"/></g><!--class Cancion--><g class="entity" data-entity="Cancion" data-source-line="17" data-uid="ent0006" id="entity_Cancion"><rect fill="#F1F1F1" height="48" rx="2.5" ry="2.5" style="stroke:#181818;stroke-width:0.5;" width="88.2529" x="266" y="257"/><ellipse cx="281" cy="273" fill="#ADD1B2" rx="11" ry="11" style="stroke:#181818;stroke-width:1;"/><path d="M283.9688,278.6406 Q283.3906,278.9375 282.75,279.0781 Q282.1094,279.2344 281.4063,279.2344 Q278.9063,279.2344 277.5781,277.5938 Q276.2656,275.9375 276.2656,272.8125 Q276.2656,269.6875 277.5781,268.0313 Q278.9063,266.375 281.4063,266.375 Q282.1094,266.375 282.75,266.5313 Q283.4063,266.6875 283.9688,266.9844 L283.9688,269.7031 Q283.3438,269.125 282.75,268.8594 Q282.1563,268.5781 281.5313,268.5781 Q280.1875,268.5781 279.5,269.6563 Q278.8125,270.7188 278.8125,272.8125 Q278.8125,274.9063 279.5,275.9844 Q280.1875,277.0469 281.5313,277.0469 Q282.1563,277.0469 282.75,276.7813 Q283.3438,276.5 283.9688,275.9219 L283.9688,278.6406 Z " fill="#000000"/><text fill="#000000" font-family="sans-serif" font-size="14" lengthAdjust="spacing" textLength="56.2529" x="295" y="277.8467">Cancion</text><line style="stroke:#181818;stroke-width:0.5;" x1="267" x2="353.2529" y1="289" y2="289"/><line style="stroke:#181818;stroke-width:0.5;" x1="267" x2="353.2529" y1="297" y2="297"/></g><!--class Genero--><g class="entity" data-entity="Genero" data-source-line="21" data-uid="ent0007" id="entity_Genero"><rect fill="#F1F1F1" height="48" rx="2.5" ry="2.5" style="stroke:#181818;stroke-width:0.5;" width="83.2695" x="213.5" y="382"/><ellipse cx="228.5" cy="398" fill="#ADD1B2" rx="11" ry="11" style="stroke:#181818;stroke-width:1;"/><path d="M231.4688,403.6406 Q230.8906,403.9375 230.25,404.0781 Q229.6094,404.2344 228.9063,404.2344 Q226.4063,404.2344 225.0781,402.5938 Q223.7656,400.9375 223.7656,397.8125 Q223.7656,394.6875 225.0781,393.0313 Q226.4063,391.375 228.9063,391.375 Q229.6094,391.375 230.25,391.5313 Q230.9063,391.6875 231.4688,391.9844 L231.4688,394.7031 Q230.8438,394.125 230.25,393.8594 Q229.6563,393.5781 229.0313,393.5781 Q227.6875,393.5781 227,394.6563 Q226.3125,395.7188 226.3125,397.8125 Q226.3125,399.9063 227,400.9844 Q227.6875,402.0469 229.0313,402.0469 Q229.6563,402.0469 230.25,401.7813 Q230.8438,401.5 231.4688,400.9219 L231.4688,403.6406 Z " fill="#000000"/><text fill="#000000" font-family="sans-serif" font-size="14" lengthAdjust="spacing" textLength="51.2695" x="242.5" y="402.8467">Genero</text><line style="stroke:#181818;stroke-width:0.5;" x1="214.5" x2="295.7695" y1="414" y2="414"/><line style="stroke:#181818;stroke-width:0.5;" x1="214.5" x2="295.7695" y1="422" y2="422"/></g><!--class Letra--><g class="entity" data-entity="Letra" data-source-line="24" data-uid="ent0008" id="entity_Letra"><rect fill="#F1F1F1" height="48" rx="2.5" ry="2.5" style="stroke:#181818;stroke-width:0.5;" width="68.2373" x="332" y="382"/><ellipse cx="347" cy="398" fill="#ADD1B2" rx="11" ry="11" style="stroke:#181818;stroke-width:1;"/><path d="M349.9688,403.6406 Q349.3906,403.9375 348.75,404.0781 Q348.1094,404.2344 347.4063,404.2344 Q344.9063,404.2344 343.5781,402.5938 Q342.2656,400.9375 342.2656,397.8125 Q342.2656,394.6875 343.5781,393.0313 Q344.9063,391.375 347.4063,391.375 Q348.1094,391.375 348.75,391.5313 Q349.4063,391.6875 349.9688,391.9844 L349.9688,394.7031 Q349.3438,394.125 348.75,393.8594 Q348.1563,393.5781 347.5313,393.5781 Q346.1875,393.5781 345.5,394.6563 Q344.8125,395.7188 344.8125,397.8125 Q344.8125,399.9063 345.5,400.9844 Q346.1875,402.0469 347.5313,402.0469 Q348.1563,402.0469 348.75,401.7813 Q349.3438,401.5 349.9688,400.9219 L349.9688,403.6406 Z " fill="#000000"/><text fill="#000000" font-family="sans-serif" font-size="14" lengthAdjust="spacing" textLength="36.2373" x="361" y="402.8467">Letra</text><line style="stroke:#181818;stroke-width:0.5;" x1="333" x2="399.2373" y1="414" y2="414"/><line style="stroke:#181818;stroke-width:0.5;" x1="333" x2="399.2373" y1="422" y2="422"/></g><!--class Playlist--><g class="entity" data-entity="Playlist" data-source-line="28" data-uid="ent0009" id="entity_Playlist"><rect fill="#F1F1F1" height="48" rx="2.5" ry="2.5" style="stroke:#181818;stroke-width:0.5;" width="81.7588" x="154" y="132"/><ellipse cx="169" cy="148" fill="#ADD1B2" rx="11" ry="11" style="stroke:#181818;stroke-width:1;"/><path d="M171.9688,153.6406 Q171.3906,153.9375 170.75,154.0781 Q170.1094,154.2344 169.4063,154.2344 Q166.9063,154.2344 165.5781,152.5938 Q164.2656,150.9375 164.2656,147.8125 Q164.2656,144.6875 165.5781,143.0313 Q166.9063,141.375 169.4063,141.375 Q170.1094,141.375 170.75,141.5313 Q171.4063,141.6875 171.9688,141.9844 L171.9688,144.7031 Q171.3438,144.125 170.75,143.8594 Q170.1563,143.5781 169.5313,143.5781 Q168.1875,143.5781 167.5,144.6563 Q166.8125,145.7188 166.8125,147.8125 Q166.8125,149.9063 167.5,150.9844 Q168.1875,152.0469 169.5313,152.0469 Q170.1563,152.0469 170.75,151.7813 Q171.3438,151.5 171.9688,150.9219 L171.9688,153.6406 Z " fill="#000000"/><text fill="#000000" font-family="sans-serif" font-size="14" lengthAdjust="spacing" textLength="49.7588" x="183" y="152.8467">Playlist</text><line style="stroke:#181818;stroke-width:0.5;" x1="155" x2="234.7588" y1="164" y2="164"/><line style="stroke:#181818;stroke-width:0.5;" x1="155" x2="234.7588" y1="172" y2="172"/></g><!--class Reproductor--><g class="entity" data-entity="Reproductor" data-source-line="32" data-uid="ent0010" id="entity_Reproductor"><rect fill="#F1F1F1" height="48" rx="2.5" ry="2.5" style="stroke:#181818;stroke-width:0.5;" width="118.8164" x="383.5" y="132"/><ellipse cx="398.5" cy="148" fill="#ADD1B2" rx="11" ry="11" style="stroke:#181818;stroke-width:1;"/><path d="M401.4688,153.6406 Q400.8906,153.9375 400.25,154.0781 Q399.6094,154.2344 398.9063,154.2344 Q396.4063,154.2344 395.0781,152.5938 Q393.7656,150.9375 393.7656,147.8125 Q393.7656,144.6875 395.0781,143.0313 Q396.4063,141.375 398.9063,141.375 Q399.6094,141.375 400.25,141.5313 Q400.9063,141.6875 401.4688,141.9844 L401.4688,144.7031 Q400.8438,144.125 400.25,143.8594 Q399.6563,143.5781 399.0313,143.5781 Q397.6875,143.5781 397,144.6563 Q396.3125,145.7188 396.3125,147.8125 Q396.3125,149.9063 397,150.9844 Q397.6875,152.0469 399.0313,152.0469 Q399.6563,152.0469 400.25,151.7813 Q400.8438,151.5 401.4688,150.9219 L401.4688,153.6406 Z " fill="#000000"/><text fill="#000000" font-family="sans-serif" font-size="14" lengthAdjust="spacing" textLength="86.8164" x="412.5" y="152.8467">Reproductor</text><line style="stroke:#181818;stroke-width:0.5;" x1="384.5" x2="501.3164" y1="164" y2="164"/><line style="stroke:#181818;stroke-width:0.5;" x1="384.5" x2="501.3164" y1="172" y2="172"/></g><!--reverse link Usuario to Suscripcion--><g class="link" data-entity-1="Usuario" data-entity-2="Suscripcion" data-source-line="36" data-uid="lnk11" id="link_Usuario_Suscripcion"><path codeLine="36" d="M79.8841,62.6945 C69.8241,70.7745 69.61,73.29 64,85 C57.07,99.47 57.02,117.63 58.6,131.82" fill="none" id="Usuario-backto-Suscripcion" style="stroke:#181818;stroke-width:1;"/><polygon fill="#181818" points="89.24,55.18,82.0572,55.8186,79.8841,62.6945,87.0669,62.0559,89.24,55.18" style="stroke:#181818;stroke-width:1;"/><text fill="#000000" font-family="sans-serif" font-size="13" lengthAdjust="spacing" textLength="83.2368" x="65" y="98.0669">Composici&#243;n</text></g><!--reverse link Cancion to Letra--><g class="link" data-entity-1="Cancion" data-entity-2="Letra" data-source-line="37" data-uid="lnk12" id="link_Cancion_Letra"><path codeLine="37" d="M325.5057,316.0598 C335.5257,338.0498 345.52,360.01 355.51,381.97" fill="none" id="Cancion-backto-Letra" style="stroke:#181818;stroke-width:1;"/><polygon fill="#181818" points="320.53,305.14,319.3779,312.2585,325.5057,316.0598,326.6578,308.9413,320.53,305.14" style="stroke:#181818;stroke-width:1;"/><text fill="#000000" font-family="sans-serif" font-size="13" lengthAdjust="spacing" textLength="83.2368" x="342" y="348.0669">Composici&#243;n</text></g><!--reverse link Album to Cancion--><g class="link" data-entity-1="Album" data-entity-2="Cancion" data-source-line="38" data-uid="lnk13" id="link_Album_Cancion"><path codeLine="38" d="M310,192.14 C310,214.13 310,235.01 310,256.97" fill="none" id="Album-backto-Cancion" style="stroke:#181818;stroke-width:1;"/><polygon fill="none" points="310,180.14,306,186.14,310,192.14,314,186.14,310,180.14" style="stroke:#181818;stroke-width:1;"/><text fill="#000000" font-family="sans-serif" font-size="13" lengthAdjust="spacing" textLength="73.6582" x="311" y="223.0669">Agregaci&#243;n</text></g><!--reverse link Playlist to Cancion--><g class="link" data-entity-1="Playlist" data-entity-2="Cancion" data-source-line="39" data-uid="lnk14" id="link_Playlist_Cancion"><path codeLine="39" d="M205.7397,191.3309 C210.8897,205.9809 215.16,213.39 227,227 C237.77,239.39 252.13,249.94 265.88,258.28" fill="none" id="Playlist-backto-Cancion" style="stroke:#181818;stroke-width:1;"/><polygon fill="none" points="201.76,180.01,199.9762,186.997,205.7397,191.3309,207.5235,184.3439,201.76,180.01" style="stroke:#181818;stroke-width:1;"/><text fill="#000000" font-family="sans-serif" font-size="13" lengthAdjust="spacing" textLength="73.6582" x="228" y="223.0669">Agregaci&#243;n</text></g><!--link Usuario to Playlist--><g class="link" data-entity-1="Usuario" data-entity-2="Playlist" data-source-line="40" data-uid="lnk15" id="link_Usuario_Playlist"><path codeLine="40" d="M140.6,55.14 C152.58,77.13 167.6203,104.7408 179.5803,126.7008" fill="none" id="Usuario-to-Playlist" style="stroke:#181818;stroke-width:1;"/><polygon fill="#181818" points="182.45,131.97,181.6582,122.153,180.0585,127.579,174.6326,125.9794,182.45,131.97" style="stroke:#181818;stroke-width:1;"/><text fill="#000000" font-family="sans-serif" font-size="13" lengthAdjust="spacing" textLength="69.2974" x="167" y="98.0669">Asociaci&#243;n</text></g><!--link Artista to Album--><g class="link" data-entity-1="Artista" data-entity-2="Album" data-source-line="41" data-uid="lnk16" id="link_Artista_Album"><path codeLine="41" d="M310,55.14 C310,77.13 310,104.01 310,125.97" fill="none" id="Artista-to-Album" style="stroke:#181818;stroke-width:1;"/><polygon fill="#181818" points="310,131.97,314,122.97,310,126.97,306,122.97,310,131.97" style="stroke:#181818;stroke-width:1;"/><text fill="#000000" font-family="sans-serif" font-size="13" lengthAdjust="spacing" textLength="69.2974" x="311" y="98.0669">Asociaci&#243;n</text></g><!--link Cancion to Genero--><g class="link" data-entity-1="Cancion" data-entity-2="Genero" data-source-line="42" data-uid="lnk17" id="link_Cancion_Genero"><path codeLine="42" d="M275.32,305.25 C265.98,313.44 257.06,323.52 252,335 C245.52,349.69 245.4794,361.9309 247.9694,376.0709" fill="none" id="Cancion-to-Genero" style="stroke:#181818;stroke-width:1;"/><polygon fill="#181818" points="249.01,381.98,251.3885,372.4227,248.1429,377.0558,243.5098,373.8101,249.01,381.98" style="stroke:#181818;stroke-width:1;"/><text fill="#000000" font-family="sans-serif" font-size="13" lengthAdjust="spacing" textLength="69.2974" x="253" y="348.0669">Asociaci&#243;n</text></g><!--link Reproductor to Cancion--><g class="link" data-entity-1="Reproductor" data-entity-2="Cancion" data-source-line="43" data-uid="lnk18" id="link_Reproductor_Cancion"><path codeLine="43" d="M429.65,180.15 C420.53,194.69 407.51,213.22 393,227 C381.22,238.18 371.8492,245.198 358.3192,253.588" fill="none" id="Reproductor-to-Cancion" style="stroke:#181818;stroke-width:1;stroke-dasharray:7,7;"/><polygon fill="#181818" points="353.22,256.75,362.9768,255.4064,357.4693,254.115,358.7608,248.6075,353.22,256.75" style="stroke:#181818;stroke-width:1;"/><text fill="#000000" font-family="sans-serif" font-size="13" lengthAdjust="spacing" textLength="24.2417" x="408" y="223.0669">Uso</text></g><!--SRC=[VP1D2i8m48NtEKNeKaWFuA9Gkd3ZGfGU8CPG0Z5JCir2n5Dv12zcqpHjRC3jcuzvFq9pHDgYurO1VH9AANaH8YRvub1OrGi5PdkgxQ1mu9cih-uUn4Hjk5b_9Ff16cczww8SvM1vnfqqV-ZHBZkSPM_XviG0TaqIo-mO-scmfqK3znvG2VLvcuB4M1uCnXaI-i08H7X4wixAZi_4akqV52CnLgrbF8GWL8JYf1uAlbiYlf-GURmjaqvIbbKQgKKelW00]--></g></svg>