<svg xmlns="http://www.w3.org/2000/svg" xmlns:xlink="http://www.w3.org/1999/xlink" contentStyleType="text/css" data-diagram-type="CLASS" height="278px" preserveAspectRatio="none" style="width:363px;height:278px;background:#FFFFFF;" version="1.1" viewBox="0 0 363 278" width="363px" zoomAndPan="magnify"><defs/><g><!--class Cancion--><g class="entity" data-entity="Cancion" data-source-line="1" data-uid="ent0002" id="entity_Cancion"><rect fill="#F1F1F1" height="48" rx="2.5" ry="2.5" style="stroke:#181818;stroke-width:0.5;" width="88.2529" x="117" y="115"/><ellipse cx="132" cy="131" fill="#ADD1B2" rx="11" ry="11" style="stroke:#181818;stroke-width:1;"/><path d="M134.9688,136.6406 Q134.3906,136.9375 133.75,137.0781 Q133.1094,137.2344 132.4063,137.2344 Q129.9063,137.2344 128.5781,135.5938 Q127.2656,133.9375 127.2656,130.8125 Q127.2656,127.6875 128.5781,126.0313 Q129.9063,124.375 132.4063,124.375 Q133.1094,124.375 133.75,124.5313 Q134.4063,124.6875 134.9688,124.9844 L134.9688,127.7031 Q134.3438,127.125 133.75,126.8594 Q133.1563,126.5781 132.5313,126.5781 Q131.1875,126.5781 130.5,127.6563 Q129.8125,128.7188 129.8125,130.8125 Q129.8125,132.9063 130.5,133.9844 Q131.1875,135.0469 132.5313,135.0469 Q133.1563,135.0469 133.75,134.7813 Q134.3438,134.5 134.9688,133.9219 L134.9688,136.6406 Z " fill="#000000"/><text fill="#000000" font-family="sans-serif" font-size="14" lengthAdjust="spacing" textLength="56.2529" x="146" y="135.8467">Cancion</text><line style="stroke:#181818;stroke-width:0.5;" x1="118" x2="204.2529" y1="147" y2="147"/><line style="stroke:#181818;stroke-width:0.5;" x1="118" x2="204.2529" y1="155" y2="155"/></g><!--class Audio--><g class="entity" data-entity="Audio" data-source-line="5" data-uid="ent0003" id="entity_Audio"><rect fill="#F1F1F1" height="48" rx="2.5" ry="2.5" style="stroke:#181818;stroke-width:0.5;" width="71.792" x="125" y="223"/><ellipse cx="140" cy="239" fill="#ADD1B2" rx="11" ry="11" style="stroke:#181818;stroke-width:1;"/><path d="M142.9688,244.6406 Q142.3906,244.9375 141.75,245.0781 Q141.1094,245.2344 140.4063,245.2344 Q137.9063,245.2344 136.5781,243.5938 Q135.2656,241.9375 135.2656,238.8125 Q135.2656,235.6875 136.5781,234.0313 Q137.9063,232.375 140.4063,232.375 Q141.1094,232.375 141.75,232.5313 Q142.4063,232.6875 142.9688,232.9844 L142.9688,235.7031 Q142.3438,235.125 141.75,234.8594 Q141.1563,234.5781 140.5313,234.5781 Q139.1875,234.5781 138.5,235.6563 Q137.8125,236.7188 137.8125,238.8125 Q137.8125,240.9063 138.5,241.9844 Q139.1875,243.0469 140.5313,243.0469 Q141.1563,243.0469 141.75,242.7813 Q142.3438,242.5 142.9688,241.9219 L142.9688,244.6406 Z " fill="#000000"/><text fill="#000000" font-family="sans-serif" font-size="14" lengthAdjust="spacing" textLength="39.792" x="154" y="243.8467">Audio</text><line style="stroke:#181818;stroke-width:0.5;" x1="126" x2="195.792" y1="255" y2="255"/><line style="stroke:#181818;stroke-width:0.5;" x1="126" x2="195.792" y1="263" y2="263"/></g><!--class Artista--><g class="entity" data-entity="Artista" data-source-line="9" data-uid="ent0004" id="entity_Artista"><rect fill="#F1F1F1" height="48" rx="2.5" ry="2.5" style="stroke:#181818;stroke-width:0.5;" width="78.0742" x="7" y="7"/><ellipse cx="22" cy="23" fill="#ADD1B2" rx="11" ry="11" style="stroke:#181818;stroke-width:1;"/><path d="M24.9688,28.6406 Q24.3906,28.9375 23.75,29.0781 Q23.1094,29.2344 22.4063,29.2344 Q19.9063,29.2344 18.5781,27.5938 Q17.2656,25.9375 17.2656,22.8125 Q17.2656,19.6875 18.5781,18.0313 Q19.9063,16.375 22.4063,16.375 Q23.1094,16.375 23.75,16.5313 Q24.4063,16.6875 24.9688,16.9844 L24.9688,19.7031 Q24.3438,19.125 23.75,18.8594 Q23.1563,18.5781 22.5313,18.5781 Q21.1875,18.5781 20.5,19.6563 Q19.8125,20.7188 19.8125,22.8125 Q19.8125,24.9063 20.5,25.9844 Q21.1875,27.0469 22.5313,27.0469 Q23.1563,27.0469 23.75,26.7813 Q24.3438,26.5 24.9688,25.9219 L24.9688,28.6406 Z " fill="#000000"/><text fill="#000000" font-family="sans-serif" font-size="14" lengthAdjust="spacing" textLength="46.0742" x="36" y="27.8467">Artista</text><line style="stroke:#181818;stroke-width:0.5;" x1="8" x2="84.0742" y1="39" y2="39"/><line style="stroke:#181818;stroke-width:0.5;" x1="8" x2="84.0742" y1="47" y2="47"/></g><!--class Playlist--><g class="entity" data-entity="Playlist" data-source-line="13" data-uid="ent0005" id="entity_Playlist"><rect fill="#F1F1F1" height="48" rx="2.5" ry="2.5" style="stroke:#181818;stroke-width:0.5;" width="81.7588" x="120" y="7"/><ellipse cx="135" cy="23" fill="#ADD1B2" rx="11" ry="11" style="stroke:#181818;stroke-width:1;"/><path d="M137.9688,28.6406 Q137.3906,28.9375 136.75,29.0781 Q136.1094,29.2344 135.4063,29.2344 Q132.9063,29.2344 131.5781,27.5938 Q130.2656,25.9375 130.2656,22.8125 Q130.2656,19.6875 131.5781,18.0313 Q132.9063,16.375 135.4063,16.375 Q136.1094,16.375 136.75,16.5313 Q137.4063,16.6875 137.9688,16.9844 L137.9688,19.7031 Q137.3438,19.125 136.75,18.8594 Q136.1563,18.5781 135.5313,18.5781 Q134.1875,18.5781 133.5,19.6563 Q132.8125,20.7188 132.8125,22.8125 Q132.8125,24.9063 133.5,25.9844 Q134.1875,27.0469 135.5313,27.0469 Q136.1563,27.0469 136.75,26.7813 Q137.3438,26.5 137.9688,25.9219 L137.9688,28.6406 Z " fill="#000000"/><text fill="#000000" font-family="sans-serif" font-size="14" lengthAdjust="spacing" textLength="49.7588" x="149" y="27.8467">Playlist</text><line style="stroke:#181818;stroke-width:0.5;" x1="121" x2="200.7588" y1="39" y2="39"/><line style="stroke:#181818;stroke-width:0.5;" x1="121" x2="200.7588" y1="47" y2="47"/></g><!--class Reproductor--><g class="entity" data-entity="Reproductor" data-source-line="17" data-uid="ent0006" id="entity_Reproductor"><rect fill="#F1F1F1" height="48" rx="2.5" ry="2.5" style="stroke:#181818;stroke-width:0.5;" width="118.8164" x="237.5" y="7"/><ellipse cx="252.5" cy="23" fill="#ADD1B2" rx="11" ry="11" style="stroke:#181818;stroke-width:1;"/><path d="M255.4688,28.6406 Q254.8906,28.9375 254.25,29.0781 Q253.6094,29.2344 252.9063,29.2344 Q250.4063,29.2344 249.0781,27.5938 Q247.7656,25.9375 247.7656,22.8125 Q247.7656,19.6875 249.0781,18.0313 Q250.4063,16.375 252.9063,16.375 Q253.6094,16.375 254.25,16.5313 Q254.9063,16.6875 255.4688,16.9844 L255.4688,19.7031 Q254.8438,19.125 254.25,18.8594 Q253.6563,18.5781 253.0313,18.5781 Q251.6875,18.5781 251,19.6563 Q250.3125,20.7188 250.3125,22.8125 Q250.3125,24.9063 251,25.9844 Q251.6875,27.0469 253.0313,27.0469 Q253.6563,27.0469 254.25,26.7813 Q254.8438,26.5 255.4688,25.9219 L255.4688,28.6406 Z " fill="#000000"/><text fill="#000000" font-family="sans-serif" font-size="14" lengthAdjust="spacing" textLength="86.8164" x="266.5" y="27.8467">Reproductor</text><line style="stroke:#181818;stroke-width:0.5;" x1="238.5" x2="355.3164" y1="39" y2="39"/><line style="stroke:#181818;stroke-width:0.5;" x1="238.5" x2="355.3164" y1="47" y2="47"/></g><!--reverse link Cancion to Audio--><g class="link" data-entity-1="Cancion" data-entity-2="Audio" data-source-line="20" data-uid="lnk7" id="link_Cancion_Audio"><path codeLine="20" d="M161,175 C161,192.66 161,204.94 161,222.68" fill="none" id="Cancion-backto-Audio" style="stroke:#181818;stroke-width:1;"/><polygon fill="#181818" points="161,163,157,169,161,175,165,169,161,163" style="stroke:#181818;stroke-width:1;"/></g><!--reverse link Playlist to Cancion--><g class="link" data-entity-1="Playlist" data-entity-2="Cancion" data-source-line="23" data-uid="lnk8" id="link_Playlist_Cancion"><path codeLine="23" d="M161,67 C161,84.66 161,96.94 161,114.68" fill="none" id="Playlist-backto-Cancion" style="stroke:#181818;stroke-width:1;"/><polygon fill="none" points="161,55,157,61,161,67,165,61,161,55" style="stroke:#181818;stroke-width:1;"/></g><!--link Artista to Cancion--><g class="link" data-entity-1="Artista" data-entity-2="Cancion" data-source-line="26" data-uid="lnk9" id="link_Artista_Cancion"><path codeLine="26" d="M70.95,55 C90.11,72.66 112.0378,92.8739 131.2878,110.6139" fill="none" id="Artista-to-Cancion" style="stroke:#181818;stroke-width:1;"/><polygon fill="#181818" points="135.7,114.68,131.7925,105.6395,132.0232,111.2916,126.3711,111.5223,135.7,114.68" style="stroke:#181818;stroke-width:1;"/></g><!--link Reproductor to Cancion--><g class="link" data-entity-1="Reproductor" data-entity-2="Cancion" data-source-line="29" data-uid="lnk10" id="link_Reproductor_Cancion"><path codeLine="29" d="M267.49,55 C244.83,72.66 218.4123,93.2515 195.6523,110.9915" fill="none" id="Reproductor-to-Cancion" style="stroke:#181818;stroke-width:1;stroke-dasharray:7,7;"/><polygon fill="#181818" points="190.92,114.68,200.4775,112.3021,194.8636,111.6062,195.5594,105.9923,190.92,114.68" style="stroke:#181818;stroke-width:1;"/></g><!--SRC=[LSxD2SCm38RXkwRmhJ_WZ508MQ0KEe2GJH2ubh6SGocTgYDqiQRv8xw-FEWJ1LGr7KPYYUO5y0QWgRM3OwbBBgm5gtOD-0nZhUBDfonke28Pu60wUIHH9lv-8gnJPsldYRze- -nxdC5sKKQnwCce42zc_SJQovxSLSpH-UIZysF44-m-CKspuHy0]--></g></svg>