<?plantuml 1.2026.2beta3?><svg xmlns="http://www.w3.org/2000/svg" xmlns:xlink="http://www.w3.org/1999/xlink" contentStyleType="text/css" data-diagram-type="CLASS" height="138px" preserveAspectRatio="none" style="width:1008px;height:138px;background:#FFFFFF;" version="1.1" viewBox="0 0 1008 138" width="1008px" zoomAndPan="magnify"><defs/><g><!--class Artista--><g class="entity" data-qualified-name="Artista" data-source-line="3" id="ent0002"><rect fill="#F1F1F1" height="32" rx="2.5" ry="2.5" style="stroke:#181818;stroke-width:0.5;" width="78.0742" x="468.23" y="7"/><ellipse cx="483.23" cy="23" fill="#ADD1B2" rx="11" ry="11" style="stroke:#181818;stroke-width:1;"/><path d="M486.1988,28.6406 Q485.6206,28.9375 484.98,29.0781 Q484.3394,29.2344 483.6363,29.2344 Q481.1363,29.2344 479.8081,27.5938 Q478.4956,25.9375 478.4956,22.8125 Q478.4956,19.6875 479.8081,18.0313 Q481.1363,16.375 483.6363,16.375 Q484.3394,16.375 484.98,16.5313 Q485.6363,16.6875 486.1988,16.9844 L486.1988,19.7031 Q485.5738,19.125 484.98,18.8594 Q484.3863,18.5781 483.7613,18.5781 Q482.4175,18.5781 481.73,19.6563 Q481.0425,20.7188 481.0425,22.8125 Q481.0425,24.9063 481.73,25.9844 Q482.4175,27.0469 483.7613,27.0469 Q484.3863,27.0469 484.98,26.7813 Q485.5738,26.5 486.1988,25.9219 L486.1988,28.6406 Z " fill="#000000"/><text fill="#000000" font-family="sans-serif" font-size="14" lengthAdjust="spacing" textLength="46.0742" x="497.23" y="27.8467">Artista</text></g><!--class Discografica--><g class="entity" data-qualified-name="Discografica" data-source-line="6" id="ent0003"><rect fill="#F1F1F1" height="32" rx="2.5" ry="2.5" style="stroke:#181818;stroke-width:0.5;" width="118.543" x="7" y="99"/><ellipse cx="22" cy="115" fill="#ADD1B2" rx="11" ry="11" style="stroke:#181818;stroke-width:1;"/><path d="M24.9688,120.6406 Q24.3906,120.9375 23.75,121.0781 Q23.1094,121.2344 22.4063,121.2344 Q19.9063,121.2344 18.5781,119.5938 Q17.2656,117.9375 17.2656,114.8125 Q17.2656,111.6875 18.5781,110.0313 Q19.9063,108.375 22.4063,108.375 Q23.1094,108.375 23.75,108.5313 Q24.4063,108.6875 24.9688,108.9844 L24.9688,111.7031 Q24.3438,111.125 23.75,110.8594 Q23.1563,110.5781 22.5313,110.5781 Q21.1875,110.5781 20.5,111.6563 Q19.8125,112.7188 19.8125,114.8125 Q19.8125,116.9063 20.5,117.9844 Q21.1875,119.0469 22.5313,119.0469 Q23.1563,119.0469 23.75,118.7813 Q24.3438,118.5 24.9688,117.9219 L24.9688,120.6406 Z " fill="#000000"/><text fill="#000000" font-family="sans-serif" font-size="14" lengthAdjust="spacing" textLength="86.543" x="36" y="119.8467">Discografica</text></g><!--class Album--><g class="entity" data-qualified-name="Album" data-source-line="9" id="ent0004"><rect fill="#F1F1F1" height="32" rx="2.5" ry="2.5" style="stroke:#181818;stroke-width:0.5;" width="76.8643" x="160.84" y="99"/><ellipse cx="175.84" cy="115" fill="#ADD1B2" rx="11" ry="11" style="stroke:#181818;stroke-width:1;"/><path d="M178.8088,120.6406 Q178.2306,120.9375 177.59,121.0781 Q176.9494,121.2344 176.2463,121.2344 Q173.7463,121.2344 172.4181,119.5938 Q171.1056,117.9375 171.1056,114.8125 Q171.1056,111.6875 172.4181,110.0313 Q173.7463,108.375 176.2463,108.375 Q176.9494,108.375 177.59,108.5313 Q178.2463,108.6875 178.8088,108.9844 L178.8088,111.7031 Q178.1838,111.125 177.59,110.8594 Q176.9963,110.5781 176.3713,110.5781 Q175.0275,110.5781 174.34,111.6563 Q173.6525,112.7188 173.6525,114.8125 Q173.6525,116.9063 174.34,117.9844 Q175.0275,119.0469 176.3713,119.0469 Q176.9963,119.0469 177.59,118.7813 Q178.1838,118.5 178.8088,117.9219 L178.8088,120.6406 Z " fill="#000000"/><text fill="#000000" font-family="sans-serif" font-size="14" lengthAdjust="spacing" textLength="44.8643" x="189.84" y="119.8467">Album</text></g><!--class Genero--><g class="entity" data-qualified-name="Genero" data-source-line="12" id="ent0005"><rect fill="#F1F1F1" height="32" rx="2.5" ry="2.5" style="stroke:#181818;stroke-width:0.5;" width="83.2695" x="272.64" y="99"/><ellipse cx="287.64" cy="115" fill="#ADD1B2" rx="11" ry="11" style="stroke:#181818;stroke-width:1;"/><path d="M290.6088,120.6406 Q290.0306,120.9375 289.39,121.0781 Q288.7494,121.2344 288.0463,121.2344 Q285.5463,121.2344 284.2181,119.5938 Q282.9056,117.9375 282.9056,114.8125 Q282.9056,111.6875 284.2181,110.0313 Q285.5463,108.375 288.0463,108.375 Q288.7494,108.375 289.39,108.5313 Q290.0463,108.6875 290.6088,108.9844 L290.6088,111.7031 Q289.9838,111.125 289.39,110.8594 Q288.7963,110.5781 288.1713,110.5781 Q286.8275,110.5781 286.14,111.6563 Q285.4525,112.7188 285.4525,114.8125 Q285.4525,116.9063 286.14,117.9844 Q286.8275,119.0469 288.1713,119.0469 Q288.7963,119.0469 289.39,118.7813 Q289.9838,118.5 290.6088,117.9219 L290.6088,120.6406 Z " fill="#000000"/><text fill="#000000" font-family="sans-serif" font-size="14" lengthAdjust="spacing" textLength="51.2695" x="301.64" y="119.8467">Genero</text></g><!--class Grabacion--><g class="entity" data-qualified-name="Grabacion" data-source-line="15" id="ent0006"><rect fill="#F1F1F1" height="32" rx="2.5" ry="2.5" style="stroke:#181818;stroke-width:0.5;" width="103.6748" x="390.43" y="99"/><ellipse cx="405.43" cy="115" fill="#ADD1B2" rx="11" ry="11" style="stroke:#181818;stroke-width:1;"/><path d="M408.3988,120.6406 Q407.8206,120.9375 407.18,121.0781 Q406.5394,121.2344 405.8363,121.2344 Q403.3363,121.2344 402.0081,119.5938 Q400.6956,117.9375 400.6956,114.8125 Q400.6956,111.6875 402.0081,110.0313 Q403.3363,108.375 405.8363,108.375 Q406.5394,108.375 407.18,108.5313 Q407.8363,108.6875 408.3988,108.9844 L408.3988,111.7031 Q407.7738,111.125 407.18,110.8594 Q406.5863,110.5781 405.9613,110.5781 Q404.6175,110.5781 403.93,111.6563 Q403.2425,112.7188 403.2425,114.8125 Q403.2425,116.9063 403.93,117.9844 Q404.6175,119.0469 405.9613,119.0469 Q406.5863,119.0469 407.18,118.7813 Q407.7738,118.5 408.3988,117.9219 L408.3988,120.6406 Z " fill="#000000"/><text fill="#000000" font-family="sans-serif" font-size="14" lengthAdjust="spacing" textLength="71.6748" x="419.43" y="119.8467">Grabacion</text></g><!--class Cancion--><g class="entity" data-qualified-name="Cancion" data-source-line="18" id="ent0007"><rect fill="#F1F1F1" height="32" rx="2.5" ry="2.5" style="stroke:#181818;stroke-width:0.5;" width="88.2529" x="529.15" y="99"/><ellipse cx="544.15" cy="115" fill="#ADD1B2" rx="11" ry="11" style="stroke:#181818;stroke-width:1;"/><path d="M547.1188,120.6406 Q546.5406,120.9375 545.9,121.0781 Q545.2594,121.2344 544.5563,121.2344 Q542.0563,121.2344 540.7281,119.5938 Q539.4156,117.9375 539.4156,114.8125 Q539.4156,111.6875 540.7281,110.0313 Q542.0563,108.375 544.5563,108.375 Q545.2594,108.375 545.9,108.5313 Q546.5563,108.6875 547.1188,108.9844 L547.1188,111.7031 Q546.4938,111.125 545.9,110.8594 Q545.3063,110.5781 544.6813,110.5781 Q543.3375,110.5781 542.65,111.6563 Q541.9625,112.7188 541.9625,114.8125 Q541.9625,116.9063 542.65,117.9844 Q543.3375,119.0469 544.6813,119.0469 Q545.3063,119.0469 545.9,118.7813 Q546.4938,118.5 547.1188,117.9219 L547.1188,120.6406 Z " fill="#000000"/><text fill="#000000" font-family="sans-serif" font-size="14" lengthAdjust="spacing" textLength="56.2529" x="558.15" y="119.8467">Cancion</text></g><!--class Compositor--><g class="entity" data-qualified-name="Compositor" data-source-line="21" id="ent0008"><rect fill="#F1F1F1" height="32" rx="2.5" ry="2.5" style="stroke:#181818;stroke-width:0.5;" width="112.4248" x="652.06" y="99"/><ellipse cx="667.06" cy="115" fill="#ADD1B2" rx="11" ry="11" style="stroke:#181818;stroke-width:1;"/><path d="M670.0288,120.6406 Q669.4506,120.9375 668.81,121.0781 Q668.1694,121.2344 667.4663,121.2344 Q664.9663,121.2344 663.6381,119.5938 Q662.3256,117.9375 662.3256,114.8125 Q662.3256,111.6875 663.6381,110.0313 Q664.9663,108.375 667.4663,108.375 Q668.1694,108.375 668.81,108.5313 Q669.4663,108.6875 670.0288,108.9844 L670.0288,111.7031 Q669.4038,111.125 668.81,110.8594 Q668.2163,110.5781 667.5913,110.5781 Q666.2475,110.5781 665.56,111.6563 Q664.8725,112.7188 664.8725,114.8125 Q664.8725,116.9063 665.56,117.9844 Q666.2475,119.0469 667.5913,119.0469 Q668.2163,119.0469 668.81,118.7813 Q669.4038,118.5 670.0288,117.9219 L670.0288,120.6406 Z " fill="#000000"/><text fill="#000000" font-family="sans-serif" font-size="14" lengthAdjust="spacing" textLength="80.4248" x="681.06" y="119.8467">Compositor</text></g><!--class Letra--><g class="entity" data-qualified-name="Letra" data-source-line="24" id="ent0009"><rect fill="#F1F1F1" height="32" rx="2.5" ry="2.5" style="stroke:#181818;stroke-width:0.5;" width="68.2373" x="799.15" y="99"/><ellipse cx="814.15" cy="115" fill="#ADD1B2" rx="11" ry="11" style="stroke:#181818;stroke-width:1;"/><path d="M817.1188,120.6406 Q816.5406,120.9375 815.9,121.0781 Q815.2594,121.2344 814.5563,121.2344 Q812.0563,121.2344 810.7281,119.5938 Q809.4156,117.9375 809.4156,114.8125 Q809.4156,111.6875 810.7281,110.0313 Q812.0563,108.375 814.5563,108.375 Q815.2594,108.375 815.9,108.5313 Q816.5563,108.6875 817.1188,108.9844 L817.1188,111.7031 Q816.4938,111.125 815.9,110.8594 Q815.3063,110.5781 814.6813,110.5781 Q813.3375,110.5781 812.65,111.6563 Q811.9625,112.7188 811.9625,114.8125 Q811.9625,116.9063 812.65,117.9844 Q813.3375,119.0469 814.6813,119.0469 Q815.3063,119.0469 815.9,118.7813 Q816.4938,118.5 817.1188,117.9219 L817.1188,120.6406 Z " fill="#000000"/><text fill="#000000" font-family="sans-serif" font-size="14" lengthAdjust="spacing" textLength="36.2373" x="828.15" y="119.8467">Letra</text></g><!--class Concierto--><g class="entity" data-qualified-name="Concierto" data-source-line="27" id="ent0010"><rect fill="#F1F1F1" height="32" rx="2.5" ry="2.5" style="stroke:#181818;stroke-width:0.5;" width="99.2246" x="902.66" y="99"/><ellipse cx="917.66" cy="115" fill="#ADD1B2" rx="11" ry="11" style="stroke:#181818;stroke-width:1;"/><path d="M920.6288,120.6406 Q920.0506,120.9375 919.41,121.0781 Q918.7694,121.2344 918.0663,121.2344 Q915.5663,121.2344 914.2381,119.5938 Q912.9256,117.9375 912.9256,114.8125 Q912.9256,111.6875 914.2381,110.0313 Q915.5663,108.375 918.0663,108.375 Q918.7694,108.375 919.41,108.5313 Q920.0663,108.6875 920.6288,108.9844 L920.6288,111.7031 Q920.0038,111.125 919.41,110.8594 Q918.8163,110.5781 918.1913,110.5781 Q916.8475,110.5781 916.16,111.6563 Q915.4725,112.7188 915.4725,114.8125 Q915.4725,116.9063 916.16,117.9844 Q916.8475,119.0469 918.1913,119.0469 Q918.8163,119.0469 919.41,118.7813 Q920.0038,118.5 920.6288,117.9219 L920.6288,120.6406 Z " fill="#000000"/><text fill="#000000" font-family="sans-serif" font-size="14" lengthAdjust="spacing" textLength="67.2246" x="931.66" y="119.8467">Concierto</text></g><!--reverse link Artista to Genero--><g class="link" data-entity-1="ent0002" data-entity-2="ent0005" data-link-type="composition" data-source-line="30" id="lnk11"><path codeLine="30" d="M463.2154,44.5438 C427.7654,61.0838 382.75,82.06 347.34,98.58" fill="none" id="Artista-backto-Genero" style="stroke:#181818;stroke-width:1;"/><polygon fill="#181818" points="474.09,39.47,466.9614,38.382,463.2154,44.5438,470.344,45.6318,474.09,39.47" style="stroke:#181818;stroke-width:1;"/></g><!--reverse link Artista to Album--><g class="link" data-entity-1="ent0002" data-entity-2="ent0004" data-link-type="aggregation" data-source-line="31" id="lnk12"><path codeLine="31" d="M456.4314,38.8548 C397.0714,56.1948 296.8,85.5 237.87,102.72" fill="none" id="Artista-backto-Album" style="stroke:#181818;stroke-width:1;"/><polygon fill="none" points="467.95,35.49,461.0691,33.3328,456.4314,38.8548,463.3123,41.0119,467.95,35.49" style="stroke:#181818;stroke-width:1;"/></g><!--reverse link Artista to Concierto--><g class="link" data-entity-1="ent0002" data-entity-2="ent0010" data-link-type="aggregation" data-source-line="32" id="lnk13"><path codeLine="32" d="M558.5767,33.7626 C627.4367,46.9226 762.04,72.98 885.27,99 C890.75,100.16 896.48,101.4 902.18,102.65" fill="none" id="Artista-backto-Concierto" style="stroke:#181818;stroke-width:1;"/><polygon fill="none" points="546.79,31.51,551.9325,36.5652,558.5767,33.7626,553.4342,28.7074,546.79,31.51" style="stroke:#181818;stroke-width:1;"/></g><!--reverse link Artista to Grabacion--><g class="link" data-entity-1="ent0002" data-entity-2="ent0006" data-link-type="aggregation" data-source-line="33" id="lnk14"><path codeLine="33" d="M489.2213,48.9961 C477.2613,65.5461 465.33,82.08 453.35,98.66" fill="none" id="Artista-backto-Grabacion" style="stroke:#181818;stroke-width:1;"/><polygon fill="none" points="496.25,39.27,489.4936,41.7902,489.2213,48.9961,495.9777,46.476,496.25,39.27" style="stroke:#181818;stroke-width:1;"/></g><!--reverse link Artista to Cancion--><g class="link" data-entity-1="ent0002" data-entity-2="ent0007" data-link-type="aggregation" data-source-line="34" id="lnk15"><path codeLine="34" d="M525.5638,48.9487 C537.6938,65.4987 549.86,82.08 562.02,98.66" fill="none" id="Artista-backto-Cancion" style="stroke:#181818;stroke-width:1;"/><polygon fill="none" points="518.47,39.27,518.7907,46.474,525.5638,48.9487,525.2432,41.7447,518.47,39.27" style="stroke:#181818;stroke-width:1;"/></g><!--reverse link Artista to Letra--><g class="link" data-entity-1="ent0002" data-entity-2="ent0009" data-link-type="aggregation" data-source-line="35" id="lnk16"><path codeLine="35" d="M558.0935,37.5369 C611.5135,51.8069 698.47,75.25 782.27,99 C787.6,100.51 793.23,102.14 798.73,103.74" fill="none" id="Artista-backto-Letra" style="stroke:#181818;stroke-width:1;"/><polygon fill="none" points="546.5,34.44,551.2644,39.853,558.0935,37.5369,553.3291,32.124,546.5,34.44" style="stroke:#181818;stroke-width:1;"/></g><!--link Artista to Discografica--><g class="link" data-entity-1="ent0002" data-entity-2="ent0003" data-link-type="dependency" data-source-line="36" id="lnk17"><path codeLine="36" d="M467.75,32.07 C390.16,47.9 223.3988,81.93 131.8388,100.62" fill="none" id="Artista-to-Discografica" style="stroke:#181818;stroke-width:1;"/><polygon fill="#181818" points="125.96,101.82,135.5782,103.9391,130.859,100.82,133.9781,96.1008,125.96,101.82" style="stroke:#181818;stroke-width:1;"/></g><!--link Artista to Compositor--><g class="link" data-entity-1="ent0002" data-entity-2="ent0008" data-link-type="dependency" data-source-line="37" id="lnk18"><path codeLine="37" d="M541.82,39.47 C578.75,56.01 631.4743,79.6072 668.3543,96.1272" fill="none" id="Artista-to-Compositor" style="stroke:#181818;stroke-width:1;"/><polygon fill="#181818" points="673.83,98.58,667.2516,91.2503,669.2669,96.536,663.9812,98.5513,673.83,98.58" style="stroke:#181818;stroke-width:1;"/></g><?plantuml-src PT312i8m30RWUv-YPw6l80m5Bxv4MgC6rcQayI3YkplcLXkyVad8dzpfWXxpf4-VCKUKwbmQeLO_Y59Ly2_ttkX8DV5Du4h9-336H-xXX0M5ZGX4ICIbnmEKF-8ySILbwVMCAc3RvaaKNNTiMNSXhBiRyKnBFYDjtcWBQNk_AOqjWPg4i3U_CONVHHy0?></g></svg>