<?plantuml 1.2026.2beta3?><svg xmlns="http://www.w3.org/2000/svg" xmlns:xlink="http://www.w3.org/1999/xlink" contentStyleType="text/css" data-diagram-type="CLASS" height="232px" preserveAspectRatio="none" style="width:909px;height:232px;background:#FFFFFF;" version="1.1" viewBox="0 0 909 232" width="909px" zoomAndPan="magnify"><defs/><g><!--class Artista--><g class="entity" data-qualified-name="Artista" data-source-line="3" id="ent0002"><rect fill="#F1F1F1" height="32" rx="2.5" ry="2.5" style="stroke:#181818;stroke-width:0.5;" width="78.0742" x="383.59" y="7"/><ellipse cx="398.59" cy="23" fill="#ADD1B2" rx="11" ry="11" style="stroke:#181818;stroke-width:1;"/><path d="M401.5588,28.6406 Q400.9806,28.9375 400.34,29.0781 Q399.6994,29.2344 398.9963,29.2344 Q396.4963,29.2344 395.1681,27.5938 Q393.8556,25.9375 393.8556,22.8125 Q393.8556,19.6875 395.1681,18.0313 Q396.4963,16.375 398.9963,16.375 Q399.6994,16.375 400.34,16.5313 Q400.9963,16.6875 401.5588,16.9844 L401.5588,19.7031 Q400.9338,19.125 400.34,18.8594 Q399.7463,18.5781 399.1213,18.5781 Q397.7775,18.5781 397.09,19.6563 Q396.4025,20.7188 396.4025,22.8125 Q396.4025,24.9063 397.09,25.9844 Q397.7775,27.0469 399.1213,27.0469 Q399.7463,27.0469 400.34,26.7813 Q400.9338,26.5 401.5588,25.9219 L401.5588,28.6406 Z " fill="#000000"/><text fill="#000000" font-family="sans-serif" font-size="14" lengthAdjust="spacing" textLength="46.0742" x="412.59" y="27.8467">Artista</text></g><!--class Discografica--><g class="entity" data-qualified-name="Discografica" data-source-line="4" id="ent0003"><rect fill="#F1F1F1" height="32" rx="2.5" ry="2.5" style="stroke:#181818;stroke-width:0.5;" width="118.543" x="254.36" y="193"/><ellipse cx="269.36" cy="209" fill="#ADD1B2" rx="11" ry="11" style="stroke:#181818;stroke-width:1;"/><path d="M272.3288,214.6406 Q271.7506,214.9375 271.11,215.0781 Q270.4694,215.2344 269.7663,215.2344 Q267.2663,215.2344 265.9381,213.5938 Q264.6256,211.9375 264.6256,208.8125 Q264.6256,205.6875 265.9381,204.0313 Q267.2663,202.375 269.7663,202.375 Q270.4694,202.375 271.11,202.5313 Q271.7663,202.6875 272.3288,202.9844 L272.3288,205.7031 Q271.7038,205.125 271.11,204.8594 Q270.5163,204.5781 269.8913,204.5781 Q268.5475,204.5781 267.86,205.6563 Q267.1725,206.7188 267.1725,208.8125 Q267.1725,210.9063 267.86,211.9844 Q268.5475,213.0469 269.8913,213.0469 Q270.5163,213.0469 271.11,212.7813 Q271.7038,212.5 272.3288,211.9219 L272.3288,214.6406 Z " fill="#000000"/><text fill="#000000" font-family="sans-serif" font-size="14" lengthAdjust="spacing" textLength="86.543" x="283.36" y="213.8467">Discografica</text></g><!--class Album--><g class="entity" data-qualified-name="Album" data-source-line="5" id="ent0004"><rect fill="#F1F1F1" height="32" rx="2.5" ry="2.5" style="stroke:#181818;stroke-width:0.5;" width="76.8643" x="79.2" y="100"/><ellipse cx="94.2" cy="116" fill="#ADD1B2" rx="11" ry="11" style="stroke:#181818;stroke-width:1;"/><path d="M97.1688,121.6406 Q96.5906,121.9375 95.95,122.0781 Q95.3094,122.2344 94.6063,122.2344 Q92.1063,122.2344 90.7781,120.5938 Q89.4656,118.9375 89.4656,115.8125 Q89.4656,112.6875 90.7781,111.0313 Q92.1063,109.375 94.6063,109.375 Q95.3094,109.375 95.95,109.5313 Q96.6063,109.6875 97.1688,109.9844 L97.1688,112.7031 Q96.5438,112.125 95.95,111.8594 Q95.3563,111.5781 94.7313,111.5781 Q93.3875,111.5781 92.7,112.6563 Q92.0125,113.7188 92.0125,115.8125 Q92.0125,117.9063 92.7,118.9844 Q93.3875,120.0469 94.7313,120.0469 Q95.3563,120.0469 95.95,119.7813 Q96.5438,119.5 97.1688,118.9219 L97.1688,121.6406 Z " fill="#000000"/><text fill="#000000" font-family="sans-serif" font-size="14" lengthAdjust="spacing" textLength="44.8643" x="108.2" y="120.8467">Album</text></g><!--class Genero--><g class="entity" data-qualified-name="Genero" data-source-line="6" id="ent0005"><rect fill="#F1F1F1" height="32" rx="2.5" ry="2.5" style="stroke:#181818;stroke-width:0.5;" width="83.2695" x="190.99" y="100"/><ellipse cx="205.99" cy="116" fill="#ADD1B2" rx="11" ry="11" style="stroke:#181818;stroke-width:1;"/><path d="M208.9588,121.6406 Q208.3806,121.9375 207.74,122.0781 Q207.0994,122.2344 206.3963,122.2344 Q203.8963,122.2344 202.5681,120.5938 Q201.2556,118.9375 201.2556,115.8125 Q201.2556,112.6875 202.5681,111.0313 Q203.8963,109.375 206.3963,109.375 Q207.0994,109.375 207.74,109.5313 Q208.3963,109.6875 208.9588,109.9844 L208.9588,112.7031 Q208.3338,112.125 207.74,111.8594 Q207.1463,111.5781 206.5213,111.5781 Q205.1775,111.5781 204.49,112.6563 Q203.8025,113.7188 203.8025,115.8125 Q203.8025,117.9063 204.49,118.9844 Q205.1775,120.0469 206.5213,120.0469 Q207.1463,120.0469 207.74,119.7813 Q208.3338,119.5 208.9588,118.9219 L208.9588,121.6406 Z " fill="#000000"/><text fill="#000000" font-family="sans-serif" font-size="14" lengthAdjust="spacing" textLength="51.2695" x="219.99" y="120.8467">Genero</text></g><!--class Cancion--><g class="entity" data-qualified-name="Cancion" data-source-line="7" id="ent0006"><rect fill="#F1F1F1" height="32" rx="2.5" ry="2.5" style="stroke:#181818;stroke-width:0.5;" width="88.2529" x="309.5" y="100"/><ellipse cx="324.5" cy="116" fill="#ADD1B2" rx="11" ry="11" style="stroke:#181818;stroke-width:1;"/><path d="M327.4688,121.6406 Q326.8906,121.9375 326.25,122.0781 Q325.6094,122.2344 324.9063,122.2344 Q322.4063,122.2344 321.0781,120.5938 Q319.7656,118.9375 319.7656,115.8125 Q319.7656,112.6875 321.0781,111.0313 Q322.4063,109.375 324.9063,109.375 Q325.6094,109.375 326.25,109.5313 Q326.9063,109.6875 327.4688,109.9844 L327.4688,112.7031 Q326.8438,112.125 326.25,111.8594 Q325.6563,111.5781 325.0313,111.5781 Q323.6875,111.5781 323,112.6563 Q322.3125,113.7188 322.3125,115.8125 Q322.3125,117.9063 323,118.9844 Q323.6875,120.0469 325.0313,120.0469 Q325.6563,120.0469 326.25,119.7813 Q326.8438,119.5 327.4688,118.9219 L327.4688,121.6406 Z " fill="#000000"/><text fill="#000000" font-family="sans-serif" font-size="14" lengthAdjust="spacing" textLength="56.2529" x="338.5" y="120.8467">Cancion</text></g><!--class Instrumento--><g class="entity" data-qualified-name="Instrumento" data-source-line="8" id="ent0007"><rect fill="#F1F1F1" height="32" rx="2.5" ry="2.5" style="stroke:#181818;stroke-width:0.5;" width="117.5928" x="432.83" y="100"/><ellipse cx="447.83" cy="116" fill="#ADD1B2" rx="11" ry="11" style="stroke:#181818;stroke-width:1;"/><path d="M450.7988,121.6406 Q450.2206,121.9375 449.58,122.0781 Q448.9394,122.2344 448.2363,122.2344 Q445.7363,122.2344 444.4081,120.5938 Q443.0956,118.9375 443.0956,115.8125 Q443.0956,112.6875 444.4081,111.0313 Q445.7363,109.375 448.2363,109.375 Q448.9394,109.375 449.58,109.5313 Q450.2363,109.6875 450.7988,109.9844 L450.7988,112.7031 Q450.1738,112.125 449.58,111.8594 Q448.9863,111.5781 448.3613,111.5781 Q447.0175,111.5781 446.33,112.6563 Q445.6425,113.7188 445.6425,115.8125 Q445.6425,117.9063 446.33,118.9844 Q447.0175,120.0469 448.3613,120.0469 Q448.9863,120.0469 449.58,119.7813 Q450.1738,119.5 450.7988,118.9219 L450.7988,121.6406 Z " fill="#000000"/><text fill="#000000" font-family="sans-serif" font-size="14" lengthAdjust="spacing" textLength="85.5928" x="461.83" y="120.8467">Instrumento</text></g><!--class Contrato--><g class="entity" data-qualified-name="Contrato" data-source-line="9" id="ent0008"><rect fill="#F1F1F1" height="32" rx="2.5" ry="2.5" style="stroke:#181818;stroke-width:0.5;" width="93.0928" x="585.08" y="100"/><ellipse cx="600.08" cy="116" fill="#ADD1B2" rx="11" ry="11" style="stroke:#181818;stroke-width:1;"/><path d="M603.0487,121.6406 Q602.4706,121.9375 601.83,122.0781 Q601.1894,122.2344 600.4862,122.2344 Q597.9862,122.2344 596.6581,120.5938 Q595.3456,118.9375 595.3456,115.8125 Q595.3456,112.6875 596.6581,111.0313 Q597.9862,109.375 600.4862,109.375 Q601.1894,109.375 601.83,109.5313 Q602.4862,109.6875 603.0487,109.9844 L603.0487,112.7031 Q602.4237,112.125 601.83,111.8594 Q601.2362,111.5781 600.6112,111.5781 Q599.2675,111.5781 598.58,112.6563 Q597.8925,113.7188 597.8925,115.8125 Q597.8925,117.9063 598.58,118.9844 Q599.2675,120.0469 600.6112,120.0469 Q601.2362,120.0469 601.83,119.7813 Q602.4237,119.5 603.0487,118.9219 L603.0487,121.6406 Z " fill="#000000"/><text fill="#000000" font-family="sans-serif" font-size="14" lengthAdjust="spacing" textLength="61.0928" x="614.08" y="120.8467">Contrato</text></g><!--class Concierto--><g class="entity" data-qualified-name="Concierto" data-source-line="10" id="ent0009"><rect fill="#F1F1F1" height="32" rx="2.5" ry="2.5" style="stroke:#181818;stroke-width:0.5;" width="99.2246" x="694.02" y="193"/><ellipse cx="709.02" cy="209" fill="#ADD1B2" rx="11" ry="11" style="stroke:#181818;stroke-width:1;"/><path d="M711.9888,214.6406 Q711.4106,214.9375 710.77,215.0781 Q710.1294,215.2344 709.4263,215.2344 Q706.9263,215.2344 705.5981,213.5938 Q704.2856,211.9375 704.2856,208.8125 Q704.2856,205.6875 705.5981,204.0313 Q706.9263,202.375 709.4263,202.375 Q710.1294,202.375 710.77,202.5313 Q711.4263,202.6875 711.9888,202.9844 L711.9888,205.7031 Q711.3638,205.125 710.77,204.8594 Q710.1763,204.5781 709.5513,204.5781 Q708.2075,204.5781 707.52,205.6563 Q706.8325,206.7188 706.8325,208.8125 Q706.8325,210.9063 707.52,211.9844 Q708.2075,213.0469 709.5513,213.0469 Q710.1763,213.0469 710.77,212.7813 Q711.3638,212.5 711.9888,211.9219 L711.9888,214.6406 Z " fill="#000000"/><text fill="#000000" font-family="sans-serif" font-size="14" lengthAdjust="spacing" textLength="67.2246" x="723.02" y="213.8467">Concierto</text></g><!--class Gira--><g class="entity" data-qualified-name="Gira" data-source-line="11" id="ent0010"><rect fill="#F1F1F1" height="32" rx="2.5" ry="2.5" style="stroke:#181818;stroke-width:0.5;" width="61.0732" x="713.09" y="100"/><ellipse cx="728.09" cy="116" fill="#ADD1B2" rx="11" ry="11" style="stroke:#181818;stroke-width:1;"/><path d="M731.0587,121.6406 Q730.4806,121.9375 729.84,122.0781 Q729.1994,122.2344 728.4962,122.2344 Q725.9962,122.2344 724.6681,120.5938 Q723.3556,118.9375 723.3556,115.8125 Q723.3556,112.6875 724.6681,111.0313 Q725.9962,109.375 728.4962,109.375 Q729.1994,109.375 729.84,109.5313 Q730.4962,109.6875 731.0587,109.9844 L731.0587,112.7031 Q730.4337,112.125 729.84,111.8594 Q729.2462,111.5781 728.6212,111.5781 Q727.2775,111.5781 726.59,112.6563 Q725.9025,113.7188 725.9025,115.8125 Q725.9025,117.9063 726.59,118.9844 Q727.2775,120.0469 728.6212,120.0469 Q729.2462,120.0469 729.84,119.7813 Q730.4337,119.5 731.0587,118.9219 L731.0587,121.6406 Z " fill="#000000"/><text fill="#000000" font-family="sans-serif" font-size="14" lengthAdjust="spacing" textLength="29.0732" x="742.09" y="120.8467">Gira</text></g><!--class Miembro--><g class="entity" data-qualified-name="Miembro" data-source-line="12" id="ent0011"><rect fill="#F1F1F1" height="32" rx="2.5" ry="2.5" style="stroke:#181818;stroke-width:0.5;" width="93.4277" x="808.92" y="100"/><ellipse cx="823.92" cy="116" fill="#ADD1B2" rx="11" ry="11" style="stroke:#181818;stroke-width:1;"/><path d="M826.8888,121.6406 Q826.3106,121.9375 825.67,122.0781 Q825.0294,122.2344 824.3263,122.2344 Q821.8263,122.2344 820.4981,120.5938 Q819.1856,118.9375 819.1856,115.8125 Q819.1856,112.6875 820.4981,111.0313 Q821.8263,109.375 824.3263,109.375 Q825.0294,109.375 825.67,109.5313 Q826.3263,109.6875 826.8888,109.9844 L826.8888,112.7031 Q826.2638,112.125 825.67,111.8594 Q825.0763,111.5781 824.4513,111.5781 Q823.1075,111.5781 822.42,112.6563 Q821.7325,113.7188 821.7325,115.8125 Q821.7325,117.9063 822.42,118.9844 Q823.1075,120.0469 824.4513,120.0469 Q825.0763,120.0469 825.67,119.7813 Q826.2638,119.5 826.8888,118.9219 L826.8888,121.6406 Z " fill="#000000"/><text fill="#000000" font-family="sans-serif" font-size="14" lengthAdjust="spacing" textLength="61.4277" x="837.92" y="120.8467">Miembro</text></g><!--reverse link Artista to Genero--><g class="link" data-entity-1="ent0002" data-entity-2="ent0005" data-link-type="composition" data-source-line="15" id="lnk12"><path codeLine="15" d="M379.5764,44.6217 C344.5264,61.4017 299.68,82.89 264.7,99.64" fill="none" id="Artista-backto-Genero" style="stroke:#181818;stroke-width:1;"/><polygon fill="#181818" points="390.4,39.44,383.261,38.423,379.5764,44.6217,386.7155,45.6387,390.4,39.44" style="stroke:#181818;stroke-width:1;"/></g><!--reverse link Artista to Album--><g class="link" data-entity-1="ent0002" data-entity-2="ent0004" data-link-type="aggregation" data-source-line="16" id="lnk13"><path codeLine="16" d="M371.8809,39.1409 C313.1609,56.6609 214.6,86.07 156.25,103.48" fill="none" id="Artista-backto-Album" style="stroke:#181818;stroke-width:1;"/><polygon fill="none" points="383.38,35.71,376.4868,33.5924,371.8809,39.1409,378.7741,41.2585,383.38,35.71" style="stroke:#181818;stroke-width:1;"/></g><!--reverse link Artista to Cancion--><g class="link" data-entity-1="ent0002" data-entity-2="ent0006" data-link-type="aggregation" data-source-line="17" id="lnk14"><path codeLine="17" d="M403.6701,49.0024 C390.9101,65.8324 377.86,83.05 365.16,99.79" fill="none" id="Artista-backto-Cancion" style="stroke:#181818;stroke-width:1;"/><polygon fill="none" points="410.92,39.44,404.1076,41.8046,403.6701,49.0024,410.4825,46.6378,410.92,39.44" style="stroke:#181818;stroke-width:1;"/></g><!--link Artista to Discografica--><g class="link" data-entity-1="ent0002" data-entity-2="ent0003" data-link-type="dependency" data-source-line="18" id="lnk15"><path codeLine="18" d="M383.2,26.24 C298.14,31.99 101.83,50.45 61.63,100 C6,168.56 157.3297,193.874 248.1897,202.944" fill="none" id="Artista-to-Discografica" style="stroke:#181818;stroke-width:1;"/><polygon fill="#181818" points="254.16,203.54,245.6018,198.6658,249.1847,203.0433,244.8072,206.6262,254.16,203.54" style="stroke:#181818;stroke-width:1;"/></g><!--link Artista to Artista--><g class="link" data-entity-1="ent0002" data-entity-2="ent0002" data-link-type="dependency" data-source-line="19" id="lnk16"><path codeLine="19" d="M461.86,14.47 C480.39,13.48 496.67,16.32 496.67,23 C496.67,29.68 486.3815,32.8401 467.8515,31.8501" fill="none" id="Artista-to-Artista" style="stroke:#181818;stroke-width:1;"/><polygon fill="#181818" points="461.86,31.53,470.6338,36.0045,466.8529,31.7968,471.0606,28.0159,461.86,31.53" style="stroke:#181818;stroke-width:1;"/><text fill="#000000" font-family="sans-serif" font-size="13" lengthAdjust="spacing" textLength="77.7461" x="502.67" y="27.5669">colaborador</text></g><!--link Artista to Instrumento--><g class="link" data-entity-1="ent0002" data-entity-2="ent0007" data-link-type="dependency" data-source-line="20" id="lnk17"><path codeLine="20" d="M434.33,39.44 C447.1,56.27 463.7736,78.2699 476.4736,95.0099" fill="none" id="Artista-to-Instrumento" style="stroke:#181818;stroke-width:1;stroke-dasharray:7,7;"/><polygon fill="#181818" points="480.1,99.79,477.847,90.2023,477.078,95.8066,471.4736,95.0376,480.1,99.79" style="stroke:#181818;stroke-width:1;"/></g><!--reverse link Artista to Miembro--><g class="link" data-entity-1="ent0002" data-entity-2="ent0011" data-link-type="composition" data-source-line="21" id="lnk18"><path codeLine="21" d="M473.7918,34.0793 C541.3618,47.4493 671.86,73.64 791.63,100 C797.09,101.2 802.81,102.49 808.48,103.8" fill="none" id="Artista-backto-Miembro" style="stroke:#181818;stroke-width:1;"/><polygon fill="#181818" points="462.02,31.75,467.1295,36.8386,473.7918,34.0793,468.6823,28.9907,462.02,31.75" style="stroke:#181818;stroke-width:1;"/></g><!--reverse link Artista to Gira--><g class="link" data-entity-1="ent0002" data-entity-2="ent0010" data-link-type="aggregation" data-source-line="22" id="lnk19"><path codeLine="22" d="M473.6562,37.6842 C526.8362,52.0242 612.82,75.54 695.63,100 C701.16,101.63 707.02,103.42 712.69,105.17" fill="none" id="Artista-backto-Gira" style="stroke:#181818;stroke-width:1;"/><polygon fill="none" points="462.07,34.56,466.8217,39.9842,473.6562,37.6842,468.9045,32.2601,462.07,34.56" style="stroke:#181818;stroke-width:1;"/></g><!--reverse link Gira to Concierto--><g class="link" data-entity-1="ent0010" data-entity-2="ent0009" data-link-type="aggregation" data-source-line="23" id="lnk20"><path codeLine="23" d="M743.63,144.44 C743.63,161.27 743.63,176.05 743.63,192.79" fill="none" id="Gira-backto-Concierto" style="stroke:#181818;stroke-width:1;"/><polygon fill="none" points="743.63,132.44,739.63,138.44,743.63,144.44,747.63,138.44,743.63,132.44" style="stroke:#181818;stroke-width:1;"/></g><!--link Artista to Contrato--><g class="link" data-entity-1="ent0002" data-entity-2="ent0008" data-link-type="association" data-source-line="24" id="lnk21"><path codeLine="24" d="M458.08,39.44 C496.63,56.22 557.87,82.89 596.35,99.64" fill="none" id="Artista-Contrato" style="stroke:#181818;stroke-width:1;"/></g><!--link Contrato to Discografica--><g class="link" data-entity-1="ent0008" data-entity-2="ent0003" data-link-type="association" data-source-line="25" id="lnk22"><path codeLine="25" d="M584.71,130.43 C526.83,146.99 428.64,175.09 367.67,192.54" fill="none" id="Contrato-Discografica" style="stroke:#181818;stroke-width:1;"/></g><?plantuml-src LP113eCW44Ntd89r4pn05oQcJKmNFGJYj9r4c6R0XRUlLWPnG-R_8Vpt-U086lmtBTg37u2ZKcwoCUgE4yPaixfZTFHc-q8dLZSDiyzp3m6OihZPu912LeyG4yyUGYfx2ebjBHq25zqZIyGJLwRrNQKoZRuO8s5YqMhjBBKZ4E8PqvvBr0kPhzhHP0TYEnAN6qtJdbhKB49OH_yBRCSEKkeTYSSNoB2PDTuF?></g></svg>