<?plantuml 1.2026.2beta3?><svg xmlns="http://www.w3.org/2000/svg" xmlns:xlink="http://www.w3.org/1999/xlink" contentStyleType="text/css" data-diagram-type="CLASS" height="508px" preserveAspectRatio="none" style="width:343px;height:508px;background:#FFFFFF;" version="1.1" viewBox="0 0 343 508" width="343px" zoomAndPan="magnify"><title>Modelo de Dominio: Ecosistema Musical</title><defs/><g><g class="title" data-source-line="6"><text fill="#000000" font-family="sans-serif" font-size="14" font-weight="bold" lengthAdjust="spacing" textLength="315.8477" x="10" y="22.9951">Modelo de Dominio: Ecosistema Musical</text></g><!--class Artista--><g class="entity" data-qualified-name="Artista" data-source-line="8" id="ent0002"><rect fill="#F1F1F1" height="26.2969" rx="2.5" ry="2.5" style="stroke:#181818;stroke-width:0.5;" width="52.0742" x="174.2817" y="130.5969"/><text fill="#000000" font-family="sans-serif" font-size="14" lengthAdjust="spacing" textLength="46.0742" x="177.2817" y="148.592">Artista</text></g><!--class Discografica--><g class="entity" data-qualified-name="Discografica" data-source-line="9" id="ent0003"><rect fill="#F1F1F1" height="26.2969" rx="2.5" ry="2.5" style="stroke:#181818;stroke-width:0.5;" width="92.543" x="193.0417" y="44.2969"/><text fill="#000000" font-family="sans-serif" font-size="14" lengthAdjust="spacing" textLength="86.543" x="196.0417" y="62.292">Discografica</text></g><!--class Album--><g class="entity" data-qualified-name="Album" data-source-line="10" id="ent0004"><rect fill="#F1F1F1" height="26.2969" rx="2.5" ry="2.5" style="stroke:#181818;stroke-width:0.5;" width="50.8643" x="262.8817" y="216.8869"/><text fill="#000000" font-family="sans-serif" font-size="14" lengthAdjust="spacing" textLength="44.8643" x="265.8817" y="234.882">Album</text></g><!--class Genero--><g class="entity" data-qualified-name="Genero" data-source-line="11" id="ent0005"><rect fill="#F1F1F1" height="26.2969" rx="2.5" ry="2.5" style="stroke:#181818;stroke-width:0.5;" width="57.2695" x="218.6817" y="475.7769"/><text fill="#000000" font-family="sans-serif" font-size="14" lengthAdjust="spacing" textLength="51.2695" x="221.6817" y="493.772">Genero</text></g><!--class Grabacion--><g class="entity" data-qualified-name="Grabacion" data-source-line="12" id="ent0006"><rect fill="#F1F1F1" height="26.2969" rx="2.5" ry="2.5" style="stroke:#181818;stroke-width:0.5;" width="77.6748" x="157.4817" y="303.1869"/><text fill="#000000" font-family="sans-serif" font-size="14" lengthAdjust="spacing" textLength="71.6748" x="160.4817" y="321.182">Grabacion</text></g><!--class Cancion--><g class="entity" data-qualified-name="Cancion" data-source-line="13" id="ent0007"><rect fill="#F1F1F1" height="26.2969" rx="2.5" ry="2.5" style="stroke:#181818;stroke-width:0.5;" width="62.2529" x="149.1917" y="389.4869"/><text fill="#000000" font-family="sans-serif" font-size="14" lengthAdjust="spacing" textLength="56.2529" x="152.1917" y="407.482">Cancion</text></g><!--class Compositor--><g class="entity" data-qualified-name="Compositor" data-source-line="14" id="ent0008"><rect fill="#F1F1F1" height="26.2969" rx="2.5" ry="2.5" style="stroke:#181818;stroke-width:0.5;" width="86.4248" x="36.1017" y="303.1869"/><text fill="#000000" font-family="sans-serif" font-size="14" lengthAdjust="spacing" textLength="80.4248" x="39.1017" y="321.182">Compositor</text></g><!--class Letra--><g class="entity" data-qualified-name="Letra" data-source-line="15" id="ent0009"><rect fill="#F1F1F1" height="26.2969" rx="2.5" ry="2.5" style="stroke:#181818;stroke-width:0.5;" width="42.2373" x="109.1917" y="475.7769"/><text fill="#000000" font-family="sans-serif" font-size="14" lengthAdjust="spacing" textLength="36.2373" x="112.1917" y="493.772">Letra</text></g><!--class Concierto--><g class="entity" data-qualified-name="Concierto" data-source-line="16" id="ent0010"><rect fill="#F1F1F1" height="26.2969" rx="2.5" ry="2.5" style="stroke:#181818;stroke-width:0.5;" width="73.2246" x="154.7017" y="216.8869"/><text fill="#000000" font-family="sans-serif" font-size="14" lengthAdjust="spacing" textLength="67.2246" x="157.7017" y="234.882">Concierto</text></g><!--link Discografica to Artista--><g class="link" data-entity-1="ent0003" data-entity-2="ent0002" data-link-type="dependency" data-source-line="20" id="lnk11"><path codeLine="20" d="M233.5617,70.8869 C226.1817,86.8169 216.0028,108.8422 208.6128,124.8022" fill="none" id="Discografica-to-Artista" style="stroke:#181818;stroke-width:1;"/><polygon fill="#181818" points="206.0917,130.2469,213.5031,123.7606,208.1926,125.7097,206.2435,120.3992,206.0917,130.2469" style="stroke:#181818;stroke-width:1;"/></g><!--link Discografica to Album--><g class="link" data-entity-1="ent0003" data-entity-2="ent0004" data-link-type="dependency" data-source-line="21" id="lnk12"><path codeLine="21" d="M242.9217,70.9869 C251.9817,102.5369 273.9866,179.1397 283.0466,210.7097" fill="none" id="Discografica-to-Album" style="stroke:#181818;stroke-width:1;"/><polygon fill="#181818" points="284.7017,216.4769,286.0639,206.7227,283.3225,211.6709,278.3743,208.9294,284.7017,216.4769" style="stroke:#181818;stroke-width:1;"/></g><!--link Artista to Concierto--><g class="link" data-entity-1="ent0002" data-entity-2="ent0010" data-link-type="dependency" data-source-line="23" id="lnk13"><path codeLine="23" d="M198.9817,157.1769 C197.2817,173.1169 194.9872,194.6206 193.2872,210.5806" fill="none" id="Artista-to-Concierto" style="stroke:#181818;stroke-width:1;"/><polygon fill="#181818" points="192.6517,216.5469,197.5825,208.0212,193.1813,211.575,189.6275,207.1738,192.6517,216.5469" style="stroke:#181818;stroke-width:1;"/></g><!--link Artista to Grabacion--><g class="link" data-entity-1="ent0002" data-entity-2="ent0006" data-link-type="dependency" data-source-line="24" id="lnk14"><path codeLine="24" d="M184.0317,157.3069 C168.6517,170.2969 146.6017,192.1369 137.3117,216.8869 C124.8517,250.0969 153.6424,280.8638 175.1524,298.8838" fill="none" id="Artista-to-Grabacion" style="stroke:#181818;stroke-width:1;"/><polygon fill="#181818" points="179.7517,302.7369,175.4214,293.891,175.9189,299.526,170.284,300.0235,179.7517,302.7369" style="stroke:#181818;stroke-width:1;"/></g><!--link Artista to Album--><g class="link" data-entity-1="ent0002" data-entity-2="ent0004" data-link-type="dependency" data-source-line="25" id="lnk15"><path codeLine="25" d="M213.3017,157.1769 C229.9317,173.1169 254.279,196.4362 270.939,212.3962" fill="none" id="Artista-to-Album" style="stroke:#181818;stroke-width:1;"/><polygon fill="#181818" points="275.2717,216.5469,271.5398,207.4325,271.6611,213.088,266.0056,213.2094,275.2717,216.5469" style="stroke:#181818;stroke-width:1;"/></g><!--link Album to Grabacion--><g class="link" data-entity-1="ent0004" data-entity-2="ent0006" data-link-type="dependency" data-source-line="27" id="lnk16"><path codeLine="27" d="M274.7417,243.4769 C257.3417,259.4169 231.7857,282.8337 214.3657,298.7937" fill="none" id="Album-to-Grabacion" style="stroke:#181818;stroke-width:1;"/><polygon fill="#181818" points="209.9417,302.8469,219.2798,299.7164,213.6283,299.4692,213.8755,293.8178,209.9417,302.8469" style="stroke:#181818;stroke-width:1;"/></g><!--link Album to Genero--><g class="link" data-entity-1="ent0004" data-entity-2="ent0005" data-link-type="dependency" data-source-line="28" id="lnk17"><path codeLine="28" d="M286.3317,243.4269 C279.4117,286.8269 257.2374,425.7619 250.2674,469.4319" fill="none" id="Album-to-Genero" style="stroke:#181818;stroke-width:1;"/><polygon fill="#181818" points="249.3217,475.3569,254.6902,467.0998,250.1098,470.4194,246.7902,465.8389,249.3217,475.3569" style="stroke:#181818;stroke-width:1;"/></g><!--link Grabacion to Cancion--><g class="link" data-entity-1="ent0006" data-entity-2="ent0007" data-link-type="dependency" data-source-line="30" id="lnk18"><path codeLine="30" d="M193.9517,329.7769 C190.9317,345.7069 186.8301,367.282 183.8001,383.252" fill="none" id="Grabacion-to-Cancion" style="stroke:#181818;stroke-width:1;"/><polygon fill="#181818" points="182.6817,389.1469,188.2892,381.0502,183.6137,384.2345,180.4295,379.559,182.6817,389.1469" style="stroke:#181818;stroke-width:1;"/></g><!--link Cancion to Letra--><g class="link" data-entity-1="ent0007" data-entity-2="ent0009" data-link-type="dependency" data-source-line="32" id="lnk19"><path codeLine="32" d="M172.9317,416.0669 C163.4817,432.0069 150.2534,454.3169 140.7834,470.2769" fill="none" id="Cancion-to-Letra" style="stroke:#181818;stroke-width:1;"/><polygon fill="#181818" points="137.7217,475.4369,145.7543,469.738,140.2731,471.1369,138.8743,465.6557,137.7217,475.4369" style="stroke:#181818;stroke-width:1;"/></g><!--link Cancion to Genero--><g class="link" data-entity-1="ent0007" data-entity-2="ent0005" data-link-type="dependency" data-source-line="33" id="lnk20"><path codeLine="33" d="M190.2017,416.0669 C202.8717,432.0069 220.9675,454.7805 233.6575,470.7405" fill="none" id="Cancion-to-Genero" style="stroke:#181818;stroke-width:1;"/><polygon fill="#181818" points="237.3917,475.4369,234.9214,465.9029,234.2799,471.5232,228.6595,470.8817,237.3917,475.4369" style="stroke:#181818;stroke-width:1;"/></g><!--link Compositor to Cancion--><g class="link" data-entity-1="ent0008" data-entity-2="ent0007" data-link-type="dependency" data-source-line="35" id="lnk21"><path codeLine="35" d="M94.2217,329.7769 C113.3117,345.7069 141.6157,369.3317 160.7457,385.3017" fill="none" id="Compositor-to-Cancion" style="stroke:#181818;stroke-width:1;"/><polygon fill="#181818" points="165.3517,389.1469,161.0062,380.3085,161.5134,385.9426,155.8793,386.4498,165.3517,389.1469" style="stroke:#181818;stroke-width:1;"/></g><!--link Compositor to Letra--><g class="link" data-entity-1="ent0008" data-entity-2="ent0009" data-link-type="dependency" data-source-line="36" id="lnk22"><path codeLine="36" d="M83.0617,329.8769 C92.4917,361.4269 115.4028,438.0484 124.8428,469.6184" fill="none" id="Compositor-to-Letra" style="stroke:#181818;stroke-width:1;"/><polygon fill="#181818" points="126.5617,475.3669,127.8157,465.5982,125.1293,470.5765,120.151,467.8901,126.5617,475.3669" style="stroke:#181818;stroke-width:1;"/></g><?plantuml-src PP11KiCm34NtEeLsh7815immBR2Xt45nrCHWMndBWUcvE08NmqsSn9IDBVqdMT_I3nj6YkHHqyLnFgCrQV8ET2DUWfWXYcTCSUAAw42TVDdGuvcSCWosOsG_fWjwzYr71KWsvNTFqh4JpFWetWOhz_XaHAqczeIdIQqXXm36aIe-nfG9bUnerKWVwPnhrWBNJhx4Bnmuoff4QibO2IK_KAWpyMCUcYGMuPLJf0tcKev90EwmQHfyTjFxRFcDFhdFh_vyXoi0g1rbvM4p_1_CHg7mMThdrEfkl5RNzkjrMxPhom9WOykOydCemImk_wsLjNbVpP_k6tdk_mK0?></g></svg>