<?plantuml 1.2026.2beta3?><svg xmlns="http://www.w3.org/2000/svg" xmlns:xlink="http://www.w3.org/1999/xlink" contentStyleType="text/css" data-diagram-type="CLASS" height="363px" preserveAspectRatio="none" style="width:626px;height:363px;background:#FFFFFF;" version="1.1" viewBox="0 0 626 363" width="626px" zoomAndPan="magnify"><defs/><g><!--class GeneroMusical--><g class="entity" data-qualified-name="GeneroMusical" data-source-line="3" id="ent0002"><rect fill="#F1F1F1" height="42.2969" rx="2.5" ry="2.5" style="stroke:#181818;stroke-width:0.5;" width="109.5713" x="7" y="211.6"/><text fill="#000000" font-family="sans-serif" font-size="14" lengthAdjust="spacing" textLength="103.5713" x="10" y="229.5951">GeneroMusical</text><line style="stroke:#181818;stroke-width:0.5;" x1="8" x2="115.5713" y1="237.8969" y2="237.8969"/><line style="stroke:#181818;stroke-width:0.5;" x1="8" x2="115.5713" y1="245.8969" y2="245.8969"/></g><!--class Instrumento--><g class="entity" data-qualified-name="Instrumento" data-source-line="4" id="ent0003"><rect fill="#F1F1F1" height="42.2969" rx="2.5" ry="2.5" style="stroke:#181818;stroke-width:0.5;" width="91.5928" x="264.99" y="313.89"/><text fill="#000000" font-family="sans-serif" font-size="14" lengthAdjust="spacing" textLength="85.5928" x="267.99" y="331.8851">Instrumento</text><line style="stroke:#181818;stroke-width:0.5;" x1="265.99" x2="355.5828" y1="340.1869" y2="340.1869"/><line style="stroke:#181818;stroke-width:0.5;" x1="265.99" x2="355.5828" y1="348.1869" y2="348.1869"/></g><!--class Productor--><g class="entity" data-qualified-name="Productor" data-source-line="5" id="ent0004"><rect fill="#F1F1F1" height="42.2969" rx="2.5" ry="2.5" style="stroke:#181818;stroke-width:0.5;" width="74.0313" x="151.77" y="211.6"/><text fill="#000000" font-family="sans-serif" font-size="14" lengthAdjust="spacing" textLength="68.0313" x="154.77" y="229.5951">Productor</text><line style="stroke:#181818;stroke-width:0.5;" x1="152.77" x2="224.8013" y1="237.8969" y2="237.8969"/><line style="stroke:#181818;stroke-width:0.5;" x1="152.77" x2="224.8013" y1="245.8969" y2="245.8969"/></g><!--class Artista--><g class="entity" data-qualified-name="Artista" data-source-line="6" id="ent0005"><rect fill="#F1F1F1" height="42.2969" rx="2.5" ry="2.5" style="stroke:#181818;stroke-width:0.5;" width="52.0742" x="341.75" y="211.6"/><text fill="#000000" font-family="sans-serif" font-size="14" lengthAdjust="spacing" textLength="46.0742" x="344.75" y="229.5951">Artista</text><line style="stroke:#181818;stroke-width:0.5;" x1="342.75" x2="392.8242" y1="237.8969" y2="237.8969"/><line style="stroke:#181818;stroke-width:0.5;" x1="342.75" x2="392.8242" y1="245.8969" y2="245.8969"/></g><!--class Cancion--><g class="entity" data-qualified-name="Cancion" data-source-line="7" id="ent0006"><rect fill="#F1F1F1" height="42.2969" rx="2.5" ry="2.5" style="stroke:#181818;stroke-width:0.5;" width="62.2529" x="157.66" y="109.3"/><text fill="#000000" font-family="sans-serif" font-size="14" lengthAdjust="spacing" textLength="56.2529" x="160.66" y="127.2951">Cancion</text><line style="stroke:#181818;stroke-width:0.5;" x1="158.66" x2="218.9129" y1="135.5969" y2="135.5969"/><line style="stroke:#181818;stroke-width:0.5;" x1="158.66" x2="218.9129" y1="143.5969" y2="143.5969"/></g><!--class Dispositivo--><g class="entity" data-qualified-name="Dispositivo" data-source-line="8" id="ent0007"><rect fill="#F1F1F1" height="42.2969" rx="2.5" ry="2.5" style="stroke:#181818;stroke-width:0.5;" width="82.8291" x="255.37" y="109.3"/><text fill="#000000" font-family="sans-serif" font-size="14" lengthAdjust="spacing" textLength="76.8291" x="258.37" y="127.2951">Dispositivo</text><line style="stroke:#181818;stroke-width:0.5;" x1="256.37" x2="337.1991" y1="135.5969" y2="135.5969"/><line style="stroke:#181818;stroke-width:0.5;" x1="256.37" x2="337.1991" y1="143.5969" y2="143.5969"/></g><!--class Oyente--><g class="entity" data-qualified-name="Oyente" data-source-line="9" id="ent0008"><rect fill="#F1F1F1" height="42.2969" rx="2.5" ry="2.5" style="stroke:#181818;stroke-width:0.5;" width="56.8936" x="214.34" y="7"/><text fill="#000000" font-family="sans-serif" font-size="14" lengthAdjust="spacing" textLength="50.8936" x="217.34" y="24.9951">Oyente</text><line style="stroke:#181818;stroke-width:0.5;" x1="215.34" x2="270.2336" y1="33.2969" y2="33.2969"/><line style="stroke:#181818;stroke-width:0.5;" x1="215.34" x2="270.2336" y1="41.2969" y2="41.2969"/></g><!--class Manager--><g class="entity" data-qualified-name="Manager" data-source-line="10" id="ent0009"><rect fill="#F1F1F1" height="42.2969" rx="2.5" ry="2.5" style="stroke:#181818;stroke-width:0.5;" width="67.3662" x="391.1" y="313.89"/><text fill="#000000" font-family="sans-serif" font-size="14" lengthAdjust="spacing" textLength="61.3662" x="394.1" y="331.8851">Manager</text><line style="stroke:#181818;stroke-width:0.5;" x1="392.1" x2="457.4662" y1="340.1869" y2="340.1869"/><line style="stroke:#181818;stroke-width:0.5;" x1="392.1" x2="457.4662" y1="348.1869" y2="348.1869"/></g><!--class SelloDiscografico--><g class="entity" data-qualified-name="SelloDiscografico" data-source-line="11" id="ent0010"><rect fill="#F1F1F1" height="42.2969" rx="2.5" ry="2.5" style="stroke:#181818;stroke-width:0.5;" width="126.374" x="493.6" y="313.89"/><text fill="#000000" font-family="sans-serif" font-size="14" lengthAdjust="spacing" textLength="120.374" x="496.6" y="331.8851">SelloDiscografico</text><line style="stroke:#181818;stroke-width:0.5;" x1="494.6" x2="618.974" y1="340.1869" y2="340.1869"/><line style="stroke:#181818;stroke-width:0.5;" x1="494.6" x2="618.974" y1="348.1869" y2="348.1869"/></g><!--class EstudioGrabacion--><g class="entity" data-qualified-name="EstudioGrabacion" data-source-line="12" id="ent0011"><rect fill="#F1F1F1" height="42.2969" rx="2.5" ry="2.5" style="stroke:#181818;stroke-width:0.5;" width="129.5186" x="100.03" y="313.89"/><text fill="#000000" font-family="sans-serif" font-size="14" lengthAdjust="spacing" textLength="123.5186" x="103.03" y="331.8851">EstudioGrabacion</text><line style="stroke:#181818;stroke-width:0.5;" x1="101.03" x2="228.5486" y1="340.1869" y2="340.1869"/><line style="stroke:#181818;stroke-width:0.5;" x1="101.03" x2="228.5486" y1="348.1869" y2="348.1869"/></g><!--link Artista to Instrumento--><g class="link" data-entity-1="ent0005" data-entity-2="ent0003" data-link-type="dependency" data-source-line="14" id="lnk12"><path codeLine="14" d="M356.25,254.04 C346.43,271.33 335.3329,290.8326 325.4629,308.2126" fill="none" id="Artista-to-Instrumento" style="stroke:#181818;stroke-width:1;"/><polygon fill="#181818" points="322.5,313.43,330.4226,307.5792,324.9691,309.0822,323.4661,303.6286,322.5,313.43" style="stroke:#181818;stroke-width:1;"/><text fill="#000000" font-family="sans-serif" font-size="13" lengthAdjust="spacing" textLength="8.271" x="316.6094" y="302.6918">1</text></g><!--link Artista to Manager--><g class="link" data-entity-1="ent0005" data-entity-2="ent0009" data-link-type="dependency" data-source-line="15" id="lnk13"><path codeLine="15" d="M379.32,254.04 C389.14,271.33 400.2371,290.8326 410.1071,308.2126" fill="none" id="Artista-to-Manager" style="stroke:#181818;stroke-width:1;"/><polygon fill="#181818" points="413.07,313.43,412.1039,303.6286,410.6009,309.0822,405.1474,307.5792,413.07,313.43" style="stroke:#181818;stroke-width:1;"/><text fill="#000000" font-family="sans-serif" font-size="13" lengthAdjust="spacing" textLength="8.271" x="400.8835" y="302.6918">1</text></g><!--link Artista to SelloDiscografico--><g class="link" data-entity-1="ent0005" data-entity-2="ent0010" data-link-type="dependency" data-source-line="16" id="lnk14"><path codeLine="16" d="M394.07,247.69 C426.22,264.75 475.6297,290.9781 512.6497,310.6181" fill="none" id="Artista-to-SelloDiscografico" style="stroke:#181818;stroke-width:1;"/><polygon fill="#181818" points="517.95,313.43,511.8742,305.6786,513.5331,311.0867,508.1249,312.7456,517.95,313.43" style="stroke:#181818;stroke-width:1;"/><text fill="#000000" font-family="sans-serif" font-size="13" lengthAdjust="spacing" textLength="8.271" x="498.474" y="302.6918">1</text></g><!--link Productor to EstudioGrabacion--><g class="link" data-entity-1="ent0004" data-entity-2="ent0011" data-link-type="dependency" data-source-line="18" id="lnk15"><path codeLine="18" d="M183.93,254.04 C179.79,271.33 175.2767,290.2148 171.1167,307.5948" fill="none" id="Productor-to-EstudioGrabacion" style="stroke:#181818;stroke-width:1;"/><polygon fill="#181818" points="169.72,313.43,175.7051,305.6084,170.8839,308.5674,167.9249,303.7461,169.72,313.43" style="stroke:#181818;stroke-width:1;"/><text fill="#000000" font-family="sans-serif" font-size="13" lengthAdjust="spacing" textLength="8.271" x="162.0065" y="302.6918">1</text></g><!--link Cancion to Artista--><g class="link" data-entity-1="ent0006" data-entity-2="ent0005" data-link-type="dependency" data-source-line="20" id="lnk16"><path codeLine="20" d="M220.38,149.15 C254.8,168.44 304.0255,196.0174 336.2255,214.0574" fill="none" id="Cancion-to-Artista" style="stroke:#181818;stroke-width:1;"/><polygon fill="#181818" points="341.46,216.99,335.5634,209.1014,337.0979,214.5462,331.6532,216.0807,341.46,216.99" style="stroke:#181818;stroke-width:1;"/><text fill="#000000" font-family="sans-serif" font-size="13" lengthAdjust="spacing" textLength="8.271" x="325.346" y="207.824">1</text></g><!--link Cancion to Productor--><g class="link" data-entity-1="ent0006" data-entity-2="ent0004" data-link-type="dependency" data-source-line="21" id="lnk17"><path codeLine="21" d="M188.79,151.74 C188.79,169.03 188.79,187.76 188.79,205.13" fill="none" id="Cancion-to-Productor" style="stroke:#181818;stroke-width:1;"/><polygon fill="#181818" points="188.79,211.13,192.79,202.13,188.79,206.13,184.79,202.13,188.79,211.13" style="stroke:#181818;stroke-width:1;"/><text fill="#000000" font-family="sans-serif" font-size="13" lengthAdjust="spacing" textLength="8.271" x="179.7526" y="200.3892">1</text></g><!--link Cancion to GeneroMusical--><g class="link" data-entity-1="ent0006" data-entity-2="ent0002" data-link-type="dependency" data-source-line="22" id="lnk18"><path codeLine="22" d="M162.78,151.99 C140.86,169.29 114.3682,190.2107 92.4682,207.5107" fill="none" id="Cancion-to-GeneroMusical" style="stroke:#181818;stroke-width:1;"/><polygon fill="#181818" points="87.76,211.23,97.3018,208.7899,91.6835,208.1306,92.3428,202.5123,87.76,211.23" style="stroke:#181818;stroke-width:1;"/><text fill="#000000" font-family="sans-serif" font-size="13" lengthAdjust="spacing" textLength="8.271" x="85.702" y="200.516">1</text></g><!--link Oyente to Cancion--><g class="link" data-entity-1="ent0008" data-entity-2="ent0006" data-link-type="dependency" data-source-line="24" id="lnk19"><path codeLine="24" d="M231.86,49.45 C222.55,66.73 212.085,86.1774 202.725,103.5574" fill="none" id="Oyente-to-Cancion" style="stroke:#181818;stroke-width:1;stroke-dasharray:7,7;"/><polygon fill="#181818" points="199.88,108.84,207.6692,102.8127,202.2508,104.4378,200.6257,99.0194,199.88,108.84" style="stroke:#181818;stroke-width:1;"/></g><!--link Oyente to Dispositivo--><g class="link" data-entity-1="ent0008" data-entity-2="ent0007" data-link-type="dependency" data-source-line="25" id="lnk20"><path codeLine="25" d="M253.71,49.45 C263.02,66.73 273.485,86.1774 282.845,103.5574" fill="none" id="Oyente-to-Dispositivo" style="stroke:#181818;stroke-width:1;stroke-dasharray:7,7;"/><polygon fill="#181818" points="285.69,108.84,284.9443,99.0194,283.3192,104.4378,277.9008,102.8127,285.69,108.84" style="stroke:#181818;stroke-width:1;"/></g><?plantuml-src PL3B2i8m4BpdAuBt5lo1WgWK3qN1BrZJM1RJRCacGl_Ue4djunAOsTcTpF0BxG0EUib-D3g-3fKFlH526M2MjRRQKHCO5PZ4NMoKXLvRJucvEMg3ykGIFZYFx26X8rY5P1Cw8G_4wF6TjwzZFAKJQC12f_EXkpQ6ueQYpi4JLLuvimyjKktW0T_R8bdAegZaRhzRV78zonvhVkicfcIJQ6kTyasAd7xD_rjQJvOjYryXiYohgRiPDIlm0m00?></g></svg>