<svg xmlns="http://www.w3.org/2000/svg" xmlns:xlink="http://www.w3.org/1999/xlink" contentStyleType="text/css" data-diagram-type="CLASS" height="812px" preserveAspectRatio="none" style="width:778px;height:812px;background:#FFFFFF;" version="1.1" viewBox="0 0 778 812" width="778px" zoomAndPan="magnify"><defs/><g><!--class Artista--><g class="entity" data-entity="Artista" data-source-line="1" data-uid="ent0002" id="entity_Artista"><rect fill="#F1F1F1" height="48" rx="2.5" ry="2.5" style="stroke:#181818;stroke-width:0.5;" width="78.0742" x="176.56" y="132"/><ellipse cx="191.56" cy="148" fill="#ADD1B2" rx="11" ry="11" style="stroke:#181818;stroke-width:1;"/><path d="M194.5288,153.6406 Q193.9506,153.9375 193.31,154.0781 Q192.6694,154.2344 191.9663,154.2344 Q189.4663,154.2344 188.1381,152.5938 Q186.8256,150.9375 186.8256,147.8125 Q186.8256,144.6875 188.1381,143.0313 Q189.4663,141.375 191.9663,141.375 Q192.6694,141.375 193.31,141.5313 Q193.9663,141.6875 194.5288,141.9844 L194.5288,144.7031 Q193.9038,144.125 193.31,143.8594 Q192.7163,143.5781 192.0913,143.5781 Q190.7475,143.5781 190.06,144.6563 Q189.3725,145.7188 189.3725,147.8125 Q189.3725,149.9063 190.06,150.9844 Q190.7475,152.0469 192.0913,152.0469 Q192.7163,152.0469 193.31,151.7813 Q193.9038,151.5 194.5288,150.9219 L194.5288,153.6406 Z " fill="#000000"/><text fill="#000000" font-family="sans-serif" font-size="14" lengthAdjust="spacing" textLength="46.0742" x="205.56" y="152.8467">Artista</text><line style="stroke:#181818;stroke-width:0.5;" x1="177.56" x2="253.6342" y1="164" y2="164"/><line style="stroke:#181818;stroke-width:0.5;" x1="177.56" x2="253.6342" y1="172" y2="172"/></g><!--class Album--><g class="entity" data-entity="Album" data-source-line="2" data-uid="ent0003" id="entity_Album"><rect fill="#F1F1F1" height="48" rx="2.5" ry="2.5" style="stroke:#181818;stroke-width:0.5;" width="76.8643" x="68.06" y="257"/><ellipse cx="83.06" cy="273" fill="#ADD1B2" rx="11" ry="11" style="stroke:#181818;stroke-width:1;"/><path d="M86.0288,278.6406 Q85.4506,278.9375 84.81,279.0781 Q84.1694,279.2344 83.4663,279.2344 Q80.9663,279.2344 79.6381,277.5938 Q78.3256,275.9375 78.3256,272.8125 Q78.3256,269.6875 79.6381,268.0313 Q80.9663,266.375 83.4663,266.375 Q84.1694,266.375 84.81,266.5313 Q85.4663,266.6875 86.0288,266.9844 L86.0288,269.7031 Q85.4038,269.125 84.81,268.8594 Q84.2163,268.5781 83.5913,268.5781 Q82.2475,268.5781 81.56,269.6563 Q80.8725,270.7188 80.8725,272.8125 Q80.8725,274.9063 81.56,275.9844 Q82.2475,277.0469 83.5913,277.0469 Q84.2163,277.0469 84.81,276.7813 Q85.4038,276.5 86.0288,275.9219 L86.0288,278.6406 Z " fill="#000000"/><text fill="#000000" font-family="sans-serif" font-size="14" lengthAdjust="spacing" textLength="44.8643" x="97.06" y="277.8467">Album</text><line style="stroke:#181818;stroke-width:0.5;" x1="69.06" x2="143.9243" y1="289" y2="289"/><line style="stroke:#181818;stroke-width:0.5;" x1="69.06" x2="143.9243" y1="297" y2="297"/></g><!--class Cancion--><g class="entity" data-entity="Cancion" data-source-line="3" data-uid="ent0004" id="entity_Cancion"><rect fill="#F1F1F1" height="48" rx="2.5" ry="2.5" style="stroke:#181818;stroke-width:0.5;" width="88.2529" x="269.56" y="382"/><ellipse cx="284.56" cy="398" fill="#ADD1B2" rx="11" ry="11" style="stroke:#181818;stroke-width:1;"/><path d="M287.5288,403.6406 Q286.9506,403.9375 286.31,404.0781 Q285.6694,404.2344 284.9663,404.2344 Q282.4663,404.2344 281.1381,402.5938 Q279.8256,400.9375 279.8256,397.8125 Q279.8256,394.6875 281.1381,393.0313 Q282.4663,391.375 284.9663,391.375 Q285.6694,391.375 286.31,391.5313 Q286.9663,391.6875 287.5288,391.9844 L287.5288,394.7031 Q286.9038,394.125 286.31,393.8594 Q285.7163,393.5781 285.0913,393.5781 Q283.7475,393.5781 283.06,394.6563 Q282.3725,395.7188 282.3725,397.8125 Q282.3725,399.9063 283.06,400.9844 Q283.7475,402.0469 285.0913,402.0469 Q285.7163,402.0469 286.31,401.7813 Q286.9038,401.5 287.5288,400.9219 L287.5288,403.6406 Z " fill="#000000"/><text fill="#000000" font-family="sans-serif" font-size="14" lengthAdjust="spacing" textLength="56.2529" x="298.56" y="402.8467">Cancion</text><line style="stroke:#181818;stroke-width:0.5;" x1="270.56" x2="356.8129" y1="414" y2="414"/><line style="stroke:#181818;stroke-width:0.5;" x1="270.56" x2="356.8129" y1="422" y2="422"/></g><!--class Letra--><g class="entity" data-entity="Letra" data-source-line="4" data-uid="ent0005" id="entity_Letra"><rect fill="#F1F1F1" height="48" rx="2.5" ry="2.5" style="stroke:#181818;stroke-width:0.5;" width="68.2373" x="275.56" y="507"/><ellipse cx="290.56" cy="523" fill="#ADD1B2" rx="11" ry="11" style="stroke:#181818;stroke-width:1;"/><path d="M293.5288,528.6406 Q292.9506,528.9375 292.31,529.0781 Q291.6694,529.2344 290.9663,529.2344 Q288.4663,529.2344 287.1381,527.5938 Q285.8256,525.9375 285.8256,522.8125 Q285.8256,519.6875 287.1381,518.0313 Q288.4663,516.375 290.9663,516.375 Q291.6694,516.375 292.31,516.5313 Q292.9663,516.6875 293.5288,516.9844 L293.5288,519.7031 Q292.9038,519.125 292.31,518.8594 Q291.7163,518.5781 291.0913,518.5781 Q289.7475,518.5781 289.06,519.6563 Q288.3725,520.7188 288.3725,522.8125 Q288.3725,524.9063 289.06,525.9844 Q289.7475,527.0469 291.0913,527.0469 Q291.7163,527.0469 292.31,526.7813 Q292.9038,526.5 293.5288,525.9219 L293.5288,528.6406 Z " fill="#000000"/><text fill="#000000" font-family="sans-serif" font-size="14" lengthAdjust="spacing" textLength="36.2373" x="304.56" y="527.8467">Letra</text><line style="stroke:#181818;stroke-width:0.5;" x1="276.56" x2="342.7973" y1="539" y2="539"/><line style="stroke:#181818;stroke-width:0.5;" x1="276.56" x2="342.7973" y1="547" y2="547"/></g><!--class Genero--><g class="entity" data-entity="Genero" data-source-line="5" data-uid="ent0006" id="entity_Genero"><rect fill="#F1F1F1" height="48" rx="2.5" ry="2.5" style="stroke:#181818;stroke-width:0.5;" width="83.2695" x="157.06" y="507"/><ellipse cx="172.06" cy="523" fill="#ADD1B2" rx="11" ry="11" style="stroke:#181818;stroke-width:1;"/><path d="M175.0288,528.6406 Q174.4506,528.9375 173.81,529.0781 Q173.1694,529.2344 172.4663,529.2344 Q169.9663,529.2344 168.6381,527.5938 Q167.3256,525.9375 167.3256,522.8125 Q167.3256,519.6875 168.6381,518.0313 Q169.9663,516.375 172.4663,516.375 Q173.1694,516.375 173.81,516.5313 Q174.4663,516.6875 175.0288,516.9844 L175.0288,519.7031 Q174.4038,519.125 173.81,518.8594 Q173.2163,518.5781 172.5913,518.5781 Q171.2475,518.5781 170.56,519.6563 Q169.8725,520.7188 169.8725,522.8125 Q169.8725,524.9063 170.56,525.9844 Q171.2475,527.0469 172.5913,527.0469 Q173.2163,527.0469 173.81,526.7813 Q174.4038,526.5 175.0288,525.9219 L175.0288,528.6406 Z " fill="#000000"/><text fill="#000000" font-family="sans-serif" font-size="14" lengthAdjust="spacing" textLength="51.2695" x="186.06" y="527.8467">Genero</text><line style="stroke:#181818;stroke-width:0.5;" x1="158.06" x2="239.3295" y1="539" y2="539"/><line style="stroke:#181818;stroke-width:0.5;" x1="158.06" x2="239.3295" y1="547" y2="547"/></g><!--class Playlist--><g class="entity" data-entity="Playlist" data-source-line="6" data-uid="ent0007" id="entity_Playlist"><rect fill="#F1F1F1" height="48" rx="2.5" ry="2.5" style="stroke:#181818;stroke-width:0.5;" width="81.7588" x="381.56" y="257"/><ellipse cx="396.56" cy="273" fill="#ADD1B2" rx="11" ry="11" style="stroke:#181818;stroke-width:1;"/><path d="M399.5288,278.6406 Q398.9506,278.9375 398.31,279.0781 Q397.6694,279.2344 396.9663,279.2344 Q394.4663,279.2344 393.1381,277.5938 Q391.8256,275.9375 391.8256,272.8125 Q391.8256,269.6875 393.1381,268.0313 Q394.4663,266.375 396.9663,266.375 Q397.6694,266.375 398.31,266.5313 Q398.9663,266.6875 399.5288,266.9844 L399.5288,269.7031 Q398.9038,269.125 398.31,268.8594 Q397.7163,268.5781 397.0913,268.5781 Q395.7475,268.5781 395.06,269.6563 Q394.3725,270.7188 394.3725,272.8125 Q394.3725,274.9063 395.06,275.9844 Q395.7475,277.0469 397.0913,277.0469 Q397.7163,277.0469 398.31,276.7813 Q398.9038,276.5 399.5288,275.9219 L399.5288,278.6406 Z " fill="#000000"/><text fill="#000000" font-family="sans-serif" font-size="14" lengthAdjust="spacing" textLength="49.7588" x="410.56" y="277.8467">Playlist</text><line style="stroke:#181818;stroke-width:0.5;" x1="382.56" x2="462.3188" y1="289" y2="289"/><line style="stroke:#181818;stroke-width:0.5;" x1="382.56" x2="462.3188" y1="297" y2="297"/></g><!--class Usuario--><g class="entity" data-entity="Usuario" data-source-line="7" data-uid="ent0008" id="entity_Usuario"><rect fill="#F1F1F1" height="48" rx="2.5" ry="2.5" style="stroke:#181818;stroke-width:0.5;" width="85.2041" x="400.06" y="7"/><ellipse cx="415.06" cy="23" fill="#ADD1B2" rx="11" ry="11" style="stroke:#181818;stroke-width:1;"/><path d="M418.0288,28.6406 Q417.4506,28.9375 416.81,29.0781 Q416.1694,29.2344 415.4663,29.2344 Q412.9663,29.2344 411.6381,27.5938 Q410.3256,25.9375 410.3256,22.8125 Q410.3256,19.6875 411.6381,18.0313 Q412.9663,16.375 415.4663,16.375 Q416.1694,16.375 416.81,16.5313 Q417.4663,16.6875 418.0288,16.9844 L418.0288,19.7031 Q417.4038,19.125 416.81,18.8594 Q416.2163,18.5781 415.5913,18.5781 Q414.2475,18.5781 413.56,19.6563 Q412.8725,20.7188 412.8725,22.8125 Q412.8725,24.9063 413.56,25.9844 Q414.2475,27.0469 415.5913,27.0469 Q416.2163,27.0469 416.81,26.7813 Q417.4038,26.5 418.0288,25.9219 L418.0288,28.6406 Z " fill="#000000"/><text fill="#000000" font-family="sans-serif" font-size="14" lengthAdjust="spacing" textLength="53.2041" x="429.06" y="27.8467">Usuario</text><line style="stroke:#181818;stroke-width:0.5;" x1="401.06" x2="484.2641" y1="39" y2="39"/><line style="stroke:#181818;stroke-width:0.5;" x1="401.06" x2="484.2641" y1="47" y2="47"/></g><!--class Suscripcion--><g class="entity" data-entity="Suscripcion" data-source-line="8" data-uid="ent0009" id="entity_Suscripcion"><rect fill="#F1F1F1" height="48" rx="2.5" ry="2.5" style="stroke:#181818;stroke-width:0.5;" width="112.3086" x="505.56" y="132"/><ellipse cx="520.56" cy="148" fill="#ADD1B2" rx="11" ry="11" style="stroke:#181818;stroke-width:1;"/><path d="M523.5288,153.6406 Q522.9506,153.9375 522.31,154.0781 Q521.6694,154.2344 520.9663,154.2344 Q518.4663,154.2344 517.1381,152.5938 Q515.8256,150.9375 515.8256,147.8125 Q515.8256,144.6875 517.1381,143.0313 Q518.4663,141.375 520.9663,141.375 Q521.6694,141.375 522.31,141.5313 Q522.9663,141.6875 523.5288,141.9844 L523.5288,144.7031 Q522.9038,144.125 522.31,143.8594 Q521.7163,143.5781 521.0913,143.5781 Q519.7475,143.5781 519.06,144.6563 Q518.3725,145.7188 518.3725,147.8125 Q518.3725,149.9063 519.06,150.9844 Q519.7475,152.0469 521.0913,152.0469 Q521.7163,152.0469 522.31,151.7813 Q522.9038,151.5 523.5288,150.9219 L523.5288,153.6406 Z " fill="#000000"/><text fill="#000000" font-family="sans-serif" font-size="14" lengthAdjust="spacing" textLength="80.3086" x="534.56" y="152.8467">Suscripcion</text><line style="stroke:#181818;stroke-width:0.5;" x1="506.56" x2="616.8686" y1="164" y2="164"/><line style="stroke:#181818;stroke-width:0.5;" x1="506.56" x2="616.8686" y1="172" y2="172"/></g><!--class Reproductor--><g class="entity" data-entity="Reproductor" data-source-line="9" data-uid="ent0010" id="entity_Reproductor"><rect fill="#F1F1F1" height="48" rx="2.5" ry="2.5" style="stroke:#181818;stroke-width:0.5;" width="118.8164" x="653.06" y="132"/><ellipse cx="668.06" cy="148" fill="#ADD1B2" rx="11" ry="11" style="stroke:#181818;stroke-width:1;"/><path d="M671.0288,153.6406 Q670.4506,153.9375 669.81,154.0781 Q669.1694,154.2344 668.4663,154.2344 Q665.9663,154.2344 664.6381,152.5938 Q663.3256,150.9375 663.3256,147.8125 Q663.3256,144.6875 664.6381,143.0313 Q665.9663,141.375 668.4663,141.375 Q669.1694,141.375 669.81,141.5313 Q670.4663,141.6875 671.0288,141.9844 L671.0288,144.7031 Q670.4038,144.125 669.81,143.8594 Q669.2163,143.5781 668.5913,143.5781 Q667.2475,143.5781 666.56,144.6563 Q665.8725,145.7188 665.8725,147.8125 Q665.8725,149.9063 666.56,150.9844 Q667.2475,152.0469 668.5913,152.0469 Q669.2163,152.0469 669.81,151.7813 Q670.4038,151.5 671.0288,150.9219 L671.0288,153.6406 Z " fill="#000000"/><text fill="#000000" font-family="sans-serif" font-size="14" lengthAdjust="spacing" textLength="86.8164" x="682.06" y="152.8467">Reproductor</text><line style="stroke:#181818;stroke-width:0.5;" x1="654.06" x2="770.8764" y1="164" y2="164"/><line style="stroke:#181818;stroke-width:0.5;" x1="654.06" x2="770.8764" y1="172" y2="172"/></g><!--class Productor--><g class="entity" data-entity="Productor" data-source-line="11" data-uid="ent0011" id="entity_Productor"><rect fill="#F1F1F1" height="48" rx="2.5" ry="2.5" style="stroke:#181818;stroke-width:0.5;" width="100.0313" x="239.56" y="7"/><ellipse cx="254.56" cy="23" fill="#ADD1B2" rx="11" ry="11" style="stroke:#181818;stroke-width:1;"/><path d="M257.5288,28.6406 Q256.9506,28.9375 256.31,29.0781 Q255.6694,29.2344 254.9663,29.2344 Q252.4663,29.2344 251.1381,27.5938 Q249.8256,25.9375 249.8256,22.8125 Q249.8256,19.6875 251.1381,18.0313 Q252.4663,16.375 254.9663,16.375 Q255.6694,16.375 256.31,16.5313 Q256.9663,16.6875 257.5288,16.9844 L257.5288,19.7031 Q256.9038,19.125 256.31,18.8594 Q255.7163,18.5781 255.0913,18.5781 Q253.7475,18.5781 253.06,19.6563 Q252.3725,20.7188 252.3725,22.8125 Q252.3725,24.9063 253.06,25.9844 Q253.7475,27.0469 255.0913,27.0469 Q255.7163,27.0469 256.31,26.7813 Q256.9038,26.5 257.5288,25.9219 L257.5288,28.6406 Z " fill="#000000"/><text fill="#000000" font-family="sans-serif" font-size="14" lengthAdjust="spacing" textLength="68.0313" x="268.56" y="27.8467">Productor</text><line style="stroke:#181818;stroke-width:0.5;" x1="240.56" x2="338.5913" y1="39" y2="39"/><line style="stroke:#181818;stroke-width:0.5;" x1="240.56" x2="338.5913" y1="47" y2="47"/></g><!--class Estudio--><g class="entity" data-entity="Estudio" data-source-line="12" data-uid="ent0012" id="entity_Estudio"><rect fill="#F1F1F1" height="48" rx="2.5" ry="2.5" style="stroke:#181818;stroke-width:0.5;" width="83.8438" x="37.56" y="507"/><ellipse cx="52.56" cy="523" fill="#ADD1B2" rx="11" ry="11" style="stroke:#181818;stroke-width:1;"/><path d="M55.5288,528.6406 Q54.9506,528.9375 54.31,529.0781 Q53.6694,529.2344 52.9663,529.2344 Q50.4663,529.2344 49.1381,527.5938 Q47.8256,525.9375 47.8256,522.8125 Q47.8256,519.6875 49.1381,518.0313 Q50.4663,516.375 52.9663,516.375 Q53.6694,516.375 54.31,516.5313 Q54.9663,516.6875 55.5288,516.9844 L55.5288,519.7031 Q54.9038,519.125 54.31,518.8594 Q53.7163,518.5781 53.0913,518.5781 Q51.7475,518.5781 51.06,519.6563 Q50.3725,520.7188 50.3725,522.8125 Q50.3725,524.9063 51.06,525.9844 Q51.7475,527.0469 53.0913,527.0469 Q53.7163,527.0469 54.31,526.7813 Q54.9038,526.5 55.5288,525.9219 L55.5288,528.6406 Z " fill="#000000"/><text fill="#000000" font-family="sans-serif" font-size="14" lengthAdjust="spacing" textLength="51.8438" x="66.56" y="527.8467">Estudio</text><line style="stroke:#181818;stroke-width:0.5;" x1="38.56" x2="120.4038" y1="539" y2="539"/><line style="stroke:#181818;stroke-width:0.5;" x1="38.56" x2="120.4038" y1="547" y2="547"/></g><!--class Instrumento--><g class="entity" data-entity="Instrumento" data-source-line="13" data-uid="ent0013" id="entity_Instrumento"><rect fill="#F1F1F1" height="48" rx="2.5" ry="2.5" style="stroke:#181818;stroke-width:0.5;" width="117.5928" x="210.56" y="632"/><ellipse cx="225.56" cy="648" fill="#ADD1B2" rx="11" ry="11" style="stroke:#181818;stroke-width:1;"/><path d="M228.5288,653.6406 Q227.9506,653.9375 227.31,654.0781 Q226.6694,654.2344 225.9663,654.2344 Q223.4663,654.2344 222.1381,652.5938 Q220.8256,650.9375 220.8256,647.8125 Q220.8256,644.6875 222.1381,643.0313 Q223.4663,641.375 225.9663,641.375 Q226.6694,641.375 227.31,641.5313 Q227.9663,641.6875 228.5288,641.9844 L228.5288,644.7031 Q227.9038,644.125 227.31,643.8594 Q226.7163,643.5781 226.0913,643.5781 Q224.7475,643.5781 224.06,644.6563 Q223.3725,645.7188 223.3725,647.8125 Q223.3725,649.9063 224.06,650.9844 Q224.7475,652.0469 226.0913,652.0469 Q226.7163,652.0469 227.31,651.7813 Q227.9038,651.5 228.5288,650.9219 L228.5288,653.6406 Z " fill="#000000"/><text fill="#000000" font-family="sans-serif" font-size="14" lengthAdjust="spacing" textLength="85.5928" x="239.56" y="652.8467">Instrumento</text><line style="stroke:#181818;stroke-width:0.5;" x1="211.56" x2="327.1528" y1="664" y2="664"/><line style="stroke:#181818;stroke-width:0.5;" x1="211.56" x2="327.1528" y1="672" y2="672"/></g><!--class Partitura--><g class="entity" data-entity="Partitura" data-source-line="14" data-uid="ent0014" id="entity_Partitura"><rect fill="#F1F1F1" height="48" rx="2.5" ry="2.5" style="stroke:#181818;stroke-width:0.5;" width="92.8535" x="514.06" y="507"/><ellipse cx="529.06" cy="523" fill="#ADD1B2" rx="11" ry="11" style="stroke:#181818;stroke-width:1;"/><path d="M532.0288,528.6406 Q531.4506,528.9375 530.81,529.0781 Q530.1694,529.2344 529.4663,529.2344 Q526.9663,529.2344 525.6381,527.5938 Q524.3256,525.9375 524.3256,522.8125 Q524.3256,519.6875 525.6381,518.0313 Q526.9663,516.375 529.4663,516.375 Q530.1694,516.375 530.81,516.5313 Q531.4663,516.6875 532.0288,516.9844 L532.0288,519.7031 Q531.4038,519.125 530.81,518.8594 Q530.2163,518.5781 529.5913,518.5781 Q528.2475,518.5781 527.56,519.6563 Q526.8725,520.7188 526.8725,522.8125 Q526.8725,524.9063 527.56,525.9844 Q528.2475,527.0469 529.5913,527.0469 Q530.2163,527.0469 530.81,526.7813 Q531.4038,526.5 532.0288,525.9219 L532.0288,528.6406 Z " fill="#000000"/><text fill="#000000" font-family="sans-serif" font-size="14" lengthAdjust="spacing" textLength="60.8535" x="543.06" y="527.8467">Partitura</text><line style="stroke:#181818;stroke-width:0.5;" x1="515.06" x2="605.9135" y1="539" y2="539"/><line style="stroke:#181818;stroke-width:0.5;" x1="515.06" x2="605.9135" y1="547" y2="547"/></g><!--class Nota--><g class="entity" data-entity="Nota" data-source-line="15" data-uid="ent0015" id="entity_Nota"><rect fill="#F1F1F1" height="48" rx="2.5" ry="2.5" style="stroke:#181818;stroke-width:0.5;" width="65.1064" x="570.06" y="757"/><ellipse cx="585.06" cy="773" fill="#ADD1B2" rx="11" ry="11" style="stroke:#181818;stroke-width:1;"/><path d="M588.0288,778.6406 Q587.4506,778.9375 586.81,779.0781 Q586.1694,779.2344 585.4663,779.2344 Q582.9663,779.2344 581.6381,777.5938 Q580.3256,775.9375 580.3256,772.8125 Q580.3256,769.6875 581.6381,768.0313 Q582.9663,766.375 585.4663,766.375 Q586.1694,766.375 586.81,766.5313 Q587.4663,766.6875 588.0288,766.9844 L588.0288,769.7031 Q587.4038,769.125 586.81,768.8594 Q586.2163,768.5781 585.5913,768.5781 Q584.2475,768.5781 583.56,769.6563 Q582.8725,770.7188 582.8725,772.8125 Q582.8725,774.9063 583.56,775.9844 Q584.2475,777.0469 585.5913,777.0469 Q586.2163,777.0469 586.81,776.7813 Q587.4038,776.5 588.0288,775.9219 L588.0288,778.6406 Z " fill="#000000"/><text fill="#000000" font-family="sans-serif" font-size="14" lengthAdjust="spacing" textLength="33.1064" x="599.06" y="777.8467">Nota</text><line style="stroke:#181818;stroke-width:0.5;" x1="571.06" x2="634.1664" y1="789" y2="789"/><line style="stroke:#181818;stroke-width:0.5;" x1="571.06" x2="634.1664" y1="797" y2="797"/></g><!--class Acorde--><g class="entity" data-entity="Acorde" data-source-line="16" data-uid="ent0016" id="entity_Acorde"><rect fill="#F1F1F1" height="48" rx="2.5" ry="2.5" style="stroke:#181818;stroke-width:0.5;" width="81.0957" x="667.06" y="632"/><ellipse cx="682.06" cy="648" fill="#ADD1B2" rx="11" ry="11" style="stroke:#181818;stroke-width:1;"/><path d="M685.0288,653.6406 Q684.4506,653.9375 683.81,654.0781 Q683.1694,654.2344 682.4663,654.2344 Q679.9663,654.2344 678.6381,652.5938 Q677.3256,650.9375 677.3256,647.8125 Q677.3256,644.6875 678.6381,643.0313 Q679.9663,641.375 682.4663,641.375 Q683.1694,641.375 683.81,641.5313 Q684.4663,641.6875 685.0288,641.9844 L685.0288,644.7031 Q684.4038,644.125 683.81,643.8594 Q683.2163,643.5781 682.5913,643.5781 Q681.2475,643.5781 680.56,644.6563 Q679.8725,645.7188 679.8725,647.8125 Q679.8725,649.9063 680.56,650.9844 Q681.2475,652.0469 682.5913,652.0469 Q683.2163,652.0469 683.81,651.7813 Q684.4038,651.5 685.0288,650.9219 L685.0288,653.6406 Z " fill="#000000"/><text fill="#000000" font-family="sans-serif" font-size="14" lengthAdjust="spacing" textLength="49.0957" x="696.06" y="652.8467">Acorde</text><line style="stroke:#181818;stroke-width:0.5;" x1="668.06" x2="747.1557" y1="664" y2="664"/><line style="stroke:#181818;stroke-width:0.5;" x1="668.06" x2="747.1557" y1="672" y2="672"/></g><!--class Comp?s--><g class="entity" data-entity="Comp.s" data-source-line="17" data-uid="ent0017" id="entity_Comp.s"><rect fill="#F1F1F1" height="48" rx="2.5" ry="2.5" style="stroke:#181818;stroke-width:0.5;" width="88.7383" x="414.06" y="632"/><ellipse cx="429.06" cy="648" fill="#ADD1B2" rx="11" ry="11" style="stroke:#181818;stroke-width:1;"/><path d="M432.0288,653.6406 Q431.4506,653.9375 430.81,654.0781 Q430.1694,654.2344 429.4663,654.2344 Q426.9663,654.2344 425.6381,652.5938 Q424.3256,650.9375 424.3256,647.8125 Q424.3256,644.6875 425.6381,643.0313 Q426.9663,641.375 429.4663,641.375 Q430.1694,641.375 430.81,641.5313 Q431.4663,641.6875 432.0288,641.9844 L432.0288,644.7031 Q431.4038,644.125 430.81,643.8594 Q430.2163,643.5781 429.5913,643.5781 Q428.2475,643.5781 427.56,644.6563 Q426.8725,645.7188 426.8725,647.8125 Q426.8725,649.9063 427.56,650.9844 Q428.2475,652.0469 429.5913,652.0469 Q430.2163,652.0469 430.81,651.7813 Q431.4038,651.5 432.0288,650.9219 L432.0288,653.6406 Z " fill="#000000"/><text fill="#000000" font-family="sans-serif" font-size="14" lengthAdjust="spacing" textLength="56.7383" x="443.06" y="652.8467">Comp&#225;s</text><line style="stroke:#181818;stroke-width:0.5;" x1="415.06" x2="501.7983" y1="664" y2="664"/><line style="stroke:#181818;stroke-width:0.5;" x1="415.06" x2="501.7983" y1="672" y2="672"/></g><!--reverse link Usuario to Suscripcion--><g class="link" data-entity-1="Usuario" data-entity-2="Suscripcion" data-source-line="19" data-uid="lnk18" id="link_Usuario_Suscripcion"><path codeLine="19" d="M473.2829,63.7653 C494.5529,85.7553 518.03,110.01 539.27,131.97" fill="none" id="Usuario-backto-Suscripcion" style="stroke:#181818;stroke-width:1;"/><polygon fill="#181818" points="464.94,55.14,466.2363,62.2336,473.2829,63.7653,471.9866,56.6717,464.94,55.14" style="stroke:#181818;stroke-width:1;"/><text fill="#000000" font-family="sans-serif" font-size="13" lengthAdjust="spacing" textLength="32.9443" x="509.56" y="98.0669">tiene</text></g><!--reverse link Cancion to Letra--><g class="link" data-entity-1="Cancion" data-entity-2="Letra" data-source-line="20" data-uid="lnk19" id="link_Cancion_Letra"><path codeLine="20" d="M312.4128,442.1338 C311.7028,464.1238 311.02,485.01 310.3,506.97" fill="none" id="Cancion-backto-Letra" style="stroke:#181818;stroke-width:1;"/><polygon fill="#181818" points="312.8,430.14,308.6085,436.0078,312.4128,442.1338,316.6043,436.266,312.8,430.14" style="stroke:#181818;stroke-width:1;"/><text fill="#000000" font-family="sans-serif" font-size="13" lengthAdjust="spacing" textLength="32.9443" x="312.56" y="473.0669">tiene</text></g><!--reverse link Cancion to Partitura--><g class="link" data-entity-1="Cancion" data-entity-2="Partitura" data-source-line="21" data-uid="lnk20" id="link_Cancion_Partitura"><path codeLine="21" d="M368.7483,428.4053 C393.2183,438.2153 412.89,446.74 439.56,460 C468.35,474.31 499.75,492.56 523.35,506.84" fill="none" id="Cancion-backto-Partitura" style="stroke:#181818;stroke-width:1;"/><polygon fill="#181818" points="357.61,423.94,361.6907,429.8854,368.7483,428.4053,364.6676,422.4599,357.61,423.94" style="stroke:#181818;stroke-width:1;"/><text fill="#000000" font-family="sans-serif" font-size="13" lengthAdjust="spacing" textLength="32.9443" x="470.56" y="473.0669">tiene</text></g><!--reverse link Partitura to Nota--><g class="link" data-entity-1="Partitura" data-entity-2="Nota" data-source-line="22" data-uid="lnk21" id="link_Partitura_Nota"><path codeLine="22" d="M566.5123,567.1618 C574.5323,614.5518 590.65,709.73 598.65,756.91" fill="none" id="Partitura-backto-Nota" style="stroke:#181818;stroke-width:1;"/><polygon fill="#181818" points="564.51,555.33,561.5672,561.9133,566.5123,567.1618,569.4551,560.5784,564.51,555.33" style="stroke:#181818;stroke-width:1;"/><text fill="#000000" font-family="sans-serif" font-size="13" lengthAdjust="spacing" textLength="56.2847" x="585.56" y="660.5669">contiene</text></g><!--reverse link Partitura to Acorde--><g class="link" data-entity-1="Partitura" data-entity-2="Acorde" data-source-line="23" data-uid="lnk22" id="link_Partitura_Acorde"><path codeLine="23" d="M597.4131,562.8408 C623.6931,584.8308 653.79,610.01 680.03,631.97" fill="none" id="Partitura-backto-Acorde" style="stroke:#181818;stroke-width:1;"/><polygon fill="#181818" points="588.21,555.14,590.2446,562.0581,597.4131,562.8408,595.3785,555.9227,588.21,555.14" style="stroke:#181818;stroke-width:1;"/><text fill="#000000" font-family="sans-serif" font-size="13" lengthAdjust="spacing" textLength="56.2847" x="643.56" y="598.0669">contiene</text></g><!--reverse link Acorde to Nota--><g class="link" data-entity-1="Acorde" data-entity-2="Nota" data-source-line="24" data-uid="lnk23" id="link_Acorde_Nota"><path codeLine="24" d="M680.0169,689.2651 C661.2369,711.2551 640.96,735.01 622.22,756.97" fill="none" id="Acorde-backto-Nota" style="stroke:#181818;stroke-width:1;"/><polygon fill="#181818" points="687.81,680.14,680.8718,682.1049,680.0169,689.2651,686.9552,687.3003,687.81,680.14" style="stroke:#181818;stroke-width:1;"/><text fill="#000000" font-family="sans-serif" font-size="13" lengthAdjust="spacing" textLength="46.0205" x="661.56" y="723.0669">agrupa</text></g><!--reverse link Album to Cancion--><g class="link" data-entity-1="Album" data-entity-2="Cancion" data-source-line="26" data-uid="lnk24" id="link_Album_Cancion"><path codeLine="26" d="M111.6493,316.8937 C114.6593,332.1737 118.59,339.79 131.56,352 C169.04,387.32 228.71,399.26 269.44,403.21" fill="none" id="Album-backto-Cancion" style="stroke:#181818;stroke-width:1;"/><polygon fill="none" points="109.33,305.12,106.5651,311.78,111.6493,316.8937,114.4142,310.2338,109.33,305.12" style="stroke:#181818;stroke-width:1;"/><text fill="#000000" font-family="sans-serif" font-size="13" lengthAdjust="spacing" textLength="56.2847" x="132.56" y="348.0669">contiene</text></g><!--reverse link Playlist to Cancion--><g class="link" data-entity-1="Playlist" data-entity-2="Cancion" data-source-line="27" data-uid="lnk25" id="link_Playlist_Cancion"><path codeLine="27" d="M394.0929,314.1224 C374.6129,336.1124 353.42,360.01 333.97,381.97" fill="none" id="Playlist-backto-Cancion" style="stroke:#181818;stroke-width:1;"/><polygon fill="none" points="402.05,305.14,395.0773,306.9788,394.0929,314.1224,401.0656,312.2836,402.05,305.14" style="stroke:#181818;stroke-width:1;"/><text fill="#000000" font-family="sans-serif" font-size="13" lengthAdjust="spacing" textLength="56.2847" x="375.56" y="348.0669">contiene</text></g><!--reverse link Usuario to Playlist--><g class="link" data-entity-1="Usuario" data-entity-2="Playlist" data-source-line="28" data-uid="lnk26" id="link_Usuario_Playlist"><path codeLine="28" d="M439.7058,67.2912 C435.8858,114.6812 428.22,209.73 424.42,256.91" fill="none" id="Usuario-backto-Playlist" style="stroke:#181818;stroke-width:1;"/><polygon fill="none" points="440.67,55.33,436.2008,60.9892,439.7058,67.2912,444.175,61.632,440.67,55.33" style="stroke:#181818;stroke-width:1;"/><text fill="#000000" font-family="sans-serif" font-size="13" lengthAdjust="spacing" textLength="46.5093" x="434.56" y="160.5669">accede</text></g><!--reverse link Cancion to Instrumento--><g class="link" data-entity-1="Cancion" data-entity-2="Instrumento" data-source-line="29" data-uid="lnk27" id="link_Cancion_Instrumento"><path codeLine="29" d="M342.1946,439.3798 C349.2246,448.1898 348.94,449.31 353.56,460 C370.35,498.9 376.95,515.52 361.56,555 C349.38,586.21 322.41,613.56 300.8,631.74" fill="none" id="Cancion-backto-Instrumento" style="stroke:#181818;stroke-width:1;"/><polygon fill="none" points="334.71,430,335.3257,437.1848,342.1946,439.3798,341.5789,432.195,334.71,430" style="stroke:#181818;stroke-width:1;"/><text fill="#000000" font-family="sans-serif" font-size="13" lengthAdjust="spacing" textLength="38.9619" x="370.56" y="535.5669">utiliza</text></g><!--reverse link Estudio to Instrumento--><g class="link" data-entity-1="Estudio" data-entity-2="Instrumento" data-source-line="30" data-uid="lnk28" id="link_Estudio_Instrumento"><path codeLine="30" d="M125.3636,561.661 C159.3336,583.651 200.06,610.01 233.98,631.97" fill="none" id="Estudio-backto-Instrumento" style="stroke:#181818;stroke-width:1;"/><polygon fill="none" points="115.29,555.14,118.1531,561.7583,125.3636,561.661,122.5004,555.0426,115.29,555.14" style="stroke:#181818;stroke-width:1;"/><text fill="#000000" font-family="sans-serif" font-size="13" lengthAdjust="spacing" textLength="78.019" x="187.56" y="598.0669">proporciona</text></g><!--link Artista to Album--><g class="link" data-entity-1="Artista" data-entity-2="Album" data-source-line="32" data-uid="lnk29" id="link_Artista_Album"><path codeLine="32" d="M176.28,179.29 C163.76,187.75 150.56,198.21 140.56,210 C128.84,223.8 122.2578,236.7431 116.5678,251.2731" fill="none" id="Artista-to-Album" style="stroke:#181818;stroke-width:1;"/><polygon fill="#181818" points="114.38,256.86,121.3864,249.9382,116.2032,252.2043,113.9372,247.0211,114.38,256.86" style="stroke:#181818;stroke-width:1;"/><text fill="#000000" font-family="sans-serif" font-size="13" lengthAdjust="spacing" textLength="47.0806" x="141.56" y="223.0669">publica</text></g><!--link Artista to Cancion--><g class="link" data-entity-1="Artista" data-entity-2="Cancion" data-source-line="33" data-uid="lnk30" id="link_Artista_Cancion"><path codeLine="33" d="M216.68,180.19 C218.81,210.11 224.95,263.24 242.56,305 C254.71,333.84 272.4533,357.9421 288.6433,377.1521" fill="none" id="Artista-to-Cancion" style="stroke:#181818;stroke-width:1;"/><polygon fill="#181818" points="292.51,381.74,289.7686,372.2804,289.2878,377.9167,283.6514,377.4359,292.51,381.74" style="stroke:#181818;stroke-width:1;"/><text fill="#000000" font-family="sans-serif" font-size="13" lengthAdjust="spacing" textLength="47.0806" x="243.56" y="285.5669">publica</text></g><!--link Cancion to Genero--><g class="link" data-entity-1="Cancion" data-entity-2="Genero" data-source-line="34" data-uid="lnk31" id="link_Cancion_Genero"><path codeLine="34" d="M270.68,430.15 C257.99,438.4 244.77,448.53 234.56,460 C222.38,473.68 215.4071,486.6755 209.3071,501.2455" fill="none" id="Cancion-to-Genero" style="stroke:#181818;stroke-width:1;"/><polygon fill="#181818" points="206.99,506.78,214.1554,500.023,208.9209,502.1679,206.776,496.9335,206.99,506.78" style="stroke:#181818;stroke-width:1;"/><text fill="#000000" font-family="sans-serif" font-size="13" lengthAdjust="spacing" textLength="66.0728" x="235.56" y="473.0669">pertenece</text></g><!--link Productor to Cancion--><g class="link" data-entity-1="Productor" data-entity-2="Cancion" data-source-line="35" data-uid="lnk32" id="link_Productor_Cancion"><path codeLine="35" d="M291.04,55.05 C295.33,121.76 307.3446,308.5224 311.6646,375.6424" fill="none" id="Productor-to-Cancion" style="stroke:#181818;stroke-width:1;"/><polygon fill="#181818" points="312.05,381.63,315.4637,372.3917,311.7289,376.6403,307.4802,372.9055,312.05,381.63" style="stroke:#181818;stroke-width:1;"/><text fill="#000000" font-family="sans-serif" font-size="13" lengthAdjust="spacing" textLength="62.6514" x="302.56" y="223.0669">supervisa</text></g><!--link Cancion to Estudio--><g class="link" data-entity-1="Cancion" data-entity-2="Estudio" data-source-line="36" data-uid="lnk33" id="link_Cancion_Estudio"><path codeLine="36" d="M269.53,413.34 C232.48,420.25 179.34,434 139.56,460 C121.07,472.09 108.5414,486.5791 97.7214,501.8991" fill="none" id="Cancion-to-Estudio" style="stroke:#181818;stroke-width:1;"/><polygon fill="#181818" points="94.26,506.8,102.7193,501.7562,97.1445,502.7159,96.1848,497.141,94.26,506.8" style="stroke:#181818;stroke-width:1;"/><text fill="#000000" font-family="sans-serif" font-size="13" lengthAdjust="spacing" textLength="74.3691" x="140.56" y="473.0669">grabada en</text></g><!--link Partitura to Comp?s--><g class="link" data-entity-1="Partitura" data-entity-2="Comp.s" data-source-line="37" data-uid="lnk34" id="link_Partitura_Comp.s"><path codeLine="37" d="M538.34,555.04 C529.76,564.18 520,574.91 511.56,585 C498.83,600.19 488.9112,613.1738 478.7412,627.0238" fill="none" id="Partitura-to-Comp&#225;s" style="stroke:#181818;stroke-width:1;"/><polygon fill="#181818" points="475.19,631.86,483.741,626.9732,478.1493,627.8298,477.2927,622.2382,475.19,631.86" style="stroke:#181818;stroke-width:1;"/><text fill="#000000" font-family="sans-serif" font-size="13" lengthAdjust="spacing" textLength="34.874" x="512.56" y="598.0669">sigue</text></g><!--link Productor to Artista--><g class="link" data-entity-1="Productor" data-entity-2="Artista" data-source-line="38" data-uid="lnk35" id="link_Productor_Artista"><path codeLine="38" d="M265.83,55.09 C257.69,63.9 249.01,74.39 242.56,85 C233.62,99.69 228.5725,112.1331 223.9825,126.2731" fill="none" id="Productor-to-Artista" style="stroke:#181818;stroke-width:1;"/><polygon fill="#181818" points="222.13,131.98,228.7133,124.6547,223.6738,127.2243,221.1042,122.1847,222.13,131.98" style="stroke:#181818;stroke-width:1;"/><text fill="#000000" font-family="sans-serif" font-size="13" lengthAdjust="spacing" textLength="37.0703" x="243.56" y="98.0669">dirige</text></g><!--link Usuario to Artista--><g class="link" data-entity-1="Usuario" data-entity-2="Artista" data-source-line="39" data-uid="lnk36" id="link_Usuario_Artista"><path codeLine="39" d="M399.86,55.14 C358.12,77.75 300.385,109.0309 259.925,130.9609" fill="none" id="Usuario-to-Artista" style="stroke:#181818;stroke-width:1;"/><polygon fill="#181818" points="254.65,133.82,264.4686,133.048,259.0458,131.4374,260.6564,126.0147,254.65,133.82" style="stroke:#181818;stroke-width:1;"/><text fill="#000000" font-family="sans-serif" font-size="13" lengthAdjust="spacing" textLength="34.874" x="343.56" y="98.0669">sigue</text></g><!--link Usuario to Reproductor--><g class="link" data-entity-1="Usuario" data-entity-2="Reproductor" data-source-line="41" data-uid="lnk37" id="link_Usuario_Reproductor"><path codeLine="41" d="M485.34,51.49 C533.22,73.3 605.2799,106.1327 656.2299,129.3427" fill="none" id="Usuario-to-Reproductor" style="stroke:#181818;stroke-width:1;stroke-dasharray:7,7;"/><polygon fill="#181818" points="661.69,131.83,655.158,124.4589,657.1399,129.7572,651.8416,131.7391,661.69,131.83" style="stroke:#181818;stroke-width:1;"/><text fill="#000000" font-family="sans-serif" font-size="13" lengthAdjust="spacing" textLength="38.9619" x="594.56" y="98.0669">utiliza</text></g><!--link Reproductor to Playlist--><g class="link" data-entity-1="Reproductor" data-entity-2="Playlist" data-source-line="42" data-uid="lnk38" id="link_Reproductor_Playlist"><path codeLine="42" d="M658.01,180.14 C601.57,204.07 520.2039,238.5877 469.2639,260.1877" fill="none" id="Reproductor-to-Playlist" style="stroke:#181818;stroke-width:1;stroke-dasharray:7,7;"/><polygon fill="#181818" points="463.74,262.53,473.5874,262.6992,468.3433,260.5781,470.4643,255.3339,463.74,262.53" style="stroke:#181818;stroke-width:1;"/><text fill="#000000" font-family="sans-serif" font-size="13" lengthAdjust="spacing" textLength="38.9619" x="585.56" y="223.0669">utiliza</text></g><!--link Reproductor to Cancion--><g class="link" data-entity-1="Reproductor" data-entity-2="Cancion" data-source-line="43" data-uid="lnk39" id="link_Reproductor_Cancion"><path codeLine="43" d="M688.1,180.01 C672.64,194.15 651.98,212.3 632.56,227 C551.37,288.46 530.58,304.42 440.56,352 C413.84,366.12 388.1031,377.058 363.2531,386.708" fill="none" id="Reproductor-to-Cancion" style="stroke:#181818;stroke-width:1;stroke-dasharray:7,7;"/><polygon fill="#181818" points="357.66,388.88,367.4976,389.3508,362.3209,387.07,364.6017,381.8933,357.66,388.88" style="stroke:#181818;stroke-width:1;"/><text fill="#000000" font-family="sans-serif" font-size="13" lengthAdjust="spacing" textLength="38.9619" x="592.56" y="285.5669">utiliza</text></g><!--link Artista to Estudio--><g class="link" data-entity-1="Artista" data-entity-2="Estudio" data-source-line="44" data-uid="lnk40" id="link_Artista_Estudio"><path codeLine="44" d="M176.28,167.96 C136.22,181.51 76.4,208.9 50.56,257 C6,339.92 45.0746,451.8702 66.3546,501.2302" fill="none" id="Artista-to-Estudio" style="stroke:#181818;stroke-width:1;stroke-dasharray:7,7;"/><polygon fill="#181818" points="68.73,506.74,68.8401,496.8918,66.7505,502.1485,61.4938,500.0589,68.73,506.74" style="stroke:#181818;stroke-width:1;"/><text fill="#000000" font-family="sans-serif" font-size="13" lengthAdjust="spacing" textLength="38.9619" x="32.56" y="348.0669">utiliza</text></g><!--SRC=[TP9DQiKW4CVtdi9r8Uy0MJmefPH2AUML7c1Y90Y9Xb4BxMrwbbwi6Xqr8TqvyvkF_umZPh2MtwDJrW4JoPe7l-Jt0sYXZCxMYtH8KKzIIpJPU9lXQmubilbXFQ0Y-EwjGBKsTMvoHJDwuGmogb0SoNwqpe-bnBEs3lqYjIiT8MXsliXvDLM_C3XA6i0iw- -FPInhudTTrohYFNSgZCBof1lVvZmbfMsXrHDvb16GCFgC9cKjpvuc5IRqAp2s_G8t0L3_jcpUzt-SXesun8RQGiYn3XHfizaGu9sQrJUmlFsJYF1ngy6O7ZMck-5TTqrN4mFyC2i1ErOL4YLFfEcI8fJembk4-UWQ3kdMXvXFPVS5I6tF9uG1Hk1IDvlVIgGpY2NKv8yDI6lFHuLggllRmvHQuELoRI-vhe-prXt3cZ-W5Hz3wf0KGOqZhIDc-WS0]--></g></svg>